solid inner_stepped_mound_layer_10
  facet normal 0 0 -1
    outer loop
      vertex 2 51.33694 0
      vertex 51.33694 51.33694 0
      vertex 51.33694 2 0
    endloop
  endfacet
  facet normal 0 0 -1
    outer loop
      vertex 2 51.33694 0
      vertex 51.33694 2 0
      vertex 2 2 0
    endloop
  endfacet
  facet normal 0 0 1
    outer loop
      vertex 2 2 5.925
      vertex 51.33694 2 5.925
      vertex 51.33694 51.33694 5.925
    endloop
  endfacet
  facet normal 0 0 1
    outer loop
      vertex 2 2 5.925
      vertex 51.33694 51.33694 5.925
      vertex 2 51.33694 5.925
    endloop
  endfacet
  facet normal 0 -1 0
    outer loop
      vertex 2 2 0
      vertex 51.33694 2 0
      vertex 51.33694 2 5.925
    endloop
  endfacet
  facet normal 0 -1 0
    outer loop
      vertex 2 2 0
      vertex 51.33694 2 5.925
      vertex 2 2 5.925
    endloop
  endfacet
  facet normal 1 0 0
    outer loop
      vertex 51.33694 2 0
      vertex 51.33694 51.33694 0
      vertex 51.33694 51.33694 5.925
    endloop
  endfacet
  facet normal 1 0 0
    outer loop
      vertex 51.33694 2 0
      vertex 51.33694 51.33694 5.925
      vertex 51.33694 2 5.925
    endloop
  endfacet
  facet normal 0 1 0
    outer loop
      vertex 51.33694 51.33694 0
      vertex 2 51.33694 0
      vertex 2 51.33694 5.925
    endloop
  endfacet
  facet normal 0 1 -0
    outer loop
      vertex 51.33694 51.33694 0
      vertex 2 51.33694 5.925
      vertex 51.33694 51.33694 5.925
    endloop
  endfacet
  facet normal -1 0 0
    outer loop
      vertex 2 51.33694 0
      vertex 2 2 0
      vertex 2 2 5.925
    endloop
  endfacet
  facet normal -1 0 0
    outer loop
      vertex 2 51.33694 0
      vertex 2 2 5.925
      vertex 2 51.33694 5.925
    endloop
  endfacet
endsolid inner_stepped_mound_layer_10
