solid inner_stepped_mound_layer_04
  facet normal 0 0 -1
    outer loop
      vertex 2 87.77898 0
      vertex 87.77898 87.77898 0
      vertex 87.77898 2 0
    endloop
  endfacet
  facet normal 0 0 -1
    outer loop
      vertex 2 87.77898 0
      vertex 87.77898 2 0
      vertex 2 2 0
    endloop
  endfacet
  facet normal 0 0 1
    outer loop
      vertex 2 2 5.925
      vertex 87.77898 2 5.925
      vertex 87.77898 87.77898 5.925
    endloop
  endfacet
  facet normal 0 0 1
    outer loop
      vertex 2 2 5.925
      vertex 87.77898 87.77898 5.925
      vertex 2 87.77898 5.925
    endloop
  endfacet
  facet normal 0 -1 0
    outer loop
      vertex 2 2 0
      vertex 87.77898 2 0
      vertex 87.77898 2 5.925
    endloop
  endfacet
  facet normal 0 -1 0
    outer loop
      vertex 2 2 0
      vertex 87.77898 2 5.925
      vertex 2 2 5.925
    endloop
  endfacet
  facet normal 1 0 0
    outer loop
      vertex 87.77898 2 0
      vertex 87.77898 87.77898 0
      vertex 87.77898 87.77898 5.925
    endloop
  endfacet
  facet normal 1 0 0
    outer loop
      vertex 87.77898 2 0
      vertex 87.77898 87.77898 5.925
      vertex 87.77898 2 5.925
    endloop
  endfacet
  facet normal 0 1 0
    outer loop
      vertex 87.77898 87.77898 0
      vertex 2 87.77898 0
      vertex 2 87.77898 5.925
    endloop
  endfacet
  facet normal 0 1 -0
    outer loop
      vertex 87.77898 87.77898 0
      vertex 2 87.77898 5.925
      vertex 87.77898 87.77898 5.925
    endloop
  endfacet
  facet normal -1 0 0
    outer loop
      vertex 2 87.77898 0
      vertex 2 2 0
      vertex 2 2 5.925
    endloop
  endfacet
  facet normal -1 0 0
    outer loop
      vertex 2 87.77898 0
      vertex 2 2 5.925
      vertex 2 87.77898 5.925
    endloop
  endfacet
endsolid inner_stepped_mound_layer_04
