solid inner_stepped_mound_layer_16
  facet normal 0 0 -1
    outer loop
      vertex 2 14.89489 0
      vertex 14.89489 14.89489 0
      vertex 14.89489 2 0
    endloop
  endfacet
  facet normal 0 0 -1
    outer loop
      vertex 2 14.89489 0
      vertex 14.89489 2 0
      vertex 2 2 0
    endloop
  endfacet
  facet normal 0 0 1
    outer loop
      vertex 2 2 5.925
      vertex 14.89489 2 5.925
      vertex 14.89489 14.89489 5.925
    endloop
  endfacet
  facet normal 0 0 1
    outer loop
      vertex 2 2 5.925
      vertex 14.89489 14.89489 5.925
      vertex 2 14.89489 5.925
    endloop
  endfacet
  facet normal 0 -1 0
    outer loop
      vertex 2 2 0
      vertex 14.89489 2 0
      vertex 14.89489 2 5.925
    endloop
  endfacet
  facet normal 0 -1 0
    outer loop
      vertex 2 2 0
      vertex 14.89489 2 5.925
      vertex 2 2 5.925
    endloop
  endfacet
  facet normal 1 0 0
    outer loop
      vertex 14.89489 2 0
      vertex 14.89489 14.89489 0
      vertex 14.89489 14.89489 5.925
    endloop
  endfacet
  facet normal 1 0 0
    outer loop
      vertex 14.89489 2 0
      vertex 14.89489 14.89489 5.925
      vertex 14.89489 2 5.925
    endloop
  endfacet
  facet normal 0 1 0
    outer loop
      vertex 14.89489 14.89489 0
      vertex 2 14.89489 0
      vertex 2 14.89489 5.925
    endloop
  endfacet
  facet normal 0 1 -0
    outer loop
      vertex 14.89489 14.89489 0
      vertex 2 14.89489 5.925
      vertex 14.89489 14.89489 5.925
    endloop
  endfacet
  facet normal -1 0 0
    outer loop
      vertex 2 14.89489 0
      vertex 2 2 0
      vertex 2 2 5.925
    endloop
  endfacet
  facet normal -1 0 0
    outer loop
      vertex 2 14.89489 0
      vertex 2 2 5.925
      vertex 2 14.89489 5.925
    endloop
  endfacet
endsolid inner_stepped_mound_layer_16
