solid inner_stepped_mound_layer_12
  facet normal 0 -1 0
    outer loop
      vertex 2 2 0
      vertex 39.18959 2 0
      vertex 39.18959 2 5.925
    endloop
  endfacet
  facet normal 0 -1 0
    outer loop
      vertex 2 2 0
      vertex 39.18959 2 5.925
      vertex 2 2 5.925
    endloop
  endfacet
  facet normal 1 0 0
    outer loop
      vertex 39.18959 2 0
      vertex 39.18959 39.18959 0
      vertex 39.18959 39.18959 5.925
    endloop
  endfacet
  facet normal 1 0 0
    outer loop
      vertex 39.18959 2 0
      vertex 39.18959 39.18959 5.925
      vertex 39.18959 2 5.925
    endloop
  endfacet
  facet normal 0 1 0
    outer loop
      vertex 39.18959 39.18959 0
      vertex 2 39.18959 0
      vertex 2 39.18959 5.925
    endloop
  endfacet
  facet normal 0 1 -0
    outer loop
      vertex 39.18959 39.18959 0
      vertex 2 39.18959 5.925
      vertex 39.18959 39.18959 5.925
    endloop
  endfacet
  facet normal -1 0 0
    outer loop
      vertex 2 39.18959 0
      vertex 2 2 0
      vertex 2 2 5.925
    endloop
  endfacet
  facet normal -1 0 0
    outer loop
      vertex 2 39.18959 0
      vertex 2 2 5.925
      vertex 2 39.18959 5.925
    endloop
  endfacet
  facet normal 0 0 1
    outer loop
      vertex 2 2 5.925
      vertex 39.18959 2 5.925
      vertex 39.18959 5.036837 5.925
    endloop
  endfacet
  facet normal 0 0 1
    outer loop
      vertex 2 2 5.925
      vertex 39.18959 5.036837 5.925
      vertex 2 5.036837 5.925
    endloop
  endfacet
  facet normal 0 0 1
    outer loop
      vertex 36.15275 5.036837 5.925
      vertex 39.18959 5.036837 5.925
      vertex 39.18959 36.15275 5.925
    endloop
  endfacet
  facet normal 0 0 1
    outer loop
      vertex 36.15275 5.036837 5.925
      vertex 39.18959 36.15275 5.925
      vertex 36.15275 36.15275 5.925
    endloop
  endfacet
  facet normal 0 0 1
    outer loop
      vertex 2 36.15275 5.925
      vertex 39.18959 36.15275 5.925
      vertex 39.18959 39.18959 5.925
    endloop
  endfacet
  facet normal 0 0 1
    outer loop
      vertex 2 36.15275 5.925
      vertex 39.18959 39.18959 5.925
      vertex 2 39.18959 5.925
    endloop
  endfacet
  facet normal 0 0 1
    outer loop
      vertex 2 5.036837 5.925
      vertex 5.036837 5.036837 5.925
      vertex 5.036837 36.15275 5.925
    endloop
  endfacet
  facet normal 0 0 1
    outer loop
      vertex 2 5.036837 5.925
      vertex 5.036837 36.15275 5.925
      vertex 2 36.15275 5.925
    endloop
  endfacet
endsolid inner_stepped_mound_layer_12
