solid inner_stepped_mound_layer_09
  facet normal 0 0 -1
    outer loop
      vertex 2 57.41061 0
      vertex 57.41061 57.41061 0
      vertex 57.41061 2 0
    endloop
  endfacet
  facet normal 0 0 -1
    outer loop
      vertex 2 57.41061 0
      vertex 57.41061 2 0
      vertex 2 2 0
    endloop
  endfacet
  facet normal 0 0 1
    outer loop
      vertex 2 2 5.925
      vertex 57.41061 2 5.925
      vertex 57.41061 57.41061 5.925
    endloop
  endfacet
  facet normal 0 0 1
    outer loop
      vertex 2 2 5.925
      vertex 57.41061 57.41061 5.925
      vertex 2 57.41061 5.925
    endloop
  endfacet
  facet normal 0 -1 0
    outer loop
      vertex 2 2 0
      vertex 57.41061 2 0
      vertex 57.41061 2 5.925
    endloop
  endfacet
  facet normal 0 -1 0
    outer loop
      vertex 2 2 0
      vertex 57.41061 2 5.925
      vertex 2 2 5.925
    endloop
  endfacet
  facet normal 1 0 0
    outer loop
      vertex 57.41061 2 0
      vertex 57.41061 57.41061 0
      vertex 57.41061 57.41061 5.925
    endloop
  endfacet
  facet normal 1 0 0
    outer loop
      vertex 57.41061 2 0
      vertex 57.41061 57.41061 5.925
      vertex 57.41061 2 5.925
    endloop
  endfacet
  facet normal 0 1 0
    outer loop
      vertex 57.41061 57.41061 0
      vertex 2 57.41061 0
      vertex 2 57.41061 5.925
    endloop
  endfacet
  facet normal 0 1 -0
    outer loop
      vertex 57.41061 57.41061 0
      vertex 2 57.41061 5.925
      vertex 57.41061 57.41061 5.925
    endloop
  endfacet
  facet normal -1 0 0
    outer loop
      vertex 2 57.41061 0
      vertex 2 2 0
      vertex 2 2 5.925
    endloop
  endfacet
  facet normal -1 0 0
    outer loop
      vertex 2 57.41061 0
      vertex 2 2 5.925
      vertex 2 57.41061 5.925
    endloop
  endfacet
endsolid inner_stepped_mound_layer_09
