solid inner_stepped_mound_layer_13
  facet normal 0 -1 0
    outer loop
      vertex 2 2 0
      vertex 33.11591 2 0
      vertex 33.11591 2 5.925
    endloop
  endfacet
  facet normal 0 -1 0
    outer loop
      vertex 2 2 0
      vertex 33.11591 2 5.925
      vertex 2 2 5.925
    endloop
  endfacet
  facet normal 1 0 0
    outer loop
      vertex 33.11591 2 0
      vertex 33.11591 33.11591 0
      vertex 33.11591 33.11591 5.925
    endloop
  endfacet
  facet normal 1 0 0
    outer loop
      vertex 33.11591 2 0
      vertex 33.11591 33.11591 5.925
      vertex 33.11591 2 5.925
    endloop
  endfacet
  facet normal 0 1 0
    outer loop
      vertex 33.11591 33.11591 0
      vertex 2 33.11591 0
      vertex 2 33.11591 5.925
    endloop
  endfacet
  facet normal 0 1 -0
    outer loop
      vertex 33.11591 33.11591 0
      vertex 2 33.11591 5.925
      vertex 33.11591 33.11591 5.925
    endloop
  endfacet
  facet normal -1 0 0
    outer loop
      vertex 2 33.11591 0
      vertex 2 2 0
      vertex 2 2 5.925
    endloop
  endfacet
  facet normal -1 0 0
    outer loop
      vertex 2 33.11591 0
      vertex 2 2 5.925
      vertex 2 33.11591 5.925
    endloop
  endfacet
  facet normal 0 0 1
    outer loop
      vertex 2 2 5.925
      vertex 33.11591 2 5.925
      vertex 33.11591 5.036837 5.925
    endloop
  endfacet
  facet normal 0 0 1
    outer loop
      vertex 2 2 5.925
      vertex 33.11591 5.036837 5.925
      vertex 2 5.036837 5.925
    endloop
  endfacet
  facet normal 0 0 1
    outer loop
      vertex 30.07908 5.036837 5.925
      vertex 33.11591 5.036837 5.925
      vertex 33.11591 30.07908 5.925
    endloop
  endfacet
  facet normal 0 0 1
    outer loop
      vertex 30.07908 5.036837 5.925
      vertex 33.11591 30.07908 5.925
      vertex 30.07908 30.07908 5.925
    endloop
  endfacet
  facet normal 0 0 1
    outer loop
      vertex 2 30.07908 5.925
      vertex 33.11591 30.07908 5.925
      vertex 33.11591 33.11591 5.925
    endloop
  endfacet
  facet normal 0 0 1
    outer loop
      vertex 2 30.07908 5.925
      vertex 33.11591 33.11591 5.925
      vertex 2 33.11591 5.925
    endloop
  endfacet
  facet normal 0 0 1
    outer loop
      vertex 2 5.036837 5.925
      vertex 5.036837 5.036837 5.925
      vertex 5.036837 30.07908 5.925
    endloop
  endfacet
  facet normal 0 0 1
    outer loop
      vertex 2 5.036837 5.925
      vertex 5.036837 30.07908 5.925
      vertex 2 30.07908 5.925
    endloop
  endfacet
endsolid inner_stepped_mound_layer_13
