solid temporary_cut_stepped_mound_layer_08
  facet normal 0 0 -1
    outer loop
      vertex 2 156.6428 0
      vertex 156.6428 156.6428 0
      vertex 156.6428 2 0
    endloop
  endfacet
  facet normal 0 0 -1
    outer loop
      vertex 2 156.6428 0
      vertex 156.6428 2 0
      vertex 2 2 0
    endloop
  endfacet
  facet normal 0 0 1
    outer loop
      vertex 2 2 5.925
      vertex 156.6428 2 5.925
      vertex 156.6428 156.6428 5.925
    endloop
  endfacet
  facet normal 0 0 1
    outer loop
      vertex 2 2 5.925
      vertex 156.6428 156.6428 5.925
      vertex 2 156.6428 5.925
    endloop
  endfacet
  facet normal 0 -1 0
    outer loop
      vertex 2 2 0
      vertex 156.6428 2 0
      vertex 156.6428 2 5.925
    endloop
  endfacet
  facet normal 0 -1 0
    outer loop
      vertex 2 2 0
      vertex 156.6428 2 5.925
      vertex 2 2 5.925
    endloop
  endfacet
  facet normal 1 0 0
    outer loop
      vertex 156.6428 2 0
      vertex 156.6428 156.6428 0
      vertex 156.6428 156.6428 5.925
    endloop
  endfacet
  facet normal 1 0 0
    outer loop
      vertex 156.6428 2 0
      vertex 156.6428 156.6428 5.925
      vertex 156.6428 2 5.925
    endloop
  endfacet
  facet normal 0 1 0
    outer loop
      vertex 156.6428 156.6428 0
      vertex 2 156.6428 0
      vertex 2 156.6428 5.925
    endloop
  endfacet
  facet normal 0 1 -0
    outer loop
      vertex 156.6428 156.6428 0
      vertex 2 156.6428 5.925
      vertex 156.6428 156.6428 5.925
    endloop
  endfacet
  facet normal -1 0 0
    outer loop
      vertex 2 156.6428 0
      vertex 2 2 0
      vertex 2 2 5.925
    endloop
  endfacet
  facet normal -1 0 0
    outer loop
      vertex 2 156.6428 0
      vertex 2 2 5.925
      vertex 2 156.6428 5.925
    endloop
  endfacet
endsolid temporary_cut_stepped_mound_layer_08
