solid temporary_cut_stepped_mound_layer_07
  facet normal 0 0 1
    outer loop
      vertex 2 2 5.925
      vertex 49.49862 2 5.925
      vertex 49.49862 49.49862 5.925
    endloop
  endfacet
  facet normal 0 0 1
    outer loop
      vertex 2 2 5.925
      vertex 49.49862 49.49862 5.925
      vertex 2 49.49862 5.925
    endloop
  endfacet
  facet normal 0 0 -1
    outer loop
      vertex 2 49.49862 0
      vertex 49.49862 49.49862 0
      vertex 49.49862 2 0
    endloop
  endfacet
  facet normal 0 0 -1
    outer loop
      vertex 2 49.49862 0
      vertex 49.49862 2 0
      vertex 2 2 0
    endloop
  endfacet
  facet normal 0 -1 0
    outer loop
      vertex 2 2 0
      vertex 49.49862 2 0
      vertex 49.49862 2 5.925
    endloop
  endfacet
  facet normal 0 -1 0
    outer loop
      vertex 2 2 0
      vertex 49.49862 2 5.925
      vertex 2 2 5.925
    endloop
  endfacet
  facet normal -1 0 0
    outer loop
      vertex 2 49.49862 0
      vertex 2 2 0
      vertex 2 2 5.925
    endloop
  endfacet
  facet normal -1 0 0
    outer loop
      vertex 2 49.49862 0
      vertex 2 2 5.925
      vertex 2 49.49862 5.925
    endloop
  endfacet
  facet normal 0 0 1
    outer loop
      vertex 2 49.49862 5.925
      vertex 49.49862 49.49862 5.925
      vertex 49.49862 117.7566 5.925
    endloop
  endfacet
  facet normal 0 0 1
    outer loop
      vertex 2 49.49862 5.925
      vertex 49.49862 117.7566 5.925
      vertex 2 117.7566 5.925
    endloop
  endfacet
  facet normal 0 0 -1
    outer loop
      vertex 2 117.7566 0
      vertex 49.49862 117.7566 0
      vertex 49.49862 49.49862 0
    endloop
  endfacet
  facet normal 0 0 -1
    outer loop
      vertex 2 117.7566 0
      vertex 49.49862 49.49862 0
      vertex 2 49.49862 0
    endloop
  endfacet
  facet normal 1 0 0
    outer loop
      vertex 49.49862 49.49862 0
      vertex 49.49862 117.7566 0
      vertex 49.49862 117.7566 5.925
    endloop
  endfacet
  facet normal 1 0 0
    outer loop
      vertex 49.49862 49.49862 0
      vertex 49.49862 117.7566 5.925
      vertex 49.49862 49.49862 5.925
    endloop
  endfacet
  facet normal -1 0 0
    outer loop
      vertex 2 117.7566 0
      vertex 2 49.49862 0
      vertex 2 49.49862 5.925
    endloop
  endfacet
  facet normal -1 0 0
    outer loop
      vertex 2 117.7566 0
      vertex 2 49.49862 5.925
      vertex 2 117.7566 5.925
    endloop
  endfacet
  facet normal 0 0 1
    outer loop
      vertex 2 117.7566 5.925
      vertex 49.49862 117.7566 5.925
      vertex 49.49862 165.2552 5.925
    endloop
  endfacet
  facet normal 0 0 1
    outer loop
      vertex 2 117.7566 5.925
      vertex 49.49862 165.2552 5.925
      vertex 2 165.2552 5.925
    endloop
  endfacet
  facet normal 0 0 -1
    outer loop
      vertex 2 165.2552 0
      vertex 49.49862 165.2552 0
      vertex 49.49862 117.7566 0
    endloop
  endfacet
  facet normal 0 0 -1
    outer loop
      vertex 2 165.2552 0
      vertex 49.49862 117.7566 0
      vertex 2 117.7566 0
    endloop
  endfacet
  facet normal 0 1 0
    outer loop
      vertex 49.49862 165.2552 0
      vertex 2 165.2552 0
      vertex 2 165.2552 5.925
    endloop
  endfacet
  facet normal 0 1 -0
    outer loop
      vertex 49.49862 165.2552 0
      vertex 2 165.2552 5.925
      vertex 49.49862 165.2552 5.925
    endloop
  endfacet
  facet normal -1 0 0
    outer loop
      vertex 2 165.2552 0
      vertex 2 117.7566 0
      vertex 2 117.7566 5.925
    endloop
  endfacet
  facet normal -1 0 0
    outer loop
      vertex 2 165.2552 0
      vertex 2 117.7566 5.925
      vertex 2 165.2552 5.925
    endloop
  endfacet
  facet normal 0 0 1
    outer loop
      vertex 49.49862 2 5.925
      vertex 117.7566 2 5.925
      vertex 117.7566 49.49862 5.925
    endloop
  endfacet
  facet normal 0 0 1
    outer loop
      vertex 49.49862 2 5.925
      vertex 117.7566 49.49862 5.925
      vertex 49.49862 49.49862 5.925
    endloop
  endfacet
  facet normal 0 0 -1
    outer loop
      vertex 49.49862 49.49862 0
      vertex 117.7566 49.49862 0
      vertex 117.7566 2 0
    endloop
  endfacet
  facet normal 0 0 -1
    outer loop
      vertex 49.49862 49.49862 0
      vertex 117.7566 2 0
      vertex 49.49862 2 0
    endloop
  endfacet
  facet normal 0 -1 0
    outer loop
      vertex 49.49862 2 0
      vertex 117.7566 2 0
      vertex 117.7566 2 5.925
    endloop
  endfacet
  facet normal 0 -1 0
    outer loop
      vertex 49.49862 2 0
      vertex 117.7566 2 5.925
      vertex 49.49862 2 5.925
    endloop
  endfacet
  facet normal 0 1 0
    outer loop
      vertex 117.7566 49.49862 0
      vertex 49.49862 49.49862 0
      vertex 49.49862 49.49862 5.925
    endloop
  endfacet
  facet normal 0 1 -0
    outer loop
      vertex 117.7566 49.49862 0
      vertex 49.49862 49.49862 5.925
      vertex 117.7566 49.49862 5.925
    endloop
  endfacet
  facet normal 0 0 1
    outer loop
      vertex 49.49862 117.7566 5.925
      vertex 117.7566 117.7566 5.925
      vertex 117.7566 165.2552 5.925
    endloop
  endfacet
  facet normal 0 0 1
    outer loop
      vertex 49.49862 117.7566 5.925
      vertex 117.7566 165.2552 5.925
      vertex 49.49862 165.2552 5.925
    endloop
  endfacet
  facet normal 0 0 -1
    outer loop
      vertex 49.49862 165.2552 0
      vertex 117.7566 165.2552 0
      vertex 117.7566 117.7566 0
    endloop
  endfacet
  facet normal 0 0 -1
    outer loop
      vertex 49.49862 165.2552 0
      vertex 117.7566 117.7566 0
      vertex 49.49862 117.7566 0
    endloop
  endfacet
  facet normal 0 -1 0
    outer loop
      vertex 49.49862 117.7566 0
      vertex 117.7566 117.7566 0
      vertex 117.7566 117.7566 5.925
    endloop
  endfacet
  facet normal 0 -1 0
    outer loop
      vertex 49.49862 117.7566 0
      vertex 117.7566 117.7566 5.925
      vertex 49.49862 117.7566 5.925
    endloop
  endfacet
  facet normal 0 1 0
    outer loop
      vertex 117.7566 165.2552 0
      vertex 49.49862 165.2552 0
      vertex 49.49862 165.2552 5.925
    endloop
  endfacet
  facet normal 0 1 -0
    outer loop
      vertex 117.7566 165.2552 0
      vertex 49.49862 165.2552 5.925
      vertex 117.7566 165.2552 5.925
    endloop
  endfacet
  facet normal 0 0 1
    outer loop
      vertex 117.7566 2 5.925
      vertex 165.2552 2 5.925
      vertex 165.2552 49.49862 5.925
    endloop
  endfacet
  facet normal 0 0 1
    outer loop
      vertex 117.7566 2 5.925
      vertex 165.2552 49.49862 5.925
      vertex 117.7566 49.49862 5.925
    endloop
  endfacet
  facet normal 0 0 -1
    outer loop
      vertex 117.7566 49.49862 0
      vertex 165.2552 49.49862 0
      vertex 165.2552 2 0
    endloop
  endfacet
  facet normal 0 0 -1
    outer loop
      vertex 117.7566 49.49862 0
      vertex 165.2552 2 0
      vertex 117.7566 2 0
    endloop
  endfacet
  facet normal 0 -1 0
    outer loop
      vertex 117.7566 2 0
      vertex 165.2552 2 0
      vertex 165.2552 2 5.925
    endloop
  endfacet
  facet normal 0 -1 0
    outer loop
      vertex 117.7566 2 0
      vertex 165.2552 2 5.925
      vertex 117.7566 2 5.925
    endloop
  endfacet
  facet normal 1 0 0
    outer loop
      vertex 165.2552 2 0
      vertex 165.2552 49.49862 0
      vertex 165.2552 49.49862 5.925
    endloop
  endfacet
  facet normal 1 0 0
    outer loop
      vertex 165.2552 2 0
      vertex 165.2552 49.49862 5.925
      vertex 165.2552 2 5.925
    endloop
  endfacet
  facet normal 0 0 1
    outer loop
      vertex 117.7566 49.49862 5.925
      vertex 165.2552 49.49862 5.925
      vertex 165.2552 117.7566 5.925
    endloop
  endfacet
  facet normal 0 0 1
    outer loop
      vertex 117.7566 49.49862 5.925
      vertex 165.2552 117.7566 5.925
      vertex 117.7566 117.7566 5.925
    endloop
  endfacet
  facet normal 0 0 -1
    outer loop
      vertex 117.7566 117.7566 0
      vertex 165.2552 117.7566 0
      vertex 165.2552 49.49862 0
    endloop
  endfacet
  facet normal 0 0 -1
    outer loop
      vertex 117.7566 117.7566 0
      vertex 165.2552 49.49862 0
      vertex 117.7566 49.49862 0
    endloop
  endfacet
  facet normal 1 0 0
    outer loop
      vertex 165.2552 49.49862 0
      vertex 165.2552 117.7566 0
      vertex 165.2552 117.7566 5.925
    endloop
  endfacet
  facet normal 1 0 0
    outer loop
      vertex 165.2552 49.49862 0
      vertex 165.2552 117.7566 5.925
      vertex 165.2552 49.49862 5.925
    endloop
  endfacet
  facet normal -1 0 0
    outer loop
      vertex 117.7566 117.7566 0
      vertex 117.7566 49.49862 0
      vertex 117.7566 49.49862 5.925
    endloop
  endfacet
  facet normal -1 0 0
    outer loop
      vertex 117.7566 117.7566 0
      vertex 117.7566 49.49862 5.925
      vertex 117.7566 117.7566 5.925
    endloop
  endfacet
  facet normal 0 0 1
    outer loop
      vertex 117.7566 117.7566 5.925
      vertex 165.2552 117.7566 5.925
      vertex 165.2552 165.2552 5.925
    endloop
  endfacet
  facet normal 0 0 1
    outer loop
      vertex 117.7566 117.7566 5.925
      vertex 165.2552 165.2552 5.925
      vertex 117.7566 165.2552 5.925
    endloop
  endfacet
  facet normal 0 0 -1
    outer loop
      vertex 117.7566 165.2552 0
      vertex 165.2552 165.2552 0
      vertex 165.2552 117.7566 0
    endloop
  endfacet
  facet normal 0 0 -1
    outer loop
      vertex 117.7566 165.2552 0
      vertex 165.2552 117.7566 0
      vertex 117.7566 117.7566 0
    endloop
  endfacet
  facet normal 1 0 0
    outer loop
      vertex 165.2552 117.7566 0
      vertex 165.2552 165.2552 0
      vertex 165.2552 165.2552 5.925
    endloop
  endfacet
  facet normal 1 0 0
    outer loop
      vertex 165.2552 117.7566 0
      vertex 165.2552 165.2552 5.925
      vertex 165.2552 117.7566 5.925
    endloop
  endfacet
  facet normal 0 1 0
    outer loop
      vertex 165.2552 165.2552 0
      vertex 117.7566 165.2552 0
      vertex 117.7566 165.2552 5.925
    endloop
  endfacet
  facet normal 0 1 -0
    outer loop
      vertex 165.2552 165.2552 0
      vertex 117.7566 165.2552 5.925
      vertex 165.2552 165.2552 5.925
    endloop
  endfacet
endsolid temporary_cut_stepped_mound_layer_07
