solid temporary_cut_stepped_mound_layer_04
  facet normal 0 0 -1
    outer loop
      vertex 2 193.8923 0
      vertex 193.8923 193.8923 0
      vertex 193.8923 2 0
    endloop
  endfacet
  facet normal 0 0 -1
    outer loop
      vertex 2 193.8923 0
      vertex 193.8923 2 0
      vertex 2 2 0
    endloop
  endfacet
  facet normal 0 0 1
    outer loop
      vertex 2 2 5.925
      vertex 193.8923 2 5.925
      vertex 193.8923 193.8923 5.925
    endloop
  endfacet
  facet normal 0 0 1
    outer loop
      vertex 2 2 5.925
      vertex 193.8923 193.8923 5.925
      vertex 2 193.8923 5.925
    endloop
  endfacet
  facet normal 0 -1 0
    outer loop
      vertex 2 2 0
      vertex 193.8923 2 0
      vertex 193.8923 2 5.925
    endloop
  endfacet
  facet normal 0 -1 0
    outer loop
      vertex 2 2 0
      vertex 193.8923 2 5.925
      vertex 2 2 5.925
    endloop
  endfacet
  facet normal 1 0 0
    outer loop
      vertex 193.8923 2 0
      vertex 193.8923 193.8923 0
      vertex 193.8923 193.8923 5.925
    endloop
  endfacet
  facet normal 1 0 0
    outer loop
      vertex 193.8923 2 0
      vertex 193.8923 193.8923 5.925
      vertex 193.8923 2 5.925
    endloop
  endfacet
  facet normal 0 1 0
    outer loop
      vertex 193.8923 193.8923 0
      vertex 2 193.8923 0
      vertex 2 193.8923 5.925
    endloop
  endfacet
  facet normal 0 1 -0
    outer loop
      vertex 193.8923 193.8923 0
      vertex 2 193.8923 5.925
      vertex 193.8923 193.8923 5.925
    endloop
  endfacet
  facet normal -1 0 0
    outer loop
      vertex 2 193.8923 0
      vertex 2 2 0
      vertex 2 2 5.925
    endloop
  endfacet
  facet normal -1 0 0
    outer loop
      vertex 2 193.8923 0
      vertex 2 2 5.925
      vertex 2 193.8923 5.925
    endloop
  endfacet
endsolid temporary_cut_stepped_mound_layer_04
