solid capstone
  facet normal 0 0 -1
    outer loop
      vertex 2 13.00196 0
      vertex 13.00196 13.00196 0
      vertex 13.00196 2 0
    endloop
  endfacet
  facet normal 0 0 -1
    outer loop
      vertex 2 13.00196 0
      vertex 13.00196 2 0
      vertex 2 2 0
    endloop
  endfacet
  facet normal 0 -0.7862647 0.6178898
    outer loop
      vertex 2 2 0
      vertex 13.00196 2 0
      vertex 7.500982 7.500982 7
    endloop
  endfacet
  facet normal 0.7862647 -0 0.6178898
    outer loop
      vertex 13.00196 2 0
      vertex 13.00196 13.00196 0
      vertex 7.500982 7.500982 7
    endloop
  endfacet
  facet normal 0 0.7862647 0.6178898
    outer loop
      vertex 13.00196 13.00196 0
      vertex 2 13.00196 0
      vertex 7.500982 7.500982 7
    endloop
  endfacet
  facet normal -0.7862647 0 0.6178898
    outer loop
      vertex 2 13.00196 0
      vertex 2 2 0
      vertex 7.500982 7.500982 7
    endloop
  endfacet
endsolid capstone
