solid casing_ring_13_bottom_up
  facet normal 0 -0.7862647 0.6178898
    outer loop
      vertex 2 2 0
      vertex 50.25147 2 0
      vertex 45.59528 6.656189 5.925
    endloop
  endfacet
  facet normal 0 -0.7862647 0.6178898
    outer loop
      vertex 2 2 0
      vertex 45.59528 6.656189 5.925
      vertex 6.656189 6.656189 5.925
    endloop
  endfacet
  facet normal 0 0.8899165 -0.4561234
    outer loop
      vertex 42.38369 9.86778 0
      vertex 9.86778 9.86778 0
      vertex 12.90462 12.90462 5.925
    endloop
  endfacet
  facet normal 0 0.8899165 -0.4561234
    outer loop
      vertex 42.38369 9.86778 0
      vertex 12.90462 12.90462 5.925
      vertex 39.34686 12.90462 5.925
    endloop
  endfacet
  facet normal 0 0 -1
    outer loop
      vertex 50.25147 2 0
      vertex 2 2 0
      vertex 9.86778 9.86778 0
    endloop
  endfacet
  facet normal 0 0 -1
    outer loop
      vertex 50.25147 2 0
      vertex 9.86778 9.86778 0
      vertex 42.38369 9.86778 0
    endloop
  endfacet
  facet normal 0 0 1
    outer loop
      vertex 6.656189 6.656189 5.925
      vertex 45.59528 6.656189 5.925
      vertex 39.34686 12.90462 5.925
    endloop
  endfacet
  facet normal 0 0 1
    outer loop
      vertex 6.656189 6.656189 5.925
      vertex 39.34686 12.90462 5.925
      vertex 12.90462 12.90462 5.925
    endloop
  endfacet
  facet normal 0.7862647 -0 0.6178898
    outer loop
      vertex 50.25147 2 0
      vertex 50.25147 50.25147 0
      vertex 45.59528 45.59528 5.925
    endloop
  endfacet
  facet normal 0.7862647 0 0.6178898
    outer loop
      vertex 50.25147 2 0
      vertex 45.59528 45.59528 5.925
      vertex 45.59528 6.656189 5.925
    endloop
  endfacet
  facet normal -0.8899165 -0 -0.4561234
    outer loop
      vertex 42.38369 42.38369 0
      vertex 42.38369 9.86778 0
      vertex 39.34686 12.90462 5.925
    endloop
  endfacet
  facet normal -0.8899165 0 -0.4561234
    outer loop
      vertex 42.38369 42.38369 0
      vertex 39.34686 12.90462 5.925
      vertex 39.34686 39.34686 5.925
    endloop
  endfacet
  facet normal 0 -0 -1
    outer loop
      vertex 50.25147 50.25147 0
      vertex 50.25147 2 0
      vertex 42.38369 9.86778 0
    endloop
  endfacet
  facet normal 0 0 -1
    outer loop
      vertex 50.25147 50.25147 0
      vertex 42.38369 9.86778 0
      vertex 42.38369 42.38369 0
    endloop
  endfacet
  facet normal 0 -0 1
    outer loop
      vertex 45.59528 6.656189 5.925
      vertex 45.59528 45.59528 5.925
      vertex 39.34686 39.34686 5.925
    endloop
  endfacet
  facet normal 0 0 1
    outer loop
      vertex 45.59528 6.656189 5.925
      vertex 39.34686 39.34686 5.925
      vertex 39.34686 12.90462 5.925
    endloop
  endfacet
  facet normal 0 0.7862647 0.6178898
    outer loop
      vertex 50.25147 50.25147 0
      vertex 2 50.25147 0
      vertex 6.656189 45.59528 5.925
    endloop
  endfacet
  facet normal 0 0.7862647 0.6178898
    outer loop
      vertex 50.25147 50.25147 0
      vertex 6.656189 45.59528 5.925
      vertex 45.59528 45.59528 5.925
    endloop
  endfacet
  facet normal 0 -0.8899165 -0.4561234
    outer loop
      vertex 9.86778 42.38369 0
      vertex 42.38369 42.38369 0
      vertex 39.34686 39.34686 5.925
    endloop
  endfacet
  facet normal 0 -0.8899165 -0.4561234
    outer loop
      vertex 9.86778 42.38369 0
      vertex 39.34686 39.34686 5.925
      vertex 12.90462 39.34686 5.925
    endloop
  endfacet
  facet normal 0 0 -1
    outer loop
      vertex 2 50.25147 0
      vertex 50.25147 50.25147 0
      vertex 42.38369 42.38369 0
    endloop
  endfacet
  facet normal 0 0 -1
    outer loop
      vertex 2 50.25147 0
      vertex 42.38369 42.38369 0
      vertex 9.86778 42.38369 0
    endloop
  endfacet
  facet normal 0 0 1
    outer loop
      vertex 45.59528 45.59528 5.925
      vertex 6.656189 45.59528 5.925
      vertex 12.90462 39.34686 5.925
    endloop
  endfacet
  facet normal 0 0 1
    outer loop
      vertex 45.59528 45.59528 5.925
      vertex 12.90462 39.34686 5.925
      vertex 39.34686 39.34686 5.925
    endloop
  endfacet
  facet normal -0.7862647 0 0.6178898
    outer loop
      vertex 2 50.25147 0
      vertex 2 2 0
      vertex 6.656189 6.656189 5.925
    endloop
  endfacet
  facet normal -0.7862647 0 0.6178898
    outer loop
      vertex 2 50.25147 0
      vertex 6.656189 6.656189 5.925
      vertex 6.656189 45.59528 5.925
    endloop
  endfacet
  facet normal 0.8899165 0 -0.4561234
    outer loop
      vertex 9.86778 9.86778 0
      vertex 9.86778 42.38369 0
      vertex 12.90462 39.34686 5.925
    endloop
  endfacet
  facet normal 0.8899165 0 -0.4561234
    outer loop
      vertex 9.86778 9.86778 0
      vertex 12.90462 39.34686 5.925
      vertex 12.90462 12.90462 5.925
    endloop
  endfacet
  facet normal 0 0 -1
    outer loop
      vertex 2 2 0
      vertex 2 50.25147 0
      vertex 9.86778 42.38369 0
    endloop
  endfacet
  facet normal 0 0 -1
    outer loop
      vertex 2 2 0
      vertex 9.86778 42.38369 0
      vertex 9.86778 9.86778 0
    endloop
  endfacet
  facet normal 0 0 1
    outer loop
      vertex 6.656189 45.59528 5.925
      vertex 6.656189 6.656189 5.925
      vertex 12.90462 12.90462 5.925
    endloop
  endfacet
  facet normal 0 0 1
    outer loop
      vertex 6.656189 45.59528 5.925
      vertex 12.90462 12.90462 5.925
      vertex 12.90462 39.34686 5.925
    endloop
  endfacet
endsolid casing_ring_13_bottom_up
