solid casing_ring_01_bottom_up
  facet normal 0 -0.7862647 0.6178898
    outer loop
      vertex 2 2 0
      vertex 162 2 0
      vertex 157.3438 6.656189 5.925
    endloop
  endfacet
  facet normal 0 -0.7862647 0.6178898
    outer loop
      vertex 2 2 0
      vertex 157.3438 6.656189 5.925
      vertex 6.656189 6.656189 5.925
    endloop
  endfacet
  facet normal 0 0.8899165 -0.4561234
    outer loop
      vertex 134.7 29.3 0
      vertex 29.3 29.3 0
      vertex 32.33684 32.33684 5.925
    endloop
  endfacet
  facet normal 0 0.8899165 -0.4561234
    outer loop
      vertex 134.7 29.3 0
      vertex 32.33684 32.33684 5.925
      vertex 131.6632 32.33684 5.925
    endloop
  endfacet
  facet normal 0 0 -1
    outer loop
      vertex 162 2 0
      vertex 2 2 0
      vertex 29.3 29.3 0
    endloop
  endfacet
  facet normal 0 0 -1
    outer loop
      vertex 162 2 0
      vertex 29.3 29.3 0
      vertex 134.7 29.3 0
    endloop
  endfacet
  facet normal 0 0 1
    outer loop
      vertex 6.656189 6.656189 5.925
      vertex 157.3438 6.656189 5.925
      vertex 131.6632 32.33684 5.925
    endloop
  endfacet
  facet normal 0 0 1
    outer loop
      vertex 6.656189 6.656189 5.925
      vertex 131.6632 32.33684 5.925
      vertex 32.33684 32.33684 5.925
    endloop
  endfacet
  facet normal 0.7862647 -0 0.6178898
    outer loop
      vertex 162 2 0
      vertex 162 162 0
      vertex 157.3438 157.3438 5.925
    endloop
  endfacet
  facet normal 0.7862647 0 0.6178898
    outer loop
      vertex 162 2 0
      vertex 157.3438 157.3438 5.925
      vertex 157.3438 6.656189 5.925
    endloop
  endfacet
  facet normal -0.8899165 -0 -0.4561234
    outer loop
      vertex 134.7 134.7 0
      vertex 134.7 29.3 0
      vertex 131.6632 32.33684 5.925
    endloop
  endfacet
  facet normal -0.8899165 0 -0.4561234
    outer loop
      vertex 134.7 134.7 0
      vertex 131.6632 32.33684 5.925
      vertex 131.6632 131.6632 5.925
    endloop
  endfacet
  facet normal 0 -0 -1
    outer loop
      vertex 162 162 0
      vertex 162 2 0
      vertex 134.7 29.3 0
    endloop
  endfacet
  facet normal 0 0 -1
    outer loop
      vertex 162 162 0
      vertex 134.7 29.3 0
      vertex 134.7 134.7 0
    endloop
  endfacet
  facet normal 0 -0 1
    outer loop
      vertex 157.3438 6.656189 5.925
      vertex 157.3438 157.3438 5.925
      vertex 131.6632 131.6632 5.925
    endloop
  endfacet
  facet normal 0 0 1
    outer loop
      vertex 157.3438 6.656189 5.925
      vertex 131.6632 131.6632 5.925
      vertex 131.6632 32.33684 5.925
    endloop
  endfacet
  facet normal 0 0.7862647 0.6178898
    outer loop
      vertex 162 162 0
      vertex 2 162 0
      vertex 6.656189 157.3438 5.925
    endloop
  endfacet
  facet normal 0 0.7862647 0.6178898
    outer loop
      vertex 162 162 0
      vertex 6.656189 157.3438 5.925
      vertex 157.3438 157.3438 5.925
    endloop
  endfacet
  facet normal 0 -0.8899165 -0.4561234
    outer loop
      vertex 29.3 134.7 0
      vertex 134.7 134.7 0
      vertex 131.6632 131.6632 5.925
    endloop
  endfacet
  facet normal 0 -0.8899165 -0.4561234
    outer loop
      vertex 29.3 134.7 0
      vertex 131.6632 131.6632 5.925
      vertex 32.33684 131.6632 5.925
    endloop
  endfacet
  facet normal 0 0 -1
    outer loop
      vertex 2 162 0
      vertex 162 162 0
      vertex 134.7 134.7 0
    endloop
  endfacet
  facet normal 0 0 -1
    outer loop
      vertex 2 162 0
      vertex 134.7 134.7 0
      vertex 29.3 134.7 0
    endloop
  endfacet
  facet normal 0 0 1
    outer loop
      vertex 157.3438 157.3438 5.925
      vertex 6.656189 157.3438 5.925
      vertex 32.33684 131.6632 5.925
    endloop
  endfacet
  facet normal 0 0 1
    outer loop
      vertex 157.3438 157.3438 5.925
      vertex 32.33684 131.6632 5.925
      vertex 131.6632 131.6632 5.925
    endloop
  endfacet
  facet normal -0.7862647 0 0.6178898
    outer loop
      vertex 2 162 0
      vertex 2 2 0
      vertex 6.656189 6.656189 5.925
    endloop
  endfacet
  facet normal -0.7862647 0 0.6178898
    outer loop
      vertex 2 162 0
      vertex 6.656189 6.656189 5.925
      vertex 6.656189 157.3438 5.925
    endloop
  endfacet
  facet normal 0.8899165 0 -0.4561234
    outer loop
      vertex 29.3 29.3 0
      vertex 29.3 134.7 0
      vertex 32.33684 131.6632 5.925
    endloop
  endfacet
  facet normal 0.8899165 0 -0.4561234
    outer loop
      vertex 29.3 29.3 0
      vertex 32.33684 131.6632 5.925
      vertex 32.33684 32.33684 5.925
    endloop
  endfacet
  facet normal 0 0 -1
    outer loop
      vertex 2 2 0
      vertex 2 162 0
      vertex 29.3 134.7 0
    endloop
  endfacet
  facet normal 0 0 -1
    outer loop
      vertex 2 2 0
      vertex 29.3 134.7 0
      vertex 29.3 29.3 0
    endloop
  endfacet
  facet normal 0 0 1
    outer loop
      vertex 6.656189 157.3438 5.925
      vertex 6.656189 6.656189 5.925
      vertex 32.33684 32.33684 5.925
    endloop
  endfacet
  facet normal 0 0 1
    outer loop
      vertex 6.656189 157.3438 5.925
      vertex 32.33684 32.33684 5.925
      vertex 32.33684 131.6632 5.925
    endloop
  endfacet
endsolid casing_ring_01_bottom_up
