solid casing_ring_14_bottom_up
  facet normal 0 -0.7862647 0.6178898
    outer loop
      vertex 2 2 0
      vertex 40.9391 2 0
      vertex 36.28291 6.656189 5.925
    endloop
  endfacet
  facet normal 0 -0.7862647 0.6178898
    outer loop
      vertex 2 2 0
      vertex 36.28291 6.656189 5.925
      vertex 6.656189 6.656189 5.925
    endloop
  endfacet
  facet normal 0 0.8899165 -0.4561234
    outer loop
      vertex 34.69067 8.248428 0
      vertex 8.248428 8.248428 0
      vertex 11.28527 11.28527 5.925
    endloop
  endfacet
  facet normal 0 0.8899165 -0.4561234
    outer loop
      vertex 34.69067 8.248428 0
      vertex 11.28527 11.28527 5.925
      vertex 31.65383 11.28527 5.925
    endloop
  endfacet
  facet normal 0 0 -1
    outer loop
      vertex 40.9391 2 0
      vertex 2 2 0
      vertex 8.248428 8.248428 0
    endloop
  endfacet
  facet normal 0 0 -1
    outer loop
      vertex 40.9391 2 0
      vertex 8.248428 8.248428 0
      vertex 34.69067 8.248428 0
    endloop
  endfacet
  facet normal 0 0 1
    outer loop
      vertex 6.656189 6.656189 5.925
      vertex 36.28291 6.656189 5.925
      vertex 31.65383 11.28527 5.925
    endloop
  endfacet
  facet normal 0 0 1
    outer loop
      vertex 6.656189 6.656189 5.925
      vertex 31.65383 11.28527 5.925
      vertex 11.28527 11.28527 5.925
    endloop
  endfacet
  facet normal 0.7862647 -0 0.6178898
    outer loop
      vertex 40.9391 2 0
      vertex 40.9391 40.9391 0
      vertex 36.28291 36.28291 5.925
    endloop
  endfacet
  facet normal 0.7862647 0 0.6178898
    outer loop
      vertex 40.9391 2 0
      vertex 36.28291 36.28291 5.925
      vertex 36.28291 6.656189 5.925
    endloop
  endfacet
  facet normal -0.8899165 -0 -0.4561234
    outer loop
      vertex 34.69067 34.69067 0
      vertex 34.69067 8.248428 0
      vertex 31.65383 11.28527 5.925
    endloop
  endfacet
  facet normal -0.8899165 0 -0.4561234
    outer loop
      vertex 34.69067 34.69067 0
      vertex 31.65383 11.28527 5.925
      vertex 31.65383 31.65383 5.925
    endloop
  endfacet
  facet normal 0 -0 -1
    outer loop
      vertex 40.9391 40.9391 0
      vertex 40.9391 2 0
      vertex 34.69067 8.248428 0
    endloop
  endfacet
  facet normal 0 0 -1
    outer loop
      vertex 40.9391 40.9391 0
      vertex 34.69067 8.248428 0
      vertex 34.69067 34.69067 0
    endloop
  endfacet
  facet normal 0 -0 1
    outer loop
      vertex 36.28291 6.656189 5.925
      vertex 36.28291 36.28291 5.925
      vertex 31.65383 31.65383 5.925
    endloop
  endfacet
  facet normal 0 0 1
    outer loop
      vertex 36.28291 6.656189 5.925
      vertex 31.65383 31.65383 5.925
      vertex 31.65383 11.28527 5.925
    endloop
  endfacet
  facet normal 0 0.7862647 0.6178898
    outer loop
      vertex 40.9391 40.9391 0
      vertex 2 40.9391 0
      vertex 6.656189 36.28291 5.925
    endloop
  endfacet
  facet normal 0 0.7862647 0.6178898
    outer loop
      vertex 40.9391 40.9391 0
      vertex 6.656189 36.28291 5.925
      vertex 36.28291 36.28291 5.925
    endloop
  endfacet
  facet normal 0 -0.8899165 -0.4561234
    outer loop
      vertex 8.248428 34.69067 0
      vertex 34.69067 34.69067 0
      vertex 31.65383 31.65383 5.925
    endloop
  endfacet
  facet normal 0 -0.8899165 -0.4561234
    outer loop
      vertex 8.248428 34.69067 0
      vertex 31.65383 31.65383 5.925
      vertex 11.28527 31.65383 5.925
    endloop
  endfacet
  facet normal 0 0 -1
    outer loop
      vertex 2 40.9391 0
      vertex 40.9391 40.9391 0
      vertex 34.69067 34.69067 0
    endloop
  endfacet
  facet normal 0 0 -1
    outer loop
      vertex 2 40.9391 0
      vertex 34.69067 34.69067 0
      vertex 8.248428 34.69067 0
    endloop
  endfacet
  facet normal 0 0 1
    outer loop
      vertex 36.28291 36.28291 5.925
      vertex 6.656189 36.28291 5.925
      vertex 11.28527 31.65383 5.925
    endloop
  endfacet
  facet normal 0 0 1
    outer loop
      vertex 36.28291 36.28291 5.925
      vertex 11.28527 31.65383 5.925
      vertex 31.65383 31.65383 5.925
    endloop
  endfacet
  facet normal -0.7862647 0 0.6178898
    outer loop
      vertex 2 40.9391 0
      vertex 2 2 0
      vertex 6.656189 6.656189 5.925
    endloop
  endfacet
  facet normal -0.7862647 0 0.6178898
    outer loop
      vertex 2 40.9391 0
      vertex 6.656189 6.656189 5.925
      vertex 6.656189 36.28291 5.925
    endloop
  endfacet
  facet normal 0.8899165 0 -0.4561234
    outer loop
      vertex 8.248428 8.248428 0
      vertex 8.248428 34.69067 0
      vertex 11.28527 31.65383 5.925
    endloop
  endfacet
  facet normal 0.8899165 0 -0.4561234
    outer loop
      vertex 8.248428 8.248428 0
      vertex 11.28527 31.65383 5.925
      vertex 11.28527 11.28527 5.925
    endloop
  endfacet
  facet normal 0 0 -1
    outer loop
      vertex 2 2 0
      vertex 2 40.9391 0
      vertex 8.248428 34.69067 0
    endloop
  endfacet
  facet normal 0 0 -1
    outer loop
      vertex 2 2 0
      vertex 8.248428 34.69067 0
      vertex 8.248428 8.248428 0
    endloop
  endfacet
  facet normal 0 0 1
    outer loop
      vertex 6.656189 36.28291 5.925
      vertex 6.656189 6.656189 5.925
      vertex 11.28527 11.28527 5.925
    endloop
  endfacet
  facet normal 0 0 1
    outer loop
      vertex 6.656189 36.28291 5.925
      vertex 11.28527 11.28527 5.925
      vertex 11.28527 31.65383 5.925
    endloop
  endfacet
endsolid casing_ring_14_bottom_up
