solid casing_ring_15_bottom_up
  facet normal 0 -0.7862647 0.6178898
    outer loop
      vertex 2 2 0
      vertex 31.62672 2 0
      vertex 26.97053 6.656189 5.925
    endloop
  endfacet
  facet normal 0 -0.7862647 0.6178898
    outer loop
      vertex 2 2 0
      vertex 26.97053 6.656189 5.925
      vertex 6.656189 6.656189 5.925
    endloop
  endfacet
  facet normal 0 0.8899165 -0.4561234
    outer loop
      vertex 26.99764 6.629077 0
      vertex 6.629077 6.629077 0
      vertex 9.665914 9.665914 5.925
    endloop
  endfacet
  facet normal 0 0.8899165 -0.4561234
    outer loop
      vertex 26.99764 6.629077 0
      vertex 9.665914 9.665914 5.925
      vertex 23.96081 9.665914 5.925
    endloop
  endfacet
  facet normal 0 0 -1
    outer loop
      vertex 31.62672 2 0
      vertex 2 2 0
      vertex 6.629077 6.629077 0
    endloop
  endfacet
  facet normal 0 0 -1
    outer loop
      vertex 31.62672 2 0
      vertex 6.629077 6.629077 0
      vertex 26.99764 6.629077 0
    endloop
  endfacet
  facet normal 0 0 1
    outer loop
      vertex 6.656189 6.656189 5.925
      vertex 26.97053 6.656189 5.925
      vertex 23.96081 9.665914 5.925
    endloop
  endfacet
  facet normal 0 0 1
    outer loop
      vertex 6.656189 6.656189 5.925
      vertex 23.96081 9.665914 5.925
      vertex 9.665914 9.665914 5.925
    endloop
  endfacet
  facet normal 0.7862647 -0 0.6178898
    outer loop
      vertex 31.62672 2 0
      vertex 31.62672 31.62672 0
      vertex 26.97053 26.97053 5.925
    endloop
  endfacet
  facet normal 0.7862647 0 0.6178898
    outer loop
      vertex 31.62672 2 0
      vertex 26.97053 26.97053 5.925
      vertex 26.97053 6.656189 5.925
    endloop
  endfacet
  facet normal -0.8899165 -0 -0.4561234
    outer loop
      vertex 26.99764 26.99764 0
      vertex 26.99764 6.629077 0
      vertex 23.96081 9.665914 5.925
    endloop
  endfacet
  facet normal -0.8899165 0 -0.4561234
    outer loop
      vertex 26.99764 26.99764 0
      vertex 23.96081 9.665914 5.925
      vertex 23.96081 23.96081 5.925
    endloop
  endfacet
  facet normal 0 -0 -1
    outer loop
      vertex 31.62672 31.62672 0
      vertex 31.62672 2 0
      vertex 26.99764 6.629077 0
    endloop
  endfacet
  facet normal 0 0 -1
    outer loop
      vertex 31.62672 31.62672 0
      vertex 26.99764 6.629077 0
      vertex 26.99764 26.99764 0
    endloop
  endfacet
  facet normal 0 -0 1
    outer loop
      vertex 26.97053 6.656189 5.925
      vertex 26.97053 26.97053 5.925
      vertex 23.96081 23.96081 5.925
    endloop
  endfacet
  facet normal 0 0 1
    outer loop
      vertex 26.97053 6.656189 5.925
      vertex 23.96081 23.96081 5.925
      vertex 23.96081 9.665914 5.925
    endloop
  endfacet
  facet normal 0 0.7862647 0.6178898
    outer loop
      vertex 31.62672 31.62672 0
      vertex 2 31.62672 0
      vertex 6.656189 26.97053 5.925
    endloop
  endfacet
  facet normal 0 0.7862647 0.6178898
    outer loop
      vertex 31.62672 31.62672 0
      vertex 6.656189 26.97053 5.925
      vertex 26.97053 26.97053 5.925
    endloop
  endfacet
  facet normal 0 -0.8899165 -0.4561234
    outer loop
      vertex 6.629077 26.99764 0
      vertex 26.99764 26.99764 0
      vertex 23.96081 23.96081 5.925
    endloop
  endfacet
  facet normal 0 -0.8899165 -0.4561234
    outer loop
      vertex 6.629077 26.99764 0
      vertex 23.96081 23.96081 5.925
      vertex 9.665914 23.96081 5.925
    endloop
  endfacet
  facet normal 0 0 -1
    outer loop
      vertex 2 31.62672 0
      vertex 31.62672 31.62672 0
      vertex 26.99764 26.99764 0
    endloop
  endfacet
  facet normal 0 0 -1
    outer loop
      vertex 2 31.62672 0
      vertex 26.99764 26.99764 0
      vertex 6.629077 26.99764 0
    endloop
  endfacet
  facet normal 0 0 1
    outer loop
      vertex 26.97053 26.97053 5.925
      vertex 6.656189 26.97053 5.925
      vertex 9.665914 23.96081 5.925
    endloop
  endfacet
  facet normal 0 0 1
    outer loop
      vertex 26.97053 26.97053 5.925
      vertex 9.665914 23.96081 5.925
      vertex 23.96081 23.96081 5.925
    endloop
  endfacet
  facet normal -0.7862647 0 0.6178898
    outer loop
      vertex 2 31.62672 0
      vertex 2 2 0
      vertex 6.656189 6.656189 5.925
    endloop
  endfacet
  facet normal -0.7862647 0 0.6178898
    outer loop
      vertex 2 31.62672 0
      vertex 6.656189 6.656189 5.925
      vertex 6.656189 26.97053 5.925
    endloop
  endfacet
  facet normal 0.8899165 0 -0.4561234
    outer loop
      vertex 6.629077 6.629077 0
      vertex 6.629077 26.99764 0
      vertex 9.665914 23.96081 5.925
    endloop
  endfacet
  facet normal 0.8899165 0 -0.4561234
    outer loop
      vertex 6.629077 6.629077 0
      vertex 9.665914 23.96081 5.925
      vertex 9.665914 9.665914 5.925
    endloop
  endfacet
  facet normal 0 0 -1
    outer loop
      vertex 2 2 0
      vertex 2 31.62672 0
      vertex 6.629077 26.99764 0
    endloop
  endfacet
  facet normal 0 0 -1
    outer loop
      vertex 2 2 0
      vertex 6.629077 26.99764 0
      vertex 6.629077 6.629077 0
    endloop
  endfacet
  facet normal 0 0 1
    outer loop
      vertex 6.656189 26.97053 5.925
      vertex 6.656189 6.656189 5.925
      vertex 9.665914 9.665914 5.925
    endloop
  endfacet
  facet normal 0 0 1
    outer loop
      vertex 6.656189 26.97053 5.925
      vertex 9.665914 9.665914 5.925
      vertex 9.665914 23.96081 5.925
    endloop
  endfacet
endsolid casing_ring_15_bottom_up
