solid casing_ring_05_bottom_up
  facet normal 0 -0.7862647 0.6178898
    outer loop
      vertex 2 2 0
      vertex 124.7505 2 0
      vertex 120.0943 6.656189 5.925
    endloop
  endfacet
  facet normal 0 -0.7862647 0.6178898
    outer loop
      vertex 2 2 0
      vertex 120.0943 6.656189 5.925
      vertex 6.656189 6.656189 5.925
    endloop
  endfacet
  facet normal 0 0.8899165 -0.4561234
    outer loop
      vertex 103.9279 22.82259 0
      vertex 22.82259 22.82259 0
      vertex 25.85943 25.85943 5.925
    endloop
  endfacet
  facet normal 0 0.8899165 -0.4561234
    outer loop
      vertex 103.9279 22.82259 0
      vertex 25.85943 25.85943 5.925
      vertex 100.8911 25.85943 5.925
    endloop
  endfacet
  facet normal 0 0 -1
    outer loop
      vertex 124.7505 2 0
      vertex 2 2 0
      vertex 22.82259 22.82259 0
    endloop
  endfacet
  facet normal 0 0 -1
    outer loop
      vertex 124.7505 2 0
      vertex 22.82259 22.82259 0
      vertex 103.9279 22.82259 0
    endloop
  endfacet
  facet normal 0 0 1
    outer loop
      vertex 6.656189 6.656189 5.925
      vertex 120.0943 6.656189 5.925
      vertex 100.8911 25.85943 5.925
    endloop
  endfacet
  facet normal 0 0 1
    outer loop
      vertex 6.656189 6.656189 5.925
      vertex 100.8911 25.85943 5.925
      vertex 25.85943 25.85943 5.925
    endloop
  endfacet
  facet normal 0.7862647 -0 0.6178898
    outer loop
      vertex 124.7505 2 0
      vertex 124.7505 124.7505 0
      vertex 120.0943 120.0943 5.925
    endloop
  endfacet
  facet normal 0.7862647 0 0.6178898
    outer loop
      vertex 124.7505 2 0
      vertex 120.0943 120.0943 5.925
      vertex 120.0943 6.656189 5.925
    endloop
  endfacet
  facet normal -0.8899165 -0 -0.4561234
    outer loop
      vertex 103.9279 103.9279 0
      vertex 103.9279 22.82259 0
      vertex 100.8911 25.85943 5.925
    endloop
  endfacet
  facet normal -0.8899165 0 -0.4561234
    outer loop
      vertex 103.9279 103.9279 0
      vertex 100.8911 25.85943 5.925
      vertex 100.8911 100.8911 5.925
    endloop
  endfacet
  facet normal 0 -0 -1
    outer loop
      vertex 124.7505 124.7505 0
      vertex 124.7505 2 0
      vertex 103.9279 22.82259 0
    endloop
  endfacet
  facet normal 0 0 -1
    outer loop
      vertex 124.7505 124.7505 0
      vertex 103.9279 22.82259 0
      vertex 103.9279 103.9279 0
    endloop
  endfacet
  facet normal 0 -0 1
    outer loop
      vertex 120.0943 6.656189 5.925
      vertex 120.0943 120.0943 5.925
      vertex 100.8911 100.8911 5.925
    endloop
  endfacet
  facet normal 0 0 1
    outer loop
      vertex 120.0943 6.656189 5.925
      vertex 100.8911 100.8911 5.925
      vertex 100.8911 25.85943 5.925
    endloop
  endfacet
  facet normal 0 0.7862647 0.6178898
    outer loop
      vertex 124.7505 124.7505 0
      vertex 2 124.7505 0
      vertex 6.656189 120.0943 5.925
    endloop
  endfacet
  facet normal 0 0.7862647 0.6178898
    outer loop
      vertex 124.7505 124.7505 0
      vertex 6.656189 120.0943 5.925
      vertex 120.0943 120.0943 5.925
    endloop
  endfacet
  facet normal 0 -0.8899165 -0.4561234
    outer loop
      vertex 22.82259 103.9279 0
      vertex 103.9279 103.9279 0
      vertex 100.8911 100.8911 5.925
    endloop
  endfacet
  facet normal 0 -0.8899165 -0.4561234
    outer loop
      vertex 22.82259 103.9279 0
      vertex 100.8911 100.8911 5.925
      vertex 25.85943 100.8911 5.925
    endloop
  endfacet
  facet normal 0 0 -1
    outer loop
      vertex 2 124.7505 0
      vertex 124.7505 124.7505 0
      vertex 103.9279 103.9279 0
    endloop
  endfacet
  facet normal 0 0 -1
    outer loop
      vertex 2 124.7505 0
      vertex 103.9279 103.9279 0
      vertex 22.82259 103.9279 0
    endloop
  endfacet
  facet normal 0 0 1
    outer loop
      vertex 120.0943 120.0943 5.925
      vertex 6.656189 120.0943 5.925
      vertex 25.85943 100.8911 5.925
    endloop
  endfacet
  facet normal 0 0 1
    outer loop
      vertex 120.0943 120.0943 5.925
      vertex 25.85943 100.8911 5.925
      vertex 100.8911 100.8911 5.925
    endloop
  endfacet
  facet normal -0.7862647 0 0.6178898
    outer loop
      vertex 2 124.7505 0
      vertex 2 2 0
      vertex 6.656189 6.656189 5.925
    endloop
  endfacet
  facet normal -0.7862647 0 0.6178898
    outer loop
      vertex 2 124.7505 0
      vertex 6.656189 6.656189 5.925
      vertex 6.656189 120.0943 5.925
    endloop
  endfacet
  facet normal 0.8899165 0 -0.4561234
    outer loop
      vertex 22.82259 22.82259 0
      vertex 22.82259 103.9279 0
      vertex 25.85943 100.8911 5.925
    endloop
  endfacet
  facet normal 0.8899165 0 -0.4561234
    outer loop
      vertex 22.82259 22.82259 0
      vertex 25.85943 100.8911 5.925
      vertex 25.85943 25.85943 5.925
    endloop
  endfacet
  facet normal 0 0 -1
    outer loop
      vertex 2 2 0
      vertex 2 124.7505 0
      vertex 22.82259 103.9279 0
    endloop
  endfacet
  facet normal 0 0 -1
    outer loop
      vertex 2 2 0
      vertex 22.82259 103.9279 0
      vertex 22.82259 22.82259 0
    endloop
  endfacet
  facet normal 0 0 1
    outer loop
      vertex 6.656189 120.0943 5.925
      vertex 6.656189 6.656189 5.925
      vertex 25.85943 25.85943 5.925
    endloop
  endfacet
  facet normal 0 0 1
    outer loop
      vertex 6.656189 120.0943 5.925
      vertex 25.85943 25.85943 5.925
      vertex 25.85943 100.8911 5.925
    endloop
  endfacet
endsolid casing_ring_05_bottom_up
