solid casing_ring_10_bottom_up
  facet normal 0 -0.7862647 0.6178898
    outer loop
      vertex 2 2 0
      vertex 78.18861 2 0
      vertex 73.53242 6.656189 5.925
    endloop
  endfacet
  facet normal 0 -0.7862647 0.6178898
    outer loop
      vertex 2 2 0
      vertex 73.53242 6.656189 5.925
      vertex 6.656189 6.656189 5.925
    endloop
  endfacet
  facet normal 0 0.8899165 -0.4561234
    outer loop
      vertex 65.46277 14.72583 0
      vertex 14.72583 14.72583 0
      vertex 17.76267 17.76267 5.925
    endloop
  endfacet
  facet normal 0 0.8899165 -0.4561234
    outer loop
      vertex 65.46277 14.72583 0
      vertex 17.76267 17.76267 5.925
      vertex 62.42593 17.76267 5.925
    endloop
  endfacet
  facet normal 0 0 -1
    outer loop
      vertex 78.18861 2 0
      vertex 2 2 0
      vertex 14.72583 14.72583 0
    endloop
  endfacet
  facet normal 0 0 -1
    outer loop
      vertex 78.18861 2 0
      vertex 14.72583 14.72583 0
      vertex 65.46277 14.72583 0
    endloop
  endfacet
  facet normal 0 0 1
    outer loop
      vertex 6.656189 6.656189 5.925
      vertex 73.53242 6.656189 5.925
      vertex 62.42593 17.76267 5.925
    endloop
  endfacet
  facet normal 0 0 1
    outer loop
      vertex 6.656189 6.656189 5.925
      vertex 62.42593 17.76267 5.925
      vertex 17.76267 17.76267 5.925
    endloop
  endfacet
  facet normal 0.7862647 -0 0.6178898
    outer loop
      vertex 78.18861 2 0
      vertex 78.18861 78.18861 0
      vertex 73.53242 73.53242 5.925
    endloop
  endfacet
  facet normal 0.7862647 0 0.6178898
    outer loop
      vertex 78.18861 2 0
      vertex 73.53242 73.53242 5.925
      vertex 73.53242 6.656189 5.925
    endloop
  endfacet
  facet normal -0.8899165 -0 -0.4561234
    outer loop
      vertex 65.46277 65.46277 0
      vertex 65.46277 14.72583 0
      vertex 62.42593 17.76267 5.925
    endloop
  endfacet
  facet normal -0.8899165 0 -0.4561234
    outer loop
      vertex 65.46277 65.46277 0
      vertex 62.42593 17.76267 5.925
      vertex 62.42593 62.42593 5.925
    endloop
  endfacet
  facet normal 0 -0 -1
    outer loop
      vertex 78.18861 78.18861 0
      vertex 78.18861 2 0
      vertex 65.46277 14.72583 0
    endloop
  endfacet
  facet normal 0 0 -1
    outer loop
      vertex 78.18861 78.18861 0
      vertex 65.46277 14.72583 0
      vertex 65.46277 65.46277 0
    endloop
  endfacet
  facet normal 0 -0 1
    outer loop
      vertex 73.53242 6.656189 5.925
      vertex 73.53242 73.53242 5.925
      vertex 62.42593 62.42593 5.925
    endloop
  endfacet
  facet normal 0 0 1
    outer loop
      vertex 73.53242 6.656189 5.925
      vertex 62.42593 62.42593 5.925
      vertex 62.42593 17.76267 5.925
    endloop
  endfacet
  facet normal 0 0.7862647 0.6178898
    outer loop
      vertex 78.18861 78.18861 0
      vertex 2 78.18861 0
      vertex 6.656189 73.53242 5.925
    endloop
  endfacet
  facet normal 0 0.7862647 0.6178898
    outer loop
      vertex 78.18861 78.18861 0
      vertex 6.656189 73.53242 5.925
      vertex 73.53242 73.53242 5.925
    endloop
  endfacet
  facet normal 0 -0.8899165 -0.4561234
    outer loop
      vertex 14.72583 65.46277 0
      vertex 65.46277 65.46277 0
      vertex 62.42593 62.42593 5.925
    endloop
  endfacet
  facet normal 0 -0.8899165 -0.4561234
    outer loop
      vertex 14.72583 65.46277 0
      vertex 62.42593 62.42593 5.925
      vertex 17.76267 62.42593 5.925
    endloop
  endfacet
  facet normal 0 0 -1
    outer loop
      vertex 2 78.18861 0
      vertex 78.18861 78.18861 0
      vertex 65.46277 65.46277 0
    endloop
  endfacet
  facet normal 0 0 -1
    outer loop
      vertex 2 78.18861 0
      vertex 65.46277 65.46277 0
      vertex 14.72583 65.46277 0
    endloop
  endfacet
  facet normal 0 0 1
    outer loop
      vertex 73.53242 73.53242 5.925
      vertex 6.656189 73.53242 5.925
      vertex 17.76267 62.42593 5.925
    endloop
  endfacet
  facet normal 0 0 1
    outer loop
      vertex 73.53242 73.53242 5.925
      vertex 17.76267 62.42593 5.925
      vertex 62.42593 62.42593 5.925
    endloop
  endfacet
  facet normal -0.7862647 0 0.6178898
    outer loop
      vertex 2 78.18861 0
      vertex 2 2 0
      vertex 6.656189 6.656189 5.925
    endloop
  endfacet
  facet normal -0.7862647 0 0.6178898
    outer loop
      vertex 2 78.18861 0
      vertex 6.656189 6.656189 5.925
      vertex 6.656189 73.53242 5.925
    endloop
  endfacet
  facet normal 0.8899165 0 -0.4561234
    outer loop
      vertex 14.72583 14.72583 0
      vertex 14.72583 65.46277 0
      vertex 17.76267 62.42593 5.925
    endloop
  endfacet
  facet normal 0.8899165 0 -0.4561234
    outer loop
      vertex 14.72583 14.72583 0
      vertex 17.76267 62.42593 5.925
      vertex 17.76267 17.76267 5.925
    endloop
  endfacet
  facet normal 0 0 -1
    outer loop
      vertex 2 2 0
      vertex 2 78.18861 0
      vertex 14.72583 65.46277 0
    endloop
  endfacet
  facet normal 0 0 -1
    outer loop
      vertex 2 2 0
      vertex 14.72583 65.46277 0
      vertex 14.72583 14.72583 0
    endloop
  endfacet
  facet normal 0 0 1
    outer loop
      vertex 6.656189 73.53242 5.925
      vertex 6.656189 6.656189 5.925
      vertex 17.76267 17.76267 5.925
    endloop
  endfacet
  facet normal 0 0 1
    outer loop
      vertex 6.656189 73.53242 5.925
      vertex 17.76267 17.76267 5.925
      vertex 17.76267 62.42593 5.925
    endloop
  endfacet
endsolid casing_ring_10_bottom_up
