solid reuse_material_stockpile_for_next_pyramid
  facet normal 0 0 -1
    outer loop
      vertex 2 12 0
      vertex 16 12 0
      vertex 16 2 0
    endloop
  endfacet
  facet normal 0 0 -1
    outer loop
      vertex 2 12 0
      vertex 16 2 0
      vertex 2 2 0
    endloop
  endfacet
  facet normal 0 0 1
    outer loop
      vertex 2 2 5
      vertex 16 2 5
      vertex 16 12 5
    endloop
  endfacet
  facet normal 0 0 1
    outer loop
      vertex 2 2 5
      vertex 16 12 5
      vertex 2 12 5
    endloop
  endfacet
  facet normal 0 -1 0
    outer loop
      vertex 2 2 0
      vertex 16 2 0
      vertex 16 2 5
    endloop
  endfacet
  facet normal 0 -1 0
    outer loop
      vertex 2 2 0
      vertex 16 2 5
      vertex 2 2 5
    endloop
  endfacet
  facet normal 1 0 0
    outer loop
      vertex 16 2 0
      vertex 16 12 0
      vertex 16 12 5
    endloop
  endfacet
  facet normal 1 0 0
    outer loop
      vertex 16 2 0
      vertex 16 12 5
      vertex 16 2 5
    endloop
  endfacet
  facet normal 0 1 0
    outer loop
      vertex 16 12 0
      vertex 2 12 0
      vertex 2 12 5
    endloop
  endfacet
  facet normal 0 1 -0
    outer loop
      vertex 16 12 0
      vertex 2 12 5
      vertex 16 12 5
    endloop
  endfacet
  facet normal -1 0 0
    outer loop
      vertex 2 12 0
      vertex 2 2 0
      vertex 2 2 5
    endloop
  endfacet
  facet normal -1 0 0
    outer loop
      vertex 2 12 0
      vertex 2 2 5
      vertex 2 12 5
    endloop
  endfacet
  facet normal 0 0 -1
    outer loop
      vertex 17.2 12 0
      vertex 31.2 12 0
      vertex 31.2 2 0
    endloop
  endfacet
  facet normal 0 0 -1
    outer loop
      vertex 17.2 12 0
      vertex 31.2 2 0
      vertex 17.2 2 0
    endloop
  endfacet
  facet normal 0 0 1
    outer loop
      vertex 17.2 2 5
      vertex 31.2 2 5
      vertex 31.2 12 5
    endloop
  endfacet
  facet normal 0 0 1
    outer loop
      vertex 17.2 2 5
      vertex 31.2 12 5
      vertex 17.2 12 5
    endloop
  endfacet
  facet normal 0 -1 0
    outer loop
      vertex 17.2 2 0
      vertex 31.2 2 0
      vertex 31.2 2 5
    endloop
  endfacet
  facet normal 0 -1 0
    outer loop
      vertex 17.2 2 0
      vertex 31.2 2 5
      vertex 17.2 2 5
    endloop
  endfacet
  facet normal 1 0 0
    outer loop
      vertex 31.2 2 0
      vertex 31.2 12 0
      vertex 31.2 12 5
    endloop
  endfacet
  facet normal 1 0 0
    outer loop
      vertex 31.2 2 0
      vertex 31.2 12 5
      vertex 31.2 2 5
    endloop
  endfacet
  facet normal 0 1 0
    outer loop
      vertex 31.2 12 0
      vertex 17.2 12 0
      vertex 17.2 12 5
    endloop
  endfacet
  facet normal 0 1 -0
    outer loop
      vertex 31.2 12 0
      vertex 17.2 12 5
      vertex 31.2 12 5
    endloop
  endfacet
  facet normal -1 0 0
    outer loop
      vertex 17.2 12 0
      vertex 17.2 2 0
      vertex 17.2 2 5
    endloop
  endfacet
  facet normal -1 0 0
    outer loop
      vertex 17.2 12 0
      vertex 17.2 2 5
      vertex 17.2 12 5
    endloop
  endfacet
  facet normal 0 0 -1
    outer loop
      vertex 32.4 12 0
      vertex 46.4 12 0
      vertex 46.4 2 0
    endloop
  endfacet
  facet normal 0 0 -1
    outer loop
      vertex 32.4 12 0
      vertex 46.4 2 0
      vertex 32.4 2 0
    endloop
  endfacet
  facet normal 0 0 1
    outer loop
      vertex 32.4 2 5
      vertex 46.4 2 5
      vertex 46.4 12 5
    endloop
  endfacet
  facet normal 0 0 1
    outer loop
      vertex 32.4 2 5
      vertex 46.4 12 5
      vertex 32.4 12 5
    endloop
  endfacet
  facet normal 0 -1 0
    outer loop
      vertex 32.4 2 0
      vertex 46.4 2 0
      vertex 46.4 2 5
    endloop
  endfacet
  facet normal 0 -1 0
    outer loop
      vertex 32.4 2 0
      vertex 46.4 2 5
      vertex 32.4 2 5
    endloop
  endfacet
  facet normal 1 0 0
    outer loop
      vertex 46.4 2 0
      vertex 46.4 12 0
      vertex 46.4 12 5
    endloop
  endfacet
  facet normal 1 0 0
    outer loop
      vertex 46.4 2 0
      vertex 46.4 12 5
      vertex 46.4 2 5
    endloop
  endfacet
  facet normal 0 1 0
    outer loop
      vertex 46.4 12 0
      vertex 32.4 12 0
      vertex 32.4 12 5
    endloop
  endfacet
  facet normal 0 1 -0
    outer loop
      vertex 46.4 12 0
      vertex 32.4 12 5
      vertex 46.4 12 5
    endloop
  endfacet
  facet normal -1 0 0
    outer loop
      vertex 32.4 12 0
      vertex 32.4 2 0
      vertex 32.4 2 5
    endloop
  endfacet
  facet normal -1 0 0
    outer loop
      vertex 32.4 12 0
      vertex 32.4 2 5
      vertex 32.4 12 5
    endloop
  endfacet
  facet normal 0 0 -1
    outer loop
      vertex 47.6 12 0
      vertex 61.6 12 0
      vertex 61.6 2 0
    endloop
  endfacet
  facet normal 0 0 -1
    outer loop
      vertex 47.6 12 0
      vertex 61.6 2 0
      vertex 47.6 2 0
    endloop
  endfacet
  facet normal 0 0 1
    outer loop
      vertex 47.6 2 5
      vertex 61.6 2 5
      vertex 61.6 12 5
    endloop
  endfacet
  facet normal 0 0 1
    outer loop
      vertex 47.6 2 5
      vertex 61.6 12 5
      vertex 47.6 12 5
    endloop
  endfacet
  facet normal 0 -1 0
    outer loop
      vertex 47.6 2 0
      vertex 61.6 2 0
      vertex 61.6 2 5
    endloop
  endfacet
  facet normal 0 -1 0
    outer loop
      vertex 47.6 2 0
      vertex 61.6 2 5
      vertex 47.6 2 5
    endloop
  endfacet
  facet normal 1 0 0
    outer loop
      vertex 61.6 2 0
      vertex 61.6 12 0
      vertex 61.6 12 5
    endloop
  endfacet
  facet normal 1 0 0
    outer loop
      vertex 61.6 2 0
      vertex 61.6 12 5
      vertex 61.6 2 5
    endloop
  endfacet
  facet normal 0 1 0
    outer loop
      vertex 61.6 12 0
      vertex 47.6 12 0
      vertex 47.6 12 5
    endloop
  endfacet
  facet normal 0 1 -0
    outer loop
      vertex 61.6 12 0
      vertex 47.6 12 5
      vertex 61.6 12 5
    endloop
  endfacet
  facet normal -1 0 0
    outer loop
      vertex 47.6 12 0
      vertex 47.6 2 0
      vertex 47.6 2 5
    endloop
  endfacet
  facet normal -1 0 0
    outer loop
      vertex 47.6 12 0
      vertex 47.6 2 5
      vertex 47.6 12 5
    endloop
  endfacet
  facet normal 0 0 -1
    outer loop
      vertex 2 23.2 0
      vertex 16 23.2 0
      vertex 16 13.2 0
    endloop
  endfacet
  facet normal 0 0 -1
    outer loop
      vertex 2 23.2 0
      vertex 16 13.2 0
      vertex 2 13.2 0
    endloop
  endfacet
  facet normal 0 0 1
    outer loop
      vertex 2 13.2 5
      vertex 16 13.2 5
      vertex 16 23.2 5
    endloop
  endfacet
  facet normal 0 0 1
    outer loop
      vertex 2 13.2 5
      vertex 16 23.2 5
      vertex 2 23.2 5
    endloop
  endfacet
  facet normal 0 -1 0
    outer loop
      vertex 2 13.2 0
      vertex 16 13.2 0
      vertex 16 13.2 5
    endloop
  endfacet
  facet normal 0 -1 0
    outer loop
      vertex 2 13.2 0
      vertex 16 13.2 5
      vertex 2 13.2 5
    endloop
  endfacet
  facet normal 1 0 0
    outer loop
      vertex 16 13.2 0
      vertex 16 23.2 0
      vertex 16 23.2 5
    endloop
  endfacet
  facet normal 1 0 0
    outer loop
      vertex 16 13.2 0
      vertex 16 23.2 5
      vertex 16 13.2 5
    endloop
  endfacet
  facet normal 0 1 0
    outer loop
      vertex 16 23.2 0
      vertex 2 23.2 0
      vertex 2 23.2 5
    endloop
  endfacet
  facet normal 0 1 -0
    outer loop
      vertex 16 23.2 0
      vertex 2 23.2 5
      vertex 16 23.2 5
    endloop
  endfacet
  facet normal -1 0 0
    outer loop
      vertex 2 23.2 0
      vertex 2 13.2 0
      vertex 2 13.2 5
    endloop
  endfacet
  facet normal -1 0 0
    outer loop
      vertex 2 23.2 0
      vertex 2 13.2 5
      vertex 2 23.2 5
    endloop
  endfacet
  facet normal 0 0 -1
    outer loop
      vertex 17.2 23.2 0
      vertex 31.2 23.2 0
      vertex 31.2 13.2 0
    endloop
  endfacet
  facet normal 0 0 -1
    outer loop
      vertex 17.2 23.2 0
      vertex 31.2 13.2 0
      vertex 17.2 13.2 0
    endloop
  endfacet
  facet normal 0 0 1
    outer loop
      vertex 17.2 13.2 5
      vertex 31.2 13.2 5
      vertex 31.2 23.2 5
    endloop
  endfacet
  facet normal 0 0 1
    outer loop
      vertex 17.2 13.2 5
      vertex 31.2 23.2 5
      vertex 17.2 23.2 5
    endloop
  endfacet
  facet normal 0 -1 0
    outer loop
      vertex 17.2 13.2 0
      vertex 31.2 13.2 0
      vertex 31.2 13.2 5
    endloop
  endfacet
  facet normal 0 -1 0
    outer loop
      vertex 17.2 13.2 0
      vertex 31.2 13.2 5
      vertex 17.2 13.2 5
    endloop
  endfacet
  facet normal 1 0 0
    outer loop
      vertex 31.2 13.2 0
      vertex 31.2 23.2 0
      vertex 31.2 23.2 5
    endloop
  endfacet
  facet normal 1 0 0
    outer loop
      vertex 31.2 13.2 0
      vertex 31.2 23.2 5
      vertex 31.2 13.2 5
    endloop
  endfacet
  facet normal 0 1 0
    outer loop
      vertex 31.2 23.2 0
      vertex 17.2 23.2 0
      vertex 17.2 23.2 5
    endloop
  endfacet
  facet normal 0 1 -0
    outer loop
      vertex 31.2 23.2 0
      vertex 17.2 23.2 5
      vertex 31.2 23.2 5
    endloop
  endfacet
  facet normal -1 0 0
    outer loop
      vertex 17.2 23.2 0
      vertex 17.2 13.2 0
      vertex 17.2 13.2 5
    endloop
  endfacet
  facet normal -1 0 0
    outer loop
      vertex 17.2 23.2 0
      vertex 17.2 13.2 5
      vertex 17.2 23.2 5
    endloop
  endfacet
  facet normal 0 0 -1
    outer loop
      vertex 32.4 23.2 0
      vertex 46.4 23.2 0
      vertex 46.4 13.2 0
    endloop
  endfacet
  facet normal 0 0 -1
    outer loop
      vertex 32.4 23.2 0
      vertex 46.4 13.2 0
      vertex 32.4 13.2 0
    endloop
  endfacet
  facet normal 0 0 1
    outer loop
      vertex 32.4 13.2 5
      vertex 46.4 13.2 5
      vertex 46.4 23.2 5
    endloop
  endfacet
  facet normal 0 0 1
    outer loop
      vertex 32.4 13.2 5
      vertex 46.4 23.2 5
      vertex 32.4 23.2 5
    endloop
  endfacet
  facet normal 0 -1 0
    outer loop
      vertex 32.4 13.2 0
      vertex 46.4 13.2 0
      vertex 46.4 13.2 5
    endloop
  endfacet
  facet normal 0 -1 0
    outer loop
      vertex 32.4 13.2 0
      vertex 46.4 13.2 5
      vertex 32.4 13.2 5
    endloop
  endfacet
  facet normal 1 0 0
    outer loop
      vertex 46.4 13.2 0
      vertex 46.4 23.2 0
      vertex 46.4 23.2 5
    endloop
  endfacet
  facet normal 1 0 0
    outer loop
      vertex 46.4 13.2 0
      vertex 46.4 23.2 5
      vertex 46.4 13.2 5
    endloop
  endfacet
  facet normal 0 1 0
    outer loop
      vertex 46.4 23.2 0
      vertex 32.4 23.2 0
      vertex 32.4 23.2 5
    endloop
  endfacet
  facet normal 0 1 -0
    outer loop
      vertex 46.4 23.2 0
      vertex 32.4 23.2 5
      vertex 46.4 23.2 5
    endloop
  endfacet
  facet normal -1 0 0
    outer loop
      vertex 32.4 23.2 0
      vertex 32.4 13.2 0
      vertex 32.4 13.2 5
    endloop
  endfacet
  facet normal -1 0 0
    outer loop
      vertex 32.4 23.2 0
      vertex 32.4 13.2 5
      vertex 32.4 23.2 5
    endloop
  endfacet
  facet normal 0 0 -1
    outer loop
      vertex 47.6 23.2 0
      vertex 61.6 23.2 0
      vertex 61.6 13.2 0
    endloop
  endfacet
  facet normal 0 0 -1
    outer loop
      vertex 47.6 23.2 0
      vertex 61.6 13.2 0
      vertex 47.6 13.2 0
    endloop
  endfacet
  facet normal 0 0 1
    outer loop
      vertex 47.6 13.2 5
      vertex 61.6 13.2 5
      vertex 61.6 23.2 5
    endloop
  endfacet
  facet normal 0 0 1
    outer loop
      vertex 47.6 13.2 5
      vertex 61.6 23.2 5
      vertex 47.6 23.2 5
    endloop
  endfacet
  facet normal 0 -1 0
    outer loop
      vertex 47.6 13.2 0
      vertex 61.6 13.2 0
      vertex 61.6 13.2 5
    endloop
  endfacet
  facet normal 0 -1 0
    outer loop
      vertex 47.6 13.2 0
      vertex 61.6 13.2 5
      vertex 47.6 13.2 5
    endloop
  endfacet
  facet normal 1 0 0
    outer loop
      vertex 61.6 13.2 0
      vertex 61.6 23.2 0
      vertex 61.6 23.2 5
    endloop
  endfacet
  facet normal 1 0 0
    outer loop
      vertex 61.6 13.2 0
      vertex 61.6 23.2 5
      vertex 61.6 13.2 5
    endloop
  endfacet
  facet normal 0 1 0
    outer loop
      vertex 61.6 23.2 0
      vertex 47.6 23.2 0
      vertex 47.6 23.2 5
    endloop
  endfacet
  facet normal 0 1 -0
    outer loop
      vertex 61.6 23.2 0
      vertex 47.6 23.2 5
      vertex 61.6 23.2 5
    endloop
  endfacet
  facet normal -1 0 0
    outer loop
      vertex 47.6 23.2 0
      vertex 47.6 13.2 0
      vertex 47.6 13.2 5
    endloop
  endfacet
  facet normal -1 0 0
    outer loop
      vertex 47.6 23.2 0
      vertex 47.6 13.2 5
      vertex 47.6 23.2 5
    endloop
  endfacet
  facet normal 0 0 -1
    outer loop
      vertex 2 34.4 0
      vertex 16 34.4 0
      vertex 16 24.4 0
    endloop
  endfacet
  facet normal 0 0 -1
    outer loop
      vertex 2 34.4 0
      vertex 16 24.4 0
      vertex 2 24.4 0
    endloop
  endfacet
  facet normal 0 0 1
    outer loop
      vertex 2 24.4 5
      vertex 16 24.4 5
      vertex 16 34.4 5
    endloop
  endfacet
  facet normal 0 0 1
    outer loop
      vertex 2 24.4 5
      vertex 16 34.4 5
      vertex 2 34.4 5
    endloop
  endfacet
  facet normal 0 -1 0
    outer loop
      vertex 2 24.4 0
      vertex 16 24.4 0
      vertex 16 24.4 5
    endloop
  endfacet
  facet normal 0 -1 0
    outer loop
      vertex 2 24.4 0
      vertex 16 24.4 5
      vertex 2 24.4 5
    endloop
  endfacet
  facet normal 1 0 0
    outer loop
      vertex 16 24.4 0
      vertex 16 34.4 0
      vertex 16 34.4 5
    endloop
  endfacet
  facet normal 1 0 0
    outer loop
      vertex 16 24.4 0
      vertex 16 34.4 5
      vertex 16 24.4 5
    endloop
  endfacet
  facet normal 0 1 0
    outer loop
      vertex 16 34.4 0
      vertex 2 34.4 0
      vertex 2 34.4 5
    endloop
  endfacet
  facet normal 0 1 -0
    outer loop
      vertex 16 34.4 0
      vertex 2 34.4 5
      vertex 16 34.4 5
    endloop
  endfacet
  facet normal -1 0 0
    outer loop
      vertex 2 34.4 0
      vertex 2 24.4 0
      vertex 2 24.4 5
    endloop
  endfacet
  facet normal -1 0 0
    outer loop
      vertex 2 34.4 0
      vertex 2 24.4 5
      vertex 2 34.4 5
    endloop
  endfacet
  facet normal 0 0 -1
    outer loop
      vertex 17.2 34.4 0
      vertex 31.2 34.4 0
      vertex 31.2 24.4 0
    endloop
  endfacet
  facet normal 0 0 -1
    outer loop
      vertex 17.2 34.4 0
      vertex 31.2 24.4 0
      vertex 17.2 24.4 0
    endloop
  endfacet
  facet normal 0 0 1
    outer loop
      vertex 17.2 24.4 5
      vertex 31.2 24.4 5
      vertex 31.2 34.4 5
    endloop
  endfacet
  facet normal 0 0 1
    outer loop
      vertex 17.2 24.4 5
      vertex 31.2 34.4 5
      vertex 17.2 34.4 5
    endloop
  endfacet
  facet normal 0 -1 0
    outer loop
      vertex 17.2 24.4 0
      vertex 31.2 24.4 0
      vertex 31.2 24.4 5
    endloop
  endfacet
  facet normal 0 -1 0
    outer loop
      vertex 17.2 24.4 0
      vertex 31.2 24.4 5
      vertex 17.2 24.4 5
    endloop
  endfacet
  facet normal 1 0 0
    outer loop
      vertex 31.2 24.4 0
      vertex 31.2 34.4 0
      vertex 31.2 34.4 5
    endloop
  endfacet
  facet normal 1 0 0
    outer loop
      vertex 31.2 24.4 0
      vertex 31.2 34.4 5
      vertex 31.2 24.4 5
    endloop
  endfacet
  facet normal 0 1 0
    outer loop
      vertex 31.2 34.4 0
      vertex 17.2 34.4 0
      vertex 17.2 34.4 5
    endloop
  endfacet
  facet normal 0 1 -0
    outer loop
      vertex 31.2 34.4 0
      vertex 17.2 34.4 5
      vertex 31.2 34.4 5
    endloop
  endfacet
  facet normal -1 0 0
    outer loop
      vertex 17.2 34.4 0
      vertex 17.2 24.4 0
      vertex 17.2 24.4 5
    endloop
  endfacet
  facet normal -1 0 0
    outer loop
      vertex 17.2 34.4 0
      vertex 17.2 24.4 5
      vertex 17.2 34.4 5
    endloop
  endfacet
  facet normal 0 0 -1
    outer loop
      vertex 32.4 34.4 0
      vertex 46.4 34.4 0
      vertex 46.4 24.4 0
    endloop
  endfacet
  facet normal 0 0 -1
    outer loop
      vertex 32.4 34.4 0
      vertex 46.4 24.4 0
      vertex 32.4 24.4 0
    endloop
  endfacet
  facet normal 0 0 1
    outer loop
      vertex 32.4 24.4 5
      vertex 46.4 24.4 5
      vertex 46.4 34.4 5
    endloop
  endfacet
  facet normal 0 0 1
    outer loop
      vertex 32.4 24.4 5
      vertex 46.4 34.4 5
      vertex 32.4 34.4 5
    endloop
  endfacet
  facet normal 0 -1 0
    outer loop
      vertex 32.4 24.4 0
      vertex 46.4 24.4 0
      vertex 46.4 24.4 5
    endloop
  endfacet
  facet normal 0 -1 0
    outer loop
      vertex 32.4 24.4 0
      vertex 46.4 24.4 5
      vertex 32.4 24.4 5
    endloop
  endfacet
  facet normal 1 0 0
    outer loop
      vertex 46.4 24.4 0
      vertex 46.4 34.4 0
      vertex 46.4 34.4 5
    endloop
  endfacet
  facet normal 1 0 0
    outer loop
      vertex 46.4 24.4 0
      vertex 46.4 34.4 5
      vertex 46.4 24.4 5
    endloop
  endfacet
  facet normal 0 1 0
    outer loop
      vertex 46.4 34.4 0
      vertex 32.4 34.4 0
      vertex 32.4 34.4 5
    endloop
  endfacet
  facet normal 0 1 -0
    outer loop
      vertex 46.4 34.4 0
      vertex 32.4 34.4 5
      vertex 46.4 34.4 5
    endloop
  endfacet
  facet normal -1 0 0
    outer loop
      vertex 32.4 34.4 0
      vertex 32.4 24.4 0
      vertex 32.4 24.4 5
    endloop
  endfacet
  facet normal -1 0 0
    outer loop
      vertex 32.4 34.4 0
      vertex 32.4 24.4 5
      vertex 32.4 34.4 5
    endloop
  endfacet
  facet normal 0 0 -1
    outer loop
      vertex 47.6 34.4 0
      vertex 61.6 34.4 0
      vertex 61.6 24.4 0
    endloop
  endfacet
  facet normal 0 0 -1
    outer loop
      vertex 47.6 34.4 0
      vertex 61.6 24.4 0
      vertex 47.6 24.4 0
    endloop
  endfacet
  facet normal 0 0 1
    outer loop
      vertex 47.6 24.4 5
      vertex 61.6 24.4 5
      vertex 61.6 34.4 5
    endloop
  endfacet
  facet normal 0 0 1
    outer loop
      vertex 47.6 24.4 5
      vertex 61.6 34.4 5
      vertex 47.6 34.4 5
    endloop
  endfacet
  facet normal 0 -1 0
    outer loop
      vertex 47.6 24.4 0
      vertex 61.6 24.4 0
      vertex 61.6 24.4 5
    endloop
  endfacet
  facet normal 0 -1 0
    outer loop
      vertex 47.6 24.4 0
      vertex 61.6 24.4 5
      vertex 47.6 24.4 5
    endloop
  endfacet
  facet normal 1 0 0
    outer loop
      vertex 61.6 24.4 0
      vertex 61.6 34.4 0
      vertex 61.6 34.4 5
    endloop
  endfacet
  facet normal 1 0 0
    outer loop
      vertex 61.6 24.4 0
      vertex 61.6 34.4 5
      vertex 61.6 24.4 5
    endloop
  endfacet
  facet normal 0 1 0
    outer loop
      vertex 61.6 34.4 0
      vertex 47.6 34.4 0
      vertex 47.6 34.4 5
    endloop
  endfacet
  facet normal 0 1 -0
    outer loop
      vertex 61.6 34.4 0
      vertex 47.6 34.4 5
      vertex 61.6 34.4 5
    endloop
  endfacet
  facet normal -1 0 0
    outer loop
      vertex 47.6 34.4 0
      vertex 47.6 24.4 0
      vertex 47.6 24.4 5
    endloop
  endfacet
  facet normal -1 0 0
    outer loop
      vertex 47.6 34.4 0
      vertex 47.6 24.4 5
      vertex 47.6 34.4 5
    endloop
  endfacet
  facet normal 0 0 -1
    outer loop
      vertex 5 14 5
      vertex 19 14 5
      vertex 19 4 5
    endloop
  endfacet
  facet normal 0 0 -1
    outer loop
      vertex 5 14 5
      vertex 19 4 5
      vertex 5 4 5
    endloop
  endfacet
  facet normal 0 0 1
    outer loop
      vertex 5 4 10
      vertex 19 4 10
      vertex 19 14 10
    endloop
  endfacet
  facet normal 0 0 1
    outer loop
      vertex 5 4 10
      vertex 19 14 10
      vertex 5 14 10
    endloop
  endfacet
  facet normal 0 -1 0
    outer loop
      vertex 5 4 5
      vertex 19 4 5
      vertex 19 4 10
    endloop
  endfacet
  facet normal 0 -1 0
    outer loop
      vertex 5 4 5
      vertex 19 4 10
      vertex 5 4 10
    endloop
  endfacet
  facet normal 1 0 0
    outer loop
      vertex 19 4 5
      vertex 19 14 5
      vertex 19 14 10
    endloop
  endfacet
  facet normal 1 0 0
    outer loop
      vertex 19 4 5
      vertex 19 14 10
      vertex 19 4 10
    endloop
  endfacet
  facet normal 0 1 0
    outer loop
      vertex 19 14 5
      vertex 5 14 5
      vertex 5 14 10
    endloop
  endfacet
  facet normal 0 1 -0
    outer loop
      vertex 19 14 5
      vertex 5 14 10
      vertex 19 14 10
    endloop
  endfacet
  facet normal -1 0 0
    outer loop
      vertex 5 14 5
      vertex 5 4 5
      vertex 5 4 10
    endloop
  endfacet
  facet normal -1 0 0
    outer loop
      vertex 5 14 5
      vertex 5 4 10
      vertex 5 14 10
    endloop
  endfacet
  facet normal 0 0 -1
    outer loop
      vertex 20.2 14 5
      vertex 34.2 14 5
      vertex 34.2 4 5
    endloop
  endfacet
  facet normal 0 0 -1
    outer loop
      vertex 20.2 14 5
      vertex 34.2 4 5
      vertex 20.2 4 5
    endloop
  endfacet
  facet normal 0 0 1
    outer loop
      vertex 20.2 4 10
      vertex 34.2 4 10
      vertex 34.2 14 10
    endloop
  endfacet
  facet normal 0 0 1
    outer loop
      vertex 20.2 4 10
      vertex 34.2 14 10
      vertex 20.2 14 10
    endloop
  endfacet
  facet normal 0 -1 0
    outer loop
      vertex 20.2 4 5
      vertex 34.2 4 5
      vertex 34.2 4 10
    endloop
  endfacet
  facet normal 0 -1 0
    outer loop
      vertex 20.2 4 5
      vertex 34.2 4 10
      vertex 20.2 4 10
    endloop
  endfacet
  facet normal 1 0 0
    outer loop
      vertex 34.2 4 5
      vertex 34.2 14 5
      vertex 34.2 14 10
    endloop
  endfacet
  facet normal 1 0 0
    outer loop
      vertex 34.2 4 5
      vertex 34.2 14 10
      vertex 34.2 4 10
    endloop
  endfacet
  facet normal 0 1 0
    outer loop
      vertex 34.2 14 5
      vertex 20.2 14 5
      vertex 20.2 14 10
    endloop
  endfacet
  facet normal 0 1 -0
    outer loop
      vertex 34.2 14 5
      vertex 20.2 14 10
      vertex 34.2 14 10
    endloop
  endfacet
  facet normal -1 0 0
    outer loop
      vertex 20.2 14 5
      vertex 20.2 4 5
      vertex 20.2 4 10
    endloop
  endfacet
  facet normal -1 0 0
    outer loop
      vertex 20.2 14 5
      vertex 20.2 4 10
      vertex 20.2 14 10
    endloop
  endfacet
  facet normal 0 0 -1
    outer loop
      vertex 35.4 14 5
      vertex 49.4 14 5
      vertex 49.4 4 5
    endloop
  endfacet
  facet normal 0 0 -1
    outer loop
      vertex 35.4 14 5
      vertex 49.4 4 5
      vertex 35.4 4 5
    endloop
  endfacet
  facet normal 0 0 1
    outer loop
      vertex 35.4 4 10
      vertex 49.4 4 10
      vertex 49.4 14 10
    endloop
  endfacet
  facet normal 0 0 1
    outer loop
      vertex 35.4 4 10
      vertex 49.4 14 10
      vertex 35.4 14 10
    endloop
  endfacet
  facet normal 0 -1 0
    outer loop
      vertex 35.4 4 5
      vertex 49.4 4 5
      vertex 49.4 4 10
    endloop
  endfacet
  facet normal 0 -1 0
    outer loop
      vertex 35.4 4 5
      vertex 49.4 4 10
      vertex 35.4 4 10
    endloop
  endfacet
  facet normal 1 0 0
    outer loop
      vertex 49.4 4 5
      vertex 49.4 14 5
      vertex 49.4 14 10
    endloop
  endfacet
  facet normal 1 0 0
    outer loop
      vertex 49.4 4 5
      vertex 49.4 14 10
      vertex 49.4 4 10
    endloop
  endfacet
  facet normal 0 1 0
    outer loop
      vertex 49.4 14 5
      vertex 35.4 14 5
      vertex 35.4 14 10
    endloop
  endfacet
  facet normal 0 1 -0
    outer loop
      vertex 49.4 14 5
      vertex 35.4 14 10
      vertex 49.4 14 10
    endloop
  endfacet
  facet normal -1 0 0
    outer loop
      vertex 35.4 14 5
      vertex 35.4 4 5
      vertex 35.4 4 10
    endloop
  endfacet
  facet normal -1 0 0
    outer loop
      vertex 35.4 14 5
      vertex 35.4 4 10
      vertex 35.4 14 10
    endloop
  endfacet
  facet normal 0 0 -1
    outer loop
      vertex 5 25.2 5
      vertex 19 25.2 5
      vertex 19 15.2 5
    endloop
  endfacet
  facet normal 0 0 -1
    outer loop
      vertex 5 25.2 5
      vertex 19 15.2 5
      vertex 5 15.2 5
    endloop
  endfacet
  facet normal 0 0 1
    outer loop
      vertex 5 15.2 10
      vertex 19 15.2 10
      vertex 19 25.2 10
    endloop
  endfacet
  facet normal 0 0 1
    outer loop
      vertex 5 15.2 10
      vertex 19 25.2 10
      vertex 5 25.2 10
    endloop
  endfacet
  facet normal 0 -1 0
    outer loop
      vertex 5 15.2 5
      vertex 19 15.2 5
      vertex 19 15.2 10
    endloop
  endfacet
  facet normal 0 -1 0
    outer loop
      vertex 5 15.2 5
      vertex 19 15.2 10
      vertex 5 15.2 10
    endloop
  endfacet
  facet normal 1 0 0
    outer loop
      vertex 19 15.2 5
      vertex 19 25.2 5
      vertex 19 25.2 10
    endloop
  endfacet
  facet normal 1 0 0
    outer loop
      vertex 19 15.2 5
      vertex 19 25.2 10
      vertex 19 15.2 10
    endloop
  endfacet
  facet normal 0 1 0
    outer loop
      vertex 19 25.2 5
      vertex 5 25.2 5
      vertex 5 25.2 10
    endloop
  endfacet
  facet normal 0 1 -0
    outer loop
      vertex 19 25.2 5
      vertex 5 25.2 10
      vertex 19 25.2 10
    endloop
  endfacet
  facet normal -1 0 0
    outer loop
      vertex 5 25.2 5
      vertex 5 15.2 5
      vertex 5 15.2 10
    endloop
  endfacet
  facet normal -1 0 0
    outer loop
      vertex 5 25.2 5
      vertex 5 15.2 10
      vertex 5 25.2 10
    endloop
  endfacet
  facet normal 0 0 -1
    outer loop
      vertex 20.2 25.2 5
      vertex 34.2 25.2 5
      vertex 34.2 15.2 5
    endloop
  endfacet
  facet normal 0 0 -1
    outer loop
      vertex 20.2 25.2 5
      vertex 34.2 15.2 5
      vertex 20.2 15.2 5
    endloop
  endfacet
  facet normal 0 0 1
    outer loop
      vertex 20.2 15.2 10
      vertex 34.2 15.2 10
      vertex 34.2 25.2 10
    endloop
  endfacet
  facet normal 0 0 1
    outer loop
      vertex 20.2 15.2 10
      vertex 34.2 25.2 10
      vertex 20.2 25.2 10
    endloop
  endfacet
  facet normal 0 -1 0
    outer loop
      vertex 20.2 15.2 5
      vertex 34.2 15.2 5
      vertex 34.2 15.2 10
    endloop
  endfacet
  facet normal 0 -1 0
    outer loop
      vertex 20.2 15.2 5
      vertex 34.2 15.2 10
      vertex 20.2 15.2 10
    endloop
  endfacet
  facet normal 1 0 0
    outer loop
      vertex 34.2 15.2 5
      vertex 34.2 25.2 5
      vertex 34.2 25.2 10
    endloop
  endfacet
  facet normal 1 0 0
    outer loop
      vertex 34.2 15.2 5
      vertex 34.2 25.2 10
      vertex 34.2 15.2 10
    endloop
  endfacet
  facet normal 0 1 0
    outer loop
      vertex 34.2 25.2 5
      vertex 20.2 25.2 5
      vertex 20.2 25.2 10
    endloop
  endfacet
  facet normal 0 1 -0
    outer loop
      vertex 34.2 25.2 5
      vertex 20.2 25.2 10
      vertex 34.2 25.2 10
    endloop
  endfacet
  facet normal -1 0 0
    outer loop
      vertex 20.2 25.2 5
      vertex 20.2 15.2 5
      vertex 20.2 15.2 10
    endloop
  endfacet
  facet normal -1 0 0
    outer loop
      vertex 20.2 25.2 5
      vertex 20.2 15.2 10
      vertex 20.2 25.2 10
    endloop
  endfacet
  facet normal 0 0 -1
    outer loop
      vertex 35.4 25.2 5
      vertex 49.4 25.2 5
      vertex 49.4 15.2 5
    endloop
  endfacet
  facet normal 0 0 -1
    outer loop
      vertex 35.4 25.2 5
      vertex 49.4 15.2 5
      vertex 35.4 15.2 5
    endloop
  endfacet
  facet normal 0 0 1
    outer loop
      vertex 35.4 15.2 10
      vertex 49.4 15.2 10
      vertex 49.4 25.2 10
    endloop
  endfacet
  facet normal 0 0 1
    outer loop
      vertex 35.4 15.2 10
      vertex 49.4 25.2 10
      vertex 35.4 25.2 10
    endloop
  endfacet
  facet normal 0 -1 0
    outer loop
      vertex 35.4 15.2 5
      vertex 49.4 15.2 5
      vertex 49.4 15.2 10
    endloop
  endfacet
  facet normal 0 -1 0
    outer loop
      vertex 35.4 15.2 5
      vertex 49.4 15.2 10
      vertex 35.4 15.2 10
    endloop
  endfacet
  facet normal 1 0 0
    outer loop
      vertex 49.4 15.2 5
      vertex 49.4 25.2 5
      vertex 49.4 25.2 10
    endloop
  endfacet
  facet normal 1 0 0
    outer loop
      vertex 49.4 15.2 5
      vertex 49.4 25.2 10
      vertex 49.4 15.2 10
    endloop
  endfacet
  facet normal 0 1 0
    outer loop
      vertex 49.4 25.2 5
      vertex 35.4 25.2 5
      vertex 35.4 25.2 10
    endloop
  endfacet
  facet normal 0 1 -0
    outer loop
      vertex 49.4 25.2 5
      vertex 35.4 25.2 10
      vertex 49.4 25.2 10
    endloop
  endfacet
  facet normal -1 0 0
    outer loop
      vertex 35.4 25.2 5
      vertex 35.4 15.2 5
      vertex 35.4 15.2 10
    endloop
  endfacet
  facet normal -1 0 0
    outer loop
      vertex 35.4 25.2 5
      vertex 35.4 15.2 10
      vertex 35.4 25.2 10
    endloop
  endfacet
  facet normal 0 0 -1
    outer loop
      vertex 8 16 10
      vertex 22 16 10
      vertex 22 6 10
    endloop
  endfacet
  facet normal 0 0 -1
    outer loop
      vertex 8 16 10
      vertex 22 6 10
      vertex 8 6 10
    endloop
  endfacet
  facet normal 0 0 1
    outer loop
      vertex 8 6 15
      vertex 22 6 15
      vertex 22 16 15
    endloop
  endfacet
  facet normal 0 0 1
    outer loop
      vertex 8 6 15
      vertex 22 16 15
      vertex 8 16 15
    endloop
  endfacet
  facet normal 0 -1 0
    outer loop
      vertex 8 6 10
      vertex 22 6 10
      vertex 22 6 15
    endloop
  endfacet
  facet normal 0 -1 0
    outer loop
      vertex 8 6 10
      vertex 22 6 15
      vertex 8 6 15
    endloop
  endfacet
  facet normal 1 0 0
    outer loop
      vertex 22 6 10
      vertex 22 16 10
      vertex 22 16 15
    endloop
  endfacet
  facet normal 1 0 0
    outer loop
      vertex 22 6 10
      vertex 22 16 15
      vertex 22 6 15
    endloop
  endfacet
  facet normal 0 1 0
    outer loop
      vertex 22 16 10
      vertex 8 16 10
      vertex 8 16 15
    endloop
  endfacet
  facet normal 0 1 -0
    outer loop
      vertex 22 16 10
      vertex 8 16 15
      vertex 22 16 15
    endloop
  endfacet
  facet normal -1 0 0
    outer loop
      vertex 8 16 10
      vertex 8 6 10
      vertex 8 6 15
    endloop
  endfacet
  facet normal -1 0 0
    outer loop
      vertex 8 16 10
      vertex 8 6 15
      vertex 8 16 15
    endloop
  endfacet
  facet normal 0 0 -1
    outer loop
      vertex 23.2 16 10
      vertex 37.2 16 10
      vertex 37.2 6 10
    endloop
  endfacet
  facet normal 0 0 -1
    outer loop
      vertex 23.2 16 10
      vertex 37.2 6 10
      vertex 23.2 6 10
    endloop
  endfacet
  facet normal 0 0 1
    outer loop
      vertex 23.2 6 15
      vertex 37.2 6 15
      vertex 37.2 16 15
    endloop
  endfacet
  facet normal 0 0 1
    outer loop
      vertex 23.2 6 15
      vertex 37.2 16 15
      vertex 23.2 16 15
    endloop
  endfacet
  facet normal 0 -1 0
    outer loop
      vertex 23.2 6 10
      vertex 37.2 6 10
      vertex 37.2 6 15
    endloop
  endfacet
  facet normal 0 -1 0
    outer loop
      vertex 23.2 6 10
      vertex 37.2 6 15
      vertex 23.2 6 15
    endloop
  endfacet
  facet normal 1 0 0
    outer loop
      vertex 37.2 6 10
      vertex 37.2 16 10
      vertex 37.2 16 15
    endloop
  endfacet
  facet normal 1 0 0
    outer loop
      vertex 37.2 6 10
      vertex 37.2 16 15
      vertex 37.2 6 15
    endloop
  endfacet
  facet normal 0 1 0
    outer loop
      vertex 37.2 16 10
      vertex 23.2 16 10
      vertex 23.2 16 15
    endloop
  endfacet
  facet normal 0 1 -0
    outer loop
      vertex 37.2 16 10
      vertex 23.2 16 15
      vertex 37.2 16 15
    endloop
  endfacet
  facet normal -1 0 0
    outer loop
      vertex 23.2 16 10
      vertex 23.2 6 10
      vertex 23.2 6 15
    endloop
  endfacet
  facet normal -1 0 0
    outer loop
      vertex 23.2 16 10
      vertex 23.2 6 15
      vertex 23.2 16 15
    endloop
  endfacet
  facet normal 0 0 -1
    outer loop
      vertex 8 27.2 10
      vertex 22 27.2 10
      vertex 22 17.2 10
    endloop
  endfacet
  facet normal 0 0 -1
    outer loop
      vertex 8 27.2 10
      vertex 22 17.2 10
      vertex 8 17.2 10
    endloop
  endfacet
  facet normal 0 0 1
    outer loop
      vertex 8 17.2 15
      vertex 22 17.2 15
      vertex 22 27.2 15
    endloop
  endfacet
  facet normal 0 0 1
    outer loop
      vertex 8 17.2 15
      vertex 22 27.2 15
      vertex 8 27.2 15
    endloop
  endfacet
  facet normal 0 -1 0
    outer loop
      vertex 8 17.2 10
      vertex 22 17.2 10
      vertex 22 17.2 15
    endloop
  endfacet
  facet normal 0 -1 0
    outer loop
      vertex 8 17.2 10
      vertex 22 17.2 15
      vertex 8 17.2 15
    endloop
  endfacet
  facet normal 1 0 0
    outer loop
      vertex 22 17.2 10
      vertex 22 27.2 10
      vertex 22 27.2 15
    endloop
  endfacet
  facet normal 1 0 0
    outer loop
      vertex 22 17.2 10
      vertex 22 27.2 15
      vertex 22 17.2 15
    endloop
  endfacet
  facet normal 0 1 0
    outer loop
      vertex 22 27.2 10
      vertex 8 27.2 10
      vertex 8 27.2 15
    endloop
  endfacet
  facet normal 0 1 -0
    outer loop
      vertex 22 27.2 10
      vertex 8 27.2 15
      vertex 22 27.2 15
    endloop
  endfacet
  facet normal -1 0 0
    outer loop
      vertex 8 27.2 10
      vertex 8 17.2 10
      vertex 8 17.2 15
    endloop
  endfacet
  facet normal -1 0 0
    outer loop
      vertex 8 27.2 10
      vertex 8 17.2 15
      vertex 8 27.2 15
    endloop
  endfacet
  facet normal 0 0 -1
    outer loop
      vertex 23.2 27.2 10
      vertex 37.2 27.2 10
      vertex 37.2 17.2 10
    endloop
  endfacet
  facet normal 0 0 -1
    outer loop
      vertex 23.2 27.2 10
      vertex 37.2 17.2 10
      vertex 23.2 17.2 10
    endloop
  endfacet
  facet normal 0 0 1
    outer loop
      vertex 23.2 17.2 15
      vertex 37.2 17.2 15
      vertex 37.2 27.2 15
    endloop
  endfacet
  facet normal 0 0 1
    outer loop
      vertex 23.2 17.2 15
      vertex 37.2 27.2 15
      vertex 23.2 27.2 15
    endloop
  endfacet
  facet normal 0 -1 0
    outer loop
      vertex 23.2 17.2 10
      vertex 37.2 17.2 10
      vertex 37.2 17.2 15
    endloop
  endfacet
  facet normal 0 -1 0
    outer loop
      vertex 23.2 17.2 10
      vertex 37.2 17.2 15
      vertex 23.2 17.2 15
    endloop
  endfacet
  facet normal 1 0 0
    outer loop
      vertex 37.2 17.2 10
      vertex 37.2 27.2 10
      vertex 37.2 27.2 15
    endloop
  endfacet
  facet normal 1 0 0
    outer loop
      vertex 37.2 17.2 10
      vertex 37.2 27.2 15
      vertex 37.2 17.2 15
    endloop
  endfacet
  facet normal 0 1 0
    outer loop
      vertex 37.2 27.2 10
      vertex 23.2 27.2 10
      vertex 23.2 27.2 15
    endloop
  endfacet
  facet normal 0 1 -0
    outer loop
      vertex 37.2 27.2 10
      vertex 23.2 27.2 15
      vertex 37.2 27.2 15
    endloop
  endfacet
  facet normal -1 0 0
    outer loop
      vertex 23.2 27.2 10
      vertex 23.2 17.2 10
      vertex 23.2 17.2 15
    endloop
  endfacet
  facet normal -1 0 0
    outer loop
      vertex 23.2 27.2 10
      vertex 23.2 17.2 15
      vertex 23.2 27.2 15
    endloop
  endfacet
endsolid reuse_material_stockpile_for_next_pyramid
