solid temporary_switchback_ramps_south_local_underfill
  facet normal 0 0 -1
    outer loop
      vertex 226.4857 6.656189 0
      vertex 6.656189 6.656189 0
      vertex 6.656189 24.65619 0
    endloop
  endfacet
  facet normal 0 0 -1
    outer loop
      vertex 226.4857 6.656189 0
      vertex 6.656189 24.65619 0
      vertex 226.4857 24.65619 0
    endloop
  endfacet
  facet normal 0 0 1
    outer loop
      vertex 226.4857 24.65619 3.125
      vertex 6.656189 24.65619 3.125
      vertex 6.656189 6.656189 3.125
    endloop
  endfacet
  facet normal 0 0 1
    outer loop
      vertex 226.4857 24.65619 3.125
      vertex 6.656189 6.656189 3.125
      vertex 226.4857 6.656189 3.125
    endloop
  endfacet
  facet normal 0 1 0
    outer loop
      vertex 226.4857 24.65619 0
      vertex 6.656189 24.65619 0
      vertex 6.656189 24.65619 3.125
    endloop
  endfacet
  facet normal 0 1 -0
    outer loop
      vertex 226.4857 24.65619 0
      vertex 6.656189 24.65619 3.125
      vertex 226.4857 24.65619 3.125
    endloop
  endfacet
  facet normal -1 0 0
    outer loop
      vertex 6.656189 24.65619 0
      vertex 6.656189 6.656189 0
      vertex 6.656189 6.656189 3.125
    endloop
  endfacet
  facet normal -1 0 0
    outer loop
      vertex 6.656189 24.65619 0
      vertex 6.656189 6.656189 3.125
      vertex 6.656189 24.65619 3.125
    endloop
  endfacet
  facet normal 0 -1 0
    outer loop
      vertex 6.656189 6.656189 0
      vertex 226.4857 6.656189 0
      vertex 226.4857 6.656189 3.125
    endloop
  endfacet
  facet normal 0 -1 0
    outer loop
      vertex 6.656189 6.656189 0
      vertex 226.4857 6.656189 3.125
      vertex 6.656189 6.656189 3.125
    endloop
  endfacet
  facet normal 1 0 0
    outer loop
      vertex 226.4857 6.656189 0
      vertex 226.4857 24.65619 0
      vertex 226.4857 24.65619 3.125
    endloop
  endfacet
  facet normal 1 0 0
    outer loop
      vertex 226.4857 6.656189 0
      vertex 226.4857 24.65619 3.125
      vertex 226.4857 6.656189 3.125
    endloop
  endfacet
  facet normal 0 0 -1
    outer loop
      vertex 221.8295 11.31238 5.925
      vertex 11.31238 11.31238 5.925
      vertex 11.31238 29.31238 5.925
    endloop
  endfacet
  facet normal 0 0 -1
    outer loop
      vertex 221.8295 11.31238 5.925
      vertex 11.31238 29.31238 5.925
      vertex 221.8295 29.31238 5.925
    endloop
  endfacet
  facet normal 0 0 1
    outer loop
      vertex 221.8295 29.31238 9.05
      vertex 11.31238 29.31238 9.05
      vertex 11.31238 11.31238 9.05
    endloop
  endfacet
  facet normal 0 0 1
    outer loop
      vertex 221.8295 29.31238 9.05
      vertex 11.31238 11.31238 9.05
      vertex 221.8295 11.31238 9.05
    endloop
  endfacet
  facet normal 0 1 0
    outer loop
      vertex 221.8295 29.31238 5.925
      vertex 11.31238 29.31238 5.925
      vertex 11.31238 29.31238 9.05
    endloop
  endfacet
  facet normal 0 1 -0
    outer loop
      vertex 221.8295 29.31238 5.925
      vertex 11.31238 29.31238 9.05
      vertex 221.8295 29.31238 9.05
    endloop
  endfacet
  facet normal -1 0 0
    outer loop
      vertex 11.31238 29.31238 5.925
      vertex 11.31238 11.31238 5.925
      vertex 11.31238 11.31238 9.05
    endloop
  endfacet
  facet normal -1 0 0
    outer loop
      vertex 11.31238 29.31238 5.925
      vertex 11.31238 11.31238 9.05
      vertex 11.31238 29.31238 9.05
    endloop
  endfacet
  facet normal 0 -1 0
    outer loop
      vertex 11.31238 11.31238 5.925
      vertex 221.8295 11.31238 5.925
      vertex 221.8295 11.31238 9.05
    endloop
  endfacet
  facet normal 0 -1 0
    outer loop
      vertex 11.31238 11.31238 5.925
      vertex 221.8295 11.31238 9.05
      vertex 11.31238 11.31238 9.05
    endloop
  endfacet
  facet normal 1 0 0
    outer loop
      vertex 221.8295 11.31238 5.925
      vertex 221.8295 29.31238 5.925
      vertex 221.8295 29.31238 9.05
    endloop
  endfacet
  facet normal 1 0 0
    outer loop
      vertex 221.8295 11.31238 5.925
      vertex 221.8295 29.31238 9.05
      vertex 221.8295 11.31238 9.05
    endloop
  endfacet
  facet normal 0 0 -1
    outer loop
      vertex 217.1733 15.96857 11.85
      vertex 15.96857 15.96857 11.85
      vertex 15.96857 33.96857 11.85
    endloop
  endfacet
  facet normal 0 0 -1
    outer loop
      vertex 217.1733 15.96857 11.85
      vertex 15.96857 33.96857 11.85
      vertex 217.1733 33.96857 11.85
    endloop
  endfacet
  facet normal 0 0 1
    outer loop
      vertex 217.1733 33.96857 14.975
      vertex 15.96857 33.96857 14.975
      vertex 15.96857 15.96857 14.975
    endloop
  endfacet
  facet normal 0 0 1
    outer loop
      vertex 217.1733 33.96857 14.975
      vertex 15.96857 15.96857 14.975
      vertex 217.1733 15.96857 14.975
    endloop
  endfacet
  facet normal 0 1 0
    outer loop
      vertex 217.1733 33.96857 11.85
      vertex 15.96857 33.96857 11.85
      vertex 15.96857 33.96857 14.975
    endloop
  endfacet
  facet normal 0 1 -0
    outer loop
      vertex 217.1733 33.96857 11.85
      vertex 15.96857 33.96857 14.975
      vertex 217.1733 33.96857 14.975
    endloop
  endfacet
  facet normal -1 0 0
    outer loop
      vertex 15.96857 33.96857 11.85
      vertex 15.96857 15.96857 11.85
      vertex 15.96857 15.96857 14.975
    endloop
  endfacet
  facet normal -1 0 0
    outer loop
      vertex 15.96857 33.96857 11.85
      vertex 15.96857 15.96857 14.975
      vertex 15.96857 33.96857 14.975
    endloop
  endfacet
  facet normal 0 -1 0
    outer loop
      vertex 15.96857 15.96857 11.85
      vertex 217.1733 15.96857 11.85
      vertex 217.1733 15.96857 14.975
    endloop
  endfacet
  facet normal 0 -1 0
    outer loop
      vertex 15.96857 15.96857 11.85
      vertex 217.1733 15.96857 14.975
      vertex 15.96857 15.96857 14.975
    endloop
  endfacet
  facet normal 1 0 0
    outer loop
      vertex 217.1733 15.96857 11.85
      vertex 217.1733 33.96857 11.85
      vertex 217.1733 33.96857 14.975
    endloop
  endfacet
  facet normal 1 0 0
    outer loop
      vertex 217.1733 15.96857 11.85
      vertex 217.1733 33.96857 14.975
      vertex 217.1733 15.96857 14.975
    endloop
  endfacet
  facet normal 0 0 -1
    outer loop
      vertex 212.5171 20.62475 17.775
      vertex 20.62475 20.62475 17.775
      vertex 20.62475 38.62475 17.775
    endloop
  endfacet
  facet normal 0 0 -1
    outer loop
      vertex 212.5171 20.62475 17.775
      vertex 20.62475 38.62475 17.775
      vertex 212.5171 38.62475 17.775
    endloop
  endfacet
  facet normal 0 0 1
    outer loop
      vertex 212.5171 38.62475 20.9
      vertex 20.62475 38.62475 20.9
      vertex 20.62475 20.62475 20.9
    endloop
  endfacet
  facet normal 0 0 1
    outer loop
      vertex 212.5171 38.62475 20.9
      vertex 20.62475 20.62475 20.9
      vertex 212.5171 20.62475 20.9
    endloop
  endfacet
  facet normal 0 1 0
    outer loop
      vertex 212.5171 38.62475 17.775
      vertex 20.62475 38.62475 17.775
      vertex 20.62475 38.62475 20.9
    endloop
  endfacet
  facet normal 0 1 -0
    outer loop
      vertex 212.5171 38.62475 17.775
      vertex 20.62475 38.62475 20.9
      vertex 212.5171 38.62475 20.9
    endloop
  endfacet
  facet normal -1 0 0
    outer loop
      vertex 20.62475 38.62475 17.775
      vertex 20.62475 20.62475 17.775
      vertex 20.62475 20.62475 20.9
    endloop
  endfacet
  facet normal -1 0 0
    outer loop
      vertex 20.62475 38.62475 17.775
      vertex 20.62475 20.62475 20.9
      vertex 20.62475 38.62475 20.9
    endloop
  endfacet
  facet normal 0 -1 0
    outer loop
      vertex 20.62475 20.62475 17.775
      vertex 212.5171 20.62475 17.775
      vertex 212.5171 20.62475 20.9
    endloop
  endfacet
  facet normal 0 -1 0
    outer loop
      vertex 20.62475 20.62475 17.775
      vertex 212.5171 20.62475 20.9
      vertex 20.62475 20.62475 20.9
    endloop
  endfacet
  facet normal 1 0 0
    outer loop
      vertex 212.5171 20.62475 17.775
      vertex 212.5171 38.62475 17.775
      vertex 212.5171 38.62475 20.9
    endloop
  endfacet
  facet normal 1 0 0
    outer loop
      vertex 212.5171 20.62475 17.775
      vertex 212.5171 38.62475 20.9
      vertex 212.5171 20.62475 20.9
    endloop
  endfacet
  facet normal 0 0 -1
    outer loop
      vertex 207.8609 25.28094 23.7
      vertex 25.28094 25.28094 23.7
      vertex 25.28094 43.28094 23.7
    endloop
  endfacet
  facet normal 0 0 -1
    outer loop
      vertex 207.8609 25.28094 23.7
      vertex 25.28094 43.28094 23.7
      vertex 207.8609 43.28094 23.7
    endloop
  endfacet
  facet normal 0 0 1
    outer loop
      vertex 207.8609 43.28094 26.825
      vertex 25.28094 43.28094 26.825
      vertex 25.28094 25.28094 26.825
    endloop
  endfacet
  facet normal 0 0 1
    outer loop
      vertex 207.8609 43.28094 26.825
      vertex 25.28094 25.28094 26.825
      vertex 207.8609 25.28094 26.825
    endloop
  endfacet
  facet normal 0 1 0
    outer loop
      vertex 207.8609 43.28094 23.7
      vertex 25.28094 43.28094 23.7
      vertex 25.28094 43.28094 26.825
    endloop
  endfacet
  facet normal 0 1 -0
    outer loop
      vertex 207.8609 43.28094 23.7
      vertex 25.28094 43.28094 26.825
      vertex 207.8609 43.28094 26.825
    endloop
  endfacet
  facet normal -1 0 0
    outer loop
      vertex 25.28094 43.28094 23.7
      vertex 25.28094 25.28094 23.7
      vertex 25.28094 25.28094 26.825
    endloop
  endfacet
  facet normal -1 0 0
    outer loop
      vertex 25.28094 43.28094 23.7
      vertex 25.28094 25.28094 26.825
      vertex 25.28094 43.28094 26.825
    endloop
  endfacet
  facet normal 0 -1 0
    outer loop
      vertex 25.28094 25.28094 23.7
      vertex 207.8609 25.28094 23.7
      vertex 207.8609 25.28094 26.825
    endloop
  endfacet
  facet normal 0 -1 0
    outer loop
      vertex 25.28094 25.28094 23.7
      vertex 207.8609 25.28094 26.825
      vertex 25.28094 25.28094 26.825
    endloop
  endfacet
  facet normal 1 0 0
    outer loop
      vertex 207.8609 25.28094 23.7
      vertex 207.8609 43.28094 23.7
      vertex 207.8609 43.28094 26.825
    endloop
  endfacet
  facet normal 1 0 0
    outer loop
      vertex 207.8609 25.28094 23.7
      vertex 207.8609 43.28094 26.825
      vertex 207.8609 25.28094 26.825
    endloop
  endfacet
  facet normal 0 0 -1
    outer loop
      vertex 203.2047 29.93713 29.625
      vertex 29.93713 29.93713 29.625
      vertex 29.93713 47.93713 29.625
    endloop
  endfacet
  facet normal 0 0 -1
    outer loop
      vertex 203.2047 29.93713 29.625
      vertex 29.93713 47.93713 29.625
      vertex 203.2047 47.93713 29.625
    endloop
  endfacet
  facet normal 0 0 1
    outer loop
      vertex 203.2047 47.93713 32.75
      vertex 29.93713 47.93713 32.75
      vertex 29.93713 29.93713 32.75
    endloop
  endfacet
  facet normal 0 0 1
    outer loop
      vertex 203.2047 47.93713 32.75
      vertex 29.93713 29.93713 32.75
      vertex 203.2047 29.93713 32.75
    endloop
  endfacet
  facet normal 0 1 0
    outer loop
      vertex 203.2047 47.93713 29.625
      vertex 29.93713 47.93713 29.625
      vertex 29.93713 47.93713 32.75
    endloop
  endfacet
  facet normal 0 1 -0
    outer loop
      vertex 203.2047 47.93713 29.625
      vertex 29.93713 47.93713 32.75
      vertex 203.2047 47.93713 32.75
    endloop
  endfacet
  facet normal -1 0 0
    outer loop
      vertex 29.93713 47.93713 29.625
      vertex 29.93713 29.93713 29.625
      vertex 29.93713 29.93713 32.75
    endloop
  endfacet
  facet normal -1 0 0
    outer loop
      vertex 29.93713 47.93713 29.625
      vertex 29.93713 29.93713 32.75
      vertex 29.93713 47.93713 32.75
    endloop
  endfacet
  facet normal 0 -1 0
    outer loop
      vertex 29.93713 29.93713 29.625
      vertex 203.2047 29.93713 29.625
      vertex 203.2047 29.93713 32.75
    endloop
  endfacet
  facet normal 0 -1 0
    outer loop
      vertex 29.93713 29.93713 29.625
      vertex 203.2047 29.93713 32.75
      vertex 29.93713 29.93713 32.75
    endloop
  endfacet
  facet normal 1 0 0
    outer loop
      vertex 203.2047 29.93713 29.625
      vertex 203.2047 47.93713 29.625
      vertex 203.2047 47.93713 32.75
    endloop
  endfacet
  facet normal 1 0 0
    outer loop
      vertex 203.2047 29.93713 29.625
      vertex 203.2047 47.93713 32.75
      vertex 203.2047 29.93713 32.75
    endloop
  endfacet
  facet normal 0 0 -1
    outer loop
      vertex 198.5485 34.59332 35.55
      vertex 34.59332 34.59332 35.55
      vertex 34.59332 52.59332 35.55
    endloop
  endfacet
  facet normal 0 0 -1
    outer loop
      vertex 198.5485 34.59332 35.55
      vertex 34.59332 52.59332 35.55
      vertex 198.5485 52.59332 35.55
    endloop
  endfacet
  facet normal 0 0 1
    outer loop
      vertex 198.5485 52.59332 38.675
      vertex 34.59332 52.59332 38.675
      vertex 34.59332 34.59332 38.675
    endloop
  endfacet
  facet normal 0 0 1
    outer loop
      vertex 198.5485 52.59332 38.675
      vertex 34.59332 34.59332 38.675
      vertex 198.5485 34.59332 38.675
    endloop
  endfacet
  facet normal 0 1 0
    outer loop
      vertex 198.5485 52.59332 35.55
      vertex 34.59332 52.59332 35.55
      vertex 34.59332 52.59332 38.675
    endloop
  endfacet
  facet normal 0 1 -0
    outer loop
      vertex 198.5485 52.59332 35.55
      vertex 34.59332 52.59332 38.675
      vertex 198.5485 52.59332 38.675
    endloop
  endfacet
  facet normal -1 0 0
    outer loop
      vertex 34.59332 52.59332 35.55
      vertex 34.59332 34.59332 35.55
      vertex 34.59332 34.59332 38.675
    endloop
  endfacet
  facet normal -1 0 0
    outer loop
      vertex 34.59332 52.59332 35.55
      vertex 34.59332 34.59332 38.675
      vertex 34.59332 52.59332 38.675
    endloop
  endfacet
  facet normal 0 -1 0
    outer loop
      vertex 34.59332 34.59332 35.55
      vertex 198.5485 34.59332 35.55
      vertex 198.5485 34.59332 38.675
    endloop
  endfacet
  facet normal 0 -1 0
    outer loop
      vertex 34.59332 34.59332 35.55
      vertex 198.5485 34.59332 38.675
      vertex 34.59332 34.59332 38.675
    endloop
  endfacet
  facet normal 1 0 0
    outer loop
      vertex 198.5485 34.59332 35.55
      vertex 198.5485 52.59332 35.55
      vertex 198.5485 52.59332 38.675
    endloop
  endfacet
  facet normal 1 0 0
    outer loop
      vertex 198.5485 34.59332 35.55
      vertex 198.5485 52.59332 38.675
      vertex 198.5485 34.59332 38.675
    endloop
  endfacet
  facet normal 0 0 -1
    outer loop
      vertex 193.8923 39.24951 41.475
      vertex 39.24951 39.24951 41.475
      vertex 39.24951 57.24951 41.475
    endloop
  endfacet
  facet normal 0 0 -1
    outer loop
      vertex 193.8923 39.24951 41.475
      vertex 39.24951 57.24951 41.475
      vertex 193.8923 57.24951 41.475
    endloop
  endfacet
  facet normal 0 0 1
    outer loop
      vertex 193.8923 57.24951 44.6
      vertex 39.24951 57.24951 44.6
      vertex 39.24951 39.24951 44.6
    endloop
  endfacet
  facet normal 0 0 1
    outer loop
      vertex 193.8923 57.24951 44.6
      vertex 39.24951 39.24951 44.6
      vertex 193.8923 39.24951 44.6
    endloop
  endfacet
  facet normal 0 1 0
    outer loop
      vertex 193.8923 57.24951 41.475
      vertex 39.24951 57.24951 41.475
      vertex 39.24951 57.24951 44.6
    endloop
  endfacet
  facet normal 0 1 -0
    outer loop
      vertex 193.8923 57.24951 41.475
      vertex 39.24951 57.24951 44.6
      vertex 193.8923 57.24951 44.6
    endloop
  endfacet
  facet normal -1 0 0
    outer loop
      vertex 39.24951 57.24951 41.475
      vertex 39.24951 39.24951 41.475
      vertex 39.24951 39.24951 44.6
    endloop
  endfacet
  facet normal -1 0 0
    outer loop
      vertex 39.24951 57.24951 41.475
      vertex 39.24951 39.24951 44.6
      vertex 39.24951 57.24951 44.6
    endloop
  endfacet
  facet normal 0 -1 0
    outer loop
      vertex 39.24951 39.24951 41.475
      vertex 193.8923 39.24951 41.475
      vertex 193.8923 39.24951 44.6
    endloop
  endfacet
  facet normal 0 -1 0
    outer loop
      vertex 39.24951 39.24951 41.475
      vertex 193.8923 39.24951 44.6
      vertex 39.24951 39.24951 44.6
    endloop
  endfacet
  facet normal 1 0 0
    outer loop
      vertex 193.8923 39.24951 41.475
      vertex 193.8923 57.24951 41.475
      vertex 193.8923 57.24951 44.6
    endloop
  endfacet
  facet normal 1 0 0
    outer loop
      vertex 193.8923 39.24951 41.475
      vertex 193.8923 57.24951 44.6
      vertex 193.8923 39.24951 44.6
    endloop
  endfacet
  facet normal 0 0 -1
    outer loop
      vertex 189.2361 43.9057 47.4
      vertex 43.9057 43.9057 47.4
      vertex 43.9057 61.9057 47.4
    endloop
  endfacet
  facet normal 0 0 -1
    outer loop
      vertex 189.2361 43.9057 47.4
      vertex 43.9057 61.9057 47.4
      vertex 189.2361 61.9057 47.4
    endloop
  endfacet
  facet normal 0 0 1
    outer loop
      vertex 189.2361 61.9057 50.525
      vertex 43.9057 61.9057 50.525
      vertex 43.9057 43.9057 50.525
    endloop
  endfacet
  facet normal 0 0 1
    outer loop
      vertex 189.2361 61.9057 50.525
      vertex 43.9057 43.9057 50.525
      vertex 189.2361 43.9057 50.525
    endloop
  endfacet
  facet normal 0 1 0
    outer loop
      vertex 189.2361 61.9057 47.4
      vertex 43.9057 61.9057 47.4
      vertex 43.9057 61.9057 50.525
    endloop
  endfacet
  facet normal 0 1 -0
    outer loop
      vertex 189.2361 61.9057 47.4
      vertex 43.9057 61.9057 50.525
      vertex 189.2361 61.9057 50.525
    endloop
  endfacet
  facet normal -1 0 0
    outer loop
      vertex 43.9057 61.9057 47.4
      vertex 43.9057 43.9057 47.4
      vertex 43.9057 43.9057 50.525
    endloop
  endfacet
  facet normal -1 0 0
    outer loop
      vertex 43.9057 61.9057 47.4
      vertex 43.9057 43.9057 50.525
      vertex 43.9057 61.9057 50.525
    endloop
  endfacet
  facet normal 0 -1 0
    outer loop
      vertex 43.9057 43.9057 47.4
      vertex 189.2361 43.9057 47.4
      vertex 189.2361 43.9057 50.525
    endloop
  endfacet
  facet normal 0 -1 0
    outer loop
      vertex 43.9057 43.9057 47.4
      vertex 189.2361 43.9057 50.525
      vertex 43.9057 43.9057 50.525
    endloop
  endfacet
  facet normal 1 0 0
    outer loop
      vertex 189.2361 43.9057 47.4
      vertex 189.2361 61.9057 47.4
      vertex 189.2361 61.9057 50.525
    endloop
  endfacet
  facet normal 1 0 0
    outer loop
      vertex 189.2361 43.9057 47.4
      vertex 189.2361 61.9057 50.525
      vertex 189.2361 43.9057 50.525
    endloop
  endfacet
  facet normal 0 0 -1
    outer loop
      vertex 184.58 48.56189 53.325
      vertex 48.56189 48.56189 53.325
      vertex 48.56189 66.56189 53.325
    endloop
  endfacet
  facet normal 0 0 -1
    outer loop
      vertex 184.58 48.56189 53.325
      vertex 48.56189 66.56189 53.325
      vertex 184.58 66.56189 53.325
    endloop
  endfacet
  facet normal 0 0 1
    outer loop
      vertex 184.58 66.56189 56.45
      vertex 48.56189 66.56189 56.45
      vertex 48.56189 48.56189 56.45
    endloop
  endfacet
  facet normal 0 0 1
    outer loop
      vertex 184.58 66.56189 56.45
      vertex 48.56189 48.56189 56.45
      vertex 184.58 48.56189 56.45
    endloop
  endfacet
  facet normal 0 1 0
    outer loop
      vertex 184.58 66.56189 53.325
      vertex 48.56189 66.56189 53.325
      vertex 48.56189 66.56189 56.45
    endloop
  endfacet
  facet normal 0 1 -0
    outer loop
      vertex 184.58 66.56189 53.325
      vertex 48.56189 66.56189 56.45
      vertex 184.58 66.56189 56.45
    endloop
  endfacet
  facet normal -1 0 0
    outer loop
      vertex 48.56189 66.56189 53.325
      vertex 48.56189 48.56189 53.325
      vertex 48.56189 48.56189 56.45
    endloop
  endfacet
  facet normal -1 0 0
    outer loop
      vertex 48.56189 66.56189 53.325
      vertex 48.56189 48.56189 56.45
      vertex 48.56189 66.56189 56.45
    endloop
  endfacet
  facet normal 0 -1 0
    outer loop
      vertex 48.56189 48.56189 53.325
      vertex 184.58 48.56189 53.325
      vertex 184.58 48.56189 56.45
    endloop
  endfacet
  facet normal 0 -1 0
    outer loop
      vertex 48.56189 48.56189 53.325
      vertex 184.58 48.56189 56.45
      vertex 48.56189 48.56189 56.45
    endloop
  endfacet
  facet normal 1 0 0
    outer loop
      vertex 184.58 48.56189 53.325
      vertex 184.58 66.56189 53.325
      vertex 184.58 66.56189 56.45
    endloop
  endfacet
  facet normal 1 0 0
    outer loop
      vertex 184.58 48.56189 53.325
      vertex 184.58 66.56189 56.45
      vertex 184.58 48.56189 56.45
    endloop
  endfacet
  facet normal 0 0 -1
    outer loop
      vertex 179.9238 53.21807 59.25
      vertex 53.21807 53.21807 59.25
      vertex 53.21807 71.21807 59.25
    endloop
  endfacet
  facet normal 0 0 -1
    outer loop
      vertex 179.9238 53.21807 59.25
      vertex 53.21807 71.21807 59.25
      vertex 179.9238 71.21807 59.25
    endloop
  endfacet
  facet normal 0 0 1
    outer loop
      vertex 179.9238 71.21807 62.375
      vertex 53.21807 71.21807 62.375
      vertex 53.21807 53.21807 62.375
    endloop
  endfacet
  facet normal 0 0 1
    outer loop
      vertex 179.9238 71.21807 62.375
      vertex 53.21807 53.21807 62.375
      vertex 179.9238 53.21807 62.375
    endloop
  endfacet
  facet normal 0 1 0
    outer loop
      vertex 179.9238 71.21807 59.25
      vertex 53.21807 71.21807 59.25
      vertex 53.21807 71.21807 62.375
    endloop
  endfacet
  facet normal 0 1 -0
    outer loop
      vertex 179.9238 71.21807 59.25
      vertex 53.21807 71.21807 62.375
      vertex 179.9238 71.21807 62.375
    endloop
  endfacet
  facet normal -1 0 0
    outer loop
      vertex 53.21807 71.21807 59.25
      vertex 53.21807 53.21807 59.25
      vertex 53.21807 53.21807 62.375
    endloop
  endfacet
  facet normal -1 0 0
    outer loop
      vertex 53.21807 71.21807 59.25
      vertex 53.21807 53.21807 62.375
      vertex 53.21807 71.21807 62.375
    endloop
  endfacet
  facet normal 0 -1 0
    outer loop
      vertex 53.21807 53.21807 59.25
      vertex 179.9238 53.21807 59.25
      vertex 179.9238 53.21807 62.375
    endloop
  endfacet
  facet normal 0 -1 0
    outer loop
      vertex 53.21807 53.21807 59.25
      vertex 179.9238 53.21807 62.375
      vertex 53.21807 53.21807 62.375
    endloop
  endfacet
  facet normal 1 0 0
    outer loop
      vertex 179.9238 53.21807 59.25
      vertex 179.9238 71.21807 59.25
      vertex 179.9238 71.21807 62.375
    endloop
  endfacet
  facet normal 1 0 0
    outer loop
      vertex 179.9238 53.21807 59.25
      vertex 179.9238 71.21807 62.375
      vertex 179.9238 53.21807 62.375
    endloop
  endfacet
  facet normal 0 0 -1
    outer loop
      vertex 175.2676 57.87426 65.175
      vertex 57.87426 57.87426 65.175
      vertex 57.87426 75.87426 65.175
    endloop
  endfacet
  facet normal 0 0 -1
    outer loop
      vertex 175.2676 57.87426 65.175
      vertex 57.87426 75.87426 65.175
      vertex 175.2676 75.87426 65.175
    endloop
  endfacet
  facet normal 0 0 1
    outer loop
      vertex 175.2676 75.87426 68.3
      vertex 57.87426 75.87426 68.3
      vertex 57.87426 57.87426 68.3
    endloop
  endfacet
  facet normal 0 0 1
    outer loop
      vertex 175.2676 75.87426 68.3
      vertex 57.87426 57.87426 68.3
      vertex 175.2676 57.87426 68.3
    endloop
  endfacet
  facet normal 0 1 0
    outer loop
      vertex 175.2676 75.87426 65.175
      vertex 57.87426 75.87426 65.175
      vertex 57.87426 75.87426 68.3
    endloop
  endfacet
  facet normal 0 1 -0
    outer loop
      vertex 175.2676 75.87426 65.175
      vertex 57.87426 75.87426 68.3
      vertex 175.2676 75.87426 68.3
    endloop
  endfacet
  facet normal -1 0 0
    outer loop
      vertex 57.87426 75.87426 65.175
      vertex 57.87426 57.87426 65.175
      vertex 57.87426 57.87426 68.3
    endloop
  endfacet
  facet normal -1 0 0
    outer loop
      vertex 57.87426 75.87426 65.175
      vertex 57.87426 57.87426 68.3
      vertex 57.87426 75.87426 68.3
    endloop
  endfacet
  facet normal 0 -1 0
    outer loop
      vertex 57.87426 57.87426 65.175
      vertex 175.2676 57.87426 65.175
      vertex 175.2676 57.87426 68.3
    endloop
  endfacet
  facet normal 0 -1 0
    outer loop
      vertex 57.87426 57.87426 65.175
      vertex 175.2676 57.87426 68.3
      vertex 57.87426 57.87426 68.3
    endloop
  endfacet
  facet normal 1 0 0
    outer loop
      vertex 175.2676 57.87426 65.175
      vertex 175.2676 75.87426 65.175
      vertex 175.2676 75.87426 68.3
    endloop
  endfacet
  facet normal 1 0 0
    outer loop
      vertex 175.2676 57.87426 65.175
      vertex 175.2676 75.87426 68.3
      vertex 175.2676 57.87426 68.3
    endloop
  endfacet
  facet normal 0 0 -1
    outer loop
      vertex 170.6114 62.53045 71.1
      vertex 62.53045 62.53045 71.1
      vertex 62.53045 80.53045 71.1
    endloop
  endfacet
  facet normal 0 0 -1
    outer loop
      vertex 170.6114 62.53045 71.1
      vertex 62.53045 80.53045 71.1
      vertex 170.6114 80.53045 71.1
    endloop
  endfacet
  facet normal 0 0 1
    outer loop
      vertex 170.6114 80.53045 74.225
      vertex 62.53045 80.53045 74.225
      vertex 62.53045 62.53045 74.225
    endloop
  endfacet
  facet normal 0 0 1
    outer loop
      vertex 170.6114 80.53045 74.225
      vertex 62.53045 62.53045 74.225
      vertex 170.6114 62.53045 74.225
    endloop
  endfacet
  facet normal 0 1 0
    outer loop
      vertex 170.6114 80.53045 71.1
      vertex 62.53045 80.53045 71.1
      vertex 62.53045 80.53045 74.225
    endloop
  endfacet
  facet normal 0 1 -0
    outer loop
      vertex 170.6114 80.53045 71.1
      vertex 62.53045 80.53045 74.225
      vertex 170.6114 80.53045 74.225
    endloop
  endfacet
  facet normal -1 0 0
    outer loop
      vertex 62.53045 80.53045 71.1
      vertex 62.53045 62.53045 71.1
      vertex 62.53045 62.53045 74.225
    endloop
  endfacet
  facet normal -1 0 0
    outer loop
      vertex 62.53045 80.53045 71.1
      vertex 62.53045 62.53045 74.225
      vertex 62.53045 80.53045 74.225
    endloop
  endfacet
  facet normal 0 -1 0
    outer loop
      vertex 62.53045 62.53045 71.1
      vertex 170.6114 62.53045 71.1
      vertex 170.6114 62.53045 74.225
    endloop
  endfacet
  facet normal 0 -1 0
    outer loop
      vertex 62.53045 62.53045 71.1
      vertex 170.6114 62.53045 74.225
      vertex 62.53045 62.53045 74.225
    endloop
  endfacet
  facet normal 1 0 0
    outer loop
      vertex 170.6114 62.53045 71.1
      vertex 170.6114 80.53045 71.1
      vertex 170.6114 80.53045 74.225
    endloop
  endfacet
  facet normal 1 0 0
    outer loop
      vertex 170.6114 62.53045 71.1
      vertex 170.6114 80.53045 74.225
      vertex 170.6114 62.53045 74.225
    endloop
  endfacet
  facet normal 0 0 -1
    outer loop
      vertex 165.9552 67.18664 77.025
      vertex 67.18664 67.18664 77.025
      vertex 67.18664 85.18664 77.025
    endloop
  endfacet
  facet normal 0 0 -1
    outer loop
      vertex 165.9552 67.18664 77.025
      vertex 67.18664 85.18664 77.025
      vertex 165.9552 85.18664 77.025
    endloop
  endfacet
  facet normal 0 0 1
    outer loop
      vertex 165.9552 85.18664 80.15
      vertex 67.18664 85.18664 80.15
      vertex 67.18664 67.18664 80.15
    endloop
  endfacet
  facet normal 0 0 1
    outer loop
      vertex 165.9552 85.18664 80.15
      vertex 67.18664 67.18664 80.15
      vertex 165.9552 67.18664 80.15
    endloop
  endfacet
  facet normal 0 1 0
    outer loop
      vertex 165.9552 85.18664 77.025
      vertex 67.18664 85.18664 77.025
      vertex 67.18664 85.18664 80.15
    endloop
  endfacet
  facet normal 0 1 -0
    outer loop
      vertex 165.9552 85.18664 77.025
      vertex 67.18664 85.18664 80.15
      vertex 165.9552 85.18664 80.15
    endloop
  endfacet
  facet normal -1 0 0
    outer loop
      vertex 67.18664 85.18664 77.025
      vertex 67.18664 67.18664 77.025
      vertex 67.18664 67.18664 80.15
    endloop
  endfacet
  facet normal -1 0 0
    outer loop
      vertex 67.18664 85.18664 77.025
      vertex 67.18664 67.18664 80.15
      vertex 67.18664 85.18664 80.15
    endloop
  endfacet
  facet normal 0 -1 0
    outer loop
      vertex 67.18664 67.18664 77.025
      vertex 165.9552 67.18664 77.025
      vertex 165.9552 67.18664 80.15
    endloop
  endfacet
  facet normal 0 -1 0
    outer loop
      vertex 67.18664 67.18664 77.025
      vertex 165.9552 67.18664 80.15
      vertex 67.18664 67.18664 80.15
    endloop
  endfacet
  facet normal 1 0 0
    outer loop
      vertex 165.9552 67.18664 77.025
      vertex 165.9552 85.18664 77.025
      vertex 165.9552 85.18664 80.15
    endloop
  endfacet
  facet normal 1 0 0
    outer loop
      vertex 165.9552 67.18664 77.025
      vertex 165.9552 85.18664 80.15
      vertex 165.9552 67.18664 80.15
    endloop
  endfacet
  facet normal 0 0 -1
    outer loop
      vertex 161.299 71.84283 82.95
      vertex 71.84283 71.84283 82.95
      vertex 71.84283 89.84283 82.95
    endloop
  endfacet
  facet normal 0 0 -1
    outer loop
      vertex 161.299 71.84283 82.95
      vertex 71.84283 89.84283 82.95
      vertex 161.299 89.84283 82.95
    endloop
  endfacet
  facet normal 0 0 1
    outer loop
      vertex 161.299 89.84283 86.075
      vertex 71.84283 89.84283 86.075
      vertex 71.84283 71.84283 86.075
    endloop
  endfacet
  facet normal 0 0 1
    outer loop
      vertex 161.299 89.84283 86.075
      vertex 71.84283 71.84283 86.075
      vertex 161.299 71.84283 86.075
    endloop
  endfacet
  facet normal 0 1 0
    outer loop
      vertex 161.299 89.84283 82.95
      vertex 71.84283 89.84283 82.95
      vertex 71.84283 89.84283 86.075
    endloop
  endfacet
  facet normal 0 1 -0
    outer loop
      vertex 161.299 89.84283 82.95
      vertex 71.84283 89.84283 86.075
      vertex 161.299 89.84283 86.075
    endloop
  endfacet
  facet normal -1 0 0
    outer loop
      vertex 71.84283 89.84283 82.95
      vertex 71.84283 71.84283 82.95
      vertex 71.84283 71.84283 86.075
    endloop
  endfacet
  facet normal -1 0 0
    outer loop
      vertex 71.84283 89.84283 82.95
      vertex 71.84283 71.84283 86.075
      vertex 71.84283 89.84283 86.075
    endloop
  endfacet
  facet normal 0 -1 0
    outer loop
      vertex 71.84283 71.84283 82.95
      vertex 161.299 71.84283 82.95
      vertex 161.299 71.84283 86.075
    endloop
  endfacet
  facet normal 0 -1 0
    outer loop
      vertex 71.84283 71.84283 82.95
      vertex 161.299 71.84283 86.075
      vertex 71.84283 71.84283 86.075
    endloop
  endfacet
  facet normal 1 0 0
    outer loop
      vertex 161.299 71.84283 82.95
      vertex 161.299 89.84283 82.95
      vertex 161.299 89.84283 86.075
    endloop
  endfacet
  facet normal 1 0 0
    outer loop
      vertex 161.299 71.84283 82.95
      vertex 161.299 89.84283 86.075
      vertex 161.299 71.84283 86.075
    endloop
  endfacet
  facet normal -0 0 -1
    outer loop
      vertex 231.1418 20 0
      vertex 59.28546 2 0
      vertex 59.28546 20 0
    endloop
  endfacet
  facet normal 0 -0 -1
    outer loop
      vertex 231.1418 20 0
      vertex 231.1418 2 0
      vertex 59.28546 2 0
    endloop
  endfacet
  facet normal -0 0 -1
    outer loop
      vertex 59.28546 20 0
      vertex 2 2 0
      vertex 2 20 0
    endloop
  endfacet
  facet normal 0 -0 -1
    outer loop
      vertex 59.28546 20 0
      vertex 59.28546 2 0
      vertex 2 2 0
    endloop
  endfacet
  facet normal 0.02922704 0 0.9995728
    outer loop
      vertex 231.1418 20 0.9
      vertex 59.28546 20 5.925
      vertex 59.28546 2 5.925
    endloop
  endfacet
  facet normal 0.02922704 0 0.9995728
    outer loop
      vertex 231.1418 20 0.9
      vertex 59.28546 2 5.925
      vertex 231.1418 2 0.9
    endloop
  endfacet
  facet normal 0 0 1
    outer loop
      vertex 59.28546 20 5.925
      vertex 2 20 5.925
      vertex 2 2 5.925
    endloop
  endfacet
  facet normal 0 0 1
    outer loop
      vertex 59.28546 20 5.925
      vertex 2 2 5.925
      vertex 59.28546 2 5.925
    endloop
  endfacet
  facet normal 0 1 0
    outer loop
      vertex 231.1418 20 0
      vertex 59.28546 20 0
      vertex 59.28546 20 5.925
    endloop
  endfacet
  facet normal 0 1 -0
    outer loop
      vertex 231.1418 20 0
      vertex 59.28546 20 5.925
      vertex 231.1418 20 0.9
    endloop
  endfacet
  facet normal 0 1 0
    outer loop
      vertex 59.28546 20 0
      vertex 2 20 0
      vertex 2 20 5.925
    endloop
  endfacet
  facet normal 0 1 -0
    outer loop
      vertex 59.28546 20 0
      vertex 2 20 5.925
      vertex 59.28546 20 5.925
    endloop
  endfacet
  facet normal 0 -1 0
    outer loop
      vertex 231.1418 2 0
      vertex 59.28546 2 5.925
      vertex 59.28546 2 0
    endloop
  endfacet
  facet normal 0 -1 0
    outer loop
      vertex 231.1418 2 0
      vertex 231.1418 2 0.9
      vertex 59.28546 2 5.925
    endloop
  endfacet
  facet normal 0 -1 0
    outer loop
      vertex 59.28546 2 0
      vertex 2 2 5.925
      vertex 2 2 0
    endloop
  endfacet
  facet normal 0 -1 0
    outer loop
      vertex 59.28546 2 0
      vertex 59.28546 2 5.925
      vertex 2 2 5.925
    endloop
  endfacet
  facet normal 1 0 0
    outer loop
      vertex 231.1418 2 0
      vertex 231.1418 20 0
      vertex 231.1418 20 0.9
    endloop
  endfacet
  facet normal 1 0 0
    outer loop
      vertex 231.1418 2 0
      vertex 231.1418 20 0.9
      vertex 231.1418 2 0.9
    endloop
  endfacet
  facet normal -1 0 0
    outer loop
      vertex 2 20 0
      vertex 2 2 0
      vertex 2 2 5.925
    endloop
  endfacet
  facet normal -1 0 0
    outer loop
      vertex 2 20 0
      vertex 2 2 5.925
      vertex 2 20 5.925
    endloop
  endfacet
  facet normal 0 0 -1
    outer loop
      vertex 6.656189 24.65619 3.125
      vertex 171.5283 24.65619 3.125
      vertex 171.5283 6.656189 3.125
    endloop
  endfacet
  facet normal 0 0 -1
    outer loop
      vertex 6.656189 24.65619 3.125
      vertex 171.5283 6.656189 3.125
      vertex 6.656189 6.656189 3.125
    endloop
  endfacet
  facet normal 0 0 -1
    outer loop
      vertex 171.5283 24.65619 3.125
      vertex 226.4857 24.65619 3.125
      vertex 226.4857 6.656189 3.125
    endloop
  endfacet
  facet normal 0 0 -1
    outer loop
      vertex 171.5283 24.65619 3.125
      vertex 226.4857 6.656189 3.125
      vertex 171.5283 6.656189 3.125
    endloop
  endfacet
  facet normal -0.03591376 0 0.9993549
    outer loop
      vertex 6.656189 24.65619 5.925
      vertex 171.5283 6.656189 11.85
      vertex 171.5283 24.65619 11.85
    endloop
  endfacet
  facet normal -0.03591376 0 0.9993549
    outer loop
      vertex 6.656189 24.65619 5.925
      vertex 6.656189 6.656189 5.925
      vertex 171.5283 6.656189 11.85
    endloop
  endfacet
  facet normal -0 0 1
    outer loop
      vertex 171.5283 24.65619 11.85
      vertex 226.4857 6.656189 11.85
      vertex 226.4857 24.65619 11.85
    endloop
  endfacet
  facet normal 0 0 1
    outer loop
      vertex 171.5283 24.65619 11.85
      vertex 171.5283 6.656189 11.85
      vertex 226.4857 6.656189 11.85
    endloop
  endfacet
  facet normal 0 1 0
    outer loop
      vertex 6.656189 24.65619 3.125
      vertex 171.5283 24.65619 11.85
      vertex 171.5283 24.65619 3.125
    endloop
  endfacet
  facet normal 0 1 0
    outer loop
      vertex 6.656189 24.65619 3.125
      vertex 6.656189 24.65619 5.925
      vertex 171.5283 24.65619 11.85
    endloop
  endfacet
  facet normal 0 1 0
    outer loop
      vertex 171.5283 24.65619 3.125
      vertex 226.4857 24.65619 11.85
      vertex 226.4857 24.65619 3.125
    endloop
  endfacet
  facet normal 0 1 0
    outer loop
      vertex 171.5283 24.65619 3.125
      vertex 171.5283 24.65619 11.85
      vertex 226.4857 24.65619 11.85
    endloop
  endfacet
  facet normal 0 -1 0
    outer loop
      vertex 6.656189 6.656189 3.125
      vertex 171.5283 6.656189 3.125
      vertex 171.5283 6.656189 11.85
    endloop
  endfacet
  facet normal 0 -1 0
    outer loop
      vertex 6.656189 6.656189 3.125
      vertex 171.5283 6.656189 11.85
      vertex 6.656189 6.656189 5.925
    endloop
  endfacet
  facet normal 0 -1 0
    outer loop
      vertex 171.5283 6.656189 3.125
      vertex 226.4857 6.656189 3.125
      vertex 226.4857 6.656189 11.85
    endloop
  endfacet
  facet normal 0 -1 0
    outer loop
      vertex 171.5283 6.656189 3.125
      vertex 226.4857 6.656189 11.85
      vertex 171.5283 6.656189 11.85
    endloop
  endfacet
  facet normal -1 0 0
    outer loop
      vertex 6.656189 6.656189 3.125
      vertex 6.656189 24.65619 5.925
      vertex 6.656189 24.65619 3.125
    endloop
  endfacet
  facet normal -1 0 0
    outer loop
      vertex 6.656189 6.656189 3.125
      vertex 6.656189 6.656189 5.925
      vertex 6.656189 24.65619 5.925
    endloop
  endfacet
  facet normal 1 0 0
    outer loop
      vertex 226.4857 24.65619 3.125
      vertex 226.4857 6.656189 11.85
      vertex 226.4857 6.656189 3.125
    endloop
  endfacet
  facet normal 1 0 -0
    outer loop
      vertex 226.4857 24.65619 3.125
      vertex 226.4857 24.65619 11.85
      vertex 226.4857 6.656189 11.85
    endloop
  endfacet
  facet normal -0 0 -1
    outer loop
      vertex 221.8295 29.31238 9.05
      vertex 63.94165 11.31238 9.05
      vertex 63.94165 29.31238 9.05
    endloop
  endfacet
  facet normal 0 -0 -1
    outer loop
      vertex 221.8295 29.31238 9.05
      vertex 221.8295 11.31238 9.05
      vertex 63.94165 11.31238 9.05
    endloop
  endfacet
  facet normal -0 0 -1
    outer loop
      vertex 63.94165 29.31238 9.05
      vertex 11.31238 11.31238 9.05
      vertex 11.31238 29.31238 9.05
    endloop
  endfacet
  facet normal 0 -0 -1
    outer loop
      vertex 63.94165 29.31238 9.05
      vertex 63.94165 11.31238 9.05
      vertex 11.31238 11.31238 9.05
    endloop
  endfacet
  facet normal 0.03750025 0 0.9992966
    outer loop
      vertex 221.8295 29.31238 11.85
      vertex 63.94165 29.31238 17.775
      vertex 63.94165 11.31238 17.775
    endloop
  endfacet
  facet normal 0.03750025 0 0.9992966
    outer loop
      vertex 221.8295 29.31238 11.85
      vertex 63.94165 11.31238 17.775
      vertex 221.8295 11.31238 11.85
    endloop
  endfacet
  facet normal 0 0 1
    outer loop
      vertex 63.94165 29.31238 17.775
      vertex 11.31238 29.31238 17.775
      vertex 11.31238 11.31238 17.775
    endloop
  endfacet
  facet normal 0 0 1
    outer loop
      vertex 63.94165 29.31238 17.775
      vertex 11.31238 11.31238 17.775
      vertex 63.94165 11.31238 17.775
    endloop
  endfacet
  facet normal 0 1 0
    outer loop
      vertex 221.8295 29.31238 9.05
      vertex 63.94165 29.31238 9.05
      vertex 63.94165 29.31238 17.775
    endloop
  endfacet
  facet normal 0 1 -0
    outer loop
      vertex 221.8295 29.31238 9.05
      vertex 63.94165 29.31238 17.775
      vertex 221.8295 29.31238 11.85
    endloop
  endfacet
  facet normal 0 1 0
    outer loop
      vertex 63.94165 29.31238 9.05
      vertex 11.31238 29.31238 9.05
      vertex 11.31238 29.31238 17.775
    endloop
  endfacet
  facet normal 0 1 -0
    outer loop
      vertex 63.94165 29.31238 9.05
      vertex 11.31238 29.31238 17.775
      vertex 63.94165 29.31238 17.775
    endloop
  endfacet
  facet normal 0 -1 0
    outer loop
      vertex 221.8295 11.31238 9.05
      vertex 63.94165 11.31238 17.775
      vertex 63.94165 11.31238 9.05
    endloop
  endfacet
  facet normal 0 -1 0
    outer loop
      vertex 221.8295 11.31238 9.05
      vertex 221.8295 11.31238 11.85
      vertex 63.94165 11.31238 17.775
    endloop
  endfacet
  facet normal 0 -1 0
    outer loop
      vertex 63.94165 11.31238 9.05
      vertex 11.31238 11.31238 17.775
      vertex 11.31238 11.31238 9.05
    endloop
  endfacet
  facet normal 0 -1 0
    outer loop
      vertex 63.94165 11.31238 9.05
      vertex 63.94165 11.31238 17.775
      vertex 11.31238 11.31238 17.775
    endloop
  endfacet
  facet normal 1 0 0
    outer loop
      vertex 221.8295 11.31238 9.05
      vertex 221.8295 29.31238 9.05
      vertex 221.8295 29.31238 11.85
    endloop
  endfacet
  facet normal 1 0 0
    outer loop
      vertex 221.8295 11.31238 9.05
      vertex 221.8295 29.31238 11.85
      vertex 221.8295 11.31238 11.85
    endloop
  endfacet
  facet normal -1 0 0
    outer loop
      vertex 11.31238 29.31238 9.05
      vertex 11.31238 11.31238 9.05
      vertex 11.31238 11.31238 17.775
    endloop
  endfacet
  facet normal -1 0 0
    outer loop
      vertex 11.31238 29.31238 9.05
      vertex 11.31238 11.31238 17.775
      vertex 11.31238 29.31238 17.775
    endloop
  endfacet
  facet normal 0 0 -1
    outer loop
      vertex 15.96857 33.96857 14.975
      vertex 166.8721 33.96857 14.975
      vertex 166.8721 15.96857 14.975
    endloop
  endfacet
  facet normal 0 0 -1
    outer loop
      vertex 15.96857 33.96857 14.975
      vertex 166.8721 15.96857 14.975
      vertex 15.96857 15.96857 14.975
    endloop
  endfacet
  facet normal 0 0 -1
    outer loop
      vertex 166.8721 33.96857 14.975
      vertex 217.1733 33.96857 14.975
      vertex 217.1733 15.96857 14.975
    endloop
  endfacet
  facet normal 0 0 -1
    outer loop
      vertex 166.8721 33.96857 14.975
      vertex 217.1733 15.96857 14.975
      vertex 166.8721 15.96857 14.975
    endloop
  endfacet
  facet normal -0.03923326 0 0.9992301
    outer loop
      vertex 15.96857 33.96857 17.775
      vertex 166.8721 15.96857 23.7
      vertex 166.8721 33.96857 23.7
    endloop
  endfacet
  facet normal -0.03923326 0 0.9992301
    outer loop
      vertex 15.96857 33.96857 17.775
      vertex 15.96857 15.96857 17.775
      vertex 166.8721 15.96857 23.7
    endloop
  endfacet
  facet normal -0 0 1
    outer loop
      vertex 166.8721 33.96857 23.7
      vertex 217.1733 15.96857 23.7
      vertex 217.1733 33.96857 23.7
    endloop
  endfacet
  facet normal 0 0 1
    outer loop
      vertex 166.8721 33.96857 23.7
      vertex 166.8721 15.96857 23.7
      vertex 217.1733 15.96857 23.7
    endloop
  endfacet
  facet normal 0 1 0
    outer loop
      vertex 15.96857 33.96857 14.975
      vertex 166.8721 33.96857 23.7
      vertex 166.8721 33.96857 14.975
    endloop
  endfacet
  facet normal 0 1 0
    outer loop
      vertex 15.96857 33.96857 14.975
      vertex 15.96857 33.96857 17.775
      vertex 166.8721 33.96857 23.7
    endloop
  endfacet
  facet normal 0 1 0
    outer loop
      vertex 166.8721 33.96857 14.975
      vertex 217.1733 33.96857 23.7
      vertex 217.1733 33.96857 14.975
    endloop
  endfacet
  facet normal 0 1 0
    outer loop
      vertex 166.8721 33.96857 14.975
      vertex 166.8721 33.96857 23.7
      vertex 217.1733 33.96857 23.7
    endloop
  endfacet
  facet normal 0 -1 0
    outer loop
      vertex 15.96857 15.96857 14.975
      vertex 166.8721 15.96857 14.975
      vertex 166.8721 15.96857 23.7
    endloop
  endfacet
  facet normal 0 -1 0
    outer loop
      vertex 15.96857 15.96857 14.975
      vertex 166.8721 15.96857 23.7
      vertex 15.96857 15.96857 17.775
    endloop
  endfacet
  facet normal 0 -1 0
    outer loop
      vertex 166.8721 15.96857 14.975
      vertex 217.1733 15.96857 14.975
      vertex 217.1733 15.96857 23.7
    endloop
  endfacet
  facet normal 0 -1 0
    outer loop
      vertex 166.8721 15.96857 14.975
      vertex 217.1733 15.96857 23.7
      vertex 166.8721 15.96857 23.7
    endloop
  endfacet
  facet normal -1 0 0
    outer loop
      vertex 15.96857 15.96857 14.975
      vertex 15.96857 33.96857 17.775
      vertex 15.96857 33.96857 14.975
    endloop
  endfacet
  facet normal -1 0 0
    outer loop
      vertex 15.96857 15.96857 14.975
      vertex 15.96857 15.96857 17.775
      vertex 15.96857 33.96857 17.775
    endloop
  endfacet
  facet normal 1 0 0
    outer loop
      vertex 217.1733 33.96857 14.975
      vertex 217.1733 15.96857 23.7
      vertex 217.1733 15.96857 14.975
    endloop
  endfacet
  facet normal 1 0 -0
    outer loop
      vertex 217.1733 33.96857 14.975
      vertex 217.1733 33.96857 23.7
      vertex 217.1733 15.96857 23.7
    endloop
  endfacet
  facet normal -0 0 -1
    outer loop
      vertex 212.5171 38.62475 20.9
      vertex 68.59784 20.62475 20.9
      vertex 68.59784 38.62475 20.9
    endloop
  endfacet
  facet normal 0 -0 -1
    outer loop
      vertex 212.5171 38.62475 20.9
      vertex 212.5171 20.62475 20.9
      vertex 68.59784 20.62475 20.9
    endloop
  endfacet
  facet normal -0 0 -1
    outer loop
      vertex 68.59784 38.62475 20.9
      vertex 20.62475 20.62475 20.9
      vertex 20.62475 38.62475 20.9
    endloop
  endfacet
  facet normal 0 -0 -1
    outer loop
      vertex 68.59784 38.62475 20.9
      vertex 68.59784 20.62475 20.9
      vertex 20.62475 20.62475 20.9
    endloop
  endfacet
  facet normal 0.04113407 0 0.9991536
    outer loop
      vertex 212.5171 38.62475 23.7
      vertex 68.59784 38.62475 29.625
      vertex 68.59784 20.62475 29.625
    endloop
  endfacet
  facet normal 0.04113407 0 0.9991536
    outer loop
      vertex 212.5171 38.62475 23.7
      vertex 68.59784 20.62475 29.625
      vertex 212.5171 20.62475 23.7
    endloop
  endfacet
  facet normal 0 0 1
    outer loop
      vertex 68.59784 38.62475 29.625
      vertex 20.62475 38.62475 29.625
      vertex 20.62475 20.62475 29.625
    endloop
  endfacet
  facet normal 0 0 1
    outer loop
      vertex 68.59784 38.62475 29.625
      vertex 20.62475 20.62475 29.625
      vertex 68.59784 20.62475 29.625
    endloop
  endfacet
  facet normal 0 1 0
    outer loop
      vertex 212.5171 38.62475 20.9
      vertex 68.59784 38.62475 20.9
      vertex 68.59784 38.62475 29.625
    endloop
  endfacet
  facet normal 0 1 -0
    outer loop
      vertex 212.5171 38.62475 20.9
      vertex 68.59784 38.62475 29.625
      vertex 212.5171 38.62475 23.7
    endloop
  endfacet
  facet normal 0 1 0
    outer loop
      vertex 68.59784 38.62475 20.9
      vertex 20.62475 38.62475 20.9
      vertex 20.62475 38.62475 29.625
    endloop
  endfacet
  facet normal 0 1 -0
    outer loop
      vertex 68.59784 38.62475 20.9
      vertex 20.62475 38.62475 29.625
      vertex 68.59784 38.62475 29.625
    endloop
  endfacet
  facet normal 0 -1 0
    outer loop
      vertex 212.5171 20.62475 20.9
      vertex 68.59784 20.62475 29.625
      vertex 68.59784 20.62475 20.9
    endloop
  endfacet
  facet normal 0 -1 0
    outer loop
      vertex 212.5171 20.62475 20.9
      vertex 212.5171 20.62475 23.7
      vertex 68.59784 20.62475 29.625
    endloop
  endfacet
  facet normal 0 -1 0
    outer loop
      vertex 68.59784 20.62475 20.9
      vertex 20.62475 20.62475 29.625
      vertex 20.62475 20.62475 20.9
    endloop
  endfacet
  facet normal 0 -1 0
    outer loop
      vertex 68.59784 20.62475 20.9
      vertex 68.59784 20.62475 29.625
      vertex 20.62475 20.62475 29.625
    endloop
  endfacet
  facet normal 1 0 0
    outer loop
      vertex 212.5171 20.62475 20.9
      vertex 212.5171 38.62475 20.9
      vertex 212.5171 38.62475 23.7
    endloop
  endfacet
  facet normal 1 0 0
    outer loop
      vertex 212.5171 20.62475 20.9
      vertex 212.5171 38.62475 23.7
      vertex 212.5171 20.62475 23.7
    endloop
  endfacet
  facet normal -1 0 0
    outer loop
      vertex 20.62475 38.62475 20.9
      vertex 20.62475 20.62475 20.9
      vertex 20.62475 20.62475 29.625
    endloop
  endfacet
  facet normal -1 0 0
    outer loop
      vertex 20.62475 38.62475 20.9
      vertex 20.62475 20.62475 29.625
      vertex 20.62475 38.62475 29.625
    endloop
  endfacet
  facet normal 0 0 -1
    outer loop
      vertex 25.28094 43.28094 26.825
      vertex 162.2159 43.28094 26.825
      vertex 162.2159 25.28094 26.825
    endloop
  endfacet
  facet normal 0 0 -1
    outer loop
      vertex 25.28094 43.28094 26.825
      vertex 162.2159 25.28094 26.825
      vertex 25.28094 25.28094 26.825
    endloop
  endfacet
  facet normal 0 0 -1
    outer loop
      vertex 162.2159 43.28094 26.825
      vertex 207.8609 43.28094 26.825
      vertex 207.8609 25.28094 26.825
    endloop
  endfacet
  facet normal 0 0 -1
    outer loop
      vertex 162.2159 43.28094 26.825
      vertex 207.8609 25.28094 26.825
      vertex 162.2159 25.28094 26.825
    endloop
  endfacet
  facet normal -0.04322827 0 0.9990652
    outer loop
      vertex 25.28094 43.28094 29.625
      vertex 162.2159 25.28094 35.55
      vertex 162.2159 43.28094 35.55
    endloop
  endfacet
  facet normal -0.04322827 0 0.9990652
    outer loop
      vertex 25.28094 43.28094 29.625
      vertex 25.28094 25.28094 29.625
      vertex 162.2159 25.28094 35.55
    endloop
  endfacet
  facet normal -0 0 1
    outer loop
      vertex 162.2159 43.28094 35.55
      vertex 207.8609 25.28094 35.55
      vertex 207.8609 43.28094 35.55
    endloop
  endfacet
  facet normal 0 0 1
    outer loop
      vertex 162.2159 43.28094 35.55
      vertex 162.2159 25.28094 35.55
      vertex 207.8609 25.28094 35.55
    endloop
  endfacet
  facet normal 0 1 0
    outer loop
      vertex 25.28094 43.28094 26.825
      vertex 162.2159 43.28094 35.55
      vertex 162.2159 43.28094 26.825
    endloop
  endfacet
  facet normal 0 1 0
    outer loop
      vertex 25.28094 43.28094 26.825
      vertex 25.28094 43.28094 29.625
      vertex 162.2159 43.28094 35.55
    endloop
  endfacet
  facet normal 0 1 0
    outer loop
      vertex 162.2159 43.28094 26.825
      vertex 207.8609 43.28094 35.55
      vertex 207.8609 43.28094 26.825
    endloop
  endfacet
  facet normal 0 1 0
    outer loop
      vertex 162.2159 43.28094 26.825
      vertex 162.2159 43.28094 35.55
      vertex 207.8609 43.28094 35.55
    endloop
  endfacet
  facet normal 0 -1 0
    outer loop
      vertex 25.28094 25.28094 26.825
      vertex 162.2159 25.28094 26.825
      vertex 162.2159 25.28094 35.55
    endloop
  endfacet
  facet normal 0 -1 0
    outer loop
      vertex 25.28094 25.28094 26.825
      vertex 162.2159 25.28094 35.55
      vertex 25.28094 25.28094 29.625
    endloop
  endfacet
  facet normal 0 -1 0
    outer loop
      vertex 162.2159 25.28094 26.825
      vertex 207.8609 25.28094 26.825
      vertex 207.8609 25.28094 35.55
    endloop
  endfacet
  facet normal 0 -1 0
    outer loop
      vertex 162.2159 25.28094 26.825
      vertex 207.8609 25.28094 35.55
      vertex 162.2159 25.28094 35.55
    endloop
  endfacet
  facet normal -1 0 0
    outer loop
      vertex 25.28094 25.28094 26.825
      vertex 25.28094 43.28094 29.625
      vertex 25.28094 43.28094 26.825
    endloop
  endfacet
  facet normal -1 0 0
    outer loop
      vertex 25.28094 25.28094 26.825
      vertex 25.28094 25.28094 29.625
      vertex 25.28094 43.28094 29.625
    endloop
  endfacet
  facet normal 1 0 0
    outer loop
      vertex 207.8609 43.28094 26.825
      vertex 207.8609 25.28094 35.55
      vertex 207.8609 25.28094 26.825
    endloop
  endfacet
  facet normal 1 0 -0
    outer loop
      vertex 207.8609 43.28094 26.825
      vertex 207.8609 43.28094 35.55
      vertex 207.8609 25.28094 35.55
    endloop
  endfacet
  facet normal -0 0 -1
    outer loop
      vertex 203.2047 47.93713 32.75
      vertex 73.25403 29.93713 32.75
      vertex 73.25403 47.93713 32.75
    endloop
  endfacet
  facet normal 0 -0 -1
    outer loop
      vertex 203.2047 47.93713 32.75
      vertex 203.2047 29.93713 32.75
      vertex 73.25403 29.93713 32.75
    endloop
  endfacet
  facet normal -0 0 -1
    outer loop
      vertex 73.25403 47.93713 32.75
      vertex 29.93713 29.93713 32.75
      vertex 29.93713 47.93713 32.75
    endloop
  endfacet
  facet normal 0 -0 -1
    outer loop
      vertex 73.25403 47.93713 32.75
      vertex 73.25403 29.93713 32.75
      vertex 29.93713 29.93713 32.75
    endloop
  endfacet
  facet normal 0.0455469 0 0.9989622
    outer loop
      vertex 203.2047 47.93713 35.55
      vertex 73.25403 47.93713 41.475
      vertex 73.25403 29.93713 41.475
    endloop
  endfacet
  facet normal 0.0455469 0 0.9989622
    outer loop
      vertex 203.2047 47.93713 35.55
      vertex 73.25403 29.93713 41.475
      vertex 203.2047 29.93713 35.55
    endloop
  endfacet
  facet normal 0 0 1
    outer loop
      vertex 73.25403 47.93713 41.475
      vertex 29.93713 47.93713 41.475
      vertex 29.93713 29.93713 41.475
    endloop
  endfacet
  facet normal 0 0 1
    outer loop
      vertex 73.25403 47.93713 41.475
      vertex 29.93713 29.93713 41.475
      vertex 73.25403 29.93713 41.475
    endloop
  endfacet
  facet normal 0 1 0
    outer loop
      vertex 203.2047 47.93713 32.75
      vertex 73.25403 47.93713 32.75
      vertex 73.25403 47.93713 41.475
    endloop
  endfacet
  facet normal 0 1 -0
    outer loop
      vertex 203.2047 47.93713 32.75
      vertex 73.25403 47.93713 41.475
      vertex 203.2047 47.93713 35.55
    endloop
  endfacet
  facet normal 0 1 0
    outer loop
      vertex 73.25403 47.93713 32.75
      vertex 29.93713 47.93713 32.75
      vertex 29.93713 47.93713 41.475
    endloop
  endfacet
  facet normal 0 1 -0
    outer loop
      vertex 73.25403 47.93713 32.75
      vertex 29.93713 47.93713 41.475
      vertex 73.25403 47.93713 41.475
    endloop
  endfacet
  facet normal 0 -1 0
    outer loop
      vertex 203.2047 29.93713 32.75
      vertex 73.25403 29.93713 41.475
      vertex 73.25403 29.93713 32.75
    endloop
  endfacet
  facet normal 0 -1 0
    outer loop
      vertex 203.2047 29.93713 32.75
      vertex 203.2047 29.93713 35.55
      vertex 73.25403 29.93713 41.475
    endloop
  endfacet
  facet normal 0 -1 0
    outer loop
      vertex 73.25403 29.93713 32.75
      vertex 29.93713 29.93713 41.475
      vertex 29.93713 29.93713 32.75
    endloop
  endfacet
  facet normal 0 -1 0
    outer loop
      vertex 73.25403 29.93713 32.75
      vertex 73.25403 29.93713 41.475
      vertex 29.93713 29.93713 41.475
    endloop
  endfacet
  facet normal 1 0 0
    outer loop
      vertex 203.2047 29.93713 32.75
      vertex 203.2047 47.93713 32.75
      vertex 203.2047 47.93713 35.55
    endloop
  endfacet
  facet normal 1 0 0
    outer loop
      vertex 203.2047 29.93713 32.75
      vertex 203.2047 47.93713 35.55
      vertex 203.2047 29.93713 35.55
    endloop
  endfacet
  facet normal -1 0 0
    outer loop
      vertex 29.93713 47.93713 32.75
      vertex 29.93713 29.93713 32.75
      vertex 29.93713 29.93713 41.475
    endloop
  endfacet
  facet normal -1 0 0
    outer loop
      vertex 29.93713 47.93713 32.75
      vertex 29.93713 29.93713 41.475
      vertex 29.93713 47.93713 41.475
    endloop
  endfacet
  facet normal 0 0 -1
    outer loop
      vertex 34.59332 52.59332 38.675
      vertex 157.5597 52.59332 38.675
      vertex 157.5597 34.59332 38.675
    endloop
  endfacet
  facet normal 0 0 -1
    outer loop
      vertex 34.59332 52.59332 38.675
      vertex 157.5597 34.59332 38.675
      vertex 34.59332 34.59332 38.675
    endloop
  endfacet
  facet normal 0 0 -1
    outer loop
      vertex 157.5597 52.59332 38.675
      vertex 198.5485 52.59332 38.675
      vertex 198.5485 34.59332 38.675
    endloop
  endfacet
  facet normal 0 0 -1
    outer loop
      vertex 157.5597 52.59332 38.675
      vertex 198.5485 34.59332 38.675
      vertex 157.5597 34.59332 38.675
    endloop
  endfacet
  facet normal -0.04812806 0 0.9988412
    outer loop
      vertex 34.59332 52.59332 41.475
      vertex 157.5597 34.59332 47.4
      vertex 157.5597 52.59332 47.4
    endloop
  endfacet
  facet normal -0.04812806 0 0.9988412
    outer loop
      vertex 34.59332 52.59332 41.475
      vertex 34.59332 34.59332 41.475
      vertex 157.5597 34.59332 47.4
    endloop
  endfacet
  facet normal -0 0 1
    outer loop
      vertex 157.5597 52.59332 47.4
      vertex 198.5485 34.59332 47.4
      vertex 198.5485 52.59332 47.4
    endloop
  endfacet
  facet normal 0 0 1
    outer loop
      vertex 157.5597 52.59332 47.4
      vertex 157.5597 34.59332 47.4
      vertex 198.5485 34.59332 47.4
    endloop
  endfacet
  facet normal 0 1 0
    outer loop
      vertex 34.59332 52.59332 38.675
      vertex 157.5597 52.59332 47.4
      vertex 157.5597 52.59332 38.675
    endloop
  endfacet
  facet normal 0 1 0
    outer loop
      vertex 34.59332 52.59332 38.675
      vertex 34.59332 52.59332 41.475
      vertex 157.5597 52.59332 47.4
    endloop
  endfacet
  facet normal 0 1 0
    outer loop
      vertex 157.5597 52.59332 38.675
      vertex 198.5485 52.59332 47.4
      vertex 198.5485 52.59332 38.675
    endloop
  endfacet
  facet normal 0 1 0
    outer loop
      vertex 157.5597 52.59332 38.675
      vertex 157.5597 52.59332 47.4
      vertex 198.5485 52.59332 47.4
    endloop
  endfacet
  facet normal 0 -1 0
    outer loop
      vertex 34.59332 34.59332 38.675
      vertex 157.5597 34.59332 38.675
      vertex 157.5597 34.59332 47.4
    endloop
  endfacet
  facet normal 0 -1 0
    outer loop
      vertex 34.59332 34.59332 38.675
      vertex 157.5597 34.59332 47.4
      vertex 34.59332 34.59332 41.475
    endloop
  endfacet
  facet normal 0 -1 0
    outer loop
      vertex 157.5597 34.59332 38.675
      vertex 198.5485 34.59332 38.675
      vertex 198.5485 34.59332 47.4
    endloop
  endfacet
  facet normal 0 -1 0
    outer loop
      vertex 157.5597 34.59332 38.675
      vertex 198.5485 34.59332 47.4
      vertex 157.5597 34.59332 47.4
    endloop
  endfacet
  facet normal -1 0 0
    outer loop
      vertex 34.59332 34.59332 38.675
      vertex 34.59332 52.59332 41.475
      vertex 34.59332 52.59332 38.675
    endloop
  endfacet
  facet normal -1 0 0
    outer loop
      vertex 34.59332 34.59332 38.675
      vertex 34.59332 34.59332 41.475
      vertex 34.59332 52.59332 41.475
    endloop
  endfacet
  facet normal 1 0 0
    outer loop
      vertex 198.5485 52.59332 38.675
      vertex 198.5485 34.59332 47.4
      vertex 198.5485 34.59332 38.675
    endloop
  endfacet
  facet normal 1 0 -0
    outer loop
      vertex 198.5485 52.59332 38.675
      vertex 198.5485 52.59332 47.4
      vertex 198.5485 34.59332 47.4
    endloop
  endfacet
  facet normal -0 0 -1
    outer loop
      vertex 193.8923 57.24951 44.6
      vertex 77.91022 39.24951 44.6
      vertex 77.91022 57.24951 44.6
    endloop
  endfacet
  facet normal 0 -0 -1
    outer loop
      vertex 193.8923 57.24951 44.6
      vertex 193.8923 39.24951 44.6
      vertex 77.91022 39.24951 44.6
    endloop
  endfacet
  facet normal -0 0 -1
    outer loop
      vertex 77.91022 57.24951 44.6
      vertex 39.24951 39.24951 44.6
      vertex 39.24951 57.24951 44.6
    endloop
  endfacet
  facet normal 0 -0 -1
    outer loop
      vertex 77.91022 57.24951 44.6
      vertex 77.91022 39.24951 44.6
      vertex 39.24951 39.24951 44.6
    endloop
  endfacet
  facet normal 0.05101893 0 0.9986977
    outer loop
      vertex 193.8923 57.24951 47.4
      vertex 77.91022 57.24951 53.325
      vertex 77.91022 39.24951 53.325
    endloop
  endfacet
  facet normal 0.05101893 0 0.9986977
    outer loop
      vertex 193.8923 57.24951 47.4
      vertex 77.91022 39.24951 53.325
      vertex 193.8923 39.24951 47.4
    endloop
  endfacet
  facet normal 0 0 1
    outer loop
      vertex 77.91022 57.24951 53.325
      vertex 39.24951 57.24951 53.325
      vertex 39.24951 39.24951 53.325
    endloop
  endfacet
  facet normal 0 0 1
    outer loop
      vertex 77.91022 57.24951 53.325
      vertex 39.24951 39.24951 53.325
      vertex 77.91022 39.24951 53.325
    endloop
  endfacet
  facet normal 0 1 0
    outer loop
      vertex 193.8923 57.24951 44.6
      vertex 77.91022 57.24951 44.6
      vertex 77.91022 57.24951 53.325
    endloop
  endfacet
  facet normal 0 1 -0
    outer loop
      vertex 193.8923 57.24951 44.6
      vertex 77.91022 57.24951 53.325
      vertex 193.8923 57.24951 47.4
    endloop
  endfacet
  facet normal 0 1 0
    outer loop
      vertex 77.91022 57.24951 44.6
      vertex 39.24951 57.24951 44.6
      vertex 39.24951 57.24951 53.325
    endloop
  endfacet
  facet normal 0 1 -0
    outer loop
      vertex 77.91022 57.24951 44.6
      vertex 39.24951 57.24951 53.325
      vertex 77.91022 57.24951 53.325
    endloop
  endfacet
  facet normal 0 -1 0
    outer loop
      vertex 193.8923 39.24951 44.6
      vertex 77.91022 39.24951 53.325
      vertex 77.91022 39.24951 44.6
    endloop
  endfacet
  facet normal 0 -1 0
    outer loop
      vertex 193.8923 39.24951 44.6
      vertex 193.8923 39.24951 47.4
      vertex 77.91022 39.24951 53.325
    endloop
  endfacet
  facet normal 0 -1 0
    outer loop
      vertex 77.91022 39.24951 44.6
      vertex 39.24951 39.24951 53.325
      vertex 39.24951 39.24951 44.6
    endloop
  endfacet
  facet normal 0 -1 0
    outer loop
      vertex 77.91022 39.24951 44.6
      vertex 77.91022 39.24951 53.325
      vertex 39.24951 39.24951 53.325
    endloop
  endfacet
  facet normal 1 0 0
    outer loop
      vertex 193.8923 39.24951 44.6
      vertex 193.8923 57.24951 44.6
      vertex 193.8923 57.24951 47.4
    endloop
  endfacet
  facet normal 1 0 0
    outer loop
      vertex 193.8923 39.24951 44.6
      vertex 193.8923 57.24951 47.4
      vertex 193.8923 39.24951 47.4
    endloop
  endfacet
  facet normal -1 0 0
    outer loop
      vertex 39.24951 57.24951 44.6
      vertex 39.24951 39.24951 44.6
      vertex 39.24951 39.24951 53.325
    endloop
  endfacet
  facet normal -1 0 0
    outer loop
      vertex 39.24951 57.24951 44.6
      vertex 39.24951 39.24951 53.325
      vertex 39.24951 57.24951 53.325
    endloop
  endfacet
  facet normal 0 0 -1
    outer loop
      vertex 43.9057 61.9057 50.525
      vertex 152.9035 61.9057 50.525
      vertex 152.9035 43.9057 50.525
    endloop
  endfacet
  facet normal 0 0 -1
    outer loop
      vertex 43.9057 61.9057 50.525
      vertex 152.9035 43.9057 50.525
      vertex 43.9057 43.9057 50.525
    endloop
  endfacet
  facet normal 0 0 -1
    outer loop
      vertex 152.9035 61.9057 50.525
      vertex 189.2361 61.9057 50.525
      vertex 189.2361 43.9057 50.525
    endloop
  endfacet
  facet normal 0 0 -1
    outer loop
      vertex 152.9035 61.9057 50.525
      vertex 189.2361 43.9057 50.525
      vertex 152.9035 43.9057 50.525
    endloop
  endfacet
  facet normal -0.05427874 0 0.9985258
    outer loop
      vertex 43.9057 61.9057 53.325
      vertex 152.9035 43.9057 59.25
      vertex 152.9035 61.9057 59.25
    endloop
  endfacet
  facet normal -0.05427874 0 0.9985258
    outer loop
      vertex 43.9057 61.9057 53.325
      vertex 43.9057 43.9057 53.325
      vertex 152.9035 43.9057 59.25
    endloop
  endfacet
  facet normal -0 0 1
    outer loop
      vertex 152.9035 61.9057 59.25
      vertex 189.2361 43.9057 59.25
      vertex 189.2361 61.9057 59.25
    endloop
  endfacet
  facet normal 0 0 1
    outer loop
      vertex 152.9035 61.9057 59.25
      vertex 152.9035 43.9057 59.25
      vertex 189.2361 43.9057 59.25
    endloop
  endfacet
  facet normal 0 1 0
    outer loop
      vertex 43.9057 61.9057 50.525
      vertex 152.9035 61.9057 59.25
      vertex 152.9035 61.9057 50.525
    endloop
  endfacet
  facet normal 0 1 0
    outer loop
      vertex 43.9057 61.9057 50.525
      vertex 43.9057 61.9057 53.325
      vertex 152.9035 61.9057 59.25
    endloop
  endfacet
  facet normal 0 1 0
    outer loop
      vertex 152.9035 61.9057 50.525
      vertex 189.2361 61.9057 59.25
      vertex 189.2361 61.9057 50.525
    endloop
  endfacet
  facet normal 0 1 0
    outer loop
      vertex 152.9035 61.9057 50.525
      vertex 152.9035 61.9057 59.25
      vertex 189.2361 61.9057 59.25
    endloop
  endfacet
  facet normal 0 -1 0
    outer loop
      vertex 43.9057 43.9057 50.525
      vertex 152.9035 43.9057 50.525
      vertex 152.9035 43.9057 59.25
    endloop
  endfacet
  facet normal 0 -1 0
    outer loop
      vertex 43.9057 43.9057 50.525
      vertex 152.9035 43.9057 59.25
      vertex 43.9057 43.9057 53.325
    endloop
  endfacet
  facet normal 0 -1 0
    outer loop
      vertex 152.9035 43.9057 50.525
      vertex 189.2361 43.9057 50.525
      vertex 189.2361 43.9057 59.25
    endloop
  endfacet
  facet normal 0 -1 0
    outer loop
      vertex 152.9035 43.9057 50.525
      vertex 189.2361 43.9057 59.25
      vertex 152.9035 43.9057 59.25
    endloop
  endfacet
  facet normal -1 0 0
    outer loop
      vertex 43.9057 43.9057 50.525
      vertex 43.9057 61.9057 53.325
      vertex 43.9057 61.9057 50.525
    endloop
  endfacet
  facet normal -1 0 0
    outer loop
      vertex 43.9057 43.9057 50.525
      vertex 43.9057 43.9057 53.325
      vertex 43.9057 61.9057 53.325
    endloop
  endfacet
  facet normal 1 0 0
    outer loop
      vertex 189.2361 61.9057 50.525
      vertex 189.2361 43.9057 59.25
      vertex 189.2361 43.9057 50.525
    endloop
  endfacet
  facet normal 1 0 -0
    outer loop
      vertex 189.2361 61.9057 50.525
      vertex 189.2361 61.9057 59.25
      vertex 189.2361 43.9057 59.25
    endloop
  endfacet
  facet normal -0 0 -1
    outer loop
      vertex 184.58 66.56189 56.45
      vertex 82.5664 48.56189 56.45
      vertex 82.5664 66.56189 56.45
    endloop
  endfacet
  facet normal 0 -0 -1
    outer loop
      vertex 184.58 66.56189 56.45
      vertex 184.58 48.56189 56.45
      vertex 82.5664 48.56189 56.45
    endloop
  endfacet
  facet normal -0 0 -1
    outer loop
      vertex 82.5664 66.56189 56.45
      vertex 48.56189 48.56189 56.45
      vertex 48.56189 66.56189 56.45
    endloop
  endfacet
  facet normal 0 -0 -1
    outer loop
      vertex 82.5664 66.56189 56.45
      vertex 82.5664 48.56189 56.45
      vertex 48.56189 48.56189 56.45
    endloop
  endfacet
  facet normal 0.0579828 0 0.9983176
    outer loop
      vertex 184.58 66.56189 59.25
      vertex 82.5664 66.56189 65.175
      vertex 82.5664 48.56189 65.175
    endloop
  endfacet
  facet normal 0.0579828 0 0.9983176
    outer loop
      vertex 184.58 66.56189 59.25
      vertex 82.5664 48.56189 65.175
      vertex 184.58 48.56189 59.25
    endloop
  endfacet
  facet normal 0 0 1
    outer loop
      vertex 82.5664 66.56189 65.175
      vertex 48.56189 66.56189 65.175
      vertex 48.56189 48.56189 65.175
    endloop
  endfacet
  facet normal 0 0 1
    outer loop
      vertex 82.5664 66.56189 65.175
      vertex 48.56189 48.56189 65.175
      vertex 82.5664 48.56189 65.175
    endloop
  endfacet
  facet normal 0 1 0
    outer loop
      vertex 184.58 66.56189 56.45
      vertex 82.5664 66.56189 56.45
      vertex 82.5664 66.56189 65.175
    endloop
  endfacet
  facet normal 0 1 -0
    outer loop
      vertex 184.58 66.56189 56.45
      vertex 82.5664 66.56189 65.175
      vertex 184.58 66.56189 59.25
    endloop
  endfacet
  facet normal 0 1 0
    outer loop
      vertex 82.5664 66.56189 56.45
      vertex 48.56189 66.56189 56.45
      vertex 48.56189 66.56189 65.175
    endloop
  endfacet
  facet normal 0 1 -0
    outer loop
      vertex 82.5664 66.56189 56.45
      vertex 48.56189 66.56189 65.175
      vertex 82.5664 66.56189 65.175
    endloop
  endfacet
  facet normal 0 -1 0
    outer loop
      vertex 184.58 48.56189 56.45
      vertex 82.5664 48.56189 65.175
      vertex 82.5664 48.56189 56.45
    endloop
  endfacet
  facet normal 0 -1 0
    outer loop
      vertex 184.58 48.56189 56.45
      vertex 184.58 48.56189 59.25
      vertex 82.5664 48.56189 65.175
    endloop
  endfacet
  facet normal 0 -1 0
    outer loop
      vertex 82.5664 48.56189 56.45
      vertex 48.56189 48.56189 65.175
      vertex 48.56189 48.56189 56.45
    endloop
  endfacet
  facet normal 0 -1 0
    outer loop
      vertex 82.5664 48.56189 56.45
      vertex 82.5664 48.56189 65.175
      vertex 48.56189 48.56189 65.175
    endloop
  endfacet
  facet normal 1 0 0
    outer loop
      vertex 184.58 48.56189 56.45
      vertex 184.58 66.56189 56.45
      vertex 184.58 66.56189 59.25
    endloop
  endfacet
  facet normal 1 0 0
    outer loop
      vertex 184.58 48.56189 56.45
      vertex 184.58 66.56189 59.25
      vertex 184.58 48.56189 59.25
    endloop
  endfacet
  facet normal -1 0 0
    outer loop
      vertex 48.56189 66.56189 56.45
      vertex 48.56189 48.56189 56.45
      vertex 48.56189 48.56189 65.175
    endloop
  endfacet
  facet normal -1 0 0
    outer loop
      vertex 48.56189 66.56189 56.45
      vertex 48.56189 48.56189 65.175
      vertex 48.56189 66.56189 65.175
    endloop
  endfacet
  facet normal 0 0 -1
    outer loop
      vertex 53.21807 71.21807 62.375
      vertex 148.2473 71.21807 62.375
      vertex 148.2473 53.21807 62.375
    endloop
  endfacet
  facet normal 0 0 -1
    outer loop
      vertex 53.21807 71.21807 62.375
      vertex 148.2473 53.21807 62.375
      vertex 53.21807 53.21807 62.375
    endloop
  endfacet
  facet normal 0 0 -1
    outer loop
      vertex 148.2473 71.21807 62.375
      vertex 179.9238 71.21807 62.375
      vertex 179.9238 53.21807 62.375
    endloop
  endfacet
  facet normal 0 0 -1
    outer loop
      vertex 148.2473 71.21807 62.375
      vertex 179.9238 53.21807 62.375
      vertex 148.2473 53.21807 62.375
    endloop
  endfacet
  facet normal -0.06222837 0 0.9980619
    outer loop
      vertex 53.21807 71.21807 65.175
      vertex 148.2473 53.21807 71.1
      vertex 148.2473 71.21807 71.1
    endloop
  endfacet
  facet normal -0.06222837 0 0.9980619
    outer loop
      vertex 53.21807 71.21807 65.175
      vertex 53.21807 53.21807 65.175
      vertex 148.2473 53.21807 71.1
    endloop
  endfacet
  facet normal -0 0 1
    outer loop
      vertex 148.2473 71.21807 71.1
      vertex 179.9238 53.21807 71.1
      vertex 179.9238 71.21807 71.1
    endloop
  endfacet
  facet normal 0 0 1
    outer loop
      vertex 148.2473 71.21807 71.1
      vertex 148.2473 53.21807 71.1
      vertex 179.9238 53.21807 71.1
    endloop
  endfacet
  facet normal 0 1 0
    outer loop
      vertex 53.21807 71.21807 62.375
      vertex 148.2473 71.21807 71.1
      vertex 148.2473 71.21807 62.375
    endloop
  endfacet
  facet normal 0 1 0
    outer loop
      vertex 53.21807 71.21807 62.375
      vertex 53.21807 71.21807 65.175
      vertex 148.2473 71.21807 71.1
    endloop
  endfacet
  facet normal 0 1 0
    outer loop
      vertex 148.2473 71.21807 62.375
      vertex 179.9238 71.21807 71.1
      vertex 179.9238 71.21807 62.375
    endloop
  endfacet
  facet normal 0 1 0
    outer loop
      vertex 148.2473 71.21807 62.375
      vertex 148.2473 71.21807 71.1
      vertex 179.9238 71.21807 71.1
    endloop
  endfacet
  facet normal 0 -1 0
    outer loop
      vertex 53.21807 53.21807 62.375
      vertex 148.2473 53.21807 62.375
      vertex 148.2473 53.21807 71.1
    endloop
  endfacet
  facet normal 0 -1 0
    outer loop
      vertex 53.21807 53.21807 62.375
      vertex 148.2473 53.21807 71.1
      vertex 53.21807 53.21807 65.175
    endloop
  endfacet
  facet normal 0 -1 0
    outer loop
      vertex 148.2473 53.21807 62.375
      vertex 179.9238 53.21807 62.375
      vertex 179.9238 53.21807 71.1
    endloop
  endfacet
  facet normal 0 -1 0
    outer loop
      vertex 148.2473 53.21807 62.375
      vertex 179.9238 53.21807 71.1
      vertex 148.2473 53.21807 71.1
    endloop
  endfacet
  facet normal -1 0 0
    outer loop
      vertex 53.21807 53.21807 62.375
      vertex 53.21807 71.21807 65.175
      vertex 53.21807 71.21807 62.375
    endloop
  endfacet
  facet normal -1 0 0
    outer loop
      vertex 53.21807 53.21807 62.375
      vertex 53.21807 53.21807 65.175
      vertex 53.21807 71.21807 65.175
    endloop
  endfacet
  facet normal 1 0 0
    outer loop
      vertex 179.9238 71.21807 62.375
      vertex 179.9238 53.21807 71.1
      vertex 179.9238 53.21807 62.375
    endloop
  endfacet
  facet normal 1 0 -0
    outer loop
      vertex 179.9238 71.21807 62.375
      vertex 179.9238 71.21807 71.1
      vertex 179.9238 53.21807 71.1
    endloop
  endfacet
  facet normal -0 0 -1
    outer loop
      vertex 175.2676 75.87426 68.3
      vertex 87.22259 57.87426 68.3
      vertex 87.22259 75.87426 68.3
    endloop
  endfacet
  facet normal 0 -0 -1
    outer loop
      vertex 175.2676 75.87426 68.3
      vertex 175.2676 57.87426 68.3
      vertex 87.22259 57.87426 68.3
    endloop
  endfacet
  facet normal -0 0 -1
    outer loop
      vertex 87.22259 75.87426 68.3
      vertex 57.87426 57.87426 68.3
      vertex 57.87426 75.87426 68.3
    endloop
  endfacet
  facet normal 0 -0 -1
    outer loop
      vertex 87.22259 75.87426 68.3
      vertex 87.22259 57.87426 68.3
      vertex 57.87426 57.87426 68.3
    endloop
  endfacet
  facet normal 0.06714328 0 0.9977433
    outer loop
      vertex 175.2676 75.87426 71.1
      vertex 87.22259 75.87426 77.025
      vertex 87.22259 57.87426 77.025
    endloop
  endfacet
  facet normal 0.06714328 0 0.9977433
    outer loop
      vertex 175.2676 75.87426 71.1
      vertex 87.22259 57.87426 77.025
      vertex 175.2676 57.87426 71.1
    endloop
  endfacet
  facet normal 0 0 1
    outer loop
      vertex 87.22259 75.87426 77.025
      vertex 57.87426 75.87426 77.025
      vertex 57.87426 57.87426 77.025
    endloop
  endfacet
  facet normal 0 0 1
    outer loop
      vertex 87.22259 75.87426 77.025
      vertex 57.87426 57.87426 77.025
      vertex 87.22259 57.87426 77.025
    endloop
  endfacet
  facet normal 0 1 0
    outer loop
      vertex 175.2676 75.87426 68.3
      vertex 87.22259 75.87426 68.3
      vertex 87.22259 75.87426 77.025
    endloop
  endfacet
  facet normal 0 1 -0
    outer loop
      vertex 175.2676 75.87426 68.3
      vertex 87.22259 75.87426 77.025
      vertex 175.2676 75.87426 71.1
    endloop
  endfacet
  facet normal 0 1 0
    outer loop
      vertex 87.22259 75.87426 68.3
      vertex 57.87426 75.87426 68.3
      vertex 57.87426 75.87426 77.025
    endloop
  endfacet
  facet normal 0 1 -0
    outer loop
      vertex 87.22259 75.87426 68.3
      vertex 57.87426 75.87426 77.025
      vertex 87.22259 75.87426 77.025
    endloop
  endfacet
  facet normal 0 -1 0
    outer loop
      vertex 175.2676 57.87426 68.3
      vertex 87.22259 57.87426 77.025
      vertex 87.22259 57.87426 68.3
    endloop
  endfacet
  facet normal 0 -1 0
    outer loop
      vertex 175.2676 57.87426 68.3
      vertex 175.2676 57.87426 71.1
      vertex 87.22259 57.87426 77.025
    endloop
  endfacet
  facet normal 0 -1 0
    outer loop
      vertex 87.22259 57.87426 68.3
      vertex 57.87426 57.87426 77.025
      vertex 57.87426 57.87426 68.3
    endloop
  endfacet
  facet normal 0 -1 0
    outer loop
      vertex 87.22259 57.87426 68.3
      vertex 87.22259 57.87426 77.025
      vertex 57.87426 57.87426 77.025
    endloop
  endfacet
  facet normal 1 0 0
    outer loop
      vertex 175.2676 57.87426 68.3
      vertex 175.2676 75.87426 68.3
      vertex 175.2676 75.87426 71.1
    endloop
  endfacet
  facet normal 1 0 0
    outer loop
      vertex 175.2676 57.87426 68.3
      vertex 175.2676 75.87426 71.1
      vertex 175.2676 57.87426 71.1
    endloop
  endfacet
  facet normal -1 0 0
    outer loop
      vertex 57.87426 75.87426 68.3
      vertex 57.87426 57.87426 68.3
      vertex 57.87426 57.87426 77.025
    endloop
  endfacet
  facet normal -1 0 0
    outer loop
      vertex 57.87426 75.87426 68.3
      vertex 57.87426 57.87426 77.025
      vertex 57.87426 75.87426 77.025
    endloop
  endfacet
  facet normal 0 0 -1
    outer loop
      vertex 62.53045 80.53045 74.225
      vertex 143.5912 80.53045 74.225
      vertex 143.5912 62.53045 74.225
    endloop
  endfacet
  facet normal 0 0 -1
    outer loop
      vertex 62.53045 80.53045 74.225
      vertex 143.5912 62.53045 74.225
      vertex 62.53045 62.53045 74.225
    endloop
  endfacet
  facet normal 0 0 -1
    outer loop
      vertex 143.5912 80.53045 74.225
      vertex 170.6114 80.53045 74.225
      vertex 170.6114 62.53045 74.225
    endloop
  endfacet
  facet normal 0 0 -1
    outer loop
      vertex 143.5912 80.53045 74.225
      vertex 170.6114 62.53045 74.225
      vertex 143.5912 62.53045 74.225
    endloop
  endfacet
  facet normal -0.07289889 0 0.9973393
    outer loop
      vertex 62.53045 80.53045 77.025
      vertex 143.5912 62.53045 82.95
      vertex 143.5912 80.53045 82.95
    endloop
  endfacet
  facet normal -0.07289889 0 0.9973393
    outer loop
      vertex 62.53045 80.53045 77.025
      vertex 62.53045 62.53045 77.025
      vertex 143.5912 62.53045 82.95
    endloop
  endfacet
  facet normal -0 0 1
    outer loop
      vertex 143.5912 80.53045 82.95
      vertex 170.6114 62.53045 82.95
      vertex 170.6114 80.53045 82.95
    endloop
  endfacet
  facet normal 0 0 1
    outer loop
      vertex 143.5912 80.53045 82.95
      vertex 143.5912 62.53045 82.95
      vertex 170.6114 62.53045 82.95
    endloop
  endfacet
  facet normal 0 1 0
    outer loop
      vertex 62.53045 80.53045 74.225
      vertex 143.5912 80.53045 82.95
      vertex 143.5912 80.53045 74.225
    endloop
  endfacet
  facet normal 0 1 0
    outer loop
      vertex 62.53045 80.53045 74.225
      vertex 62.53045 80.53045 77.025
      vertex 143.5912 80.53045 82.95
    endloop
  endfacet
  facet normal 0 1 0
    outer loop
      vertex 143.5912 80.53045 74.225
      vertex 170.6114 80.53045 82.95
      vertex 170.6114 80.53045 74.225
    endloop
  endfacet
  facet normal 0 1 0
    outer loop
      vertex 143.5912 80.53045 74.225
      vertex 143.5912 80.53045 82.95
      vertex 170.6114 80.53045 82.95
    endloop
  endfacet
  facet normal 0 -1 0
    outer loop
      vertex 62.53045 62.53045 74.225
      vertex 143.5912 62.53045 74.225
      vertex 143.5912 62.53045 82.95
    endloop
  endfacet
  facet normal 0 -1 0
    outer loop
      vertex 62.53045 62.53045 74.225
      vertex 143.5912 62.53045 82.95
      vertex 62.53045 62.53045 77.025
    endloop
  endfacet
  facet normal 0 -1 0
    outer loop
      vertex 143.5912 62.53045 74.225
      vertex 170.6114 62.53045 74.225
      vertex 170.6114 62.53045 82.95
    endloop
  endfacet
  facet normal 0 -1 0
    outer loop
      vertex 143.5912 62.53045 74.225
      vertex 170.6114 62.53045 82.95
      vertex 143.5912 62.53045 82.95
    endloop
  endfacet
  facet normal -1 0 0
    outer loop
      vertex 62.53045 62.53045 74.225
      vertex 62.53045 80.53045 77.025
      vertex 62.53045 80.53045 74.225
    endloop
  endfacet
  facet normal -1 0 0
    outer loop
      vertex 62.53045 62.53045 74.225
      vertex 62.53045 62.53045 77.025
      vertex 62.53045 80.53045 77.025
    endloop
  endfacet
  facet normal 1 0 0
    outer loop
      vertex 170.6114 80.53045 74.225
      vertex 170.6114 62.53045 82.95
      vertex 170.6114 62.53045 74.225
    endloop
  endfacet
  facet normal 1 0 -0
    outer loop
      vertex 170.6114 80.53045 74.225
      vertex 170.6114 80.53045 82.95
      vertex 170.6114 62.53045 82.95
    endloop
  endfacet
  facet normal -0 0 -1
    outer loop
      vertex 165.9552 85.18664 80.15
      vertex 91.87878 67.18664 80.15
      vertex 91.87878 85.18664 80.15
    endloop
  endfacet
  facet normal 0 -0 -1
    outer loop
      vertex 165.9552 85.18664 80.15
      vertex 165.9552 67.18664 80.15
      vertex 91.87878 67.18664 80.15
    endloop
  endfacet
  facet normal -0 0 -1
    outer loop
      vertex 91.87878 85.18664 80.15
      vertex 67.18664 67.18664 80.15
      vertex 67.18664 85.18664 80.15
    endloop
  endfacet
  facet normal 0 -0 -1
    outer loop
      vertex 91.87878 85.18664 80.15
      vertex 91.87878 67.18664 80.15
      vertex 67.18664 67.18664 80.15
    endloop
  endfacet
  facet normal 0.07973033 0 0.9968165
    outer loop
      vertex 165.9552 85.18664 82.95
      vertex 91.87878 85.18664 88.875
      vertex 91.87878 67.18664 88.875
    endloop
  endfacet
  facet normal 0.07973033 0 0.9968165
    outer loop
      vertex 165.9552 85.18664 82.95
      vertex 91.87878 67.18664 88.875
      vertex 165.9552 67.18664 82.95
    endloop
  endfacet
  facet normal 0 0 1
    outer loop
      vertex 91.87878 85.18664 88.875
      vertex 67.18664 85.18664 88.875
      vertex 67.18664 67.18664 88.875
    endloop
  endfacet
  facet normal 0 0 1
    outer loop
      vertex 91.87878 85.18664 88.875
      vertex 67.18664 67.18664 88.875
      vertex 91.87878 67.18664 88.875
    endloop
  endfacet
  facet normal 0 1 0
    outer loop
      vertex 165.9552 85.18664 80.15
      vertex 91.87878 85.18664 80.15
      vertex 91.87878 85.18664 88.875
    endloop
  endfacet
  facet normal 0 1 -0
    outer loop
      vertex 165.9552 85.18664 80.15
      vertex 91.87878 85.18664 88.875
      vertex 165.9552 85.18664 82.95
    endloop
  endfacet
  facet normal 0 1 0
    outer loop
      vertex 91.87878 85.18664 80.15
      vertex 67.18664 85.18664 80.15
      vertex 67.18664 85.18664 88.875
    endloop
  endfacet
  facet normal 0 1 -0
    outer loop
      vertex 91.87878 85.18664 80.15
      vertex 67.18664 85.18664 88.875
      vertex 91.87878 85.18664 88.875
    endloop
  endfacet
  facet normal 0 -1 0
    outer loop
      vertex 165.9552 67.18664 80.15
      vertex 91.87878 67.18664 88.875
      vertex 91.87878 67.18664 80.15
    endloop
  endfacet
  facet normal 0 -1 0
    outer loop
      vertex 165.9552 67.18664 80.15
      vertex 165.9552 67.18664 82.95
      vertex 91.87878 67.18664 88.875
    endloop
  endfacet
  facet normal 0 -1 0
    outer loop
      vertex 91.87878 67.18664 80.15
      vertex 67.18664 67.18664 88.875
      vertex 67.18664 67.18664 80.15
    endloop
  endfacet
  facet normal 0 -1 0
    outer loop
      vertex 91.87878 67.18664 80.15
      vertex 91.87878 67.18664 88.875
      vertex 67.18664 67.18664 88.875
    endloop
  endfacet
  facet normal 1 0 0
    outer loop
      vertex 165.9552 67.18664 80.15
      vertex 165.9552 85.18664 80.15
      vertex 165.9552 85.18664 82.95
    endloop
  endfacet
  facet normal 1 0 0
    outer loop
      vertex 165.9552 67.18664 80.15
      vertex 165.9552 85.18664 82.95
      vertex 165.9552 67.18664 82.95
    endloop
  endfacet
  facet normal -1 0 0
    outer loop
      vertex 67.18664 85.18664 80.15
      vertex 67.18664 67.18664 80.15
      vertex 67.18664 67.18664 88.875
    endloop
  endfacet
  facet normal -1 0 0
    outer loop
      vertex 67.18664 85.18664 80.15
      vertex 67.18664 67.18664 88.875
      vertex 67.18664 85.18664 88.875
    endloop
  endfacet
  facet normal 0 0 -1
    outer loop
      vertex 71.84283 89.84283 86.075
      vertex 138.935 89.84283 86.075
      vertex 138.935 71.84283 86.075
    endloop
  endfacet
  facet normal 0 0 -1
    outer loop
      vertex 71.84283 89.84283 86.075
      vertex 138.935 71.84283 86.075
      vertex 71.84283 71.84283 86.075
    endloop
  endfacet
  facet normal 0 0 -1
    outer loop
      vertex 138.935 89.84283 86.075
      vertex 161.299 89.84283 86.075
      vertex 161.299 71.84283 86.075
    endloop
  endfacet
  facet normal 0 0 -1
    outer loop
      vertex 138.935 89.84283 86.075
      vertex 161.299 71.84283 86.075
      vertex 138.935 71.84283 86.075
    endloop
  endfacet
  facet normal -0.08796902 0 0.9961232
    outer loop
      vertex 71.84283 89.84283 88.875
      vertex 138.935 71.84283 94.8
      vertex 138.935 89.84283 94.8
    endloop
  endfacet
  facet normal -0.08796902 0 0.9961232
    outer loop
      vertex 71.84283 89.84283 88.875
      vertex 71.84283 71.84283 88.875
      vertex 138.935 71.84283 94.8
    endloop
  endfacet
  facet normal -0 0 1
    outer loop
      vertex 138.935 89.84283 94.8
      vertex 161.299 71.84283 94.8
      vertex 161.299 89.84283 94.8
    endloop
  endfacet
  facet normal 0 0 1
    outer loop
      vertex 138.935 89.84283 94.8
      vertex 138.935 71.84283 94.8
      vertex 161.299 71.84283 94.8
    endloop
  endfacet
  facet normal 0 1 0
    outer loop
      vertex 71.84283 89.84283 86.075
      vertex 138.935 89.84283 94.8
      vertex 138.935 89.84283 86.075
    endloop
  endfacet
  facet normal 0 1 0
    outer loop
      vertex 71.84283 89.84283 86.075
      vertex 71.84283 89.84283 88.875
      vertex 138.935 89.84283 94.8
    endloop
  endfacet
  facet normal 0 1 0
    outer loop
      vertex 138.935 89.84283 86.075
      vertex 161.299 89.84283 94.8
      vertex 161.299 89.84283 86.075
    endloop
  endfacet
  facet normal 0 1 0
    outer loop
      vertex 138.935 89.84283 86.075
      vertex 138.935 89.84283 94.8
      vertex 161.299 89.84283 94.8
    endloop
  endfacet
  facet normal 0 -1 0
    outer loop
      vertex 71.84283 71.84283 86.075
      vertex 138.935 71.84283 86.075
      vertex 138.935 71.84283 94.8
    endloop
  endfacet
  facet normal 0 -1 0
    outer loop
      vertex 71.84283 71.84283 86.075
      vertex 138.935 71.84283 94.8
      vertex 71.84283 71.84283 88.875
    endloop
  endfacet
  facet normal 0 -1 0
    outer loop
      vertex 138.935 71.84283 86.075
      vertex 161.299 71.84283 86.075
      vertex 161.299 71.84283 94.8
    endloop
  endfacet
  facet normal 0 -1 0
    outer loop
      vertex 138.935 71.84283 86.075
      vertex 161.299 71.84283 94.8
      vertex 138.935 71.84283 94.8
    endloop
  endfacet
  facet normal -1 0 0
    outer loop
      vertex 71.84283 71.84283 86.075
      vertex 71.84283 89.84283 88.875
      vertex 71.84283 89.84283 86.075
    endloop
  endfacet
  facet normal -1 0 0
    outer loop
      vertex 71.84283 71.84283 86.075
      vertex 71.84283 71.84283 88.875
      vertex 71.84283 89.84283 88.875
    endloop
  endfacet
  facet normal 1 0 0
    outer loop
      vertex 161.299 89.84283 86.075
      vertex 161.299 71.84283 94.8
      vertex 161.299 71.84283 86.075
    endloop
  endfacet
  facet normal 1 0 -0
    outer loop
      vertex 161.299 89.84283 86.075
      vertex 161.299 89.84283 94.8
      vertex 161.299 71.84283 94.8
    endloop
  endfacet
endsolid temporary_switchback_ramps_south_local_underfill
