solid temporary_switchback_ramps_north_local_underfill
  facet normal 0 0 -1
    outer loop
      vertex 6.656189 85.18664 0
      vertex 226.4857 85.18664 0
      vertex 226.4857 67.18664 0
    endloop
  endfacet
  facet normal 0 0 -1
    outer loop
      vertex 6.656189 85.18664 0
      vertex 226.4857 67.18664 0
      vertex 6.656189 67.18664 0
    endloop
  endfacet
  facet normal 0 0 1
    outer loop
      vertex 6.656189 67.18664 3.125
      vertex 226.4857 67.18664 3.125
      vertex 226.4857 85.18664 3.125
    endloop
  endfacet
  facet normal 0 0 1
    outer loop
      vertex 6.656189 67.18664 3.125
      vertex 226.4857 85.18664 3.125
      vertex 6.656189 85.18664 3.125
    endloop
  endfacet
  facet normal 0 -1 0
    outer loop
      vertex 6.656189 67.18664 0
      vertex 226.4857 67.18664 0
      vertex 226.4857 67.18664 3.125
    endloop
  endfacet
  facet normal 0 -1 0
    outer loop
      vertex 6.656189 67.18664 0
      vertex 226.4857 67.18664 3.125
      vertex 6.656189 67.18664 3.125
    endloop
  endfacet
  facet normal 1 0 0
    outer loop
      vertex 226.4857 67.18664 0
      vertex 226.4857 85.18664 0
      vertex 226.4857 85.18664 3.125
    endloop
  endfacet
  facet normal 1 0 0
    outer loop
      vertex 226.4857 67.18664 0
      vertex 226.4857 85.18664 3.125
      vertex 226.4857 67.18664 3.125
    endloop
  endfacet
  facet normal 0 1 0
    outer loop
      vertex 226.4857 85.18664 0
      vertex 6.656189 85.18664 0
      vertex 6.656189 85.18664 3.125
    endloop
  endfacet
  facet normal 0 1 -0
    outer loop
      vertex 226.4857 85.18664 0
      vertex 6.656189 85.18664 3.125
      vertex 226.4857 85.18664 3.125
    endloop
  endfacet
  facet normal -1 0 0
    outer loop
      vertex 6.656189 85.18664 0
      vertex 6.656189 67.18664 0
      vertex 6.656189 67.18664 3.125
    endloop
  endfacet
  facet normal -1 0 0
    outer loop
      vertex 6.656189 85.18664 0
      vertex 6.656189 67.18664 3.125
      vertex 6.656189 85.18664 3.125
    endloop
  endfacet
  facet normal 0 0 -1
    outer loop
      vertex 11.31238 80.53045 5.925
      vertex 221.8295 80.53045 5.925
      vertex 221.8295 62.53045 5.925
    endloop
  endfacet
  facet normal 0 0 -1
    outer loop
      vertex 11.31238 80.53045 5.925
      vertex 221.8295 62.53045 5.925
      vertex 11.31238 62.53045 5.925
    endloop
  endfacet
  facet normal 0 0 1
    outer loop
      vertex 11.31238 62.53045 9.05
      vertex 221.8295 62.53045 9.05
      vertex 221.8295 80.53045 9.05
    endloop
  endfacet
  facet normal 0 0 1
    outer loop
      vertex 11.31238 62.53045 9.05
      vertex 221.8295 80.53045 9.05
      vertex 11.31238 80.53045 9.05
    endloop
  endfacet
  facet normal 0 -1 0
    outer loop
      vertex 11.31238 62.53045 5.925
      vertex 221.8295 62.53045 5.925
      vertex 221.8295 62.53045 9.05
    endloop
  endfacet
  facet normal 0 -1 0
    outer loop
      vertex 11.31238 62.53045 5.925
      vertex 221.8295 62.53045 9.05
      vertex 11.31238 62.53045 9.05
    endloop
  endfacet
  facet normal 1 0 0
    outer loop
      vertex 221.8295 62.53045 5.925
      vertex 221.8295 80.53045 5.925
      vertex 221.8295 80.53045 9.05
    endloop
  endfacet
  facet normal 1 0 0
    outer loop
      vertex 221.8295 62.53045 5.925
      vertex 221.8295 80.53045 9.05
      vertex 221.8295 62.53045 9.05
    endloop
  endfacet
  facet normal 0 1 0
    outer loop
      vertex 221.8295 80.53045 5.925
      vertex 11.31238 80.53045 5.925
      vertex 11.31238 80.53045 9.05
    endloop
  endfacet
  facet normal 0 1 -0
    outer loop
      vertex 221.8295 80.53045 5.925
      vertex 11.31238 80.53045 9.05
      vertex 221.8295 80.53045 9.05
    endloop
  endfacet
  facet normal -1 0 0
    outer loop
      vertex 11.31238 80.53045 5.925
      vertex 11.31238 62.53045 5.925
      vertex 11.31238 62.53045 9.05
    endloop
  endfacet
  facet normal -1 0 0
    outer loop
      vertex 11.31238 80.53045 5.925
      vertex 11.31238 62.53045 9.05
      vertex 11.31238 80.53045 9.05
    endloop
  endfacet
  facet normal 0 0 -1
    outer loop
      vertex 15.96857 75.87426 11.85
      vertex 217.1733 75.87426 11.85
      vertex 217.1733 57.87426 11.85
    endloop
  endfacet
  facet normal 0 0 -1
    outer loop
      vertex 15.96857 75.87426 11.85
      vertex 217.1733 57.87426 11.85
      vertex 15.96857 57.87426 11.85
    endloop
  endfacet
  facet normal 0 0 1
    outer loop
      vertex 15.96857 57.87426 14.975
      vertex 217.1733 57.87426 14.975
      vertex 217.1733 75.87426 14.975
    endloop
  endfacet
  facet normal 0 0 1
    outer loop
      vertex 15.96857 57.87426 14.975
      vertex 217.1733 75.87426 14.975
      vertex 15.96857 75.87426 14.975
    endloop
  endfacet
  facet normal 0 -1 0
    outer loop
      vertex 15.96857 57.87426 11.85
      vertex 217.1733 57.87426 11.85
      vertex 217.1733 57.87426 14.975
    endloop
  endfacet
  facet normal 0 -1 0
    outer loop
      vertex 15.96857 57.87426 11.85
      vertex 217.1733 57.87426 14.975
      vertex 15.96857 57.87426 14.975
    endloop
  endfacet
  facet normal 1 0 0
    outer loop
      vertex 217.1733 57.87426 11.85
      vertex 217.1733 75.87426 11.85
      vertex 217.1733 75.87426 14.975
    endloop
  endfacet
  facet normal 1 0 0
    outer loop
      vertex 217.1733 57.87426 11.85
      vertex 217.1733 75.87426 14.975
      vertex 217.1733 57.87426 14.975
    endloop
  endfacet
  facet normal 0 1 0
    outer loop
      vertex 217.1733 75.87426 11.85
      vertex 15.96857 75.87426 11.85
      vertex 15.96857 75.87426 14.975
    endloop
  endfacet
  facet normal 0 1 -0
    outer loop
      vertex 217.1733 75.87426 11.85
      vertex 15.96857 75.87426 14.975
      vertex 217.1733 75.87426 14.975
    endloop
  endfacet
  facet normal -1 0 0
    outer loop
      vertex 15.96857 75.87426 11.85
      vertex 15.96857 57.87426 11.85
      vertex 15.96857 57.87426 14.975
    endloop
  endfacet
  facet normal -1 0 0
    outer loop
      vertex 15.96857 75.87426 11.85
      vertex 15.96857 57.87426 14.975
      vertex 15.96857 75.87426 14.975
    endloop
  endfacet
  facet normal 0 0 -1
    outer loop
      vertex 20.62475 71.21807 17.775
      vertex 212.5171 71.21807 17.775
      vertex 212.5171 53.21807 17.775
    endloop
  endfacet
  facet normal 0 0 -1
    outer loop
      vertex 20.62475 71.21807 17.775
      vertex 212.5171 53.21807 17.775
      vertex 20.62475 53.21807 17.775
    endloop
  endfacet
  facet normal 0 0 1
    outer loop
      vertex 20.62475 53.21807 20.9
      vertex 212.5171 53.21807 20.9
      vertex 212.5171 71.21807 20.9
    endloop
  endfacet
  facet normal 0 0 1
    outer loop
      vertex 20.62475 53.21807 20.9
      vertex 212.5171 71.21807 20.9
      vertex 20.62475 71.21807 20.9
    endloop
  endfacet
  facet normal 0 -1 0
    outer loop
      vertex 20.62475 53.21807 17.775
      vertex 212.5171 53.21807 17.775
      vertex 212.5171 53.21807 20.9
    endloop
  endfacet
  facet normal 0 -1 0
    outer loop
      vertex 20.62475 53.21807 17.775
      vertex 212.5171 53.21807 20.9
      vertex 20.62475 53.21807 20.9
    endloop
  endfacet
  facet normal 1 0 0
    outer loop
      vertex 212.5171 53.21807 17.775
      vertex 212.5171 71.21807 17.775
      vertex 212.5171 71.21807 20.9
    endloop
  endfacet
  facet normal 1 0 0
    outer loop
      vertex 212.5171 53.21807 17.775
      vertex 212.5171 71.21807 20.9
      vertex 212.5171 53.21807 20.9
    endloop
  endfacet
  facet normal 0 1 0
    outer loop
      vertex 212.5171 71.21807 17.775
      vertex 20.62475 71.21807 17.775
      vertex 20.62475 71.21807 20.9
    endloop
  endfacet
  facet normal 0 1 -0
    outer loop
      vertex 212.5171 71.21807 17.775
      vertex 20.62475 71.21807 20.9
      vertex 212.5171 71.21807 20.9
    endloop
  endfacet
  facet normal -1 0 0
    outer loop
      vertex 20.62475 71.21807 17.775
      vertex 20.62475 53.21807 17.775
      vertex 20.62475 53.21807 20.9
    endloop
  endfacet
  facet normal -1 0 0
    outer loop
      vertex 20.62475 71.21807 17.775
      vertex 20.62475 53.21807 20.9
      vertex 20.62475 71.21807 20.9
    endloop
  endfacet
  facet normal 0 0 -1
    outer loop
      vertex 25.28094 66.56189 23.7
      vertex 207.8609 66.56189 23.7
      vertex 207.8609 48.56189 23.7
    endloop
  endfacet
  facet normal 0 0 -1
    outer loop
      vertex 25.28094 66.56189 23.7
      vertex 207.8609 48.56189 23.7
      vertex 25.28094 48.56189 23.7
    endloop
  endfacet
  facet normal 0 0 1
    outer loop
      vertex 25.28094 48.56189 26.825
      vertex 207.8609 48.56189 26.825
      vertex 207.8609 66.56189 26.825
    endloop
  endfacet
  facet normal 0 0 1
    outer loop
      vertex 25.28094 48.56189 26.825
      vertex 207.8609 66.56189 26.825
      vertex 25.28094 66.56189 26.825
    endloop
  endfacet
  facet normal 0 -1 0
    outer loop
      vertex 25.28094 48.56189 23.7
      vertex 207.8609 48.56189 23.7
      vertex 207.8609 48.56189 26.825
    endloop
  endfacet
  facet normal 0 -1 0
    outer loop
      vertex 25.28094 48.56189 23.7
      vertex 207.8609 48.56189 26.825
      vertex 25.28094 48.56189 26.825
    endloop
  endfacet
  facet normal 1 0 0
    outer loop
      vertex 207.8609 48.56189 23.7
      vertex 207.8609 66.56189 23.7
      vertex 207.8609 66.56189 26.825
    endloop
  endfacet
  facet normal 1 0 0
    outer loop
      vertex 207.8609 48.56189 23.7
      vertex 207.8609 66.56189 26.825
      vertex 207.8609 48.56189 26.825
    endloop
  endfacet
  facet normal 0 1 0
    outer loop
      vertex 207.8609 66.56189 23.7
      vertex 25.28094 66.56189 23.7
      vertex 25.28094 66.56189 26.825
    endloop
  endfacet
  facet normal 0 1 -0
    outer loop
      vertex 207.8609 66.56189 23.7
      vertex 25.28094 66.56189 26.825
      vertex 207.8609 66.56189 26.825
    endloop
  endfacet
  facet normal -1 0 0
    outer loop
      vertex 25.28094 66.56189 23.7
      vertex 25.28094 48.56189 23.7
      vertex 25.28094 48.56189 26.825
    endloop
  endfacet
  facet normal -1 0 0
    outer loop
      vertex 25.28094 66.56189 23.7
      vertex 25.28094 48.56189 26.825
      vertex 25.28094 66.56189 26.825
    endloop
  endfacet
  facet normal 0 0 -1
    outer loop
      vertex 29.93713 61.9057 29.625
      vertex 203.2047 61.9057 29.625
      vertex 203.2047 43.9057 29.625
    endloop
  endfacet
  facet normal 0 0 -1
    outer loop
      vertex 29.93713 61.9057 29.625
      vertex 203.2047 43.9057 29.625
      vertex 29.93713 43.9057 29.625
    endloop
  endfacet
  facet normal 0 0 1
    outer loop
      vertex 29.93713 43.9057 32.75
      vertex 203.2047 43.9057 32.75
      vertex 203.2047 61.9057 32.75
    endloop
  endfacet
  facet normal 0 0 1
    outer loop
      vertex 29.93713 43.9057 32.75
      vertex 203.2047 61.9057 32.75
      vertex 29.93713 61.9057 32.75
    endloop
  endfacet
  facet normal 0 -1 0
    outer loop
      vertex 29.93713 43.9057 29.625
      vertex 203.2047 43.9057 29.625
      vertex 203.2047 43.9057 32.75
    endloop
  endfacet
  facet normal 0 -1 0
    outer loop
      vertex 29.93713 43.9057 29.625
      vertex 203.2047 43.9057 32.75
      vertex 29.93713 43.9057 32.75
    endloop
  endfacet
  facet normal 1 0 0
    outer loop
      vertex 203.2047 43.9057 29.625
      vertex 203.2047 61.9057 29.625
      vertex 203.2047 61.9057 32.75
    endloop
  endfacet
  facet normal 1 0 0
    outer loop
      vertex 203.2047 43.9057 29.625
      vertex 203.2047 61.9057 32.75
      vertex 203.2047 43.9057 32.75
    endloop
  endfacet
  facet normal 0 1 0
    outer loop
      vertex 203.2047 61.9057 29.625
      vertex 29.93713 61.9057 29.625
      vertex 29.93713 61.9057 32.75
    endloop
  endfacet
  facet normal 0 1 -0
    outer loop
      vertex 203.2047 61.9057 29.625
      vertex 29.93713 61.9057 32.75
      vertex 203.2047 61.9057 32.75
    endloop
  endfacet
  facet normal -1 0 0
    outer loop
      vertex 29.93713 61.9057 29.625
      vertex 29.93713 43.9057 29.625
      vertex 29.93713 43.9057 32.75
    endloop
  endfacet
  facet normal -1 0 0
    outer loop
      vertex 29.93713 61.9057 29.625
      vertex 29.93713 43.9057 32.75
      vertex 29.93713 61.9057 32.75
    endloop
  endfacet
  facet normal 0 0 -1
    outer loop
      vertex 34.59332 57.24951 35.55
      vertex 198.5485 57.24951 35.55
      vertex 198.5485 39.24951 35.55
    endloop
  endfacet
  facet normal 0 0 -1
    outer loop
      vertex 34.59332 57.24951 35.55
      vertex 198.5485 39.24951 35.55
      vertex 34.59332 39.24951 35.55
    endloop
  endfacet
  facet normal 0 0 1
    outer loop
      vertex 34.59332 39.24951 38.675
      vertex 198.5485 39.24951 38.675
      vertex 198.5485 57.24951 38.675
    endloop
  endfacet
  facet normal 0 0 1
    outer loop
      vertex 34.59332 39.24951 38.675
      vertex 198.5485 57.24951 38.675
      vertex 34.59332 57.24951 38.675
    endloop
  endfacet
  facet normal 0 -1 0
    outer loop
      vertex 34.59332 39.24951 35.55
      vertex 198.5485 39.24951 35.55
      vertex 198.5485 39.24951 38.675
    endloop
  endfacet
  facet normal 0 -1 0
    outer loop
      vertex 34.59332 39.24951 35.55
      vertex 198.5485 39.24951 38.675
      vertex 34.59332 39.24951 38.675
    endloop
  endfacet
  facet normal 1 0 0
    outer loop
      vertex 198.5485 39.24951 35.55
      vertex 198.5485 57.24951 35.55
      vertex 198.5485 57.24951 38.675
    endloop
  endfacet
  facet normal 1 0 0
    outer loop
      vertex 198.5485 39.24951 35.55
      vertex 198.5485 57.24951 38.675
      vertex 198.5485 39.24951 38.675
    endloop
  endfacet
  facet normal 0 1 0
    outer loop
      vertex 198.5485 57.24951 35.55
      vertex 34.59332 57.24951 35.55
      vertex 34.59332 57.24951 38.675
    endloop
  endfacet
  facet normal 0 1 -0
    outer loop
      vertex 198.5485 57.24951 35.55
      vertex 34.59332 57.24951 38.675
      vertex 198.5485 57.24951 38.675
    endloop
  endfacet
  facet normal -1 0 0
    outer loop
      vertex 34.59332 57.24951 35.55
      vertex 34.59332 39.24951 35.55
      vertex 34.59332 39.24951 38.675
    endloop
  endfacet
  facet normal -1 0 0
    outer loop
      vertex 34.59332 57.24951 35.55
      vertex 34.59332 39.24951 38.675
      vertex 34.59332 57.24951 38.675
    endloop
  endfacet
  facet normal 0 0 -1
    outer loop
      vertex 39.24951 52.59332 41.475
      vertex 193.8923 52.59332 41.475
      vertex 193.8923 34.59332 41.475
    endloop
  endfacet
  facet normal 0 0 -1
    outer loop
      vertex 39.24951 52.59332 41.475
      vertex 193.8923 34.59332 41.475
      vertex 39.24951 34.59332 41.475
    endloop
  endfacet
  facet normal 0 0 1
    outer loop
      vertex 39.24951 34.59332 44.6
      vertex 193.8923 34.59332 44.6
      vertex 193.8923 52.59332 44.6
    endloop
  endfacet
  facet normal 0 0 1
    outer loop
      vertex 39.24951 34.59332 44.6
      vertex 193.8923 52.59332 44.6
      vertex 39.24951 52.59332 44.6
    endloop
  endfacet
  facet normal 0 -1 0
    outer loop
      vertex 39.24951 34.59332 41.475
      vertex 193.8923 34.59332 41.475
      vertex 193.8923 34.59332 44.6
    endloop
  endfacet
  facet normal 0 -1 0
    outer loop
      vertex 39.24951 34.59332 41.475
      vertex 193.8923 34.59332 44.6
      vertex 39.24951 34.59332 44.6
    endloop
  endfacet
  facet normal 1 0 0
    outer loop
      vertex 193.8923 34.59332 41.475
      vertex 193.8923 52.59332 41.475
      vertex 193.8923 52.59332 44.6
    endloop
  endfacet
  facet normal 1 0 0
    outer loop
      vertex 193.8923 34.59332 41.475
      vertex 193.8923 52.59332 44.6
      vertex 193.8923 34.59332 44.6
    endloop
  endfacet
  facet normal 0 1 0
    outer loop
      vertex 193.8923 52.59332 41.475
      vertex 39.24951 52.59332 41.475
      vertex 39.24951 52.59332 44.6
    endloop
  endfacet
  facet normal 0 1 -0
    outer loop
      vertex 193.8923 52.59332 41.475
      vertex 39.24951 52.59332 44.6
      vertex 193.8923 52.59332 44.6
    endloop
  endfacet
  facet normal -1 0 0
    outer loop
      vertex 39.24951 52.59332 41.475
      vertex 39.24951 34.59332 41.475
      vertex 39.24951 34.59332 44.6
    endloop
  endfacet
  facet normal -1 0 0
    outer loop
      vertex 39.24951 52.59332 41.475
      vertex 39.24951 34.59332 44.6
      vertex 39.24951 52.59332 44.6
    endloop
  endfacet
  facet normal 0 0 -1
    outer loop
      vertex 43.9057 47.93713 47.4
      vertex 189.2361 47.93713 47.4
      vertex 189.2361 29.93713 47.4
    endloop
  endfacet
  facet normal 0 0 -1
    outer loop
      vertex 43.9057 47.93713 47.4
      vertex 189.2361 29.93713 47.4
      vertex 43.9057 29.93713 47.4
    endloop
  endfacet
  facet normal 0 0 1
    outer loop
      vertex 43.9057 29.93713 50.525
      vertex 189.2361 29.93713 50.525
      vertex 189.2361 47.93713 50.525
    endloop
  endfacet
  facet normal 0 0 1
    outer loop
      vertex 43.9057 29.93713 50.525
      vertex 189.2361 47.93713 50.525
      vertex 43.9057 47.93713 50.525
    endloop
  endfacet
  facet normal 0 -1 0
    outer loop
      vertex 43.9057 29.93713 47.4
      vertex 189.2361 29.93713 47.4
      vertex 189.2361 29.93713 50.525
    endloop
  endfacet
  facet normal 0 -1 0
    outer loop
      vertex 43.9057 29.93713 47.4
      vertex 189.2361 29.93713 50.525
      vertex 43.9057 29.93713 50.525
    endloop
  endfacet
  facet normal 1 0 0
    outer loop
      vertex 189.2361 29.93713 47.4
      vertex 189.2361 47.93713 47.4
      vertex 189.2361 47.93713 50.525
    endloop
  endfacet
  facet normal 1 0 0
    outer loop
      vertex 189.2361 29.93713 47.4
      vertex 189.2361 47.93713 50.525
      vertex 189.2361 29.93713 50.525
    endloop
  endfacet
  facet normal 0 1 0
    outer loop
      vertex 189.2361 47.93713 47.4
      vertex 43.9057 47.93713 47.4
      vertex 43.9057 47.93713 50.525
    endloop
  endfacet
  facet normal 0 1 -0
    outer loop
      vertex 189.2361 47.93713 47.4
      vertex 43.9057 47.93713 50.525
      vertex 189.2361 47.93713 50.525
    endloop
  endfacet
  facet normal -1 0 0
    outer loop
      vertex 43.9057 47.93713 47.4
      vertex 43.9057 29.93713 47.4
      vertex 43.9057 29.93713 50.525
    endloop
  endfacet
  facet normal -1 0 0
    outer loop
      vertex 43.9057 47.93713 47.4
      vertex 43.9057 29.93713 50.525
      vertex 43.9057 47.93713 50.525
    endloop
  endfacet
  facet normal 0 0 -1
    outer loop
      vertex 48.56189 43.28094 53.325
      vertex 184.58 43.28094 53.325
      vertex 184.58 25.28094 53.325
    endloop
  endfacet
  facet normal 0 0 -1
    outer loop
      vertex 48.56189 43.28094 53.325
      vertex 184.58 25.28094 53.325
      vertex 48.56189 25.28094 53.325
    endloop
  endfacet
  facet normal 0 0 1
    outer loop
      vertex 48.56189 25.28094 56.45
      vertex 184.58 25.28094 56.45
      vertex 184.58 43.28094 56.45
    endloop
  endfacet
  facet normal 0 0 1
    outer loop
      vertex 48.56189 25.28094 56.45
      vertex 184.58 43.28094 56.45
      vertex 48.56189 43.28094 56.45
    endloop
  endfacet
  facet normal 0 -1 0
    outer loop
      vertex 48.56189 25.28094 53.325
      vertex 184.58 25.28094 53.325
      vertex 184.58 25.28094 56.45
    endloop
  endfacet
  facet normal 0 -1 0
    outer loop
      vertex 48.56189 25.28094 53.325
      vertex 184.58 25.28094 56.45
      vertex 48.56189 25.28094 56.45
    endloop
  endfacet
  facet normal 1 0 0
    outer loop
      vertex 184.58 25.28094 53.325
      vertex 184.58 43.28094 53.325
      vertex 184.58 43.28094 56.45
    endloop
  endfacet
  facet normal 1 0 0
    outer loop
      vertex 184.58 25.28094 53.325
      vertex 184.58 43.28094 56.45
      vertex 184.58 25.28094 56.45
    endloop
  endfacet
  facet normal 0 1 0
    outer loop
      vertex 184.58 43.28094 53.325
      vertex 48.56189 43.28094 53.325
      vertex 48.56189 43.28094 56.45
    endloop
  endfacet
  facet normal 0 1 -0
    outer loop
      vertex 184.58 43.28094 53.325
      vertex 48.56189 43.28094 56.45
      vertex 184.58 43.28094 56.45
    endloop
  endfacet
  facet normal -1 0 0
    outer loop
      vertex 48.56189 43.28094 53.325
      vertex 48.56189 25.28094 53.325
      vertex 48.56189 25.28094 56.45
    endloop
  endfacet
  facet normal -1 0 0
    outer loop
      vertex 48.56189 43.28094 53.325
      vertex 48.56189 25.28094 56.45
      vertex 48.56189 43.28094 56.45
    endloop
  endfacet
  facet normal 0 0 -1
    outer loop
      vertex 53.21807 38.62475 59.25
      vertex 179.9238 38.62475 59.25
      vertex 179.9238 20.62475 59.25
    endloop
  endfacet
  facet normal 0 0 -1
    outer loop
      vertex 53.21807 38.62475 59.25
      vertex 179.9238 20.62475 59.25
      vertex 53.21807 20.62475 59.25
    endloop
  endfacet
  facet normal 0 0 1
    outer loop
      vertex 53.21807 20.62475 62.375
      vertex 179.9238 20.62475 62.375
      vertex 179.9238 38.62475 62.375
    endloop
  endfacet
  facet normal 0 0 1
    outer loop
      vertex 53.21807 20.62475 62.375
      vertex 179.9238 38.62475 62.375
      vertex 53.21807 38.62475 62.375
    endloop
  endfacet
  facet normal 0 -1 0
    outer loop
      vertex 53.21807 20.62475 59.25
      vertex 179.9238 20.62475 59.25
      vertex 179.9238 20.62475 62.375
    endloop
  endfacet
  facet normal 0 -1 0
    outer loop
      vertex 53.21807 20.62475 59.25
      vertex 179.9238 20.62475 62.375
      vertex 53.21807 20.62475 62.375
    endloop
  endfacet
  facet normal 1 0 0
    outer loop
      vertex 179.9238 20.62475 59.25
      vertex 179.9238 38.62475 59.25
      vertex 179.9238 38.62475 62.375
    endloop
  endfacet
  facet normal 1 0 0
    outer loop
      vertex 179.9238 20.62475 59.25
      vertex 179.9238 38.62475 62.375
      vertex 179.9238 20.62475 62.375
    endloop
  endfacet
  facet normal 0 1 0
    outer loop
      vertex 179.9238 38.62475 59.25
      vertex 53.21807 38.62475 59.25
      vertex 53.21807 38.62475 62.375
    endloop
  endfacet
  facet normal 0 1 -0
    outer loop
      vertex 179.9238 38.62475 59.25
      vertex 53.21807 38.62475 62.375
      vertex 179.9238 38.62475 62.375
    endloop
  endfacet
  facet normal -1 0 0
    outer loop
      vertex 53.21807 38.62475 59.25
      vertex 53.21807 20.62475 59.25
      vertex 53.21807 20.62475 62.375
    endloop
  endfacet
  facet normal -1 0 0
    outer loop
      vertex 53.21807 38.62475 59.25
      vertex 53.21807 20.62475 62.375
      vertex 53.21807 38.62475 62.375
    endloop
  endfacet
  facet normal 0 0 -1
    outer loop
      vertex 57.87426 33.96857 65.175
      vertex 175.2676 33.96857 65.175
      vertex 175.2676 15.96857 65.175
    endloop
  endfacet
  facet normal 0 0 -1
    outer loop
      vertex 57.87426 33.96857 65.175
      vertex 175.2676 15.96857 65.175
      vertex 57.87426 15.96857 65.175
    endloop
  endfacet
  facet normal 0 0 1
    outer loop
      vertex 57.87426 15.96857 68.3
      vertex 175.2676 15.96857 68.3
      vertex 175.2676 33.96857 68.3
    endloop
  endfacet
  facet normal 0 0 1
    outer loop
      vertex 57.87426 15.96857 68.3
      vertex 175.2676 33.96857 68.3
      vertex 57.87426 33.96857 68.3
    endloop
  endfacet
  facet normal 0 -1 0
    outer loop
      vertex 57.87426 15.96857 65.175
      vertex 175.2676 15.96857 65.175
      vertex 175.2676 15.96857 68.3
    endloop
  endfacet
  facet normal 0 -1 0
    outer loop
      vertex 57.87426 15.96857 65.175
      vertex 175.2676 15.96857 68.3
      vertex 57.87426 15.96857 68.3
    endloop
  endfacet
  facet normal 1 0 0
    outer loop
      vertex 175.2676 15.96857 65.175
      vertex 175.2676 33.96857 65.175
      vertex 175.2676 33.96857 68.3
    endloop
  endfacet
  facet normal 1 0 0
    outer loop
      vertex 175.2676 15.96857 65.175
      vertex 175.2676 33.96857 68.3
      vertex 175.2676 15.96857 68.3
    endloop
  endfacet
  facet normal 0 1 0
    outer loop
      vertex 175.2676 33.96857 65.175
      vertex 57.87426 33.96857 65.175
      vertex 57.87426 33.96857 68.3
    endloop
  endfacet
  facet normal 0 1 -0
    outer loop
      vertex 175.2676 33.96857 65.175
      vertex 57.87426 33.96857 68.3
      vertex 175.2676 33.96857 68.3
    endloop
  endfacet
  facet normal -1 0 0
    outer loop
      vertex 57.87426 33.96857 65.175
      vertex 57.87426 15.96857 65.175
      vertex 57.87426 15.96857 68.3
    endloop
  endfacet
  facet normal -1 0 0
    outer loop
      vertex 57.87426 33.96857 65.175
      vertex 57.87426 15.96857 68.3
      vertex 57.87426 33.96857 68.3
    endloop
  endfacet
  facet normal 0 0 -1
    outer loop
      vertex 62.53045 29.31238 71.1
      vertex 170.6114 29.31238 71.1
      vertex 170.6114 11.31238 71.1
    endloop
  endfacet
  facet normal 0 0 -1
    outer loop
      vertex 62.53045 29.31238 71.1
      vertex 170.6114 11.31238 71.1
      vertex 62.53045 11.31238 71.1
    endloop
  endfacet
  facet normal 0 0 1
    outer loop
      vertex 62.53045 11.31238 74.225
      vertex 170.6114 11.31238 74.225
      vertex 170.6114 29.31238 74.225
    endloop
  endfacet
  facet normal 0 0 1
    outer loop
      vertex 62.53045 11.31238 74.225
      vertex 170.6114 29.31238 74.225
      vertex 62.53045 29.31238 74.225
    endloop
  endfacet
  facet normal 0 -1 0
    outer loop
      vertex 62.53045 11.31238 71.1
      vertex 170.6114 11.31238 71.1
      vertex 170.6114 11.31238 74.225
    endloop
  endfacet
  facet normal 0 -1 0
    outer loop
      vertex 62.53045 11.31238 71.1
      vertex 170.6114 11.31238 74.225
      vertex 62.53045 11.31238 74.225
    endloop
  endfacet
  facet normal 1 0 0
    outer loop
      vertex 170.6114 11.31238 71.1
      vertex 170.6114 29.31238 71.1
      vertex 170.6114 29.31238 74.225
    endloop
  endfacet
  facet normal 1 0 0
    outer loop
      vertex 170.6114 11.31238 71.1
      vertex 170.6114 29.31238 74.225
      vertex 170.6114 11.31238 74.225
    endloop
  endfacet
  facet normal 0 1 0
    outer loop
      vertex 170.6114 29.31238 71.1
      vertex 62.53045 29.31238 71.1
      vertex 62.53045 29.31238 74.225
    endloop
  endfacet
  facet normal 0 1 -0
    outer loop
      vertex 170.6114 29.31238 71.1
      vertex 62.53045 29.31238 74.225
      vertex 170.6114 29.31238 74.225
    endloop
  endfacet
  facet normal -1 0 0
    outer loop
      vertex 62.53045 29.31238 71.1
      vertex 62.53045 11.31238 71.1
      vertex 62.53045 11.31238 74.225
    endloop
  endfacet
  facet normal -1 0 0
    outer loop
      vertex 62.53045 29.31238 71.1
      vertex 62.53045 11.31238 74.225
      vertex 62.53045 29.31238 74.225
    endloop
  endfacet
  facet normal 0 0 -1
    outer loop
      vertex 67.18664 24.65619 77.025
      vertex 165.9552 24.65619 77.025
      vertex 165.9552 6.656189 77.025
    endloop
  endfacet
  facet normal 0 0 -1
    outer loop
      vertex 67.18664 24.65619 77.025
      vertex 165.9552 6.656189 77.025
      vertex 67.18664 6.656189 77.025
    endloop
  endfacet
  facet normal 0 0 1
    outer loop
      vertex 67.18664 6.656189 80.15
      vertex 165.9552 6.656189 80.15
      vertex 165.9552 24.65619 80.15
    endloop
  endfacet
  facet normal 0 0 1
    outer loop
      vertex 67.18664 6.656189 80.15
      vertex 165.9552 24.65619 80.15
      vertex 67.18664 24.65619 80.15
    endloop
  endfacet
  facet normal 0 -1 0
    outer loop
      vertex 67.18664 6.656189 77.025
      vertex 165.9552 6.656189 77.025
      vertex 165.9552 6.656189 80.15
    endloop
  endfacet
  facet normal 0 -1 0
    outer loop
      vertex 67.18664 6.656189 77.025
      vertex 165.9552 6.656189 80.15
      vertex 67.18664 6.656189 80.15
    endloop
  endfacet
  facet normal 1 0 0
    outer loop
      vertex 165.9552 6.656189 77.025
      vertex 165.9552 24.65619 77.025
      vertex 165.9552 24.65619 80.15
    endloop
  endfacet
  facet normal 1 0 0
    outer loop
      vertex 165.9552 6.656189 77.025
      vertex 165.9552 24.65619 80.15
      vertex 165.9552 6.656189 80.15
    endloop
  endfacet
  facet normal 0 1 0
    outer loop
      vertex 165.9552 24.65619 77.025
      vertex 67.18664 24.65619 77.025
      vertex 67.18664 24.65619 80.15
    endloop
  endfacet
  facet normal 0 1 -0
    outer loop
      vertex 165.9552 24.65619 77.025
      vertex 67.18664 24.65619 80.15
      vertex 165.9552 24.65619 80.15
    endloop
  endfacet
  facet normal -1 0 0
    outer loop
      vertex 67.18664 24.65619 77.025
      vertex 67.18664 6.656189 77.025
      vertex 67.18664 6.656189 80.15
    endloop
  endfacet
  facet normal -1 0 0
    outer loop
      vertex 67.18664 24.65619 77.025
      vertex 67.18664 6.656189 80.15
      vertex 67.18664 24.65619 80.15
    endloop
  endfacet
  facet normal 0 0 -1
    outer loop
      vertex 71.84283 20 82.95
      vertex 161.299 20 82.95
      vertex 161.299 2 82.95
    endloop
  endfacet
  facet normal 0 0 -1
    outer loop
      vertex 71.84283 20 82.95
      vertex 161.299 2 82.95
      vertex 71.84283 2 82.95
    endloop
  endfacet
  facet normal 0 0 1
    outer loop
      vertex 71.84283 2 86.075
      vertex 161.299 2 86.075
      vertex 161.299 20 86.075
    endloop
  endfacet
  facet normal 0 0 1
    outer loop
      vertex 71.84283 2 86.075
      vertex 161.299 20 86.075
      vertex 71.84283 20 86.075
    endloop
  endfacet
  facet normal 0 -1 0
    outer loop
      vertex 71.84283 2 82.95
      vertex 161.299 2 82.95
      vertex 161.299 2 86.075
    endloop
  endfacet
  facet normal 0 -1 0
    outer loop
      vertex 71.84283 2 82.95
      vertex 161.299 2 86.075
      vertex 71.84283 2 86.075
    endloop
  endfacet
  facet normal 1 0 0
    outer loop
      vertex 161.299 2 82.95
      vertex 161.299 20 82.95
      vertex 161.299 20 86.075
    endloop
  endfacet
  facet normal 1 0 0
    outer loop
      vertex 161.299 2 82.95
      vertex 161.299 20 86.075
      vertex 161.299 2 86.075
    endloop
  endfacet
  facet normal 0 1 0
    outer loop
      vertex 161.299 20 82.95
      vertex 71.84283 20 82.95
      vertex 71.84283 20 86.075
    endloop
  endfacet
  facet normal 0 1 -0
    outer loop
      vertex 161.299 20 82.95
      vertex 71.84283 20 86.075
      vertex 161.299 20 86.075
    endloop
  endfacet
  facet normal -1 0 0
    outer loop
      vertex 71.84283 20 82.95
      vertex 71.84283 2 82.95
      vertex 71.84283 2 86.075
    endloop
  endfacet
  facet normal -1 0 0
    outer loop
      vertex 71.84283 20 82.95
      vertex 71.84283 2 86.075
      vertex 71.84283 20 86.075
    endloop
  endfacet
  facet normal 0 0 -1
    outer loop
      vertex 2 71.84283 0
      vertex 173.8564 89.84283 0
      vertex 173.8564 71.84283 0
    endloop
  endfacet
  facet normal 0 0 -1
    outer loop
      vertex 2 71.84283 0
      vertex 2 89.84283 0
      vertex 173.8564 89.84283 0
    endloop
  endfacet
  facet normal 0 0 -1
    outer loop
      vertex 173.8564 71.84283 0
      vertex 231.1418 89.84283 0
      vertex 231.1418 71.84283 0
    endloop
  endfacet
  facet normal 0 0 -1
    outer loop
      vertex 173.8564 71.84283 0
      vertex 173.8564 89.84283 0
      vertex 231.1418 89.84283 0
    endloop
  endfacet
  facet normal -0.02922704 0 0.9995728
    outer loop
      vertex 2 71.84283 0.9
      vertex 173.8564 71.84283 5.925
      vertex 173.8564 89.84283 5.925
    endloop
  endfacet
  facet normal -0.02922704 0 0.9995728
    outer loop
      vertex 2 71.84283 0.9
      vertex 173.8564 89.84283 5.925
      vertex 2 89.84283 0.9
    endloop
  endfacet
  facet normal 0 0 1
    outer loop
      vertex 173.8564 71.84283 5.925
      vertex 231.1418 71.84283 5.925
      vertex 231.1418 89.84283 5.925
    endloop
  endfacet
  facet normal 0 0 1
    outer loop
      vertex 173.8564 71.84283 5.925
      vertex 231.1418 89.84283 5.925
      vertex 173.8564 89.84283 5.925
    endloop
  endfacet
  facet normal 0 -1 0
    outer loop
      vertex 2 71.84283 0
      vertex 173.8564 71.84283 0
      vertex 173.8564 71.84283 5.925
    endloop
  endfacet
  facet normal 0 -1 0
    outer loop
      vertex 2 71.84283 0
      vertex 173.8564 71.84283 5.925
      vertex 2 71.84283 0.9
    endloop
  endfacet
  facet normal 0 -1 0
    outer loop
      vertex 173.8564 71.84283 0
      vertex 231.1418 71.84283 0
      vertex 231.1418 71.84283 5.925
    endloop
  endfacet
  facet normal 0 -1 0
    outer loop
      vertex 173.8564 71.84283 0
      vertex 231.1418 71.84283 5.925
      vertex 173.8564 71.84283 5.925
    endloop
  endfacet
  facet normal 0 1 0
    outer loop
      vertex 2 89.84283 0
      vertex 173.8564 89.84283 5.925
      vertex 173.8564 89.84283 0
    endloop
  endfacet
  facet normal 0 1 0
    outer loop
      vertex 2 89.84283 0
      vertex 2 89.84283 0.9
      vertex 173.8564 89.84283 5.925
    endloop
  endfacet
  facet normal 0 1 0
    outer loop
      vertex 173.8564 89.84283 0
      vertex 231.1418 89.84283 5.925
      vertex 231.1418 89.84283 0
    endloop
  endfacet
  facet normal 0 1 0
    outer loop
      vertex 173.8564 89.84283 0
      vertex 173.8564 89.84283 5.925
      vertex 231.1418 89.84283 5.925
    endloop
  endfacet
  facet normal -1 0 0
    outer loop
      vertex 2 89.84283 0
      vertex 2 71.84283 0
      vertex 2 71.84283 0.9
    endloop
  endfacet
  facet normal -1 0 0
    outer loop
      vertex 2 89.84283 0
      vertex 2 71.84283 0.9
      vertex 2 89.84283 0.9
    endloop
  endfacet
  facet normal 1 0 0
    outer loop
      vertex 231.1418 71.84283 0
      vertex 231.1418 89.84283 0
      vertex 231.1418 89.84283 5.925
    endloop
  endfacet
  facet normal 1 0 0
    outer loop
      vertex 231.1418 71.84283 0
      vertex 231.1418 89.84283 5.925
      vertex 231.1418 71.84283 5.925
    endloop
  endfacet
  facet normal 0 0 -1
    outer loop
      vertex 226.4857 67.18664 3.125
      vertex 61.61356 67.18664 3.125
      vertex 61.61356 85.18664 3.125
    endloop
  endfacet
  facet normal 0 0 -1
    outer loop
      vertex 226.4857 67.18664 3.125
      vertex 61.61356 85.18664 3.125
      vertex 226.4857 85.18664 3.125
    endloop
  endfacet
  facet normal 0 0 -1
    outer loop
      vertex 61.61356 67.18664 3.125
      vertex 6.656189 67.18664 3.125
      vertex 6.656189 85.18664 3.125
    endloop
  endfacet
  facet normal 0 0 -1
    outer loop
      vertex 61.61356 67.18664 3.125
      vertex 6.656189 85.18664 3.125
      vertex 61.61356 85.18664 3.125
    endloop
  endfacet
  facet normal 0.03591376 0 0.9993549
    outer loop
      vertex 226.4857 67.18664 5.925
      vertex 61.61356 85.18664 11.85
      vertex 61.61356 67.18664 11.85
    endloop
  endfacet
  facet normal 0.03591376 -0 0.9993549
    outer loop
      vertex 226.4857 67.18664 5.925
      vertex 226.4857 85.18664 5.925
      vertex 61.61356 85.18664 11.85
    endloop
  endfacet
  facet normal 0 0 1
    outer loop
      vertex 61.61356 67.18664 11.85
      vertex 6.656189 85.18664 11.85
      vertex 6.656189 67.18664 11.85
    endloop
  endfacet
  facet normal 0 -0 1
    outer loop
      vertex 61.61356 67.18664 11.85
      vertex 61.61356 85.18664 11.85
      vertex 6.656189 85.18664 11.85
    endloop
  endfacet
  facet normal 0 -1 0
    outer loop
      vertex 226.4857 67.18664 3.125
      vertex 61.61356 67.18664 11.85
      vertex 61.61356 67.18664 3.125
    endloop
  endfacet
  facet normal 0 -1 0
    outer loop
      vertex 226.4857 67.18664 3.125
      vertex 226.4857 67.18664 5.925
      vertex 61.61356 67.18664 11.85
    endloop
  endfacet
  facet normal 0 -1 0
    outer loop
      vertex 61.61356 67.18664 3.125
      vertex 6.656189 67.18664 11.85
      vertex 6.656189 67.18664 3.125
    endloop
  endfacet
  facet normal 0 -1 0
    outer loop
      vertex 61.61356 67.18664 3.125
      vertex 61.61356 67.18664 11.85
      vertex 6.656189 67.18664 11.85
    endloop
  endfacet
  facet normal 0 1 0
    outer loop
      vertex 226.4857 85.18664 3.125
      vertex 61.61356 85.18664 3.125
      vertex 61.61356 85.18664 11.85
    endloop
  endfacet
  facet normal 0 1 -0
    outer loop
      vertex 226.4857 85.18664 3.125
      vertex 61.61356 85.18664 11.85
      vertex 226.4857 85.18664 5.925
    endloop
  endfacet
  facet normal 0 1 0
    outer loop
      vertex 61.61356 85.18664 3.125
      vertex 6.656189 85.18664 3.125
      vertex 6.656189 85.18664 11.85
    endloop
  endfacet
  facet normal 0 1 -0
    outer loop
      vertex 61.61356 85.18664 3.125
      vertex 6.656189 85.18664 11.85
      vertex 61.61356 85.18664 11.85
    endloop
  endfacet
  facet normal 1 0 0
    outer loop
      vertex 226.4857 85.18664 3.125
      vertex 226.4857 67.18664 5.925
      vertex 226.4857 67.18664 3.125
    endloop
  endfacet
  facet normal 1 0 -0
    outer loop
      vertex 226.4857 85.18664 3.125
      vertex 226.4857 85.18664 5.925
      vertex 226.4857 67.18664 5.925
    endloop
  endfacet
  facet normal -1 0 0
    outer loop
      vertex 6.656189 67.18664 3.125
      vertex 6.656189 85.18664 11.85
      vertex 6.656189 85.18664 3.125
    endloop
  endfacet
  facet normal -1 0 0
    outer loop
      vertex 6.656189 67.18664 3.125
      vertex 6.656189 67.18664 11.85
      vertex 6.656189 85.18664 11.85
    endloop
  endfacet
  facet normal 0 0 -1
    outer loop
      vertex 11.31238 62.53045 9.05
      vertex 169.2002 80.53045 9.05
      vertex 169.2002 62.53045 9.05
    endloop
  endfacet
  facet normal 0 0 -1
    outer loop
      vertex 11.31238 62.53045 9.05
      vertex 11.31238 80.53045 9.05
      vertex 169.2002 80.53045 9.05
    endloop
  endfacet
  facet normal 0 0 -1
    outer loop
      vertex 169.2002 62.53045 9.05
      vertex 221.8295 80.53045 9.05
      vertex 221.8295 62.53045 9.05
    endloop
  endfacet
  facet normal 0 0 -1
    outer loop
      vertex 169.2002 62.53045 9.05
      vertex 169.2002 80.53045 9.05
      vertex 221.8295 80.53045 9.05
    endloop
  endfacet
  facet normal -0.03750025 0 0.9992966
    outer loop
      vertex 11.31238 62.53045 11.85
      vertex 169.2002 62.53045 17.775
      vertex 169.2002 80.53045 17.775
    endloop
  endfacet
  facet normal -0.03750025 0 0.9992966
    outer loop
      vertex 11.31238 62.53045 11.85
      vertex 169.2002 80.53045 17.775
      vertex 11.31238 80.53045 11.85
    endloop
  endfacet
  facet normal 0 0 1
    outer loop
      vertex 169.2002 62.53045 17.775
      vertex 221.8295 62.53045 17.775
      vertex 221.8295 80.53045 17.775
    endloop
  endfacet
  facet normal 0 0 1
    outer loop
      vertex 169.2002 62.53045 17.775
      vertex 221.8295 80.53045 17.775
      vertex 169.2002 80.53045 17.775
    endloop
  endfacet
  facet normal 0 -1 0
    outer loop
      vertex 11.31238 62.53045 9.05
      vertex 169.2002 62.53045 9.05
      vertex 169.2002 62.53045 17.775
    endloop
  endfacet
  facet normal 0 -1 0
    outer loop
      vertex 11.31238 62.53045 9.05
      vertex 169.2002 62.53045 17.775
      vertex 11.31238 62.53045 11.85
    endloop
  endfacet
  facet normal 0 -1 0
    outer loop
      vertex 169.2002 62.53045 9.05
      vertex 221.8295 62.53045 9.05
      vertex 221.8295 62.53045 17.775
    endloop
  endfacet
  facet normal 0 -1 0
    outer loop
      vertex 169.2002 62.53045 9.05
      vertex 221.8295 62.53045 17.775
      vertex 169.2002 62.53045 17.775
    endloop
  endfacet
  facet normal 0 1 0
    outer loop
      vertex 11.31238 80.53045 9.05
      vertex 169.2002 80.53045 17.775
      vertex 169.2002 80.53045 9.05
    endloop
  endfacet
  facet normal 0 1 0
    outer loop
      vertex 11.31238 80.53045 9.05
      vertex 11.31238 80.53045 11.85
      vertex 169.2002 80.53045 17.775
    endloop
  endfacet
  facet normal 0 1 0
    outer loop
      vertex 169.2002 80.53045 9.05
      vertex 221.8295 80.53045 17.775
      vertex 221.8295 80.53045 9.05
    endloop
  endfacet
  facet normal 0 1 0
    outer loop
      vertex 169.2002 80.53045 9.05
      vertex 169.2002 80.53045 17.775
      vertex 221.8295 80.53045 17.775
    endloop
  endfacet
  facet normal -1 0 0
    outer loop
      vertex 11.31238 80.53045 9.05
      vertex 11.31238 62.53045 9.05
      vertex 11.31238 62.53045 11.85
    endloop
  endfacet
  facet normal -1 0 0
    outer loop
      vertex 11.31238 80.53045 9.05
      vertex 11.31238 62.53045 11.85
      vertex 11.31238 80.53045 11.85
    endloop
  endfacet
  facet normal 1 0 0
    outer loop
      vertex 221.8295 62.53045 9.05
      vertex 221.8295 80.53045 9.05
      vertex 221.8295 80.53045 17.775
    endloop
  endfacet
  facet normal 1 0 0
    outer loop
      vertex 221.8295 62.53045 9.05
      vertex 221.8295 80.53045 17.775
      vertex 221.8295 62.53045 17.775
    endloop
  endfacet
  facet normal 0 0 -1
    outer loop
      vertex 217.1733 57.87426 14.975
      vertex 66.26974 57.87426 14.975
      vertex 66.26974 75.87426 14.975
    endloop
  endfacet
  facet normal 0 0 -1
    outer loop
      vertex 217.1733 57.87426 14.975
      vertex 66.26974 75.87426 14.975
      vertex 217.1733 75.87426 14.975
    endloop
  endfacet
  facet normal 0 0 -1
    outer loop
      vertex 66.26974 57.87426 14.975
      vertex 15.96857 57.87426 14.975
      vertex 15.96857 75.87426 14.975
    endloop
  endfacet
  facet normal 0 0 -1
    outer loop
      vertex 66.26974 57.87426 14.975
      vertex 15.96857 75.87426 14.975
      vertex 66.26974 75.87426 14.975
    endloop
  endfacet
  facet normal 0.03923326 0 0.9992301
    outer loop
      vertex 217.1733 57.87426 17.775
      vertex 66.26974 75.87426 23.7
      vertex 66.26974 57.87426 23.7
    endloop
  endfacet
  facet normal 0.03923326 -0 0.9992301
    outer loop
      vertex 217.1733 57.87426 17.775
      vertex 217.1733 75.87426 17.775
      vertex 66.26974 75.87426 23.7
    endloop
  endfacet
  facet normal 0 0 1
    outer loop
      vertex 66.26974 57.87426 23.7
      vertex 15.96857 75.87426 23.7
      vertex 15.96857 57.87426 23.7
    endloop
  endfacet
  facet normal 0 -0 1
    outer loop
      vertex 66.26974 57.87426 23.7
      vertex 66.26974 75.87426 23.7
      vertex 15.96857 75.87426 23.7
    endloop
  endfacet
  facet normal 0 -1 0
    outer loop
      vertex 217.1733 57.87426 14.975
      vertex 66.26974 57.87426 23.7
      vertex 66.26974 57.87426 14.975
    endloop
  endfacet
  facet normal 0 -1 0
    outer loop
      vertex 217.1733 57.87426 14.975
      vertex 217.1733 57.87426 17.775
      vertex 66.26974 57.87426 23.7
    endloop
  endfacet
  facet normal 0 -1 0
    outer loop
      vertex 66.26974 57.87426 14.975
      vertex 15.96857 57.87426 23.7
      vertex 15.96857 57.87426 14.975
    endloop
  endfacet
  facet normal 0 -1 0
    outer loop
      vertex 66.26974 57.87426 14.975
      vertex 66.26974 57.87426 23.7
      vertex 15.96857 57.87426 23.7
    endloop
  endfacet
  facet normal 0 1 0
    outer loop
      vertex 217.1733 75.87426 14.975
      vertex 66.26974 75.87426 14.975
      vertex 66.26974 75.87426 23.7
    endloop
  endfacet
  facet normal 0 1 -0
    outer loop
      vertex 217.1733 75.87426 14.975
      vertex 66.26974 75.87426 23.7
      vertex 217.1733 75.87426 17.775
    endloop
  endfacet
  facet normal 0 1 0
    outer loop
      vertex 66.26974 75.87426 14.975
      vertex 15.96857 75.87426 14.975
      vertex 15.96857 75.87426 23.7
    endloop
  endfacet
  facet normal 0 1 -0
    outer loop
      vertex 66.26974 75.87426 14.975
      vertex 15.96857 75.87426 23.7
      vertex 66.26974 75.87426 23.7
    endloop
  endfacet
  facet normal 1 0 0
    outer loop
      vertex 217.1733 75.87426 14.975
      vertex 217.1733 57.87426 17.775
      vertex 217.1733 57.87426 14.975
    endloop
  endfacet
  facet normal 1 0 -0
    outer loop
      vertex 217.1733 75.87426 14.975
      vertex 217.1733 75.87426 17.775
      vertex 217.1733 57.87426 17.775
    endloop
  endfacet
  facet normal -1 0 0
    outer loop
      vertex 15.96857 57.87426 14.975
      vertex 15.96857 75.87426 23.7
      vertex 15.96857 75.87426 14.975
    endloop
  endfacet
  facet normal -1 0 0
    outer loop
      vertex 15.96857 57.87426 14.975
      vertex 15.96857 57.87426 23.7
      vertex 15.96857 75.87426 23.7
    endloop
  endfacet
  facet normal 0 0 -1
    outer loop
      vertex 20.62475 53.21807 20.9
      vertex 164.544 71.21807 20.9
      vertex 164.544 53.21807 20.9
    endloop
  endfacet
  facet normal 0 0 -1
    outer loop
      vertex 20.62475 53.21807 20.9
      vertex 20.62475 71.21807 20.9
      vertex 164.544 71.21807 20.9
    endloop
  endfacet
  facet normal 0 0 -1
    outer loop
      vertex 164.544 53.21807 20.9
      vertex 212.5171 71.21807 20.9
      vertex 212.5171 53.21807 20.9
    endloop
  endfacet
  facet normal 0 0 -1
    outer loop
      vertex 164.544 53.21807 20.9
      vertex 164.544 71.21807 20.9
      vertex 212.5171 71.21807 20.9
    endloop
  endfacet
  facet normal -0.04113407 0 0.9991536
    outer loop
      vertex 20.62475 53.21807 23.7
      vertex 164.544 53.21807 29.625
      vertex 164.544 71.21807 29.625
    endloop
  endfacet
  facet normal -0.04113407 0 0.9991536
    outer loop
      vertex 20.62475 53.21807 23.7
      vertex 164.544 71.21807 29.625
      vertex 20.62475 71.21807 23.7
    endloop
  endfacet
  facet normal 0 0 1
    outer loop
      vertex 164.544 53.21807 29.625
      vertex 212.5171 53.21807 29.625
      vertex 212.5171 71.21807 29.625
    endloop
  endfacet
  facet normal 0 0 1
    outer loop
      vertex 164.544 53.21807 29.625
      vertex 212.5171 71.21807 29.625
      vertex 164.544 71.21807 29.625
    endloop
  endfacet
  facet normal 0 -1 0
    outer loop
      vertex 20.62475 53.21807 20.9
      vertex 164.544 53.21807 20.9
      vertex 164.544 53.21807 29.625
    endloop
  endfacet
  facet normal 0 -1 0
    outer loop
      vertex 20.62475 53.21807 20.9
      vertex 164.544 53.21807 29.625
      vertex 20.62475 53.21807 23.7
    endloop
  endfacet
  facet normal 0 -1 0
    outer loop
      vertex 164.544 53.21807 20.9
      vertex 212.5171 53.21807 20.9
      vertex 212.5171 53.21807 29.625
    endloop
  endfacet
  facet normal 0 -1 0
    outer loop
      vertex 164.544 53.21807 20.9
      vertex 212.5171 53.21807 29.625
      vertex 164.544 53.21807 29.625
    endloop
  endfacet
  facet normal 0 1 0
    outer loop
      vertex 20.62475 71.21807 20.9
      vertex 164.544 71.21807 29.625
      vertex 164.544 71.21807 20.9
    endloop
  endfacet
  facet normal 0 1 0
    outer loop
      vertex 20.62475 71.21807 20.9
      vertex 20.62475 71.21807 23.7
      vertex 164.544 71.21807 29.625
    endloop
  endfacet
  facet normal 0 1 0
    outer loop
      vertex 164.544 71.21807 20.9
      vertex 212.5171 71.21807 29.625
      vertex 212.5171 71.21807 20.9
    endloop
  endfacet
  facet normal 0 1 0
    outer loop
      vertex 164.544 71.21807 20.9
      vertex 164.544 71.21807 29.625
      vertex 212.5171 71.21807 29.625
    endloop
  endfacet
  facet normal -1 0 0
    outer loop
      vertex 20.62475 71.21807 20.9
      vertex 20.62475 53.21807 20.9
      vertex 20.62475 53.21807 23.7
    endloop
  endfacet
  facet normal -1 0 0
    outer loop
      vertex 20.62475 71.21807 20.9
      vertex 20.62475 53.21807 23.7
      vertex 20.62475 71.21807 23.7
    endloop
  endfacet
  facet normal 1 0 0
    outer loop
      vertex 212.5171 53.21807 20.9
      vertex 212.5171 71.21807 20.9
      vertex 212.5171 71.21807 29.625
    endloop
  endfacet
  facet normal 1 0 0
    outer loop
      vertex 212.5171 53.21807 20.9
      vertex 212.5171 71.21807 29.625
      vertex 212.5171 53.21807 29.625
    endloop
  endfacet
  facet normal 0 0 -1
    outer loop
      vertex 207.8609 48.56189 26.825
      vertex 70.92593 48.56189 26.825
      vertex 70.92593 66.56189 26.825
    endloop
  endfacet
  facet normal 0 0 -1
    outer loop
      vertex 207.8609 48.56189 26.825
      vertex 70.92593 66.56189 26.825
      vertex 207.8609 66.56189 26.825
    endloop
  endfacet
  facet normal 0 0 -1
    outer loop
      vertex 70.92593 48.56189 26.825
      vertex 25.28094 48.56189 26.825
      vertex 25.28094 66.56189 26.825
    endloop
  endfacet
  facet normal 0 0 -1
    outer loop
      vertex 70.92593 48.56189 26.825
      vertex 25.28094 66.56189 26.825
      vertex 70.92593 66.56189 26.825
    endloop
  endfacet
  facet normal 0.04322827 0 0.9990652
    outer loop
      vertex 207.8609 48.56189 29.625
      vertex 70.92593 66.56189 35.55
      vertex 70.92593 48.56189 35.55
    endloop
  endfacet
  facet normal 0.04322827 -0 0.9990652
    outer loop
      vertex 207.8609 48.56189 29.625
      vertex 207.8609 66.56189 29.625
      vertex 70.92593 66.56189 35.55
    endloop
  endfacet
  facet normal 0 0 1
    outer loop
      vertex 70.92593 48.56189 35.55
      vertex 25.28094 66.56189 35.55
      vertex 25.28094 48.56189 35.55
    endloop
  endfacet
  facet normal 0 -0 1
    outer loop
      vertex 70.92593 48.56189 35.55
      vertex 70.92593 66.56189 35.55
      vertex 25.28094 66.56189 35.55
    endloop
  endfacet
  facet normal 0 -1 0
    outer loop
      vertex 207.8609 48.56189 26.825
      vertex 70.92593 48.56189 35.55
      vertex 70.92593 48.56189 26.825
    endloop
  endfacet
  facet normal 0 -1 0
    outer loop
      vertex 207.8609 48.56189 26.825
      vertex 207.8609 48.56189 29.625
      vertex 70.92593 48.56189 35.55
    endloop
  endfacet
  facet normal 0 -1 0
    outer loop
      vertex 70.92593 48.56189 26.825
      vertex 25.28094 48.56189 35.55
      vertex 25.28094 48.56189 26.825
    endloop
  endfacet
  facet normal 0 -1 0
    outer loop
      vertex 70.92593 48.56189 26.825
      vertex 70.92593 48.56189 35.55
      vertex 25.28094 48.56189 35.55
    endloop
  endfacet
  facet normal 0 1 0
    outer loop
      vertex 207.8609 66.56189 26.825
      vertex 70.92593 66.56189 26.825
      vertex 70.92593 66.56189 35.55
    endloop
  endfacet
  facet normal 0 1 -0
    outer loop
      vertex 207.8609 66.56189 26.825
      vertex 70.92593 66.56189 35.55
      vertex 207.8609 66.56189 29.625
    endloop
  endfacet
  facet normal 0 1 0
    outer loop
      vertex 70.92593 66.56189 26.825
      vertex 25.28094 66.56189 26.825
      vertex 25.28094 66.56189 35.55
    endloop
  endfacet
  facet normal 0 1 -0
    outer loop
      vertex 70.92593 66.56189 26.825
      vertex 25.28094 66.56189 35.55
      vertex 70.92593 66.56189 35.55
    endloop
  endfacet
  facet normal 1 0 0
    outer loop
      vertex 207.8609 66.56189 26.825
      vertex 207.8609 48.56189 29.625
      vertex 207.8609 48.56189 26.825
    endloop
  endfacet
  facet normal 1 0 -0
    outer loop
      vertex 207.8609 66.56189 26.825
      vertex 207.8609 66.56189 29.625
      vertex 207.8609 48.56189 29.625
    endloop
  endfacet
  facet normal -1 0 0
    outer loop
      vertex 25.28094 48.56189 26.825
      vertex 25.28094 66.56189 35.55
      vertex 25.28094 66.56189 26.825
    endloop
  endfacet
  facet normal -1 0 0
    outer loop
      vertex 25.28094 48.56189 26.825
      vertex 25.28094 48.56189 35.55
      vertex 25.28094 66.56189 35.55
    endloop
  endfacet
  facet normal 0 0 -1
    outer loop
      vertex 29.93713 43.9057 32.75
      vertex 159.8878 61.9057 32.75
      vertex 159.8878 43.9057 32.75
    endloop
  endfacet
  facet normal 0 0 -1
    outer loop
      vertex 29.93713 43.9057 32.75
      vertex 29.93713 61.9057 32.75
      vertex 159.8878 61.9057 32.75
    endloop
  endfacet
  facet normal 0 0 -1
    outer loop
      vertex 159.8878 43.9057 32.75
      vertex 203.2047 61.9057 32.75
      vertex 203.2047 43.9057 32.75
    endloop
  endfacet
  facet normal 0 0 -1
    outer loop
      vertex 159.8878 43.9057 32.75
      vertex 159.8878 61.9057 32.75
      vertex 203.2047 61.9057 32.75
    endloop
  endfacet
  facet normal -0.0455469 0 0.9989622
    outer loop
      vertex 29.93713 43.9057 35.55
      vertex 159.8878 43.9057 41.475
      vertex 159.8878 61.9057 41.475
    endloop
  endfacet
  facet normal -0.0455469 0 0.9989622
    outer loop
      vertex 29.93713 43.9057 35.55
      vertex 159.8878 61.9057 41.475
      vertex 29.93713 61.9057 35.55
    endloop
  endfacet
  facet normal 0 0 1
    outer loop
      vertex 159.8878 43.9057 41.475
      vertex 203.2047 43.9057 41.475
      vertex 203.2047 61.9057 41.475
    endloop
  endfacet
  facet normal 0 0 1
    outer loop
      vertex 159.8878 43.9057 41.475
      vertex 203.2047 61.9057 41.475
      vertex 159.8878 61.9057 41.475
    endloop
  endfacet
  facet normal 0 -1 0
    outer loop
      vertex 29.93713 43.9057 32.75
      vertex 159.8878 43.9057 32.75
      vertex 159.8878 43.9057 41.475
    endloop
  endfacet
  facet normal 0 -1 0
    outer loop
      vertex 29.93713 43.9057 32.75
      vertex 159.8878 43.9057 41.475
      vertex 29.93713 43.9057 35.55
    endloop
  endfacet
  facet normal 0 -1 0
    outer loop
      vertex 159.8878 43.9057 32.75
      vertex 203.2047 43.9057 32.75
      vertex 203.2047 43.9057 41.475
    endloop
  endfacet
  facet normal 0 -1 0
    outer loop
      vertex 159.8878 43.9057 32.75
      vertex 203.2047 43.9057 41.475
      vertex 159.8878 43.9057 41.475
    endloop
  endfacet
  facet normal 0 1 0
    outer loop
      vertex 29.93713 61.9057 32.75
      vertex 159.8878 61.9057 41.475
      vertex 159.8878 61.9057 32.75
    endloop
  endfacet
  facet normal 0 1 0
    outer loop
      vertex 29.93713 61.9057 32.75
      vertex 29.93713 61.9057 35.55
      vertex 159.8878 61.9057 41.475
    endloop
  endfacet
  facet normal 0 1 0
    outer loop
      vertex 159.8878 61.9057 32.75
      vertex 203.2047 61.9057 41.475
      vertex 203.2047 61.9057 32.75
    endloop
  endfacet
  facet normal 0 1 0
    outer loop
      vertex 159.8878 61.9057 32.75
      vertex 159.8878 61.9057 41.475
      vertex 203.2047 61.9057 41.475
    endloop
  endfacet
  facet normal -1 0 0
    outer loop
      vertex 29.93713 61.9057 32.75
      vertex 29.93713 43.9057 32.75
      vertex 29.93713 43.9057 35.55
    endloop
  endfacet
  facet normal -1 0 0
    outer loop
      vertex 29.93713 61.9057 32.75
      vertex 29.93713 43.9057 35.55
      vertex 29.93713 61.9057 35.55
    endloop
  endfacet
  facet normal 1 0 0
    outer loop
      vertex 203.2047 43.9057 32.75
      vertex 203.2047 61.9057 32.75
      vertex 203.2047 61.9057 41.475
    endloop
  endfacet
  facet normal 1 0 0
    outer loop
      vertex 203.2047 43.9057 32.75
      vertex 203.2047 61.9057 41.475
      vertex 203.2047 43.9057 41.475
    endloop
  endfacet
  facet normal 0 0 -1
    outer loop
      vertex 198.5485 39.24951 38.675
      vertex 75.58212 39.24951 38.675
      vertex 75.58212 57.24951 38.675
    endloop
  endfacet
  facet normal 0 0 -1
    outer loop
      vertex 198.5485 39.24951 38.675
      vertex 75.58212 57.24951 38.675
      vertex 198.5485 57.24951 38.675
    endloop
  endfacet
  facet normal 0 0 -1
    outer loop
      vertex 75.58212 39.24951 38.675
      vertex 34.59332 39.24951 38.675
      vertex 34.59332 57.24951 38.675
    endloop
  endfacet
  facet normal 0 0 -1
    outer loop
      vertex 75.58212 39.24951 38.675
      vertex 34.59332 57.24951 38.675
      vertex 75.58212 57.24951 38.675
    endloop
  endfacet
  facet normal 0.04812806 0 0.9988412
    outer loop
      vertex 198.5485 39.24951 41.475
      vertex 75.58212 57.24951 47.4
      vertex 75.58212 39.24951 47.4
    endloop
  endfacet
  facet normal 0.04812806 -0 0.9988412
    outer loop
      vertex 198.5485 39.24951 41.475
      vertex 198.5485 57.24951 41.475
      vertex 75.58212 57.24951 47.4
    endloop
  endfacet
  facet normal 0 0 1
    outer loop
      vertex 75.58212 39.24951 47.4
      vertex 34.59332 57.24951 47.4
      vertex 34.59332 39.24951 47.4
    endloop
  endfacet
  facet normal 0 -0 1
    outer loop
      vertex 75.58212 39.24951 47.4
      vertex 75.58212 57.24951 47.4
      vertex 34.59332 57.24951 47.4
    endloop
  endfacet
  facet normal 0 -1 0
    outer loop
      vertex 198.5485 39.24951 38.675
      vertex 75.58212 39.24951 47.4
      vertex 75.58212 39.24951 38.675
    endloop
  endfacet
  facet normal 0 -1 0
    outer loop
      vertex 198.5485 39.24951 38.675
      vertex 198.5485 39.24951 41.475
      vertex 75.58212 39.24951 47.4
    endloop
  endfacet
  facet normal 0 -1 0
    outer loop
      vertex 75.58212 39.24951 38.675
      vertex 34.59332 39.24951 47.4
      vertex 34.59332 39.24951 38.675
    endloop
  endfacet
  facet normal 0 -1 0
    outer loop
      vertex 75.58212 39.24951 38.675
      vertex 75.58212 39.24951 47.4
      vertex 34.59332 39.24951 47.4
    endloop
  endfacet
  facet normal 0 1 0
    outer loop
      vertex 198.5485 57.24951 38.675
      vertex 75.58212 57.24951 38.675
      vertex 75.58212 57.24951 47.4
    endloop
  endfacet
  facet normal 0 1 -0
    outer loop
      vertex 198.5485 57.24951 38.675
      vertex 75.58212 57.24951 47.4
      vertex 198.5485 57.24951 41.475
    endloop
  endfacet
  facet normal 0 1 0
    outer loop
      vertex 75.58212 57.24951 38.675
      vertex 34.59332 57.24951 38.675
      vertex 34.59332 57.24951 47.4
    endloop
  endfacet
  facet normal 0 1 -0
    outer loop
      vertex 75.58212 57.24951 38.675
      vertex 34.59332 57.24951 47.4
      vertex 75.58212 57.24951 47.4
    endloop
  endfacet
  facet normal 1 0 0
    outer loop
      vertex 198.5485 57.24951 38.675
      vertex 198.5485 39.24951 41.475
      vertex 198.5485 39.24951 38.675
    endloop
  endfacet
  facet normal 1 0 -0
    outer loop
      vertex 198.5485 57.24951 38.675
      vertex 198.5485 57.24951 41.475
      vertex 198.5485 39.24951 41.475
    endloop
  endfacet
  facet normal -1 0 0
    outer loop
      vertex 34.59332 39.24951 38.675
      vertex 34.59332 57.24951 47.4
      vertex 34.59332 57.24951 38.675
    endloop
  endfacet
  facet normal -1 0 0
    outer loop
      vertex 34.59332 39.24951 38.675
      vertex 34.59332 39.24951 47.4
      vertex 34.59332 57.24951 47.4
    endloop
  endfacet
  facet normal 0 0 -1
    outer loop
      vertex 39.24951 34.59332 44.6
      vertex 155.2316 52.59332 44.6
      vertex 155.2316 34.59332 44.6
    endloop
  endfacet
  facet normal 0 0 -1
    outer loop
      vertex 39.24951 34.59332 44.6
      vertex 39.24951 52.59332 44.6
      vertex 155.2316 52.59332 44.6
    endloop
  endfacet
  facet normal 0 0 -1
    outer loop
      vertex 155.2316 34.59332 44.6
      vertex 193.8923 52.59332 44.6
      vertex 193.8923 34.59332 44.6
    endloop
  endfacet
  facet normal 0 0 -1
    outer loop
      vertex 155.2316 34.59332 44.6
      vertex 155.2316 52.59332 44.6
      vertex 193.8923 52.59332 44.6
    endloop
  endfacet
  facet normal -0.05101893 0 0.9986977
    outer loop
      vertex 39.24951 34.59332 47.4
      vertex 155.2316 34.59332 53.325
      vertex 155.2316 52.59332 53.325
    endloop
  endfacet
  facet normal -0.05101893 0 0.9986977
    outer loop
      vertex 39.24951 34.59332 47.4
      vertex 155.2316 52.59332 53.325
      vertex 39.24951 52.59332 47.4
    endloop
  endfacet
  facet normal 0 0 1
    outer loop
      vertex 155.2316 34.59332 53.325
      vertex 193.8923 34.59332 53.325
      vertex 193.8923 52.59332 53.325
    endloop
  endfacet
  facet normal 0 0 1
    outer loop
      vertex 155.2316 34.59332 53.325
      vertex 193.8923 52.59332 53.325
      vertex 155.2316 52.59332 53.325
    endloop
  endfacet
  facet normal 0 -1 0
    outer loop
      vertex 39.24951 34.59332 44.6
      vertex 155.2316 34.59332 44.6
      vertex 155.2316 34.59332 53.325
    endloop
  endfacet
  facet normal 0 -1 0
    outer loop
      vertex 39.24951 34.59332 44.6
      vertex 155.2316 34.59332 53.325
      vertex 39.24951 34.59332 47.4
    endloop
  endfacet
  facet normal 0 -1 0
    outer loop
      vertex 155.2316 34.59332 44.6
      vertex 193.8923 34.59332 44.6
      vertex 193.8923 34.59332 53.325
    endloop
  endfacet
  facet normal 0 -1 0
    outer loop
      vertex 155.2316 34.59332 44.6
      vertex 193.8923 34.59332 53.325
      vertex 155.2316 34.59332 53.325
    endloop
  endfacet
  facet normal 0 1 0
    outer loop
      vertex 39.24951 52.59332 44.6
      vertex 155.2316 52.59332 53.325
      vertex 155.2316 52.59332 44.6
    endloop
  endfacet
  facet normal 0 1 0
    outer loop
      vertex 39.24951 52.59332 44.6
      vertex 39.24951 52.59332 47.4
      vertex 155.2316 52.59332 53.325
    endloop
  endfacet
  facet normal 0 1 0
    outer loop
      vertex 155.2316 52.59332 44.6
      vertex 193.8923 52.59332 53.325
      vertex 193.8923 52.59332 44.6
    endloop
  endfacet
  facet normal 0 1 0
    outer loop
      vertex 155.2316 52.59332 44.6
      vertex 155.2316 52.59332 53.325
      vertex 193.8923 52.59332 53.325
    endloop
  endfacet
  facet normal -1 0 0
    outer loop
      vertex 39.24951 52.59332 44.6
      vertex 39.24951 34.59332 44.6
      vertex 39.24951 34.59332 47.4
    endloop
  endfacet
  facet normal -1 0 0
    outer loop
      vertex 39.24951 52.59332 44.6
      vertex 39.24951 34.59332 47.4
      vertex 39.24951 52.59332 47.4
    endloop
  endfacet
  facet normal 1 0 0
    outer loop
      vertex 193.8923 34.59332 44.6
      vertex 193.8923 52.59332 44.6
      vertex 193.8923 52.59332 53.325
    endloop
  endfacet
  facet normal 1 0 0
    outer loop
      vertex 193.8923 34.59332 44.6
      vertex 193.8923 52.59332 53.325
      vertex 193.8923 34.59332 53.325
    endloop
  endfacet
  facet normal 0 0 -1
    outer loop
      vertex 189.2361 29.93713 50.525
      vertex 80.23831 29.93713 50.525
      vertex 80.23831 47.93713 50.525
    endloop
  endfacet
  facet normal 0 0 -1
    outer loop
      vertex 189.2361 29.93713 50.525
      vertex 80.23831 47.93713 50.525
      vertex 189.2361 47.93713 50.525
    endloop
  endfacet
  facet normal 0 0 -1
    outer loop
      vertex 80.23831 29.93713 50.525
      vertex 43.9057 29.93713 50.525
      vertex 43.9057 47.93713 50.525
    endloop
  endfacet
  facet normal 0 0 -1
    outer loop
      vertex 80.23831 29.93713 50.525
      vertex 43.9057 47.93713 50.525
      vertex 80.23831 47.93713 50.525
    endloop
  endfacet
  facet normal 0.05427874 0 0.9985258
    outer loop
      vertex 189.2361 29.93713 53.325
      vertex 80.23831 47.93713 59.25
      vertex 80.23831 29.93713 59.25
    endloop
  endfacet
  facet normal 0.05427874 -0 0.9985258
    outer loop
      vertex 189.2361 29.93713 53.325
      vertex 189.2361 47.93713 53.325
      vertex 80.23831 47.93713 59.25
    endloop
  endfacet
  facet normal 0 0 1
    outer loop
      vertex 80.23831 29.93713 59.25
      vertex 43.9057 47.93713 59.25
      vertex 43.9057 29.93713 59.25
    endloop
  endfacet
  facet normal 0 -0 1
    outer loop
      vertex 80.23831 29.93713 59.25
      vertex 80.23831 47.93713 59.25
      vertex 43.9057 47.93713 59.25
    endloop
  endfacet
  facet normal 0 -1 0
    outer loop
      vertex 189.2361 29.93713 50.525
      vertex 80.23831 29.93713 59.25
      vertex 80.23831 29.93713 50.525
    endloop
  endfacet
  facet normal 0 -1 0
    outer loop
      vertex 189.2361 29.93713 50.525
      vertex 189.2361 29.93713 53.325
      vertex 80.23831 29.93713 59.25
    endloop
  endfacet
  facet normal 0 -1 0
    outer loop
      vertex 80.23831 29.93713 50.525
      vertex 43.9057 29.93713 59.25
      vertex 43.9057 29.93713 50.525
    endloop
  endfacet
  facet normal 0 -1 0
    outer loop
      vertex 80.23831 29.93713 50.525
      vertex 80.23831 29.93713 59.25
      vertex 43.9057 29.93713 59.25
    endloop
  endfacet
  facet normal 0 1 0
    outer loop
      vertex 189.2361 47.93713 50.525
      vertex 80.23831 47.93713 50.525
      vertex 80.23831 47.93713 59.25
    endloop
  endfacet
  facet normal 0 1 -0
    outer loop
      vertex 189.2361 47.93713 50.525
      vertex 80.23831 47.93713 59.25
      vertex 189.2361 47.93713 53.325
    endloop
  endfacet
  facet normal 0 1 0
    outer loop
      vertex 80.23831 47.93713 50.525
      vertex 43.9057 47.93713 50.525
      vertex 43.9057 47.93713 59.25
    endloop
  endfacet
  facet normal 0 1 -0
    outer loop
      vertex 80.23831 47.93713 50.525
      vertex 43.9057 47.93713 59.25
      vertex 80.23831 47.93713 59.25
    endloop
  endfacet
  facet normal 1 0 0
    outer loop
      vertex 189.2361 47.93713 50.525
      vertex 189.2361 29.93713 53.325
      vertex 189.2361 29.93713 50.525
    endloop
  endfacet
  facet normal 1 0 -0
    outer loop
      vertex 189.2361 47.93713 50.525
      vertex 189.2361 47.93713 53.325
      vertex 189.2361 29.93713 53.325
    endloop
  endfacet
  facet normal -1 0 0
    outer loop
      vertex 43.9057 29.93713 50.525
      vertex 43.9057 47.93713 59.25
      vertex 43.9057 47.93713 50.525
    endloop
  endfacet
  facet normal -1 0 0
    outer loop
      vertex 43.9057 29.93713 50.525
      vertex 43.9057 29.93713 59.25
      vertex 43.9057 47.93713 59.25
    endloop
  endfacet
  facet normal 0 0 -1
    outer loop
      vertex 48.56189 25.28094 56.45
      vertex 150.5754 43.28094 56.45
      vertex 150.5754 25.28094 56.45
    endloop
  endfacet
  facet normal 0 0 -1
    outer loop
      vertex 48.56189 25.28094 56.45
      vertex 48.56189 43.28094 56.45
      vertex 150.5754 43.28094 56.45
    endloop
  endfacet
  facet normal 0 0 -1
    outer loop
      vertex 150.5754 25.28094 56.45
      vertex 184.58 43.28094 56.45
      vertex 184.58 25.28094 56.45
    endloop
  endfacet
  facet normal 0 0 -1
    outer loop
      vertex 150.5754 25.28094 56.45
      vertex 150.5754 43.28094 56.45
      vertex 184.58 43.28094 56.45
    endloop
  endfacet
  facet normal -0.0579828 0 0.9983176
    outer loop
      vertex 48.56189 25.28094 59.25
      vertex 150.5754 25.28094 65.175
      vertex 150.5754 43.28094 65.175
    endloop
  endfacet
  facet normal -0.0579828 0 0.9983176
    outer loop
      vertex 48.56189 25.28094 59.25
      vertex 150.5754 43.28094 65.175
      vertex 48.56189 43.28094 59.25
    endloop
  endfacet
  facet normal 0 0 1
    outer loop
      vertex 150.5754 25.28094 65.175
      vertex 184.58 25.28094 65.175
      vertex 184.58 43.28094 65.175
    endloop
  endfacet
  facet normal 0 0 1
    outer loop
      vertex 150.5754 25.28094 65.175
      vertex 184.58 43.28094 65.175
      vertex 150.5754 43.28094 65.175
    endloop
  endfacet
  facet normal 0 -1 0
    outer loop
      vertex 48.56189 25.28094 56.45
      vertex 150.5754 25.28094 56.45
      vertex 150.5754 25.28094 65.175
    endloop
  endfacet
  facet normal 0 -1 0
    outer loop
      vertex 48.56189 25.28094 56.45
      vertex 150.5754 25.28094 65.175
      vertex 48.56189 25.28094 59.25
    endloop
  endfacet
  facet normal 0 -1 0
    outer loop
      vertex 150.5754 25.28094 56.45
      vertex 184.58 25.28094 56.45
      vertex 184.58 25.28094 65.175
    endloop
  endfacet
  facet normal 0 -1 0
    outer loop
      vertex 150.5754 25.28094 56.45
      vertex 184.58 25.28094 65.175
      vertex 150.5754 25.28094 65.175
    endloop
  endfacet
  facet normal 0 1 0
    outer loop
      vertex 48.56189 43.28094 56.45
      vertex 150.5754 43.28094 65.175
      vertex 150.5754 43.28094 56.45
    endloop
  endfacet
  facet normal 0 1 0
    outer loop
      vertex 48.56189 43.28094 56.45
      vertex 48.56189 43.28094 59.25
      vertex 150.5754 43.28094 65.175
    endloop
  endfacet
  facet normal 0 1 0
    outer loop
      vertex 150.5754 43.28094 56.45
      vertex 184.58 43.28094 65.175
      vertex 184.58 43.28094 56.45
    endloop
  endfacet
  facet normal 0 1 0
    outer loop
      vertex 150.5754 43.28094 56.45
      vertex 150.5754 43.28094 65.175
      vertex 184.58 43.28094 65.175
    endloop
  endfacet
  facet normal -1 0 0
    outer loop
      vertex 48.56189 43.28094 56.45
      vertex 48.56189 25.28094 56.45
      vertex 48.56189 25.28094 59.25
    endloop
  endfacet
  facet normal -1 0 0
    outer loop
      vertex 48.56189 43.28094 56.45
      vertex 48.56189 25.28094 59.25
      vertex 48.56189 43.28094 59.25
    endloop
  endfacet
  facet normal 1 0 0
    outer loop
      vertex 184.58 25.28094 56.45
      vertex 184.58 43.28094 56.45
      vertex 184.58 43.28094 65.175
    endloop
  endfacet
  facet normal 1 0 0
    outer loop
      vertex 184.58 25.28094 56.45
      vertex 184.58 43.28094 65.175
      vertex 184.58 25.28094 65.175
    endloop
  endfacet
  facet normal 0 0 -1
    outer loop
      vertex 179.9238 20.62475 62.375
      vertex 84.8945 20.62475 62.375
      vertex 84.8945 38.62475 62.375
    endloop
  endfacet
  facet normal 0 0 -1
    outer loop
      vertex 179.9238 20.62475 62.375
      vertex 84.8945 38.62475 62.375
      vertex 179.9238 38.62475 62.375
    endloop
  endfacet
  facet normal 0 0 -1
    outer loop
      vertex 84.8945 20.62475 62.375
      vertex 53.21807 20.62475 62.375
      vertex 53.21807 38.62475 62.375
    endloop
  endfacet
  facet normal 0 0 -1
    outer loop
      vertex 84.8945 20.62475 62.375
      vertex 53.21807 38.62475 62.375
      vertex 84.8945 38.62475 62.375
    endloop
  endfacet
  facet normal 0.06222837 0 0.9980619
    outer loop
      vertex 179.9238 20.62475 65.175
      vertex 84.8945 38.62475 71.1
      vertex 84.8945 20.62475 71.1
    endloop
  endfacet
  facet normal 0.06222837 -0 0.9980619
    outer loop
      vertex 179.9238 20.62475 65.175
      vertex 179.9238 38.62475 65.175
      vertex 84.8945 38.62475 71.1
    endloop
  endfacet
  facet normal 0 0 1
    outer loop
      vertex 84.8945 20.62475 71.1
      vertex 53.21807 38.62475 71.1
      vertex 53.21807 20.62475 71.1
    endloop
  endfacet
  facet normal 0 -0 1
    outer loop
      vertex 84.8945 20.62475 71.1
      vertex 84.8945 38.62475 71.1
      vertex 53.21807 38.62475 71.1
    endloop
  endfacet
  facet normal 0 -1 0
    outer loop
      vertex 179.9238 20.62475 62.375
      vertex 84.8945 20.62475 71.1
      vertex 84.8945 20.62475 62.375
    endloop
  endfacet
  facet normal 0 -1 0
    outer loop
      vertex 179.9238 20.62475 62.375
      vertex 179.9238 20.62475 65.175
      vertex 84.8945 20.62475 71.1
    endloop
  endfacet
  facet normal 0 -1 0
    outer loop
      vertex 84.8945 20.62475 62.375
      vertex 53.21807 20.62475 71.1
      vertex 53.21807 20.62475 62.375
    endloop
  endfacet
  facet normal 0 -1 0
    outer loop
      vertex 84.8945 20.62475 62.375
      vertex 84.8945 20.62475 71.1
      vertex 53.21807 20.62475 71.1
    endloop
  endfacet
  facet normal 0 1 0
    outer loop
      vertex 179.9238 38.62475 62.375
      vertex 84.8945 38.62475 62.375
      vertex 84.8945 38.62475 71.1
    endloop
  endfacet
  facet normal 0 1 -0
    outer loop
      vertex 179.9238 38.62475 62.375
      vertex 84.8945 38.62475 71.1
      vertex 179.9238 38.62475 65.175
    endloop
  endfacet
  facet normal 0 1 0
    outer loop
      vertex 84.8945 38.62475 62.375
      vertex 53.21807 38.62475 62.375
      vertex 53.21807 38.62475 71.1
    endloop
  endfacet
  facet normal 0 1 -0
    outer loop
      vertex 84.8945 38.62475 62.375
      vertex 53.21807 38.62475 71.1
      vertex 84.8945 38.62475 71.1
    endloop
  endfacet
  facet normal 1 0 0
    outer loop
      vertex 179.9238 38.62475 62.375
      vertex 179.9238 20.62475 65.175
      vertex 179.9238 20.62475 62.375
    endloop
  endfacet
  facet normal 1 0 -0
    outer loop
      vertex 179.9238 38.62475 62.375
      vertex 179.9238 38.62475 65.175
      vertex 179.9238 20.62475 65.175
    endloop
  endfacet
  facet normal -1 0 0
    outer loop
      vertex 53.21807 20.62475 62.375
      vertex 53.21807 38.62475 71.1
      vertex 53.21807 38.62475 62.375
    endloop
  endfacet
  facet normal -1 0 0
    outer loop
      vertex 53.21807 20.62475 62.375
      vertex 53.21807 20.62475 71.1
      vertex 53.21807 38.62475 71.1
    endloop
  endfacet
  facet normal 0 0 -1
    outer loop
      vertex 57.87426 15.96857 68.3
      vertex 145.9193 33.96857 68.3
      vertex 145.9193 15.96857 68.3
    endloop
  endfacet
  facet normal 0 0 -1
    outer loop
      vertex 57.87426 15.96857 68.3
      vertex 57.87426 33.96857 68.3
      vertex 145.9193 33.96857 68.3
    endloop
  endfacet
  facet normal 0 0 -1
    outer loop
      vertex 145.9193 15.96857 68.3
      vertex 175.2676 33.96857 68.3
      vertex 175.2676 15.96857 68.3
    endloop
  endfacet
  facet normal 0 0 -1
    outer loop
      vertex 145.9193 15.96857 68.3
      vertex 145.9193 33.96857 68.3
      vertex 175.2676 33.96857 68.3
    endloop
  endfacet
  facet normal -0.06714328 0 0.9977433
    outer loop
      vertex 57.87426 15.96857 71.1
      vertex 145.9193 15.96857 77.025
      vertex 145.9193 33.96857 77.025
    endloop
  endfacet
  facet normal -0.06714328 0 0.9977433
    outer loop
      vertex 57.87426 15.96857 71.1
      vertex 145.9193 33.96857 77.025
      vertex 57.87426 33.96857 71.1
    endloop
  endfacet
  facet normal 0 0 1
    outer loop
      vertex 145.9193 15.96857 77.025
      vertex 175.2676 15.96857 77.025
      vertex 175.2676 33.96857 77.025
    endloop
  endfacet
  facet normal 0 0 1
    outer loop
      vertex 145.9193 15.96857 77.025
      vertex 175.2676 33.96857 77.025
      vertex 145.9193 33.96857 77.025
    endloop
  endfacet
  facet normal 0 -1 0
    outer loop
      vertex 57.87426 15.96857 68.3
      vertex 145.9193 15.96857 68.3
      vertex 145.9193 15.96857 77.025
    endloop
  endfacet
  facet normal 0 -1 0
    outer loop
      vertex 57.87426 15.96857 68.3
      vertex 145.9193 15.96857 77.025
      vertex 57.87426 15.96857 71.1
    endloop
  endfacet
  facet normal 0 -1 0
    outer loop
      vertex 145.9193 15.96857 68.3
      vertex 175.2676 15.96857 68.3
      vertex 175.2676 15.96857 77.025
    endloop
  endfacet
  facet normal 0 -1 0
    outer loop
      vertex 145.9193 15.96857 68.3
      vertex 175.2676 15.96857 77.025
      vertex 145.9193 15.96857 77.025
    endloop
  endfacet
  facet normal 0 1 0
    outer loop
      vertex 57.87426 33.96857 68.3
      vertex 145.9193 33.96857 77.025
      vertex 145.9193 33.96857 68.3
    endloop
  endfacet
  facet normal 0 1 0
    outer loop
      vertex 57.87426 33.96857 68.3
      vertex 57.87426 33.96857 71.1
      vertex 145.9193 33.96857 77.025
    endloop
  endfacet
  facet normal 0 1 0
    outer loop
      vertex 145.9193 33.96857 68.3
      vertex 175.2676 33.96857 77.025
      vertex 175.2676 33.96857 68.3
    endloop
  endfacet
  facet normal 0 1 0
    outer loop
      vertex 145.9193 33.96857 68.3
      vertex 145.9193 33.96857 77.025
      vertex 175.2676 33.96857 77.025
    endloop
  endfacet
  facet normal -1 0 0
    outer loop
      vertex 57.87426 33.96857 68.3
      vertex 57.87426 15.96857 68.3
      vertex 57.87426 15.96857 71.1
    endloop
  endfacet
  facet normal -1 0 0
    outer loop
      vertex 57.87426 33.96857 68.3
      vertex 57.87426 15.96857 71.1
      vertex 57.87426 33.96857 71.1
    endloop
  endfacet
  facet normal 1 0 0
    outer loop
      vertex 175.2676 15.96857 68.3
      vertex 175.2676 33.96857 68.3
      vertex 175.2676 33.96857 77.025
    endloop
  endfacet
  facet normal 1 0 0
    outer loop
      vertex 175.2676 15.96857 68.3
      vertex 175.2676 33.96857 77.025
      vertex 175.2676 15.96857 77.025
    endloop
  endfacet
  facet normal 0 0 -1
    outer loop
      vertex 170.6114 11.31238 74.225
      vertex 89.55069 11.31238 74.225
      vertex 89.55069 29.31238 74.225
    endloop
  endfacet
  facet normal 0 0 -1
    outer loop
      vertex 170.6114 11.31238 74.225
      vertex 89.55069 29.31238 74.225
      vertex 170.6114 29.31238 74.225
    endloop
  endfacet
  facet normal 0 0 -1
    outer loop
      vertex 89.55069 11.31238 74.225
      vertex 62.53045 11.31238 74.225
      vertex 62.53045 29.31238 74.225
    endloop
  endfacet
  facet normal 0 0 -1
    outer loop
      vertex 89.55069 11.31238 74.225
      vertex 62.53045 29.31238 74.225
      vertex 89.55069 29.31238 74.225
    endloop
  endfacet
  facet normal 0.07289889 0 0.9973393
    outer loop
      vertex 170.6114 11.31238 77.025
      vertex 89.55069 29.31238 82.95
      vertex 89.55069 11.31238 82.95
    endloop
  endfacet
  facet normal 0.07289889 -0 0.9973393
    outer loop
      vertex 170.6114 11.31238 77.025
      vertex 170.6114 29.31238 77.025
      vertex 89.55069 29.31238 82.95
    endloop
  endfacet
  facet normal 0 0 1
    outer loop
      vertex 89.55069 11.31238 82.95
      vertex 62.53045 29.31238 82.95
      vertex 62.53045 11.31238 82.95
    endloop
  endfacet
  facet normal 0 -0 1
    outer loop
      vertex 89.55069 11.31238 82.95
      vertex 89.55069 29.31238 82.95
      vertex 62.53045 29.31238 82.95
    endloop
  endfacet
  facet normal 0 -1 0
    outer loop
      vertex 170.6114 11.31238 74.225
      vertex 89.55069 11.31238 82.95
      vertex 89.55069 11.31238 74.225
    endloop
  endfacet
  facet normal 0 -1 0
    outer loop
      vertex 170.6114 11.31238 74.225
      vertex 170.6114 11.31238 77.025
      vertex 89.55069 11.31238 82.95
    endloop
  endfacet
  facet normal 0 -1 0
    outer loop
      vertex 89.55069 11.31238 74.225
      vertex 62.53045 11.31238 82.95
      vertex 62.53045 11.31238 74.225
    endloop
  endfacet
  facet normal 0 -1 0
    outer loop
      vertex 89.55069 11.31238 74.225
      vertex 89.55069 11.31238 82.95
      vertex 62.53045 11.31238 82.95
    endloop
  endfacet
  facet normal 0 1 0
    outer loop
      vertex 170.6114 29.31238 74.225
      vertex 89.55069 29.31238 74.225
      vertex 89.55069 29.31238 82.95
    endloop
  endfacet
  facet normal 0 1 -0
    outer loop
      vertex 170.6114 29.31238 74.225
      vertex 89.55069 29.31238 82.95
      vertex 170.6114 29.31238 77.025
    endloop
  endfacet
  facet normal 0 1 0
    outer loop
      vertex 89.55069 29.31238 74.225
      vertex 62.53045 29.31238 74.225
      vertex 62.53045 29.31238 82.95
    endloop
  endfacet
  facet normal 0 1 -0
    outer loop
      vertex 89.55069 29.31238 74.225
      vertex 62.53045 29.31238 82.95
      vertex 89.55069 29.31238 82.95
    endloop
  endfacet
  facet normal 1 0 0
    outer loop
      vertex 170.6114 29.31238 74.225
      vertex 170.6114 11.31238 77.025
      vertex 170.6114 11.31238 74.225
    endloop
  endfacet
  facet normal 1 0 -0
    outer loop
      vertex 170.6114 29.31238 74.225
      vertex 170.6114 29.31238 77.025
      vertex 170.6114 11.31238 77.025
    endloop
  endfacet
  facet normal -1 0 0
    outer loop
      vertex 62.53045 11.31238 74.225
      vertex 62.53045 29.31238 82.95
      vertex 62.53045 29.31238 74.225
    endloop
  endfacet
  facet normal -1 0 0
    outer loop
      vertex 62.53045 11.31238 74.225
      vertex 62.53045 11.31238 82.95
      vertex 62.53045 29.31238 82.95
    endloop
  endfacet
  facet normal 0 0 -1
    outer loop
      vertex 67.18664 6.656189 80.15
      vertex 141.2631 24.65619 80.15
      vertex 141.2631 6.656189 80.15
    endloop
  endfacet
  facet normal 0 0 -1
    outer loop
      vertex 67.18664 6.656189 80.15
      vertex 67.18664 24.65619 80.15
      vertex 141.2631 24.65619 80.15
    endloop
  endfacet
  facet normal 0 0 -1
    outer loop
      vertex 141.2631 6.656189 80.15
      vertex 165.9552 24.65619 80.15
      vertex 165.9552 6.656189 80.15
    endloop
  endfacet
  facet normal 0 0 -1
    outer loop
      vertex 141.2631 6.656189 80.15
      vertex 141.2631 24.65619 80.15
      vertex 165.9552 24.65619 80.15
    endloop
  endfacet
  facet normal -0.07973033 0 0.9968165
    outer loop
      vertex 67.18664 6.656189 82.95
      vertex 141.2631 6.656189 88.875
      vertex 141.2631 24.65619 88.875
    endloop
  endfacet
  facet normal -0.07973033 0 0.9968165
    outer loop
      vertex 67.18664 6.656189 82.95
      vertex 141.2631 24.65619 88.875
      vertex 67.18664 24.65619 82.95
    endloop
  endfacet
  facet normal 0 0 1
    outer loop
      vertex 141.2631 6.656189 88.875
      vertex 165.9552 6.656189 88.875
      vertex 165.9552 24.65619 88.875
    endloop
  endfacet
  facet normal 0 0 1
    outer loop
      vertex 141.2631 6.656189 88.875
      vertex 165.9552 24.65619 88.875
      vertex 141.2631 24.65619 88.875
    endloop
  endfacet
  facet normal 0 -1 0
    outer loop
      vertex 67.18664 6.656189 80.15
      vertex 141.2631 6.656189 80.15
      vertex 141.2631 6.656189 88.875
    endloop
  endfacet
  facet normal 0 -1 0
    outer loop
      vertex 67.18664 6.656189 80.15
      vertex 141.2631 6.656189 88.875
      vertex 67.18664 6.656189 82.95
    endloop
  endfacet
  facet normal 0 -1 0
    outer loop
      vertex 141.2631 6.656189 80.15
      vertex 165.9552 6.656189 80.15
      vertex 165.9552 6.656189 88.875
    endloop
  endfacet
  facet normal 0 -1 0
    outer loop
      vertex 141.2631 6.656189 80.15
      vertex 165.9552 6.656189 88.875
      vertex 141.2631 6.656189 88.875
    endloop
  endfacet
  facet normal 0 1 0
    outer loop
      vertex 67.18664 24.65619 80.15
      vertex 141.2631 24.65619 88.875
      vertex 141.2631 24.65619 80.15
    endloop
  endfacet
  facet normal 0 1 0
    outer loop
      vertex 67.18664 24.65619 80.15
      vertex 67.18664 24.65619 82.95
      vertex 141.2631 24.65619 88.875
    endloop
  endfacet
  facet normal 0 1 0
    outer loop
      vertex 141.2631 24.65619 80.15
      vertex 165.9552 24.65619 88.875
      vertex 165.9552 24.65619 80.15
    endloop
  endfacet
  facet normal 0 1 0
    outer loop
      vertex 141.2631 24.65619 80.15
      vertex 141.2631 24.65619 88.875
      vertex 165.9552 24.65619 88.875
    endloop
  endfacet
  facet normal -1 0 0
    outer loop
      vertex 67.18664 24.65619 80.15
      vertex 67.18664 6.656189 80.15
      vertex 67.18664 6.656189 82.95
    endloop
  endfacet
  facet normal -1 0 0
    outer loop
      vertex 67.18664 24.65619 80.15
      vertex 67.18664 6.656189 82.95
      vertex 67.18664 24.65619 82.95
    endloop
  endfacet
  facet normal 1 0 0
    outer loop
      vertex 165.9552 6.656189 80.15
      vertex 165.9552 24.65619 80.15
      vertex 165.9552 24.65619 88.875
    endloop
  endfacet
  facet normal 1 0 0
    outer loop
      vertex 165.9552 6.656189 80.15
      vertex 165.9552 24.65619 88.875
      vertex 165.9552 6.656189 88.875
    endloop
  endfacet
  facet normal 0 0 -1
    outer loop
      vertex 161.299 2 86.075
      vertex 94.20688 2 86.075
      vertex 94.20688 20 86.075
    endloop
  endfacet
  facet normal 0 0 -1
    outer loop
      vertex 161.299 2 86.075
      vertex 94.20688 20 86.075
      vertex 161.299 20 86.075
    endloop
  endfacet
  facet normal 0 0 -1
    outer loop
      vertex 94.20688 2 86.075
      vertex 71.84283 2 86.075
      vertex 71.84283 20 86.075
    endloop
  endfacet
  facet normal 0 0 -1
    outer loop
      vertex 94.20688 2 86.075
      vertex 71.84283 20 86.075
      vertex 94.20688 20 86.075
    endloop
  endfacet
  facet normal 0.08796902 0 0.9961232
    outer loop
      vertex 161.299 2 88.875
      vertex 94.20688 20 94.8
      vertex 94.20688 2 94.8
    endloop
  endfacet
  facet normal 0.08796902 -0 0.9961232
    outer loop
      vertex 161.299 2 88.875
      vertex 161.299 20 88.875
      vertex 94.20688 20 94.8
    endloop
  endfacet
  facet normal 0 0 1
    outer loop
      vertex 94.20688 2 94.8
      vertex 71.84283 20 94.8
      vertex 71.84283 2 94.8
    endloop
  endfacet
  facet normal 0 -0 1
    outer loop
      vertex 94.20688 2 94.8
      vertex 94.20688 20 94.8
      vertex 71.84283 20 94.8
    endloop
  endfacet
  facet normal 0 -1 0
    outer loop
      vertex 161.299 2 86.075
      vertex 94.20688 2 94.8
      vertex 94.20688 2 86.075
    endloop
  endfacet
  facet normal 0 -1 0
    outer loop
      vertex 161.299 2 86.075
      vertex 161.299 2 88.875
      vertex 94.20688 2 94.8
    endloop
  endfacet
  facet normal 0 -1 0
    outer loop
      vertex 94.20688 2 86.075
      vertex 71.84283 2 94.8
      vertex 71.84283 2 86.075
    endloop
  endfacet
  facet normal 0 -1 0
    outer loop
      vertex 94.20688 2 86.075
      vertex 94.20688 2 94.8
      vertex 71.84283 2 94.8
    endloop
  endfacet
  facet normal 0 1 0
    outer loop
      vertex 161.299 20 86.075
      vertex 94.20688 20 86.075
      vertex 94.20688 20 94.8
    endloop
  endfacet
  facet normal 0 1 -0
    outer loop
      vertex 161.299 20 86.075
      vertex 94.20688 20 94.8
      vertex 161.299 20 88.875
    endloop
  endfacet
  facet normal 0 1 0
    outer loop
      vertex 94.20688 20 86.075
      vertex 71.84283 20 86.075
      vertex 71.84283 20 94.8
    endloop
  endfacet
  facet normal 0 1 -0
    outer loop
      vertex 94.20688 20 86.075
      vertex 71.84283 20 94.8
      vertex 94.20688 20 94.8
    endloop
  endfacet
  facet normal 1 0 0
    outer loop
      vertex 161.299 20 86.075
      vertex 161.299 2 88.875
      vertex 161.299 2 86.075
    endloop
  endfacet
  facet normal 1 0 -0
    outer loop
      vertex 161.299 20 86.075
      vertex 161.299 20 88.875
      vertex 161.299 2 88.875
    endloop
  endfacet
  facet normal -1 0 0
    outer loop
      vertex 71.84283 2 86.075
      vertex 71.84283 20 94.8
      vertex 71.84283 20 86.075
    endloop
  endfacet
  facet normal -1 0 0
    outer loop
      vertex 71.84283 2 86.075
      vertex 71.84283 2 94.8
      vertex 71.84283 20 94.8
    endloop
  endfacet
endsolid temporary_switchback_ramps_north_local_underfill
