solid temporary_switchback_ramps_east_local_underfill
  facet normal 0 -0 -1
    outer loop
      vertex 85.18664 257.8295 0
      vertex 85.18664 2 0
      vertex 69.51473 2 0
    endloop
  endfacet
  facet normal -0 0 -1
    outer loop
      vertex 85.18664 257.8295 0
      vertex 69.51473 2 0
      vertex 69.51473 257.8295 0
    endloop
  endfacet
  facet normal 0 0 1
    outer loop
      vertex 69.51473 257.8295 5.925
      vertex 69.51473 2 5.925
      vertex 85.18664 2 5.925
    endloop
  endfacet
  facet normal -0 0 1
    outer loop
      vertex 69.51473 257.8295 5.925
      vertex 85.18664 2 5.925
      vertex 85.18664 257.8295 5.925
    endloop
  endfacet
  facet normal -1 0 0
    outer loop
      vertex 69.51473 257.8295 0
      vertex 69.51473 2 0
      vertex 69.51473 2 5.925
    endloop
  endfacet
  facet normal -1 0 0
    outer loop
      vertex 69.51473 257.8295 0
      vertex 69.51473 2 5.925
      vertex 69.51473 257.8295 5.925
    endloop
  endfacet
  facet normal 0 -1 0
    outer loop
      vertex 69.51473 2 0
      vertex 85.18664 2 0
      vertex 85.18664 2 5.925
    endloop
  endfacet
  facet normal 0 -1 0
    outer loop
      vertex 69.51473 2 0
      vertex 85.18664 2 5.925
      vertex 69.51473 2 5.925
    endloop
  endfacet
  facet normal 1 0 0
    outer loop
      vertex 85.18664 2 0
      vertex 85.18664 257.8295 0
      vertex 85.18664 257.8295 5.925
    endloop
  endfacet
  facet normal 1 0 0
    outer loop
      vertex 85.18664 2 0
      vertex 85.18664 257.8295 5.925
      vertex 85.18664 2 5.925
    endloop
  endfacet
  facet normal 0 1 0
    outer loop
      vertex 85.18664 257.8295 0
      vertex 69.51473 257.8295 0
      vertex 69.51473 257.8295 5.925
    endloop
  endfacet
  facet normal 0 1 -0
    outer loop
      vertex 85.18664 257.8295 0
      vertex 69.51473 257.8295 5.925
      vertex 85.18664 257.8295 5.925
    endloop
  endfacet
  facet normal 0 -0 -1
    outer loop
      vertex 80.53045 253.1733 5.925
      vertex 80.53045 6.656189 5.925
      vertex 64.85855 6.656189 5.925
    endloop
  endfacet
  facet normal -0 0 -1
    outer loop
      vertex 80.53045 253.1733 5.925
      vertex 64.85855 6.656189 5.925
      vertex 64.85855 253.1733 5.925
    endloop
  endfacet
  facet normal 0 0 1
    outer loop
      vertex 64.85855 253.1733 11.85
      vertex 64.85855 6.656189 11.85
      vertex 80.53045 6.656189 11.85
    endloop
  endfacet
  facet normal -0 0 1
    outer loop
      vertex 64.85855 253.1733 11.85
      vertex 80.53045 6.656189 11.85
      vertex 80.53045 253.1733 11.85
    endloop
  endfacet
  facet normal -1 0 0
    outer loop
      vertex 64.85855 253.1733 5.925
      vertex 64.85855 6.656189 5.925
      vertex 64.85855 6.656189 11.85
    endloop
  endfacet
  facet normal -1 0 0
    outer loop
      vertex 64.85855 253.1733 5.925
      vertex 64.85855 6.656189 11.85
      vertex 64.85855 253.1733 11.85
    endloop
  endfacet
  facet normal 0 -1 0
    outer loop
      vertex 64.85855 6.656189 5.925
      vertex 80.53045 6.656189 5.925
      vertex 80.53045 6.656189 11.85
    endloop
  endfacet
  facet normal 0 -1 0
    outer loop
      vertex 64.85855 6.656189 5.925
      vertex 80.53045 6.656189 11.85
      vertex 64.85855 6.656189 11.85
    endloop
  endfacet
  facet normal 1 0 0
    outer loop
      vertex 80.53045 6.656189 5.925
      vertex 80.53045 253.1733 5.925
      vertex 80.53045 253.1733 11.85
    endloop
  endfacet
  facet normal 1 0 0
    outer loop
      vertex 80.53045 6.656189 5.925
      vertex 80.53045 253.1733 11.85
      vertex 80.53045 6.656189 11.85
    endloop
  endfacet
  facet normal 0 1 0
    outer loop
      vertex 80.53045 253.1733 5.925
      vertex 64.85855 253.1733 5.925
      vertex 64.85855 253.1733 11.85
    endloop
  endfacet
  facet normal 0 1 -0
    outer loop
      vertex 80.53045 253.1733 5.925
      vertex 64.85855 253.1733 11.85
      vertex 80.53045 253.1733 11.85
    endloop
  endfacet
  facet normal 0 -0 -1
    outer loop
      vertex 75.87426 248.5171 11.85
      vertex 75.87426 11.31238 11.85
      vertex 60.20236 11.31238 11.85
    endloop
  endfacet
  facet normal -0 0 -1
    outer loop
      vertex 75.87426 248.5171 11.85
      vertex 60.20236 11.31238 11.85
      vertex 60.20236 248.5171 11.85
    endloop
  endfacet
  facet normal 0 0 1
    outer loop
      vertex 60.20236 248.5171 17.775
      vertex 60.20236 11.31238 17.775
      vertex 75.87426 11.31238 17.775
    endloop
  endfacet
  facet normal -0 0 1
    outer loop
      vertex 60.20236 248.5171 17.775
      vertex 75.87426 11.31238 17.775
      vertex 75.87426 248.5171 17.775
    endloop
  endfacet
  facet normal -1 0 0
    outer loop
      vertex 60.20236 248.5171 11.85
      vertex 60.20236 11.31238 11.85
      vertex 60.20236 11.31238 17.775
    endloop
  endfacet
  facet normal -1 0 0
    outer loop
      vertex 60.20236 248.5171 11.85
      vertex 60.20236 11.31238 17.775
      vertex 60.20236 248.5171 17.775
    endloop
  endfacet
  facet normal 0 -1 0
    outer loop
      vertex 60.20236 11.31238 11.85
      vertex 75.87426 11.31238 11.85
      vertex 75.87426 11.31238 17.775
    endloop
  endfacet
  facet normal 0 -1 0
    outer loop
      vertex 60.20236 11.31238 11.85
      vertex 75.87426 11.31238 17.775
      vertex 60.20236 11.31238 17.775
    endloop
  endfacet
  facet normal 1 0 0
    outer loop
      vertex 75.87426 11.31238 11.85
      vertex 75.87426 248.5171 11.85
      vertex 75.87426 248.5171 17.775
    endloop
  endfacet
  facet normal 1 0 0
    outer loop
      vertex 75.87426 11.31238 11.85
      vertex 75.87426 248.5171 17.775
      vertex 75.87426 11.31238 17.775
    endloop
  endfacet
  facet normal 0 1 0
    outer loop
      vertex 75.87426 248.5171 11.85
      vertex 60.20236 248.5171 11.85
      vertex 60.20236 248.5171 17.775
    endloop
  endfacet
  facet normal 0 1 -0
    outer loop
      vertex 75.87426 248.5171 11.85
      vertex 60.20236 248.5171 17.775
      vertex 75.87426 248.5171 17.775
    endloop
  endfacet
  facet normal 0 -0 -1
    outer loop
      vertex 71.21807 243.8609 17.775
      vertex 71.21807 15.96857 17.775
      vertex 55.54617 15.96857 17.775
    endloop
  endfacet
  facet normal -0 0 -1
    outer loop
      vertex 71.21807 243.8609 17.775
      vertex 55.54617 15.96857 17.775
      vertex 55.54617 243.8609 17.775
    endloop
  endfacet
  facet normal 0 0 1
    outer loop
      vertex 55.54617 243.8609 23.7
      vertex 55.54617 15.96857 23.7
      vertex 71.21807 15.96857 23.7
    endloop
  endfacet
  facet normal -0 0 1
    outer loop
      vertex 55.54617 243.8609 23.7
      vertex 71.21807 15.96857 23.7
      vertex 71.21807 243.8609 23.7
    endloop
  endfacet
  facet normal -1 0 0
    outer loop
      vertex 55.54617 243.8609 17.775
      vertex 55.54617 15.96857 17.775
      vertex 55.54617 15.96857 23.7
    endloop
  endfacet
  facet normal -1 0 0
    outer loop
      vertex 55.54617 243.8609 17.775
      vertex 55.54617 15.96857 23.7
      vertex 55.54617 243.8609 23.7
    endloop
  endfacet
  facet normal 0 -1 0
    outer loop
      vertex 55.54617 15.96857 17.775
      vertex 71.21807 15.96857 17.775
      vertex 71.21807 15.96857 23.7
    endloop
  endfacet
  facet normal 0 -1 0
    outer loop
      vertex 55.54617 15.96857 17.775
      vertex 71.21807 15.96857 23.7
      vertex 55.54617 15.96857 23.7
    endloop
  endfacet
  facet normal 1 0 0
    outer loop
      vertex 71.21807 15.96857 17.775
      vertex 71.21807 243.8609 17.775
      vertex 71.21807 243.8609 23.7
    endloop
  endfacet
  facet normal 1 0 0
    outer loop
      vertex 71.21807 15.96857 17.775
      vertex 71.21807 243.8609 23.7
      vertex 71.21807 15.96857 23.7
    endloop
  endfacet
  facet normal 0 1 0
    outer loop
      vertex 71.21807 243.8609 17.775
      vertex 55.54617 243.8609 17.775
      vertex 55.54617 243.8609 23.7
    endloop
  endfacet
  facet normal 0 1 -0
    outer loop
      vertex 71.21807 243.8609 17.775
      vertex 55.54617 243.8609 23.7
      vertex 71.21807 243.8609 23.7
    endloop
  endfacet
  facet normal 0 -0 -1
    outer loop
      vertex 66.56189 239.2047 23.7
      vertex 66.56189 20.62475 23.7
      vertex 50.88998 20.62475 23.7
    endloop
  endfacet
  facet normal -0 0 -1
    outer loop
      vertex 66.56189 239.2047 23.7
      vertex 50.88998 20.62475 23.7
      vertex 50.88998 239.2047 23.7
    endloop
  endfacet
  facet normal 0 0 1
    outer loop
      vertex 50.88998 239.2047 29.625
      vertex 50.88998 20.62475 29.625
      vertex 66.56189 20.62475 29.625
    endloop
  endfacet
  facet normal -0 0 1
    outer loop
      vertex 50.88998 239.2047 29.625
      vertex 66.56189 20.62475 29.625
      vertex 66.56189 239.2047 29.625
    endloop
  endfacet
  facet normal -1 0 0
    outer loop
      vertex 50.88998 239.2047 23.7
      vertex 50.88998 20.62475 23.7
      vertex 50.88998 20.62475 29.625
    endloop
  endfacet
  facet normal -1 0 0
    outer loop
      vertex 50.88998 239.2047 23.7
      vertex 50.88998 20.62475 29.625
      vertex 50.88998 239.2047 29.625
    endloop
  endfacet
  facet normal 0 -1 0
    outer loop
      vertex 50.88998 20.62475 23.7
      vertex 66.56189 20.62475 23.7
      vertex 66.56189 20.62475 29.625
    endloop
  endfacet
  facet normal 0 -1 0
    outer loop
      vertex 50.88998 20.62475 23.7
      vertex 66.56189 20.62475 29.625
      vertex 50.88998 20.62475 29.625
    endloop
  endfacet
  facet normal 1 0 0
    outer loop
      vertex 66.56189 20.62475 23.7
      vertex 66.56189 239.2047 23.7
      vertex 66.56189 239.2047 29.625
    endloop
  endfacet
  facet normal 1 0 0
    outer loop
      vertex 66.56189 20.62475 23.7
      vertex 66.56189 239.2047 29.625
      vertex 66.56189 20.62475 29.625
    endloop
  endfacet
  facet normal 0 1 0
    outer loop
      vertex 66.56189 239.2047 23.7
      vertex 50.88998 239.2047 23.7
      vertex 50.88998 239.2047 29.625
    endloop
  endfacet
  facet normal 0 1 -0
    outer loop
      vertex 66.56189 239.2047 23.7
      vertex 50.88998 239.2047 29.625
      vertex 66.56189 239.2047 29.625
    endloop
  endfacet
  facet normal 0 -0 -1
    outer loop
      vertex 61.9057 234.5485 29.625
      vertex 61.9057 25.28094 29.625
      vertex 46.23379 25.28094 29.625
    endloop
  endfacet
  facet normal -0 0 -1
    outer loop
      vertex 61.9057 234.5485 29.625
      vertex 46.23379 25.28094 29.625
      vertex 46.23379 234.5485 29.625
    endloop
  endfacet
  facet normal 0 0 1
    outer loop
      vertex 46.23379 234.5485 35.55
      vertex 46.23379 25.28094 35.55
      vertex 61.9057 25.28094 35.55
    endloop
  endfacet
  facet normal -0 0 1
    outer loop
      vertex 46.23379 234.5485 35.55
      vertex 61.9057 25.28094 35.55
      vertex 61.9057 234.5485 35.55
    endloop
  endfacet
  facet normal -1 0 0
    outer loop
      vertex 46.23379 234.5485 29.625
      vertex 46.23379 25.28094 29.625
      vertex 46.23379 25.28094 35.55
    endloop
  endfacet
  facet normal -1 0 0
    outer loop
      vertex 46.23379 234.5485 29.625
      vertex 46.23379 25.28094 35.55
      vertex 46.23379 234.5485 35.55
    endloop
  endfacet
  facet normal 0 -1 0
    outer loop
      vertex 46.23379 25.28094 29.625
      vertex 61.9057 25.28094 29.625
      vertex 61.9057 25.28094 35.55
    endloop
  endfacet
  facet normal 0 -1 0
    outer loop
      vertex 46.23379 25.28094 29.625
      vertex 61.9057 25.28094 35.55
      vertex 46.23379 25.28094 35.55
    endloop
  endfacet
  facet normal 1 0 0
    outer loop
      vertex 61.9057 25.28094 29.625
      vertex 61.9057 234.5485 29.625
      vertex 61.9057 234.5485 35.55
    endloop
  endfacet
  facet normal 1 0 0
    outer loop
      vertex 61.9057 25.28094 29.625
      vertex 61.9057 234.5485 35.55
      vertex 61.9057 25.28094 35.55
    endloop
  endfacet
  facet normal 0 1 0
    outer loop
      vertex 61.9057 234.5485 29.625
      vertex 46.23379 234.5485 29.625
      vertex 46.23379 234.5485 35.55
    endloop
  endfacet
  facet normal 0 1 -0
    outer loop
      vertex 61.9057 234.5485 29.625
      vertex 46.23379 234.5485 35.55
      vertex 61.9057 234.5485 35.55
    endloop
  endfacet
  facet normal 0 -0 -1
    outer loop
      vertex 57.24951 229.8923 35.55
      vertex 57.24951 29.93713 35.55
      vertex 41.5776 29.93713 35.55
    endloop
  endfacet
  facet normal -0 0 -1
    outer loop
      vertex 57.24951 229.8923 35.55
      vertex 41.5776 29.93713 35.55
      vertex 41.5776 229.8923 35.55
    endloop
  endfacet
  facet normal 0 0 1
    outer loop
      vertex 41.5776 229.8923 41.475
      vertex 41.5776 29.93713 41.475
      vertex 57.24951 29.93713 41.475
    endloop
  endfacet
  facet normal -0 0 1
    outer loop
      vertex 41.5776 229.8923 41.475
      vertex 57.24951 29.93713 41.475
      vertex 57.24951 229.8923 41.475
    endloop
  endfacet
  facet normal -1 0 0
    outer loop
      vertex 41.5776 229.8923 35.55
      vertex 41.5776 29.93713 35.55
      vertex 41.5776 29.93713 41.475
    endloop
  endfacet
  facet normal -1 0 0
    outer loop
      vertex 41.5776 229.8923 35.55
      vertex 41.5776 29.93713 41.475
      vertex 41.5776 229.8923 41.475
    endloop
  endfacet
  facet normal 0 -1 0
    outer loop
      vertex 41.5776 29.93713 35.55
      vertex 57.24951 29.93713 35.55
      vertex 57.24951 29.93713 41.475
    endloop
  endfacet
  facet normal 0 -1 0
    outer loop
      vertex 41.5776 29.93713 35.55
      vertex 57.24951 29.93713 41.475
      vertex 41.5776 29.93713 41.475
    endloop
  endfacet
  facet normal 1 0 0
    outer loop
      vertex 57.24951 29.93713 35.55
      vertex 57.24951 229.8923 35.55
      vertex 57.24951 229.8923 41.475
    endloop
  endfacet
  facet normal 1 0 0
    outer loop
      vertex 57.24951 29.93713 35.55
      vertex 57.24951 229.8923 41.475
      vertex 57.24951 29.93713 41.475
    endloop
  endfacet
  facet normal 0 1 0
    outer loop
      vertex 57.24951 229.8923 35.55
      vertex 41.5776 229.8923 35.55
      vertex 41.5776 229.8923 41.475
    endloop
  endfacet
  facet normal 0 1 -0
    outer loop
      vertex 57.24951 229.8923 35.55
      vertex 41.5776 229.8923 41.475
      vertex 57.24951 229.8923 41.475
    endloop
  endfacet
  facet normal 0 -0 -1
    outer loop
      vertex 52.59332 225.2361 41.475
      vertex 52.59332 34.59332 41.475
      vertex 36.92141 34.59332 41.475
    endloop
  endfacet
  facet normal -0 0 -1
    outer loop
      vertex 52.59332 225.2361 41.475
      vertex 36.92141 34.59332 41.475
      vertex 36.92141 225.2361 41.475
    endloop
  endfacet
  facet normal 0 0 1
    outer loop
      vertex 36.92141 225.2361 47.4
      vertex 36.92141 34.59332 47.4
      vertex 52.59332 34.59332 47.4
    endloop
  endfacet
  facet normal -0 0 1
    outer loop
      vertex 36.92141 225.2361 47.4
      vertex 52.59332 34.59332 47.4
      vertex 52.59332 225.2361 47.4
    endloop
  endfacet
  facet normal -1 0 0
    outer loop
      vertex 36.92141 225.2361 41.475
      vertex 36.92141 34.59332 41.475
      vertex 36.92141 34.59332 47.4
    endloop
  endfacet
  facet normal -1 0 0
    outer loop
      vertex 36.92141 225.2361 41.475
      vertex 36.92141 34.59332 47.4
      vertex 36.92141 225.2361 47.4
    endloop
  endfacet
  facet normal 0 -1 0
    outer loop
      vertex 36.92141 34.59332 41.475
      vertex 52.59332 34.59332 41.475
      vertex 52.59332 34.59332 47.4
    endloop
  endfacet
  facet normal 0 -1 0
    outer loop
      vertex 36.92141 34.59332 41.475
      vertex 52.59332 34.59332 47.4
      vertex 36.92141 34.59332 47.4
    endloop
  endfacet
  facet normal 1 0 0
    outer loop
      vertex 52.59332 34.59332 41.475
      vertex 52.59332 225.2361 41.475
      vertex 52.59332 225.2361 47.4
    endloop
  endfacet
  facet normal 1 0 0
    outer loop
      vertex 52.59332 34.59332 41.475
      vertex 52.59332 225.2361 47.4
      vertex 52.59332 34.59332 47.4
    endloop
  endfacet
  facet normal 0 1 0
    outer loop
      vertex 52.59332 225.2361 41.475
      vertex 36.92141 225.2361 41.475
      vertex 36.92141 225.2361 47.4
    endloop
  endfacet
  facet normal 0 1 -0
    outer loop
      vertex 52.59332 225.2361 41.475
      vertex 36.92141 225.2361 47.4
      vertex 52.59332 225.2361 47.4
    endloop
  endfacet
  facet normal 0 -0 -1
    outer loop
      vertex 47.93713 220.58 47.4
      vertex 47.93713 39.24951 47.4
      vertex 32.26523 39.24951 47.4
    endloop
  endfacet
  facet normal -0 0 -1
    outer loop
      vertex 47.93713 220.58 47.4
      vertex 32.26523 39.24951 47.4
      vertex 32.26523 220.58 47.4
    endloop
  endfacet
  facet normal 0 0 1
    outer loop
      vertex 32.26523 220.58 53.325
      vertex 32.26523 39.24951 53.325
      vertex 47.93713 39.24951 53.325
    endloop
  endfacet
  facet normal -0 0 1
    outer loop
      vertex 32.26523 220.58 53.325
      vertex 47.93713 39.24951 53.325
      vertex 47.93713 220.58 53.325
    endloop
  endfacet
  facet normal -1 0 0
    outer loop
      vertex 32.26523 220.58 47.4
      vertex 32.26523 39.24951 47.4
      vertex 32.26523 39.24951 53.325
    endloop
  endfacet
  facet normal -1 0 0
    outer loop
      vertex 32.26523 220.58 47.4
      vertex 32.26523 39.24951 53.325
      vertex 32.26523 220.58 53.325
    endloop
  endfacet
  facet normal 0 -1 0
    outer loop
      vertex 32.26523 39.24951 47.4
      vertex 47.93713 39.24951 47.4
      vertex 47.93713 39.24951 53.325
    endloop
  endfacet
  facet normal 0 -1 0
    outer loop
      vertex 32.26523 39.24951 47.4
      vertex 47.93713 39.24951 53.325
      vertex 32.26523 39.24951 53.325
    endloop
  endfacet
  facet normal 1 0 0
    outer loop
      vertex 47.93713 39.24951 47.4
      vertex 47.93713 220.58 47.4
      vertex 47.93713 220.58 53.325
    endloop
  endfacet
  facet normal 1 0 0
    outer loop
      vertex 47.93713 39.24951 47.4
      vertex 47.93713 220.58 53.325
      vertex 47.93713 39.24951 53.325
    endloop
  endfacet
  facet normal 0 1 0
    outer loop
      vertex 47.93713 220.58 47.4
      vertex 32.26523 220.58 47.4
      vertex 32.26523 220.58 53.325
    endloop
  endfacet
  facet normal 0 1 -0
    outer loop
      vertex 47.93713 220.58 47.4
      vertex 32.26523 220.58 53.325
      vertex 47.93713 220.58 53.325
    endloop
  endfacet
  facet normal 0 -0 -1
    outer loop
      vertex 43.28094 215.9238 53.325
      vertex 43.28094 43.9057 53.325
      vertex 27.60904 43.9057 53.325
    endloop
  endfacet
  facet normal -0 0 -1
    outer loop
      vertex 43.28094 215.9238 53.325
      vertex 27.60904 43.9057 53.325
      vertex 27.60904 215.9238 53.325
    endloop
  endfacet
  facet normal 0 0 1
    outer loop
      vertex 27.60904 215.9238 59.25
      vertex 27.60904 43.9057 59.25
      vertex 43.28094 43.9057 59.25
    endloop
  endfacet
  facet normal -0 0 1
    outer loop
      vertex 27.60904 215.9238 59.25
      vertex 43.28094 43.9057 59.25
      vertex 43.28094 215.9238 59.25
    endloop
  endfacet
  facet normal -1 0 0
    outer loop
      vertex 27.60904 215.9238 53.325
      vertex 27.60904 43.9057 53.325
      vertex 27.60904 43.9057 59.25
    endloop
  endfacet
  facet normal -1 0 0
    outer loop
      vertex 27.60904 215.9238 53.325
      vertex 27.60904 43.9057 59.25
      vertex 27.60904 215.9238 59.25
    endloop
  endfacet
  facet normal 0 -1 0
    outer loop
      vertex 27.60904 43.9057 53.325
      vertex 43.28094 43.9057 53.325
      vertex 43.28094 43.9057 59.25
    endloop
  endfacet
  facet normal 0 -1 0
    outer loop
      vertex 27.60904 43.9057 53.325
      vertex 43.28094 43.9057 59.25
      vertex 27.60904 43.9057 59.25
    endloop
  endfacet
  facet normal 1 0 0
    outer loop
      vertex 43.28094 43.9057 53.325
      vertex 43.28094 215.9238 53.325
      vertex 43.28094 215.9238 59.25
    endloop
  endfacet
  facet normal 1 0 0
    outer loop
      vertex 43.28094 43.9057 53.325
      vertex 43.28094 215.9238 59.25
      vertex 43.28094 43.9057 59.25
    endloop
  endfacet
  facet normal 0 1 0
    outer loop
      vertex 43.28094 215.9238 53.325
      vertex 27.60904 215.9238 53.325
      vertex 27.60904 215.9238 59.25
    endloop
  endfacet
  facet normal 0 1 -0
    outer loop
      vertex 43.28094 215.9238 53.325
      vertex 27.60904 215.9238 59.25
      vertex 43.28094 215.9238 59.25
    endloop
  endfacet
  facet normal 0 -0 -1
    outer loop
      vertex 38.62475 211.2676 59.25
      vertex 38.62475 48.56189 59.25
      vertex 22.95285 48.56189 59.25
    endloop
  endfacet
  facet normal -0 0 -1
    outer loop
      vertex 38.62475 211.2676 59.25
      vertex 22.95285 48.56189 59.25
      vertex 22.95285 211.2676 59.25
    endloop
  endfacet
  facet normal 0 0 1
    outer loop
      vertex 22.95285 211.2676 65.175
      vertex 22.95285 48.56189 65.175
      vertex 38.62475 48.56189 65.175
    endloop
  endfacet
  facet normal -0 0 1
    outer loop
      vertex 22.95285 211.2676 65.175
      vertex 38.62475 48.56189 65.175
      vertex 38.62475 211.2676 65.175
    endloop
  endfacet
  facet normal -1 0 0
    outer loop
      vertex 22.95285 211.2676 59.25
      vertex 22.95285 48.56189 59.25
      vertex 22.95285 48.56189 65.175
    endloop
  endfacet
  facet normal -1 0 0
    outer loop
      vertex 22.95285 211.2676 59.25
      vertex 22.95285 48.56189 65.175
      vertex 22.95285 211.2676 65.175
    endloop
  endfacet
  facet normal 0 -1 0
    outer loop
      vertex 22.95285 48.56189 59.25
      vertex 38.62475 48.56189 59.25
      vertex 38.62475 48.56189 65.175
    endloop
  endfacet
  facet normal 0 -1 0
    outer loop
      vertex 22.95285 48.56189 59.25
      vertex 38.62475 48.56189 65.175
      vertex 22.95285 48.56189 65.175
    endloop
  endfacet
  facet normal 1 0 0
    outer loop
      vertex 38.62475 48.56189 59.25
      vertex 38.62475 211.2676 59.25
      vertex 38.62475 211.2676 65.175
    endloop
  endfacet
  facet normal 1 0 0
    outer loop
      vertex 38.62475 48.56189 59.25
      vertex 38.62475 211.2676 65.175
      vertex 38.62475 48.56189 65.175
    endloop
  endfacet
  facet normal 0 1 0
    outer loop
      vertex 38.62475 211.2676 59.25
      vertex 22.95285 211.2676 59.25
      vertex 22.95285 211.2676 65.175
    endloop
  endfacet
  facet normal 0 1 -0
    outer loop
      vertex 38.62475 211.2676 59.25
      vertex 22.95285 211.2676 65.175
      vertex 38.62475 211.2676 65.175
    endloop
  endfacet
  facet normal 0 -0 -1
    outer loop
      vertex 33.96857 206.6114 65.175
      vertex 33.96857 53.21807 65.175
      vertex 18.29666 53.21807 65.175
    endloop
  endfacet
  facet normal -0 0 -1
    outer loop
      vertex 33.96857 206.6114 65.175
      vertex 18.29666 53.21807 65.175
      vertex 18.29666 206.6114 65.175
    endloop
  endfacet
  facet normal 0 0 1
    outer loop
      vertex 18.29666 206.6114 71.1
      vertex 18.29666 53.21807 71.1
      vertex 33.96857 53.21807 71.1
    endloop
  endfacet
  facet normal -0 0 1
    outer loop
      vertex 18.29666 206.6114 71.1
      vertex 33.96857 53.21807 71.1
      vertex 33.96857 206.6114 71.1
    endloop
  endfacet
  facet normal -1 0 0
    outer loop
      vertex 18.29666 206.6114 65.175
      vertex 18.29666 53.21807 65.175
      vertex 18.29666 53.21807 71.1
    endloop
  endfacet
  facet normal -1 0 0
    outer loop
      vertex 18.29666 206.6114 65.175
      vertex 18.29666 53.21807 71.1
      vertex 18.29666 206.6114 71.1
    endloop
  endfacet
  facet normal 0 -1 0
    outer loop
      vertex 18.29666 53.21807 65.175
      vertex 33.96857 53.21807 65.175
      vertex 33.96857 53.21807 71.1
    endloop
  endfacet
  facet normal 0 -1 0
    outer loop
      vertex 18.29666 53.21807 65.175
      vertex 33.96857 53.21807 71.1
      vertex 18.29666 53.21807 71.1
    endloop
  endfacet
  facet normal 1 0 0
    outer loop
      vertex 33.96857 53.21807 65.175
      vertex 33.96857 206.6114 65.175
      vertex 33.96857 206.6114 71.1
    endloop
  endfacet
  facet normal 1 0 0
    outer loop
      vertex 33.96857 53.21807 65.175
      vertex 33.96857 206.6114 71.1
      vertex 33.96857 53.21807 71.1
    endloop
  endfacet
  facet normal 0 1 0
    outer loop
      vertex 33.96857 206.6114 65.175
      vertex 18.29666 206.6114 65.175
      vertex 18.29666 206.6114 71.1
    endloop
  endfacet
  facet normal 0 1 -0
    outer loop
      vertex 33.96857 206.6114 65.175
      vertex 18.29666 206.6114 71.1
      vertex 33.96857 206.6114 71.1
    endloop
  endfacet
  facet normal 0 -0 -1
    outer loop
      vertex 29.31238 201.9552 71.1
      vertex 29.31238 57.87426 71.1
      vertex 13.64047 57.87426 71.1
    endloop
  endfacet
  facet normal -0 0 -1
    outer loop
      vertex 29.31238 201.9552 71.1
      vertex 13.64047 57.87426 71.1
      vertex 13.64047 201.9552 71.1
    endloop
  endfacet
  facet normal 0 0 1
    outer loop
      vertex 13.64047 201.9552 77.025
      vertex 13.64047 57.87426 77.025
      vertex 29.31238 57.87426 77.025
    endloop
  endfacet
  facet normal -0 0 1
    outer loop
      vertex 13.64047 201.9552 77.025
      vertex 29.31238 57.87426 77.025
      vertex 29.31238 201.9552 77.025
    endloop
  endfacet
  facet normal -1 0 0
    outer loop
      vertex 13.64047 201.9552 71.1
      vertex 13.64047 57.87426 71.1
      vertex 13.64047 57.87426 77.025
    endloop
  endfacet
  facet normal -1 0 0
    outer loop
      vertex 13.64047 201.9552 71.1
      vertex 13.64047 57.87426 77.025
      vertex 13.64047 201.9552 77.025
    endloop
  endfacet
  facet normal 0 -1 0
    outer loop
      vertex 13.64047 57.87426 71.1
      vertex 29.31238 57.87426 71.1
      vertex 29.31238 57.87426 77.025
    endloop
  endfacet
  facet normal 0 -1 0
    outer loop
      vertex 13.64047 57.87426 71.1
      vertex 29.31238 57.87426 77.025
      vertex 13.64047 57.87426 77.025
    endloop
  endfacet
  facet normal 1 0 0
    outer loop
      vertex 29.31238 57.87426 71.1
      vertex 29.31238 201.9552 71.1
      vertex 29.31238 201.9552 77.025
    endloop
  endfacet
  facet normal 1 0 0
    outer loop
      vertex 29.31238 57.87426 71.1
      vertex 29.31238 201.9552 77.025
      vertex 29.31238 57.87426 77.025
    endloop
  endfacet
  facet normal 0 1 0
    outer loop
      vertex 29.31238 201.9552 71.1
      vertex 13.64047 201.9552 71.1
      vertex 13.64047 201.9552 77.025
    endloop
  endfacet
  facet normal 0 1 -0
    outer loop
      vertex 29.31238 201.9552 71.1
      vertex 13.64047 201.9552 77.025
      vertex 29.31238 201.9552 77.025
    endloop
  endfacet
  facet normal 0 -0 -1
    outer loop
      vertex 24.65619 197.299 77.025
      vertex 24.65619 62.53045 77.025
      vertex 8.984283 62.53045 77.025
    endloop
  endfacet
  facet normal -0 0 -1
    outer loop
      vertex 24.65619 197.299 77.025
      vertex 8.984283 62.53045 77.025
      vertex 8.984283 197.299 77.025
    endloop
  endfacet
  facet normal 0 0 1
    outer loop
      vertex 8.984283 197.299 82.95
      vertex 8.984283 62.53045 82.95
      vertex 24.65619 62.53045 82.95
    endloop
  endfacet
  facet normal -0 0 1
    outer loop
      vertex 8.984283 197.299 82.95
      vertex 24.65619 62.53045 82.95
      vertex 24.65619 197.299 82.95
    endloop
  endfacet
  facet normal -1 0 0
    outer loop
      vertex 8.984283 197.299 77.025
      vertex 8.984283 62.53045 77.025
      vertex 8.984283 62.53045 82.95
    endloop
  endfacet
  facet normal -1 0 0
    outer loop
      vertex 8.984283 197.299 77.025
      vertex 8.984283 62.53045 82.95
      vertex 8.984283 197.299 82.95
    endloop
  endfacet
  facet normal 0 -1 0
    outer loop
      vertex 8.984283 62.53045 77.025
      vertex 24.65619 62.53045 77.025
      vertex 24.65619 62.53045 82.95
    endloop
  endfacet
  facet normal 0 -1 0
    outer loop
      vertex 8.984283 62.53045 77.025
      vertex 24.65619 62.53045 82.95
      vertex 8.984283 62.53045 82.95
    endloop
  endfacet
  facet normal 1 0 0
    outer loop
      vertex 24.65619 62.53045 77.025
      vertex 24.65619 197.299 77.025
      vertex 24.65619 197.299 82.95
    endloop
  endfacet
  facet normal 1 0 0
    outer loop
      vertex 24.65619 62.53045 77.025
      vertex 24.65619 197.299 82.95
      vertex 24.65619 62.53045 82.95
    endloop
  endfacet
  facet normal 0 1 0
    outer loop
      vertex 24.65619 197.299 77.025
      vertex 8.984283 197.299 77.025
      vertex 8.984283 197.299 82.95
    endloop
  endfacet
  facet normal 0 1 -0
    outer loop
      vertex 24.65619 197.299 77.025
      vertex 8.984283 197.299 82.95
      vertex 24.65619 197.299 82.95
    endloop
  endfacet
  facet normal 0 -0 -1
    outer loop
      vertex 20 192.6428 82.95
      vertex 20 67.18664 82.95
      vertex 4.328094 67.18664 82.95
    endloop
  endfacet
  facet normal -0 0 -1
    outer loop
      vertex 20 192.6428 82.95
      vertex 4.328094 67.18664 82.95
      vertex 4.328094 192.6428 82.95
    endloop
  endfacet
  facet normal 0 0 1
    outer loop
      vertex 4.328094 192.6428 88.875
      vertex 4.328094 67.18664 88.875
      vertex 20 67.18664 88.875
    endloop
  endfacet
  facet normal -0 0 1
    outer loop
      vertex 4.328094 192.6428 88.875
      vertex 20 67.18664 88.875
      vertex 20 192.6428 88.875
    endloop
  endfacet
  facet normal -1 0 0
    outer loop
      vertex 4.328094 192.6428 82.95
      vertex 4.328094 67.18664 82.95
      vertex 4.328094 67.18664 88.875
    endloop
  endfacet
  facet normal -1 0 0
    outer loop
      vertex 4.328094 192.6428 82.95
      vertex 4.328094 67.18664 88.875
      vertex 4.328094 192.6428 88.875
    endloop
  endfacet
  facet normal 0 -1 0
    outer loop
      vertex 4.328094 67.18664 82.95
      vertex 20 67.18664 82.95
      vertex 20 67.18664 88.875
    endloop
  endfacet
  facet normal 0 -1 0
    outer loop
      vertex 4.328094 67.18664 82.95
      vertex 20 67.18664 88.875
      vertex 4.328094 67.18664 88.875
    endloop
  endfacet
  facet normal 1 0 0
    outer loop
      vertex 20 67.18664 82.95
      vertex 20 192.6428 82.95
      vertex 20 192.6428 88.875
    endloop
  endfacet
  facet normal 1 0 0
    outer loop
      vertex 20 67.18664 82.95
      vertex 20 192.6428 88.875
      vertex 20 67.18664 88.875
    endloop
  endfacet
  facet normal 0 1 0
    outer loop
      vertex 20 192.6428 82.95
      vertex 4.328094 192.6428 82.95
      vertex 4.328094 192.6428 88.875
    endloop
  endfacet
  facet normal 0 1 -0
    outer loop
      vertex 20 192.6428 82.95
      vertex 4.328094 192.6428 88.875
      vertex 20 192.6428 88.875
    endloop
  endfacet
  facet normal 0 0 -1
    outer loop
      vertex 71.84283 15.34381 0
      vertex 71.84283 187.2002 0
      vertex 89.84283 187.2002 0
    endloop
  endfacet
  facet normal 0 0 -1
    outer loop
      vertex 71.84283 15.34381 0
      vertex 89.84283 187.2002 0
      vertex 89.84283 15.34381 0
    endloop
  endfacet
  facet normal 0 0 -1
    outer loop
      vertex 71.84283 187.2002 0
      vertex 71.84283 244.4857 0
      vertex 89.84283 244.4857 0
    endloop
  endfacet
  facet normal 0 0 -1
    outer loop
      vertex 71.84283 187.2002 0
      vertex 89.84283 244.4857 0
      vertex 89.84283 187.2002 0
    endloop
  endfacet
  facet normal 0 -0.02922704 0.9995728
    outer loop
      vertex 71.84283 15.34381 0.9
      vertex 89.84283 187.2002 5.925
      vertex 71.84283 187.2002 5.925
    endloop
  endfacet
  facet normal 0 -0.02922704 0.9995728
    outer loop
      vertex 71.84283 15.34381 0.9
      vertex 89.84283 15.34381 0.9
      vertex 89.84283 187.2002 5.925
    endloop
  endfacet
  facet normal 0 0 1
    outer loop
      vertex 71.84283 187.2002 5.925
      vertex 89.84283 244.4857 5.925
      vertex 71.84283 244.4857 5.925
    endloop
  endfacet
  facet normal 0 0 1
    outer loop
      vertex 71.84283 187.2002 5.925
      vertex 89.84283 187.2002 5.925
      vertex 89.84283 244.4857 5.925
    endloop
  endfacet
  facet normal -1 0 0
    outer loop
      vertex 71.84283 15.34381 0
      vertex 71.84283 187.2002 5.925
      vertex 71.84283 187.2002 0
    endloop
  endfacet
  facet normal -1 0 0
    outer loop
      vertex 71.84283 15.34381 0
      vertex 71.84283 15.34381 0.9
      vertex 71.84283 187.2002 5.925
    endloop
  endfacet
  facet normal -1 0 0
    outer loop
      vertex 71.84283 187.2002 0
      vertex 71.84283 244.4857 5.925
      vertex 71.84283 244.4857 0
    endloop
  endfacet
  facet normal -1 0 0
    outer loop
      vertex 71.84283 187.2002 0
      vertex 71.84283 187.2002 5.925
      vertex 71.84283 244.4857 5.925
    endloop
  endfacet
  facet normal 1 0 0
    outer loop
      vertex 89.84283 15.34381 0
      vertex 89.84283 187.2002 0
      vertex 89.84283 187.2002 5.925
    endloop
  endfacet
  facet normal 1 0 0
    outer loop
      vertex 89.84283 15.34381 0
      vertex 89.84283 187.2002 5.925
      vertex 89.84283 15.34381 0.9
    endloop
  endfacet
  facet normal 1 0 0
    outer loop
      vertex 89.84283 187.2002 0
      vertex 89.84283 244.4857 0
      vertex 89.84283 244.4857 5.925
    endloop
  endfacet
  facet normal 1 0 0
    outer loop
      vertex 89.84283 187.2002 0
      vertex 89.84283 244.4857 5.925
      vertex 89.84283 187.2002 5.925
    endloop
  endfacet
  facet normal 0 -1 0
    outer loop
      vertex 89.84283 15.34381 0
      vertex 71.84283 15.34381 0.9
      vertex 71.84283 15.34381 0
    endloop
  endfacet
  facet normal 0 -1 0
    outer loop
      vertex 89.84283 15.34381 0
      vertex 89.84283 15.34381 0.9
      vertex 71.84283 15.34381 0.9
    endloop
  endfacet
  facet normal 0 1 0
    outer loop
      vertex 71.84283 244.4857 0
      vertex 89.84283 244.4857 5.925
      vertex 89.84283 244.4857 0
    endloop
  endfacet
  facet normal 0 1 0
    outer loop
      vertex 71.84283 244.4857 0
      vertex 71.84283 244.4857 5.925
      vertex 89.84283 244.4857 5.925
    endloop
  endfacet
  facet normal 0 0 -1
    outer loop
      vertex 67.18664 239.8295 3.125
      vertex 85.18664 74.95737 3.125
      vertex 67.18664 74.95737 3.125
    endloop
  endfacet
  facet normal 0 0 -1
    outer loop
      vertex 67.18664 239.8295 3.125
      vertex 85.18664 239.8295 3.125
      vertex 85.18664 74.95737 3.125
    endloop
  endfacet
  facet normal 0 0 -1
    outer loop
      vertex 67.18664 74.95737 3.125
      vertex 85.18664 20 3.125
      vertex 67.18664 20 3.125
    endloop
  endfacet
  facet normal 0 0 -1
    outer loop
      vertex 67.18664 74.95737 3.125
      vertex 85.18664 74.95737 3.125
      vertex 85.18664 20 3.125
    endloop
  endfacet
  facet normal 0 0.03591376 0.9993549
    outer loop
      vertex 67.18664 239.8295 5.925
      vertex 67.18664 74.95737 11.85
      vertex 85.18664 74.95737 11.85
    endloop
  endfacet
  facet normal -0 0.03591376 0.9993549
    outer loop
      vertex 67.18664 239.8295 5.925
      vertex 85.18664 74.95737 11.85
      vertex 85.18664 239.8295 5.925
    endloop
  endfacet
  facet normal 0 0 1
    outer loop
      vertex 67.18664 74.95737 11.85
      vertex 67.18664 20 11.85
      vertex 85.18664 20 11.85
    endloop
  endfacet
  facet normal -0 0 1
    outer loop
      vertex 67.18664 74.95737 11.85
      vertex 85.18664 20 11.85
      vertex 85.18664 74.95737 11.85
    endloop
  endfacet
  facet normal -1 0 0
    outer loop
      vertex 67.18664 239.8295 3.125
      vertex 67.18664 74.95737 3.125
      vertex 67.18664 74.95737 11.85
    endloop
  endfacet
  facet normal -1 0 0
    outer loop
      vertex 67.18664 239.8295 3.125
      vertex 67.18664 74.95737 11.85
      vertex 67.18664 239.8295 5.925
    endloop
  endfacet
  facet normal -1 0 0
    outer loop
      vertex 67.18664 74.95737 3.125
      vertex 67.18664 20 3.125
      vertex 67.18664 20 11.85
    endloop
  endfacet
  facet normal -1 0 0
    outer loop
      vertex 67.18664 74.95737 3.125
      vertex 67.18664 20 11.85
      vertex 67.18664 74.95737 11.85
    endloop
  endfacet
  facet normal 1 0 0
    outer loop
      vertex 85.18664 239.8295 3.125
      vertex 85.18664 74.95737 11.85
      vertex 85.18664 74.95737 3.125
    endloop
  endfacet
  facet normal 1 0 -0
    outer loop
      vertex 85.18664 239.8295 3.125
      vertex 85.18664 239.8295 5.925
      vertex 85.18664 74.95737 11.85
    endloop
  endfacet
  facet normal 1 0 0
    outer loop
      vertex 85.18664 74.95737 3.125
      vertex 85.18664 20 11.85
      vertex 85.18664 20 3.125
    endloop
  endfacet
  facet normal 1 0 -0
    outer loop
      vertex 85.18664 74.95737 3.125
      vertex 85.18664 74.95737 11.85
      vertex 85.18664 20 11.85
    endloop
  endfacet
  facet normal 0 1 0
    outer loop
      vertex 85.18664 239.8295 3.125
      vertex 67.18664 239.8295 3.125
      vertex 67.18664 239.8295 5.925
    endloop
  endfacet
  facet normal 0 1 -0
    outer loop
      vertex 85.18664 239.8295 3.125
      vertex 67.18664 239.8295 5.925
      vertex 85.18664 239.8295 5.925
    endloop
  endfacet
  facet normal 0 -1 0
    outer loop
      vertex 67.18664 20 3.125
      vertex 85.18664 20 3.125
      vertex 85.18664 20 11.85
    endloop
  endfacet
  facet normal 0 -1 0
    outer loop
      vertex 67.18664 20 3.125
      vertex 85.18664 20 11.85
      vertex 67.18664 20 11.85
    endloop
  endfacet
  facet normal 0 0 -1
    outer loop
      vertex 62.53045 24.65619 9.05
      vertex 62.53045 182.544 9.05
      vertex 80.53045 182.544 9.05
    endloop
  endfacet
  facet normal 0 0 -1
    outer loop
      vertex 62.53045 24.65619 9.05
      vertex 80.53045 182.544 9.05
      vertex 80.53045 24.65619 9.05
    endloop
  endfacet
  facet normal 0 0 -1
    outer loop
      vertex 62.53045 182.544 9.05
      vertex 62.53045 235.1733 9.05
      vertex 80.53045 235.1733 9.05
    endloop
  endfacet
  facet normal 0 0 -1
    outer loop
      vertex 62.53045 182.544 9.05
      vertex 80.53045 235.1733 9.05
      vertex 80.53045 182.544 9.05
    endloop
  endfacet
  facet normal 0 -0.03750025 0.9992966
    outer loop
      vertex 62.53045 24.65619 11.85
      vertex 80.53045 182.544 17.775
      vertex 62.53045 182.544 17.775
    endloop
  endfacet
  facet normal 0 -0.03750025 0.9992966
    outer loop
      vertex 62.53045 24.65619 11.85
      vertex 80.53045 24.65619 11.85
      vertex 80.53045 182.544 17.775
    endloop
  endfacet
  facet normal 0 0 1
    outer loop
      vertex 62.53045 182.544 17.775
      vertex 80.53045 235.1733 17.775
      vertex 62.53045 235.1733 17.775
    endloop
  endfacet
  facet normal 0 0 1
    outer loop
      vertex 62.53045 182.544 17.775
      vertex 80.53045 182.544 17.775
      vertex 80.53045 235.1733 17.775
    endloop
  endfacet
  facet normal -1 0 0
    outer loop
      vertex 62.53045 24.65619 9.05
      vertex 62.53045 182.544 17.775
      vertex 62.53045 182.544 9.05
    endloop
  endfacet
  facet normal -1 0 0
    outer loop
      vertex 62.53045 24.65619 9.05
      vertex 62.53045 24.65619 11.85
      vertex 62.53045 182.544 17.775
    endloop
  endfacet
  facet normal -1 0 0
    outer loop
      vertex 62.53045 182.544 9.05
      vertex 62.53045 235.1733 17.775
      vertex 62.53045 235.1733 9.05
    endloop
  endfacet
  facet normal -1 0 0
    outer loop
      vertex 62.53045 182.544 9.05
      vertex 62.53045 182.544 17.775
      vertex 62.53045 235.1733 17.775
    endloop
  endfacet
  facet normal 1 0 0
    outer loop
      vertex 80.53045 24.65619 9.05
      vertex 80.53045 182.544 9.05
      vertex 80.53045 182.544 17.775
    endloop
  endfacet
  facet normal 1 0 0
    outer loop
      vertex 80.53045 24.65619 9.05
      vertex 80.53045 182.544 17.775
      vertex 80.53045 24.65619 11.85
    endloop
  endfacet
  facet normal 1 0 0
    outer loop
      vertex 80.53045 182.544 9.05
      vertex 80.53045 235.1733 9.05
      vertex 80.53045 235.1733 17.775
    endloop
  endfacet
  facet normal 1 0 0
    outer loop
      vertex 80.53045 182.544 9.05
      vertex 80.53045 235.1733 17.775
      vertex 80.53045 182.544 17.775
    endloop
  endfacet
  facet normal 0 -1 0
    outer loop
      vertex 80.53045 24.65619 9.05
      vertex 62.53045 24.65619 11.85
      vertex 62.53045 24.65619 9.05
    endloop
  endfacet
  facet normal 0 -1 0
    outer loop
      vertex 80.53045 24.65619 9.05
      vertex 80.53045 24.65619 11.85
      vertex 62.53045 24.65619 11.85
    endloop
  endfacet
  facet normal 0 1 0
    outer loop
      vertex 62.53045 235.1733 9.05
      vertex 80.53045 235.1733 17.775
      vertex 80.53045 235.1733 9.05
    endloop
  endfacet
  facet normal 0 1 0
    outer loop
      vertex 62.53045 235.1733 9.05
      vertex 62.53045 235.1733 17.775
      vertex 80.53045 235.1733 17.775
    endloop
  endfacet
  facet normal 0 0 -1
    outer loop
      vertex 57.87426 230.5171 14.975
      vertex 75.87426 79.61356 14.975
      vertex 57.87426 79.61356 14.975
    endloop
  endfacet
  facet normal 0 0 -1
    outer loop
      vertex 57.87426 230.5171 14.975
      vertex 75.87426 230.5171 14.975
      vertex 75.87426 79.61356 14.975
    endloop
  endfacet
  facet normal 0 0 -1
    outer loop
      vertex 57.87426 79.61356 14.975
      vertex 75.87426 29.31238 14.975
      vertex 57.87426 29.31238 14.975
    endloop
  endfacet
  facet normal 0 0 -1
    outer loop
      vertex 57.87426 79.61356 14.975
      vertex 75.87426 79.61356 14.975
      vertex 75.87426 29.31238 14.975
    endloop
  endfacet
  facet normal 0 0.03923326 0.9992301
    outer loop
      vertex 57.87426 230.5171 17.775
      vertex 57.87426 79.61356 23.7
      vertex 75.87426 79.61356 23.7
    endloop
  endfacet
  facet normal -0 0.03923326 0.9992301
    outer loop
      vertex 57.87426 230.5171 17.775
      vertex 75.87426 79.61356 23.7
      vertex 75.87426 230.5171 17.775
    endloop
  endfacet
  facet normal 0 0 1
    outer loop
      vertex 57.87426 79.61356 23.7
      vertex 57.87426 29.31238 23.7
      vertex 75.87426 29.31238 23.7
    endloop
  endfacet
  facet normal -0 0 1
    outer loop
      vertex 57.87426 79.61356 23.7
      vertex 75.87426 29.31238 23.7
      vertex 75.87426 79.61356 23.7
    endloop
  endfacet
  facet normal -1 0 0
    outer loop
      vertex 57.87426 230.5171 14.975
      vertex 57.87426 79.61356 14.975
      vertex 57.87426 79.61356 23.7
    endloop
  endfacet
  facet normal -1 0 0
    outer loop
      vertex 57.87426 230.5171 14.975
      vertex 57.87426 79.61356 23.7
      vertex 57.87426 230.5171 17.775
    endloop
  endfacet
  facet normal -1 0 0
    outer loop
      vertex 57.87426 79.61356 14.975
      vertex 57.87426 29.31238 14.975
      vertex 57.87426 29.31238 23.7
    endloop
  endfacet
  facet normal -1 0 0
    outer loop
      vertex 57.87426 79.61356 14.975
      vertex 57.87426 29.31238 23.7
      vertex 57.87426 79.61356 23.7
    endloop
  endfacet
  facet normal 1 0 0
    outer loop
      vertex 75.87426 230.5171 14.975
      vertex 75.87426 79.61356 23.7
      vertex 75.87426 79.61356 14.975
    endloop
  endfacet
  facet normal 1 0 -0
    outer loop
      vertex 75.87426 230.5171 14.975
      vertex 75.87426 230.5171 17.775
      vertex 75.87426 79.61356 23.7
    endloop
  endfacet
  facet normal 1 0 0
    outer loop
      vertex 75.87426 79.61356 14.975
      vertex 75.87426 29.31238 23.7
      vertex 75.87426 29.31238 14.975
    endloop
  endfacet
  facet normal 1 0 -0
    outer loop
      vertex 75.87426 79.61356 14.975
      vertex 75.87426 79.61356 23.7
      vertex 75.87426 29.31238 23.7
    endloop
  endfacet
  facet normal 0 1 0
    outer loop
      vertex 75.87426 230.5171 14.975
      vertex 57.87426 230.5171 14.975
      vertex 57.87426 230.5171 17.775
    endloop
  endfacet
  facet normal 0 1 -0
    outer loop
      vertex 75.87426 230.5171 14.975
      vertex 57.87426 230.5171 17.775
      vertex 75.87426 230.5171 17.775
    endloop
  endfacet
  facet normal 0 -1 0
    outer loop
      vertex 57.87426 29.31238 14.975
      vertex 75.87426 29.31238 14.975
      vertex 75.87426 29.31238 23.7
    endloop
  endfacet
  facet normal 0 -1 0
    outer loop
      vertex 57.87426 29.31238 14.975
      vertex 75.87426 29.31238 23.7
      vertex 57.87426 29.31238 23.7
    endloop
  endfacet
  facet normal 0 0 -1
    outer loop
      vertex 53.21807 33.96857 20.9
      vertex 53.21807 177.8878 20.9
      vertex 71.21807 177.8878 20.9
    endloop
  endfacet
  facet normal 0 0 -1
    outer loop
      vertex 53.21807 33.96857 20.9
      vertex 71.21807 177.8878 20.9
      vertex 71.21807 33.96857 20.9
    endloop
  endfacet
  facet normal 0 0 -1
    outer loop
      vertex 53.21807 177.8878 20.9
      vertex 53.21807 225.8609 20.9
      vertex 71.21807 225.8609 20.9
    endloop
  endfacet
  facet normal 0 0 -1
    outer loop
      vertex 53.21807 177.8878 20.9
      vertex 71.21807 225.8609 20.9
      vertex 71.21807 177.8878 20.9
    endloop
  endfacet
  facet normal 0 -0.04113407 0.9991536
    outer loop
      vertex 53.21807 33.96857 23.7
      vertex 71.21807 177.8878 29.625
      vertex 53.21807 177.8878 29.625
    endloop
  endfacet
  facet normal 0 -0.04113407 0.9991536
    outer loop
      vertex 53.21807 33.96857 23.7
      vertex 71.21807 33.96857 23.7
      vertex 71.21807 177.8878 29.625
    endloop
  endfacet
  facet normal 0 0 1
    outer loop
      vertex 53.21807 177.8878 29.625
      vertex 71.21807 225.8609 29.625
      vertex 53.21807 225.8609 29.625
    endloop
  endfacet
  facet normal 0 0 1
    outer loop
      vertex 53.21807 177.8878 29.625
      vertex 71.21807 177.8878 29.625
      vertex 71.21807 225.8609 29.625
    endloop
  endfacet
  facet normal -1 0 0
    outer loop
      vertex 53.21807 33.96857 20.9
      vertex 53.21807 177.8878 29.625
      vertex 53.21807 177.8878 20.9
    endloop
  endfacet
  facet normal -1 0 0
    outer loop
      vertex 53.21807 33.96857 20.9
      vertex 53.21807 33.96857 23.7
      vertex 53.21807 177.8878 29.625
    endloop
  endfacet
  facet normal -1 0 0
    outer loop
      vertex 53.21807 177.8878 20.9
      vertex 53.21807 225.8609 29.625
      vertex 53.21807 225.8609 20.9
    endloop
  endfacet
  facet normal -1 0 0
    outer loop
      vertex 53.21807 177.8878 20.9
      vertex 53.21807 177.8878 29.625
      vertex 53.21807 225.8609 29.625
    endloop
  endfacet
  facet normal 1 0 0
    outer loop
      vertex 71.21807 33.96857 20.9
      vertex 71.21807 177.8878 20.9
      vertex 71.21807 177.8878 29.625
    endloop
  endfacet
  facet normal 1 0 0
    outer loop
      vertex 71.21807 33.96857 20.9
      vertex 71.21807 177.8878 29.625
      vertex 71.21807 33.96857 23.7
    endloop
  endfacet
  facet normal 1 0 0
    outer loop
      vertex 71.21807 177.8878 20.9
      vertex 71.21807 225.8609 20.9
      vertex 71.21807 225.8609 29.625
    endloop
  endfacet
  facet normal 1 0 0
    outer loop
      vertex 71.21807 177.8878 20.9
      vertex 71.21807 225.8609 29.625
      vertex 71.21807 177.8878 29.625
    endloop
  endfacet
  facet normal 0 -1 0
    outer loop
      vertex 71.21807 33.96857 20.9
      vertex 53.21807 33.96857 23.7
      vertex 53.21807 33.96857 20.9
    endloop
  endfacet
  facet normal 0 -1 0
    outer loop
      vertex 71.21807 33.96857 20.9
      vertex 71.21807 33.96857 23.7
      vertex 53.21807 33.96857 23.7
    endloop
  endfacet
  facet normal 0 1 0
    outer loop
      vertex 53.21807 225.8609 20.9
      vertex 71.21807 225.8609 29.625
      vertex 71.21807 225.8609 20.9
    endloop
  endfacet
  facet normal 0 1 0
    outer loop
      vertex 53.21807 225.8609 20.9
      vertex 53.21807 225.8609 29.625
      vertex 71.21807 225.8609 29.625
    endloop
  endfacet
  facet normal 0 0 -1
    outer loop
      vertex 48.56189 221.2047 26.825
      vertex 66.56189 84.26974 26.825
      vertex 48.56189 84.26974 26.825
    endloop
  endfacet
  facet normal 0 0 -1
    outer loop
      vertex 48.56189 221.2047 26.825
      vertex 66.56189 221.2047 26.825
      vertex 66.56189 84.26974 26.825
    endloop
  endfacet
  facet normal 0 0 -1
    outer loop
      vertex 48.56189 84.26974 26.825
      vertex 66.56189 38.62475 26.825
      vertex 48.56189 38.62475 26.825
    endloop
  endfacet
  facet normal 0 0 -1
    outer loop
      vertex 48.56189 84.26974 26.825
      vertex 66.56189 84.26974 26.825
      vertex 66.56189 38.62475 26.825
    endloop
  endfacet
  facet normal 0 0.04322827 0.9990652
    outer loop
      vertex 48.56189 221.2047 29.625
      vertex 48.56189 84.26974 35.55
      vertex 66.56189 84.26974 35.55
    endloop
  endfacet
  facet normal -0 0.04322827 0.9990652
    outer loop
      vertex 48.56189 221.2047 29.625
      vertex 66.56189 84.26974 35.55
      vertex 66.56189 221.2047 29.625
    endloop
  endfacet
  facet normal 0 0 1
    outer loop
      vertex 48.56189 84.26974 35.55
      vertex 48.56189 38.62475 35.55
      vertex 66.56189 38.62475 35.55
    endloop
  endfacet
  facet normal -0 0 1
    outer loop
      vertex 48.56189 84.26974 35.55
      vertex 66.56189 38.62475 35.55
      vertex 66.56189 84.26974 35.55
    endloop
  endfacet
  facet normal -1 0 0
    outer loop
      vertex 48.56189 221.2047 26.825
      vertex 48.56189 84.26974 26.825
      vertex 48.56189 84.26974 35.55
    endloop
  endfacet
  facet normal -1 0 0
    outer loop
      vertex 48.56189 221.2047 26.825
      vertex 48.56189 84.26974 35.55
      vertex 48.56189 221.2047 29.625
    endloop
  endfacet
  facet normal -1 0 0
    outer loop
      vertex 48.56189 84.26974 26.825
      vertex 48.56189 38.62475 26.825
      vertex 48.56189 38.62475 35.55
    endloop
  endfacet
  facet normal -1 0 0
    outer loop
      vertex 48.56189 84.26974 26.825
      vertex 48.56189 38.62475 35.55
      vertex 48.56189 84.26974 35.55
    endloop
  endfacet
  facet normal 1 0 0
    outer loop
      vertex 66.56189 221.2047 26.825
      vertex 66.56189 84.26974 35.55
      vertex 66.56189 84.26974 26.825
    endloop
  endfacet
  facet normal 1 0 -0
    outer loop
      vertex 66.56189 221.2047 26.825
      vertex 66.56189 221.2047 29.625
      vertex 66.56189 84.26974 35.55
    endloop
  endfacet
  facet normal 1 0 0
    outer loop
      vertex 66.56189 84.26974 26.825
      vertex 66.56189 38.62475 35.55
      vertex 66.56189 38.62475 26.825
    endloop
  endfacet
  facet normal 1 0 -0
    outer loop
      vertex 66.56189 84.26974 26.825
      vertex 66.56189 84.26974 35.55
      vertex 66.56189 38.62475 35.55
    endloop
  endfacet
  facet normal 0 1 0
    outer loop
      vertex 66.56189 221.2047 26.825
      vertex 48.56189 221.2047 26.825
      vertex 48.56189 221.2047 29.625
    endloop
  endfacet
  facet normal 0 1 -0
    outer loop
      vertex 66.56189 221.2047 26.825
      vertex 48.56189 221.2047 29.625
      vertex 66.56189 221.2047 29.625
    endloop
  endfacet
  facet normal 0 -1 0
    outer loop
      vertex 48.56189 38.62475 26.825
      vertex 66.56189 38.62475 26.825
      vertex 66.56189 38.62475 35.55
    endloop
  endfacet
  facet normal 0 -1 0
    outer loop
      vertex 48.56189 38.62475 26.825
      vertex 66.56189 38.62475 35.55
      vertex 48.56189 38.62475 35.55
    endloop
  endfacet
  facet normal 0 0 -1
    outer loop
      vertex 43.9057 43.28094 32.75
      vertex 43.9057 173.2316 32.75
      vertex 61.9057 173.2316 32.75
    endloop
  endfacet
  facet normal 0 0 -1
    outer loop
      vertex 43.9057 43.28094 32.75
      vertex 61.9057 173.2316 32.75
      vertex 61.9057 43.28094 32.75
    endloop
  endfacet
  facet normal 0 0 -1
    outer loop
      vertex 43.9057 173.2316 32.75
      vertex 43.9057 216.5485 32.75
      vertex 61.9057 216.5485 32.75
    endloop
  endfacet
  facet normal 0 0 -1
    outer loop
      vertex 43.9057 173.2316 32.75
      vertex 61.9057 216.5485 32.75
      vertex 61.9057 173.2316 32.75
    endloop
  endfacet
  facet normal 0 -0.0455469 0.9989622
    outer loop
      vertex 43.9057 43.28094 35.55
      vertex 61.9057 173.2316 41.475
      vertex 43.9057 173.2316 41.475
    endloop
  endfacet
  facet normal 0 -0.0455469 0.9989622
    outer loop
      vertex 43.9057 43.28094 35.55
      vertex 61.9057 43.28094 35.55
      vertex 61.9057 173.2316 41.475
    endloop
  endfacet
  facet normal 0 0 1
    outer loop
      vertex 43.9057 173.2316 41.475
      vertex 61.9057 216.5485 41.475
      vertex 43.9057 216.5485 41.475
    endloop
  endfacet
  facet normal 0 0 1
    outer loop
      vertex 43.9057 173.2316 41.475
      vertex 61.9057 173.2316 41.475
      vertex 61.9057 216.5485 41.475
    endloop
  endfacet
  facet normal -1 0 0
    outer loop
      vertex 43.9057 43.28094 32.75
      vertex 43.9057 173.2316 41.475
      vertex 43.9057 173.2316 32.75
    endloop
  endfacet
  facet normal -1 0 0
    outer loop
      vertex 43.9057 43.28094 32.75
      vertex 43.9057 43.28094 35.55
      vertex 43.9057 173.2316 41.475
    endloop
  endfacet
  facet normal -1 0 0
    outer loop
      vertex 43.9057 173.2316 32.75
      vertex 43.9057 216.5485 41.475
      vertex 43.9057 216.5485 32.75
    endloop
  endfacet
  facet normal -1 0 0
    outer loop
      vertex 43.9057 173.2316 32.75
      vertex 43.9057 173.2316 41.475
      vertex 43.9057 216.5485 41.475
    endloop
  endfacet
  facet normal 1 0 0
    outer loop
      vertex 61.9057 43.28094 32.75
      vertex 61.9057 173.2316 32.75
      vertex 61.9057 173.2316 41.475
    endloop
  endfacet
  facet normal 1 0 0
    outer loop
      vertex 61.9057 43.28094 32.75
      vertex 61.9057 173.2316 41.475
      vertex 61.9057 43.28094 35.55
    endloop
  endfacet
  facet normal 1 0 0
    outer loop
      vertex 61.9057 173.2316 32.75
      vertex 61.9057 216.5485 32.75
      vertex 61.9057 216.5485 41.475
    endloop
  endfacet
  facet normal 1 0 0
    outer loop
      vertex 61.9057 173.2316 32.75
      vertex 61.9057 216.5485 41.475
      vertex 61.9057 173.2316 41.475
    endloop
  endfacet
  facet normal 0 -1 0
    outer loop
      vertex 61.9057 43.28094 32.75
      vertex 43.9057 43.28094 35.55
      vertex 43.9057 43.28094 32.75
    endloop
  endfacet
  facet normal 0 -1 0
    outer loop
      vertex 61.9057 43.28094 32.75
      vertex 61.9057 43.28094 35.55
      vertex 43.9057 43.28094 35.55
    endloop
  endfacet
  facet normal 0 1 0
    outer loop
      vertex 43.9057 216.5485 32.75
      vertex 61.9057 216.5485 41.475
      vertex 61.9057 216.5485 32.75
    endloop
  endfacet
  facet normal 0 1 0
    outer loop
      vertex 43.9057 216.5485 32.75
      vertex 43.9057 216.5485 41.475
      vertex 61.9057 216.5485 41.475
    endloop
  endfacet
  facet normal 0 0 -1
    outer loop
      vertex 39.24951 211.8923 38.675
      vertex 57.24951 88.92593 38.675
      vertex 39.24951 88.92593 38.675
    endloop
  endfacet
  facet normal 0 0 -1
    outer loop
      vertex 39.24951 211.8923 38.675
      vertex 57.24951 211.8923 38.675
      vertex 57.24951 88.92593 38.675
    endloop
  endfacet
  facet normal 0 0 -1
    outer loop
      vertex 39.24951 88.92593 38.675
      vertex 57.24951 47.93713 38.675
      vertex 39.24951 47.93713 38.675
    endloop
  endfacet
  facet normal 0 0 -1
    outer loop
      vertex 39.24951 88.92593 38.675
      vertex 57.24951 88.92593 38.675
      vertex 57.24951 47.93713 38.675
    endloop
  endfacet
  facet normal 0 0.04812806 0.9988412
    outer loop
      vertex 39.24951 211.8923 41.475
      vertex 39.24951 88.92593 47.4
      vertex 57.24951 88.92593 47.4
    endloop
  endfacet
  facet normal -0 0.04812806 0.9988412
    outer loop
      vertex 39.24951 211.8923 41.475
      vertex 57.24951 88.92593 47.4
      vertex 57.24951 211.8923 41.475
    endloop
  endfacet
  facet normal 0 0 1
    outer loop
      vertex 39.24951 88.92593 47.4
      vertex 39.24951 47.93713 47.4
      vertex 57.24951 47.93713 47.4
    endloop
  endfacet
  facet normal -0 0 1
    outer loop
      vertex 39.24951 88.92593 47.4
      vertex 57.24951 47.93713 47.4
      vertex 57.24951 88.92593 47.4
    endloop
  endfacet
  facet normal -1 0 0
    outer loop
      vertex 39.24951 211.8923 38.675
      vertex 39.24951 88.92593 38.675
      vertex 39.24951 88.92593 47.4
    endloop
  endfacet
  facet normal -1 0 0
    outer loop
      vertex 39.24951 211.8923 38.675
      vertex 39.24951 88.92593 47.4
      vertex 39.24951 211.8923 41.475
    endloop
  endfacet
  facet normal -1 0 0
    outer loop
      vertex 39.24951 88.92593 38.675
      vertex 39.24951 47.93713 38.675
      vertex 39.24951 47.93713 47.4
    endloop
  endfacet
  facet normal -1 0 0
    outer loop
      vertex 39.24951 88.92593 38.675
      vertex 39.24951 47.93713 47.4
      vertex 39.24951 88.92593 47.4
    endloop
  endfacet
  facet normal 1 0 0
    outer loop
      vertex 57.24951 211.8923 38.675
      vertex 57.24951 88.92593 47.4
      vertex 57.24951 88.92593 38.675
    endloop
  endfacet
  facet normal 1 0 -0
    outer loop
      vertex 57.24951 211.8923 38.675
      vertex 57.24951 211.8923 41.475
      vertex 57.24951 88.92593 47.4
    endloop
  endfacet
  facet normal 1 0 0
    outer loop
      vertex 57.24951 88.92593 38.675
      vertex 57.24951 47.93713 47.4
      vertex 57.24951 47.93713 38.675
    endloop
  endfacet
  facet normal 1 0 -0
    outer loop
      vertex 57.24951 88.92593 38.675
      vertex 57.24951 88.92593 47.4
      vertex 57.24951 47.93713 47.4
    endloop
  endfacet
  facet normal 0 1 0
    outer loop
      vertex 57.24951 211.8923 38.675
      vertex 39.24951 211.8923 38.675
      vertex 39.24951 211.8923 41.475
    endloop
  endfacet
  facet normal 0 1 -0
    outer loop
      vertex 57.24951 211.8923 38.675
      vertex 39.24951 211.8923 41.475
      vertex 57.24951 211.8923 41.475
    endloop
  endfacet
  facet normal 0 -1 0
    outer loop
      vertex 39.24951 47.93713 38.675
      vertex 57.24951 47.93713 38.675
      vertex 57.24951 47.93713 47.4
    endloop
  endfacet
  facet normal 0 -1 0
    outer loop
      vertex 39.24951 47.93713 38.675
      vertex 57.24951 47.93713 47.4
      vertex 39.24951 47.93713 47.4
    endloop
  endfacet
  facet normal 0 0 -1
    outer loop
      vertex 34.59332 52.59332 44.6
      vertex 34.59332 168.5754 44.6
      vertex 52.59332 168.5754 44.6
    endloop
  endfacet
  facet normal 0 0 -1
    outer loop
      vertex 34.59332 52.59332 44.6
      vertex 52.59332 168.5754 44.6
      vertex 52.59332 52.59332 44.6
    endloop
  endfacet
  facet normal 0 0 -1
    outer loop
      vertex 34.59332 168.5754 44.6
      vertex 34.59332 207.2361 44.6
      vertex 52.59332 207.2361 44.6
    endloop
  endfacet
  facet normal 0 0 -1
    outer loop
      vertex 34.59332 168.5754 44.6
      vertex 52.59332 207.2361 44.6
      vertex 52.59332 168.5754 44.6
    endloop
  endfacet
  facet normal 0 -0.05101893 0.9986977
    outer loop
      vertex 34.59332 52.59332 47.4
      vertex 52.59332 168.5754 53.325
      vertex 34.59332 168.5754 53.325
    endloop
  endfacet
  facet normal 0 -0.05101893 0.9986977
    outer loop
      vertex 34.59332 52.59332 47.4
      vertex 52.59332 52.59332 47.4
      vertex 52.59332 168.5754 53.325
    endloop
  endfacet
  facet normal 0 0 1
    outer loop
      vertex 34.59332 168.5754 53.325
      vertex 52.59332 207.2361 53.325
      vertex 34.59332 207.2361 53.325
    endloop
  endfacet
  facet normal 0 0 1
    outer loop
      vertex 34.59332 168.5754 53.325
      vertex 52.59332 168.5754 53.325
      vertex 52.59332 207.2361 53.325
    endloop
  endfacet
  facet normal -1 0 0
    outer loop
      vertex 34.59332 52.59332 44.6
      vertex 34.59332 168.5754 53.325
      vertex 34.59332 168.5754 44.6
    endloop
  endfacet
  facet normal -1 0 0
    outer loop
      vertex 34.59332 52.59332 44.6
      vertex 34.59332 52.59332 47.4
      vertex 34.59332 168.5754 53.325
    endloop
  endfacet
  facet normal -1 0 0
    outer loop
      vertex 34.59332 168.5754 44.6
      vertex 34.59332 207.2361 53.325
      vertex 34.59332 207.2361 44.6
    endloop
  endfacet
  facet normal -1 0 0
    outer loop
      vertex 34.59332 168.5754 44.6
      vertex 34.59332 168.5754 53.325
      vertex 34.59332 207.2361 53.325
    endloop
  endfacet
  facet normal 1 0 0
    outer loop
      vertex 52.59332 52.59332 44.6
      vertex 52.59332 168.5754 44.6
      vertex 52.59332 168.5754 53.325
    endloop
  endfacet
  facet normal 1 0 0
    outer loop
      vertex 52.59332 52.59332 44.6
      vertex 52.59332 168.5754 53.325
      vertex 52.59332 52.59332 47.4
    endloop
  endfacet
  facet normal 1 0 0
    outer loop
      vertex 52.59332 168.5754 44.6
      vertex 52.59332 207.2361 44.6
      vertex 52.59332 207.2361 53.325
    endloop
  endfacet
  facet normal 1 0 0
    outer loop
      vertex 52.59332 168.5754 44.6
      vertex 52.59332 207.2361 53.325
      vertex 52.59332 168.5754 53.325
    endloop
  endfacet
  facet normal 0 -1 0
    outer loop
      vertex 52.59332 52.59332 44.6
      vertex 34.59332 52.59332 47.4
      vertex 34.59332 52.59332 44.6
    endloop
  endfacet
  facet normal 0 -1 0
    outer loop
      vertex 52.59332 52.59332 44.6
      vertex 52.59332 52.59332 47.4
      vertex 34.59332 52.59332 47.4
    endloop
  endfacet
  facet normal 0 1 0
    outer loop
      vertex 34.59332 207.2361 44.6
      vertex 52.59332 207.2361 53.325
      vertex 52.59332 207.2361 44.6
    endloop
  endfacet
  facet normal 0 1 0
    outer loop
      vertex 34.59332 207.2361 44.6
      vertex 34.59332 207.2361 53.325
      vertex 52.59332 207.2361 53.325
    endloop
  endfacet
  facet normal 0 0 -1
    outer loop
      vertex 29.93713 202.58 50.525
      vertex 47.93713 93.58212 50.525
      vertex 29.93713 93.58212 50.525
    endloop
  endfacet
  facet normal 0 0 -1
    outer loop
      vertex 29.93713 202.58 50.525
      vertex 47.93713 202.58 50.525
      vertex 47.93713 93.58212 50.525
    endloop
  endfacet
  facet normal 0 0 -1
    outer loop
      vertex 29.93713 93.58212 50.525
      vertex 47.93713 57.24951 50.525
      vertex 29.93713 57.24951 50.525
    endloop
  endfacet
  facet normal 0 0 -1
    outer loop
      vertex 29.93713 93.58212 50.525
      vertex 47.93713 93.58212 50.525
      vertex 47.93713 57.24951 50.525
    endloop
  endfacet
  facet normal 0 0.05427874 0.9985258
    outer loop
      vertex 29.93713 202.58 53.325
      vertex 29.93713 93.58212 59.25
      vertex 47.93713 93.58212 59.25
    endloop
  endfacet
  facet normal -0 0.05427874 0.9985258
    outer loop
      vertex 29.93713 202.58 53.325
      vertex 47.93713 93.58212 59.25
      vertex 47.93713 202.58 53.325
    endloop
  endfacet
  facet normal 0 0 1
    outer loop
      vertex 29.93713 93.58212 59.25
      vertex 29.93713 57.24951 59.25
      vertex 47.93713 57.24951 59.25
    endloop
  endfacet
  facet normal -0 0 1
    outer loop
      vertex 29.93713 93.58212 59.25
      vertex 47.93713 57.24951 59.25
      vertex 47.93713 93.58212 59.25
    endloop
  endfacet
  facet normal -1 0 0
    outer loop
      vertex 29.93713 202.58 50.525
      vertex 29.93713 93.58212 50.525
      vertex 29.93713 93.58212 59.25
    endloop
  endfacet
  facet normal -1 0 0
    outer loop
      vertex 29.93713 202.58 50.525
      vertex 29.93713 93.58212 59.25
      vertex 29.93713 202.58 53.325
    endloop
  endfacet
  facet normal -1 0 0
    outer loop
      vertex 29.93713 93.58212 50.525
      vertex 29.93713 57.24951 50.525
      vertex 29.93713 57.24951 59.25
    endloop
  endfacet
  facet normal -1 0 0
    outer loop
      vertex 29.93713 93.58212 50.525
      vertex 29.93713 57.24951 59.25
      vertex 29.93713 93.58212 59.25
    endloop
  endfacet
  facet normal 1 0 0
    outer loop
      vertex 47.93713 202.58 50.525
      vertex 47.93713 93.58212 59.25
      vertex 47.93713 93.58212 50.525
    endloop
  endfacet
  facet normal 1 0 -0
    outer loop
      vertex 47.93713 202.58 50.525
      vertex 47.93713 202.58 53.325
      vertex 47.93713 93.58212 59.25
    endloop
  endfacet
  facet normal 1 0 0
    outer loop
      vertex 47.93713 93.58212 50.525
      vertex 47.93713 57.24951 59.25
      vertex 47.93713 57.24951 50.525
    endloop
  endfacet
  facet normal 1 0 -0
    outer loop
      vertex 47.93713 93.58212 50.525
      vertex 47.93713 93.58212 59.25
      vertex 47.93713 57.24951 59.25
    endloop
  endfacet
  facet normal 0 1 0
    outer loop
      vertex 47.93713 202.58 50.525
      vertex 29.93713 202.58 50.525
      vertex 29.93713 202.58 53.325
    endloop
  endfacet
  facet normal 0 1 -0
    outer loop
      vertex 47.93713 202.58 50.525
      vertex 29.93713 202.58 53.325
      vertex 47.93713 202.58 53.325
    endloop
  endfacet
  facet normal 0 -1 0
    outer loop
      vertex 29.93713 57.24951 50.525
      vertex 47.93713 57.24951 50.525
      vertex 47.93713 57.24951 59.25
    endloop
  endfacet
  facet normal 0 -1 0
    outer loop
      vertex 29.93713 57.24951 50.525
      vertex 47.93713 57.24951 59.25
      vertex 29.93713 57.24951 59.25
    endloop
  endfacet
  facet normal 0 0 -1
    outer loop
      vertex 25.28094 61.9057 56.45
      vertex 25.28094 163.9193 56.45
      vertex 43.28094 163.9193 56.45
    endloop
  endfacet
  facet normal 0 0 -1
    outer loop
      vertex 25.28094 61.9057 56.45
      vertex 43.28094 163.9193 56.45
      vertex 43.28094 61.9057 56.45
    endloop
  endfacet
  facet normal 0 0 -1
    outer loop
      vertex 25.28094 163.9193 56.45
      vertex 25.28094 197.9238 56.45
      vertex 43.28094 197.9238 56.45
    endloop
  endfacet
  facet normal 0 0 -1
    outer loop
      vertex 25.28094 163.9193 56.45
      vertex 43.28094 197.9238 56.45
      vertex 43.28094 163.9193 56.45
    endloop
  endfacet
  facet normal 0 -0.0579828 0.9983176
    outer loop
      vertex 25.28094 61.9057 59.25
      vertex 43.28094 163.9193 65.175
      vertex 25.28094 163.9193 65.175
    endloop
  endfacet
  facet normal 0 -0.0579828 0.9983176
    outer loop
      vertex 25.28094 61.9057 59.25
      vertex 43.28094 61.9057 59.25
      vertex 43.28094 163.9193 65.175
    endloop
  endfacet
  facet normal 0 0 1
    outer loop
      vertex 25.28094 163.9193 65.175
      vertex 43.28094 197.9238 65.175
      vertex 25.28094 197.9238 65.175
    endloop
  endfacet
  facet normal 0 0 1
    outer loop
      vertex 25.28094 163.9193 65.175
      vertex 43.28094 163.9193 65.175
      vertex 43.28094 197.9238 65.175
    endloop
  endfacet
  facet normal -1 0 0
    outer loop
      vertex 25.28094 61.9057 56.45
      vertex 25.28094 163.9193 65.175
      vertex 25.28094 163.9193 56.45
    endloop
  endfacet
  facet normal -1 0 0
    outer loop
      vertex 25.28094 61.9057 56.45
      vertex 25.28094 61.9057 59.25
      vertex 25.28094 163.9193 65.175
    endloop
  endfacet
  facet normal -1 0 0
    outer loop
      vertex 25.28094 163.9193 56.45
      vertex 25.28094 197.9238 65.175
      vertex 25.28094 197.9238 56.45
    endloop
  endfacet
  facet normal -1 0 0
    outer loop
      vertex 25.28094 163.9193 56.45
      vertex 25.28094 163.9193 65.175
      vertex 25.28094 197.9238 65.175
    endloop
  endfacet
  facet normal 1 0 0
    outer loop
      vertex 43.28094 61.9057 56.45
      vertex 43.28094 163.9193 56.45
      vertex 43.28094 163.9193 65.175
    endloop
  endfacet
  facet normal 1 0 0
    outer loop
      vertex 43.28094 61.9057 56.45
      vertex 43.28094 163.9193 65.175
      vertex 43.28094 61.9057 59.25
    endloop
  endfacet
  facet normal 1 0 0
    outer loop
      vertex 43.28094 163.9193 56.45
      vertex 43.28094 197.9238 56.45
      vertex 43.28094 197.9238 65.175
    endloop
  endfacet
  facet normal 1 0 0
    outer loop
      vertex 43.28094 163.9193 56.45
      vertex 43.28094 197.9238 65.175
      vertex 43.28094 163.9193 65.175
    endloop
  endfacet
  facet normal 0 -1 0
    outer loop
      vertex 43.28094 61.9057 56.45
      vertex 25.28094 61.9057 59.25
      vertex 25.28094 61.9057 56.45
    endloop
  endfacet
  facet normal 0 -1 0
    outer loop
      vertex 43.28094 61.9057 56.45
      vertex 43.28094 61.9057 59.25
      vertex 25.28094 61.9057 59.25
    endloop
  endfacet
  facet normal 0 1 0
    outer loop
      vertex 25.28094 197.9238 56.45
      vertex 43.28094 197.9238 65.175
      vertex 43.28094 197.9238 56.45
    endloop
  endfacet
  facet normal 0 1 0
    outer loop
      vertex 25.28094 197.9238 56.45
      vertex 25.28094 197.9238 65.175
      vertex 43.28094 197.9238 65.175
    endloop
  endfacet
  facet normal 0 0 -1
    outer loop
      vertex 20.62475 193.2676 62.375
      vertex 38.62475 98.23831 62.375
      vertex 20.62475 98.23831 62.375
    endloop
  endfacet
  facet normal 0 0 -1
    outer loop
      vertex 20.62475 193.2676 62.375
      vertex 38.62475 193.2676 62.375
      vertex 38.62475 98.23831 62.375
    endloop
  endfacet
  facet normal 0 0 -1
    outer loop
      vertex 20.62475 98.23831 62.375
      vertex 38.62475 66.56189 62.375
      vertex 20.62475 66.56189 62.375
    endloop
  endfacet
  facet normal 0 0 -1
    outer loop
      vertex 20.62475 98.23831 62.375
      vertex 38.62475 98.23831 62.375
      vertex 38.62475 66.56189 62.375
    endloop
  endfacet
  facet normal 0 0.06222837 0.9980619
    outer loop
      vertex 20.62475 193.2676 65.175
      vertex 20.62475 98.23831 71.1
      vertex 38.62475 98.23831 71.1
    endloop
  endfacet
  facet normal -0 0.06222837 0.9980619
    outer loop
      vertex 20.62475 193.2676 65.175
      vertex 38.62475 98.23831 71.1
      vertex 38.62475 193.2676 65.175
    endloop
  endfacet
  facet normal 0 0 1
    outer loop
      vertex 20.62475 98.23831 71.1
      vertex 20.62475 66.56189 71.1
      vertex 38.62475 66.56189 71.1
    endloop
  endfacet
  facet normal -0 0 1
    outer loop
      vertex 20.62475 98.23831 71.1
      vertex 38.62475 66.56189 71.1
      vertex 38.62475 98.23831 71.1
    endloop
  endfacet
  facet normal -1 0 0
    outer loop
      vertex 20.62475 193.2676 62.375
      vertex 20.62475 98.23831 62.375
      vertex 20.62475 98.23831 71.1
    endloop
  endfacet
  facet normal -1 0 0
    outer loop
      vertex 20.62475 193.2676 62.375
      vertex 20.62475 98.23831 71.1
      vertex 20.62475 193.2676 65.175
    endloop
  endfacet
  facet normal -1 0 0
    outer loop
      vertex 20.62475 98.23831 62.375
      vertex 20.62475 66.56189 62.375
      vertex 20.62475 66.56189 71.1
    endloop
  endfacet
  facet normal -1 0 0
    outer loop
      vertex 20.62475 98.23831 62.375
      vertex 20.62475 66.56189 71.1
      vertex 20.62475 98.23831 71.1
    endloop
  endfacet
  facet normal 1 0 0
    outer loop
      vertex 38.62475 193.2676 62.375
      vertex 38.62475 98.23831 71.1
      vertex 38.62475 98.23831 62.375
    endloop
  endfacet
  facet normal 1 0 -0
    outer loop
      vertex 38.62475 193.2676 62.375
      vertex 38.62475 193.2676 65.175
      vertex 38.62475 98.23831 71.1
    endloop
  endfacet
  facet normal 1 0 0
    outer loop
      vertex 38.62475 98.23831 62.375
      vertex 38.62475 66.56189 71.1
      vertex 38.62475 66.56189 62.375
    endloop
  endfacet
  facet normal 1 0 -0
    outer loop
      vertex 38.62475 98.23831 62.375
      vertex 38.62475 98.23831 71.1
      vertex 38.62475 66.56189 71.1
    endloop
  endfacet
  facet normal 0 1 0
    outer loop
      vertex 38.62475 193.2676 62.375
      vertex 20.62475 193.2676 62.375
      vertex 20.62475 193.2676 65.175
    endloop
  endfacet
  facet normal 0 1 -0
    outer loop
      vertex 38.62475 193.2676 62.375
      vertex 20.62475 193.2676 65.175
      vertex 38.62475 193.2676 65.175
    endloop
  endfacet
  facet normal 0 -1 0
    outer loop
      vertex 20.62475 66.56189 62.375
      vertex 38.62475 66.56189 62.375
      vertex 38.62475 66.56189 71.1
    endloop
  endfacet
  facet normal 0 -1 0
    outer loop
      vertex 20.62475 66.56189 62.375
      vertex 38.62475 66.56189 71.1
      vertex 20.62475 66.56189 71.1
    endloop
  endfacet
  facet normal 0 0 -1
    outer loop
      vertex 15.96857 71.21807 68.3
      vertex 15.96857 159.2631 68.3
      vertex 33.96857 159.2631 68.3
    endloop
  endfacet
  facet normal 0 0 -1
    outer loop
      vertex 15.96857 71.21807 68.3
      vertex 33.96857 159.2631 68.3
      vertex 33.96857 71.21807 68.3
    endloop
  endfacet
  facet normal 0 0 -1
    outer loop
      vertex 15.96857 159.2631 68.3
      vertex 15.96857 188.6114 68.3
      vertex 33.96857 188.6114 68.3
    endloop
  endfacet
  facet normal 0 0 -1
    outer loop
      vertex 15.96857 159.2631 68.3
      vertex 33.96857 188.6114 68.3
      vertex 33.96857 159.2631 68.3
    endloop
  endfacet
  facet normal 0 -0.06714328 0.9977433
    outer loop
      vertex 15.96857 71.21807 71.1
      vertex 33.96857 159.2631 77.025
      vertex 15.96857 159.2631 77.025
    endloop
  endfacet
  facet normal 0 -0.06714328 0.9977433
    outer loop
      vertex 15.96857 71.21807 71.1
      vertex 33.96857 71.21807 71.1
      vertex 33.96857 159.2631 77.025
    endloop
  endfacet
  facet normal 0 0 1
    outer loop
      vertex 15.96857 159.2631 77.025
      vertex 33.96857 188.6114 77.025
      vertex 15.96857 188.6114 77.025
    endloop
  endfacet
  facet normal 0 0 1
    outer loop
      vertex 15.96857 159.2631 77.025
      vertex 33.96857 159.2631 77.025
      vertex 33.96857 188.6114 77.025
    endloop
  endfacet
  facet normal -1 0 0
    outer loop
      vertex 15.96857 71.21807 68.3
      vertex 15.96857 159.2631 77.025
      vertex 15.96857 159.2631 68.3
    endloop
  endfacet
  facet normal -1 0 0
    outer loop
      vertex 15.96857 71.21807 68.3
      vertex 15.96857 71.21807 71.1
      vertex 15.96857 159.2631 77.025
    endloop
  endfacet
  facet normal -1 0 0
    outer loop
      vertex 15.96857 159.2631 68.3
      vertex 15.96857 188.6114 77.025
      vertex 15.96857 188.6114 68.3
    endloop
  endfacet
  facet normal -1 0 0
    outer loop
      vertex 15.96857 159.2631 68.3
      vertex 15.96857 159.2631 77.025
      vertex 15.96857 188.6114 77.025
    endloop
  endfacet
  facet normal 1 0 0
    outer loop
      vertex 33.96857 71.21807 68.3
      vertex 33.96857 159.2631 68.3
      vertex 33.96857 159.2631 77.025
    endloop
  endfacet
  facet normal 1 0 0
    outer loop
      vertex 33.96857 71.21807 68.3
      vertex 33.96857 159.2631 77.025
      vertex 33.96857 71.21807 71.1
    endloop
  endfacet
  facet normal 1 0 0
    outer loop
      vertex 33.96857 159.2631 68.3
      vertex 33.96857 188.6114 68.3
      vertex 33.96857 188.6114 77.025
    endloop
  endfacet
  facet normal 1 0 0
    outer loop
      vertex 33.96857 159.2631 68.3
      vertex 33.96857 188.6114 77.025
      vertex 33.96857 159.2631 77.025
    endloop
  endfacet
  facet normal 0 -1 0
    outer loop
      vertex 33.96857 71.21807 68.3
      vertex 15.96857 71.21807 71.1
      vertex 15.96857 71.21807 68.3
    endloop
  endfacet
  facet normal 0 -1 0
    outer loop
      vertex 33.96857 71.21807 68.3
      vertex 33.96857 71.21807 71.1
      vertex 15.96857 71.21807 71.1
    endloop
  endfacet
  facet normal 0 1 0
    outer loop
      vertex 15.96857 188.6114 68.3
      vertex 33.96857 188.6114 77.025
      vertex 33.96857 188.6114 68.3
    endloop
  endfacet
  facet normal 0 1 0
    outer loop
      vertex 15.96857 188.6114 68.3
      vertex 15.96857 188.6114 77.025
      vertex 33.96857 188.6114 77.025
    endloop
  endfacet
  facet normal 0 0 -1
    outer loop
      vertex 11.31238 183.9552 74.225
      vertex 29.31238 102.8945 74.225
      vertex 11.31238 102.8945 74.225
    endloop
  endfacet
  facet normal 0 0 -1
    outer loop
      vertex 11.31238 183.9552 74.225
      vertex 29.31238 183.9552 74.225
      vertex 29.31238 102.8945 74.225
    endloop
  endfacet
  facet normal 0 0 -1
    outer loop
      vertex 11.31238 102.8945 74.225
      vertex 29.31238 75.87426 74.225
      vertex 11.31238 75.87426 74.225
    endloop
  endfacet
  facet normal 0 0 -1
    outer loop
      vertex 11.31238 102.8945 74.225
      vertex 29.31238 102.8945 74.225
      vertex 29.31238 75.87426 74.225
    endloop
  endfacet
  facet normal 0 0.07289889 0.9973393
    outer loop
      vertex 11.31238 183.9552 77.025
      vertex 11.31238 102.8945 82.95
      vertex 29.31238 102.8945 82.95
    endloop
  endfacet
  facet normal -0 0.07289889 0.9973393
    outer loop
      vertex 11.31238 183.9552 77.025
      vertex 29.31238 102.8945 82.95
      vertex 29.31238 183.9552 77.025
    endloop
  endfacet
  facet normal 0 0 1
    outer loop
      vertex 11.31238 102.8945 82.95
      vertex 11.31238 75.87426 82.95
      vertex 29.31238 75.87426 82.95
    endloop
  endfacet
  facet normal -0 0 1
    outer loop
      vertex 11.31238 102.8945 82.95
      vertex 29.31238 75.87426 82.95
      vertex 29.31238 102.8945 82.95
    endloop
  endfacet
  facet normal -1 0 0
    outer loop
      vertex 11.31238 183.9552 74.225
      vertex 11.31238 102.8945 74.225
      vertex 11.31238 102.8945 82.95
    endloop
  endfacet
  facet normal -1 0 0
    outer loop
      vertex 11.31238 183.9552 74.225
      vertex 11.31238 102.8945 82.95
      vertex 11.31238 183.9552 77.025
    endloop
  endfacet
  facet normal -1 0 0
    outer loop
      vertex 11.31238 102.8945 74.225
      vertex 11.31238 75.87426 74.225
      vertex 11.31238 75.87426 82.95
    endloop
  endfacet
  facet normal -1 0 0
    outer loop
      vertex 11.31238 102.8945 74.225
      vertex 11.31238 75.87426 82.95
      vertex 11.31238 102.8945 82.95
    endloop
  endfacet
  facet normal 1 0 0
    outer loop
      vertex 29.31238 183.9552 74.225
      vertex 29.31238 102.8945 82.95
      vertex 29.31238 102.8945 74.225
    endloop
  endfacet
  facet normal 1 0 -0
    outer loop
      vertex 29.31238 183.9552 74.225
      vertex 29.31238 183.9552 77.025
      vertex 29.31238 102.8945 82.95
    endloop
  endfacet
  facet normal 1 0 0
    outer loop
      vertex 29.31238 102.8945 74.225
      vertex 29.31238 75.87426 82.95
      vertex 29.31238 75.87426 74.225
    endloop
  endfacet
  facet normal 1 0 -0
    outer loop
      vertex 29.31238 102.8945 74.225
      vertex 29.31238 102.8945 82.95
      vertex 29.31238 75.87426 82.95
    endloop
  endfacet
  facet normal 0 1 0
    outer loop
      vertex 29.31238 183.9552 74.225
      vertex 11.31238 183.9552 74.225
      vertex 11.31238 183.9552 77.025
    endloop
  endfacet
  facet normal 0 1 -0
    outer loop
      vertex 29.31238 183.9552 74.225
      vertex 11.31238 183.9552 77.025
      vertex 29.31238 183.9552 77.025
    endloop
  endfacet
  facet normal 0 -1 0
    outer loop
      vertex 11.31238 75.87426 74.225
      vertex 29.31238 75.87426 74.225
      vertex 29.31238 75.87426 82.95
    endloop
  endfacet
  facet normal 0 -1 0
    outer loop
      vertex 11.31238 75.87426 74.225
      vertex 29.31238 75.87426 82.95
      vertex 11.31238 75.87426 82.95
    endloop
  endfacet
  facet normal 0 0 -1
    outer loop
      vertex 6.656189 80.53045 80.15
      vertex 6.656189 154.6069 80.15
      vertex 24.65619 154.6069 80.15
    endloop
  endfacet
  facet normal 0 0 -1
    outer loop
      vertex 6.656189 80.53045 80.15
      vertex 24.65619 154.6069 80.15
      vertex 24.65619 80.53045 80.15
    endloop
  endfacet
  facet normal 0 0 -1
    outer loop
      vertex 6.656189 154.6069 80.15
      vertex 6.656189 179.299 80.15
      vertex 24.65619 179.299 80.15
    endloop
  endfacet
  facet normal 0 0 -1
    outer loop
      vertex 6.656189 154.6069 80.15
      vertex 24.65619 179.299 80.15
      vertex 24.65619 154.6069 80.15
    endloop
  endfacet
  facet normal 0 -0.07973033 0.9968165
    outer loop
      vertex 6.656189 80.53045 82.95
      vertex 24.65619 154.6069 88.875
      vertex 6.656189 154.6069 88.875
    endloop
  endfacet
  facet normal 0 -0.07973033 0.9968165
    outer loop
      vertex 6.656189 80.53045 82.95
      vertex 24.65619 80.53045 82.95
      vertex 24.65619 154.6069 88.875
    endloop
  endfacet
  facet normal 0 0 1
    outer loop
      vertex 6.656189 154.6069 88.875
      vertex 24.65619 179.299 88.875
      vertex 6.656189 179.299 88.875
    endloop
  endfacet
  facet normal 0 0 1
    outer loop
      vertex 6.656189 154.6069 88.875
      vertex 24.65619 154.6069 88.875
      vertex 24.65619 179.299 88.875
    endloop
  endfacet
  facet normal -1 0 0
    outer loop
      vertex 6.656189 80.53045 80.15
      vertex 6.656189 154.6069 88.875
      vertex 6.656189 154.6069 80.15
    endloop
  endfacet
  facet normal -1 0 0
    outer loop
      vertex 6.656189 80.53045 80.15
      vertex 6.656189 80.53045 82.95
      vertex 6.656189 154.6069 88.875
    endloop
  endfacet
  facet normal -1 0 0
    outer loop
      vertex 6.656189 154.6069 80.15
      vertex 6.656189 179.299 88.875
      vertex 6.656189 179.299 80.15
    endloop
  endfacet
  facet normal -1 0 0
    outer loop
      vertex 6.656189 154.6069 80.15
      vertex 6.656189 154.6069 88.875
      vertex 6.656189 179.299 88.875
    endloop
  endfacet
  facet normal 1 0 0
    outer loop
      vertex 24.65619 80.53045 80.15
      vertex 24.65619 154.6069 80.15
      vertex 24.65619 154.6069 88.875
    endloop
  endfacet
  facet normal 1 0 0
    outer loop
      vertex 24.65619 80.53045 80.15
      vertex 24.65619 154.6069 88.875
      vertex 24.65619 80.53045 82.95
    endloop
  endfacet
  facet normal 1 0 0
    outer loop
      vertex 24.65619 154.6069 80.15
      vertex 24.65619 179.299 80.15
      vertex 24.65619 179.299 88.875
    endloop
  endfacet
  facet normal 1 0 0
    outer loop
      vertex 24.65619 154.6069 80.15
      vertex 24.65619 179.299 88.875
      vertex 24.65619 154.6069 88.875
    endloop
  endfacet
  facet normal 0 -1 0
    outer loop
      vertex 24.65619 80.53045 80.15
      vertex 6.656189 80.53045 82.95
      vertex 6.656189 80.53045 80.15
    endloop
  endfacet
  facet normal 0 -1 0
    outer loop
      vertex 24.65619 80.53045 80.15
      vertex 24.65619 80.53045 82.95
      vertex 6.656189 80.53045 82.95
    endloop
  endfacet
  facet normal 0 1 0
    outer loop
      vertex 6.656189 179.299 80.15
      vertex 24.65619 179.299 88.875
      vertex 24.65619 179.299 80.15
    endloop
  endfacet
  facet normal 0 1 0
    outer loop
      vertex 6.656189 179.299 80.15
      vertex 6.656189 179.299 88.875
      vertex 24.65619 179.299 88.875
    endloop
  endfacet
  facet normal 0 0 -1
    outer loop
      vertex 2 174.6428 86.075
      vertex 20 107.5507 86.075
      vertex 2 107.5507 86.075
    endloop
  endfacet
  facet normal 0 0 -1
    outer loop
      vertex 2 174.6428 86.075
      vertex 20 174.6428 86.075
      vertex 20 107.5507 86.075
    endloop
  endfacet
  facet normal 0 0 -1
    outer loop
      vertex 2 107.5507 86.075
      vertex 20 85.18664 86.075
      vertex 2 85.18664 86.075
    endloop
  endfacet
  facet normal 0 0 -1
    outer loop
      vertex 2 107.5507 86.075
      vertex 20 107.5507 86.075
      vertex 20 85.18664 86.075
    endloop
  endfacet
  facet normal 0 0.08796902 0.9961232
    outer loop
      vertex 2 174.6428 88.875
      vertex 2 107.5507 94.8
      vertex 20 107.5507 94.8
    endloop
  endfacet
  facet normal -0 0.08796902 0.9961232
    outer loop
      vertex 2 174.6428 88.875
      vertex 20 107.5507 94.8
      vertex 20 174.6428 88.875
    endloop
  endfacet
  facet normal 0 0 1
    outer loop
      vertex 2 107.5507 94.8
      vertex 2 85.18664 94.8
      vertex 20 85.18664 94.8
    endloop
  endfacet
  facet normal -0 0 1
    outer loop
      vertex 2 107.5507 94.8
      vertex 20 85.18664 94.8
      vertex 20 107.5507 94.8
    endloop
  endfacet
  facet normal -1 0 0
    outer loop
      vertex 2 174.6428 86.075
      vertex 2 107.5507 86.075
      vertex 2 107.5507 94.8
    endloop
  endfacet
  facet normal -1 0 0
    outer loop
      vertex 2 174.6428 86.075
      vertex 2 107.5507 94.8
      vertex 2 174.6428 88.875
    endloop
  endfacet
  facet normal -1 0 0
    outer loop
      vertex 2 107.5507 86.075
      vertex 2 85.18664 86.075
      vertex 2 85.18664 94.8
    endloop
  endfacet
  facet normal -1 0 0
    outer loop
      vertex 2 107.5507 86.075
      vertex 2 85.18664 94.8
      vertex 2 107.5507 94.8
    endloop
  endfacet
  facet normal 1 0 0
    outer loop
      vertex 20 174.6428 86.075
      vertex 20 107.5507 94.8
      vertex 20 107.5507 86.075
    endloop
  endfacet
  facet normal 1 0 -0
    outer loop
      vertex 20 174.6428 86.075
      vertex 20 174.6428 88.875
      vertex 20 107.5507 94.8
    endloop
  endfacet
  facet normal 1 0 0
    outer loop
      vertex 20 107.5507 86.075
      vertex 20 85.18664 94.8
      vertex 20 85.18664 86.075
    endloop
  endfacet
  facet normal 1 0 -0
    outer loop
      vertex 20 107.5507 86.075
      vertex 20 107.5507 94.8
      vertex 20 85.18664 94.8
    endloop
  endfacet
  facet normal 0 1 0
    outer loop
      vertex 20 174.6428 86.075
      vertex 2 174.6428 86.075
      vertex 2 174.6428 88.875
    endloop
  endfacet
  facet normal 0 1 -0
    outer loop
      vertex 20 174.6428 86.075
      vertex 2 174.6428 88.875
      vertex 20 174.6428 88.875
    endloop
  endfacet
  facet normal 0 -1 0
    outer loop
      vertex 2 85.18664 86.075
      vertex 20 85.18664 86.075
      vertex 20 85.18664 94.8
    endloop
  endfacet
  facet normal 0 -1 0
    outer loop
      vertex 2 85.18664 86.075
      vertex 20 85.18664 94.8
      vertex 2 85.18664 94.8
    endloop
  endfacet
endsolid temporary_switchback_ramps_east_local_underfill
