solid temporary_switchback_ramps_east_local_underfill
  facet normal 0 -0 -1
    outer loop
      vertex 85.18664 226.4857 0
      vertex 85.18664 6.656189 0
      vertex 67.18664 6.656189 0
    endloop
  endfacet
  facet normal -0 0 -1
    outer loop
      vertex 85.18664 226.4857 0
      vertex 67.18664 6.656189 0
      vertex 67.18664 226.4857 0
    endloop
  endfacet
  facet normal 0 0 1
    outer loop
      vertex 67.18664 226.4857 3.125
      vertex 67.18664 6.656189 3.125
      vertex 85.18664 6.656189 3.125
    endloop
  endfacet
  facet normal -0 0 1
    outer loop
      vertex 67.18664 226.4857 3.125
      vertex 85.18664 6.656189 3.125
      vertex 85.18664 226.4857 3.125
    endloop
  endfacet
  facet normal -1 0 0
    outer loop
      vertex 67.18664 226.4857 0
      vertex 67.18664 6.656189 0
      vertex 67.18664 6.656189 3.125
    endloop
  endfacet
  facet normal -1 0 0
    outer loop
      vertex 67.18664 226.4857 0
      vertex 67.18664 6.656189 3.125
      vertex 67.18664 226.4857 3.125
    endloop
  endfacet
  facet normal 0 -1 0
    outer loop
      vertex 67.18664 6.656189 0
      vertex 85.18664 6.656189 0
      vertex 85.18664 6.656189 3.125
    endloop
  endfacet
  facet normal 0 -1 0
    outer loop
      vertex 67.18664 6.656189 0
      vertex 85.18664 6.656189 3.125
      vertex 67.18664 6.656189 3.125
    endloop
  endfacet
  facet normal 1 0 0
    outer loop
      vertex 85.18664 6.656189 0
      vertex 85.18664 226.4857 0
      vertex 85.18664 226.4857 3.125
    endloop
  endfacet
  facet normal 1 0 0
    outer loop
      vertex 85.18664 6.656189 0
      vertex 85.18664 226.4857 3.125
      vertex 85.18664 6.656189 3.125
    endloop
  endfacet
  facet normal 0 1 0
    outer loop
      vertex 85.18664 226.4857 0
      vertex 67.18664 226.4857 0
      vertex 67.18664 226.4857 3.125
    endloop
  endfacet
  facet normal 0 1 -0
    outer loop
      vertex 85.18664 226.4857 0
      vertex 67.18664 226.4857 3.125
      vertex 85.18664 226.4857 3.125
    endloop
  endfacet
  facet normal 0 -0 -1
    outer loop
      vertex 80.53045 221.8295 5.925
      vertex 80.53045 11.31238 5.925
      vertex 62.53045 11.31238 5.925
    endloop
  endfacet
  facet normal -0 0 -1
    outer loop
      vertex 80.53045 221.8295 5.925
      vertex 62.53045 11.31238 5.925
      vertex 62.53045 221.8295 5.925
    endloop
  endfacet
  facet normal 0 0 1
    outer loop
      vertex 62.53045 221.8295 9.05
      vertex 62.53045 11.31238 9.05
      vertex 80.53045 11.31238 9.05
    endloop
  endfacet
  facet normal -0 0 1
    outer loop
      vertex 62.53045 221.8295 9.05
      vertex 80.53045 11.31238 9.05
      vertex 80.53045 221.8295 9.05
    endloop
  endfacet
  facet normal -1 0 0
    outer loop
      vertex 62.53045 221.8295 5.925
      vertex 62.53045 11.31238 5.925
      vertex 62.53045 11.31238 9.05
    endloop
  endfacet
  facet normal -1 0 0
    outer loop
      vertex 62.53045 221.8295 5.925
      vertex 62.53045 11.31238 9.05
      vertex 62.53045 221.8295 9.05
    endloop
  endfacet
  facet normal 0 -1 0
    outer loop
      vertex 62.53045 11.31238 5.925
      vertex 80.53045 11.31238 5.925
      vertex 80.53045 11.31238 9.05
    endloop
  endfacet
  facet normal 0 -1 0
    outer loop
      vertex 62.53045 11.31238 5.925
      vertex 80.53045 11.31238 9.05
      vertex 62.53045 11.31238 9.05
    endloop
  endfacet
  facet normal 1 0 0
    outer loop
      vertex 80.53045 11.31238 5.925
      vertex 80.53045 221.8295 5.925
      vertex 80.53045 221.8295 9.05
    endloop
  endfacet
  facet normal 1 0 0
    outer loop
      vertex 80.53045 11.31238 5.925
      vertex 80.53045 221.8295 9.05
      vertex 80.53045 11.31238 9.05
    endloop
  endfacet
  facet normal 0 1 0
    outer loop
      vertex 80.53045 221.8295 5.925
      vertex 62.53045 221.8295 5.925
      vertex 62.53045 221.8295 9.05
    endloop
  endfacet
  facet normal 0 1 -0
    outer loop
      vertex 80.53045 221.8295 5.925
      vertex 62.53045 221.8295 9.05
      vertex 80.53045 221.8295 9.05
    endloop
  endfacet
  facet normal 0 -0 -1
    outer loop
      vertex 75.87426 217.1733 11.85
      vertex 75.87426 15.96857 11.85
      vertex 57.87426 15.96857 11.85
    endloop
  endfacet
  facet normal -0 0 -1
    outer loop
      vertex 75.87426 217.1733 11.85
      vertex 57.87426 15.96857 11.85
      vertex 57.87426 217.1733 11.85
    endloop
  endfacet
  facet normal 0 0 1
    outer loop
      vertex 57.87426 217.1733 14.975
      vertex 57.87426 15.96857 14.975
      vertex 75.87426 15.96857 14.975
    endloop
  endfacet
  facet normal -0 0 1
    outer loop
      vertex 57.87426 217.1733 14.975
      vertex 75.87426 15.96857 14.975
      vertex 75.87426 217.1733 14.975
    endloop
  endfacet
  facet normal -1 0 0
    outer loop
      vertex 57.87426 217.1733 11.85
      vertex 57.87426 15.96857 11.85
      vertex 57.87426 15.96857 14.975
    endloop
  endfacet
  facet normal -1 0 0
    outer loop
      vertex 57.87426 217.1733 11.85
      vertex 57.87426 15.96857 14.975
      vertex 57.87426 217.1733 14.975
    endloop
  endfacet
  facet normal 0 -1 0
    outer loop
      vertex 57.87426 15.96857 11.85
      vertex 75.87426 15.96857 11.85
      vertex 75.87426 15.96857 14.975
    endloop
  endfacet
  facet normal 0 -1 0
    outer loop
      vertex 57.87426 15.96857 11.85
      vertex 75.87426 15.96857 14.975
      vertex 57.87426 15.96857 14.975
    endloop
  endfacet
  facet normal 1 0 0
    outer loop
      vertex 75.87426 15.96857 11.85
      vertex 75.87426 217.1733 11.85
      vertex 75.87426 217.1733 14.975
    endloop
  endfacet
  facet normal 1 0 0
    outer loop
      vertex 75.87426 15.96857 11.85
      vertex 75.87426 217.1733 14.975
      vertex 75.87426 15.96857 14.975
    endloop
  endfacet
  facet normal 0 1 0
    outer loop
      vertex 75.87426 217.1733 11.85
      vertex 57.87426 217.1733 11.85
      vertex 57.87426 217.1733 14.975
    endloop
  endfacet
  facet normal 0 1 -0
    outer loop
      vertex 75.87426 217.1733 11.85
      vertex 57.87426 217.1733 14.975
      vertex 75.87426 217.1733 14.975
    endloop
  endfacet
  facet normal 0 -0 -1
    outer loop
      vertex 71.21807 212.5171 17.775
      vertex 71.21807 20.62475 17.775
      vertex 53.21807 20.62475 17.775
    endloop
  endfacet
  facet normal -0 0 -1
    outer loop
      vertex 71.21807 212.5171 17.775
      vertex 53.21807 20.62475 17.775
      vertex 53.21807 212.5171 17.775
    endloop
  endfacet
  facet normal 0 0 1
    outer loop
      vertex 53.21807 212.5171 20.9
      vertex 53.21807 20.62475 20.9
      vertex 71.21807 20.62475 20.9
    endloop
  endfacet
  facet normal -0 0 1
    outer loop
      vertex 53.21807 212.5171 20.9
      vertex 71.21807 20.62475 20.9
      vertex 71.21807 212.5171 20.9
    endloop
  endfacet
  facet normal -1 0 0
    outer loop
      vertex 53.21807 212.5171 17.775
      vertex 53.21807 20.62475 17.775
      vertex 53.21807 20.62475 20.9
    endloop
  endfacet
  facet normal -1 0 0
    outer loop
      vertex 53.21807 212.5171 17.775
      vertex 53.21807 20.62475 20.9
      vertex 53.21807 212.5171 20.9
    endloop
  endfacet
  facet normal 0 -1 0
    outer loop
      vertex 53.21807 20.62475 17.775
      vertex 71.21807 20.62475 17.775
      vertex 71.21807 20.62475 20.9
    endloop
  endfacet
  facet normal 0 -1 0
    outer loop
      vertex 53.21807 20.62475 17.775
      vertex 71.21807 20.62475 20.9
      vertex 53.21807 20.62475 20.9
    endloop
  endfacet
  facet normal 1 0 0
    outer loop
      vertex 71.21807 20.62475 17.775
      vertex 71.21807 212.5171 17.775
      vertex 71.21807 212.5171 20.9
    endloop
  endfacet
  facet normal 1 0 0
    outer loop
      vertex 71.21807 20.62475 17.775
      vertex 71.21807 212.5171 20.9
      vertex 71.21807 20.62475 20.9
    endloop
  endfacet
  facet normal 0 1 0
    outer loop
      vertex 71.21807 212.5171 17.775
      vertex 53.21807 212.5171 17.775
      vertex 53.21807 212.5171 20.9
    endloop
  endfacet
  facet normal 0 1 -0
    outer loop
      vertex 71.21807 212.5171 17.775
      vertex 53.21807 212.5171 20.9
      vertex 71.21807 212.5171 20.9
    endloop
  endfacet
  facet normal 0 -0 -1
    outer loop
      vertex 66.56189 207.8609 23.7
      vertex 66.56189 25.28094 23.7
      vertex 48.56189 25.28094 23.7
    endloop
  endfacet
  facet normal -0 0 -1
    outer loop
      vertex 66.56189 207.8609 23.7
      vertex 48.56189 25.28094 23.7
      vertex 48.56189 207.8609 23.7
    endloop
  endfacet
  facet normal 0 0 1
    outer loop
      vertex 48.56189 207.8609 26.825
      vertex 48.56189 25.28094 26.825
      vertex 66.56189 25.28094 26.825
    endloop
  endfacet
  facet normal -0 0 1
    outer loop
      vertex 48.56189 207.8609 26.825
      vertex 66.56189 25.28094 26.825
      vertex 66.56189 207.8609 26.825
    endloop
  endfacet
  facet normal -1 0 0
    outer loop
      vertex 48.56189 207.8609 23.7
      vertex 48.56189 25.28094 23.7
      vertex 48.56189 25.28094 26.825
    endloop
  endfacet
  facet normal -1 0 0
    outer loop
      vertex 48.56189 207.8609 23.7
      vertex 48.56189 25.28094 26.825
      vertex 48.56189 207.8609 26.825
    endloop
  endfacet
  facet normal 0 -1 0
    outer loop
      vertex 48.56189 25.28094 23.7
      vertex 66.56189 25.28094 23.7
      vertex 66.56189 25.28094 26.825
    endloop
  endfacet
  facet normal 0 -1 0
    outer loop
      vertex 48.56189 25.28094 23.7
      vertex 66.56189 25.28094 26.825
      vertex 48.56189 25.28094 26.825
    endloop
  endfacet
  facet normal 1 0 0
    outer loop
      vertex 66.56189 25.28094 23.7
      vertex 66.56189 207.8609 23.7
      vertex 66.56189 207.8609 26.825
    endloop
  endfacet
  facet normal 1 0 0
    outer loop
      vertex 66.56189 25.28094 23.7
      vertex 66.56189 207.8609 26.825
      vertex 66.56189 25.28094 26.825
    endloop
  endfacet
  facet normal 0 1 0
    outer loop
      vertex 66.56189 207.8609 23.7
      vertex 48.56189 207.8609 23.7
      vertex 48.56189 207.8609 26.825
    endloop
  endfacet
  facet normal 0 1 -0
    outer loop
      vertex 66.56189 207.8609 23.7
      vertex 48.56189 207.8609 26.825
      vertex 66.56189 207.8609 26.825
    endloop
  endfacet
  facet normal 0 -0 -1
    outer loop
      vertex 61.9057 203.2047 29.625
      vertex 61.9057 29.93713 29.625
      vertex 43.9057 29.93713 29.625
    endloop
  endfacet
  facet normal -0 0 -1
    outer loop
      vertex 61.9057 203.2047 29.625
      vertex 43.9057 29.93713 29.625
      vertex 43.9057 203.2047 29.625
    endloop
  endfacet
  facet normal 0 0 1
    outer loop
      vertex 43.9057 203.2047 32.75
      vertex 43.9057 29.93713 32.75
      vertex 61.9057 29.93713 32.75
    endloop
  endfacet
  facet normal -0 0 1
    outer loop
      vertex 43.9057 203.2047 32.75
      vertex 61.9057 29.93713 32.75
      vertex 61.9057 203.2047 32.75
    endloop
  endfacet
  facet normal -1 0 0
    outer loop
      vertex 43.9057 203.2047 29.625
      vertex 43.9057 29.93713 29.625
      vertex 43.9057 29.93713 32.75
    endloop
  endfacet
  facet normal -1 0 0
    outer loop
      vertex 43.9057 203.2047 29.625
      vertex 43.9057 29.93713 32.75
      vertex 43.9057 203.2047 32.75
    endloop
  endfacet
  facet normal 0 -1 0
    outer loop
      vertex 43.9057 29.93713 29.625
      vertex 61.9057 29.93713 29.625
      vertex 61.9057 29.93713 32.75
    endloop
  endfacet
  facet normal 0 -1 0
    outer loop
      vertex 43.9057 29.93713 29.625
      vertex 61.9057 29.93713 32.75
      vertex 43.9057 29.93713 32.75
    endloop
  endfacet
  facet normal 1 0 0
    outer loop
      vertex 61.9057 29.93713 29.625
      vertex 61.9057 203.2047 29.625
      vertex 61.9057 203.2047 32.75
    endloop
  endfacet
  facet normal 1 0 0
    outer loop
      vertex 61.9057 29.93713 29.625
      vertex 61.9057 203.2047 32.75
      vertex 61.9057 29.93713 32.75
    endloop
  endfacet
  facet normal 0 1 0
    outer loop
      vertex 61.9057 203.2047 29.625
      vertex 43.9057 203.2047 29.625
      vertex 43.9057 203.2047 32.75
    endloop
  endfacet
  facet normal 0 1 -0
    outer loop
      vertex 61.9057 203.2047 29.625
      vertex 43.9057 203.2047 32.75
      vertex 61.9057 203.2047 32.75
    endloop
  endfacet
  facet normal 0 -0 -1
    outer loop
      vertex 57.24951 198.5485 35.55
      vertex 57.24951 34.59332 35.55
      vertex 39.24951 34.59332 35.55
    endloop
  endfacet
  facet normal -0 0 -1
    outer loop
      vertex 57.24951 198.5485 35.55
      vertex 39.24951 34.59332 35.55
      vertex 39.24951 198.5485 35.55
    endloop
  endfacet
  facet normal 0 0 1
    outer loop
      vertex 39.24951 198.5485 38.675
      vertex 39.24951 34.59332 38.675
      vertex 57.24951 34.59332 38.675
    endloop
  endfacet
  facet normal -0 0 1
    outer loop
      vertex 39.24951 198.5485 38.675
      vertex 57.24951 34.59332 38.675
      vertex 57.24951 198.5485 38.675
    endloop
  endfacet
  facet normal -1 0 0
    outer loop
      vertex 39.24951 198.5485 35.55
      vertex 39.24951 34.59332 35.55
      vertex 39.24951 34.59332 38.675
    endloop
  endfacet
  facet normal -1 0 0
    outer loop
      vertex 39.24951 198.5485 35.55
      vertex 39.24951 34.59332 38.675
      vertex 39.24951 198.5485 38.675
    endloop
  endfacet
  facet normal 0 -1 0
    outer loop
      vertex 39.24951 34.59332 35.55
      vertex 57.24951 34.59332 35.55
      vertex 57.24951 34.59332 38.675
    endloop
  endfacet
  facet normal 0 -1 0
    outer loop
      vertex 39.24951 34.59332 35.55
      vertex 57.24951 34.59332 38.675
      vertex 39.24951 34.59332 38.675
    endloop
  endfacet
  facet normal 1 0 0
    outer loop
      vertex 57.24951 34.59332 35.55
      vertex 57.24951 198.5485 35.55
      vertex 57.24951 198.5485 38.675
    endloop
  endfacet
  facet normal 1 0 0
    outer loop
      vertex 57.24951 34.59332 35.55
      vertex 57.24951 198.5485 38.675
      vertex 57.24951 34.59332 38.675
    endloop
  endfacet
  facet normal 0 1 0
    outer loop
      vertex 57.24951 198.5485 35.55
      vertex 39.24951 198.5485 35.55
      vertex 39.24951 198.5485 38.675
    endloop
  endfacet
  facet normal 0 1 -0
    outer loop
      vertex 57.24951 198.5485 35.55
      vertex 39.24951 198.5485 38.675
      vertex 57.24951 198.5485 38.675
    endloop
  endfacet
  facet normal 0 -0 -1
    outer loop
      vertex 52.59332 193.8923 41.475
      vertex 52.59332 39.24951 41.475
      vertex 34.59332 39.24951 41.475
    endloop
  endfacet
  facet normal -0 0 -1
    outer loop
      vertex 52.59332 193.8923 41.475
      vertex 34.59332 39.24951 41.475
      vertex 34.59332 193.8923 41.475
    endloop
  endfacet
  facet normal 0 0 1
    outer loop
      vertex 34.59332 193.8923 44.6
      vertex 34.59332 39.24951 44.6
      vertex 52.59332 39.24951 44.6
    endloop
  endfacet
  facet normal -0 0 1
    outer loop
      vertex 34.59332 193.8923 44.6
      vertex 52.59332 39.24951 44.6
      vertex 52.59332 193.8923 44.6
    endloop
  endfacet
  facet normal -1 0 0
    outer loop
      vertex 34.59332 193.8923 41.475
      vertex 34.59332 39.24951 41.475
      vertex 34.59332 39.24951 44.6
    endloop
  endfacet
  facet normal -1 0 0
    outer loop
      vertex 34.59332 193.8923 41.475
      vertex 34.59332 39.24951 44.6
      vertex 34.59332 193.8923 44.6
    endloop
  endfacet
  facet normal 0 -1 0
    outer loop
      vertex 34.59332 39.24951 41.475
      vertex 52.59332 39.24951 41.475
      vertex 52.59332 39.24951 44.6
    endloop
  endfacet
  facet normal 0 -1 0
    outer loop
      vertex 34.59332 39.24951 41.475
      vertex 52.59332 39.24951 44.6
      vertex 34.59332 39.24951 44.6
    endloop
  endfacet
  facet normal 1 0 0
    outer loop
      vertex 52.59332 39.24951 41.475
      vertex 52.59332 193.8923 41.475
      vertex 52.59332 193.8923 44.6
    endloop
  endfacet
  facet normal 1 0 0
    outer loop
      vertex 52.59332 39.24951 41.475
      vertex 52.59332 193.8923 44.6
      vertex 52.59332 39.24951 44.6
    endloop
  endfacet
  facet normal 0 1 0
    outer loop
      vertex 52.59332 193.8923 41.475
      vertex 34.59332 193.8923 41.475
      vertex 34.59332 193.8923 44.6
    endloop
  endfacet
  facet normal 0 1 -0
    outer loop
      vertex 52.59332 193.8923 41.475
      vertex 34.59332 193.8923 44.6
      vertex 52.59332 193.8923 44.6
    endloop
  endfacet
  facet normal 0 -0 -1
    outer loop
      vertex 47.93713 189.2361 47.4
      vertex 47.93713 43.9057 47.4
      vertex 29.93713 43.9057 47.4
    endloop
  endfacet
  facet normal -0 0 -1
    outer loop
      vertex 47.93713 189.2361 47.4
      vertex 29.93713 43.9057 47.4
      vertex 29.93713 189.2361 47.4
    endloop
  endfacet
  facet normal 0 0 1
    outer loop
      vertex 29.93713 189.2361 50.525
      vertex 29.93713 43.9057 50.525
      vertex 47.93713 43.9057 50.525
    endloop
  endfacet
  facet normal -0 0 1
    outer loop
      vertex 29.93713 189.2361 50.525
      vertex 47.93713 43.9057 50.525
      vertex 47.93713 189.2361 50.525
    endloop
  endfacet
  facet normal -1 0 0
    outer loop
      vertex 29.93713 189.2361 47.4
      vertex 29.93713 43.9057 47.4
      vertex 29.93713 43.9057 50.525
    endloop
  endfacet
  facet normal -1 0 0
    outer loop
      vertex 29.93713 189.2361 47.4
      vertex 29.93713 43.9057 50.525
      vertex 29.93713 189.2361 50.525
    endloop
  endfacet
  facet normal 0 -1 0
    outer loop
      vertex 29.93713 43.9057 47.4
      vertex 47.93713 43.9057 47.4
      vertex 47.93713 43.9057 50.525
    endloop
  endfacet
  facet normal 0 -1 0
    outer loop
      vertex 29.93713 43.9057 47.4
      vertex 47.93713 43.9057 50.525
      vertex 29.93713 43.9057 50.525
    endloop
  endfacet
  facet normal 1 0 0
    outer loop
      vertex 47.93713 43.9057 47.4
      vertex 47.93713 189.2361 47.4
      vertex 47.93713 189.2361 50.525
    endloop
  endfacet
  facet normal 1 0 0
    outer loop
      vertex 47.93713 43.9057 47.4
      vertex 47.93713 189.2361 50.525
      vertex 47.93713 43.9057 50.525
    endloop
  endfacet
  facet normal 0 1 0
    outer loop
      vertex 47.93713 189.2361 47.4
      vertex 29.93713 189.2361 47.4
      vertex 29.93713 189.2361 50.525
    endloop
  endfacet
  facet normal 0 1 -0
    outer loop
      vertex 47.93713 189.2361 47.4
      vertex 29.93713 189.2361 50.525
      vertex 47.93713 189.2361 50.525
    endloop
  endfacet
  facet normal 0 -0 -1
    outer loop
      vertex 43.28094 184.58 53.325
      vertex 43.28094 48.56189 53.325
      vertex 25.28094 48.56189 53.325
    endloop
  endfacet
  facet normal -0 0 -1
    outer loop
      vertex 43.28094 184.58 53.325
      vertex 25.28094 48.56189 53.325
      vertex 25.28094 184.58 53.325
    endloop
  endfacet
  facet normal 0 0 1
    outer loop
      vertex 25.28094 184.58 56.45
      vertex 25.28094 48.56189 56.45
      vertex 43.28094 48.56189 56.45
    endloop
  endfacet
  facet normal -0 0 1
    outer loop
      vertex 25.28094 184.58 56.45
      vertex 43.28094 48.56189 56.45
      vertex 43.28094 184.58 56.45
    endloop
  endfacet
  facet normal -1 0 0
    outer loop
      vertex 25.28094 184.58 53.325
      vertex 25.28094 48.56189 53.325
      vertex 25.28094 48.56189 56.45
    endloop
  endfacet
  facet normal -1 0 0
    outer loop
      vertex 25.28094 184.58 53.325
      vertex 25.28094 48.56189 56.45
      vertex 25.28094 184.58 56.45
    endloop
  endfacet
  facet normal 0 -1 0
    outer loop
      vertex 25.28094 48.56189 53.325
      vertex 43.28094 48.56189 53.325
      vertex 43.28094 48.56189 56.45
    endloop
  endfacet
  facet normal 0 -1 0
    outer loop
      vertex 25.28094 48.56189 53.325
      vertex 43.28094 48.56189 56.45
      vertex 25.28094 48.56189 56.45
    endloop
  endfacet
  facet normal 1 0 0
    outer loop
      vertex 43.28094 48.56189 53.325
      vertex 43.28094 184.58 53.325
      vertex 43.28094 184.58 56.45
    endloop
  endfacet
  facet normal 1 0 0
    outer loop
      vertex 43.28094 48.56189 53.325
      vertex 43.28094 184.58 56.45
      vertex 43.28094 48.56189 56.45
    endloop
  endfacet
  facet normal 0 1 0
    outer loop
      vertex 43.28094 184.58 53.325
      vertex 25.28094 184.58 53.325
      vertex 25.28094 184.58 56.45
    endloop
  endfacet
  facet normal 0 1 -0
    outer loop
      vertex 43.28094 184.58 53.325
      vertex 25.28094 184.58 56.45
      vertex 43.28094 184.58 56.45
    endloop
  endfacet
  facet normal 0 -0 -1
    outer loop
      vertex 38.62475 179.9238 59.25
      vertex 38.62475 53.21807 59.25
      vertex 20.62475 53.21807 59.25
    endloop
  endfacet
  facet normal -0 0 -1
    outer loop
      vertex 38.62475 179.9238 59.25
      vertex 20.62475 53.21807 59.25
      vertex 20.62475 179.9238 59.25
    endloop
  endfacet
  facet normal 0 0 1
    outer loop
      vertex 20.62475 179.9238 62.375
      vertex 20.62475 53.21807 62.375
      vertex 38.62475 53.21807 62.375
    endloop
  endfacet
  facet normal -0 0 1
    outer loop
      vertex 20.62475 179.9238 62.375
      vertex 38.62475 53.21807 62.375
      vertex 38.62475 179.9238 62.375
    endloop
  endfacet
  facet normal -1 0 0
    outer loop
      vertex 20.62475 179.9238 59.25
      vertex 20.62475 53.21807 59.25
      vertex 20.62475 53.21807 62.375
    endloop
  endfacet
  facet normal -1 0 0
    outer loop
      vertex 20.62475 179.9238 59.25
      vertex 20.62475 53.21807 62.375
      vertex 20.62475 179.9238 62.375
    endloop
  endfacet
  facet normal 0 -1 0
    outer loop
      vertex 20.62475 53.21807 59.25
      vertex 38.62475 53.21807 59.25
      vertex 38.62475 53.21807 62.375
    endloop
  endfacet
  facet normal 0 -1 0
    outer loop
      vertex 20.62475 53.21807 59.25
      vertex 38.62475 53.21807 62.375
      vertex 20.62475 53.21807 62.375
    endloop
  endfacet
  facet normal 1 0 0
    outer loop
      vertex 38.62475 53.21807 59.25
      vertex 38.62475 179.9238 59.25
      vertex 38.62475 179.9238 62.375
    endloop
  endfacet
  facet normal 1 0 0
    outer loop
      vertex 38.62475 53.21807 59.25
      vertex 38.62475 179.9238 62.375
      vertex 38.62475 53.21807 62.375
    endloop
  endfacet
  facet normal 0 1 0
    outer loop
      vertex 38.62475 179.9238 59.25
      vertex 20.62475 179.9238 59.25
      vertex 20.62475 179.9238 62.375
    endloop
  endfacet
  facet normal 0 1 -0
    outer loop
      vertex 38.62475 179.9238 59.25
      vertex 20.62475 179.9238 62.375
      vertex 38.62475 179.9238 62.375
    endloop
  endfacet
  facet normal 0 -0 -1
    outer loop
      vertex 33.96857 175.2676 65.175
      vertex 33.96857 57.87426 65.175
      vertex 15.96857 57.87426 65.175
    endloop
  endfacet
  facet normal -0 0 -1
    outer loop
      vertex 33.96857 175.2676 65.175
      vertex 15.96857 57.87426 65.175
      vertex 15.96857 175.2676 65.175
    endloop
  endfacet
  facet normal 0 0 1
    outer loop
      vertex 15.96857 175.2676 68.3
      vertex 15.96857 57.87426 68.3
      vertex 33.96857 57.87426 68.3
    endloop
  endfacet
  facet normal -0 0 1
    outer loop
      vertex 15.96857 175.2676 68.3
      vertex 33.96857 57.87426 68.3
      vertex 33.96857 175.2676 68.3
    endloop
  endfacet
  facet normal -1 0 0
    outer loop
      vertex 15.96857 175.2676 65.175
      vertex 15.96857 57.87426 65.175
      vertex 15.96857 57.87426 68.3
    endloop
  endfacet
  facet normal -1 0 0
    outer loop
      vertex 15.96857 175.2676 65.175
      vertex 15.96857 57.87426 68.3
      vertex 15.96857 175.2676 68.3
    endloop
  endfacet
  facet normal 0 -1 0
    outer loop
      vertex 15.96857 57.87426 65.175
      vertex 33.96857 57.87426 65.175
      vertex 33.96857 57.87426 68.3
    endloop
  endfacet
  facet normal 0 -1 0
    outer loop
      vertex 15.96857 57.87426 65.175
      vertex 33.96857 57.87426 68.3
      vertex 15.96857 57.87426 68.3
    endloop
  endfacet
  facet normal 1 0 0
    outer loop
      vertex 33.96857 57.87426 65.175
      vertex 33.96857 175.2676 65.175
      vertex 33.96857 175.2676 68.3
    endloop
  endfacet
  facet normal 1 0 0
    outer loop
      vertex 33.96857 57.87426 65.175
      vertex 33.96857 175.2676 68.3
      vertex 33.96857 57.87426 68.3
    endloop
  endfacet
  facet normal 0 1 0
    outer loop
      vertex 33.96857 175.2676 65.175
      vertex 15.96857 175.2676 65.175
      vertex 15.96857 175.2676 68.3
    endloop
  endfacet
  facet normal 0 1 -0
    outer loop
      vertex 33.96857 175.2676 65.175
      vertex 15.96857 175.2676 68.3
      vertex 33.96857 175.2676 68.3
    endloop
  endfacet
  facet normal 0 -0 -1
    outer loop
      vertex 29.31238 170.6114 71.1
      vertex 29.31238 62.53045 71.1
      vertex 11.31238 62.53045 71.1
    endloop
  endfacet
  facet normal -0 0 -1
    outer loop
      vertex 29.31238 170.6114 71.1
      vertex 11.31238 62.53045 71.1
      vertex 11.31238 170.6114 71.1
    endloop
  endfacet
  facet normal 0 0 1
    outer loop
      vertex 11.31238 170.6114 74.225
      vertex 11.31238 62.53045 74.225
      vertex 29.31238 62.53045 74.225
    endloop
  endfacet
  facet normal -0 0 1
    outer loop
      vertex 11.31238 170.6114 74.225
      vertex 29.31238 62.53045 74.225
      vertex 29.31238 170.6114 74.225
    endloop
  endfacet
  facet normal -1 0 0
    outer loop
      vertex 11.31238 170.6114 71.1
      vertex 11.31238 62.53045 71.1
      vertex 11.31238 62.53045 74.225
    endloop
  endfacet
  facet normal -1 0 0
    outer loop
      vertex 11.31238 170.6114 71.1
      vertex 11.31238 62.53045 74.225
      vertex 11.31238 170.6114 74.225
    endloop
  endfacet
  facet normal 0 -1 0
    outer loop
      vertex 11.31238 62.53045 71.1
      vertex 29.31238 62.53045 71.1
      vertex 29.31238 62.53045 74.225
    endloop
  endfacet
  facet normal 0 -1 0
    outer loop
      vertex 11.31238 62.53045 71.1
      vertex 29.31238 62.53045 74.225
      vertex 11.31238 62.53045 74.225
    endloop
  endfacet
  facet normal 1 0 0
    outer loop
      vertex 29.31238 62.53045 71.1
      vertex 29.31238 170.6114 71.1
      vertex 29.31238 170.6114 74.225
    endloop
  endfacet
  facet normal 1 0 0
    outer loop
      vertex 29.31238 62.53045 71.1
      vertex 29.31238 170.6114 74.225
      vertex 29.31238 62.53045 74.225
    endloop
  endfacet
  facet normal 0 1 0
    outer loop
      vertex 29.31238 170.6114 71.1
      vertex 11.31238 170.6114 71.1
      vertex 11.31238 170.6114 74.225
    endloop
  endfacet
  facet normal 0 1 -0
    outer loop
      vertex 29.31238 170.6114 71.1
      vertex 11.31238 170.6114 74.225
      vertex 29.31238 170.6114 74.225
    endloop
  endfacet
  facet normal 0 -0 -1
    outer loop
      vertex 24.65619 165.9552 77.025
      vertex 24.65619 67.18664 77.025
      vertex 6.656189 67.18664 77.025
    endloop
  endfacet
  facet normal -0 0 -1
    outer loop
      vertex 24.65619 165.9552 77.025
      vertex 6.656189 67.18664 77.025
      vertex 6.656189 165.9552 77.025
    endloop
  endfacet
  facet normal 0 0 1
    outer loop
      vertex 6.656189 165.9552 80.15
      vertex 6.656189 67.18664 80.15
      vertex 24.65619 67.18664 80.15
    endloop
  endfacet
  facet normal -0 0 1
    outer loop
      vertex 6.656189 165.9552 80.15
      vertex 24.65619 67.18664 80.15
      vertex 24.65619 165.9552 80.15
    endloop
  endfacet
  facet normal -1 0 0
    outer loop
      vertex 6.656189 165.9552 77.025
      vertex 6.656189 67.18664 77.025
      vertex 6.656189 67.18664 80.15
    endloop
  endfacet
  facet normal -1 0 0
    outer loop
      vertex 6.656189 165.9552 77.025
      vertex 6.656189 67.18664 80.15
      vertex 6.656189 165.9552 80.15
    endloop
  endfacet
  facet normal 0 -1 0
    outer loop
      vertex 6.656189 67.18664 77.025
      vertex 24.65619 67.18664 77.025
      vertex 24.65619 67.18664 80.15
    endloop
  endfacet
  facet normal 0 -1 0
    outer loop
      vertex 6.656189 67.18664 77.025
      vertex 24.65619 67.18664 80.15
      vertex 6.656189 67.18664 80.15
    endloop
  endfacet
  facet normal 1 0 0
    outer loop
      vertex 24.65619 67.18664 77.025
      vertex 24.65619 165.9552 77.025
      vertex 24.65619 165.9552 80.15
    endloop
  endfacet
  facet normal 1 0 0
    outer loop
      vertex 24.65619 67.18664 77.025
      vertex 24.65619 165.9552 80.15
      vertex 24.65619 67.18664 80.15
    endloop
  endfacet
  facet normal 0 1 0
    outer loop
      vertex 24.65619 165.9552 77.025
      vertex 6.656189 165.9552 77.025
      vertex 6.656189 165.9552 80.15
    endloop
  endfacet
  facet normal 0 1 -0
    outer loop
      vertex 24.65619 165.9552 77.025
      vertex 6.656189 165.9552 80.15
      vertex 24.65619 165.9552 80.15
    endloop
  endfacet
  facet normal 0 -0 -1
    outer loop
      vertex 20 161.299 82.95
      vertex 20 71.84283 82.95
      vertex 2 71.84283 82.95
    endloop
  endfacet
  facet normal -0 0 -1
    outer loop
      vertex 20 161.299 82.95
      vertex 2 71.84283 82.95
      vertex 2 161.299 82.95
    endloop
  endfacet
  facet normal 0 0 1
    outer loop
      vertex 2 161.299 86.075
      vertex 2 71.84283 86.075
      vertex 20 71.84283 86.075
    endloop
  endfacet
  facet normal -0 0 1
    outer loop
      vertex 2 161.299 86.075
      vertex 20 71.84283 86.075
      vertex 20 161.299 86.075
    endloop
  endfacet
  facet normal -1 0 0
    outer loop
      vertex 2 161.299 82.95
      vertex 2 71.84283 82.95
      vertex 2 71.84283 86.075
    endloop
  endfacet
  facet normal -1 0 0
    outer loop
      vertex 2 161.299 82.95
      vertex 2 71.84283 86.075
      vertex 2 161.299 86.075
    endloop
  endfacet
  facet normal 0 -1 0
    outer loop
      vertex 2 71.84283 82.95
      vertex 20 71.84283 82.95
      vertex 20 71.84283 86.075
    endloop
  endfacet
  facet normal 0 -1 0
    outer loop
      vertex 2 71.84283 82.95
      vertex 20 71.84283 86.075
      vertex 2 71.84283 86.075
    endloop
  endfacet
  facet normal 1 0 0
    outer loop
      vertex 20 71.84283 82.95
      vertex 20 161.299 82.95
      vertex 20 161.299 86.075
    endloop
  endfacet
  facet normal 1 0 0
    outer loop
      vertex 20 71.84283 82.95
      vertex 20 161.299 86.075
      vertex 20 71.84283 86.075
    endloop
  endfacet
  facet normal 0 1 0
    outer loop
      vertex 20 161.299 82.95
      vertex 2 161.299 82.95
      vertex 2 161.299 86.075
    endloop
  endfacet
  facet normal 0 1 -0
    outer loop
      vertex 20 161.299 82.95
      vertex 2 161.299 86.075
      vertex 20 161.299 86.075
    endloop
  endfacet
  facet normal 0 0 -1
    outer loop
      vertex 71.84283 2 0
      vertex 71.84283 173.8564 0
      vertex 89.84283 173.8564 0
    endloop
  endfacet
  facet normal 0 0 -1
    outer loop
      vertex 71.84283 2 0
      vertex 89.84283 173.8564 0
      vertex 89.84283 2 0
    endloop
  endfacet
  facet normal 0 0 -1
    outer loop
      vertex 71.84283 173.8564 0
      vertex 71.84283 231.1418 0
      vertex 89.84283 231.1418 0
    endloop
  endfacet
  facet normal 0 0 -1
    outer loop
      vertex 71.84283 173.8564 0
      vertex 89.84283 231.1418 0
      vertex 89.84283 173.8564 0
    endloop
  endfacet
  facet normal 0 -0.02922704 0.9995728
    outer loop
      vertex 71.84283 2 0.9
      vertex 89.84283 173.8564 5.925
      vertex 71.84283 173.8564 5.925
    endloop
  endfacet
  facet normal 0 -0.02922704 0.9995728
    outer loop
      vertex 71.84283 2 0.9
      vertex 89.84283 2 0.9
      vertex 89.84283 173.8564 5.925
    endloop
  endfacet
  facet normal 0 0 1
    outer loop
      vertex 71.84283 173.8564 5.925
      vertex 89.84283 231.1418 5.925
      vertex 71.84283 231.1418 5.925
    endloop
  endfacet
  facet normal 0 0 1
    outer loop
      vertex 71.84283 173.8564 5.925
      vertex 89.84283 173.8564 5.925
      vertex 89.84283 231.1418 5.925
    endloop
  endfacet
  facet normal -1 0 0
    outer loop
      vertex 71.84283 2 0
      vertex 71.84283 173.8564 5.925
      vertex 71.84283 173.8564 0
    endloop
  endfacet
  facet normal -1 0 0
    outer loop
      vertex 71.84283 2 0
      vertex 71.84283 2 0.9
      vertex 71.84283 173.8564 5.925
    endloop
  endfacet
  facet normal -1 0 0
    outer loop
      vertex 71.84283 173.8564 0
      vertex 71.84283 231.1418 5.925
      vertex 71.84283 231.1418 0
    endloop
  endfacet
  facet normal -1 0 0
    outer loop
      vertex 71.84283 173.8564 0
      vertex 71.84283 173.8564 5.925
      vertex 71.84283 231.1418 5.925
    endloop
  endfacet
  facet normal 1 0 0
    outer loop
      vertex 89.84283 2 0
      vertex 89.84283 173.8564 0
      vertex 89.84283 173.8564 5.925
    endloop
  endfacet
  facet normal 1 0 0
    outer loop
      vertex 89.84283 2 0
      vertex 89.84283 173.8564 5.925
      vertex 89.84283 2 0.9
    endloop
  endfacet
  facet normal 1 0 0
    outer loop
      vertex 89.84283 173.8564 0
      vertex 89.84283 231.1418 0
      vertex 89.84283 231.1418 5.925
    endloop
  endfacet
  facet normal 1 0 0
    outer loop
      vertex 89.84283 173.8564 0
      vertex 89.84283 231.1418 5.925
      vertex 89.84283 173.8564 5.925
    endloop
  endfacet
  facet normal 0 -1 0
    outer loop
      vertex 89.84283 2 0
      vertex 71.84283 2 0.9
      vertex 71.84283 2 0
    endloop
  endfacet
  facet normal 0 -1 0
    outer loop
      vertex 89.84283 2 0
      vertex 89.84283 2 0.9
      vertex 71.84283 2 0.9
    endloop
  endfacet
  facet normal 0 1 0
    outer loop
      vertex 71.84283 231.1418 0
      vertex 89.84283 231.1418 5.925
      vertex 89.84283 231.1418 0
    endloop
  endfacet
  facet normal 0 1 0
    outer loop
      vertex 71.84283 231.1418 0
      vertex 71.84283 231.1418 5.925
      vertex 89.84283 231.1418 5.925
    endloop
  endfacet
  facet normal 0 0 -1
    outer loop
      vertex 67.18664 226.4857 3.125
      vertex 85.18664 61.61356 3.125
      vertex 67.18664 61.61356 3.125
    endloop
  endfacet
  facet normal 0 0 -1
    outer loop
      vertex 67.18664 226.4857 3.125
      vertex 85.18664 226.4857 3.125
      vertex 85.18664 61.61356 3.125
    endloop
  endfacet
  facet normal 0 0 -1
    outer loop
      vertex 67.18664 61.61356 3.125
      vertex 85.18664 6.656189 3.125
      vertex 67.18664 6.656189 3.125
    endloop
  endfacet
  facet normal 0 0 -1
    outer loop
      vertex 67.18664 61.61356 3.125
      vertex 85.18664 61.61356 3.125
      vertex 85.18664 6.656189 3.125
    endloop
  endfacet
  facet normal 0 0.03591376 0.9993549
    outer loop
      vertex 67.18664 226.4857 5.925
      vertex 67.18664 61.61356 11.85
      vertex 85.18664 61.61356 11.85
    endloop
  endfacet
  facet normal -0 0.03591376 0.9993549
    outer loop
      vertex 67.18664 226.4857 5.925
      vertex 85.18664 61.61356 11.85
      vertex 85.18664 226.4857 5.925
    endloop
  endfacet
  facet normal 0 0 1
    outer loop
      vertex 67.18664 61.61356 11.85
      vertex 67.18664 6.656189 11.85
      vertex 85.18664 6.656189 11.85
    endloop
  endfacet
  facet normal -0 0 1
    outer loop
      vertex 67.18664 61.61356 11.85
      vertex 85.18664 6.656189 11.85
      vertex 85.18664 61.61356 11.85
    endloop
  endfacet
  facet normal -1 0 0
    outer loop
      vertex 67.18664 226.4857 3.125
      vertex 67.18664 61.61356 3.125
      vertex 67.18664 61.61356 11.85
    endloop
  endfacet
  facet normal -1 0 0
    outer loop
      vertex 67.18664 226.4857 3.125
      vertex 67.18664 61.61356 11.85
      vertex 67.18664 226.4857 5.925
    endloop
  endfacet
  facet normal -1 0 0
    outer loop
      vertex 67.18664 61.61356 3.125
      vertex 67.18664 6.656189 3.125
      vertex 67.18664 6.656189 11.85
    endloop
  endfacet
  facet normal -1 0 0
    outer loop
      vertex 67.18664 61.61356 3.125
      vertex 67.18664 6.656189 11.85
      vertex 67.18664 61.61356 11.85
    endloop
  endfacet
  facet normal 1 0 0
    outer loop
      vertex 85.18664 226.4857 3.125
      vertex 85.18664 61.61356 11.85
      vertex 85.18664 61.61356 3.125
    endloop
  endfacet
  facet normal 1 0 -0
    outer loop
      vertex 85.18664 226.4857 3.125
      vertex 85.18664 226.4857 5.925
      vertex 85.18664 61.61356 11.85
    endloop
  endfacet
  facet normal 1 0 0
    outer loop
      vertex 85.18664 61.61356 3.125
      vertex 85.18664 6.656189 11.85
      vertex 85.18664 6.656189 3.125
    endloop
  endfacet
  facet normal 1 0 -0
    outer loop
      vertex 85.18664 61.61356 3.125
      vertex 85.18664 61.61356 11.85
      vertex 85.18664 6.656189 11.85
    endloop
  endfacet
  facet normal 0 1 0
    outer loop
      vertex 85.18664 226.4857 3.125
      vertex 67.18664 226.4857 3.125
      vertex 67.18664 226.4857 5.925
    endloop
  endfacet
  facet normal 0 1 -0
    outer loop
      vertex 85.18664 226.4857 3.125
      vertex 67.18664 226.4857 5.925
      vertex 85.18664 226.4857 5.925
    endloop
  endfacet
  facet normal 0 -1 0
    outer loop
      vertex 67.18664 6.656189 3.125
      vertex 85.18664 6.656189 3.125
      vertex 85.18664 6.656189 11.85
    endloop
  endfacet
  facet normal 0 -1 0
    outer loop
      vertex 67.18664 6.656189 3.125
      vertex 85.18664 6.656189 11.85
      vertex 67.18664 6.656189 11.85
    endloop
  endfacet
  facet normal 0 0 -1
    outer loop
      vertex 62.53045 11.31238 9.05
      vertex 62.53045 169.2002 9.05
      vertex 80.53045 169.2002 9.05
    endloop
  endfacet
  facet normal 0 0 -1
    outer loop
      vertex 62.53045 11.31238 9.05
      vertex 80.53045 169.2002 9.05
      vertex 80.53045 11.31238 9.05
    endloop
  endfacet
  facet normal 0 0 -1
    outer loop
      vertex 62.53045 169.2002 9.05
      vertex 62.53045 221.8295 9.05
      vertex 80.53045 221.8295 9.05
    endloop
  endfacet
  facet normal 0 0 -1
    outer loop
      vertex 62.53045 169.2002 9.05
      vertex 80.53045 221.8295 9.05
      vertex 80.53045 169.2002 9.05
    endloop
  endfacet
  facet normal 0 -0.03750025 0.9992966
    outer loop
      vertex 62.53045 11.31238 11.85
      vertex 80.53045 169.2002 17.775
      vertex 62.53045 169.2002 17.775
    endloop
  endfacet
  facet normal 0 -0.03750025 0.9992966
    outer loop
      vertex 62.53045 11.31238 11.85
      vertex 80.53045 11.31238 11.85
      vertex 80.53045 169.2002 17.775
    endloop
  endfacet
  facet normal 0 0 1
    outer loop
      vertex 62.53045 169.2002 17.775
      vertex 80.53045 221.8295 17.775
      vertex 62.53045 221.8295 17.775
    endloop
  endfacet
  facet normal 0 0 1
    outer loop
      vertex 62.53045 169.2002 17.775
      vertex 80.53045 169.2002 17.775
      vertex 80.53045 221.8295 17.775
    endloop
  endfacet
  facet normal -1 0 0
    outer loop
      vertex 62.53045 11.31238 9.05
      vertex 62.53045 169.2002 17.775
      vertex 62.53045 169.2002 9.05
    endloop
  endfacet
  facet normal -1 0 0
    outer loop
      vertex 62.53045 11.31238 9.05
      vertex 62.53045 11.31238 11.85
      vertex 62.53045 169.2002 17.775
    endloop
  endfacet
  facet normal -1 0 0
    outer loop
      vertex 62.53045 169.2002 9.05
      vertex 62.53045 221.8295 17.775
      vertex 62.53045 221.8295 9.05
    endloop
  endfacet
  facet normal -1 0 0
    outer loop
      vertex 62.53045 169.2002 9.05
      vertex 62.53045 169.2002 17.775
      vertex 62.53045 221.8295 17.775
    endloop
  endfacet
  facet normal 1 0 0
    outer loop
      vertex 80.53045 11.31238 9.05
      vertex 80.53045 169.2002 9.05
      vertex 80.53045 169.2002 17.775
    endloop
  endfacet
  facet normal 1 0 0
    outer loop
      vertex 80.53045 11.31238 9.05
      vertex 80.53045 169.2002 17.775
      vertex 80.53045 11.31238 11.85
    endloop
  endfacet
  facet normal 1 0 0
    outer loop
      vertex 80.53045 169.2002 9.05
      vertex 80.53045 221.8295 9.05
      vertex 80.53045 221.8295 17.775
    endloop
  endfacet
  facet normal 1 0 0
    outer loop
      vertex 80.53045 169.2002 9.05
      vertex 80.53045 221.8295 17.775
      vertex 80.53045 169.2002 17.775
    endloop
  endfacet
  facet normal 0 -1 0
    outer loop
      vertex 80.53045 11.31238 9.05
      vertex 62.53045 11.31238 11.85
      vertex 62.53045 11.31238 9.05
    endloop
  endfacet
  facet normal 0 -1 0
    outer loop
      vertex 80.53045 11.31238 9.05
      vertex 80.53045 11.31238 11.85
      vertex 62.53045 11.31238 11.85
    endloop
  endfacet
  facet normal 0 1 0
    outer loop
      vertex 62.53045 221.8295 9.05
      vertex 80.53045 221.8295 17.775
      vertex 80.53045 221.8295 9.05
    endloop
  endfacet
  facet normal 0 1 0
    outer loop
      vertex 62.53045 221.8295 9.05
      vertex 62.53045 221.8295 17.775
      vertex 80.53045 221.8295 17.775
    endloop
  endfacet
  facet normal 0 0 -1
    outer loop
      vertex 57.87426 217.1733 14.975
      vertex 75.87426 66.26974 14.975
      vertex 57.87426 66.26974 14.975
    endloop
  endfacet
  facet normal 0 0 -1
    outer loop
      vertex 57.87426 217.1733 14.975
      vertex 75.87426 217.1733 14.975
      vertex 75.87426 66.26974 14.975
    endloop
  endfacet
  facet normal 0 0 -1
    outer loop
      vertex 57.87426 66.26974 14.975
      vertex 75.87426 15.96857 14.975
      vertex 57.87426 15.96857 14.975
    endloop
  endfacet
  facet normal 0 0 -1
    outer loop
      vertex 57.87426 66.26974 14.975
      vertex 75.87426 66.26974 14.975
      vertex 75.87426 15.96857 14.975
    endloop
  endfacet
  facet normal 0 0.03923326 0.9992301
    outer loop
      vertex 57.87426 217.1733 17.775
      vertex 57.87426 66.26974 23.7
      vertex 75.87426 66.26974 23.7
    endloop
  endfacet
  facet normal -0 0.03923326 0.9992301
    outer loop
      vertex 57.87426 217.1733 17.775
      vertex 75.87426 66.26974 23.7
      vertex 75.87426 217.1733 17.775
    endloop
  endfacet
  facet normal 0 0 1
    outer loop
      vertex 57.87426 66.26974 23.7
      vertex 57.87426 15.96857 23.7
      vertex 75.87426 15.96857 23.7
    endloop
  endfacet
  facet normal -0 0 1
    outer loop
      vertex 57.87426 66.26974 23.7
      vertex 75.87426 15.96857 23.7
      vertex 75.87426 66.26974 23.7
    endloop
  endfacet
  facet normal -1 0 0
    outer loop
      vertex 57.87426 217.1733 14.975
      vertex 57.87426 66.26974 14.975
      vertex 57.87426 66.26974 23.7
    endloop
  endfacet
  facet normal -1 0 0
    outer loop
      vertex 57.87426 217.1733 14.975
      vertex 57.87426 66.26974 23.7
      vertex 57.87426 217.1733 17.775
    endloop
  endfacet
  facet normal -1 0 0
    outer loop
      vertex 57.87426 66.26974 14.975
      vertex 57.87426 15.96857 14.975
      vertex 57.87426 15.96857 23.7
    endloop
  endfacet
  facet normal -1 0 0
    outer loop
      vertex 57.87426 66.26974 14.975
      vertex 57.87426 15.96857 23.7
      vertex 57.87426 66.26974 23.7
    endloop
  endfacet
  facet normal 1 0 0
    outer loop
      vertex 75.87426 217.1733 14.975
      vertex 75.87426 66.26974 23.7
      vertex 75.87426 66.26974 14.975
    endloop
  endfacet
  facet normal 1 0 -0
    outer loop
      vertex 75.87426 217.1733 14.975
      vertex 75.87426 217.1733 17.775
      vertex 75.87426 66.26974 23.7
    endloop
  endfacet
  facet normal 1 0 0
    outer loop
      vertex 75.87426 66.26974 14.975
      vertex 75.87426 15.96857 23.7
      vertex 75.87426 15.96857 14.975
    endloop
  endfacet
  facet normal 1 0 -0
    outer loop
      vertex 75.87426 66.26974 14.975
      vertex 75.87426 66.26974 23.7
      vertex 75.87426 15.96857 23.7
    endloop
  endfacet
  facet normal 0 1 0
    outer loop
      vertex 75.87426 217.1733 14.975
      vertex 57.87426 217.1733 14.975
      vertex 57.87426 217.1733 17.775
    endloop
  endfacet
  facet normal 0 1 -0
    outer loop
      vertex 75.87426 217.1733 14.975
      vertex 57.87426 217.1733 17.775
      vertex 75.87426 217.1733 17.775
    endloop
  endfacet
  facet normal 0 -1 0
    outer loop
      vertex 57.87426 15.96857 14.975
      vertex 75.87426 15.96857 14.975
      vertex 75.87426 15.96857 23.7
    endloop
  endfacet
  facet normal 0 -1 0
    outer loop
      vertex 57.87426 15.96857 14.975
      vertex 75.87426 15.96857 23.7
      vertex 57.87426 15.96857 23.7
    endloop
  endfacet
  facet normal 0 0 -1
    outer loop
      vertex 53.21807 20.62475 20.9
      vertex 53.21807 164.544 20.9
      vertex 71.21807 164.544 20.9
    endloop
  endfacet
  facet normal 0 0 -1
    outer loop
      vertex 53.21807 20.62475 20.9
      vertex 71.21807 164.544 20.9
      vertex 71.21807 20.62475 20.9
    endloop
  endfacet
  facet normal 0 0 -1
    outer loop
      vertex 53.21807 164.544 20.9
      vertex 53.21807 212.5171 20.9
      vertex 71.21807 212.5171 20.9
    endloop
  endfacet
  facet normal 0 0 -1
    outer loop
      vertex 53.21807 164.544 20.9
      vertex 71.21807 212.5171 20.9
      vertex 71.21807 164.544 20.9
    endloop
  endfacet
  facet normal 0 -0.04113407 0.9991536
    outer loop
      vertex 53.21807 20.62475 23.7
      vertex 71.21807 164.544 29.625
      vertex 53.21807 164.544 29.625
    endloop
  endfacet
  facet normal 0 -0.04113407 0.9991536
    outer loop
      vertex 53.21807 20.62475 23.7
      vertex 71.21807 20.62475 23.7
      vertex 71.21807 164.544 29.625
    endloop
  endfacet
  facet normal 0 0 1
    outer loop
      vertex 53.21807 164.544 29.625
      vertex 71.21807 212.5171 29.625
      vertex 53.21807 212.5171 29.625
    endloop
  endfacet
  facet normal 0 0 1
    outer loop
      vertex 53.21807 164.544 29.625
      vertex 71.21807 164.544 29.625
      vertex 71.21807 212.5171 29.625
    endloop
  endfacet
  facet normal -1 0 0
    outer loop
      vertex 53.21807 20.62475 20.9
      vertex 53.21807 164.544 29.625
      vertex 53.21807 164.544 20.9
    endloop
  endfacet
  facet normal -1 0 0
    outer loop
      vertex 53.21807 20.62475 20.9
      vertex 53.21807 20.62475 23.7
      vertex 53.21807 164.544 29.625
    endloop
  endfacet
  facet normal -1 0 0
    outer loop
      vertex 53.21807 164.544 20.9
      vertex 53.21807 212.5171 29.625
      vertex 53.21807 212.5171 20.9
    endloop
  endfacet
  facet normal -1 0 0
    outer loop
      vertex 53.21807 164.544 20.9
      vertex 53.21807 164.544 29.625
      vertex 53.21807 212.5171 29.625
    endloop
  endfacet
  facet normal 1 0 0
    outer loop
      vertex 71.21807 20.62475 20.9
      vertex 71.21807 164.544 20.9
      vertex 71.21807 164.544 29.625
    endloop
  endfacet
  facet normal 1 0 0
    outer loop
      vertex 71.21807 20.62475 20.9
      vertex 71.21807 164.544 29.625
      vertex 71.21807 20.62475 23.7
    endloop
  endfacet
  facet normal 1 0 0
    outer loop
      vertex 71.21807 164.544 20.9
      vertex 71.21807 212.5171 20.9
      vertex 71.21807 212.5171 29.625
    endloop
  endfacet
  facet normal 1 0 0
    outer loop
      vertex 71.21807 164.544 20.9
      vertex 71.21807 212.5171 29.625
      vertex 71.21807 164.544 29.625
    endloop
  endfacet
  facet normal 0 -1 0
    outer loop
      vertex 71.21807 20.62475 20.9
      vertex 53.21807 20.62475 23.7
      vertex 53.21807 20.62475 20.9
    endloop
  endfacet
  facet normal 0 -1 0
    outer loop
      vertex 71.21807 20.62475 20.9
      vertex 71.21807 20.62475 23.7
      vertex 53.21807 20.62475 23.7
    endloop
  endfacet
  facet normal 0 1 0
    outer loop
      vertex 53.21807 212.5171 20.9
      vertex 71.21807 212.5171 29.625
      vertex 71.21807 212.5171 20.9
    endloop
  endfacet
  facet normal 0 1 0
    outer loop
      vertex 53.21807 212.5171 20.9
      vertex 53.21807 212.5171 29.625
      vertex 71.21807 212.5171 29.625
    endloop
  endfacet
  facet normal 0 0 -1
    outer loop
      vertex 48.56189 207.8609 26.825
      vertex 66.56189 70.92593 26.825
      vertex 48.56189 70.92593 26.825
    endloop
  endfacet
  facet normal 0 0 -1
    outer loop
      vertex 48.56189 207.8609 26.825
      vertex 66.56189 207.8609 26.825
      vertex 66.56189 70.92593 26.825
    endloop
  endfacet
  facet normal 0 0 -1
    outer loop
      vertex 48.56189 70.92593 26.825
      vertex 66.56189 25.28094 26.825
      vertex 48.56189 25.28094 26.825
    endloop
  endfacet
  facet normal 0 0 -1
    outer loop
      vertex 48.56189 70.92593 26.825
      vertex 66.56189 70.92593 26.825
      vertex 66.56189 25.28094 26.825
    endloop
  endfacet
  facet normal 0 0.04322827 0.9990652
    outer loop
      vertex 48.56189 207.8609 29.625
      vertex 48.56189 70.92593 35.55
      vertex 66.56189 70.92593 35.55
    endloop
  endfacet
  facet normal -0 0.04322827 0.9990652
    outer loop
      vertex 48.56189 207.8609 29.625
      vertex 66.56189 70.92593 35.55
      vertex 66.56189 207.8609 29.625
    endloop
  endfacet
  facet normal 0 0 1
    outer loop
      vertex 48.56189 70.92593 35.55
      vertex 48.56189 25.28094 35.55
      vertex 66.56189 25.28094 35.55
    endloop
  endfacet
  facet normal -0 0 1
    outer loop
      vertex 48.56189 70.92593 35.55
      vertex 66.56189 25.28094 35.55
      vertex 66.56189 70.92593 35.55
    endloop
  endfacet
  facet normal -1 0 0
    outer loop
      vertex 48.56189 207.8609 26.825
      vertex 48.56189 70.92593 26.825
      vertex 48.56189 70.92593 35.55
    endloop
  endfacet
  facet normal -1 0 0
    outer loop
      vertex 48.56189 207.8609 26.825
      vertex 48.56189 70.92593 35.55
      vertex 48.56189 207.8609 29.625
    endloop
  endfacet
  facet normal -1 0 0
    outer loop
      vertex 48.56189 70.92593 26.825
      vertex 48.56189 25.28094 26.825
      vertex 48.56189 25.28094 35.55
    endloop
  endfacet
  facet normal -1 0 0
    outer loop
      vertex 48.56189 70.92593 26.825
      vertex 48.56189 25.28094 35.55
      vertex 48.56189 70.92593 35.55
    endloop
  endfacet
  facet normal 1 0 0
    outer loop
      vertex 66.56189 207.8609 26.825
      vertex 66.56189 70.92593 35.55
      vertex 66.56189 70.92593 26.825
    endloop
  endfacet
  facet normal 1 0 -0
    outer loop
      vertex 66.56189 207.8609 26.825
      vertex 66.56189 207.8609 29.625
      vertex 66.56189 70.92593 35.55
    endloop
  endfacet
  facet normal 1 0 0
    outer loop
      vertex 66.56189 70.92593 26.825
      vertex 66.56189 25.28094 35.55
      vertex 66.56189 25.28094 26.825
    endloop
  endfacet
  facet normal 1 0 -0
    outer loop
      vertex 66.56189 70.92593 26.825
      vertex 66.56189 70.92593 35.55
      vertex 66.56189 25.28094 35.55
    endloop
  endfacet
  facet normal 0 1 0
    outer loop
      vertex 66.56189 207.8609 26.825
      vertex 48.56189 207.8609 26.825
      vertex 48.56189 207.8609 29.625
    endloop
  endfacet
  facet normal 0 1 -0
    outer loop
      vertex 66.56189 207.8609 26.825
      vertex 48.56189 207.8609 29.625
      vertex 66.56189 207.8609 29.625
    endloop
  endfacet
  facet normal 0 -1 0
    outer loop
      vertex 48.56189 25.28094 26.825
      vertex 66.56189 25.28094 26.825
      vertex 66.56189 25.28094 35.55
    endloop
  endfacet
  facet normal 0 -1 0
    outer loop
      vertex 48.56189 25.28094 26.825
      vertex 66.56189 25.28094 35.55
      vertex 48.56189 25.28094 35.55
    endloop
  endfacet
  facet normal 0 0 -1
    outer loop
      vertex 43.9057 29.93713 32.75
      vertex 43.9057 159.8878 32.75
      vertex 61.9057 159.8878 32.75
    endloop
  endfacet
  facet normal 0 0 -1
    outer loop
      vertex 43.9057 29.93713 32.75
      vertex 61.9057 159.8878 32.75
      vertex 61.9057 29.93713 32.75
    endloop
  endfacet
  facet normal 0 0 -1
    outer loop
      vertex 43.9057 159.8878 32.75
      vertex 43.9057 203.2047 32.75
      vertex 61.9057 203.2047 32.75
    endloop
  endfacet
  facet normal 0 0 -1
    outer loop
      vertex 43.9057 159.8878 32.75
      vertex 61.9057 203.2047 32.75
      vertex 61.9057 159.8878 32.75
    endloop
  endfacet
  facet normal 0 -0.0455469 0.9989622
    outer loop
      vertex 43.9057 29.93713 35.55
      vertex 61.9057 159.8878 41.475
      vertex 43.9057 159.8878 41.475
    endloop
  endfacet
  facet normal 0 -0.0455469 0.9989622
    outer loop
      vertex 43.9057 29.93713 35.55
      vertex 61.9057 29.93713 35.55
      vertex 61.9057 159.8878 41.475
    endloop
  endfacet
  facet normal 0 0 1
    outer loop
      vertex 43.9057 159.8878 41.475
      vertex 61.9057 203.2047 41.475
      vertex 43.9057 203.2047 41.475
    endloop
  endfacet
  facet normal 0 0 1
    outer loop
      vertex 43.9057 159.8878 41.475
      vertex 61.9057 159.8878 41.475
      vertex 61.9057 203.2047 41.475
    endloop
  endfacet
  facet normal -1 0 0
    outer loop
      vertex 43.9057 29.93713 32.75
      vertex 43.9057 159.8878 41.475
      vertex 43.9057 159.8878 32.75
    endloop
  endfacet
  facet normal -1 0 0
    outer loop
      vertex 43.9057 29.93713 32.75
      vertex 43.9057 29.93713 35.55
      vertex 43.9057 159.8878 41.475
    endloop
  endfacet
  facet normal -1 0 0
    outer loop
      vertex 43.9057 159.8878 32.75
      vertex 43.9057 203.2047 41.475
      vertex 43.9057 203.2047 32.75
    endloop
  endfacet
  facet normal -1 0 0
    outer loop
      vertex 43.9057 159.8878 32.75
      vertex 43.9057 159.8878 41.475
      vertex 43.9057 203.2047 41.475
    endloop
  endfacet
  facet normal 1 0 0
    outer loop
      vertex 61.9057 29.93713 32.75
      vertex 61.9057 159.8878 32.75
      vertex 61.9057 159.8878 41.475
    endloop
  endfacet
  facet normal 1 0 0
    outer loop
      vertex 61.9057 29.93713 32.75
      vertex 61.9057 159.8878 41.475
      vertex 61.9057 29.93713 35.55
    endloop
  endfacet
  facet normal 1 0 0
    outer loop
      vertex 61.9057 159.8878 32.75
      vertex 61.9057 203.2047 32.75
      vertex 61.9057 203.2047 41.475
    endloop
  endfacet
  facet normal 1 0 0
    outer loop
      vertex 61.9057 159.8878 32.75
      vertex 61.9057 203.2047 41.475
      vertex 61.9057 159.8878 41.475
    endloop
  endfacet
  facet normal 0 -1 0
    outer loop
      vertex 61.9057 29.93713 32.75
      vertex 43.9057 29.93713 35.55
      vertex 43.9057 29.93713 32.75
    endloop
  endfacet
  facet normal 0 -1 0
    outer loop
      vertex 61.9057 29.93713 32.75
      vertex 61.9057 29.93713 35.55
      vertex 43.9057 29.93713 35.55
    endloop
  endfacet
  facet normal 0 1 0
    outer loop
      vertex 43.9057 203.2047 32.75
      vertex 61.9057 203.2047 41.475
      vertex 61.9057 203.2047 32.75
    endloop
  endfacet
  facet normal 0 1 0
    outer loop
      vertex 43.9057 203.2047 32.75
      vertex 43.9057 203.2047 41.475
      vertex 61.9057 203.2047 41.475
    endloop
  endfacet
  facet normal 0 0 -1
    outer loop
      vertex 39.24951 198.5485 38.675
      vertex 57.24951 75.58212 38.675
      vertex 39.24951 75.58212 38.675
    endloop
  endfacet
  facet normal 0 0 -1
    outer loop
      vertex 39.24951 198.5485 38.675
      vertex 57.24951 198.5485 38.675
      vertex 57.24951 75.58212 38.675
    endloop
  endfacet
  facet normal 0 0 -1
    outer loop
      vertex 39.24951 75.58212 38.675
      vertex 57.24951 34.59332 38.675
      vertex 39.24951 34.59332 38.675
    endloop
  endfacet
  facet normal 0 0 -1
    outer loop
      vertex 39.24951 75.58212 38.675
      vertex 57.24951 75.58212 38.675
      vertex 57.24951 34.59332 38.675
    endloop
  endfacet
  facet normal 0 0.04812806 0.9988412
    outer loop
      vertex 39.24951 198.5485 41.475
      vertex 39.24951 75.58212 47.4
      vertex 57.24951 75.58212 47.4
    endloop
  endfacet
  facet normal -0 0.04812806 0.9988412
    outer loop
      vertex 39.24951 198.5485 41.475
      vertex 57.24951 75.58212 47.4
      vertex 57.24951 198.5485 41.475
    endloop
  endfacet
  facet normal 0 0 1
    outer loop
      vertex 39.24951 75.58212 47.4
      vertex 39.24951 34.59332 47.4
      vertex 57.24951 34.59332 47.4
    endloop
  endfacet
  facet normal -0 0 1
    outer loop
      vertex 39.24951 75.58212 47.4
      vertex 57.24951 34.59332 47.4
      vertex 57.24951 75.58212 47.4
    endloop
  endfacet
  facet normal -1 0 0
    outer loop
      vertex 39.24951 198.5485 38.675
      vertex 39.24951 75.58212 38.675
      vertex 39.24951 75.58212 47.4
    endloop
  endfacet
  facet normal -1 0 0
    outer loop
      vertex 39.24951 198.5485 38.675
      vertex 39.24951 75.58212 47.4
      vertex 39.24951 198.5485 41.475
    endloop
  endfacet
  facet normal -1 0 0
    outer loop
      vertex 39.24951 75.58212 38.675
      vertex 39.24951 34.59332 38.675
      vertex 39.24951 34.59332 47.4
    endloop
  endfacet
  facet normal -1 0 0
    outer loop
      vertex 39.24951 75.58212 38.675
      vertex 39.24951 34.59332 47.4
      vertex 39.24951 75.58212 47.4
    endloop
  endfacet
  facet normal 1 0 0
    outer loop
      vertex 57.24951 198.5485 38.675
      vertex 57.24951 75.58212 47.4
      vertex 57.24951 75.58212 38.675
    endloop
  endfacet
  facet normal 1 0 -0
    outer loop
      vertex 57.24951 198.5485 38.675
      vertex 57.24951 198.5485 41.475
      vertex 57.24951 75.58212 47.4
    endloop
  endfacet
  facet normal 1 0 0
    outer loop
      vertex 57.24951 75.58212 38.675
      vertex 57.24951 34.59332 47.4
      vertex 57.24951 34.59332 38.675
    endloop
  endfacet
  facet normal 1 0 -0
    outer loop
      vertex 57.24951 75.58212 38.675
      vertex 57.24951 75.58212 47.4
      vertex 57.24951 34.59332 47.4
    endloop
  endfacet
  facet normal 0 1 0
    outer loop
      vertex 57.24951 198.5485 38.675
      vertex 39.24951 198.5485 38.675
      vertex 39.24951 198.5485 41.475
    endloop
  endfacet
  facet normal 0 1 -0
    outer loop
      vertex 57.24951 198.5485 38.675
      vertex 39.24951 198.5485 41.475
      vertex 57.24951 198.5485 41.475
    endloop
  endfacet
  facet normal 0 -1 0
    outer loop
      vertex 39.24951 34.59332 38.675
      vertex 57.24951 34.59332 38.675
      vertex 57.24951 34.59332 47.4
    endloop
  endfacet
  facet normal 0 -1 0
    outer loop
      vertex 39.24951 34.59332 38.675
      vertex 57.24951 34.59332 47.4
      vertex 39.24951 34.59332 47.4
    endloop
  endfacet
  facet normal 0 0 -1
    outer loop
      vertex 34.59332 39.24951 44.6
      vertex 34.59332 155.2316 44.6
      vertex 52.59332 155.2316 44.6
    endloop
  endfacet
  facet normal 0 0 -1
    outer loop
      vertex 34.59332 39.24951 44.6
      vertex 52.59332 155.2316 44.6
      vertex 52.59332 39.24951 44.6
    endloop
  endfacet
  facet normal 0 0 -1
    outer loop
      vertex 34.59332 155.2316 44.6
      vertex 34.59332 193.8923 44.6
      vertex 52.59332 193.8923 44.6
    endloop
  endfacet
  facet normal 0 0 -1
    outer loop
      vertex 34.59332 155.2316 44.6
      vertex 52.59332 193.8923 44.6
      vertex 52.59332 155.2316 44.6
    endloop
  endfacet
  facet normal 0 -0.05101893 0.9986977
    outer loop
      vertex 34.59332 39.24951 47.4
      vertex 52.59332 155.2316 53.325
      vertex 34.59332 155.2316 53.325
    endloop
  endfacet
  facet normal 0 -0.05101893 0.9986977
    outer loop
      vertex 34.59332 39.24951 47.4
      vertex 52.59332 39.24951 47.4
      vertex 52.59332 155.2316 53.325
    endloop
  endfacet
  facet normal 0 0 1
    outer loop
      vertex 34.59332 155.2316 53.325
      vertex 52.59332 193.8923 53.325
      vertex 34.59332 193.8923 53.325
    endloop
  endfacet
  facet normal 0 0 1
    outer loop
      vertex 34.59332 155.2316 53.325
      vertex 52.59332 155.2316 53.325
      vertex 52.59332 193.8923 53.325
    endloop
  endfacet
  facet normal -1 0 0
    outer loop
      vertex 34.59332 39.24951 44.6
      vertex 34.59332 155.2316 53.325
      vertex 34.59332 155.2316 44.6
    endloop
  endfacet
  facet normal -1 0 0
    outer loop
      vertex 34.59332 39.24951 44.6
      vertex 34.59332 39.24951 47.4
      vertex 34.59332 155.2316 53.325
    endloop
  endfacet
  facet normal -1 0 0
    outer loop
      vertex 34.59332 155.2316 44.6
      vertex 34.59332 193.8923 53.325
      vertex 34.59332 193.8923 44.6
    endloop
  endfacet
  facet normal -1 0 0
    outer loop
      vertex 34.59332 155.2316 44.6
      vertex 34.59332 155.2316 53.325
      vertex 34.59332 193.8923 53.325
    endloop
  endfacet
  facet normal 1 0 0
    outer loop
      vertex 52.59332 39.24951 44.6
      vertex 52.59332 155.2316 44.6
      vertex 52.59332 155.2316 53.325
    endloop
  endfacet
  facet normal 1 0 0
    outer loop
      vertex 52.59332 39.24951 44.6
      vertex 52.59332 155.2316 53.325
      vertex 52.59332 39.24951 47.4
    endloop
  endfacet
  facet normal 1 0 0
    outer loop
      vertex 52.59332 155.2316 44.6
      vertex 52.59332 193.8923 44.6
      vertex 52.59332 193.8923 53.325
    endloop
  endfacet
  facet normal 1 0 0
    outer loop
      vertex 52.59332 155.2316 44.6
      vertex 52.59332 193.8923 53.325
      vertex 52.59332 155.2316 53.325
    endloop
  endfacet
  facet normal 0 -1 0
    outer loop
      vertex 52.59332 39.24951 44.6
      vertex 34.59332 39.24951 47.4
      vertex 34.59332 39.24951 44.6
    endloop
  endfacet
  facet normal 0 -1 0
    outer loop
      vertex 52.59332 39.24951 44.6
      vertex 52.59332 39.24951 47.4
      vertex 34.59332 39.24951 47.4
    endloop
  endfacet
  facet normal 0 1 0
    outer loop
      vertex 34.59332 193.8923 44.6
      vertex 52.59332 193.8923 53.325
      vertex 52.59332 193.8923 44.6
    endloop
  endfacet
  facet normal 0 1 0
    outer loop
      vertex 34.59332 193.8923 44.6
      vertex 34.59332 193.8923 53.325
      vertex 52.59332 193.8923 53.325
    endloop
  endfacet
  facet normal 0 0 -1
    outer loop
      vertex 29.93713 189.2361 50.525
      vertex 47.93713 80.23831 50.525
      vertex 29.93713 80.23831 50.525
    endloop
  endfacet
  facet normal 0 0 -1
    outer loop
      vertex 29.93713 189.2361 50.525
      vertex 47.93713 189.2361 50.525
      vertex 47.93713 80.23831 50.525
    endloop
  endfacet
  facet normal 0 0 -1
    outer loop
      vertex 29.93713 80.23831 50.525
      vertex 47.93713 43.9057 50.525
      vertex 29.93713 43.9057 50.525
    endloop
  endfacet
  facet normal 0 0 -1
    outer loop
      vertex 29.93713 80.23831 50.525
      vertex 47.93713 80.23831 50.525
      vertex 47.93713 43.9057 50.525
    endloop
  endfacet
  facet normal 0 0.05427874 0.9985258
    outer loop
      vertex 29.93713 189.2361 53.325
      vertex 29.93713 80.23831 59.25
      vertex 47.93713 80.23831 59.25
    endloop
  endfacet
  facet normal -0 0.05427874 0.9985258
    outer loop
      vertex 29.93713 189.2361 53.325
      vertex 47.93713 80.23831 59.25
      vertex 47.93713 189.2361 53.325
    endloop
  endfacet
  facet normal 0 0 1
    outer loop
      vertex 29.93713 80.23831 59.25
      vertex 29.93713 43.9057 59.25
      vertex 47.93713 43.9057 59.25
    endloop
  endfacet
  facet normal -0 0 1
    outer loop
      vertex 29.93713 80.23831 59.25
      vertex 47.93713 43.9057 59.25
      vertex 47.93713 80.23831 59.25
    endloop
  endfacet
  facet normal -1 0 0
    outer loop
      vertex 29.93713 189.2361 50.525
      vertex 29.93713 80.23831 50.525
      vertex 29.93713 80.23831 59.25
    endloop
  endfacet
  facet normal -1 0 0
    outer loop
      vertex 29.93713 189.2361 50.525
      vertex 29.93713 80.23831 59.25
      vertex 29.93713 189.2361 53.325
    endloop
  endfacet
  facet normal -1 0 0
    outer loop
      vertex 29.93713 80.23831 50.525
      vertex 29.93713 43.9057 50.525
      vertex 29.93713 43.9057 59.25
    endloop
  endfacet
  facet normal -1 0 0
    outer loop
      vertex 29.93713 80.23831 50.525
      vertex 29.93713 43.9057 59.25
      vertex 29.93713 80.23831 59.25
    endloop
  endfacet
  facet normal 1 0 0
    outer loop
      vertex 47.93713 189.2361 50.525
      vertex 47.93713 80.23831 59.25
      vertex 47.93713 80.23831 50.525
    endloop
  endfacet
  facet normal 1 0 -0
    outer loop
      vertex 47.93713 189.2361 50.525
      vertex 47.93713 189.2361 53.325
      vertex 47.93713 80.23831 59.25
    endloop
  endfacet
  facet normal 1 0 0
    outer loop
      vertex 47.93713 80.23831 50.525
      vertex 47.93713 43.9057 59.25
      vertex 47.93713 43.9057 50.525
    endloop
  endfacet
  facet normal 1 0 -0
    outer loop
      vertex 47.93713 80.23831 50.525
      vertex 47.93713 80.23831 59.25
      vertex 47.93713 43.9057 59.25
    endloop
  endfacet
  facet normal 0 1 0
    outer loop
      vertex 47.93713 189.2361 50.525
      vertex 29.93713 189.2361 50.525
      vertex 29.93713 189.2361 53.325
    endloop
  endfacet
  facet normal 0 1 -0
    outer loop
      vertex 47.93713 189.2361 50.525
      vertex 29.93713 189.2361 53.325
      vertex 47.93713 189.2361 53.325
    endloop
  endfacet
  facet normal 0 -1 0
    outer loop
      vertex 29.93713 43.9057 50.525
      vertex 47.93713 43.9057 50.525
      vertex 47.93713 43.9057 59.25
    endloop
  endfacet
  facet normal 0 -1 0
    outer loop
      vertex 29.93713 43.9057 50.525
      vertex 47.93713 43.9057 59.25
      vertex 29.93713 43.9057 59.25
    endloop
  endfacet
  facet normal 0 0 -1
    outer loop
      vertex 25.28094 48.56189 56.45
      vertex 25.28094 150.5754 56.45
      vertex 43.28094 150.5754 56.45
    endloop
  endfacet
  facet normal 0 0 -1
    outer loop
      vertex 25.28094 48.56189 56.45
      vertex 43.28094 150.5754 56.45
      vertex 43.28094 48.56189 56.45
    endloop
  endfacet
  facet normal 0 0 -1
    outer loop
      vertex 25.28094 150.5754 56.45
      vertex 25.28094 184.58 56.45
      vertex 43.28094 184.58 56.45
    endloop
  endfacet
  facet normal 0 0 -1
    outer loop
      vertex 25.28094 150.5754 56.45
      vertex 43.28094 184.58 56.45
      vertex 43.28094 150.5754 56.45
    endloop
  endfacet
  facet normal 0 -0.0579828 0.9983176
    outer loop
      vertex 25.28094 48.56189 59.25
      vertex 43.28094 150.5754 65.175
      vertex 25.28094 150.5754 65.175
    endloop
  endfacet
  facet normal 0 -0.0579828 0.9983176
    outer loop
      vertex 25.28094 48.56189 59.25
      vertex 43.28094 48.56189 59.25
      vertex 43.28094 150.5754 65.175
    endloop
  endfacet
  facet normal 0 0 1
    outer loop
      vertex 25.28094 150.5754 65.175
      vertex 43.28094 184.58 65.175
      vertex 25.28094 184.58 65.175
    endloop
  endfacet
  facet normal 0 0 1
    outer loop
      vertex 25.28094 150.5754 65.175
      vertex 43.28094 150.5754 65.175
      vertex 43.28094 184.58 65.175
    endloop
  endfacet
  facet normal -1 0 0
    outer loop
      vertex 25.28094 48.56189 56.45
      vertex 25.28094 150.5754 65.175
      vertex 25.28094 150.5754 56.45
    endloop
  endfacet
  facet normal -1 0 0
    outer loop
      vertex 25.28094 48.56189 56.45
      vertex 25.28094 48.56189 59.25
      vertex 25.28094 150.5754 65.175
    endloop
  endfacet
  facet normal -1 0 0
    outer loop
      vertex 25.28094 150.5754 56.45
      vertex 25.28094 184.58 65.175
      vertex 25.28094 184.58 56.45
    endloop
  endfacet
  facet normal -1 0 0
    outer loop
      vertex 25.28094 150.5754 56.45
      vertex 25.28094 150.5754 65.175
      vertex 25.28094 184.58 65.175
    endloop
  endfacet
  facet normal 1 0 0
    outer loop
      vertex 43.28094 48.56189 56.45
      vertex 43.28094 150.5754 56.45
      vertex 43.28094 150.5754 65.175
    endloop
  endfacet
  facet normal 1 0 0
    outer loop
      vertex 43.28094 48.56189 56.45
      vertex 43.28094 150.5754 65.175
      vertex 43.28094 48.56189 59.25
    endloop
  endfacet
  facet normal 1 0 0
    outer loop
      vertex 43.28094 150.5754 56.45
      vertex 43.28094 184.58 56.45
      vertex 43.28094 184.58 65.175
    endloop
  endfacet
  facet normal 1 0 0
    outer loop
      vertex 43.28094 150.5754 56.45
      vertex 43.28094 184.58 65.175
      vertex 43.28094 150.5754 65.175
    endloop
  endfacet
  facet normal 0 -1 0
    outer loop
      vertex 43.28094 48.56189 56.45
      vertex 25.28094 48.56189 59.25
      vertex 25.28094 48.56189 56.45
    endloop
  endfacet
  facet normal 0 -1 0
    outer loop
      vertex 43.28094 48.56189 56.45
      vertex 43.28094 48.56189 59.25
      vertex 25.28094 48.56189 59.25
    endloop
  endfacet
  facet normal 0 1 0
    outer loop
      vertex 25.28094 184.58 56.45
      vertex 43.28094 184.58 65.175
      vertex 43.28094 184.58 56.45
    endloop
  endfacet
  facet normal 0 1 0
    outer loop
      vertex 25.28094 184.58 56.45
      vertex 25.28094 184.58 65.175
      vertex 43.28094 184.58 65.175
    endloop
  endfacet
  facet normal 0 0 -1
    outer loop
      vertex 20.62475 179.9238 62.375
      vertex 38.62475 84.8945 62.375
      vertex 20.62475 84.8945 62.375
    endloop
  endfacet
  facet normal 0 0 -1
    outer loop
      vertex 20.62475 179.9238 62.375
      vertex 38.62475 179.9238 62.375
      vertex 38.62475 84.8945 62.375
    endloop
  endfacet
  facet normal 0 0 -1
    outer loop
      vertex 20.62475 84.8945 62.375
      vertex 38.62475 53.21807 62.375
      vertex 20.62475 53.21807 62.375
    endloop
  endfacet
  facet normal 0 0 -1
    outer loop
      vertex 20.62475 84.8945 62.375
      vertex 38.62475 84.8945 62.375
      vertex 38.62475 53.21807 62.375
    endloop
  endfacet
  facet normal 0 0.06222837 0.9980619
    outer loop
      vertex 20.62475 179.9238 65.175
      vertex 20.62475 84.8945 71.1
      vertex 38.62475 84.8945 71.1
    endloop
  endfacet
  facet normal -0 0.06222837 0.9980619
    outer loop
      vertex 20.62475 179.9238 65.175
      vertex 38.62475 84.8945 71.1
      vertex 38.62475 179.9238 65.175
    endloop
  endfacet
  facet normal 0 0 1
    outer loop
      vertex 20.62475 84.8945 71.1
      vertex 20.62475 53.21807 71.1
      vertex 38.62475 53.21807 71.1
    endloop
  endfacet
  facet normal -0 0 1
    outer loop
      vertex 20.62475 84.8945 71.1
      vertex 38.62475 53.21807 71.1
      vertex 38.62475 84.8945 71.1
    endloop
  endfacet
  facet normal -1 0 0
    outer loop
      vertex 20.62475 179.9238 62.375
      vertex 20.62475 84.8945 62.375
      vertex 20.62475 84.8945 71.1
    endloop
  endfacet
  facet normal -1 0 0
    outer loop
      vertex 20.62475 179.9238 62.375
      vertex 20.62475 84.8945 71.1
      vertex 20.62475 179.9238 65.175
    endloop
  endfacet
  facet normal -1 0 0
    outer loop
      vertex 20.62475 84.8945 62.375
      vertex 20.62475 53.21807 62.375
      vertex 20.62475 53.21807 71.1
    endloop
  endfacet
  facet normal -1 0 0
    outer loop
      vertex 20.62475 84.8945 62.375
      vertex 20.62475 53.21807 71.1
      vertex 20.62475 84.8945 71.1
    endloop
  endfacet
  facet normal 1 0 0
    outer loop
      vertex 38.62475 179.9238 62.375
      vertex 38.62475 84.8945 71.1
      vertex 38.62475 84.8945 62.375
    endloop
  endfacet
  facet normal 1 0 -0
    outer loop
      vertex 38.62475 179.9238 62.375
      vertex 38.62475 179.9238 65.175
      vertex 38.62475 84.8945 71.1
    endloop
  endfacet
  facet normal 1 0 0
    outer loop
      vertex 38.62475 84.8945 62.375
      vertex 38.62475 53.21807 71.1
      vertex 38.62475 53.21807 62.375
    endloop
  endfacet
  facet normal 1 0 -0
    outer loop
      vertex 38.62475 84.8945 62.375
      vertex 38.62475 84.8945 71.1
      vertex 38.62475 53.21807 71.1
    endloop
  endfacet
  facet normal 0 1 0
    outer loop
      vertex 38.62475 179.9238 62.375
      vertex 20.62475 179.9238 62.375
      vertex 20.62475 179.9238 65.175
    endloop
  endfacet
  facet normal 0 1 -0
    outer loop
      vertex 38.62475 179.9238 62.375
      vertex 20.62475 179.9238 65.175
      vertex 38.62475 179.9238 65.175
    endloop
  endfacet
  facet normal 0 -1 0
    outer loop
      vertex 20.62475 53.21807 62.375
      vertex 38.62475 53.21807 62.375
      vertex 38.62475 53.21807 71.1
    endloop
  endfacet
  facet normal 0 -1 0
    outer loop
      vertex 20.62475 53.21807 62.375
      vertex 38.62475 53.21807 71.1
      vertex 20.62475 53.21807 71.1
    endloop
  endfacet
  facet normal 0 0 -1
    outer loop
      vertex 15.96857 57.87426 68.3
      vertex 15.96857 145.9193 68.3
      vertex 33.96857 145.9193 68.3
    endloop
  endfacet
  facet normal 0 0 -1
    outer loop
      vertex 15.96857 57.87426 68.3
      vertex 33.96857 145.9193 68.3
      vertex 33.96857 57.87426 68.3
    endloop
  endfacet
  facet normal 0 0 -1
    outer loop
      vertex 15.96857 145.9193 68.3
      vertex 15.96857 175.2676 68.3
      vertex 33.96857 175.2676 68.3
    endloop
  endfacet
  facet normal 0 0 -1
    outer loop
      vertex 15.96857 145.9193 68.3
      vertex 33.96857 175.2676 68.3
      vertex 33.96857 145.9193 68.3
    endloop
  endfacet
  facet normal 0 -0.06714328 0.9977433
    outer loop
      vertex 15.96857 57.87426 71.1
      vertex 33.96857 145.9193 77.025
      vertex 15.96857 145.9193 77.025
    endloop
  endfacet
  facet normal 0 -0.06714328 0.9977433
    outer loop
      vertex 15.96857 57.87426 71.1
      vertex 33.96857 57.87426 71.1
      vertex 33.96857 145.9193 77.025
    endloop
  endfacet
  facet normal 0 0 1
    outer loop
      vertex 15.96857 145.9193 77.025
      vertex 33.96857 175.2676 77.025
      vertex 15.96857 175.2676 77.025
    endloop
  endfacet
  facet normal 0 0 1
    outer loop
      vertex 15.96857 145.9193 77.025
      vertex 33.96857 145.9193 77.025
      vertex 33.96857 175.2676 77.025
    endloop
  endfacet
  facet normal -1 0 0
    outer loop
      vertex 15.96857 57.87426 68.3
      vertex 15.96857 145.9193 77.025
      vertex 15.96857 145.9193 68.3
    endloop
  endfacet
  facet normal -1 0 0
    outer loop
      vertex 15.96857 57.87426 68.3
      vertex 15.96857 57.87426 71.1
      vertex 15.96857 145.9193 77.025
    endloop
  endfacet
  facet normal -1 0 0
    outer loop
      vertex 15.96857 145.9193 68.3
      vertex 15.96857 175.2676 77.025
      vertex 15.96857 175.2676 68.3
    endloop
  endfacet
  facet normal -1 0 0
    outer loop
      vertex 15.96857 145.9193 68.3
      vertex 15.96857 145.9193 77.025
      vertex 15.96857 175.2676 77.025
    endloop
  endfacet
  facet normal 1 0 0
    outer loop
      vertex 33.96857 57.87426 68.3
      vertex 33.96857 145.9193 68.3
      vertex 33.96857 145.9193 77.025
    endloop
  endfacet
  facet normal 1 0 0
    outer loop
      vertex 33.96857 57.87426 68.3
      vertex 33.96857 145.9193 77.025
      vertex 33.96857 57.87426 71.1
    endloop
  endfacet
  facet normal 1 0 0
    outer loop
      vertex 33.96857 145.9193 68.3
      vertex 33.96857 175.2676 68.3
      vertex 33.96857 175.2676 77.025
    endloop
  endfacet
  facet normal 1 0 0
    outer loop
      vertex 33.96857 145.9193 68.3
      vertex 33.96857 175.2676 77.025
      vertex 33.96857 145.9193 77.025
    endloop
  endfacet
  facet normal 0 -1 0
    outer loop
      vertex 33.96857 57.87426 68.3
      vertex 15.96857 57.87426 71.1
      vertex 15.96857 57.87426 68.3
    endloop
  endfacet
  facet normal 0 -1 0
    outer loop
      vertex 33.96857 57.87426 68.3
      vertex 33.96857 57.87426 71.1
      vertex 15.96857 57.87426 71.1
    endloop
  endfacet
  facet normal 0 1 0
    outer loop
      vertex 15.96857 175.2676 68.3
      vertex 33.96857 175.2676 77.025
      vertex 33.96857 175.2676 68.3
    endloop
  endfacet
  facet normal 0 1 0
    outer loop
      vertex 15.96857 175.2676 68.3
      vertex 15.96857 175.2676 77.025
      vertex 33.96857 175.2676 77.025
    endloop
  endfacet
  facet normal 0 0 -1
    outer loop
      vertex 11.31238 170.6114 74.225
      vertex 29.31238 89.55069 74.225
      vertex 11.31238 89.55069 74.225
    endloop
  endfacet
  facet normal 0 0 -1
    outer loop
      vertex 11.31238 170.6114 74.225
      vertex 29.31238 170.6114 74.225
      vertex 29.31238 89.55069 74.225
    endloop
  endfacet
  facet normal 0 0 -1
    outer loop
      vertex 11.31238 89.55069 74.225
      vertex 29.31238 62.53045 74.225
      vertex 11.31238 62.53045 74.225
    endloop
  endfacet
  facet normal 0 0 -1
    outer loop
      vertex 11.31238 89.55069 74.225
      vertex 29.31238 89.55069 74.225
      vertex 29.31238 62.53045 74.225
    endloop
  endfacet
  facet normal 0 0.07289889 0.9973393
    outer loop
      vertex 11.31238 170.6114 77.025
      vertex 11.31238 89.55069 82.95
      vertex 29.31238 89.55069 82.95
    endloop
  endfacet
  facet normal -0 0.07289889 0.9973393
    outer loop
      vertex 11.31238 170.6114 77.025
      vertex 29.31238 89.55069 82.95
      vertex 29.31238 170.6114 77.025
    endloop
  endfacet
  facet normal 0 0 1
    outer loop
      vertex 11.31238 89.55069 82.95
      vertex 11.31238 62.53045 82.95
      vertex 29.31238 62.53045 82.95
    endloop
  endfacet
  facet normal -0 0 1
    outer loop
      vertex 11.31238 89.55069 82.95
      vertex 29.31238 62.53045 82.95
      vertex 29.31238 89.55069 82.95
    endloop
  endfacet
  facet normal -1 0 0
    outer loop
      vertex 11.31238 170.6114 74.225
      vertex 11.31238 89.55069 74.225
      vertex 11.31238 89.55069 82.95
    endloop
  endfacet
  facet normal -1 0 0
    outer loop
      vertex 11.31238 170.6114 74.225
      vertex 11.31238 89.55069 82.95
      vertex 11.31238 170.6114 77.025
    endloop
  endfacet
  facet normal -1 0 0
    outer loop
      vertex 11.31238 89.55069 74.225
      vertex 11.31238 62.53045 74.225
      vertex 11.31238 62.53045 82.95
    endloop
  endfacet
  facet normal -1 0 0
    outer loop
      vertex 11.31238 89.55069 74.225
      vertex 11.31238 62.53045 82.95
      vertex 11.31238 89.55069 82.95
    endloop
  endfacet
  facet normal 1 0 0
    outer loop
      vertex 29.31238 170.6114 74.225
      vertex 29.31238 89.55069 82.95
      vertex 29.31238 89.55069 74.225
    endloop
  endfacet
  facet normal 1 0 -0
    outer loop
      vertex 29.31238 170.6114 74.225
      vertex 29.31238 170.6114 77.025
      vertex 29.31238 89.55069 82.95
    endloop
  endfacet
  facet normal 1 0 0
    outer loop
      vertex 29.31238 89.55069 74.225
      vertex 29.31238 62.53045 82.95
      vertex 29.31238 62.53045 74.225
    endloop
  endfacet
  facet normal 1 0 -0
    outer loop
      vertex 29.31238 89.55069 74.225
      vertex 29.31238 89.55069 82.95
      vertex 29.31238 62.53045 82.95
    endloop
  endfacet
  facet normal 0 1 0
    outer loop
      vertex 29.31238 170.6114 74.225
      vertex 11.31238 170.6114 74.225
      vertex 11.31238 170.6114 77.025
    endloop
  endfacet
  facet normal 0 1 -0
    outer loop
      vertex 29.31238 170.6114 74.225
      vertex 11.31238 170.6114 77.025
      vertex 29.31238 170.6114 77.025
    endloop
  endfacet
  facet normal 0 -1 0
    outer loop
      vertex 11.31238 62.53045 74.225
      vertex 29.31238 62.53045 74.225
      vertex 29.31238 62.53045 82.95
    endloop
  endfacet
  facet normal 0 -1 0
    outer loop
      vertex 11.31238 62.53045 74.225
      vertex 29.31238 62.53045 82.95
      vertex 11.31238 62.53045 82.95
    endloop
  endfacet
  facet normal 0 0 -1
    outer loop
      vertex 6.656189 67.18664 80.15
      vertex 6.656189 141.2631 80.15
      vertex 24.65619 141.2631 80.15
    endloop
  endfacet
  facet normal 0 0 -1
    outer loop
      vertex 6.656189 67.18664 80.15
      vertex 24.65619 141.2631 80.15
      vertex 24.65619 67.18664 80.15
    endloop
  endfacet
  facet normal 0 0 -1
    outer loop
      vertex 6.656189 141.2631 80.15
      vertex 6.656189 165.9552 80.15
      vertex 24.65619 165.9552 80.15
    endloop
  endfacet
  facet normal 0 0 -1
    outer loop
      vertex 6.656189 141.2631 80.15
      vertex 24.65619 165.9552 80.15
      vertex 24.65619 141.2631 80.15
    endloop
  endfacet
  facet normal 0 -0.07973033 0.9968165
    outer loop
      vertex 6.656189 67.18664 82.95
      vertex 24.65619 141.2631 88.875
      vertex 6.656189 141.2631 88.875
    endloop
  endfacet
  facet normal 0 -0.07973033 0.9968165
    outer loop
      vertex 6.656189 67.18664 82.95
      vertex 24.65619 67.18664 82.95
      vertex 24.65619 141.2631 88.875
    endloop
  endfacet
  facet normal 0 0 1
    outer loop
      vertex 6.656189 141.2631 88.875
      vertex 24.65619 165.9552 88.875
      vertex 6.656189 165.9552 88.875
    endloop
  endfacet
  facet normal 0 0 1
    outer loop
      vertex 6.656189 141.2631 88.875
      vertex 24.65619 141.2631 88.875
      vertex 24.65619 165.9552 88.875
    endloop
  endfacet
  facet normal -1 0 0
    outer loop
      vertex 6.656189 67.18664 80.15
      vertex 6.656189 141.2631 88.875
      vertex 6.656189 141.2631 80.15
    endloop
  endfacet
  facet normal -1 0 0
    outer loop
      vertex 6.656189 67.18664 80.15
      vertex 6.656189 67.18664 82.95
      vertex 6.656189 141.2631 88.875
    endloop
  endfacet
  facet normal -1 0 0
    outer loop
      vertex 6.656189 141.2631 80.15
      vertex 6.656189 165.9552 88.875
      vertex 6.656189 165.9552 80.15
    endloop
  endfacet
  facet normal -1 0 0
    outer loop
      vertex 6.656189 141.2631 80.15
      vertex 6.656189 141.2631 88.875
      vertex 6.656189 165.9552 88.875
    endloop
  endfacet
  facet normal 1 0 0
    outer loop
      vertex 24.65619 67.18664 80.15
      vertex 24.65619 141.2631 80.15
      vertex 24.65619 141.2631 88.875
    endloop
  endfacet
  facet normal 1 0 0
    outer loop
      vertex 24.65619 67.18664 80.15
      vertex 24.65619 141.2631 88.875
      vertex 24.65619 67.18664 82.95
    endloop
  endfacet
  facet normal 1 0 0
    outer loop
      vertex 24.65619 141.2631 80.15
      vertex 24.65619 165.9552 80.15
      vertex 24.65619 165.9552 88.875
    endloop
  endfacet
  facet normal 1 0 0
    outer loop
      vertex 24.65619 141.2631 80.15
      vertex 24.65619 165.9552 88.875
      vertex 24.65619 141.2631 88.875
    endloop
  endfacet
  facet normal 0 -1 0
    outer loop
      vertex 24.65619 67.18664 80.15
      vertex 6.656189 67.18664 82.95
      vertex 6.656189 67.18664 80.15
    endloop
  endfacet
  facet normal 0 -1 0
    outer loop
      vertex 24.65619 67.18664 80.15
      vertex 24.65619 67.18664 82.95
      vertex 6.656189 67.18664 82.95
    endloop
  endfacet
  facet normal 0 1 0
    outer loop
      vertex 6.656189 165.9552 80.15
      vertex 24.65619 165.9552 88.875
      vertex 24.65619 165.9552 80.15
    endloop
  endfacet
  facet normal 0 1 0
    outer loop
      vertex 6.656189 165.9552 80.15
      vertex 6.656189 165.9552 88.875
      vertex 24.65619 165.9552 88.875
    endloop
  endfacet
  facet normal 0 0 -1
    outer loop
      vertex 2 161.299 86.075
      vertex 20 94.20688 86.075
      vertex 2 94.20688 86.075
    endloop
  endfacet
  facet normal 0 0 -1
    outer loop
      vertex 2 161.299 86.075
      vertex 20 161.299 86.075
      vertex 20 94.20688 86.075
    endloop
  endfacet
  facet normal 0 0 -1
    outer loop
      vertex 2 94.20688 86.075
      vertex 20 71.84283 86.075
      vertex 2 71.84283 86.075
    endloop
  endfacet
  facet normal 0 0 -1
    outer loop
      vertex 2 94.20688 86.075
      vertex 20 94.20688 86.075
      vertex 20 71.84283 86.075
    endloop
  endfacet
  facet normal 0 0.08796902 0.9961232
    outer loop
      vertex 2 161.299 88.875
      vertex 2 94.20688 94.8
      vertex 20 94.20688 94.8
    endloop
  endfacet
  facet normal -0 0.08796902 0.9961232
    outer loop
      vertex 2 161.299 88.875
      vertex 20 94.20688 94.8
      vertex 20 161.299 88.875
    endloop
  endfacet
  facet normal 0 0 1
    outer loop
      vertex 2 94.20688 94.8
      vertex 2 71.84283 94.8
      vertex 20 71.84283 94.8
    endloop
  endfacet
  facet normal -0 0 1
    outer loop
      vertex 2 94.20688 94.8
      vertex 20 71.84283 94.8
      vertex 20 94.20688 94.8
    endloop
  endfacet
  facet normal -1 0 0
    outer loop
      vertex 2 161.299 86.075
      vertex 2 94.20688 86.075
      vertex 2 94.20688 94.8
    endloop
  endfacet
  facet normal -1 0 0
    outer loop
      vertex 2 161.299 86.075
      vertex 2 94.20688 94.8
      vertex 2 161.299 88.875
    endloop
  endfacet
  facet normal -1 0 0
    outer loop
      vertex 2 94.20688 86.075
      vertex 2 71.84283 86.075
      vertex 2 71.84283 94.8
    endloop
  endfacet
  facet normal -1 0 0
    outer loop
      vertex 2 94.20688 86.075
      vertex 2 71.84283 94.8
      vertex 2 94.20688 94.8
    endloop
  endfacet
  facet normal 1 0 0
    outer loop
      vertex 20 161.299 86.075
      vertex 20 94.20688 94.8
      vertex 20 94.20688 86.075
    endloop
  endfacet
  facet normal 1 0 -0
    outer loop
      vertex 20 161.299 86.075
      vertex 20 161.299 88.875
      vertex 20 94.20688 94.8
    endloop
  endfacet
  facet normal 1 0 0
    outer loop
      vertex 20 94.20688 86.075
      vertex 20 71.84283 94.8
      vertex 20 71.84283 86.075
    endloop
  endfacet
  facet normal 1 0 -0
    outer loop
      vertex 20 94.20688 86.075
      vertex 20 94.20688 94.8
      vertex 20 71.84283 94.8
    endloop
  endfacet
  facet normal 0 1 0
    outer loop
      vertex 20 161.299 86.075
      vertex 2 161.299 86.075
      vertex 2 161.299 88.875
    endloop
  endfacet
  facet normal 0 1 -0
    outer loop
      vertex 20 161.299 86.075
      vertex 2 161.299 88.875
      vertex 20 161.299 88.875
    endloop
  endfacet
  facet normal 0 -1 0
    outer loop
      vertex 2 71.84283 86.075
      vertex 20 71.84283 86.075
      vertex 20 71.84283 94.8
    endloop
  endfacet
  facet normal 0 -1 0
    outer loop
      vertex 2 71.84283 86.075
      vertex 20 71.84283 94.8
      vertex 2 71.84283 94.8
    endloop
  endfacet
endsolid temporary_switchback_ramps_east_local_underfill
