solid finished_pyramid_smooth_surface
  facet normal 0 0 -1
    outer loop
      vertex -80 80 0
      vertex 80 80 0
      vertex 80 -80 0
    endloop
  endfacet
  facet normal 0 0 -1
    outer loop
      vertex -80 80 0
      vertex 80 -80 0
      vertex -80 -80 0
    endloop
  endfacet
  facet normal 0 -0.7862647 0.6178898
    outer loop
      vertex -80 -80 0
      vertex 80 -80 0
      vertex 0 0 101.8
    endloop
  endfacet
  facet normal 0.7862647 -0 0.6178898
    outer loop
      vertex 80 -80 0
      vertex 80 80 0
      vertex 0 0 101.8
    endloop
  endfacet
  facet normal 0 0.7862647 0.6178898
    outer loop
      vertex 80 80 0
      vertex -80 80 0
      vertex 0 0 101.8
    endloop
  endfacet
  facet normal -0.7862647 0 0.6178898
    outer loop
      vertex -80 80 0
      vertex -80 -80 0
      vertex 0 0 101.8
    endloop
  endfacet
endsolid finished_pyramid_smooth_surface
