solid stage_06_reuse_material
  facet normal 0 0 -1
    outer loop
      vertex -80 80 0
      vertex 80 80 0
      vertex 80 -80 0
    endloop
  endfacet
  facet normal 0 0 -1
    outer loop
      vertex -80 80 0
      vertex 80 -80 0
      vertex -80 -80 0
    endloop
  endfacet
  facet normal 0 -0.7862647 0.6178898
    outer loop
      vertex -80 -80 0
      vertex 80 -80 0
      vertex 0 0 101.8
    endloop
  endfacet
  facet normal 0.7862647 -0 0.6178898
    outer loop
      vertex 80 -80 0
      vertex 80 80 0
      vertex 0 0 101.8
    endloop
  endfacet
  facet normal 0 0.7862647 0.6178898
    outer loop
      vertex 80 80 0
      vertex -80 80 0
      vertex 0 0 101.8
    endloop
  endfacet
  facet normal -0.7862647 0 0.6178898
    outer loop
      vertex -80 80 0
      vertex -80 -80 0
      vertex 0 0 101.8
    endloop
  endfacet
  facet normal 0 0 -1
    outer loop
      vertex 98 -70 0
      vertex 112 -70 0
      vertex 112 -80 0
    endloop
  endfacet
  facet normal 0 0 -1
    outer loop
      vertex 98 -70 0
      vertex 112 -80 0
      vertex 98 -80 0
    endloop
  endfacet
  facet normal 0 0 1
    outer loop
      vertex 98 -80 5
      vertex 112 -80 5
      vertex 112 -70 5
    endloop
  endfacet
  facet normal 0 0 1
    outer loop
      vertex 98 -80 5
      vertex 112 -70 5
      vertex 98 -70 5
    endloop
  endfacet
  facet normal 0 -1 0
    outer loop
      vertex 98 -80 0
      vertex 112 -80 0
      vertex 112 -80 5
    endloop
  endfacet
  facet normal 0 -1 0
    outer loop
      vertex 98 -80 0
      vertex 112 -80 5
      vertex 98 -80 5
    endloop
  endfacet
  facet normal 1 0 0
    outer loop
      vertex 112 -80 0
      vertex 112 -70 0
      vertex 112 -70 5
    endloop
  endfacet
  facet normal 1 0 0
    outer loop
      vertex 112 -80 0
      vertex 112 -70 5
      vertex 112 -80 5
    endloop
  endfacet
  facet normal 0 1 0
    outer loop
      vertex 112 -70 0
      vertex 98 -70 0
      vertex 98 -70 5
    endloop
  endfacet
  facet normal 0 1 -0
    outer loop
      vertex 112 -70 0
      vertex 98 -70 5
      vertex 112 -70 5
    endloop
  endfacet
  facet normal -1 0 0
    outer loop
      vertex 98 -70 0
      vertex 98 -80 0
      vertex 98 -80 5
    endloop
  endfacet
  facet normal -1 0 0
    outer loop
      vertex 98 -70 0
      vertex 98 -80 5
      vertex 98 -70 5
    endloop
  endfacet
  facet normal 0 0 -1
    outer loop
      vertex 113.2 -70 0
      vertex 127.2 -70 0
      vertex 127.2 -80 0
    endloop
  endfacet
  facet normal 0 0 -1
    outer loop
      vertex 113.2 -70 0
      vertex 127.2 -80 0
      vertex 113.2 -80 0
    endloop
  endfacet
  facet normal 0 0 1
    outer loop
      vertex 113.2 -80 5
      vertex 127.2 -80 5
      vertex 127.2 -70 5
    endloop
  endfacet
  facet normal 0 0 1
    outer loop
      vertex 113.2 -80 5
      vertex 127.2 -70 5
      vertex 113.2 -70 5
    endloop
  endfacet
  facet normal 0 -1 0
    outer loop
      vertex 113.2 -80 0
      vertex 127.2 -80 0
      vertex 127.2 -80 5
    endloop
  endfacet
  facet normal 0 -1 0
    outer loop
      vertex 113.2 -80 0
      vertex 127.2 -80 5
      vertex 113.2 -80 5
    endloop
  endfacet
  facet normal 1 0 0
    outer loop
      vertex 127.2 -80 0
      vertex 127.2 -70 0
      vertex 127.2 -70 5
    endloop
  endfacet
  facet normal 1 0 0
    outer loop
      vertex 127.2 -80 0
      vertex 127.2 -70 5
      vertex 127.2 -80 5
    endloop
  endfacet
  facet normal 0 1 0
    outer loop
      vertex 127.2 -70 0
      vertex 113.2 -70 0
      vertex 113.2 -70 5
    endloop
  endfacet
  facet normal 0 1 -0
    outer loop
      vertex 127.2 -70 0
      vertex 113.2 -70 5
      vertex 127.2 -70 5
    endloop
  endfacet
  facet normal -1 0 0
    outer loop
      vertex 113.2 -70 0
      vertex 113.2 -80 0
      vertex 113.2 -80 5
    endloop
  endfacet
  facet normal -1 0 0
    outer loop
      vertex 113.2 -70 0
      vertex 113.2 -80 5
      vertex 113.2 -70 5
    endloop
  endfacet
  facet normal 0 0 -1
    outer loop
      vertex 128.4 -70 0
      vertex 142.4 -70 0
      vertex 142.4 -80 0
    endloop
  endfacet
  facet normal 0 0 -1
    outer loop
      vertex 128.4 -70 0
      vertex 142.4 -80 0
      vertex 128.4 -80 0
    endloop
  endfacet
  facet normal 0 0 1
    outer loop
      vertex 128.4 -80 5
      vertex 142.4 -80 5
      vertex 142.4 -70 5
    endloop
  endfacet
  facet normal 0 0 1
    outer loop
      vertex 128.4 -80 5
      vertex 142.4 -70 5
      vertex 128.4 -70 5
    endloop
  endfacet
  facet normal 0 -1 0
    outer loop
      vertex 128.4 -80 0
      vertex 142.4 -80 0
      vertex 142.4 -80 5
    endloop
  endfacet
  facet normal 0 -1 0
    outer loop
      vertex 128.4 -80 0
      vertex 142.4 -80 5
      vertex 128.4 -80 5
    endloop
  endfacet
  facet normal 1 0 0
    outer loop
      vertex 142.4 -80 0
      vertex 142.4 -70 0
      vertex 142.4 -70 5
    endloop
  endfacet
  facet normal 1 0 0
    outer loop
      vertex 142.4 -80 0
      vertex 142.4 -70 5
      vertex 142.4 -80 5
    endloop
  endfacet
  facet normal 0 1 0
    outer loop
      vertex 142.4 -70 0
      vertex 128.4 -70 0
      vertex 128.4 -70 5
    endloop
  endfacet
  facet normal 0 1 -0
    outer loop
      vertex 142.4 -70 0
      vertex 128.4 -70 5
      vertex 142.4 -70 5
    endloop
  endfacet
  facet normal -1 0 0
    outer loop
      vertex 128.4 -70 0
      vertex 128.4 -80 0
      vertex 128.4 -80 5
    endloop
  endfacet
  facet normal -1 0 0
    outer loop
      vertex 128.4 -70 0
      vertex 128.4 -80 5
      vertex 128.4 -70 5
    endloop
  endfacet
  facet normal 0 0 -1
    outer loop
      vertex 143.6 -70 0
      vertex 157.6 -70 0
      vertex 157.6 -80 0
    endloop
  endfacet
  facet normal 0 0 -1
    outer loop
      vertex 143.6 -70 0
      vertex 157.6 -80 0
      vertex 143.6 -80 0
    endloop
  endfacet
  facet normal 0 0 1
    outer loop
      vertex 143.6 -80 5
      vertex 157.6 -80 5
      vertex 157.6 -70 5
    endloop
  endfacet
  facet normal 0 0 1
    outer loop
      vertex 143.6 -80 5
      vertex 157.6 -70 5
      vertex 143.6 -70 5
    endloop
  endfacet
  facet normal 0 -1 0
    outer loop
      vertex 143.6 -80 0
      vertex 157.6 -80 0
      vertex 157.6 -80 5
    endloop
  endfacet
  facet normal 0 -1 0
    outer loop
      vertex 143.6 -80 0
      vertex 157.6 -80 5
      vertex 143.6 -80 5
    endloop
  endfacet
  facet normal 1 0 0
    outer loop
      vertex 157.6 -80 0
      vertex 157.6 -70 0
      vertex 157.6 -70 5
    endloop
  endfacet
  facet normal 1 0 0
    outer loop
      vertex 157.6 -80 0
      vertex 157.6 -70 5
      vertex 157.6 -80 5
    endloop
  endfacet
  facet normal 0 1 0
    outer loop
      vertex 157.6 -70 0
      vertex 143.6 -70 0
      vertex 143.6 -70 5
    endloop
  endfacet
  facet normal 0 1 -0
    outer loop
      vertex 157.6 -70 0
      vertex 143.6 -70 5
      vertex 157.6 -70 5
    endloop
  endfacet
  facet normal -1 0 0
    outer loop
      vertex 143.6 -70 0
      vertex 143.6 -80 0
      vertex 143.6 -80 5
    endloop
  endfacet
  facet normal -1 0 0
    outer loop
      vertex 143.6 -70 0
      vertex 143.6 -80 5
      vertex 143.6 -70 5
    endloop
  endfacet
  facet normal 0 0 -1
    outer loop
      vertex 98 -58.8 0
      vertex 112 -58.8 0
      vertex 112 -68.8 0
    endloop
  endfacet
  facet normal 0 0 -1
    outer loop
      vertex 98 -58.8 0
      vertex 112 -68.8 0
      vertex 98 -68.8 0
    endloop
  endfacet
  facet normal 0 0 1
    outer loop
      vertex 98 -68.8 5
      vertex 112 -68.8 5
      vertex 112 -58.8 5
    endloop
  endfacet
  facet normal 0 0 1
    outer loop
      vertex 98 -68.8 5
      vertex 112 -58.8 5
      vertex 98 -58.8 5
    endloop
  endfacet
  facet normal 0 -1 0
    outer loop
      vertex 98 -68.8 0
      vertex 112 -68.8 0
      vertex 112 -68.8 5
    endloop
  endfacet
  facet normal 0 -1 0
    outer loop
      vertex 98 -68.8 0
      vertex 112 -68.8 5
      vertex 98 -68.8 5
    endloop
  endfacet
  facet normal 1 0 0
    outer loop
      vertex 112 -68.8 0
      vertex 112 -58.8 0
      vertex 112 -58.8 5
    endloop
  endfacet
  facet normal 1 0 0
    outer loop
      vertex 112 -68.8 0
      vertex 112 -58.8 5
      vertex 112 -68.8 5
    endloop
  endfacet
  facet normal 0 1 0
    outer loop
      vertex 112 -58.8 0
      vertex 98 -58.8 0
      vertex 98 -58.8 5
    endloop
  endfacet
  facet normal 0 1 -0
    outer loop
      vertex 112 -58.8 0
      vertex 98 -58.8 5
      vertex 112 -58.8 5
    endloop
  endfacet
  facet normal -1 0 0
    outer loop
      vertex 98 -58.8 0
      vertex 98 -68.8 0
      vertex 98 -68.8 5
    endloop
  endfacet
  facet normal -1 0 0
    outer loop
      vertex 98 -58.8 0
      vertex 98 -68.8 5
      vertex 98 -58.8 5
    endloop
  endfacet
  facet normal 0 0 -1
    outer loop
      vertex 113.2 -58.8 0
      vertex 127.2 -58.8 0
      vertex 127.2 -68.8 0
    endloop
  endfacet
  facet normal 0 0 -1
    outer loop
      vertex 113.2 -58.8 0
      vertex 127.2 -68.8 0
      vertex 113.2 -68.8 0
    endloop
  endfacet
  facet normal 0 0 1
    outer loop
      vertex 113.2 -68.8 5
      vertex 127.2 -68.8 5
      vertex 127.2 -58.8 5
    endloop
  endfacet
  facet normal 0 0 1
    outer loop
      vertex 113.2 -68.8 5
      vertex 127.2 -58.8 5
      vertex 113.2 -58.8 5
    endloop
  endfacet
  facet normal 0 -1 0
    outer loop
      vertex 113.2 -68.8 0
      vertex 127.2 -68.8 0
      vertex 127.2 -68.8 5
    endloop
  endfacet
  facet normal 0 -1 0
    outer loop
      vertex 113.2 -68.8 0
      vertex 127.2 -68.8 5
      vertex 113.2 -68.8 5
    endloop
  endfacet
  facet normal 1 0 0
    outer loop
      vertex 127.2 -68.8 0
      vertex 127.2 -58.8 0
      vertex 127.2 -58.8 5
    endloop
  endfacet
  facet normal 1 0 0
    outer loop
      vertex 127.2 -68.8 0
      vertex 127.2 -58.8 5
      vertex 127.2 -68.8 5
    endloop
  endfacet
  facet normal 0 1 0
    outer loop
      vertex 127.2 -58.8 0
      vertex 113.2 -58.8 0
      vertex 113.2 -58.8 5
    endloop
  endfacet
  facet normal 0 1 -0
    outer loop
      vertex 127.2 -58.8 0
      vertex 113.2 -58.8 5
      vertex 127.2 -58.8 5
    endloop
  endfacet
  facet normal -1 0 0
    outer loop
      vertex 113.2 -58.8 0
      vertex 113.2 -68.8 0
      vertex 113.2 -68.8 5
    endloop
  endfacet
  facet normal -1 0 0
    outer loop
      vertex 113.2 -58.8 0
      vertex 113.2 -68.8 5
      vertex 113.2 -58.8 5
    endloop
  endfacet
  facet normal 0 0 -1
    outer loop
      vertex 128.4 -58.8 0
      vertex 142.4 -58.8 0
      vertex 142.4 -68.8 0
    endloop
  endfacet
  facet normal 0 0 -1
    outer loop
      vertex 128.4 -58.8 0
      vertex 142.4 -68.8 0
      vertex 128.4 -68.8 0
    endloop
  endfacet
  facet normal 0 0 1
    outer loop
      vertex 128.4 -68.8 5
      vertex 142.4 -68.8 5
      vertex 142.4 -58.8 5
    endloop
  endfacet
  facet normal 0 0 1
    outer loop
      vertex 128.4 -68.8 5
      vertex 142.4 -58.8 5
      vertex 128.4 -58.8 5
    endloop
  endfacet
  facet normal 0 -1 0
    outer loop
      vertex 128.4 -68.8 0
      vertex 142.4 -68.8 0
      vertex 142.4 -68.8 5
    endloop
  endfacet
  facet normal 0 -1 0
    outer loop
      vertex 128.4 -68.8 0
      vertex 142.4 -68.8 5
      vertex 128.4 -68.8 5
    endloop
  endfacet
  facet normal 1 0 0
    outer loop
      vertex 142.4 -68.8 0
      vertex 142.4 -58.8 0
      vertex 142.4 -58.8 5
    endloop
  endfacet
  facet normal 1 0 0
    outer loop
      vertex 142.4 -68.8 0
      vertex 142.4 -58.8 5
      vertex 142.4 -68.8 5
    endloop
  endfacet
  facet normal 0 1 0
    outer loop
      vertex 142.4 -58.8 0
      vertex 128.4 -58.8 0
      vertex 128.4 -58.8 5
    endloop
  endfacet
  facet normal 0 1 -0
    outer loop
      vertex 142.4 -58.8 0
      vertex 128.4 -58.8 5
      vertex 142.4 -58.8 5
    endloop
  endfacet
  facet normal -1 0 0
    outer loop
      vertex 128.4 -58.8 0
      vertex 128.4 -68.8 0
      vertex 128.4 -68.8 5
    endloop
  endfacet
  facet normal -1 0 0
    outer loop
      vertex 128.4 -58.8 0
      vertex 128.4 -68.8 5
      vertex 128.4 -58.8 5
    endloop
  endfacet
  facet normal 0 0 -1
    outer loop
      vertex 143.6 -58.8 0
      vertex 157.6 -58.8 0
      vertex 157.6 -68.8 0
    endloop
  endfacet
  facet normal 0 0 -1
    outer loop
      vertex 143.6 -58.8 0
      vertex 157.6 -68.8 0
      vertex 143.6 -68.8 0
    endloop
  endfacet
  facet normal 0 0 1
    outer loop
      vertex 143.6 -68.8 5
      vertex 157.6 -68.8 5
      vertex 157.6 -58.8 5
    endloop
  endfacet
  facet normal 0 0 1
    outer loop
      vertex 143.6 -68.8 5
      vertex 157.6 -58.8 5
      vertex 143.6 -58.8 5
    endloop
  endfacet
  facet normal 0 -1 0
    outer loop
      vertex 143.6 -68.8 0
      vertex 157.6 -68.8 0
      vertex 157.6 -68.8 5
    endloop
  endfacet
  facet normal 0 -1 0
    outer loop
      vertex 143.6 -68.8 0
      vertex 157.6 -68.8 5
      vertex 143.6 -68.8 5
    endloop
  endfacet
  facet normal 1 0 0
    outer loop
      vertex 157.6 -68.8 0
      vertex 157.6 -58.8 0
      vertex 157.6 -58.8 5
    endloop
  endfacet
  facet normal 1 0 0
    outer loop
      vertex 157.6 -68.8 0
      vertex 157.6 -58.8 5
      vertex 157.6 -68.8 5
    endloop
  endfacet
  facet normal 0 1 0
    outer loop
      vertex 157.6 -58.8 0
      vertex 143.6 -58.8 0
      vertex 143.6 -58.8 5
    endloop
  endfacet
  facet normal 0 1 -0
    outer loop
      vertex 157.6 -58.8 0
      vertex 143.6 -58.8 5
      vertex 157.6 -58.8 5
    endloop
  endfacet
  facet normal -1 0 0
    outer loop
      vertex 143.6 -58.8 0
      vertex 143.6 -68.8 0
      vertex 143.6 -68.8 5
    endloop
  endfacet
  facet normal -1 0 0
    outer loop
      vertex 143.6 -58.8 0
      vertex 143.6 -68.8 5
      vertex 143.6 -58.8 5
    endloop
  endfacet
  facet normal 0 0 -1
    outer loop
      vertex 98 -47.6 0
      vertex 112 -47.6 0
      vertex 112 -57.6 0
    endloop
  endfacet
  facet normal 0 0 -1
    outer loop
      vertex 98 -47.6 0
      vertex 112 -57.6 0
      vertex 98 -57.6 0
    endloop
  endfacet
  facet normal 0 0 1
    outer loop
      vertex 98 -57.6 5
      vertex 112 -57.6 5
      vertex 112 -47.6 5
    endloop
  endfacet
  facet normal 0 0 1
    outer loop
      vertex 98 -57.6 5
      vertex 112 -47.6 5
      vertex 98 -47.6 5
    endloop
  endfacet
  facet normal 0 -1 0
    outer loop
      vertex 98 -57.6 0
      vertex 112 -57.6 0
      vertex 112 -57.6 5
    endloop
  endfacet
  facet normal 0 -1 0
    outer loop
      vertex 98 -57.6 0
      vertex 112 -57.6 5
      vertex 98 -57.6 5
    endloop
  endfacet
  facet normal 1 0 0
    outer loop
      vertex 112 -57.6 0
      vertex 112 -47.6 0
      vertex 112 -47.6 5
    endloop
  endfacet
  facet normal 1 0 0
    outer loop
      vertex 112 -57.6 0
      vertex 112 -47.6 5
      vertex 112 -57.6 5
    endloop
  endfacet
  facet normal 0 1 0
    outer loop
      vertex 112 -47.6 0
      vertex 98 -47.6 0
      vertex 98 -47.6 5
    endloop
  endfacet
  facet normal 0 1 -0
    outer loop
      vertex 112 -47.6 0
      vertex 98 -47.6 5
      vertex 112 -47.6 5
    endloop
  endfacet
  facet normal -1 0 0
    outer loop
      vertex 98 -47.6 0
      vertex 98 -57.6 0
      vertex 98 -57.6 5
    endloop
  endfacet
  facet normal -1 0 0
    outer loop
      vertex 98 -47.6 0
      vertex 98 -57.6 5
      vertex 98 -47.6 5
    endloop
  endfacet
  facet normal 0 0 -1
    outer loop
      vertex 113.2 -47.6 0
      vertex 127.2 -47.6 0
      vertex 127.2 -57.6 0
    endloop
  endfacet
  facet normal 0 0 -1
    outer loop
      vertex 113.2 -47.6 0
      vertex 127.2 -57.6 0
      vertex 113.2 -57.6 0
    endloop
  endfacet
  facet normal 0 0 1
    outer loop
      vertex 113.2 -57.6 5
      vertex 127.2 -57.6 5
      vertex 127.2 -47.6 5
    endloop
  endfacet
  facet normal 0 0 1
    outer loop
      vertex 113.2 -57.6 5
      vertex 127.2 -47.6 5
      vertex 113.2 -47.6 5
    endloop
  endfacet
  facet normal 0 -1 0
    outer loop
      vertex 113.2 -57.6 0
      vertex 127.2 -57.6 0
      vertex 127.2 -57.6 5
    endloop
  endfacet
  facet normal 0 -1 0
    outer loop
      vertex 113.2 -57.6 0
      vertex 127.2 -57.6 5
      vertex 113.2 -57.6 5
    endloop
  endfacet
  facet normal 1 0 0
    outer loop
      vertex 127.2 -57.6 0
      vertex 127.2 -47.6 0
      vertex 127.2 -47.6 5
    endloop
  endfacet
  facet normal 1 0 0
    outer loop
      vertex 127.2 -57.6 0
      vertex 127.2 -47.6 5
      vertex 127.2 -57.6 5
    endloop
  endfacet
  facet normal 0 1 0
    outer loop
      vertex 127.2 -47.6 0
      vertex 113.2 -47.6 0
      vertex 113.2 -47.6 5
    endloop
  endfacet
  facet normal 0 1 -0
    outer loop
      vertex 127.2 -47.6 0
      vertex 113.2 -47.6 5
      vertex 127.2 -47.6 5
    endloop
  endfacet
  facet normal -1 0 0
    outer loop
      vertex 113.2 -47.6 0
      vertex 113.2 -57.6 0
      vertex 113.2 -57.6 5
    endloop
  endfacet
  facet normal -1 0 0
    outer loop
      vertex 113.2 -47.6 0
      vertex 113.2 -57.6 5
      vertex 113.2 -47.6 5
    endloop
  endfacet
  facet normal 0 0 -1
    outer loop
      vertex 128.4 -47.6 0
      vertex 142.4 -47.6 0
      vertex 142.4 -57.6 0
    endloop
  endfacet
  facet normal 0 0 -1
    outer loop
      vertex 128.4 -47.6 0
      vertex 142.4 -57.6 0
      vertex 128.4 -57.6 0
    endloop
  endfacet
  facet normal 0 0 1
    outer loop
      vertex 128.4 -57.6 5
      vertex 142.4 -57.6 5
      vertex 142.4 -47.6 5
    endloop
  endfacet
  facet normal 0 0 1
    outer loop
      vertex 128.4 -57.6 5
      vertex 142.4 -47.6 5
      vertex 128.4 -47.6 5
    endloop
  endfacet
  facet normal 0 -1 0
    outer loop
      vertex 128.4 -57.6 0
      vertex 142.4 -57.6 0
      vertex 142.4 -57.6 5
    endloop
  endfacet
  facet normal 0 -1 0
    outer loop
      vertex 128.4 -57.6 0
      vertex 142.4 -57.6 5
      vertex 128.4 -57.6 5
    endloop
  endfacet
  facet normal 1 0 0
    outer loop
      vertex 142.4 -57.6 0
      vertex 142.4 -47.6 0
      vertex 142.4 -47.6 5
    endloop
  endfacet
  facet normal 1 0 0
    outer loop
      vertex 142.4 -57.6 0
      vertex 142.4 -47.6 5
      vertex 142.4 -57.6 5
    endloop
  endfacet
  facet normal 0 1 0
    outer loop
      vertex 142.4 -47.6 0
      vertex 128.4 -47.6 0
      vertex 128.4 -47.6 5
    endloop
  endfacet
  facet normal 0 1 -0
    outer loop
      vertex 142.4 -47.6 0
      vertex 128.4 -47.6 5
      vertex 142.4 -47.6 5
    endloop
  endfacet
  facet normal -1 0 0
    outer loop
      vertex 128.4 -47.6 0
      vertex 128.4 -57.6 0
      vertex 128.4 -57.6 5
    endloop
  endfacet
  facet normal -1 0 0
    outer loop
      vertex 128.4 -47.6 0
      vertex 128.4 -57.6 5
      vertex 128.4 -47.6 5
    endloop
  endfacet
  facet normal 0 0 -1
    outer loop
      vertex 143.6 -47.6 0
      vertex 157.6 -47.6 0
      vertex 157.6 -57.6 0
    endloop
  endfacet
  facet normal 0 0 -1
    outer loop
      vertex 143.6 -47.6 0
      vertex 157.6 -57.6 0
      vertex 143.6 -57.6 0
    endloop
  endfacet
  facet normal 0 0 1
    outer loop
      vertex 143.6 -57.6 5
      vertex 157.6 -57.6 5
      vertex 157.6 -47.6 5
    endloop
  endfacet
  facet normal 0 0 1
    outer loop
      vertex 143.6 -57.6 5
      vertex 157.6 -47.6 5
      vertex 143.6 -47.6 5
    endloop
  endfacet
  facet normal 0 -1 0
    outer loop
      vertex 143.6 -57.6 0
      vertex 157.6 -57.6 0
      vertex 157.6 -57.6 5
    endloop
  endfacet
  facet normal 0 -1 0
    outer loop
      vertex 143.6 -57.6 0
      vertex 157.6 -57.6 5
      vertex 143.6 -57.6 5
    endloop
  endfacet
  facet normal 1 0 0
    outer loop
      vertex 157.6 -57.6 0
      vertex 157.6 -47.6 0
      vertex 157.6 -47.6 5
    endloop
  endfacet
  facet normal 1 0 0
    outer loop
      vertex 157.6 -57.6 0
      vertex 157.6 -47.6 5
      vertex 157.6 -57.6 5
    endloop
  endfacet
  facet normal 0 1 0
    outer loop
      vertex 157.6 -47.6 0
      vertex 143.6 -47.6 0
      vertex 143.6 -47.6 5
    endloop
  endfacet
  facet normal 0 1 -0
    outer loop
      vertex 157.6 -47.6 0
      vertex 143.6 -47.6 5
      vertex 157.6 -47.6 5
    endloop
  endfacet
  facet normal -1 0 0
    outer loop
      vertex 143.6 -47.6 0
      vertex 143.6 -57.6 0
      vertex 143.6 -57.6 5
    endloop
  endfacet
  facet normal -1 0 0
    outer loop
      vertex 143.6 -47.6 0
      vertex 143.6 -57.6 5
      vertex 143.6 -47.6 5
    endloop
  endfacet
  facet normal 0 0 -1
    outer loop
      vertex 101 -68 5
      vertex 115 -68 5
      vertex 115 -78 5
    endloop
  endfacet
  facet normal 0 0 -1
    outer loop
      vertex 101 -68 5
      vertex 115 -78 5
      vertex 101 -78 5
    endloop
  endfacet
  facet normal 0 0 1
    outer loop
      vertex 101 -78 10
      vertex 115 -78 10
      vertex 115 -68 10
    endloop
  endfacet
  facet normal 0 0 1
    outer loop
      vertex 101 -78 10
      vertex 115 -68 10
      vertex 101 -68 10
    endloop
  endfacet
  facet normal 0 -1 0
    outer loop
      vertex 101 -78 5
      vertex 115 -78 5
      vertex 115 -78 10
    endloop
  endfacet
  facet normal 0 -1 0
    outer loop
      vertex 101 -78 5
      vertex 115 -78 10
      vertex 101 -78 10
    endloop
  endfacet
  facet normal 1 0 0
    outer loop
      vertex 115 -78 5
      vertex 115 -68 5
      vertex 115 -68 10
    endloop
  endfacet
  facet normal 1 0 0
    outer loop
      vertex 115 -78 5
      vertex 115 -68 10
      vertex 115 -78 10
    endloop
  endfacet
  facet normal 0 1 0
    outer loop
      vertex 115 -68 5
      vertex 101 -68 5
      vertex 101 -68 10
    endloop
  endfacet
  facet normal 0 1 -0
    outer loop
      vertex 115 -68 5
      vertex 101 -68 10
      vertex 115 -68 10
    endloop
  endfacet
  facet normal -1 0 0
    outer loop
      vertex 101 -68 5
      vertex 101 -78 5
      vertex 101 -78 10
    endloop
  endfacet
  facet normal -1 0 0
    outer loop
      vertex 101 -68 5
      vertex 101 -78 10
      vertex 101 -68 10
    endloop
  endfacet
  facet normal 0 0 -1
    outer loop
      vertex 116.2 -68 5
      vertex 130.2 -68 5
      vertex 130.2 -78 5
    endloop
  endfacet
  facet normal 0 0 -1
    outer loop
      vertex 116.2 -68 5
      vertex 130.2 -78 5
      vertex 116.2 -78 5
    endloop
  endfacet
  facet normal 0 0 1
    outer loop
      vertex 116.2 -78 10
      vertex 130.2 -78 10
      vertex 130.2 -68 10
    endloop
  endfacet
  facet normal 0 0 1
    outer loop
      vertex 116.2 -78 10
      vertex 130.2 -68 10
      vertex 116.2 -68 10
    endloop
  endfacet
  facet normal 0 -1 0
    outer loop
      vertex 116.2 -78 5
      vertex 130.2 -78 5
      vertex 130.2 -78 10
    endloop
  endfacet
  facet normal 0 -1 0
    outer loop
      vertex 116.2 -78 5
      vertex 130.2 -78 10
      vertex 116.2 -78 10
    endloop
  endfacet
  facet normal 1 0 0
    outer loop
      vertex 130.2 -78 5
      vertex 130.2 -68 5
      vertex 130.2 -68 10
    endloop
  endfacet
  facet normal 1 0 0
    outer loop
      vertex 130.2 -78 5
      vertex 130.2 -68 10
      vertex 130.2 -78 10
    endloop
  endfacet
  facet normal 0 1 0
    outer loop
      vertex 130.2 -68 5
      vertex 116.2 -68 5
      vertex 116.2 -68 10
    endloop
  endfacet
  facet normal 0 1 -0
    outer loop
      vertex 130.2 -68 5
      vertex 116.2 -68 10
      vertex 130.2 -68 10
    endloop
  endfacet
  facet normal -1 0 0
    outer loop
      vertex 116.2 -68 5
      vertex 116.2 -78 5
      vertex 116.2 -78 10
    endloop
  endfacet
  facet normal -1 0 0
    outer loop
      vertex 116.2 -68 5
      vertex 116.2 -78 10
      vertex 116.2 -68 10
    endloop
  endfacet
  facet normal 0 0 -1
    outer loop
      vertex 131.4 -68 5
      vertex 145.4 -68 5
      vertex 145.4 -78 5
    endloop
  endfacet
  facet normal 0 0 -1
    outer loop
      vertex 131.4 -68 5
      vertex 145.4 -78 5
      vertex 131.4 -78 5
    endloop
  endfacet
  facet normal 0 0 1
    outer loop
      vertex 131.4 -78 10
      vertex 145.4 -78 10
      vertex 145.4 -68 10
    endloop
  endfacet
  facet normal 0 0 1
    outer loop
      vertex 131.4 -78 10
      vertex 145.4 -68 10
      vertex 131.4 -68 10
    endloop
  endfacet
  facet normal 0 -1 0
    outer loop
      vertex 131.4 -78 5
      vertex 145.4 -78 5
      vertex 145.4 -78 10
    endloop
  endfacet
  facet normal 0 -1 0
    outer loop
      vertex 131.4 -78 5
      vertex 145.4 -78 10
      vertex 131.4 -78 10
    endloop
  endfacet
  facet normal 1 0 0
    outer loop
      vertex 145.4 -78 5
      vertex 145.4 -68 5
      vertex 145.4 -68 10
    endloop
  endfacet
  facet normal 1 0 0
    outer loop
      vertex 145.4 -78 5
      vertex 145.4 -68 10
      vertex 145.4 -78 10
    endloop
  endfacet
  facet normal 0 1 0
    outer loop
      vertex 145.4 -68 5
      vertex 131.4 -68 5
      vertex 131.4 -68 10
    endloop
  endfacet
  facet normal 0 1 -0
    outer loop
      vertex 145.4 -68 5
      vertex 131.4 -68 10
      vertex 145.4 -68 10
    endloop
  endfacet
  facet normal -1 0 0
    outer loop
      vertex 131.4 -68 5
      vertex 131.4 -78 5
      vertex 131.4 -78 10
    endloop
  endfacet
  facet normal -1 0 0
    outer loop
      vertex 131.4 -68 5
      vertex 131.4 -78 10
      vertex 131.4 -68 10
    endloop
  endfacet
  facet normal 0 0 -1
    outer loop
      vertex 101 -56.8 5
      vertex 115 -56.8 5
      vertex 115 -66.8 5
    endloop
  endfacet
  facet normal 0 0 -1
    outer loop
      vertex 101 -56.8 5
      vertex 115 -66.8 5
      vertex 101 -66.8 5
    endloop
  endfacet
  facet normal 0 0 1
    outer loop
      vertex 101 -66.8 10
      vertex 115 -66.8 10
      vertex 115 -56.8 10
    endloop
  endfacet
  facet normal 0 0 1
    outer loop
      vertex 101 -66.8 10
      vertex 115 -56.8 10
      vertex 101 -56.8 10
    endloop
  endfacet
  facet normal 0 -1 0
    outer loop
      vertex 101 -66.8 5
      vertex 115 -66.8 5
      vertex 115 -66.8 10
    endloop
  endfacet
  facet normal 0 -1 0
    outer loop
      vertex 101 -66.8 5
      vertex 115 -66.8 10
      vertex 101 -66.8 10
    endloop
  endfacet
  facet normal 1 0 0
    outer loop
      vertex 115 -66.8 5
      vertex 115 -56.8 5
      vertex 115 -56.8 10
    endloop
  endfacet
  facet normal 1 0 0
    outer loop
      vertex 115 -66.8 5
      vertex 115 -56.8 10
      vertex 115 -66.8 10
    endloop
  endfacet
  facet normal 0 1 0
    outer loop
      vertex 115 -56.8 5
      vertex 101 -56.8 5
      vertex 101 -56.8 10
    endloop
  endfacet
  facet normal 0 1 -0
    outer loop
      vertex 115 -56.8 5
      vertex 101 -56.8 10
      vertex 115 -56.8 10
    endloop
  endfacet
  facet normal -1 0 0
    outer loop
      vertex 101 -56.8 5
      vertex 101 -66.8 5
      vertex 101 -66.8 10
    endloop
  endfacet
  facet normal -1 0 0
    outer loop
      vertex 101 -56.8 5
      vertex 101 -66.8 10
      vertex 101 -56.8 10
    endloop
  endfacet
  facet normal 0 0 -1
    outer loop
      vertex 116.2 -56.8 5
      vertex 130.2 -56.8 5
      vertex 130.2 -66.8 5
    endloop
  endfacet
  facet normal 0 0 -1
    outer loop
      vertex 116.2 -56.8 5
      vertex 130.2 -66.8 5
      vertex 116.2 -66.8 5
    endloop
  endfacet
  facet normal 0 0 1
    outer loop
      vertex 116.2 -66.8 10
      vertex 130.2 -66.8 10
      vertex 130.2 -56.8 10
    endloop
  endfacet
  facet normal 0 0 1
    outer loop
      vertex 116.2 -66.8 10
      vertex 130.2 -56.8 10
      vertex 116.2 -56.8 10
    endloop
  endfacet
  facet normal 0 -1 0
    outer loop
      vertex 116.2 -66.8 5
      vertex 130.2 -66.8 5
      vertex 130.2 -66.8 10
    endloop
  endfacet
  facet normal 0 -1 0
    outer loop
      vertex 116.2 -66.8 5
      vertex 130.2 -66.8 10
      vertex 116.2 -66.8 10
    endloop
  endfacet
  facet normal 1 0 0
    outer loop
      vertex 130.2 -66.8 5
      vertex 130.2 -56.8 5
      vertex 130.2 -56.8 10
    endloop
  endfacet
  facet normal 1 0 0
    outer loop
      vertex 130.2 -66.8 5
      vertex 130.2 -56.8 10
      vertex 130.2 -66.8 10
    endloop
  endfacet
  facet normal 0 1 0
    outer loop
      vertex 130.2 -56.8 5
      vertex 116.2 -56.8 5
      vertex 116.2 -56.8 10
    endloop
  endfacet
  facet normal 0 1 -0
    outer loop
      vertex 130.2 -56.8 5
      vertex 116.2 -56.8 10
      vertex 130.2 -56.8 10
    endloop
  endfacet
  facet normal -1 0 0
    outer loop
      vertex 116.2 -56.8 5
      vertex 116.2 -66.8 5
      vertex 116.2 -66.8 10
    endloop
  endfacet
  facet normal -1 0 0
    outer loop
      vertex 116.2 -56.8 5
      vertex 116.2 -66.8 10
      vertex 116.2 -56.8 10
    endloop
  endfacet
  facet normal 0 0 -1
    outer loop
      vertex 131.4 -56.8 5
      vertex 145.4 -56.8 5
      vertex 145.4 -66.8 5
    endloop
  endfacet
  facet normal 0 0 -1
    outer loop
      vertex 131.4 -56.8 5
      vertex 145.4 -66.8 5
      vertex 131.4 -66.8 5
    endloop
  endfacet
  facet normal 0 0 1
    outer loop
      vertex 131.4 -66.8 10
      vertex 145.4 -66.8 10
      vertex 145.4 -56.8 10
    endloop
  endfacet
  facet normal 0 0 1
    outer loop
      vertex 131.4 -66.8 10
      vertex 145.4 -56.8 10
      vertex 131.4 -56.8 10
    endloop
  endfacet
  facet normal 0 -1 0
    outer loop
      vertex 131.4 -66.8 5
      vertex 145.4 -66.8 5
      vertex 145.4 -66.8 10
    endloop
  endfacet
  facet normal 0 -1 0
    outer loop
      vertex 131.4 -66.8 5
      vertex 145.4 -66.8 10
      vertex 131.4 -66.8 10
    endloop
  endfacet
  facet normal 1 0 0
    outer loop
      vertex 145.4 -66.8 5
      vertex 145.4 -56.8 5
      vertex 145.4 -56.8 10
    endloop
  endfacet
  facet normal 1 0 0
    outer loop
      vertex 145.4 -66.8 5
      vertex 145.4 -56.8 10
      vertex 145.4 -66.8 10
    endloop
  endfacet
  facet normal 0 1 0
    outer loop
      vertex 145.4 -56.8 5
      vertex 131.4 -56.8 5
      vertex 131.4 -56.8 10
    endloop
  endfacet
  facet normal 0 1 -0
    outer loop
      vertex 145.4 -56.8 5
      vertex 131.4 -56.8 10
      vertex 145.4 -56.8 10
    endloop
  endfacet
  facet normal -1 0 0
    outer loop
      vertex 131.4 -56.8 5
      vertex 131.4 -66.8 5
      vertex 131.4 -66.8 10
    endloop
  endfacet
  facet normal -1 0 0
    outer loop
      vertex 131.4 -56.8 5
      vertex 131.4 -66.8 10
      vertex 131.4 -56.8 10
    endloop
  endfacet
  facet normal 0 0 -1
    outer loop
      vertex 104 -66 10
      vertex 118 -66 10
      vertex 118 -76 10
    endloop
  endfacet
  facet normal 0 0 -1
    outer loop
      vertex 104 -66 10
      vertex 118 -76 10
      vertex 104 -76 10
    endloop
  endfacet
  facet normal 0 0 1
    outer loop
      vertex 104 -76 15
      vertex 118 -76 15
      vertex 118 -66 15
    endloop
  endfacet
  facet normal 0 0 1
    outer loop
      vertex 104 -76 15
      vertex 118 -66 15
      vertex 104 -66 15
    endloop
  endfacet
  facet normal 0 -1 0
    outer loop
      vertex 104 -76 10
      vertex 118 -76 10
      vertex 118 -76 15
    endloop
  endfacet
  facet normal 0 -1 0
    outer loop
      vertex 104 -76 10
      vertex 118 -76 15
      vertex 104 -76 15
    endloop
  endfacet
  facet normal 1 0 0
    outer loop
      vertex 118 -76 10
      vertex 118 -66 10
      vertex 118 -66 15
    endloop
  endfacet
  facet normal 1 0 0
    outer loop
      vertex 118 -76 10
      vertex 118 -66 15
      vertex 118 -76 15
    endloop
  endfacet
  facet normal 0 1 0
    outer loop
      vertex 118 -66 10
      vertex 104 -66 10
      vertex 104 -66 15
    endloop
  endfacet
  facet normal 0 1 -0
    outer loop
      vertex 118 -66 10
      vertex 104 -66 15
      vertex 118 -66 15
    endloop
  endfacet
  facet normal -1 0 0
    outer loop
      vertex 104 -66 10
      vertex 104 -76 10
      vertex 104 -76 15
    endloop
  endfacet
  facet normal -1 0 0
    outer loop
      vertex 104 -66 10
      vertex 104 -76 15
      vertex 104 -66 15
    endloop
  endfacet
  facet normal 0 0 -1
    outer loop
      vertex 119.2 -66 10
      vertex 133.2 -66 10
      vertex 133.2 -76 10
    endloop
  endfacet
  facet normal 0 0 -1
    outer loop
      vertex 119.2 -66 10
      vertex 133.2 -76 10
      vertex 119.2 -76 10
    endloop
  endfacet
  facet normal 0 0 1
    outer loop
      vertex 119.2 -76 15
      vertex 133.2 -76 15
      vertex 133.2 -66 15
    endloop
  endfacet
  facet normal 0 0 1
    outer loop
      vertex 119.2 -76 15
      vertex 133.2 -66 15
      vertex 119.2 -66 15
    endloop
  endfacet
  facet normal 0 -1 0
    outer loop
      vertex 119.2 -76 10
      vertex 133.2 -76 10
      vertex 133.2 -76 15
    endloop
  endfacet
  facet normal 0 -1 0
    outer loop
      vertex 119.2 -76 10
      vertex 133.2 -76 15
      vertex 119.2 -76 15
    endloop
  endfacet
  facet normal 1 0 0
    outer loop
      vertex 133.2 -76 10
      vertex 133.2 -66 10
      vertex 133.2 -66 15
    endloop
  endfacet
  facet normal 1 0 0
    outer loop
      vertex 133.2 -76 10
      vertex 133.2 -66 15
      vertex 133.2 -76 15
    endloop
  endfacet
  facet normal 0 1 0
    outer loop
      vertex 133.2 -66 10
      vertex 119.2 -66 10
      vertex 119.2 -66 15
    endloop
  endfacet
  facet normal 0 1 -0
    outer loop
      vertex 133.2 -66 10
      vertex 119.2 -66 15
      vertex 133.2 -66 15
    endloop
  endfacet
  facet normal -1 0 0
    outer loop
      vertex 119.2 -66 10
      vertex 119.2 -76 10
      vertex 119.2 -76 15
    endloop
  endfacet
  facet normal -1 0 0
    outer loop
      vertex 119.2 -66 10
      vertex 119.2 -76 15
      vertex 119.2 -66 15
    endloop
  endfacet
  facet normal 0 0 -1
    outer loop
      vertex 104 -54.8 10
      vertex 118 -54.8 10
      vertex 118 -64.8 10
    endloop
  endfacet
  facet normal 0 0 -1
    outer loop
      vertex 104 -54.8 10
      vertex 118 -64.8 10
      vertex 104 -64.8 10
    endloop
  endfacet
  facet normal 0 0 1
    outer loop
      vertex 104 -64.8 15
      vertex 118 -64.8 15
      vertex 118 -54.8 15
    endloop
  endfacet
  facet normal 0 0 1
    outer loop
      vertex 104 -64.8 15
      vertex 118 -54.8 15
      vertex 104 -54.8 15
    endloop
  endfacet
  facet normal 0 -1 0
    outer loop
      vertex 104 -64.8 10
      vertex 118 -64.8 10
      vertex 118 -64.8 15
    endloop
  endfacet
  facet normal 0 -1 0
    outer loop
      vertex 104 -64.8 10
      vertex 118 -64.8 15
      vertex 104 -64.8 15
    endloop
  endfacet
  facet normal 1 0 0
    outer loop
      vertex 118 -64.8 10
      vertex 118 -54.8 10
      vertex 118 -54.8 15
    endloop
  endfacet
  facet normal 1 0 0
    outer loop
      vertex 118 -64.8 10
      vertex 118 -54.8 15
      vertex 118 -64.8 15
    endloop
  endfacet
  facet normal 0 1 0
    outer loop
      vertex 118 -54.8 10
      vertex 104 -54.8 10
      vertex 104 -54.8 15
    endloop
  endfacet
  facet normal 0 1 -0
    outer loop
      vertex 118 -54.8 10
      vertex 104 -54.8 15
      vertex 118 -54.8 15
    endloop
  endfacet
  facet normal -1 0 0
    outer loop
      vertex 104 -54.8 10
      vertex 104 -64.8 10
      vertex 104 -64.8 15
    endloop
  endfacet
  facet normal -1 0 0
    outer loop
      vertex 104 -54.8 10
      vertex 104 -64.8 15
      vertex 104 -54.8 15
    endloop
  endfacet
  facet normal 0 0 -1
    outer loop
      vertex 119.2 -54.8 10
      vertex 133.2 -54.8 10
      vertex 133.2 -64.8 10
    endloop
  endfacet
  facet normal 0 0 -1
    outer loop
      vertex 119.2 -54.8 10
      vertex 133.2 -64.8 10
      vertex 119.2 -64.8 10
    endloop
  endfacet
  facet normal 0 0 1
    outer loop
      vertex 119.2 -64.8 15
      vertex 133.2 -64.8 15
      vertex 133.2 -54.8 15
    endloop
  endfacet
  facet normal 0 0 1
    outer loop
      vertex 119.2 -64.8 15
      vertex 133.2 -54.8 15
      vertex 119.2 -54.8 15
    endloop
  endfacet
  facet normal 0 -1 0
    outer loop
      vertex 119.2 -64.8 10
      vertex 133.2 -64.8 10
      vertex 133.2 -64.8 15
    endloop
  endfacet
  facet normal 0 -1 0
    outer loop
      vertex 119.2 -64.8 10
      vertex 133.2 -64.8 15
      vertex 119.2 -64.8 15
    endloop
  endfacet
  facet normal 1 0 0
    outer loop
      vertex 133.2 -64.8 10
      vertex 133.2 -54.8 10
      vertex 133.2 -54.8 15
    endloop
  endfacet
  facet normal 1 0 0
    outer loop
      vertex 133.2 -64.8 10
      vertex 133.2 -54.8 15
      vertex 133.2 -64.8 15
    endloop
  endfacet
  facet normal 0 1 0
    outer loop
      vertex 133.2 -54.8 10
      vertex 119.2 -54.8 10
      vertex 119.2 -54.8 15
    endloop
  endfacet
  facet normal 0 1 -0
    outer loop
      vertex 133.2 -54.8 10
      vertex 119.2 -54.8 15
      vertex 133.2 -54.8 15
    endloop
  endfacet
  facet normal -1 0 0
    outer loop
      vertex 119.2 -54.8 10
      vertex 119.2 -64.8 10
      vertex 119.2 -64.8 15
    endloop
  endfacet
  facet normal -1 0 0
    outer loop
      vertex 119.2 -54.8 10
      vertex 119.2 -64.8 15
      vertex 119.2 -54.8 15
    endloop
  endfacet
  facet normal 0 0 -1
    outer loop
      vertex 98 17 0
      vertex 107 17 0
      vertex 107 8 0
    endloop
  endfacet
  facet normal 0 0 -1
    outer loop
      vertex 98 17 0
      vertex 107 8 0
      vertex 98 8 0
    endloop
  endfacet
  facet normal 0 0 1
    outer loop
      vertex 98 8 2.4
      vertex 107 8 2.4
      vertex 107 17 2.4
    endloop
  endfacet
  facet normal 0 0 1
    outer loop
      vertex 98 8 2.4
      vertex 107 17 2.4
      vertex 98 17 2.4
    endloop
  endfacet
  facet normal 0 -1 0
    outer loop
      vertex 98 8 0
      vertex 107 8 0
      vertex 107 8 2.4
    endloop
  endfacet
  facet normal 0 -1 0
    outer loop
      vertex 98 8 0
      vertex 107 8 2.4
      vertex 98 8 2.4
    endloop
  endfacet
  facet normal 1 0 0
    outer loop
      vertex 107 8 0
      vertex 107 17 0
      vertex 107 17 2.4
    endloop
  endfacet
  facet normal 1 0 0
    outer loop
      vertex 107 8 0
      vertex 107 17 2.4
      vertex 107 8 2.4
    endloop
  endfacet
  facet normal 0 1 0
    outer loop
      vertex 107 17 0
      vertex 98 17 0
      vertex 98 17 2.4
    endloop
  endfacet
  facet normal 0 1 -0
    outer loop
      vertex 107 17 0
      vertex 98 17 2.4
      vertex 107 17 2.4
    endloop
  endfacet
  facet normal -1 0 0
    outer loop
      vertex 98 17 0
      vertex 98 8 0
      vertex 98 8 2.4
    endloop
  endfacet
  facet normal -1 0 0
    outer loop
      vertex 98 17 0
      vertex 98 8 2.4
      vertex 98 17 2.4
    endloop
  endfacet
  facet normal 0 0 -1
    outer loop
      vertex 107.8 17 0
      vertex 116.8 17 0
      vertex 116.8 8 0
    endloop
  endfacet
  facet normal 0 0 -1
    outer loop
      vertex 107.8 17 0
      vertex 116.8 8 0
      vertex 107.8 8 0
    endloop
  endfacet
  facet normal 0 0 1
    outer loop
      vertex 107.8 8 2.4
      vertex 116.8 8 2.4
      vertex 116.8 17 2.4
    endloop
  endfacet
  facet normal 0 0 1
    outer loop
      vertex 107.8 8 2.4
      vertex 116.8 17 2.4
      vertex 107.8 17 2.4
    endloop
  endfacet
  facet normal 0 -1 0
    outer loop
      vertex 107.8 8 0
      vertex 116.8 8 0
      vertex 116.8 8 2.4
    endloop
  endfacet
  facet normal 0 -1 0
    outer loop
      vertex 107.8 8 0
      vertex 116.8 8 2.4
      vertex 107.8 8 2.4
    endloop
  endfacet
  facet normal 1 0 0
    outer loop
      vertex 116.8 8 0
      vertex 116.8 17 0
      vertex 116.8 17 2.4
    endloop
  endfacet
  facet normal 1 0 0
    outer loop
      vertex 116.8 8 0
      vertex 116.8 17 2.4
      vertex 116.8 8 2.4
    endloop
  endfacet
  facet normal 0 1 0
    outer loop
      vertex 116.8 17 0
      vertex 107.8 17 0
      vertex 107.8 17 2.4
    endloop
  endfacet
  facet normal 0 1 -0
    outer loop
      vertex 116.8 17 0
      vertex 107.8 17 2.4
      vertex 116.8 17 2.4
    endloop
  endfacet
  facet normal -1 0 0
    outer loop
      vertex 107.8 17 0
      vertex 107.8 8 0
      vertex 107.8 8 2.4
    endloop
  endfacet
  facet normal -1 0 0
    outer loop
      vertex 107.8 17 0
      vertex 107.8 8 2.4
      vertex 107.8 17 2.4
    endloop
  endfacet
  facet normal 0 0 -1
    outer loop
      vertex 117.6 17 0
      vertex 126.6 17 0
      vertex 126.6 8 0
    endloop
  endfacet
  facet normal 0 0 -1
    outer loop
      vertex 117.6 17 0
      vertex 126.6 8 0
      vertex 117.6 8 0
    endloop
  endfacet
  facet normal 0 0 1
    outer loop
      vertex 117.6 8 2.4
      vertex 126.6 8 2.4
      vertex 126.6 17 2.4
    endloop
  endfacet
  facet normal 0 0 1
    outer loop
      vertex 117.6 8 2.4
      vertex 126.6 17 2.4
      vertex 117.6 17 2.4
    endloop
  endfacet
  facet normal 0 -1 0
    outer loop
      vertex 117.6 8 0
      vertex 126.6 8 0
      vertex 126.6 8 2.4
    endloop
  endfacet
  facet normal 0 -1 0
    outer loop
      vertex 117.6 8 0
      vertex 126.6 8 2.4
      vertex 117.6 8 2.4
    endloop
  endfacet
  facet normal 1 0 0
    outer loop
      vertex 126.6 8 0
      vertex 126.6 17 0
      vertex 126.6 17 2.4
    endloop
  endfacet
  facet normal 1 0 0
    outer loop
      vertex 126.6 8 0
      vertex 126.6 17 2.4
      vertex 126.6 8 2.4
    endloop
  endfacet
  facet normal 0 1 0
    outer loop
      vertex 126.6 17 0
      vertex 117.6 17 0
      vertex 117.6 17 2.4
    endloop
  endfacet
  facet normal 0 1 -0
    outer loop
      vertex 126.6 17 0
      vertex 117.6 17 2.4
      vertex 126.6 17 2.4
    endloop
  endfacet
  facet normal -1 0 0
    outer loop
      vertex 117.6 17 0
      vertex 117.6 8 0
      vertex 117.6 8 2.4
    endloop
  endfacet
  facet normal -1 0 0
    outer loop
      vertex 117.6 17 0
      vertex 117.6 8 2.4
      vertex 117.6 17 2.4
    endloop
  endfacet
  facet normal 0 0 -1
    outer loop
      vertex 127.4 17 0
      vertex 136.4 17 0
      vertex 136.4 8 0
    endloop
  endfacet
  facet normal 0 0 -1
    outer loop
      vertex 127.4 17 0
      vertex 136.4 8 0
      vertex 127.4 8 0
    endloop
  endfacet
  facet normal 0 0 1
    outer loop
      vertex 127.4 8 2.4
      vertex 136.4 8 2.4
      vertex 136.4 17 2.4
    endloop
  endfacet
  facet normal 0 0 1
    outer loop
      vertex 127.4 8 2.4
      vertex 136.4 17 2.4
      vertex 127.4 17 2.4
    endloop
  endfacet
  facet normal 0 -1 0
    outer loop
      vertex 127.4 8 0
      vertex 136.4 8 0
      vertex 136.4 8 2.4
    endloop
  endfacet
  facet normal 0 -1 0
    outer loop
      vertex 127.4 8 0
      vertex 136.4 8 2.4
      vertex 127.4 8 2.4
    endloop
  endfacet
  facet normal 1 0 0
    outer loop
      vertex 136.4 8 0
      vertex 136.4 17 0
      vertex 136.4 17 2.4
    endloop
  endfacet
  facet normal 1 0 0
    outer loop
      vertex 136.4 8 0
      vertex 136.4 17 2.4
      vertex 136.4 8 2.4
    endloop
  endfacet
  facet normal 0 1 0
    outer loop
      vertex 136.4 17 0
      vertex 127.4 17 0
      vertex 127.4 17 2.4
    endloop
  endfacet
  facet normal 0 1 -0
    outer loop
      vertex 136.4 17 0
      vertex 127.4 17 2.4
      vertex 136.4 17 2.4
    endloop
  endfacet
  facet normal -1 0 0
    outer loop
      vertex 127.4 17 0
      vertex 127.4 8 0
      vertex 127.4 8 2.4
    endloop
  endfacet
  facet normal -1 0 0
    outer loop
      vertex 127.4 17 0
      vertex 127.4 8 2.4
      vertex 127.4 17 2.4
    endloop
  endfacet
  facet normal 0 0 -1
    outer loop
      vertex 137.2 17 0
      vertex 146.2 17 0
      vertex 146.2 8 0
    endloop
  endfacet
  facet normal 0 0 -1
    outer loop
      vertex 137.2 17 0
      vertex 146.2 8 0
      vertex 137.2 8 0
    endloop
  endfacet
  facet normal 0 0 1
    outer loop
      vertex 137.2 8 2.4
      vertex 146.2 8 2.4
      vertex 146.2 17 2.4
    endloop
  endfacet
  facet normal 0 0 1
    outer loop
      vertex 137.2 8 2.4
      vertex 146.2 17 2.4
      vertex 137.2 17 2.4
    endloop
  endfacet
  facet normal 0 -1 0
    outer loop
      vertex 137.2 8 0
      vertex 146.2 8 0
      vertex 146.2 8 2.4
    endloop
  endfacet
  facet normal 0 -1 0
    outer loop
      vertex 137.2 8 0
      vertex 146.2 8 2.4
      vertex 137.2 8 2.4
    endloop
  endfacet
  facet normal 1 0 0
    outer loop
      vertex 146.2 8 0
      vertex 146.2 17 0
      vertex 146.2 17 2.4
    endloop
  endfacet
  facet normal 1 0 0
    outer loop
      vertex 146.2 8 0
      vertex 146.2 17 2.4
      vertex 146.2 8 2.4
    endloop
  endfacet
  facet normal 0 1 0
    outer loop
      vertex 146.2 17 0
      vertex 137.2 17 0
      vertex 137.2 17 2.4
    endloop
  endfacet
  facet normal 0 1 -0
    outer loop
      vertex 146.2 17 0
      vertex 137.2 17 2.4
      vertex 146.2 17 2.4
    endloop
  endfacet
  facet normal -1 0 0
    outer loop
      vertex 137.2 17 0
      vertex 137.2 8 0
      vertex 137.2 8 2.4
    endloop
  endfacet
  facet normal -1 0 0
    outer loop
      vertex 137.2 17 0
      vertex 137.2 8 2.4
      vertex 137.2 17 2.4
    endloop
  endfacet
  facet normal 0 0 -1
    outer loop
      vertex 98 26.8 0
      vertex 107 26.8 0
      vertex 107 17.8 0
    endloop
  endfacet
  facet normal 0 0 -1
    outer loop
      vertex 98 26.8 0
      vertex 107 17.8 0
      vertex 98 17.8 0
    endloop
  endfacet
  facet normal 0 0 1
    outer loop
      vertex 98 17.8 2.4
      vertex 107 17.8 2.4
      vertex 107 26.8 2.4
    endloop
  endfacet
  facet normal 0 0 1
    outer loop
      vertex 98 17.8 2.4
      vertex 107 26.8 2.4
      vertex 98 26.8 2.4
    endloop
  endfacet
  facet normal 0 -1 0
    outer loop
      vertex 98 17.8 0
      vertex 107 17.8 0
      vertex 107 17.8 2.4
    endloop
  endfacet
  facet normal 0 -1 0
    outer loop
      vertex 98 17.8 0
      vertex 107 17.8 2.4
      vertex 98 17.8 2.4
    endloop
  endfacet
  facet normal 1 0 0
    outer loop
      vertex 107 17.8 0
      vertex 107 26.8 0
      vertex 107 26.8 2.4
    endloop
  endfacet
  facet normal 1 0 0
    outer loop
      vertex 107 17.8 0
      vertex 107 26.8 2.4
      vertex 107 17.8 2.4
    endloop
  endfacet
  facet normal 0 1 0
    outer loop
      vertex 107 26.8 0
      vertex 98 26.8 0
      vertex 98 26.8 2.4
    endloop
  endfacet
  facet normal 0 1 -0
    outer loop
      vertex 107 26.8 0
      vertex 98 26.8 2.4
      vertex 107 26.8 2.4
    endloop
  endfacet
  facet normal -1 0 0
    outer loop
      vertex 98 26.8 0
      vertex 98 17.8 0
      vertex 98 17.8 2.4
    endloop
  endfacet
  facet normal -1 0 0
    outer loop
      vertex 98 26.8 0
      vertex 98 17.8 2.4
      vertex 98 26.8 2.4
    endloop
  endfacet
  facet normal 0 0 -1
    outer loop
      vertex 107.8 26.8 0
      vertex 116.8 26.8 0
      vertex 116.8 17.8 0
    endloop
  endfacet
  facet normal 0 0 -1
    outer loop
      vertex 107.8 26.8 0
      vertex 116.8 17.8 0
      vertex 107.8 17.8 0
    endloop
  endfacet
  facet normal 0 0 1
    outer loop
      vertex 107.8 17.8 2.4
      vertex 116.8 17.8 2.4
      vertex 116.8 26.8 2.4
    endloop
  endfacet
  facet normal 0 0 1
    outer loop
      vertex 107.8 17.8 2.4
      vertex 116.8 26.8 2.4
      vertex 107.8 26.8 2.4
    endloop
  endfacet
  facet normal 0 -1 0
    outer loop
      vertex 107.8 17.8 0
      vertex 116.8 17.8 0
      vertex 116.8 17.8 2.4
    endloop
  endfacet
  facet normal 0 -1 0
    outer loop
      vertex 107.8 17.8 0
      vertex 116.8 17.8 2.4
      vertex 107.8 17.8 2.4
    endloop
  endfacet
  facet normal 1 0 0
    outer loop
      vertex 116.8 17.8 0
      vertex 116.8 26.8 0
      vertex 116.8 26.8 2.4
    endloop
  endfacet
  facet normal 1 0 0
    outer loop
      vertex 116.8 17.8 0
      vertex 116.8 26.8 2.4
      vertex 116.8 17.8 2.4
    endloop
  endfacet
  facet normal 0 1 0
    outer loop
      vertex 116.8 26.8 0
      vertex 107.8 26.8 0
      vertex 107.8 26.8 2.4
    endloop
  endfacet
  facet normal 0 1 -0
    outer loop
      vertex 116.8 26.8 0
      vertex 107.8 26.8 2.4
      vertex 116.8 26.8 2.4
    endloop
  endfacet
  facet normal -1 0 0
    outer loop
      vertex 107.8 26.8 0
      vertex 107.8 17.8 0
      vertex 107.8 17.8 2.4
    endloop
  endfacet
  facet normal -1 0 0
    outer loop
      vertex 107.8 26.8 0
      vertex 107.8 17.8 2.4
      vertex 107.8 26.8 2.4
    endloop
  endfacet
  facet normal 0 0 -1
    outer loop
      vertex 117.6 26.8 0
      vertex 126.6 26.8 0
      vertex 126.6 17.8 0
    endloop
  endfacet
  facet normal 0 0 -1
    outer loop
      vertex 117.6 26.8 0
      vertex 126.6 17.8 0
      vertex 117.6 17.8 0
    endloop
  endfacet
  facet normal 0 0 1
    outer loop
      vertex 117.6 17.8 2.4
      vertex 126.6 17.8 2.4
      vertex 126.6 26.8 2.4
    endloop
  endfacet
  facet normal 0 0 1
    outer loop
      vertex 117.6 17.8 2.4
      vertex 126.6 26.8 2.4
      vertex 117.6 26.8 2.4
    endloop
  endfacet
  facet normal 0 -1 0
    outer loop
      vertex 117.6 17.8 0
      vertex 126.6 17.8 0
      vertex 126.6 17.8 2.4
    endloop
  endfacet
  facet normal 0 -1 0
    outer loop
      vertex 117.6 17.8 0
      vertex 126.6 17.8 2.4
      vertex 117.6 17.8 2.4
    endloop
  endfacet
  facet normal 1 0 0
    outer loop
      vertex 126.6 17.8 0
      vertex 126.6 26.8 0
      vertex 126.6 26.8 2.4
    endloop
  endfacet
  facet normal 1 0 0
    outer loop
      vertex 126.6 17.8 0
      vertex 126.6 26.8 2.4
      vertex 126.6 17.8 2.4
    endloop
  endfacet
  facet normal 0 1 0
    outer loop
      vertex 126.6 26.8 0
      vertex 117.6 26.8 0
      vertex 117.6 26.8 2.4
    endloop
  endfacet
  facet normal 0 1 -0
    outer loop
      vertex 126.6 26.8 0
      vertex 117.6 26.8 2.4
      vertex 126.6 26.8 2.4
    endloop
  endfacet
  facet normal -1 0 0
    outer loop
      vertex 117.6 26.8 0
      vertex 117.6 17.8 0
      vertex 117.6 17.8 2.4
    endloop
  endfacet
  facet normal -1 0 0
    outer loop
      vertex 117.6 26.8 0
      vertex 117.6 17.8 2.4
      vertex 117.6 26.8 2.4
    endloop
  endfacet
  facet normal 0 0 -1
    outer loop
      vertex 127.4 26.8 0
      vertex 136.4 26.8 0
      vertex 136.4 17.8 0
    endloop
  endfacet
  facet normal 0 0 -1
    outer loop
      vertex 127.4 26.8 0
      vertex 136.4 17.8 0
      vertex 127.4 17.8 0
    endloop
  endfacet
  facet normal 0 0 1
    outer loop
      vertex 127.4 17.8 2.4
      vertex 136.4 17.8 2.4
      vertex 136.4 26.8 2.4
    endloop
  endfacet
  facet normal 0 0 1
    outer loop
      vertex 127.4 17.8 2.4
      vertex 136.4 26.8 2.4
      vertex 127.4 26.8 2.4
    endloop
  endfacet
  facet normal 0 -1 0
    outer loop
      vertex 127.4 17.8 0
      vertex 136.4 17.8 0
      vertex 136.4 17.8 2.4
    endloop
  endfacet
  facet normal 0 -1 0
    outer loop
      vertex 127.4 17.8 0
      vertex 136.4 17.8 2.4
      vertex 127.4 17.8 2.4
    endloop
  endfacet
  facet normal 1 0 0
    outer loop
      vertex 136.4 17.8 0
      vertex 136.4 26.8 0
      vertex 136.4 26.8 2.4
    endloop
  endfacet
  facet normal 1 0 0
    outer loop
      vertex 136.4 17.8 0
      vertex 136.4 26.8 2.4
      vertex 136.4 17.8 2.4
    endloop
  endfacet
  facet normal 0 1 0
    outer loop
      vertex 136.4 26.8 0
      vertex 127.4 26.8 0
      vertex 127.4 26.8 2.4
    endloop
  endfacet
  facet normal 0 1 -0
    outer loop
      vertex 136.4 26.8 0
      vertex 127.4 26.8 2.4
      vertex 136.4 26.8 2.4
    endloop
  endfacet
  facet normal -1 0 0
    outer loop
      vertex 127.4 26.8 0
      vertex 127.4 17.8 0
      vertex 127.4 17.8 2.4
    endloop
  endfacet
  facet normal -1 0 0
    outer loop
      vertex 127.4 26.8 0
      vertex 127.4 17.8 2.4
      vertex 127.4 26.8 2.4
    endloop
  endfacet
  facet normal 0 0 -1
    outer loop
      vertex 137.2 26.8 0
      vertex 146.2 26.8 0
      vertex 146.2 17.8 0
    endloop
  endfacet
  facet normal 0 0 -1
    outer loop
      vertex 137.2 26.8 0
      vertex 146.2 17.8 0
      vertex 137.2 17.8 0
    endloop
  endfacet
  facet normal 0 0 1
    outer loop
      vertex 137.2 17.8 2.4
      vertex 146.2 17.8 2.4
      vertex 146.2 26.8 2.4
    endloop
  endfacet
  facet normal 0 0 1
    outer loop
      vertex 137.2 17.8 2.4
      vertex 146.2 26.8 2.4
      vertex 137.2 26.8 2.4
    endloop
  endfacet
  facet normal 0 -1 0
    outer loop
      vertex 137.2 17.8 0
      vertex 146.2 17.8 0
      vertex 146.2 17.8 2.4
    endloop
  endfacet
  facet normal 0 -1 0
    outer loop
      vertex 137.2 17.8 0
      vertex 146.2 17.8 2.4
      vertex 137.2 17.8 2.4
    endloop
  endfacet
  facet normal 1 0 0
    outer loop
      vertex 146.2 17.8 0
      vertex 146.2 26.8 0
      vertex 146.2 26.8 2.4
    endloop
  endfacet
  facet normal 1 0 0
    outer loop
      vertex 146.2 17.8 0
      vertex 146.2 26.8 2.4
      vertex 146.2 17.8 2.4
    endloop
  endfacet
  facet normal 0 1 0
    outer loop
      vertex 146.2 26.8 0
      vertex 137.2 26.8 0
      vertex 137.2 26.8 2.4
    endloop
  endfacet
  facet normal 0 1 -0
    outer loop
      vertex 146.2 26.8 0
      vertex 137.2 26.8 2.4
      vertex 146.2 26.8 2.4
    endloop
  endfacet
  facet normal -1 0 0
    outer loop
      vertex 137.2 26.8 0
      vertex 137.2 17.8 0
      vertex 137.2 17.8 2.4
    endloop
  endfacet
  facet normal -1 0 0
    outer loop
      vertex 137.2 26.8 0
      vertex 137.2 17.8 2.4
      vertex 137.2 26.8 2.4
    endloop
  endfacet
  facet normal 0 0 -1
    outer loop
      vertex 98 36.6 0
      vertex 107 36.6 0
      vertex 107 27.6 0
    endloop
  endfacet
  facet normal 0 0 -1
    outer loop
      vertex 98 36.6 0
      vertex 107 27.6 0
      vertex 98 27.6 0
    endloop
  endfacet
  facet normal 0 0 1
    outer loop
      vertex 98 27.6 2.4
      vertex 107 27.6 2.4
      vertex 107 36.6 2.4
    endloop
  endfacet
  facet normal 0 0 1
    outer loop
      vertex 98 27.6 2.4
      vertex 107 36.6 2.4
      vertex 98 36.6 2.4
    endloop
  endfacet
  facet normal 0 -1 0
    outer loop
      vertex 98 27.6 0
      vertex 107 27.6 0
      vertex 107 27.6 2.4
    endloop
  endfacet
  facet normal 0 -1 0
    outer loop
      vertex 98 27.6 0
      vertex 107 27.6 2.4
      vertex 98 27.6 2.4
    endloop
  endfacet
  facet normal 1 0 0
    outer loop
      vertex 107 27.6 0
      vertex 107 36.6 0
      vertex 107 36.6 2.4
    endloop
  endfacet
  facet normal 1 0 0
    outer loop
      vertex 107 27.6 0
      vertex 107 36.6 2.4
      vertex 107 27.6 2.4
    endloop
  endfacet
  facet normal 0 1 0
    outer loop
      vertex 107 36.6 0
      vertex 98 36.6 0
      vertex 98 36.6 2.4
    endloop
  endfacet
  facet normal 0 1 -0
    outer loop
      vertex 107 36.6 0
      vertex 98 36.6 2.4
      vertex 107 36.6 2.4
    endloop
  endfacet
  facet normal -1 0 0
    outer loop
      vertex 98 36.6 0
      vertex 98 27.6 0
      vertex 98 27.6 2.4
    endloop
  endfacet
  facet normal -1 0 0
    outer loop
      vertex 98 36.6 0
      vertex 98 27.6 2.4
      vertex 98 36.6 2.4
    endloop
  endfacet
  facet normal 0 0 -1
    outer loop
      vertex 107.8 36.6 0
      vertex 116.8 36.6 0
      vertex 116.8 27.6 0
    endloop
  endfacet
  facet normal 0 0 -1
    outer loop
      vertex 107.8 36.6 0
      vertex 116.8 27.6 0
      vertex 107.8 27.6 0
    endloop
  endfacet
  facet normal 0 0 1
    outer loop
      vertex 107.8 27.6 2.4
      vertex 116.8 27.6 2.4
      vertex 116.8 36.6 2.4
    endloop
  endfacet
  facet normal 0 0 1
    outer loop
      vertex 107.8 27.6 2.4
      vertex 116.8 36.6 2.4
      vertex 107.8 36.6 2.4
    endloop
  endfacet
  facet normal 0 -1 0
    outer loop
      vertex 107.8 27.6 0
      vertex 116.8 27.6 0
      vertex 116.8 27.6 2.4
    endloop
  endfacet
  facet normal 0 -1 0
    outer loop
      vertex 107.8 27.6 0
      vertex 116.8 27.6 2.4
      vertex 107.8 27.6 2.4
    endloop
  endfacet
  facet normal 1 0 0
    outer loop
      vertex 116.8 27.6 0
      vertex 116.8 36.6 0
      vertex 116.8 36.6 2.4
    endloop
  endfacet
  facet normal 1 0 0
    outer loop
      vertex 116.8 27.6 0
      vertex 116.8 36.6 2.4
      vertex 116.8 27.6 2.4
    endloop
  endfacet
  facet normal 0 1 0
    outer loop
      vertex 116.8 36.6 0
      vertex 107.8 36.6 0
      vertex 107.8 36.6 2.4
    endloop
  endfacet
  facet normal 0 1 -0
    outer loop
      vertex 116.8 36.6 0
      vertex 107.8 36.6 2.4
      vertex 116.8 36.6 2.4
    endloop
  endfacet
  facet normal -1 0 0
    outer loop
      vertex 107.8 36.6 0
      vertex 107.8 27.6 0
      vertex 107.8 27.6 2.4
    endloop
  endfacet
  facet normal -1 0 0
    outer loop
      vertex 107.8 36.6 0
      vertex 107.8 27.6 2.4
      vertex 107.8 36.6 2.4
    endloop
  endfacet
  facet normal 0 0 -1
    outer loop
      vertex 117.6 36.6 0
      vertex 126.6 36.6 0
      vertex 126.6 27.6 0
    endloop
  endfacet
  facet normal 0 0 -1
    outer loop
      vertex 117.6 36.6 0
      vertex 126.6 27.6 0
      vertex 117.6 27.6 0
    endloop
  endfacet
  facet normal 0 0 1
    outer loop
      vertex 117.6 27.6 2.4
      vertex 126.6 27.6 2.4
      vertex 126.6 36.6 2.4
    endloop
  endfacet
  facet normal 0 0 1
    outer loop
      vertex 117.6 27.6 2.4
      vertex 126.6 36.6 2.4
      vertex 117.6 36.6 2.4
    endloop
  endfacet
  facet normal 0 -1 0
    outer loop
      vertex 117.6 27.6 0
      vertex 126.6 27.6 0
      vertex 126.6 27.6 2.4
    endloop
  endfacet
  facet normal 0 -1 0
    outer loop
      vertex 117.6 27.6 0
      vertex 126.6 27.6 2.4
      vertex 117.6 27.6 2.4
    endloop
  endfacet
  facet normal 1 0 0
    outer loop
      vertex 126.6 27.6 0
      vertex 126.6 36.6 0
      vertex 126.6 36.6 2.4
    endloop
  endfacet
  facet normal 1 0 0
    outer loop
      vertex 126.6 27.6 0
      vertex 126.6 36.6 2.4
      vertex 126.6 27.6 2.4
    endloop
  endfacet
  facet normal 0 1 0
    outer loop
      vertex 126.6 36.6 0
      vertex 117.6 36.6 0
      vertex 117.6 36.6 2.4
    endloop
  endfacet
  facet normal 0 1 -0
    outer loop
      vertex 126.6 36.6 0
      vertex 117.6 36.6 2.4
      vertex 126.6 36.6 2.4
    endloop
  endfacet
  facet normal -1 0 0
    outer loop
      vertex 117.6 36.6 0
      vertex 117.6 27.6 0
      vertex 117.6 27.6 2.4
    endloop
  endfacet
  facet normal -1 0 0
    outer loop
      vertex 117.6 36.6 0
      vertex 117.6 27.6 2.4
      vertex 117.6 36.6 2.4
    endloop
  endfacet
  facet normal 0 0 -1
    outer loop
      vertex 127.4 36.6 0
      vertex 136.4 36.6 0
      vertex 136.4 27.6 0
    endloop
  endfacet
  facet normal 0 0 -1
    outer loop
      vertex 127.4 36.6 0
      vertex 136.4 27.6 0
      vertex 127.4 27.6 0
    endloop
  endfacet
  facet normal 0 0 1
    outer loop
      vertex 127.4 27.6 2.4
      vertex 136.4 27.6 2.4
      vertex 136.4 36.6 2.4
    endloop
  endfacet
  facet normal 0 0 1
    outer loop
      vertex 127.4 27.6 2.4
      vertex 136.4 36.6 2.4
      vertex 127.4 36.6 2.4
    endloop
  endfacet
  facet normal 0 -1 0
    outer loop
      vertex 127.4 27.6 0
      vertex 136.4 27.6 0
      vertex 136.4 27.6 2.4
    endloop
  endfacet
  facet normal 0 -1 0
    outer loop
      vertex 127.4 27.6 0
      vertex 136.4 27.6 2.4
      vertex 127.4 27.6 2.4
    endloop
  endfacet
  facet normal 1 0 0
    outer loop
      vertex 136.4 27.6 0
      vertex 136.4 36.6 0
      vertex 136.4 36.6 2.4
    endloop
  endfacet
  facet normal 1 0 0
    outer loop
      vertex 136.4 27.6 0
      vertex 136.4 36.6 2.4
      vertex 136.4 27.6 2.4
    endloop
  endfacet
  facet normal 0 1 0
    outer loop
      vertex 136.4 36.6 0
      vertex 127.4 36.6 0
      vertex 127.4 36.6 2.4
    endloop
  endfacet
  facet normal 0 1 -0
    outer loop
      vertex 136.4 36.6 0
      vertex 127.4 36.6 2.4
      vertex 136.4 36.6 2.4
    endloop
  endfacet
  facet normal -1 0 0
    outer loop
      vertex 127.4 36.6 0
      vertex 127.4 27.6 0
      vertex 127.4 27.6 2.4
    endloop
  endfacet
  facet normal -1 0 0
    outer loop
      vertex 127.4 36.6 0
      vertex 127.4 27.6 2.4
      vertex 127.4 36.6 2.4
    endloop
  endfacet
  facet normal 0 0 -1
    outer loop
      vertex 137.2 36.6 0
      vertex 146.2 36.6 0
      vertex 146.2 27.6 0
    endloop
  endfacet
  facet normal 0 0 -1
    outer loop
      vertex 137.2 36.6 0
      vertex 146.2 27.6 0
      vertex 137.2 27.6 0
    endloop
  endfacet
  facet normal 0 0 1
    outer loop
      vertex 137.2 27.6 2.4
      vertex 146.2 27.6 2.4
      vertex 146.2 36.6 2.4
    endloop
  endfacet
  facet normal 0 0 1
    outer loop
      vertex 137.2 27.6 2.4
      vertex 146.2 36.6 2.4
      vertex 137.2 36.6 2.4
    endloop
  endfacet
  facet normal 0 -1 0
    outer loop
      vertex 137.2 27.6 0
      vertex 146.2 27.6 0
      vertex 146.2 27.6 2.4
    endloop
  endfacet
  facet normal 0 -1 0
    outer loop
      vertex 137.2 27.6 0
      vertex 146.2 27.6 2.4
      vertex 137.2 27.6 2.4
    endloop
  endfacet
  facet normal 1 0 0
    outer loop
      vertex 146.2 27.6 0
      vertex 146.2 36.6 0
      vertex 146.2 36.6 2.4
    endloop
  endfacet
  facet normal 1 0 0
    outer loop
      vertex 146.2 27.6 0
      vertex 146.2 36.6 2.4
      vertex 146.2 27.6 2.4
    endloop
  endfacet
  facet normal 0 1 0
    outer loop
      vertex 146.2 36.6 0
      vertex 137.2 36.6 0
      vertex 137.2 36.6 2.4
    endloop
  endfacet
  facet normal 0 1 -0
    outer loop
      vertex 146.2 36.6 0
      vertex 137.2 36.6 2.4
      vertex 146.2 36.6 2.4
    endloop
  endfacet
  facet normal -1 0 0
    outer loop
      vertex 137.2 36.6 0
      vertex 137.2 27.6 0
      vertex 137.2 27.6 2.4
    endloop
  endfacet
  facet normal -1 0 0
    outer loop
      vertex 137.2 36.6 0
      vertex 137.2 27.6 2.4
      vertex 137.2 36.6 2.4
    endloop
  endfacet
  facet normal 0 0 -1
    outer loop
      vertex 98 46.4 0
      vertex 107 46.4 0
      vertex 107 37.4 0
    endloop
  endfacet
  facet normal 0 0 -1
    outer loop
      vertex 98 46.4 0
      vertex 107 37.4 0
      vertex 98 37.4 0
    endloop
  endfacet
  facet normal 0 0 1
    outer loop
      vertex 98 37.4 2.4
      vertex 107 37.4 2.4
      vertex 107 46.4 2.4
    endloop
  endfacet
  facet normal 0 0 1
    outer loop
      vertex 98 37.4 2.4
      vertex 107 46.4 2.4
      vertex 98 46.4 2.4
    endloop
  endfacet
  facet normal 0 -1 0
    outer loop
      vertex 98 37.4 0
      vertex 107 37.4 0
      vertex 107 37.4 2.4
    endloop
  endfacet
  facet normal 0 -1 0
    outer loop
      vertex 98 37.4 0
      vertex 107 37.4 2.4
      vertex 98 37.4 2.4
    endloop
  endfacet
  facet normal 1 0 0
    outer loop
      vertex 107 37.4 0
      vertex 107 46.4 0
      vertex 107 46.4 2.4
    endloop
  endfacet
  facet normal 1 0 0
    outer loop
      vertex 107 37.4 0
      vertex 107 46.4 2.4
      vertex 107 37.4 2.4
    endloop
  endfacet
  facet normal 0 1 0
    outer loop
      vertex 107 46.4 0
      vertex 98 46.4 0
      vertex 98 46.4 2.4
    endloop
  endfacet
  facet normal 0 1 -0
    outer loop
      vertex 107 46.4 0
      vertex 98 46.4 2.4
      vertex 107 46.4 2.4
    endloop
  endfacet
  facet normal -1 0 0
    outer loop
      vertex 98 46.4 0
      vertex 98 37.4 0
      vertex 98 37.4 2.4
    endloop
  endfacet
  facet normal -1 0 0
    outer loop
      vertex 98 46.4 0
      vertex 98 37.4 2.4
      vertex 98 46.4 2.4
    endloop
  endfacet
  facet normal 0 0 -1
    outer loop
      vertex 107.8 46.4 0
      vertex 116.8 46.4 0
      vertex 116.8 37.4 0
    endloop
  endfacet
  facet normal 0 0 -1
    outer loop
      vertex 107.8 46.4 0
      vertex 116.8 37.4 0
      vertex 107.8 37.4 0
    endloop
  endfacet
  facet normal 0 0 1
    outer loop
      vertex 107.8 37.4 2.4
      vertex 116.8 37.4 2.4
      vertex 116.8 46.4 2.4
    endloop
  endfacet
  facet normal 0 0 1
    outer loop
      vertex 107.8 37.4 2.4
      vertex 116.8 46.4 2.4
      vertex 107.8 46.4 2.4
    endloop
  endfacet
  facet normal 0 -1 0
    outer loop
      vertex 107.8 37.4 0
      vertex 116.8 37.4 0
      vertex 116.8 37.4 2.4
    endloop
  endfacet
  facet normal 0 -1 0
    outer loop
      vertex 107.8 37.4 0
      vertex 116.8 37.4 2.4
      vertex 107.8 37.4 2.4
    endloop
  endfacet
  facet normal 1 0 0
    outer loop
      vertex 116.8 37.4 0
      vertex 116.8 46.4 0
      vertex 116.8 46.4 2.4
    endloop
  endfacet
  facet normal 1 0 0
    outer loop
      vertex 116.8 37.4 0
      vertex 116.8 46.4 2.4
      vertex 116.8 37.4 2.4
    endloop
  endfacet
  facet normal 0 1 0
    outer loop
      vertex 116.8 46.4 0
      vertex 107.8 46.4 0
      vertex 107.8 46.4 2.4
    endloop
  endfacet
  facet normal 0 1 -0
    outer loop
      vertex 116.8 46.4 0
      vertex 107.8 46.4 2.4
      vertex 116.8 46.4 2.4
    endloop
  endfacet
  facet normal -1 0 0
    outer loop
      vertex 107.8 46.4 0
      vertex 107.8 37.4 0
      vertex 107.8 37.4 2.4
    endloop
  endfacet
  facet normal -1 0 0
    outer loop
      vertex 107.8 46.4 0
      vertex 107.8 37.4 2.4
      vertex 107.8 46.4 2.4
    endloop
  endfacet
  facet normal 0 0 -1
    outer loop
      vertex 117.6 46.4 0
      vertex 126.6 46.4 0
      vertex 126.6 37.4 0
    endloop
  endfacet
  facet normal 0 0 -1
    outer loop
      vertex 117.6 46.4 0
      vertex 126.6 37.4 0
      vertex 117.6 37.4 0
    endloop
  endfacet
  facet normal 0 0 1
    outer loop
      vertex 117.6 37.4 2.4
      vertex 126.6 37.4 2.4
      vertex 126.6 46.4 2.4
    endloop
  endfacet
  facet normal 0 0 1
    outer loop
      vertex 117.6 37.4 2.4
      vertex 126.6 46.4 2.4
      vertex 117.6 46.4 2.4
    endloop
  endfacet
  facet normal 0 -1 0
    outer loop
      vertex 117.6 37.4 0
      vertex 126.6 37.4 0
      vertex 126.6 37.4 2.4
    endloop
  endfacet
  facet normal 0 -1 0
    outer loop
      vertex 117.6 37.4 0
      vertex 126.6 37.4 2.4
      vertex 117.6 37.4 2.4
    endloop
  endfacet
  facet normal 1 0 0
    outer loop
      vertex 126.6 37.4 0
      vertex 126.6 46.4 0
      vertex 126.6 46.4 2.4
    endloop
  endfacet
  facet normal 1 0 0
    outer loop
      vertex 126.6 37.4 0
      vertex 126.6 46.4 2.4
      vertex 126.6 37.4 2.4
    endloop
  endfacet
  facet normal 0 1 0
    outer loop
      vertex 126.6 46.4 0
      vertex 117.6 46.4 0
      vertex 117.6 46.4 2.4
    endloop
  endfacet
  facet normal 0 1 -0
    outer loop
      vertex 126.6 46.4 0
      vertex 117.6 46.4 2.4
      vertex 126.6 46.4 2.4
    endloop
  endfacet
  facet normal -1 0 0
    outer loop
      vertex 117.6 46.4 0
      vertex 117.6 37.4 0
      vertex 117.6 37.4 2.4
    endloop
  endfacet
  facet normal -1 0 0
    outer loop
      vertex 117.6 46.4 0
      vertex 117.6 37.4 2.4
      vertex 117.6 46.4 2.4
    endloop
  endfacet
  facet normal 0 0 -1
    outer loop
      vertex 127.4 46.4 0
      vertex 136.4 46.4 0
      vertex 136.4 37.4 0
    endloop
  endfacet
  facet normal 0 0 -1
    outer loop
      vertex 127.4 46.4 0
      vertex 136.4 37.4 0
      vertex 127.4 37.4 0
    endloop
  endfacet
  facet normal 0 0 1
    outer loop
      vertex 127.4 37.4 2.4
      vertex 136.4 37.4 2.4
      vertex 136.4 46.4 2.4
    endloop
  endfacet
  facet normal 0 0 1
    outer loop
      vertex 127.4 37.4 2.4
      vertex 136.4 46.4 2.4
      vertex 127.4 46.4 2.4
    endloop
  endfacet
  facet normal 0 -1 0
    outer loop
      vertex 127.4 37.4 0
      vertex 136.4 37.4 0
      vertex 136.4 37.4 2.4
    endloop
  endfacet
  facet normal 0 -1 0
    outer loop
      vertex 127.4 37.4 0
      vertex 136.4 37.4 2.4
      vertex 127.4 37.4 2.4
    endloop
  endfacet
  facet normal 1 0 0
    outer loop
      vertex 136.4 37.4 0
      vertex 136.4 46.4 0
      vertex 136.4 46.4 2.4
    endloop
  endfacet
  facet normal 1 0 0
    outer loop
      vertex 136.4 37.4 0
      vertex 136.4 46.4 2.4
      vertex 136.4 37.4 2.4
    endloop
  endfacet
  facet normal 0 1 0
    outer loop
      vertex 136.4 46.4 0
      vertex 127.4 46.4 0
      vertex 127.4 46.4 2.4
    endloop
  endfacet
  facet normal 0 1 -0
    outer loop
      vertex 136.4 46.4 0
      vertex 127.4 46.4 2.4
      vertex 136.4 46.4 2.4
    endloop
  endfacet
  facet normal -1 0 0
    outer loop
      vertex 127.4 46.4 0
      vertex 127.4 37.4 0
      vertex 127.4 37.4 2.4
    endloop
  endfacet
  facet normal -1 0 0
    outer loop
      vertex 127.4 46.4 0
      vertex 127.4 37.4 2.4
      vertex 127.4 46.4 2.4
    endloop
  endfacet
  facet normal 0 0 -1
    outer loop
      vertex 137.2 46.4 0
      vertex 146.2 46.4 0
      vertex 146.2 37.4 0
    endloop
  endfacet
  facet normal 0 0 -1
    outer loop
      vertex 137.2 46.4 0
      vertex 146.2 37.4 0
      vertex 137.2 37.4 0
    endloop
  endfacet
  facet normal 0 0 1
    outer loop
      vertex 137.2 37.4 2.4
      vertex 146.2 37.4 2.4
      vertex 146.2 46.4 2.4
    endloop
  endfacet
  facet normal 0 0 1
    outer loop
      vertex 137.2 37.4 2.4
      vertex 146.2 46.4 2.4
      vertex 137.2 46.4 2.4
    endloop
  endfacet
  facet normal 0 -1 0
    outer loop
      vertex 137.2 37.4 0
      vertex 146.2 37.4 0
      vertex 146.2 37.4 2.4
    endloop
  endfacet
  facet normal 0 -1 0
    outer loop
      vertex 137.2 37.4 0
      vertex 146.2 37.4 2.4
      vertex 137.2 37.4 2.4
    endloop
  endfacet
  facet normal 1 0 0
    outer loop
      vertex 146.2 37.4 0
      vertex 146.2 46.4 0
      vertex 146.2 46.4 2.4
    endloop
  endfacet
  facet normal 1 0 0
    outer loop
      vertex 146.2 37.4 0
      vertex 146.2 46.4 2.4
      vertex 146.2 37.4 2.4
    endloop
  endfacet
  facet normal 0 1 0
    outer loop
      vertex 146.2 46.4 0
      vertex 137.2 46.4 0
      vertex 137.2 46.4 2.4
    endloop
  endfacet
  facet normal 0 1 -0
    outer loop
      vertex 146.2 46.4 0
      vertex 137.2 46.4 2.4
      vertex 146.2 46.4 2.4
    endloop
  endfacet
  facet normal -1 0 0
    outer loop
      vertex 137.2 46.4 0
      vertex 137.2 37.4 0
      vertex 137.2 37.4 2.4
    endloop
  endfacet
  facet normal -1 0 0
    outer loop
      vertex 137.2 46.4 0
      vertex 137.2 37.4 2.4
      vertex 137.2 46.4 2.4
    endloop
  endfacet
  facet normal 0 0 -1
    outer loop
      vertex 98 56.2 0
      vertex 107 56.2 0
      vertex 107 47.2 0
    endloop
  endfacet
  facet normal 0 0 -1
    outer loop
      vertex 98 56.2 0
      vertex 107 47.2 0
      vertex 98 47.2 0
    endloop
  endfacet
  facet normal 0 0 1
    outer loop
      vertex 98 47.2 2.4
      vertex 107 47.2 2.4
      vertex 107 56.2 2.4
    endloop
  endfacet
  facet normal 0 0 1
    outer loop
      vertex 98 47.2 2.4
      vertex 107 56.2 2.4
      vertex 98 56.2 2.4
    endloop
  endfacet
  facet normal 0 -1 0
    outer loop
      vertex 98 47.2 0
      vertex 107 47.2 0
      vertex 107 47.2 2.4
    endloop
  endfacet
  facet normal 0 -1 0
    outer loop
      vertex 98 47.2 0
      vertex 107 47.2 2.4
      vertex 98 47.2 2.4
    endloop
  endfacet
  facet normal 1 0 0
    outer loop
      vertex 107 47.2 0
      vertex 107 56.2 0
      vertex 107 56.2 2.4
    endloop
  endfacet
  facet normal 1 0 0
    outer loop
      vertex 107 47.2 0
      vertex 107 56.2 2.4
      vertex 107 47.2 2.4
    endloop
  endfacet
  facet normal 0 1 0
    outer loop
      vertex 107 56.2 0
      vertex 98 56.2 0
      vertex 98 56.2 2.4
    endloop
  endfacet
  facet normal 0 1 -0
    outer loop
      vertex 107 56.2 0
      vertex 98 56.2 2.4
      vertex 107 56.2 2.4
    endloop
  endfacet
  facet normal -1 0 0
    outer loop
      vertex 98 56.2 0
      vertex 98 47.2 0
      vertex 98 47.2 2.4
    endloop
  endfacet
  facet normal -1 0 0
    outer loop
      vertex 98 56.2 0
      vertex 98 47.2 2.4
      vertex 98 56.2 2.4
    endloop
  endfacet
  facet normal 0 0 -1
    outer loop
      vertex 107.8 56.2 0
      vertex 116.8 56.2 0
      vertex 116.8 47.2 0
    endloop
  endfacet
  facet normal 0 0 -1
    outer loop
      vertex 107.8 56.2 0
      vertex 116.8 47.2 0
      vertex 107.8 47.2 0
    endloop
  endfacet
  facet normal 0 0 1
    outer loop
      vertex 107.8 47.2 2.4
      vertex 116.8 47.2 2.4
      vertex 116.8 56.2 2.4
    endloop
  endfacet
  facet normal 0 0 1
    outer loop
      vertex 107.8 47.2 2.4
      vertex 116.8 56.2 2.4
      vertex 107.8 56.2 2.4
    endloop
  endfacet
  facet normal 0 -1 0
    outer loop
      vertex 107.8 47.2 0
      vertex 116.8 47.2 0
      vertex 116.8 47.2 2.4
    endloop
  endfacet
  facet normal 0 -1 0
    outer loop
      vertex 107.8 47.2 0
      vertex 116.8 47.2 2.4
      vertex 107.8 47.2 2.4
    endloop
  endfacet
  facet normal 1 0 0
    outer loop
      vertex 116.8 47.2 0
      vertex 116.8 56.2 0
      vertex 116.8 56.2 2.4
    endloop
  endfacet
  facet normal 1 0 0
    outer loop
      vertex 116.8 47.2 0
      vertex 116.8 56.2 2.4
      vertex 116.8 47.2 2.4
    endloop
  endfacet
  facet normal 0 1 0
    outer loop
      vertex 116.8 56.2 0
      vertex 107.8 56.2 0
      vertex 107.8 56.2 2.4
    endloop
  endfacet
  facet normal 0 1 -0
    outer loop
      vertex 116.8 56.2 0
      vertex 107.8 56.2 2.4
      vertex 116.8 56.2 2.4
    endloop
  endfacet
  facet normal -1 0 0
    outer loop
      vertex 107.8 56.2 0
      vertex 107.8 47.2 0
      vertex 107.8 47.2 2.4
    endloop
  endfacet
  facet normal -1 0 0
    outer loop
      vertex 107.8 56.2 0
      vertex 107.8 47.2 2.4
      vertex 107.8 56.2 2.4
    endloop
  endfacet
  facet normal 0 0 -1
    outer loop
      vertex 117.6 56.2 0
      vertex 126.6 56.2 0
      vertex 126.6 47.2 0
    endloop
  endfacet
  facet normal 0 0 -1
    outer loop
      vertex 117.6 56.2 0
      vertex 126.6 47.2 0
      vertex 117.6 47.2 0
    endloop
  endfacet
  facet normal 0 0 1
    outer loop
      vertex 117.6 47.2 2.4
      vertex 126.6 47.2 2.4
      vertex 126.6 56.2 2.4
    endloop
  endfacet
  facet normal 0 0 1
    outer loop
      vertex 117.6 47.2 2.4
      vertex 126.6 56.2 2.4
      vertex 117.6 56.2 2.4
    endloop
  endfacet
  facet normal 0 -1 0
    outer loop
      vertex 117.6 47.2 0
      vertex 126.6 47.2 0
      vertex 126.6 47.2 2.4
    endloop
  endfacet
  facet normal 0 -1 0
    outer loop
      vertex 117.6 47.2 0
      vertex 126.6 47.2 2.4
      vertex 117.6 47.2 2.4
    endloop
  endfacet
  facet normal 1 0 0
    outer loop
      vertex 126.6 47.2 0
      vertex 126.6 56.2 0
      vertex 126.6 56.2 2.4
    endloop
  endfacet
  facet normal 1 0 0
    outer loop
      vertex 126.6 47.2 0
      vertex 126.6 56.2 2.4
      vertex 126.6 47.2 2.4
    endloop
  endfacet
  facet normal 0 1 0
    outer loop
      vertex 126.6 56.2 0
      vertex 117.6 56.2 0
      vertex 117.6 56.2 2.4
    endloop
  endfacet
  facet normal 0 1 -0
    outer loop
      vertex 126.6 56.2 0
      vertex 117.6 56.2 2.4
      vertex 126.6 56.2 2.4
    endloop
  endfacet
  facet normal -1 0 0
    outer loop
      vertex 117.6 56.2 0
      vertex 117.6 47.2 0
      vertex 117.6 47.2 2.4
    endloop
  endfacet
  facet normal -1 0 0
    outer loop
      vertex 117.6 56.2 0
      vertex 117.6 47.2 2.4
      vertex 117.6 56.2 2.4
    endloop
  endfacet
  facet normal 0 0 -1
    outer loop
      vertex 127.4 56.2 0
      vertex 136.4 56.2 0
      vertex 136.4 47.2 0
    endloop
  endfacet
  facet normal 0 0 -1
    outer loop
      vertex 127.4 56.2 0
      vertex 136.4 47.2 0
      vertex 127.4 47.2 0
    endloop
  endfacet
  facet normal 0 0 1
    outer loop
      vertex 127.4 47.2 2.4
      vertex 136.4 47.2 2.4
      vertex 136.4 56.2 2.4
    endloop
  endfacet
  facet normal 0 0 1
    outer loop
      vertex 127.4 47.2 2.4
      vertex 136.4 56.2 2.4
      vertex 127.4 56.2 2.4
    endloop
  endfacet
  facet normal 0 -1 0
    outer loop
      vertex 127.4 47.2 0
      vertex 136.4 47.2 0
      vertex 136.4 47.2 2.4
    endloop
  endfacet
  facet normal 0 -1 0
    outer loop
      vertex 127.4 47.2 0
      vertex 136.4 47.2 2.4
      vertex 127.4 47.2 2.4
    endloop
  endfacet
  facet normal 1 0 0
    outer loop
      vertex 136.4 47.2 0
      vertex 136.4 56.2 0
      vertex 136.4 56.2 2.4
    endloop
  endfacet
  facet normal 1 0 0
    outer loop
      vertex 136.4 47.2 0
      vertex 136.4 56.2 2.4
      vertex 136.4 47.2 2.4
    endloop
  endfacet
  facet normal 0 1 0
    outer loop
      vertex 136.4 56.2 0
      vertex 127.4 56.2 0
      vertex 127.4 56.2 2.4
    endloop
  endfacet
  facet normal 0 1 -0
    outer loop
      vertex 136.4 56.2 0
      vertex 127.4 56.2 2.4
      vertex 136.4 56.2 2.4
    endloop
  endfacet
  facet normal -1 0 0
    outer loop
      vertex 127.4 56.2 0
      vertex 127.4 47.2 0
      vertex 127.4 47.2 2.4
    endloop
  endfacet
  facet normal -1 0 0
    outer loop
      vertex 127.4 56.2 0
      vertex 127.4 47.2 2.4
      vertex 127.4 56.2 2.4
    endloop
  endfacet
  facet normal 0 0 -1
    outer loop
      vertex 137.2 56.2 0
      vertex 146.2 56.2 0
      vertex 146.2 47.2 0
    endloop
  endfacet
  facet normal 0 0 -1
    outer loop
      vertex 137.2 56.2 0
      vertex 146.2 47.2 0
      vertex 137.2 47.2 0
    endloop
  endfacet
  facet normal 0 0 1
    outer loop
      vertex 137.2 47.2 2.4
      vertex 146.2 47.2 2.4
      vertex 146.2 56.2 2.4
    endloop
  endfacet
  facet normal 0 0 1
    outer loop
      vertex 137.2 47.2 2.4
      vertex 146.2 56.2 2.4
      vertex 137.2 56.2 2.4
    endloop
  endfacet
  facet normal 0 -1 0
    outer loop
      vertex 137.2 47.2 0
      vertex 146.2 47.2 0
      vertex 146.2 47.2 2.4
    endloop
  endfacet
  facet normal 0 -1 0
    outer loop
      vertex 137.2 47.2 0
      vertex 146.2 47.2 2.4
      vertex 137.2 47.2 2.4
    endloop
  endfacet
  facet normal 1 0 0
    outer loop
      vertex 146.2 47.2 0
      vertex 146.2 56.2 0
      vertex 146.2 56.2 2.4
    endloop
  endfacet
  facet normal 1 0 0
    outer loop
      vertex 146.2 47.2 0
      vertex 146.2 56.2 2.4
      vertex 146.2 47.2 2.4
    endloop
  endfacet
  facet normal 0 1 0
    outer loop
      vertex 146.2 56.2 0
      vertex 137.2 56.2 0
      vertex 137.2 56.2 2.4
    endloop
  endfacet
  facet normal 0 1 -0
    outer loop
      vertex 146.2 56.2 0
      vertex 137.2 56.2 2.4
      vertex 146.2 56.2 2.4
    endloop
  endfacet
  facet normal -1 0 0
    outer loop
      vertex 137.2 56.2 0
      vertex 137.2 47.2 0
      vertex 137.2 47.2 2.4
    endloop
  endfacet
  facet normal -1 0 0
    outer loop
      vertex 137.2 56.2 0
      vertex 137.2 47.2 2.4
      vertex 137.2 56.2 2.4
    endloop
  endfacet
endsolid stage_06_reuse_material
