solid inner_stepped_mound_layer_02
  facet normal 0 -1 0
    outer loop
      vertex -48.96316 -48.96316 5.925
      vertex 48.96316 -48.96316 5.925
      vertex 48.96316 -48.96316 11.85
    endloop
  endfacet
  facet normal 0 -1 0
    outer loop
      vertex -48.96316 -48.96316 5.925
      vertex 48.96316 -48.96316 11.85
      vertex -48.96316 -48.96316 11.85
    endloop
  endfacet
  facet normal 1 0 0
    outer loop
      vertex 48.96316 -48.96316 5.925
      vertex 48.96316 48.96316 5.925
      vertex 48.96316 48.96316 11.85
    endloop
  endfacet
  facet normal 1 0 0
    outer loop
      vertex 48.96316 -48.96316 5.925
      vertex 48.96316 48.96316 11.85
      vertex 48.96316 -48.96316 11.85
    endloop
  endfacet
  facet normal 0 1 0
    outer loop
      vertex 48.96316 48.96316 5.925
      vertex -48.96316 48.96316 5.925
      vertex -48.96316 48.96316 11.85
    endloop
  endfacet
  facet normal 0 1 -0
    outer loop
      vertex 48.96316 48.96316 5.925
      vertex -48.96316 48.96316 11.85
      vertex 48.96316 48.96316 11.85
    endloop
  endfacet
  facet normal -1 0 0
    outer loop
      vertex -48.96316 48.96316 5.925
      vertex -48.96316 -48.96316 5.925
      vertex -48.96316 -48.96316 11.85
    endloop
  endfacet
  facet normal -1 0 0
    outer loop
      vertex -48.96316 48.96316 5.925
      vertex -48.96316 -48.96316 11.85
      vertex -48.96316 48.96316 11.85
    endloop
  endfacet
  facet normal 0 0 1
    outer loop
      vertex -48.96316 -48.96316 11.85
      vertex 48.96316 -48.96316 11.85
      vertex 48.96316 -45.92633 11.85
    endloop
  endfacet
  facet normal 0 0 1
    outer loop
      vertex -48.96316 -48.96316 11.85
      vertex 48.96316 -45.92633 11.85
      vertex -48.96316 -45.92633 11.85
    endloop
  endfacet
  facet normal 0 0 1
    outer loop
      vertex 45.92633 -45.92633 11.85
      vertex 48.96316 -45.92633 11.85
      vertex 48.96316 45.92633 11.85
    endloop
  endfacet
  facet normal 0 0 1
    outer loop
      vertex 45.92633 -45.92633 11.85
      vertex 48.96316 45.92633 11.85
      vertex 45.92633 45.92633 11.85
    endloop
  endfacet
  facet normal 0 0 1
    outer loop
      vertex -48.96316 45.92633 11.85
      vertex 48.96316 45.92633 11.85
      vertex 48.96316 48.96316 11.85
    endloop
  endfacet
  facet normal 0 0 1
    outer loop
      vertex -48.96316 45.92633 11.85
      vertex 48.96316 48.96316 11.85
      vertex -48.96316 48.96316 11.85
    endloop
  endfacet
  facet normal 0 0 1
    outer loop
      vertex -48.96316 -45.92633 11.85
      vertex -45.92633 -45.92633 11.85
      vertex -45.92633 45.92633 11.85
    endloop
  endfacet
  facet normal 0 0 1
    outer loop
      vertex -48.96316 -45.92633 11.85
      vertex -45.92633 45.92633 11.85
      vertex -48.96316 45.92633 11.85
    endloop
  endfacet
endsolid inner_stepped_mound_layer_02
