solid inner_stepped_mound_layer_08
  facet normal 0 0 -1
    outer loop
      vertex -30.74214 30.74214 41.475
      vertex 30.74214 30.74214 41.475
      vertex 30.74214 -30.74214 41.475
    endloop
  endfacet
  facet normal 0 0 -1
    outer loop
      vertex -30.74214 30.74214 41.475
      vertex 30.74214 -30.74214 41.475
      vertex -30.74214 -30.74214 41.475
    endloop
  endfacet
  facet normal 0 0 1
    outer loop
      vertex -30.74214 -30.74214 47.4
      vertex 30.74214 -30.74214 47.4
      vertex 30.74214 30.74214 47.4
    endloop
  endfacet
  facet normal 0 0 1
    outer loop
      vertex -30.74214 -30.74214 47.4
      vertex 30.74214 30.74214 47.4
      vertex -30.74214 30.74214 47.4
    endloop
  endfacet
  facet normal 0 -1 0
    outer loop
      vertex -30.74214 -30.74214 41.475
      vertex 30.74214 -30.74214 41.475
      vertex 30.74214 -30.74214 47.4
    endloop
  endfacet
  facet normal 0 -1 0
    outer loop
      vertex -30.74214 -30.74214 41.475
      vertex 30.74214 -30.74214 47.4
      vertex -30.74214 -30.74214 47.4
    endloop
  endfacet
  facet normal 1 0 0
    outer loop
      vertex 30.74214 -30.74214 41.475
      vertex 30.74214 30.74214 41.475
      vertex 30.74214 30.74214 47.4
    endloop
  endfacet
  facet normal 1 0 0
    outer loop
      vertex 30.74214 -30.74214 41.475
      vertex 30.74214 30.74214 47.4
      vertex 30.74214 -30.74214 47.4
    endloop
  endfacet
  facet normal 0 1 0
    outer loop
      vertex 30.74214 30.74214 41.475
      vertex -30.74214 30.74214 41.475
      vertex -30.74214 30.74214 47.4
    endloop
  endfacet
  facet normal 0 1 -0
    outer loop
      vertex 30.74214 30.74214 41.475
      vertex -30.74214 30.74214 47.4
      vertex 30.74214 30.74214 47.4
    endloop
  endfacet
  facet normal -1 0 0
    outer loop
      vertex -30.74214 30.74214 41.475
      vertex -30.74214 -30.74214 41.475
      vertex -30.74214 -30.74214 47.4
    endloop
  endfacet
  facet normal -1 0 0
    outer loop
      vertex -30.74214 30.74214 41.475
      vertex -30.74214 -30.74214 47.4
      vertex -30.74214 30.74214 47.4
    endloop
  endfacet
endsolid inner_stepped_mound_layer_08
