solid inner_stepped_mound_layer_13
  facet normal 0 -1 0
    outer loop
      vertex -15.55796 -15.55796 71.1
      vertex 15.55796 -15.55796 71.1
      vertex 15.55796 -15.55796 77.025
    endloop
  endfacet
  facet normal 0 -1 0
    outer loop
      vertex -15.55796 -15.55796 71.1
      vertex 15.55796 -15.55796 77.025
      vertex -15.55796 -15.55796 77.025
    endloop
  endfacet
  facet normal 1 0 0
    outer loop
      vertex 15.55796 -15.55796 71.1
      vertex 15.55796 15.55796 71.1
      vertex 15.55796 15.55796 77.025
    endloop
  endfacet
  facet normal 1 0 0
    outer loop
      vertex 15.55796 -15.55796 71.1
      vertex 15.55796 15.55796 77.025
      vertex 15.55796 -15.55796 77.025
    endloop
  endfacet
  facet normal 0 1 0
    outer loop
      vertex 15.55796 15.55796 71.1
      vertex -15.55796 15.55796 71.1
      vertex -15.55796 15.55796 77.025
    endloop
  endfacet
  facet normal 0 1 -0
    outer loop
      vertex 15.55796 15.55796 71.1
      vertex -15.55796 15.55796 77.025
      vertex 15.55796 15.55796 77.025
    endloop
  endfacet
  facet normal -1 0 0
    outer loop
      vertex -15.55796 15.55796 71.1
      vertex -15.55796 -15.55796 71.1
      vertex -15.55796 -15.55796 77.025
    endloop
  endfacet
  facet normal -1 0 0
    outer loop
      vertex -15.55796 15.55796 71.1
      vertex -15.55796 -15.55796 77.025
      vertex -15.55796 15.55796 77.025
    endloop
  endfacet
  facet normal 0 0 1
    outer loop
      vertex -15.55796 -15.55796 77.025
      vertex 15.55796 -15.55796 77.025
      vertex 15.55796 -12.52112 77.025
    endloop
  endfacet
  facet normal 0 0 1
    outer loop
      vertex -15.55796 -15.55796 77.025
      vertex 15.55796 -12.52112 77.025
      vertex -15.55796 -12.52112 77.025
    endloop
  endfacet
  facet normal 0 0 1
    outer loop
      vertex 12.52112 -12.52112 77.025
      vertex 15.55796 -12.52112 77.025
      vertex 15.55796 12.52112 77.025
    endloop
  endfacet
  facet normal 0 0 1
    outer loop
      vertex 12.52112 -12.52112 77.025
      vertex 15.55796 12.52112 77.025
      vertex 12.52112 12.52112 77.025
    endloop
  endfacet
  facet normal 0 0 1
    outer loop
      vertex -15.55796 12.52112 77.025
      vertex 15.55796 12.52112 77.025
      vertex 15.55796 15.55796 77.025
    endloop
  endfacet
  facet normal 0 0 1
    outer loop
      vertex -15.55796 12.52112 77.025
      vertex 15.55796 15.55796 77.025
      vertex -15.55796 15.55796 77.025
    endloop
  endfacet
  facet normal 0 0 1
    outer loop
      vertex -15.55796 -12.52112 77.025
      vertex -12.52112 -12.52112 77.025
      vertex -12.52112 12.52112 77.025
    endloop
  endfacet
  facet normal 0 0 1
    outer loop
      vertex -15.55796 -12.52112 77.025
      vertex -12.52112 12.52112 77.025
      vertex -15.55796 12.52112 77.025
    endloop
  endfacet
endsolid inner_stepped_mound_layer_13
