solid inner_stepped_mound_layer_06
  facet normal 0 -1 0
    outer loop
      vertex -36.81582 -36.81582 29.625
      vertex 36.81582 -36.81582 29.625
      vertex 36.81582 -36.81582 35.55
    endloop
  endfacet
  facet normal 0 -1 0
    outer loop
      vertex -36.81582 -36.81582 29.625
      vertex 36.81582 -36.81582 35.55
      vertex -36.81582 -36.81582 35.55
    endloop
  endfacet
  facet normal 1 0 0
    outer loop
      vertex 36.81582 -36.81582 29.625
      vertex 36.81582 36.81582 29.625
      vertex 36.81582 36.81582 35.55
    endloop
  endfacet
  facet normal 1 0 0
    outer loop
      vertex 36.81582 -36.81582 29.625
      vertex 36.81582 36.81582 35.55
      vertex 36.81582 -36.81582 35.55
    endloop
  endfacet
  facet normal 0 1 0
    outer loop
      vertex 36.81582 36.81582 29.625
      vertex -36.81582 36.81582 29.625
      vertex -36.81582 36.81582 35.55
    endloop
  endfacet
  facet normal 0 1 -0
    outer loop
      vertex 36.81582 36.81582 29.625
      vertex -36.81582 36.81582 35.55
      vertex 36.81582 36.81582 35.55
    endloop
  endfacet
  facet normal -1 0 0
    outer loop
      vertex -36.81582 36.81582 29.625
      vertex -36.81582 -36.81582 29.625
      vertex -36.81582 -36.81582 35.55
    endloop
  endfacet
  facet normal -1 0 0
    outer loop
      vertex -36.81582 36.81582 29.625
      vertex -36.81582 -36.81582 35.55
      vertex -36.81582 36.81582 35.55
    endloop
  endfacet
  facet normal 0 0 1
    outer loop
      vertex -36.81582 -36.81582 35.55
      vertex 36.81582 -36.81582 35.55
      vertex 36.81582 -33.77898 35.55
    endloop
  endfacet
  facet normal 0 0 1
    outer loop
      vertex -36.81582 -36.81582 35.55
      vertex 36.81582 -33.77898 35.55
      vertex -36.81582 -33.77898 35.55
    endloop
  endfacet
  facet normal 0 0 1
    outer loop
      vertex 33.77898 -33.77898 35.55
      vertex 36.81582 -33.77898 35.55
      vertex 36.81582 33.77898 35.55
    endloop
  endfacet
  facet normal 0 0 1
    outer loop
      vertex 33.77898 -33.77898 35.55
      vertex 36.81582 33.77898 35.55
      vertex 33.77898 33.77898 35.55
    endloop
  endfacet
  facet normal 0 0 1
    outer loop
      vertex -36.81582 33.77898 35.55
      vertex 36.81582 33.77898 35.55
      vertex 36.81582 36.81582 35.55
    endloop
  endfacet
  facet normal 0 0 1
    outer loop
      vertex -36.81582 33.77898 35.55
      vertex 36.81582 36.81582 35.55
      vertex -36.81582 36.81582 35.55
    endloop
  endfacet
  facet normal 0 0 1
    outer loop
      vertex -36.81582 -33.77898 35.55
      vertex -33.77898 -33.77898 35.55
      vertex -33.77898 33.77898 35.55
    endloop
  endfacet
  facet normal 0 0 1
    outer loop
      vertex -36.81582 -33.77898 35.55
      vertex -33.77898 33.77898 35.55
      vertex -36.81582 33.77898 35.55
    endloop
  endfacet
endsolid inner_stepped_mound_layer_06
