solid temporary_switchback_ramp_layer_16
  facet normal 0 0 -1
    outer loop
      vertex -62.72809 62.72809 82.95
      vertex 62.72809 62.72809 82.95
      vertex 62.72809 47.05619 82.95
    endloop
  endfacet
  facet normal 0 0 -1
    outer loop
      vertex -62.72809 62.72809 82.95
      vertex 62.72809 47.05619 82.95
      vertex -62.72809 47.05619 82.95
    endloop
  endfacet
  facet normal 0 0 1
    outer loop
      vertex -62.72809 47.05619 88.875
      vertex 62.72809 47.05619 88.875
      vertex 62.72809 62.72809 88.875
    endloop
  endfacet
  facet normal 0 0 1
    outer loop
      vertex -62.72809 47.05619 88.875
      vertex 62.72809 62.72809 88.875
      vertex -62.72809 62.72809 88.875
    endloop
  endfacet
  facet normal 0 -1 0
    outer loop
      vertex -62.72809 47.05619 82.95
      vertex 62.72809 47.05619 82.95
      vertex 62.72809 47.05619 88.875
    endloop
  endfacet
  facet normal 0 -1 0
    outer loop
      vertex -62.72809 47.05619 82.95
      vertex 62.72809 47.05619 88.875
      vertex -62.72809 47.05619 88.875
    endloop
  endfacet
  facet normal 1 0 0
    outer loop
      vertex 62.72809 47.05619 82.95
      vertex 62.72809 62.72809 82.95
      vertex 62.72809 62.72809 88.875
    endloop
  endfacet
  facet normal 1 0 0
    outer loop
      vertex 62.72809 47.05619 82.95
      vertex 62.72809 62.72809 88.875
      vertex 62.72809 47.05619 88.875
    endloop
  endfacet
  facet normal 0 1 0
    outer loop
      vertex 62.72809 62.72809 82.95
      vertex -62.72809 62.72809 82.95
      vertex -62.72809 62.72809 88.875
    endloop
  endfacet
  facet normal 0 1 -0
    outer loop
      vertex 62.72809 62.72809 82.95
      vertex -62.72809 62.72809 88.875
      vertex 62.72809 62.72809 88.875
    endloop
  endfacet
  facet normal -1 0 0
    outer loop
      vertex -62.72809 62.72809 82.95
      vertex -62.72809 47.05619 82.95
      vertex -62.72809 47.05619 88.875
    endloop
  endfacet
  facet normal -1 0 0
    outer loop
      vertex -62.72809 62.72809 82.95
      vertex -62.72809 47.05619 88.875
      vertex -62.72809 62.72809 88.875
    endloop
  endfacet
  facet normal 0 -0 -1
    outer loop
      vertex 62.72809 62.72809 82.95
      vertex 62.72809 -62.72809 82.95
      vertex 47.05619 -62.72809 82.95
    endloop
  endfacet
  facet normal -0 0 -1
    outer loop
      vertex 62.72809 62.72809 82.95
      vertex 47.05619 -62.72809 82.95
      vertex 47.05619 62.72809 82.95
    endloop
  endfacet
  facet normal 0 0 1
    outer loop
      vertex 47.05619 62.72809 88.875
      vertex 47.05619 -62.72809 88.875
      vertex 62.72809 -62.72809 88.875
    endloop
  endfacet
  facet normal -0 0 1
    outer loop
      vertex 47.05619 62.72809 88.875
      vertex 62.72809 -62.72809 88.875
      vertex 62.72809 62.72809 88.875
    endloop
  endfacet
  facet normal -1 0 0
    outer loop
      vertex 47.05619 62.72809 82.95
      vertex 47.05619 -62.72809 82.95
      vertex 47.05619 -62.72809 88.875
    endloop
  endfacet
  facet normal -1 0 0
    outer loop
      vertex 47.05619 62.72809 82.95
      vertex 47.05619 -62.72809 88.875
      vertex 47.05619 62.72809 88.875
    endloop
  endfacet
  facet normal 0 -1 0
    outer loop
      vertex 47.05619 -62.72809 82.95
      vertex 62.72809 -62.72809 82.95
      vertex 62.72809 -62.72809 88.875
    endloop
  endfacet
  facet normal 0 -1 0
    outer loop
      vertex 47.05619 -62.72809 82.95
      vertex 62.72809 -62.72809 88.875
      vertex 47.05619 -62.72809 88.875
    endloop
  endfacet
  facet normal 1 0 0
    outer loop
      vertex 62.72809 -62.72809 82.95
      vertex 62.72809 62.72809 82.95
      vertex 62.72809 62.72809 88.875
    endloop
  endfacet
  facet normal 1 0 0
    outer loop
      vertex 62.72809 -62.72809 82.95
      vertex 62.72809 62.72809 88.875
      vertex 62.72809 -62.72809 88.875
    endloop
  endfacet
  facet normal 0 1 0
    outer loop
      vertex 62.72809 62.72809 82.95
      vertex 47.05619 62.72809 82.95
      vertex 47.05619 62.72809 88.875
    endloop
  endfacet
  facet normal 0 1 -0
    outer loop
      vertex 62.72809 62.72809 82.95
      vertex 47.05619 62.72809 88.875
      vertex 62.72809 62.72809 88.875
    endloop
  endfacet
  facet normal 0 0 -1
    outer loop
      vertex 62.72809 -62.72809 82.95
      vertex -62.72809 -62.72809 82.95
      vertex -62.72809 -47.05619 82.95
    endloop
  endfacet
  facet normal 0 0 -1
    outer loop
      vertex 62.72809 -62.72809 82.95
      vertex -62.72809 -47.05619 82.95
      vertex 62.72809 -47.05619 82.95
    endloop
  endfacet
  facet normal 0 0 1
    outer loop
      vertex 62.72809 -47.05619 88.875
      vertex -62.72809 -47.05619 88.875
      vertex -62.72809 -62.72809 88.875
    endloop
  endfacet
  facet normal 0 0 1
    outer loop
      vertex 62.72809 -47.05619 88.875
      vertex -62.72809 -62.72809 88.875
      vertex 62.72809 -62.72809 88.875
    endloop
  endfacet
  facet normal 0 1 0
    outer loop
      vertex 62.72809 -47.05619 82.95
      vertex -62.72809 -47.05619 82.95
      vertex -62.72809 -47.05619 88.875
    endloop
  endfacet
  facet normal 0 1 -0
    outer loop
      vertex 62.72809 -47.05619 82.95
      vertex -62.72809 -47.05619 88.875
      vertex 62.72809 -47.05619 88.875
    endloop
  endfacet
  facet normal -1 0 0
    outer loop
      vertex -62.72809 -47.05619 82.95
      vertex -62.72809 -62.72809 82.95
      vertex -62.72809 -62.72809 88.875
    endloop
  endfacet
  facet normal -1 0 0
    outer loop
      vertex -62.72809 -47.05619 82.95
      vertex -62.72809 -62.72809 88.875
      vertex -62.72809 -47.05619 88.875
    endloop
  endfacet
  facet normal 0 -1 0
    outer loop
      vertex -62.72809 -62.72809 82.95
      vertex 62.72809 -62.72809 82.95
      vertex 62.72809 -62.72809 88.875
    endloop
  endfacet
  facet normal 0 -1 0
    outer loop
      vertex -62.72809 -62.72809 82.95
      vertex 62.72809 -62.72809 88.875
      vertex -62.72809 -62.72809 88.875
    endloop
  endfacet
  facet normal 1 0 0
    outer loop
      vertex 62.72809 -62.72809 82.95
      vertex 62.72809 -47.05619 82.95
      vertex 62.72809 -47.05619 88.875
    endloop
  endfacet
  facet normal 1 0 0
    outer loop
      vertex 62.72809 -62.72809 82.95
      vertex 62.72809 -47.05619 88.875
      vertex 62.72809 -62.72809 88.875
    endloop
  endfacet
  facet normal 0 0 -1
    outer loop
      vertex -62.72809 -62.72809 82.95
      vertex -62.72809 62.72809 82.95
      vertex -47.05619 62.72809 82.95
    endloop
  endfacet
  facet normal 0 0 -1
    outer loop
      vertex -62.72809 -62.72809 82.95
      vertex -47.05619 62.72809 82.95
      vertex -47.05619 -62.72809 82.95
    endloop
  endfacet
  facet normal 0 -0 1
    outer loop
      vertex -47.05619 -62.72809 88.875
      vertex -47.05619 62.72809 88.875
      vertex -62.72809 62.72809 88.875
    endloop
  endfacet
  facet normal 0 0 1
    outer loop
      vertex -47.05619 -62.72809 88.875
      vertex -62.72809 62.72809 88.875
      vertex -62.72809 -62.72809 88.875
    endloop
  endfacet
  facet normal 1 0 0
    outer loop
      vertex -47.05619 -62.72809 82.95
      vertex -47.05619 62.72809 82.95
      vertex -47.05619 62.72809 88.875
    endloop
  endfacet
  facet normal 1 0 0
    outer loop
      vertex -47.05619 -62.72809 82.95
      vertex -47.05619 62.72809 88.875
      vertex -47.05619 -62.72809 88.875
    endloop
  endfacet
  facet normal 0 1 0
    outer loop
      vertex -47.05619 62.72809 82.95
      vertex -62.72809 62.72809 82.95
      vertex -62.72809 62.72809 88.875
    endloop
  endfacet
  facet normal 0 1 -0
    outer loop
      vertex -47.05619 62.72809 82.95
      vertex -62.72809 62.72809 88.875
      vertex -47.05619 62.72809 88.875
    endloop
  endfacet
  facet normal -1 0 0
    outer loop
      vertex -62.72809 62.72809 82.95
      vertex -62.72809 -62.72809 82.95
      vertex -62.72809 -62.72809 88.875
    endloop
  endfacet
  facet normal -1 0 0
    outer loop
      vertex -62.72809 62.72809 82.95
      vertex -62.72809 -62.72809 88.875
      vertex -62.72809 62.72809 88.875
    endloop
  endfacet
  facet normal 0 -1 0
    outer loop
      vertex -62.72809 -62.72809 82.95
      vertex -47.05619 -62.72809 82.95
      vertex -47.05619 -62.72809 88.875
    endloop
  endfacet
  facet normal 0 -1 0
    outer loop
      vertex -62.72809 -62.72809 82.95
      vertex -47.05619 -62.72809 88.875
      vertex -62.72809 -62.72809 88.875
    endloop
  endfacet
  facet normal 0 0 1
    outer loop
      vertex 44.72809 62.72809 88.875
      vertex 44.72809 44.72809 88.875
      vertex 62.72809 44.72809 88.875
    endloop
  endfacet
  facet normal 0 0 -1
    outer loop
      vertex 62.72809 44.72809 82.95
      vertex 44.72809 44.72809 82.95
      vertex 44.72809 62.72809 82.95
    endloop
  endfacet
  facet normal 0 -0 1
    outer loop
      vertex 62.72809 44.72809 88.875
      vertex 62.72809 56.42809 88.875
      vertex 56.42809 56.42809 88.875
    endloop
  endfacet
  facet normal 0 0 -1
    outer loop
      vertex 56.42809 56.42809 82.95
      vertex 62.72809 56.42809 82.95
      vertex 62.72809 44.72809 82.95
    endloop
  endfacet
  facet normal 0 0 1
    outer loop
      vertex 44.72809 62.72809 88.875
      vertex 62.72809 44.72809 88.875
      vertex 56.42809 56.42809 88.875
    endloop
  endfacet
  facet normal -0 -0 -1
    outer loop
      vertex 56.42809 56.42809 82.95
      vertex 62.72809 44.72809 82.95
      vertex 44.72809 62.72809 82.95
    endloop
  endfacet
  facet normal 0 -0 1
    outer loop
      vertex 56.42809 56.42809 88.875
      vertex 56.42809 62.72809 88.875
      vertex 44.72809 62.72809 88.875
    endloop
  endfacet
  facet normal 0 0 -1
    outer loop
      vertex 44.72809 62.72809 82.95
      vertex 56.42809 62.72809 82.95
      vertex 56.42809 56.42809 82.95
    endloop
  endfacet
  facet normal 0 -1 0
    outer loop
      vertex 44.72809 44.72809 82.95
      vertex 62.72809 44.72809 82.95
      vertex 62.72809 44.72809 88.875
    endloop
  endfacet
  facet normal 0 -1 0
    outer loop
      vertex 44.72809 44.72809 82.95
      vertex 62.72809 44.72809 88.875
      vertex 44.72809 44.72809 88.875
    endloop
  endfacet
  facet normal 1 0 0
    outer loop
      vertex 62.72809 44.72809 82.95
      vertex 62.72809 56.42809 82.95
      vertex 62.72809 56.42809 88.875
    endloop
  endfacet
  facet normal 1 0 0
    outer loop
      vertex 62.72809 44.72809 82.95
      vertex 62.72809 56.42809 88.875
      vertex 62.72809 44.72809 88.875
    endloop
  endfacet
  facet normal 0 1 0
    outer loop
      vertex 62.72809 56.42809 82.95
      vertex 56.42809 56.42809 82.95
      vertex 56.42809 56.42809 88.875
    endloop
  endfacet
  facet normal 0 1 -0
    outer loop
      vertex 62.72809 56.42809 82.95
      vertex 56.42809 56.42809 88.875
      vertex 62.72809 56.42809 88.875
    endloop
  endfacet
  facet normal 1 0 0
    outer loop
      vertex 56.42809 56.42809 82.95
      vertex 56.42809 62.72809 82.95
      vertex 56.42809 62.72809 88.875
    endloop
  endfacet
  facet normal 1 0 0
    outer loop
      vertex 56.42809 56.42809 82.95
      vertex 56.42809 62.72809 88.875
      vertex 56.42809 56.42809 88.875
    endloop
  endfacet
  facet normal 0 1 0
    outer loop
      vertex 56.42809 62.72809 82.95
      vertex 44.72809 62.72809 82.95
      vertex 44.72809 62.72809 88.875
    endloop
  endfacet
  facet normal 0 1 -0
    outer loop
      vertex 56.42809 62.72809 82.95
      vertex 44.72809 62.72809 88.875
      vertex 56.42809 62.72809 88.875
    endloop
  endfacet
  facet normal -1 0 0
    outer loop
      vertex 44.72809 62.72809 82.95
      vertex 44.72809 44.72809 82.95
      vertex 44.72809 44.72809 88.875
    endloop
  endfacet
  facet normal -1 0 0
    outer loop
      vertex 44.72809 62.72809 82.95
      vertex 44.72809 44.72809 88.875
      vertex 44.72809 62.72809 88.875
    endloop
  endfacet
  facet normal 0 0 1
    outer loop
      vertex 44.72809 -44.72809 88.875
      vertex 44.72809 -62.72809 88.875
      vertex 56.42809 -62.72809 88.875
    endloop
  endfacet
  facet normal 0 0 -1
    outer loop
      vertex 56.42809 -62.72809 82.95
      vertex 44.72809 -62.72809 82.95
      vertex 44.72809 -44.72809 82.95
    endloop
  endfacet
  facet normal 0 0 1
    outer loop
      vertex 44.72809 -44.72809 88.875
      vertex 56.42809 -62.72809 88.875
      vertex 56.42809 -56.42809 88.875
    endloop
  endfacet
  facet normal -0 -0 -1
    outer loop
      vertex 56.42809 -56.42809 82.95
      vertex 56.42809 -62.72809 82.95
      vertex 44.72809 -44.72809 82.95
    endloop
  endfacet
  facet normal 0 0 1
    outer loop
      vertex 44.72809 -44.72809 88.875
      vertex 56.42809 -56.42809 88.875
      vertex 62.72809 -56.42809 88.875
    endloop
  endfacet
  facet normal 0 0 -1
    outer loop
      vertex 62.72809 -56.42809 82.95
      vertex 56.42809 -56.42809 82.95
      vertex 44.72809 -44.72809 82.95
    endloop
  endfacet
  facet normal 0 -0 1
    outer loop
      vertex 62.72809 -56.42809 88.875
      vertex 62.72809 -44.72809 88.875
      vertex 44.72809 -44.72809 88.875
    endloop
  endfacet
  facet normal 0 0 -1
    outer loop
      vertex 44.72809 -44.72809 82.95
      vertex 62.72809 -44.72809 82.95
      vertex 62.72809 -56.42809 82.95
    endloop
  endfacet
  facet normal 0 -1 0
    outer loop
      vertex 44.72809 -62.72809 82.95
      vertex 56.42809 -62.72809 82.95
      vertex 56.42809 -62.72809 88.875
    endloop
  endfacet
  facet normal 0 -1 0
    outer loop
      vertex 44.72809 -62.72809 82.95
      vertex 56.42809 -62.72809 88.875
      vertex 44.72809 -62.72809 88.875
    endloop
  endfacet
  facet normal 1 0 0
    outer loop
      vertex 56.42809 -62.72809 82.95
      vertex 56.42809 -56.42809 82.95
      vertex 56.42809 -56.42809 88.875
    endloop
  endfacet
  facet normal 1 0 0
    outer loop
      vertex 56.42809 -62.72809 82.95
      vertex 56.42809 -56.42809 88.875
      vertex 56.42809 -62.72809 88.875
    endloop
  endfacet
  facet normal 0 -1 0
    outer loop
      vertex 56.42809 -56.42809 82.95
      vertex 62.72809 -56.42809 82.95
      vertex 62.72809 -56.42809 88.875
    endloop
  endfacet
  facet normal 0 -1 0
    outer loop
      vertex 56.42809 -56.42809 82.95
      vertex 62.72809 -56.42809 88.875
      vertex 56.42809 -56.42809 88.875
    endloop
  endfacet
  facet normal 1 0 0
    outer loop
      vertex 62.72809 -56.42809 82.95
      vertex 62.72809 -44.72809 82.95
      vertex 62.72809 -44.72809 88.875
    endloop
  endfacet
  facet normal 1 0 0
    outer loop
      vertex 62.72809 -56.42809 82.95
      vertex 62.72809 -44.72809 88.875
      vertex 62.72809 -56.42809 88.875
    endloop
  endfacet
  facet normal 0 1 0
    outer loop
      vertex 62.72809 -44.72809 82.95
      vertex 44.72809 -44.72809 82.95
      vertex 44.72809 -44.72809 88.875
    endloop
  endfacet
  facet normal 0 1 -0
    outer loop
      vertex 62.72809 -44.72809 82.95
      vertex 44.72809 -44.72809 88.875
      vertex 62.72809 -44.72809 88.875
    endloop
  endfacet
  facet normal -1 0 0
    outer loop
      vertex 44.72809 -44.72809 82.95
      vertex 44.72809 -62.72809 82.95
      vertex 44.72809 -62.72809 88.875
    endloop
  endfacet
  facet normal -1 0 0
    outer loop
      vertex 44.72809 -44.72809 82.95
      vertex 44.72809 -62.72809 88.875
      vertex 44.72809 -44.72809 88.875
    endloop
  endfacet
  facet normal 0 0 1
    outer loop
      vertex -56.42809 -56.42809 88.875
      vertex -56.42809 -62.72809 88.875
      vertex -44.72809 -62.72809 88.875
    endloop
  endfacet
  facet normal 0 0 -1
    outer loop
      vertex -44.72809 -62.72809 82.95
      vertex -56.42809 -62.72809 82.95
      vertex -56.42809 -56.42809 82.95
    endloop
  endfacet
  facet normal -0 0 1
    outer loop
      vertex -56.42809 -56.42809 88.875
      vertex -44.72809 -62.72809 88.875
      vertex -44.72809 -44.72809 88.875
    endloop
  endfacet
  facet normal 0 -0 -1
    outer loop
      vertex -44.72809 -44.72809 82.95
      vertex -44.72809 -62.72809 82.95
      vertex -56.42809 -56.42809 82.95
    endloop
  endfacet
  facet normal 0 -0 1
    outer loop
      vertex -56.42809 -56.42809 88.875
      vertex -44.72809 -44.72809 88.875
      vertex -62.72809 -44.72809 88.875
    endloop
  endfacet
  facet normal 0 0 -1
    outer loop
      vertex -62.72809 -44.72809 82.95
      vertex -44.72809 -44.72809 82.95
      vertex -56.42809 -56.42809 82.95
    endloop
  endfacet
  facet normal 0 0 1
    outer loop
      vertex -62.72809 -44.72809 88.875
      vertex -62.72809 -56.42809 88.875
      vertex -56.42809 -56.42809 88.875
    endloop
  endfacet
  facet normal 0 0 -1
    outer loop
      vertex -56.42809 -56.42809 82.95
      vertex -62.72809 -56.42809 82.95
      vertex -62.72809 -44.72809 82.95
    endloop
  endfacet
  facet normal 0 -1 0
    outer loop
      vertex -56.42809 -62.72809 82.95
      vertex -44.72809 -62.72809 82.95
      vertex -44.72809 -62.72809 88.875
    endloop
  endfacet
  facet normal 0 -1 0
    outer loop
      vertex -56.42809 -62.72809 82.95
      vertex -44.72809 -62.72809 88.875
      vertex -56.42809 -62.72809 88.875
    endloop
  endfacet
  facet normal 1 0 0
    outer loop
      vertex -44.72809 -62.72809 82.95
      vertex -44.72809 -44.72809 82.95
      vertex -44.72809 -44.72809 88.875
    endloop
  endfacet
  facet normal 1 0 0
    outer loop
      vertex -44.72809 -62.72809 82.95
      vertex -44.72809 -44.72809 88.875
      vertex -44.72809 -62.72809 88.875
    endloop
  endfacet
  facet normal 0 1 0
    outer loop
      vertex -44.72809 -44.72809 82.95
      vertex -62.72809 -44.72809 82.95
      vertex -62.72809 -44.72809 88.875
    endloop
  endfacet
  facet normal 0 1 -0
    outer loop
      vertex -44.72809 -44.72809 82.95
      vertex -62.72809 -44.72809 88.875
      vertex -44.72809 -44.72809 88.875
    endloop
  endfacet
  facet normal -1 0 0
    outer loop
      vertex -62.72809 -44.72809 82.95
      vertex -62.72809 -56.42809 82.95
      vertex -62.72809 -56.42809 88.875
    endloop
  endfacet
  facet normal -1 0 0
    outer loop
      vertex -62.72809 -44.72809 82.95
      vertex -62.72809 -56.42809 88.875
      vertex -62.72809 -44.72809 88.875
    endloop
  endfacet
  facet normal 0 -1 0
    outer loop
      vertex -62.72809 -56.42809 82.95
      vertex -56.42809 -56.42809 82.95
      vertex -56.42809 -56.42809 88.875
    endloop
  endfacet
  facet normal 0 -1 0
    outer loop
      vertex -62.72809 -56.42809 82.95
      vertex -56.42809 -56.42809 88.875
      vertex -62.72809 -56.42809 88.875
    endloop
  endfacet
  facet normal -1 0 0
    outer loop
      vertex -56.42809 -56.42809 82.95
      vertex -56.42809 -62.72809 82.95
      vertex -56.42809 -62.72809 88.875
    endloop
  endfacet
  facet normal -1 0 0
    outer loop
      vertex -56.42809 -56.42809 82.95
      vertex -56.42809 -62.72809 88.875
      vertex -56.42809 -56.42809 88.875
    endloop
  endfacet
  facet normal 0 0 1
    outer loop
      vertex -62.72809 56.42809 88.875
      vertex -62.72809 44.72809 88.875
      vertex -44.72809 44.72809 88.875
    endloop
  endfacet
  facet normal 0 0 -1
    outer loop
      vertex -44.72809 44.72809 82.95
      vertex -62.72809 44.72809 82.95
      vertex -62.72809 56.42809 82.95
    endloop
  endfacet
  facet normal 0 -0 1
    outer loop
      vertex -44.72809 44.72809 88.875
      vertex -44.72809 62.72809 88.875
      vertex -56.42809 62.72809 88.875
    endloop
  endfacet
  facet normal 0 0 -1
    outer loop
      vertex -56.42809 62.72809 82.95
      vertex -44.72809 62.72809 82.95
      vertex -44.72809 44.72809 82.95
    endloop
  endfacet
  facet normal 0 0 1
    outer loop
      vertex -44.72809 44.72809 88.875
      vertex -56.42809 62.72809 88.875
      vertex -56.42809 56.42809 88.875
    endloop
  endfacet
  facet normal 0 0 -1
    outer loop
      vertex -56.42809 56.42809 82.95
      vertex -56.42809 62.72809 82.95
      vertex -44.72809 44.72809 82.95
    endloop
  endfacet
  facet normal 0 0 1
    outer loop
      vertex -44.72809 44.72809 88.875
      vertex -56.42809 56.42809 88.875
      vertex -62.72809 56.42809 88.875
    endloop
  endfacet
  facet normal 0 0 -1
    outer loop
      vertex -62.72809 56.42809 82.95
      vertex -56.42809 56.42809 82.95
      vertex -44.72809 44.72809 82.95
    endloop
  endfacet
  facet normal 0 -1 0
    outer loop
      vertex -62.72809 44.72809 82.95
      vertex -44.72809 44.72809 82.95
      vertex -44.72809 44.72809 88.875
    endloop
  endfacet
  facet normal 0 -1 0
    outer loop
      vertex -62.72809 44.72809 82.95
      vertex -44.72809 44.72809 88.875
      vertex -62.72809 44.72809 88.875
    endloop
  endfacet
  facet normal 1 0 0
    outer loop
      vertex -44.72809 44.72809 82.95
      vertex -44.72809 62.72809 82.95
      vertex -44.72809 62.72809 88.875
    endloop
  endfacet
  facet normal 1 0 0
    outer loop
      vertex -44.72809 44.72809 82.95
      vertex -44.72809 62.72809 88.875
      vertex -44.72809 44.72809 88.875
    endloop
  endfacet
  facet normal 0 1 0
    outer loop
      vertex -44.72809 62.72809 82.95
      vertex -56.42809 62.72809 82.95
      vertex -56.42809 62.72809 88.875
    endloop
  endfacet
  facet normal 0 1 -0
    outer loop
      vertex -44.72809 62.72809 82.95
      vertex -56.42809 62.72809 88.875
      vertex -44.72809 62.72809 88.875
    endloop
  endfacet
  facet normal -1 0 0
    outer loop
      vertex -56.42809 62.72809 82.95
      vertex -56.42809 56.42809 82.95
      vertex -56.42809 56.42809 88.875
    endloop
  endfacet
  facet normal -1 0 0
    outer loop
      vertex -56.42809 62.72809 82.95
      vertex -56.42809 56.42809 88.875
      vertex -56.42809 62.72809 88.875
    endloop
  endfacet
  facet normal 0 1 0
    outer loop
      vertex -56.42809 56.42809 82.95
      vertex -62.72809 56.42809 82.95
      vertex -62.72809 56.42809 88.875
    endloop
  endfacet
  facet normal 0 1 -0
    outer loop
      vertex -56.42809 56.42809 82.95
      vertex -62.72809 56.42809 88.875
      vertex -56.42809 56.42809 88.875
    endloop
  endfacet
  facet normal -1 0 0
    outer loop
      vertex -62.72809 56.42809 82.95
      vertex -62.72809 44.72809 82.95
      vertex -62.72809 44.72809 88.875
    endloop
  endfacet
  facet normal -1 0 0
    outer loop
      vertex -62.72809 56.42809 82.95
      vertex -62.72809 44.72809 88.875
      vertex -62.72809 56.42809 88.875
    endloop
  endfacet
  facet normal 0 0 -1
    outer loop
      vertex 44.72809 44.72809 86.075
      vertex -22.36405 44.72809 86.075
      vertex -22.36405 62.72809 86.075
    endloop
  endfacet
  facet normal 0 0 -1
    outer loop
      vertex 44.72809 44.72809 86.075
      vertex -22.36405 62.72809 86.075
      vertex 44.72809 62.72809 86.075
    endloop
  endfacet
  facet normal 0 0 -1
    outer loop
      vertex -22.36405 44.72809 86.075
      vertex -44.72809 44.72809 86.075
      vertex -44.72809 62.72809 86.075
    endloop
  endfacet
  facet normal 0 0 -1
    outer loop
      vertex -22.36405 44.72809 86.075
      vertex -44.72809 62.72809 86.075
      vertex -22.36405 62.72809 86.075
    endloop
  endfacet
  facet normal 0.08796902 0 0.9961232
    outer loop
      vertex 44.72809 44.72809 88.875
      vertex -22.36405 62.72809 94.8
      vertex -22.36405 44.72809 94.8
    endloop
  endfacet
  facet normal 0.08796902 -0 0.9961232
    outer loop
      vertex 44.72809 44.72809 88.875
      vertex 44.72809 62.72809 88.875
      vertex -22.36405 62.72809 94.8
    endloop
  endfacet
  facet normal 0 0 1
    outer loop
      vertex -22.36405 44.72809 94.8
      vertex -44.72809 62.72809 94.8
      vertex -44.72809 44.72809 94.8
    endloop
  endfacet
  facet normal 0 -0 1
    outer loop
      vertex -22.36405 44.72809 94.8
      vertex -22.36405 62.72809 94.8
      vertex -44.72809 62.72809 94.8
    endloop
  endfacet
  facet normal 0 -1 0
    outer loop
      vertex 44.72809 44.72809 86.075
      vertex -22.36405 44.72809 94.8
      vertex -22.36405 44.72809 86.075
    endloop
  endfacet
  facet normal 0 -1 0
    outer loop
      vertex 44.72809 44.72809 86.075
      vertex 44.72809 44.72809 88.875
      vertex -22.36405 44.72809 94.8
    endloop
  endfacet
  facet normal 0 -1 0
    outer loop
      vertex -22.36405 44.72809 86.075
      vertex -44.72809 44.72809 94.8
      vertex -44.72809 44.72809 86.075
    endloop
  endfacet
  facet normal 0 -1 0
    outer loop
      vertex -22.36405 44.72809 86.075
      vertex -22.36405 44.72809 94.8
      vertex -44.72809 44.72809 94.8
    endloop
  endfacet
  facet normal 0 1 0
    outer loop
      vertex 44.72809 62.72809 86.075
      vertex -22.36405 62.72809 86.075
      vertex -22.36405 62.72809 94.8
    endloop
  endfacet
  facet normal 0 1 -0
    outer loop
      vertex 44.72809 62.72809 86.075
      vertex -22.36405 62.72809 94.8
      vertex 44.72809 62.72809 88.875
    endloop
  endfacet
  facet normal 0 1 0
    outer loop
      vertex -22.36405 62.72809 86.075
      vertex -44.72809 62.72809 86.075
      vertex -44.72809 62.72809 94.8
    endloop
  endfacet
  facet normal 0 1 -0
    outer loop
      vertex -22.36405 62.72809 86.075
      vertex -44.72809 62.72809 94.8
      vertex -22.36405 62.72809 94.8
    endloop
  endfacet
  facet normal 1 0 0
    outer loop
      vertex 44.72809 62.72809 86.075
      vertex 44.72809 44.72809 88.875
      vertex 44.72809 44.72809 86.075
    endloop
  endfacet
  facet normal 1 0 -0
    outer loop
      vertex 44.72809 62.72809 86.075
      vertex 44.72809 62.72809 88.875
      vertex 44.72809 44.72809 88.875
    endloop
  endfacet
  facet normal -1 0 0
    outer loop
      vertex -44.72809 44.72809 86.075
      vertex -44.72809 62.72809 94.8
      vertex -44.72809 62.72809 86.075
    endloop
  endfacet
  facet normal -1 0 0
    outer loop
      vertex -44.72809 44.72809 86.075
      vertex -44.72809 44.72809 94.8
      vertex -44.72809 62.72809 94.8
    endloop
  endfacet
  facet normal 0 0 -1
    outer loop
      vertex 44.72809 44.72809 86.075
      vertex 62.72809 -22.36405 86.075
      vertex 44.72809 -22.36405 86.075
    endloop
  endfacet
  facet normal 0 0 -1
    outer loop
      vertex 44.72809 44.72809 86.075
      vertex 62.72809 44.72809 86.075
      vertex 62.72809 -22.36405 86.075
    endloop
  endfacet
  facet normal 0 0 -1
    outer loop
      vertex 44.72809 -22.36405 86.075
      vertex 62.72809 -44.72809 86.075
      vertex 44.72809 -44.72809 86.075
    endloop
  endfacet
  facet normal 0 0 -1
    outer loop
      vertex 44.72809 -22.36405 86.075
      vertex 62.72809 -22.36405 86.075
      vertex 62.72809 -44.72809 86.075
    endloop
  endfacet
  facet normal 0 0.08796902 0.9961232
    outer loop
      vertex 44.72809 44.72809 88.875
      vertex 44.72809 -22.36405 94.8
      vertex 62.72809 -22.36405 94.8
    endloop
  endfacet
  facet normal -0 0.08796902 0.9961232
    outer loop
      vertex 44.72809 44.72809 88.875
      vertex 62.72809 -22.36405 94.8
      vertex 62.72809 44.72809 88.875
    endloop
  endfacet
  facet normal 0 0 1
    outer loop
      vertex 44.72809 -22.36405 94.8
      vertex 44.72809 -44.72809 94.8
      vertex 62.72809 -44.72809 94.8
    endloop
  endfacet
  facet normal -0 0 1
    outer loop
      vertex 44.72809 -22.36405 94.8
      vertex 62.72809 -44.72809 94.8
      vertex 62.72809 -22.36405 94.8
    endloop
  endfacet
  facet normal -1 0 0
    outer loop
      vertex 44.72809 44.72809 86.075
      vertex 44.72809 -22.36405 86.075
      vertex 44.72809 -22.36405 94.8
    endloop
  endfacet
  facet normal -1 0 0
    outer loop
      vertex 44.72809 44.72809 86.075
      vertex 44.72809 -22.36405 94.8
      vertex 44.72809 44.72809 88.875
    endloop
  endfacet
  facet normal -1 0 0
    outer loop
      vertex 44.72809 -22.36405 86.075
      vertex 44.72809 -44.72809 86.075
      vertex 44.72809 -44.72809 94.8
    endloop
  endfacet
  facet normal -1 0 0
    outer loop
      vertex 44.72809 -22.36405 86.075
      vertex 44.72809 -44.72809 94.8
      vertex 44.72809 -22.36405 94.8
    endloop
  endfacet
  facet normal 1 0 0
    outer loop
      vertex 62.72809 44.72809 86.075
      vertex 62.72809 -22.36405 94.8
      vertex 62.72809 -22.36405 86.075
    endloop
  endfacet
  facet normal 1 0 -0
    outer loop
      vertex 62.72809 44.72809 86.075
      vertex 62.72809 44.72809 88.875
      vertex 62.72809 -22.36405 94.8
    endloop
  endfacet
  facet normal 1 0 0
    outer loop
      vertex 62.72809 -22.36405 86.075
      vertex 62.72809 -44.72809 94.8
      vertex 62.72809 -44.72809 86.075
    endloop
  endfacet
  facet normal 1 0 -0
    outer loop
      vertex 62.72809 -22.36405 86.075
      vertex 62.72809 -22.36405 94.8
      vertex 62.72809 -44.72809 94.8
    endloop
  endfacet
  facet normal 0 1 0
    outer loop
      vertex 62.72809 44.72809 86.075
      vertex 44.72809 44.72809 86.075
      vertex 44.72809 44.72809 88.875
    endloop
  endfacet
  facet normal 0 1 -0
    outer loop
      vertex 62.72809 44.72809 86.075
      vertex 44.72809 44.72809 88.875
      vertex 62.72809 44.72809 88.875
    endloop
  endfacet
  facet normal 0 -1 0
    outer loop
      vertex 44.72809 -44.72809 86.075
      vertex 62.72809 -44.72809 86.075
      vertex 62.72809 -44.72809 94.8
    endloop
  endfacet
  facet normal 0 -1 0
    outer loop
      vertex 44.72809 -44.72809 86.075
      vertex 62.72809 -44.72809 94.8
      vertex 44.72809 -44.72809 94.8
    endloop
  endfacet
  facet normal 0 0 -1
    outer loop
      vertex -44.72809 -44.72809 86.075
      vertex 22.36405 -44.72809 86.075
      vertex 22.36405 -62.72809 86.075
    endloop
  endfacet
  facet normal 0 0 -1
    outer loop
      vertex -44.72809 -44.72809 86.075
      vertex 22.36405 -62.72809 86.075
      vertex -44.72809 -62.72809 86.075
    endloop
  endfacet
  facet normal 0 0 -1
    outer loop
      vertex 22.36405 -44.72809 86.075
      vertex 44.72809 -44.72809 86.075
      vertex 44.72809 -62.72809 86.075
    endloop
  endfacet
  facet normal 0 0 -1
    outer loop
      vertex 22.36405 -44.72809 86.075
      vertex 44.72809 -62.72809 86.075
      vertex 22.36405 -62.72809 86.075
    endloop
  endfacet
  facet normal -0.08796902 0 0.9961232
    outer loop
      vertex -44.72809 -44.72809 88.875
      vertex 22.36405 -62.72809 94.8
      vertex 22.36405 -44.72809 94.8
    endloop
  endfacet
  facet normal -0.08796902 0 0.9961232
    outer loop
      vertex -44.72809 -44.72809 88.875
      vertex -44.72809 -62.72809 88.875
      vertex 22.36405 -62.72809 94.8
    endloop
  endfacet
  facet normal -0 0 1
    outer loop
      vertex 22.36405 -44.72809 94.8
      vertex 44.72809 -62.72809 94.8
      vertex 44.72809 -44.72809 94.8
    endloop
  endfacet
  facet normal 0 0 1
    outer loop
      vertex 22.36405 -44.72809 94.8
      vertex 22.36405 -62.72809 94.8
      vertex 44.72809 -62.72809 94.8
    endloop
  endfacet
  facet normal 0 1 0
    outer loop
      vertex -44.72809 -44.72809 86.075
      vertex 22.36405 -44.72809 94.8
      vertex 22.36405 -44.72809 86.075
    endloop
  endfacet
  facet normal 0 1 0
    outer loop
      vertex -44.72809 -44.72809 86.075
      vertex -44.72809 -44.72809 88.875
      vertex 22.36405 -44.72809 94.8
    endloop
  endfacet
  facet normal 0 1 0
    outer loop
      vertex 22.36405 -44.72809 86.075
      vertex 44.72809 -44.72809 94.8
      vertex 44.72809 -44.72809 86.075
    endloop
  endfacet
  facet normal 0 1 0
    outer loop
      vertex 22.36405 -44.72809 86.075
      vertex 22.36405 -44.72809 94.8
      vertex 44.72809 -44.72809 94.8
    endloop
  endfacet
  facet normal 0 -1 0
    outer loop
      vertex -44.72809 -62.72809 86.075
      vertex 22.36405 -62.72809 86.075
      vertex 22.36405 -62.72809 94.8
    endloop
  endfacet
  facet normal 0 -1 0
    outer loop
      vertex -44.72809 -62.72809 86.075
      vertex 22.36405 -62.72809 94.8
      vertex -44.72809 -62.72809 88.875
    endloop
  endfacet
  facet normal 0 -1 0
    outer loop
      vertex 22.36405 -62.72809 86.075
      vertex 44.72809 -62.72809 86.075
      vertex 44.72809 -62.72809 94.8
    endloop
  endfacet
  facet normal 0 -1 0
    outer loop
      vertex 22.36405 -62.72809 86.075
      vertex 44.72809 -62.72809 94.8
      vertex 22.36405 -62.72809 94.8
    endloop
  endfacet
  facet normal -1 0 0
    outer loop
      vertex -44.72809 -62.72809 86.075
      vertex -44.72809 -44.72809 88.875
      vertex -44.72809 -44.72809 86.075
    endloop
  endfacet
  facet normal -1 0 0
    outer loop
      vertex -44.72809 -62.72809 86.075
      vertex -44.72809 -62.72809 88.875
      vertex -44.72809 -44.72809 88.875
    endloop
  endfacet
  facet normal 1 0 0
    outer loop
      vertex 44.72809 -44.72809 86.075
      vertex 44.72809 -62.72809 94.8
      vertex 44.72809 -62.72809 86.075
    endloop
  endfacet
  facet normal 1 0 -0
    outer loop
      vertex 44.72809 -44.72809 86.075
      vertex 44.72809 -44.72809 94.8
      vertex 44.72809 -62.72809 94.8
    endloop
  endfacet
  facet normal 0 0 -1
    outer loop
      vertex -44.72809 -44.72809 86.075
      vertex -62.72809 22.36405 86.075
      vertex -44.72809 22.36405 86.075
    endloop
  endfacet
  facet normal 0 0 -1
    outer loop
      vertex -44.72809 -44.72809 86.075
      vertex -62.72809 -44.72809 86.075
      vertex -62.72809 22.36405 86.075
    endloop
  endfacet
  facet normal 0 0 -1
    outer loop
      vertex -44.72809 22.36405 86.075
      vertex -62.72809 44.72809 86.075
      vertex -44.72809 44.72809 86.075
    endloop
  endfacet
  facet normal 0 0 -1
    outer loop
      vertex -44.72809 22.36405 86.075
      vertex -62.72809 22.36405 86.075
      vertex -62.72809 44.72809 86.075
    endloop
  endfacet
  facet normal 0 -0.08796902 0.9961232
    outer loop
      vertex -44.72809 -44.72809 88.875
      vertex -44.72809 22.36405 94.8
      vertex -62.72809 22.36405 94.8
    endloop
  endfacet
  facet normal 0 -0.08796902 0.9961232
    outer loop
      vertex -44.72809 -44.72809 88.875
      vertex -62.72809 22.36405 94.8
      vertex -62.72809 -44.72809 88.875
    endloop
  endfacet
  facet normal 0 -0 1
    outer loop
      vertex -44.72809 22.36405 94.8
      vertex -44.72809 44.72809 94.8
      vertex -62.72809 44.72809 94.8
    endloop
  endfacet
  facet normal 0 0 1
    outer loop
      vertex -44.72809 22.36405 94.8
      vertex -62.72809 44.72809 94.8
      vertex -62.72809 22.36405 94.8
    endloop
  endfacet
  facet normal 1 0 0
    outer loop
      vertex -44.72809 -44.72809 86.075
      vertex -44.72809 22.36405 86.075
      vertex -44.72809 22.36405 94.8
    endloop
  endfacet
  facet normal 1 0 0
    outer loop
      vertex -44.72809 -44.72809 86.075
      vertex -44.72809 22.36405 94.8
      vertex -44.72809 -44.72809 88.875
    endloop
  endfacet
  facet normal 1 0 0
    outer loop
      vertex -44.72809 22.36405 86.075
      vertex -44.72809 44.72809 86.075
      vertex -44.72809 44.72809 94.8
    endloop
  endfacet
  facet normal 1 0 0
    outer loop
      vertex -44.72809 22.36405 86.075
      vertex -44.72809 44.72809 94.8
      vertex -44.72809 22.36405 94.8
    endloop
  endfacet
  facet normal -1 0 0
    outer loop
      vertex -62.72809 -44.72809 86.075
      vertex -62.72809 22.36405 94.8
      vertex -62.72809 22.36405 86.075
    endloop
  endfacet
  facet normal -1 0 0
    outer loop
      vertex -62.72809 -44.72809 86.075
      vertex -62.72809 -44.72809 88.875
      vertex -62.72809 22.36405 94.8
    endloop
  endfacet
  facet normal -1 0 0
    outer loop
      vertex -62.72809 22.36405 86.075
      vertex -62.72809 44.72809 94.8
      vertex -62.72809 44.72809 86.075
    endloop
  endfacet
  facet normal -1 0 0
    outer loop
      vertex -62.72809 22.36405 86.075
      vertex -62.72809 22.36405 94.8
      vertex -62.72809 44.72809 94.8
    endloop
  endfacet
  facet normal 0 -1 0
    outer loop
      vertex -62.72809 -44.72809 86.075
      vertex -44.72809 -44.72809 86.075
      vertex -44.72809 -44.72809 88.875
    endloop
  endfacet
  facet normal 0 -1 0
    outer loop
      vertex -62.72809 -44.72809 86.075
      vertex -44.72809 -44.72809 88.875
      vertex -62.72809 -44.72809 88.875
    endloop
  endfacet
  facet normal 0 1 0
    outer loop
      vertex -44.72809 44.72809 86.075
      vertex -62.72809 44.72809 86.075
      vertex -62.72809 44.72809 94.8
    endloop
  endfacet
  facet normal 0 1 -0
    outer loop
      vertex -44.72809 44.72809 86.075
      vertex -62.72809 44.72809 94.8
      vertex -44.72809 44.72809 94.8
    endloop
  endfacet
  facet normal 0 0 1
    outer loop
      vertex 44.72809 62.72809 88.875
      vertex 44.72809 44.72809 88.875
      vertex 62.72809 44.72809 88.875
    endloop
  endfacet
  facet normal 0 0 -1
    outer loop
      vertex 62.72809 44.72809 86.075
      vertex 44.72809 44.72809 86.075
      vertex 44.72809 62.72809 86.075
    endloop
  endfacet
  facet normal 0 -0 1
    outer loop
      vertex 62.72809 44.72809 88.875
      vertex 62.72809 56.42809 88.875
      vertex 56.42809 56.42809 88.875
    endloop
  endfacet
  facet normal 0 0 -1
    outer loop
      vertex 56.42809 56.42809 86.075
      vertex 62.72809 56.42809 86.075
      vertex 62.72809 44.72809 86.075
    endloop
  endfacet
  facet normal 0 0 1
    outer loop
      vertex 44.72809 62.72809 88.875
      vertex 62.72809 44.72809 88.875
      vertex 56.42809 56.42809 88.875
    endloop
  endfacet
  facet normal -0 -0 -1
    outer loop
      vertex 56.42809 56.42809 86.075
      vertex 62.72809 44.72809 86.075
      vertex 44.72809 62.72809 86.075
    endloop
  endfacet
  facet normal 0 -0 1
    outer loop
      vertex 56.42809 56.42809 88.875
      vertex 56.42809 62.72809 88.875
      vertex 44.72809 62.72809 88.875
    endloop
  endfacet
  facet normal 0 0 -1
    outer loop
      vertex 44.72809 62.72809 86.075
      vertex 56.42809 62.72809 86.075
      vertex 56.42809 56.42809 86.075
    endloop
  endfacet
  facet normal 0 -1 0
    outer loop
      vertex 44.72809 44.72809 86.075
      vertex 62.72809 44.72809 86.075
      vertex 62.72809 44.72809 88.875
    endloop
  endfacet
  facet normal 0 -1 0
    outer loop
      vertex 44.72809 44.72809 86.075
      vertex 62.72809 44.72809 88.875
      vertex 44.72809 44.72809 88.875
    endloop
  endfacet
  facet normal 1 0 0
    outer loop
      vertex 62.72809 44.72809 86.075
      vertex 62.72809 56.42809 86.075
      vertex 62.72809 56.42809 88.875
    endloop
  endfacet
  facet normal 1 0 0
    outer loop
      vertex 62.72809 44.72809 86.075
      vertex 62.72809 56.42809 88.875
      vertex 62.72809 44.72809 88.875
    endloop
  endfacet
  facet normal 0 1 0
    outer loop
      vertex 62.72809 56.42809 86.075
      vertex 56.42809 56.42809 86.075
      vertex 56.42809 56.42809 88.875
    endloop
  endfacet
  facet normal 0 1 -0
    outer loop
      vertex 62.72809 56.42809 86.075
      vertex 56.42809 56.42809 88.875
      vertex 62.72809 56.42809 88.875
    endloop
  endfacet
  facet normal 1 0 0
    outer loop
      vertex 56.42809 56.42809 86.075
      vertex 56.42809 62.72809 86.075
      vertex 56.42809 62.72809 88.875
    endloop
  endfacet
  facet normal 1 0 0
    outer loop
      vertex 56.42809 56.42809 86.075
      vertex 56.42809 62.72809 88.875
      vertex 56.42809 56.42809 88.875
    endloop
  endfacet
  facet normal 0 1 0
    outer loop
      vertex 56.42809 62.72809 86.075
      vertex 44.72809 62.72809 86.075
      vertex 44.72809 62.72809 88.875
    endloop
  endfacet
  facet normal 0 1 -0
    outer loop
      vertex 56.42809 62.72809 86.075
      vertex 44.72809 62.72809 88.875
      vertex 56.42809 62.72809 88.875
    endloop
  endfacet
  facet normal -1 0 0
    outer loop
      vertex 44.72809 62.72809 86.075
      vertex 44.72809 44.72809 86.075
      vertex 44.72809 44.72809 88.875
    endloop
  endfacet
  facet normal -1 0 0
    outer loop
      vertex 44.72809 62.72809 86.075
      vertex 44.72809 44.72809 88.875
      vertex 44.72809 62.72809 88.875
    endloop
  endfacet
  facet normal 0 0 1
    outer loop
      vertex 44.72809 -44.72809 94.8
      vertex 44.72809 -62.72809 94.8
      vertex 56.42809 -62.72809 94.8
    endloop
  endfacet
  facet normal 0 0 -1
    outer loop
      vertex 56.42809 -62.72809 86.075
      vertex 44.72809 -62.72809 86.075
      vertex 44.72809 -44.72809 86.075
    endloop
  endfacet
  facet normal 0 0 1
    outer loop
      vertex 44.72809 -44.72809 94.8
      vertex 56.42809 -62.72809 94.8
      vertex 56.42809 -56.42809 94.8
    endloop
  endfacet
  facet normal -0 -0 -1
    outer loop
      vertex 56.42809 -56.42809 86.075
      vertex 56.42809 -62.72809 86.075
      vertex 44.72809 -44.72809 86.075
    endloop
  endfacet
  facet normal 0 0 1
    outer loop
      vertex 44.72809 -44.72809 94.8
      vertex 56.42809 -56.42809 94.8
      vertex 62.72809 -56.42809 94.8
    endloop
  endfacet
  facet normal 0 0 -1
    outer loop
      vertex 62.72809 -56.42809 86.075
      vertex 56.42809 -56.42809 86.075
      vertex 44.72809 -44.72809 86.075
    endloop
  endfacet
  facet normal 0 -0 1
    outer loop
      vertex 62.72809 -56.42809 94.8
      vertex 62.72809 -44.72809 94.8
      vertex 44.72809 -44.72809 94.8
    endloop
  endfacet
  facet normal 0 0 -1
    outer loop
      vertex 44.72809 -44.72809 86.075
      vertex 62.72809 -44.72809 86.075
      vertex 62.72809 -56.42809 86.075
    endloop
  endfacet
  facet normal 0 -1 0
    outer loop
      vertex 44.72809 -62.72809 86.075
      vertex 56.42809 -62.72809 86.075
      vertex 56.42809 -62.72809 94.8
    endloop
  endfacet
  facet normal 0 -1 0
    outer loop
      vertex 44.72809 -62.72809 86.075
      vertex 56.42809 -62.72809 94.8
      vertex 44.72809 -62.72809 94.8
    endloop
  endfacet
  facet normal 1 0 0
    outer loop
      vertex 56.42809 -62.72809 86.075
      vertex 56.42809 -56.42809 86.075
      vertex 56.42809 -56.42809 94.8
    endloop
  endfacet
  facet normal 1 0 0
    outer loop
      vertex 56.42809 -62.72809 86.075
      vertex 56.42809 -56.42809 94.8
      vertex 56.42809 -62.72809 94.8
    endloop
  endfacet
  facet normal 0 -1 0
    outer loop
      vertex 56.42809 -56.42809 86.075
      vertex 62.72809 -56.42809 86.075
      vertex 62.72809 -56.42809 94.8
    endloop
  endfacet
  facet normal 0 -1 0
    outer loop
      vertex 56.42809 -56.42809 86.075
      vertex 62.72809 -56.42809 94.8
      vertex 56.42809 -56.42809 94.8
    endloop
  endfacet
  facet normal 1 0 0
    outer loop
      vertex 62.72809 -56.42809 86.075
      vertex 62.72809 -44.72809 86.075
      vertex 62.72809 -44.72809 94.8
    endloop
  endfacet
  facet normal 1 0 0
    outer loop
      vertex 62.72809 -56.42809 86.075
      vertex 62.72809 -44.72809 94.8
      vertex 62.72809 -56.42809 94.8
    endloop
  endfacet
  facet normal 0 1 0
    outer loop
      vertex 62.72809 -44.72809 86.075
      vertex 44.72809 -44.72809 86.075
      vertex 44.72809 -44.72809 94.8
    endloop
  endfacet
  facet normal 0 1 -0
    outer loop
      vertex 62.72809 -44.72809 86.075
      vertex 44.72809 -44.72809 94.8
      vertex 62.72809 -44.72809 94.8
    endloop
  endfacet
  facet normal -1 0 0
    outer loop
      vertex 44.72809 -44.72809 86.075
      vertex 44.72809 -62.72809 86.075
      vertex 44.72809 -62.72809 94.8
    endloop
  endfacet
  facet normal -1 0 0
    outer loop
      vertex 44.72809 -44.72809 86.075
      vertex 44.72809 -62.72809 94.8
      vertex 44.72809 -44.72809 94.8
    endloop
  endfacet
  facet normal 0 0 1
    outer loop
      vertex -56.42809 -56.42809 88.875
      vertex -56.42809 -62.72809 88.875
      vertex -44.72809 -62.72809 88.875
    endloop
  endfacet
  facet normal 0 0 -1
    outer loop
      vertex -44.72809 -62.72809 86.075
      vertex -56.42809 -62.72809 86.075
      vertex -56.42809 -56.42809 86.075
    endloop
  endfacet
  facet normal -0 0 1
    outer loop
      vertex -56.42809 -56.42809 88.875
      vertex -44.72809 -62.72809 88.875
      vertex -44.72809 -44.72809 88.875
    endloop
  endfacet
  facet normal 0 -0 -1
    outer loop
      vertex -44.72809 -44.72809 86.075
      vertex -44.72809 -62.72809 86.075
      vertex -56.42809 -56.42809 86.075
    endloop
  endfacet
  facet normal 0 -0 1
    outer loop
      vertex -56.42809 -56.42809 88.875
      vertex -44.72809 -44.72809 88.875
      vertex -62.72809 -44.72809 88.875
    endloop
  endfacet
  facet normal 0 0 -1
    outer loop
      vertex -62.72809 -44.72809 86.075
      vertex -44.72809 -44.72809 86.075
      vertex -56.42809 -56.42809 86.075
    endloop
  endfacet
  facet normal 0 0 1
    outer loop
      vertex -62.72809 -44.72809 88.875
      vertex -62.72809 -56.42809 88.875
      vertex -56.42809 -56.42809 88.875
    endloop
  endfacet
  facet normal 0 0 -1
    outer loop
      vertex -56.42809 -56.42809 86.075
      vertex -62.72809 -56.42809 86.075
      vertex -62.72809 -44.72809 86.075
    endloop
  endfacet
  facet normal 0 -1 0
    outer loop
      vertex -56.42809 -62.72809 86.075
      vertex -44.72809 -62.72809 86.075
      vertex -44.72809 -62.72809 88.875
    endloop
  endfacet
  facet normal 0 -1 0
    outer loop
      vertex -56.42809 -62.72809 86.075
      vertex -44.72809 -62.72809 88.875
      vertex -56.42809 -62.72809 88.875
    endloop
  endfacet
  facet normal 1 0 0
    outer loop
      vertex -44.72809 -62.72809 86.075
      vertex -44.72809 -44.72809 86.075
      vertex -44.72809 -44.72809 88.875
    endloop
  endfacet
  facet normal 1 0 0
    outer loop
      vertex -44.72809 -62.72809 86.075
      vertex -44.72809 -44.72809 88.875
      vertex -44.72809 -62.72809 88.875
    endloop
  endfacet
  facet normal 0 1 0
    outer loop
      vertex -44.72809 -44.72809 86.075
      vertex -62.72809 -44.72809 86.075
      vertex -62.72809 -44.72809 88.875
    endloop
  endfacet
  facet normal 0 1 -0
    outer loop
      vertex -44.72809 -44.72809 86.075
      vertex -62.72809 -44.72809 88.875
      vertex -44.72809 -44.72809 88.875
    endloop
  endfacet
  facet normal -1 0 0
    outer loop
      vertex -62.72809 -44.72809 86.075
      vertex -62.72809 -56.42809 86.075
      vertex -62.72809 -56.42809 88.875
    endloop
  endfacet
  facet normal -1 0 0
    outer loop
      vertex -62.72809 -44.72809 86.075
      vertex -62.72809 -56.42809 88.875
      vertex -62.72809 -44.72809 88.875
    endloop
  endfacet
  facet normal 0 -1 0
    outer loop
      vertex -62.72809 -56.42809 86.075
      vertex -56.42809 -56.42809 86.075
      vertex -56.42809 -56.42809 88.875
    endloop
  endfacet
  facet normal 0 -1 0
    outer loop
      vertex -62.72809 -56.42809 86.075
      vertex -56.42809 -56.42809 88.875
      vertex -62.72809 -56.42809 88.875
    endloop
  endfacet
  facet normal -1 0 0
    outer loop
      vertex -56.42809 -56.42809 86.075
      vertex -56.42809 -62.72809 86.075
      vertex -56.42809 -62.72809 88.875
    endloop
  endfacet
  facet normal -1 0 0
    outer loop
      vertex -56.42809 -56.42809 86.075
      vertex -56.42809 -62.72809 88.875
      vertex -56.42809 -56.42809 88.875
    endloop
  endfacet
  facet normal 0 0 1
    outer loop
      vertex -62.72809 56.42809 94.8
      vertex -62.72809 44.72809 94.8
      vertex -44.72809 44.72809 94.8
    endloop
  endfacet
  facet normal 0 0 -1
    outer loop
      vertex -44.72809 44.72809 86.075
      vertex -62.72809 44.72809 86.075
      vertex -62.72809 56.42809 86.075
    endloop
  endfacet
  facet normal 0 -0 1
    outer loop
      vertex -44.72809 44.72809 94.8
      vertex -44.72809 62.72809 94.8
      vertex -56.42809 62.72809 94.8
    endloop
  endfacet
  facet normal 0 0 -1
    outer loop
      vertex -56.42809 62.72809 86.075
      vertex -44.72809 62.72809 86.075
      vertex -44.72809 44.72809 86.075
    endloop
  endfacet
  facet normal 0 0 1
    outer loop
      vertex -44.72809 44.72809 94.8
      vertex -56.42809 62.72809 94.8
      vertex -56.42809 56.42809 94.8
    endloop
  endfacet
  facet normal 0 0 -1
    outer loop
      vertex -56.42809 56.42809 86.075
      vertex -56.42809 62.72809 86.075
      vertex -44.72809 44.72809 86.075
    endloop
  endfacet
  facet normal 0 0 1
    outer loop
      vertex -44.72809 44.72809 94.8
      vertex -56.42809 56.42809 94.8
      vertex -62.72809 56.42809 94.8
    endloop
  endfacet
  facet normal 0 0 -1
    outer loop
      vertex -62.72809 56.42809 86.075
      vertex -56.42809 56.42809 86.075
      vertex -44.72809 44.72809 86.075
    endloop
  endfacet
  facet normal 0 -1 0
    outer loop
      vertex -62.72809 44.72809 86.075
      vertex -44.72809 44.72809 86.075
      vertex -44.72809 44.72809 94.8
    endloop
  endfacet
  facet normal 0 -1 0
    outer loop
      vertex -62.72809 44.72809 86.075
      vertex -44.72809 44.72809 94.8
      vertex -62.72809 44.72809 94.8
    endloop
  endfacet
  facet normal 1 0 0
    outer loop
      vertex -44.72809 44.72809 86.075
      vertex -44.72809 62.72809 86.075
      vertex -44.72809 62.72809 94.8
    endloop
  endfacet
  facet normal 1 0 0
    outer loop
      vertex -44.72809 44.72809 86.075
      vertex -44.72809 62.72809 94.8
      vertex -44.72809 44.72809 94.8
    endloop
  endfacet
  facet normal 0 1 0
    outer loop
      vertex -44.72809 62.72809 86.075
      vertex -56.42809 62.72809 86.075
      vertex -56.42809 62.72809 94.8
    endloop
  endfacet
  facet normal 0 1 -0
    outer loop
      vertex -44.72809 62.72809 86.075
      vertex -56.42809 62.72809 94.8
      vertex -44.72809 62.72809 94.8
    endloop
  endfacet
  facet normal -1 0 0
    outer loop
      vertex -56.42809 62.72809 86.075
      vertex -56.42809 56.42809 86.075
      vertex -56.42809 56.42809 94.8
    endloop
  endfacet
  facet normal -1 0 0
    outer loop
      vertex -56.42809 62.72809 86.075
      vertex -56.42809 56.42809 94.8
      vertex -56.42809 62.72809 94.8
    endloop
  endfacet
  facet normal 0 1 0
    outer loop
      vertex -56.42809 56.42809 86.075
      vertex -62.72809 56.42809 86.075
      vertex -62.72809 56.42809 94.8
    endloop
  endfacet
  facet normal 0 1 -0
    outer loop
      vertex -56.42809 56.42809 86.075
      vertex -62.72809 56.42809 94.8
      vertex -56.42809 56.42809 94.8
    endloop
  endfacet
  facet normal -1 0 0
    outer loop
      vertex -62.72809 56.42809 86.075
      vertex -62.72809 44.72809 86.075
      vertex -62.72809 44.72809 94.8
    endloop
  endfacet
  facet normal -1 0 0
    outer loop
      vertex -62.72809 56.42809 86.075
      vertex -62.72809 44.72809 94.8
      vertex -62.72809 56.42809 94.8
    endloop
  endfacet
endsolid temporary_switchback_ramp_layer_16
