solid temporary_switchback_ramp_layer_14
  facet normal 0 0 -1
    outer loop
      vertex -72.04047 72.04047 71.1
      vertex 72.04047 72.04047 71.1
      vertex 72.04047 56.36857 71.1
    endloop
  endfacet
  facet normal 0 0 -1
    outer loop
      vertex -72.04047 72.04047 71.1
      vertex 72.04047 56.36857 71.1
      vertex -72.04047 56.36857 71.1
    endloop
  endfacet
  facet normal 0 0 1
    outer loop
      vertex -72.04047 56.36857 77.025
      vertex 72.04047 56.36857 77.025
      vertex 72.04047 72.04047 77.025
    endloop
  endfacet
  facet normal 0 0 1
    outer loop
      vertex -72.04047 56.36857 77.025
      vertex 72.04047 72.04047 77.025
      vertex -72.04047 72.04047 77.025
    endloop
  endfacet
  facet normal 0 -1 0
    outer loop
      vertex -72.04047 56.36857 71.1
      vertex 72.04047 56.36857 71.1
      vertex 72.04047 56.36857 77.025
    endloop
  endfacet
  facet normal 0 -1 0
    outer loop
      vertex -72.04047 56.36857 71.1
      vertex 72.04047 56.36857 77.025
      vertex -72.04047 56.36857 77.025
    endloop
  endfacet
  facet normal 1 0 0
    outer loop
      vertex 72.04047 56.36857 71.1
      vertex 72.04047 72.04047 71.1
      vertex 72.04047 72.04047 77.025
    endloop
  endfacet
  facet normal 1 0 0
    outer loop
      vertex 72.04047 56.36857 71.1
      vertex 72.04047 72.04047 77.025
      vertex 72.04047 56.36857 77.025
    endloop
  endfacet
  facet normal 0 1 0
    outer loop
      vertex 72.04047 72.04047 71.1
      vertex -72.04047 72.04047 71.1
      vertex -72.04047 72.04047 77.025
    endloop
  endfacet
  facet normal 0 1 -0
    outer loop
      vertex 72.04047 72.04047 71.1
      vertex -72.04047 72.04047 77.025
      vertex 72.04047 72.04047 77.025
    endloop
  endfacet
  facet normal -1 0 0
    outer loop
      vertex -72.04047 72.04047 71.1
      vertex -72.04047 56.36857 71.1
      vertex -72.04047 56.36857 77.025
    endloop
  endfacet
  facet normal -1 0 0
    outer loop
      vertex -72.04047 72.04047 71.1
      vertex -72.04047 56.36857 77.025
      vertex -72.04047 72.04047 77.025
    endloop
  endfacet
  facet normal 0 -0 -1
    outer loop
      vertex 72.04047 72.04047 71.1
      vertex 72.04047 -72.04047 71.1
      vertex 56.36857 -72.04047 71.1
    endloop
  endfacet
  facet normal -0 0 -1
    outer loop
      vertex 72.04047 72.04047 71.1
      vertex 56.36857 -72.04047 71.1
      vertex 56.36857 72.04047 71.1
    endloop
  endfacet
  facet normal 0 0 1
    outer loop
      vertex 56.36857 72.04047 77.025
      vertex 56.36857 -72.04047 77.025
      vertex 72.04047 -72.04047 77.025
    endloop
  endfacet
  facet normal -0 0 1
    outer loop
      vertex 56.36857 72.04047 77.025
      vertex 72.04047 -72.04047 77.025
      vertex 72.04047 72.04047 77.025
    endloop
  endfacet
  facet normal -1 0 0
    outer loop
      vertex 56.36857 72.04047 71.1
      vertex 56.36857 -72.04047 71.1
      vertex 56.36857 -72.04047 77.025
    endloop
  endfacet
  facet normal -1 0 0
    outer loop
      vertex 56.36857 72.04047 71.1
      vertex 56.36857 -72.04047 77.025
      vertex 56.36857 72.04047 77.025
    endloop
  endfacet
  facet normal 0 -1 0
    outer loop
      vertex 56.36857 -72.04047 71.1
      vertex 72.04047 -72.04047 71.1
      vertex 72.04047 -72.04047 77.025
    endloop
  endfacet
  facet normal 0 -1 0
    outer loop
      vertex 56.36857 -72.04047 71.1
      vertex 72.04047 -72.04047 77.025
      vertex 56.36857 -72.04047 77.025
    endloop
  endfacet
  facet normal 1 0 0
    outer loop
      vertex 72.04047 -72.04047 71.1
      vertex 72.04047 72.04047 71.1
      vertex 72.04047 72.04047 77.025
    endloop
  endfacet
  facet normal 1 0 0
    outer loop
      vertex 72.04047 -72.04047 71.1
      vertex 72.04047 72.04047 77.025
      vertex 72.04047 -72.04047 77.025
    endloop
  endfacet
  facet normal 0 1 0
    outer loop
      vertex 72.04047 72.04047 71.1
      vertex 56.36857 72.04047 71.1
      vertex 56.36857 72.04047 77.025
    endloop
  endfacet
  facet normal 0 1 -0
    outer loop
      vertex 72.04047 72.04047 71.1
      vertex 56.36857 72.04047 77.025
      vertex 72.04047 72.04047 77.025
    endloop
  endfacet
  facet normal 0 0 -1
    outer loop
      vertex 72.04047 -72.04047 71.1
      vertex -72.04047 -72.04047 71.1
      vertex -72.04047 -56.36857 71.1
    endloop
  endfacet
  facet normal 0 0 -1
    outer loop
      vertex 72.04047 -72.04047 71.1
      vertex -72.04047 -56.36857 71.1
      vertex 72.04047 -56.36857 71.1
    endloop
  endfacet
  facet normal 0 0 1
    outer loop
      vertex 72.04047 -56.36857 77.025
      vertex -72.04047 -56.36857 77.025
      vertex -72.04047 -72.04047 77.025
    endloop
  endfacet
  facet normal 0 0 1
    outer loop
      vertex 72.04047 -56.36857 77.025
      vertex -72.04047 -72.04047 77.025
      vertex 72.04047 -72.04047 77.025
    endloop
  endfacet
  facet normal 0 1 0
    outer loop
      vertex 72.04047 -56.36857 71.1
      vertex -72.04047 -56.36857 71.1
      vertex -72.04047 -56.36857 77.025
    endloop
  endfacet
  facet normal 0 1 -0
    outer loop
      vertex 72.04047 -56.36857 71.1
      vertex -72.04047 -56.36857 77.025
      vertex 72.04047 -56.36857 77.025
    endloop
  endfacet
  facet normal -1 0 0
    outer loop
      vertex -72.04047 -56.36857 71.1
      vertex -72.04047 -72.04047 71.1
      vertex -72.04047 -72.04047 77.025
    endloop
  endfacet
  facet normal -1 0 0
    outer loop
      vertex -72.04047 -56.36857 71.1
      vertex -72.04047 -72.04047 77.025
      vertex -72.04047 -56.36857 77.025
    endloop
  endfacet
  facet normal 0 -1 0
    outer loop
      vertex -72.04047 -72.04047 71.1
      vertex 72.04047 -72.04047 71.1
      vertex 72.04047 -72.04047 77.025
    endloop
  endfacet
  facet normal 0 -1 0
    outer loop
      vertex -72.04047 -72.04047 71.1
      vertex 72.04047 -72.04047 77.025
      vertex -72.04047 -72.04047 77.025
    endloop
  endfacet
  facet normal 1 0 0
    outer loop
      vertex 72.04047 -72.04047 71.1
      vertex 72.04047 -56.36857 71.1
      vertex 72.04047 -56.36857 77.025
    endloop
  endfacet
  facet normal 1 0 0
    outer loop
      vertex 72.04047 -72.04047 71.1
      vertex 72.04047 -56.36857 77.025
      vertex 72.04047 -72.04047 77.025
    endloop
  endfacet
  facet normal 0 0 -1
    outer loop
      vertex -72.04047 -72.04047 71.1
      vertex -72.04047 72.04047 71.1
      vertex -56.36857 72.04047 71.1
    endloop
  endfacet
  facet normal 0 0 -1
    outer loop
      vertex -72.04047 -72.04047 71.1
      vertex -56.36857 72.04047 71.1
      vertex -56.36857 -72.04047 71.1
    endloop
  endfacet
  facet normal 0 -0 1
    outer loop
      vertex -56.36857 -72.04047 77.025
      vertex -56.36857 72.04047 77.025
      vertex -72.04047 72.04047 77.025
    endloop
  endfacet
  facet normal 0 0 1
    outer loop
      vertex -56.36857 -72.04047 77.025
      vertex -72.04047 72.04047 77.025
      vertex -72.04047 -72.04047 77.025
    endloop
  endfacet
  facet normal 1 0 0
    outer loop
      vertex -56.36857 -72.04047 71.1
      vertex -56.36857 72.04047 71.1
      vertex -56.36857 72.04047 77.025
    endloop
  endfacet
  facet normal 1 0 0
    outer loop
      vertex -56.36857 -72.04047 71.1
      vertex -56.36857 72.04047 77.025
      vertex -56.36857 -72.04047 77.025
    endloop
  endfacet
  facet normal 0 1 0
    outer loop
      vertex -56.36857 72.04047 71.1
      vertex -72.04047 72.04047 71.1
      vertex -72.04047 72.04047 77.025
    endloop
  endfacet
  facet normal 0 1 -0
    outer loop
      vertex -56.36857 72.04047 71.1
      vertex -72.04047 72.04047 77.025
      vertex -56.36857 72.04047 77.025
    endloop
  endfacet
  facet normal -1 0 0
    outer loop
      vertex -72.04047 72.04047 71.1
      vertex -72.04047 -72.04047 71.1
      vertex -72.04047 -72.04047 77.025
    endloop
  endfacet
  facet normal -1 0 0
    outer loop
      vertex -72.04047 72.04047 71.1
      vertex -72.04047 -72.04047 77.025
      vertex -72.04047 72.04047 77.025
    endloop
  endfacet
  facet normal 0 -1 0
    outer loop
      vertex -72.04047 -72.04047 71.1
      vertex -56.36857 -72.04047 71.1
      vertex -56.36857 -72.04047 77.025
    endloop
  endfacet
  facet normal 0 -1 0
    outer loop
      vertex -72.04047 -72.04047 71.1
      vertex -56.36857 -72.04047 77.025
      vertex -72.04047 -72.04047 77.025
    endloop
  endfacet
  facet normal 0 0 1
    outer loop
      vertex 54.04047 72.04047 77.025
      vertex 54.04047 54.04047 77.025
      vertex 72.04047 54.04047 77.025
    endloop
  endfacet
  facet normal 0 0 -1
    outer loop
      vertex 72.04047 54.04047 71.1
      vertex 54.04047 54.04047 71.1
      vertex 54.04047 72.04047 71.1
    endloop
  endfacet
  facet normal 0 -0 1
    outer loop
      vertex 72.04047 54.04047 77.025
      vertex 72.04047 65.74047 77.025
      vertex 65.74047 65.74047 77.025
    endloop
  endfacet
  facet normal 0 0 -1
    outer loop
      vertex 65.74047 65.74047 71.1
      vertex 72.04047 65.74047 71.1
      vertex 72.04047 54.04047 71.1
    endloop
  endfacet
  facet normal 0 0 1
    outer loop
      vertex 54.04047 72.04047 77.025
      vertex 72.04047 54.04047 77.025
      vertex 65.74047 65.74047 77.025
    endloop
  endfacet
  facet normal -0 -0 -1
    outer loop
      vertex 65.74047 65.74047 71.1
      vertex 72.04047 54.04047 71.1
      vertex 54.04047 72.04047 71.1
    endloop
  endfacet
  facet normal 0 -0 1
    outer loop
      vertex 65.74047 65.74047 77.025
      vertex 65.74047 72.04047 77.025
      vertex 54.04047 72.04047 77.025
    endloop
  endfacet
  facet normal 0 0 -1
    outer loop
      vertex 54.04047 72.04047 71.1
      vertex 65.74047 72.04047 71.1
      vertex 65.74047 65.74047 71.1
    endloop
  endfacet
  facet normal 0 -1 0
    outer loop
      vertex 54.04047 54.04047 71.1
      vertex 72.04047 54.04047 71.1
      vertex 72.04047 54.04047 77.025
    endloop
  endfacet
  facet normal 0 -1 0
    outer loop
      vertex 54.04047 54.04047 71.1
      vertex 72.04047 54.04047 77.025
      vertex 54.04047 54.04047 77.025
    endloop
  endfacet
  facet normal 1 0 0
    outer loop
      vertex 72.04047 54.04047 71.1
      vertex 72.04047 65.74047 71.1
      vertex 72.04047 65.74047 77.025
    endloop
  endfacet
  facet normal 1 0 0
    outer loop
      vertex 72.04047 54.04047 71.1
      vertex 72.04047 65.74047 77.025
      vertex 72.04047 54.04047 77.025
    endloop
  endfacet
  facet normal 0 1 0
    outer loop
      vertex 72.04047 65.74047 71.1
      vertex 65.74047 65.74047 71.1
      vertex 65.74047 65.74047 77.025
    endloop
  endfacet
  facet normal 0 1 -0
    outer loop
      vertex 72.04047 65.74047 71.1
      vertex 65.74047 65.74047 77.025
      vertex 72.04047 65.74047 77.025
    endloop
  endfacet
  facet normal 1 0 0
    outer loop
      vertex 65.74047 65.74047 71.1
      vertex 65.74047 72.04047 71.1
      vertex 65.74047 72.04047 77.025
    endloop
  endfacet
  facet normal 1 0 0
    outer loop
      vertex 65.74047 65.74047 71.1
      vertex 65.74047 72.04047 77.025
      vertex 65.74047 65.74047 77.025
    endloop
  endfacet
  facet normal 0 1 0
    outer loop
      vertex 65.74047 72.04047 71.1
      vertex 54.04047 72.04047 71.1
      vertex 54.04047 72.04047 77.025
    endloop
  endfacet
  facet normal 0 1 -0
    outer loop
      vertex 65.74047 72.04047 71.1
      vertex 54.04047 72.04047 77.025
      vertex 65.74047 72.04047 77.025
    endloop
  endfacet
  facet normal -1 0 0
    outer loop
      vertex 54.04047 72.04047 71.1
      vertex 54.04047 54.04047 71.1
      vertex 54.04047 54.04047 77.025
    endloop
  endfacet
  facet normal -1 0 0
    outer loop
      vertex 54.04047 72.04047 71.1
      vertex 54.04047 54.04047 77.025
      vertex 54.04047 72.04047 77.025
    endloop
  endfacet
  facet normal 0 0 1
    outer loop
      vertex 54.04047 -54.04047 77.025
      vertex 54.04047 -72.04047 77.025
      vertex 65.74047 -72.04047 77.025
    endloop
  endfacet
  facet normal 0 0 -1
    outer loop
      vertex 65.74047 -72.04047 71.1
      vertex 54.04047 -72.04047 71.1
      vertex 54.04047 -54.04047 71.1
    endloop
  endfacet
  facet normal 0 0 1
    outer loop
      vertex 54.04047 -54.04047 77.025
      vertex 65.74047 -72.04047 77.025
      vertex 65.74047 -65.74047 77.025
    endloop
  endfacet
  facet normal -0 -0 -1
    outer loop
      vertex 65.74047 -65.74047 71.1
      vertex 65.74047 -72.04047 71.1
      vertex 54.04047 -54.04047 71.1
    endloop
  endfacet
  facet normal 0 0 1
    outer loop
      vertex 54.04047 -54.04047 77.025
      vertex 65.74047 -65.74047 77.025
      vertex 72.04047 -65.74047 77.025
    endloop
  endfacet
  facet normal 0 0 -1
    outer loop
      vertex 72.04047 -65.74047 71.1
      vertex 65.74047 -65.74047 71.1
      vertex 54.04047 -54.04047 71.1
    endloop
  endfacet
  facet normal 0 -0 1
    outer loop
      vertex 72.04047 -65.74047 77.025
      vertex 72.04047 -54.04047 77.025
      vertex 54.04047 -54.04047 77.025
    endloop
  endfacet
  facet normal 0 0 -1
    outer loop
      vertex 54.04047 -54.04047 71.1
      vertex 72.04047 -54.04047 71.1
      vertex 72.04047 -65.74047 71.1
    endloop
  endfacet
  facet normal 0 -1 0
    outer loop
      vertex 54.04047 -72.04047 71.1
      vertex 65.74047 -72.04047 71.1
      vertex 65.74047 -72.04047 77.025
    endloop
  endfacet
  facet normal 0 -1 0
    outer loop
      vertex 54.04047 -72.04047 71.1
      vertex 65.74047 -72.04047 77.025
      vertex 54.04047 -72.04047 77.025
    endloop
  endfacet
  facet normal 1 0 0
    outer loop
      vertex 65.74047 -72.04047 71.1
      vertex 65.74047 -65.74047 71.1
      vertex 65.74047 -65.74047 77.025
    endloop
  endfacet
  facet normal 1 0 0
    outer loop
      vertex 65.74047 -72.04047 71.1
      vertex 65.74047 -65.74047 77.025
      vertex 65.74047 -72.04047 77.025
    endloop
  endfacet
  facet normal 0 -1 0
    outer loop
      vertex 65.74047 -65.74047 71.1
      vertex 72.04047 -65.74047 71.1
      vertex 72.04047 -65.74047 77.025
    endloop
  endfacet
  facet normal 0 -1 0
    outer loop
      vertex 65.74047 -65.74047 71.1
      vertex 72.04047 -65.74047 77.025
      vertex 65.74047 -65.74047 77.025
    endloop
  endfacet
  facet normal 1 0 0
    outer loop
      vertex 72.04047 -65.74047 71.1
      vertex 72.04047 -54.04047 71.1
      vertex 72.04047 -54.04047 77.025
    endloop
  endfacet
  facet normal 1 0 0
    outer loop
      vertex 72.04047 -65.74047 71.1
      vertex 72.04047 -54.04047 77.025
      vertex 72.04047 -65.74047 77.025
    endloop
  endfacet
  facet normal 0 1 0
    outer loop
      vertex 72.04047 -54.04047 71.1
      vertex 54.04047 -54.04047 71.1
      vertex 54.04047 -54.04047 77.025
    endloop
  endfacet
  facet normal 0 1 -0
    outer loop
      vertex 72.04047 -54.04047 71.1
      vertex 54.04047 -54.04047 77.025
      vertex 72.04047 -54.04047 77.025
    endloop
  endfacet
  facet normal -1 0 0
    outer loop
      vertex 54.04047 -54.04047 71.1
      vertex 54.04047 -72.04047 71.1
      vertex 54.04047 -72.04047 77.025
    endloop
  endfacet
  facet normal -1 0 0
    outer loop
      vertex 54.04047 -54.04047 71.1
      vertex 54.04047 -72.04047 77.025
      vertex 54.04047 -54.04047 77.025
    endloop
  endfacet
  facet normal 0 0 1
    outer loop
      vertex -65.74047 -65.74047 77.025
      vertex -65.74047 -72.04047 77.025
      vertex -54.04047 -72.04047 77.025
    endloop
  endfacet
  facet normal 0 0 -1
    outer loop
      vertex -54.04047 -72.04047 71.1
      vertex -65.74047 -72.04047 71.1
      vertex -65.74047 -65.74047 71.1
    endloop
  endfacet
  facet normal -0 0 1
    outer loop
      vertex -65.74047 -65.74047 77.025
      vertex -54.04047 -72.04047 77.025
      vertex -54.04047 -54.04047 77.025
    endloop
  endfacet
  facet normal 0 -0 -1
    outer loop
      vertex -54.04047 -54.04047 71.1
      vertex -54.04047 -72.04047 71.1
      vertex -65.74047 -65.74047 71.1
    endloop
  endfacet
  facet normal 0 -0 1
    outer loop
      vertex -65.74047 -65.74047 77.025
      vertex -54.04047 -54.04047 77.025
      vertex -72.04047 -54.04047 77.025
    endloop
  endfacet
  facet normal 0 0 -1
    outer loop
      vertex -72.04047 -54.04047 71.1
      vertex -54.04047 -54.04047 71.1
      vertex -65.74047 -65.74047 71.1
    endloop
  endfacet
  facet normal 0 0 1
    outer loop
      vertex -72.04047 -54.04047 77.025
      vertex -72.04047 -65.74047 77.025
      vertex -65.74047 -65.74047 77.025
    endloop
  endfacet
  facet normal 0 0 -1
    outer loop
      vertex -65.74047 -65.74047 71.1
      vertex -72.04047 -65.74047 71.1
      vertex -72.04047 -54.04047 71.1
    endloop
  endfacet
  facet normal 0 -1 0
    outer loop
      vertex -65.74047 -72.04047 71.1
      vertex -54.04047 -72.04047 71.1
      vertex -54.04047 -72.04047 77.025
    endloop
  endfacet
  facet normal 0 -1 0
    outer loop
      vertex -65.74047 -72.04047 71.1
      vertex -54.04047 -72.04047 77.025
      vertex -65.74047 -72.04047 77.025
    endloop
  endfacet
  facet normal 1 0 0
    outer loop
      vertex -54.04047 -72.04047 71.1
      vertex -54.04047 -54.04047 71.1
      vertex -54.04047 -54.04047 77.025
    endloop
  endfacet
  facet normal 1 0 0
    outer loop
      vertex -54.04047 -72.04047 71.1
      vertex -54.04047 -54.04047 77.025
      vertex -54.04047 -72.04047 77.025
    endloop
  endfacet
  facet normal 0 1 0
    outer loop
      vertex -54.04047 -54.04047 71.1
      vertex -72.04047 -54.04047 71.1
      vertex -72.04047 -54.04047 77.025
    endloop
  endfacet
  facet normal 0 1 -0
    outer loop
      vertex -54.04047 -54.04047 71.1
      vertex -72.04047 -54.04047 77.025
      vertex -54.04047 -54.04047 77.025
    endloop
  endfacet
  facet normal -1 0 0
    outer loop
      vertex -72.04047 -54.04047 71.1
      vertex -72.04047 -65.74047 71.1
      vertex -72.04047 -65.74047 77.025
    endloop
  endfacet
  facet normal -1 0 0
    outer loop
      vertex -72.04047 -54.04047 71.1
      vertex -72.04047 -65.74047 77.025
      vertex -72.04047 -54.04047 77.025
    endloop
  endfacet
  facet normal 0 -1 0
    outer loop
      vertex -72.04047 -65.74047 71.1
      vertex -65.74047 -65.74047 71.1
      vertex -65.74047 -65.74047 77.025
    endloop
  endfacet
  facet normal 0 -1 0
    outer loop
      vertex -72.04047 -65.74047 71.1
      vertex -65.74047 -65.74047 77.025
      vertex -72.04047 -65.74047 77.025
    endloop
  endfacet
  facet normal -1 0 0
    outer loop
      vertex -65.74047 -65.74047 71.1
      vertex -65.74047 -72.04047 71.1
      vertex -65.74047 -72.04047 77.025
    endloop
  endfacet
  facet normal -1 0 0
    outer loop
      vertex -65.74047 -65.74047 71.1
      vertex -65.74047 -72.04047 77.025
      vertex -65.74047 -65.74047 77.025
    endloop
  endfacet
  facet normal 0 0 1
    outer loop
      vertex -72.04047 65.74047 77.025
      vertex -72.04047 54.04047 77.025
      vertex -54.04047 54.04047 77.025
    endloop
  endfacet
  facet normal 0 0 -1
    outer loop
      vertex -54.04047 54.04047 71.1
      vertex -72.04047 54.04047 71.1
      vertex -72.04047 65.74047 71.1
    endloop
  endfacet
  facet normal 0 -0 1
    outer loop
      vertex -54.04047 54.04047 77.025
      vertex -54.04047 72.04047 77.025
      vertex -65.74047 72.04047 77.025
    endloop
  endfacet
  facet normal 0 0 -1
    outer loop
      vertex -65.74047 72.04047 71.1
      vertex -54.04047 72.04047 71.1
      vertex -54.04047 54.04047 71.1
    endloop
  endfacet
  facet normal 0 0 1
    outer loop
      vertex -54.04047 54.04047 77.025
      vertex -65.74047 72.04047 77.025
      vertex -65.74047 65.74047 77.025
    endloop
  endfacet
  facet normal 0 0 -1
    outer loop
      vertex -65.74047 65.74047 71.1
      vertex -65.74047 72.04047 71.1
      vertex -54.04047 54.04047 71.1
    endloop
  endfacet
  facet normal 0 0 1
    outer loop
      vertex -54.04047 54.04047 77.025
      vertex -65.74047 65.74047 77.025
      vertex -72.04047 65.74047 77.025
    endloop
  endfacet
  facet normal 0 0 -1
    outer loop
      vertex -72.04047 65.74047 71.1
      vertex -65.74047 65.74047 71.1
      vertex -54.04047 54.04047 71.1
    endloop
  endfacet
  facet normal 0 -1 0
    outer loop
      vertex -72.04047 54.04047 71.1
      vertex -54.04047 54.04047 71.1
      vertex -54.04047 54.04047 77.025
    endloop
  endfacet
  facet normal 0 -1 0
    outer loop
      vertex -72.04047 54.04047 71.1
      vertex -54.04047 54.04047 77.025
      vertex -72.04047 54.04047 77.025
    endloop
  endfacet
  facet normal 1 0 0
    outer loop
      vertex -54.04047 54.04047 71.1
      vertex -54.04047 72.04047 71.1
      vertex -54.04047 72.04047 77.025
    endloop
  endfacet
  facet normal 1 0 0
    outer loop
      vertex -54.04047 54.04047 71.1
      vertex -54.04047 72.04047 77.025
      vertex -54.04047 54.04047 77.025
    endloop
  endfacet
  facet normal 0 1 0
    outer loop
      vertex -54.04047 72.04047 71.1
      vertex -65.74047 72.04047 71.1
      vertex -65.74047 72.04047 77.025
    endloop
  endfacet
  facet normal 0 1 -0
    outer loop
      vertex -54.04047 72.04047 71.1
      vertex -65.74047 72.04047 77.025
      vertex -54.04047 72.04047 77.025
    endloop
  endfacet
  facet normal -1 0 0
    outer loop
      vertex -65.74047 72.04047 71.1
      vertex -65.74047 65.74047 71.1
      vertex -65.74047 65.74047 77.025
    endloop
  endfacet
  facet normal -1 0 0
    outer loop
      vertex -65.74047 72.04047 71.1
      vertex -65.74047 65.74047 77.025
      vertex -65.74047 72.04047 77.025
    endloop
  endfacet
  facet normal 0 1 0
    outer loop
      vertex -65.74047 65.74047 71.1
      vertex -72.04047 65.74047 71.1
      vertex -72.04047 65.74047 77.025
    endloop
  endfacet
  facet normal 0 1 -0
    outer loop
      vertex -65.74047 65.74047 71.1
      vertex -72.04047 65.74047 77.025
      vertex -65.74047 65.74047 77.025
    endloop
  endfacet
  facet normal -1 0 0
    outer loop
      vertex -72.04047 65.74047 71.1
      vertex -72.04047 54.04047 71.1
      vertex -72.04047 54.04047 77.025
    endloop
  endfacet
  facet normal -1 0 0
    outer loop
      vertex -72.04047 65.74047 71.1
      vertex -72.04047 54.04047 77.025
      vertex -72.04047 65.74047 77.025
    endloop
  endfacet
  facet normal 0 0 -1
    outer loop
      vertex 54.04047 54.04047 74.225
      vertex -27.02024 54.04047 74.225
      vertex -27.02024 72.04047 74.225
    endloop
  endfacet
  facet normal 0 0 -1
    outer loop
      vertex 54.04047 54.04047 74.225
      vertex -27.02024 72.04047 74.225
      vertex 54.04047 72.04047 74.225
    endloop
  endfacet
  facet normal 0 0 -1
    outer loop
      vertex -27.02024 54.04047 74.225
      vertex -54.04047 54.04047 74.225
      vertex -54.04047 72.04047 74.225
    endloop
  endfacet
  facet normal 0 0 -1
    outer loop
      vertex -27.02024 54.04047 74.225
      vertex -54.04047 72.04047 74.225
      vertex -27.02024 72.04047 74.225
    endloop
  endfacet
  facet normal 0.07289889 0 0.9973393
    outer loop
      vertex 54.04047 54.04047 77.025
      vertex -27.02024 72.04047 82.95
      vertex -27.02024 54.04047 82.95
    endloop
  endfacet
  facet normal 0.07289889 -0 0.9973393
    outer loop
      vertex 54.04047 54.04047 77.025
      vertex 54.04047 72.04047 77.025
      vertex -27.02024 72.04047 82.95
    endloop
  endfacet
  facet normal 0 0 1
    outer loop
      vertex -27.02024 54.04047 82.95
      vertex -54.04047 72.04047 82.95
      vertex -54.04047 54.04047 82.95
    endloop
  endfacet
  facet normal 0 -0 1
    outer loop
      vertex -27.02024 54.04047 82.95
      vertex -27.02024 72.04047 82.95
      vertex -54.04047 72.04047 82.95
    endloop
  endfacet
  facet normal 0 -1 0
    outer loop
      vertex 54.04047 54.04047 74.225
      vertex -27.02024 54.04047 82.95
      vertex -27.02024 54.04047 74.225
    endloop
  endfacet
  facet normal 0 -1 0
    outer loop
      vertex 54.04047 54.04047 74.225
      vertex 54.04047 54.04047 77.025
      vertex -27.02024 54.04047 82.95
    endloop
  endfacet
  facet normal 0 -1 0
    outer loop
      vertex -27.02024 54.04047 74.225
      vertex -54.04047 54.04047 82.95
      vertex -54.04047 54.04047 74.225
    endloop
  endfacet
  facet normal 0 -1 0
    outer loop
      vertex -27.02024 54.04047 74.225
      vertex -27.02024 54.04047 82.95
      vertex -54.04047 54.04047 82.95
    endloop
  endfacet
  facet normal 0 1 0
    outer loop
      vertex 54.04047 72.04047 74.225
      vertex -27.02024 72.04047 74.225
      vertex -27.02024 72.04047 82.95
    endloop
  endfacet
  facet normal 0 1 -0
    outer loop
      vertex 54.04047 72.04047 74.225
      vertex -27.02024 72.04047 82.95
      vertex 54.04047 72.04047 77.025
    endloop
  endfacet
  facet normal 0 1 0
    outer loop
      vertex -27.02024 72.04047 74.225
      vertex -54.04047 72.04047 74.225
      vertex -54.04047 72.04047 82.95
    endloop
  endfacet
  facet normal 0 1 -0
    outer loop
      vertex -27.02024 72.04047 74.225
      vertex -54.04047 72.04047 82.95
      vertex -27.02024 72.04047 82.95
    endloop
  endfacet
  facet normal 1 0 0
    outer loop
      vertex 54.04047 72.04047 74.225
      vertex 54.04047 54.04047 77.025
      vertex 54.04047 54.04047 74.225
    endloop
  endfacet
  facet normal 1 0 -0
    outer loop
      vertex 54.04047 72.04047 74.225
      vertex 54.04047 72.04047 77.025
      vertex 54.04047 54.04047 77.025
    endloop
  endfacet
  facet normal -1 0 0
    outer loop
      vertex -54.04047 54.04047 74.225
      vertex -54.04047 72.04047 82.95
      vertex -54.04047 72.04047 74.225
    endloop
  endfacet
  facet normal -1 0 0
    outer loop
      vertex -54.04047 54.04047 74.225
      vertex -54.04047 54.04047 82.95
      vertex -54.04047 72.04047 82.95
    endloop
  endfacet
  facet normal 0 0 -1
    outer loop
      vertex 54.04047 54.04047 74.225
      vertex 72.04047 -27.02024 74.225
      vertex 54.04047 -27.02024 74.225
    endloop
  endfacet
  facet normal 0 0 -1
    outer loop
      vertex 54.04047 54.04047 74.225
      vertex 72.04047 54.04047 74.225
      vertex 72.04047 -27.02024 74.225
    endloop
  endfacet
  facet normal 0 0 -1
    outer loop
      vertex 54.04047 -27.02024 74.225
      vertex 72.04047 -54.04047 74.225
      vertex 54.04047 -54.04047 74.225
    endloop
  endfacet
  facet normal 0 0 -1
    outer loop
      vertex 54.04047 -27.02024 74.225
      vertex 72.04047 -27.02024 74.225
      vertex 72.04047 -54.04047 74.225
    endloop
  endfacet
  facet normal 0 0.07289889 0.9973393
    outer loop
      vertex 54.04047 54.04047 77.025
      vertex 54.04047 -27.02024 82.95
      vertex 72.04047 -27.02024 82.95
    endloop
  endfacet
  facet normal -0 0.07289889 0.9973393
    outer loop
      vertex 54.04047 54.04047 77.025
      vertex 72.04047 -27.02024 82.95
      vertex 72.04047 54.04047 77.025
    endloop
  endfacet
  facet normal 0 0 1
    outer loop
      vertex 54.04047 -27.02024 82.95
      vertex 54.04047 -54.04047 82.95
      vertex 72.04047 -54.04047 82.95
    endloop
  endfacet
  facet normal -0 0 1
    outer loop
      vertex 54.04047 -27.02024 82.95
      vertex 72.04047 -54.04047 82.95
      vertex 72.04047 -27.02024 82.95
    endloop
  endfacet
  facet normal -1 0 0
    outer loop
      vertex 54.04047 54.04047 74.225
      vertex 54.04047 -27.02024 74.225
      vertex 54.04047 -27.02024 82.95
    endloop
  endfacet
  facet normal -1 0 0
    outer loop
      vertex 54.04047 54.04047 74.225
      vertex 54.04047 -27.02024 82.95
      vertex 54.04047 54.04047 77.025
    endloop
  endfacet
  facet normal -1 0 0
    outer loop
      vertex 54.04047 -27.02024 74.225
      vertex 54.04047 -54.04047 74.225
      vertex 54.04047 -54.04047 82.95
    endloop
  endfacet
  facet normal -1 0 0
    outer loop
      vertex 54.04047 -27.02024 74.225
      vertex 54.04047 -54.04047 82.95
      vertex 54.04047 -27.02024 82.95
    endloop
  endfacet
  facet normal 1 0 0
    outer loop
      vertex 72.04047 54.04047 74.225
      vertex 72.04047 -27.02024 82.95
      vertex 72.04047 -27.02024 74.225
    endloop
  endfacet
  facet normal 1 0 -0
    outer loop
      vertex 72.04047 54.04047 74.225
      vertex 72.04047 54.04047 77.025
      vertex 72.04047 -27.02024 82.95
    endloop
  endfacet
  facet normal 1 0 0
    outer loop
      vertex 72.04047 -27.02024 74.225
      vertex 72.04047 -54.04047 82.95
      vertex 72.04047 -54.04047 74.225
    endloop
  endfacet
  facet normal 1 0 -0
    outer loop
      vertex 72.04047 -27.02024 74.225
      vertex 72.04047 -27.02024 82.95
      vertex 72.04047 -54.04047 82.95
    endloop
  endfacet
  facet normal 0 1 0
    outer loop
      vertex 72.04047 54.04047 74.225
      vertex 54.04047 54.04047 74.225
      vertex 54.04047 54.04047 77.025
    endloop
  endfacet
  facet normal 0 1 -0
    outer loop
      vertex 72.04047 54.04047 74.225
      vertex 54.04047 54.04047 77.025
      vertex 72.04047 54.04047 77.025
    endloop
  endfacet
  facet normal 0 -1 0
    outer loop
      vertex 54.04047 -54.04047 74.225
      vertex 72.04047 -54.04047 74.225
      vertex 72.04047 -54.04047 82.95
    endloop
  endfacet
  facet normal 0 -1 0
    outer loop
      vertex 54.04047 -54.04047 74.225
      vertex 72.04047 -54.04047 82.95
      vertex 54.04047 -54.04047 82.95
    endloop
  endfacet
  facet normal 0 0 -1
    outer loop
      vertex -54.04047 -54.04047 74.225
      vertex 27.02024 -54.04047 74.225
      vertex 27.02024 -72.04047 74.225
    endloop
  endfacet
  facet normal 0 0 -1
    outer loop
      vertex -54.04047 -54.04047 74.225
      vertex 27.02024 -72.04047 74.225
      vertex -54.04047 -72.04047 74.225
    endloop
  endfacet
  facet normal 0 0 -1
    outer loop
      vertex 27.02024 -54.04047 74.225
      vertex 54.04047 -54.04047 74.225
      vertex 54.04047 -72.04047 74.225
    endloop
  endfacet
  facet normal 0 0 -1
    outer loop
      vertex 27.02024 -54.04047 74.225
      vertex 54.04047 -72.04047 74.225
      vertex 27.02024 -72.04047 74.225
    endloop
  endfacet
  facet normal -0.07289889 0 0.9973393
    outer loop
      vertex -54.04047 -54.04047 77.025
      vertex 27.02024 -72.04047 82.95
      vertex 27.02024 -54.04047 82.95
    endloop
  endfacet
  facet normal -0.07289889 0 0.9973393
    outer loop
      vertex -54.04047 -54.04047 77.025
      vertex -54.04047 -72.04047 77.025
      vertex 27.02024 -72.04047 82.95
    endloop
  endfacet
  facet normal -0 0 1
    outer loop
      vertex 27.02024 -54.04047 82.95
      vertex 54.04047 -72.04047 82.95
      vertex 54.04047 -54.04047 82.95
    endloop
  endfacet
  facet normal 0 0 1
    outer loop
      vertex 27.02024 -54.04047 82.95
      vertex 27.02024 -72.04047 82.95
      vertex 54.04047 -72.04047 82.95
    endloop
  endfacet
  facet normal 0 1 0
    outer loop
      vertex -54.04047 -54.04047 74.225
      vertex 27.02024 -54.04047 82.95
      vertex 27.02024 -54.04047 74.225
    endloop
  endfacet
  facet normal 0 1 0
    outer loop
      vertex -54.04047 -54.04047 74.225
      vertex -54.04047 -54.04047 77.025
      vertex 27.02024 -54.04047 82.95
    endloop
  endfacet
  facet normal 0 1 0
    outer loop
      vertex 27.02024 -54.04047 74.225
      vertex 54.04047 -54.04047 82.95
      vertex 54.04047 -54.04047 74.225
    endloop
  endfacet
  facet normal 0 1 0
    outer loop
      vertex 27.02024 -54.04047 74.225
      vertex 27.02024 -54.04047 82.95
      vertex 54.04047 -54.04047 82.95
    endloop
  endfacet
  facet normal 0 -1 0
    outer loop
      vertex -54.04047 -72.04047 74.225
      vertex 27.02024 -72.04047 74.225
      vertex 27.02024 -72.04047 82.95
    endloop
  endfacet
  facet normal 0 -1 0
    outer loop
      vertex -54.04047 -72.04047 74.225
      vertex 27.02024 -72.04047 82.95
      vertex -54.04047 -72.04047 77.025
    endloop
  endfacet
  facet normal 0 -1 0
    outer loop
      vertex 27.02024 -72.04047 74.225
      vertex 54.04047 -72.04047 74.225
      vertex 54.04047 -72.04047 82.95
    endloop
  endfacet
  facet normal 0 -1 0
    outer loop
      vertex 27.02024 -72.04047 74.225
      vertex 54.04047 -72.04047 82.95
      vertex 27.02024 -72.04047 82.95
    endloop
  endfacet
  facet normal -1 0 0
    outer loop
      vertex -54.04047 -72.04047 74.225
      vertex -54.04047 -54.04047 77.025
      vertex -54.04047 -54.04047 74.225
    endloop
  endfacet
  facet normal -1 0 0
    outer loop
      vertex -54.04047 -72.04047 74.225
      vertex -54.04047 -72.04047 77.025
      vertex -54.04047 -54.04047 77.025
    endloop
  endfacet
  facet normal 1 0 0
    outer loop
      vertex 54.04047 -54.04047 74.225
      vertex 54.04047 -72.04047 82.95
      vertex 54.04047 -72.04047 74.225
    endloop
  endfacet
  facet normal 1 0 -0
    outer loop
      vertex 54.04047 -54.04047 74.225
      vertex 54.04047 -54.04047 82.95
      vertex 54.04047 -72.04047 82.95
    endloop
  endfacet
  facet normal 0 0 -1
    outer loop
      vertex -54.04047 -54.04047 74.225
      vertex -72.04047 27.02024 74.225
      vertex -54.04047 27.02024 74.225
    endloop
  endfacet
  facet normal 0 0 -1
    outer loop
      vertex -54.04047 -54.04047 74.225
      vertex -72.04047 -54.04047 74.225
      vertex -72.04047 27.02024 74.225
    endloop
  endfacet
  facet normal 0 0 -1
    outer loop
      vertex -54.04047 27.02024 74.225
      vertex -72.04047 54.04047 74.225
      vertex -54.04047 54.04047 74.225
    endloop
  endfacet
  facet normal 0 0 -1
    outer loop
      vertex -54.04047 27.02024 74.225
      vertex -72.04047 27.02024 74.225
      vertex -72.04047 54.04047 74.225
    endloop
  endfacet
  facet normal 0 -0.07289889 0.9973393
    outer loop
      vertex -54.04047 -54.04047 77.025
      vertex -54.04047 27.02024 82.95
      vertex -72.04047 27.02024 82.95
    endloop
  endfacet
  facet normal 0 -0.07289889 0.9973393
    outer loop
      vertex -54.04047 -54.04047 77.025
      vertex -72.04047 27.02024 82.95
      vertex -72.04047 -54.04047 77.025
    endloop
  endfacet
  facet normal 0 -0 1
    outer loop
      vertex -54.04047 27.02024 82.95
      vertex -54.04047 54.04047 82.95
      vertex -72.04047 54.04047 82.95
    endloop
  endfacet
  facet normal 0 0 1
    outer loop
      vertex -54.04047 27.02024 82.95
      vertex -72.04047 54.04047 82.95
      vertex -72.04047 27.02024 82.95
    endloop
  endfacet
  facet normal 1 0 0
    outer loop
      vertex -54.04047 -54.04047 74.225
      vertex -54.04047 27.02024 74.225
      vertex -54.04047 27.02024 82.95
    endloop
  endfacet
  facet normal 1 0 0
    outer loop
      vertex -54.04047 -54.04047 74.225
      vertex -54.04047 27.02024 82.95
      vertex -54.04047 -54.04047 77.025
    endloop
  endfacet
  facet normal 1 0 0
    outer loop
      vertex -54.04047 27.02024 74.225
      vertex -54.04047 54.04047 74.225
      vertex -54.04047 54.04047 82.95
    endloop
  endfacet
  facet normal 1 0 0
    outer loop
      vertex -54.04047 27.02024 74.225
      vertex -54.04047 54.04047 82.95
      vertex -54.04047 27.02024 82.95
    endloop
  endfacet
  facet normal -1 0 0
    outer loop
      vertex -72.04047 -54.04047 74.225
      vertex -72.04047 27.02024 82.95
      vertex -72.04047 27.02024 74.225
    endloop
  endfacet
  facet normal -1 0 0
    outer loop
      vertex -72.04047 -54.04047 74.225
      vertex -72.04047 -54.04047 77.025
      vertex -72.04047 27.02024 82.95
    endloop
  endfacet
  facet normal -1 0 0
    outer loop
      vertex -72.04047 27.02024 74.225
      vertex -72.04047 54.04047 82.95
      vertex -72.04047 54.04047 74.225
    endloop
  endfacet
  facet normal -1 0 0
    outer loop
      vertex -72.04047 27.02024 74.225
      vertex -72.04047 27.02024 82.95
      vertex -72.04047 54.04047 82.95
    endloop
  endfacet
  facet normal 0 -1 0
    outer loop
      vertex -72.04047 -54.04047 74.225
      vertex -54.04047 -54.04047 74.225
      vertex -54.04047 -54.04047 77.025
    endloop
  endfacet
  facet normal 0 -1 0
    outer loop
      vertex -72.04047 -54.04047 74.225
      vertex -54.04047 -54.04047 77.025
      vertex -72.04047 -54.04047 77.025
    endloop
  endfacet
  facet normal 0 1 0
    outer loop
      vertex -54.04047 54.04047 74.225
      vertex -72.04047 54.04047 74.225
      vertex -72.04047 54.04047 82.95
    endloop
  endfacet
  facet normal 0 1 -0
    outer loop
      vertex -54.04047 54.04047 74.225
      vertex -72.04047 54.04047 82.95
      vertex -54.04047 54.04047 82.95
    endloop
  endfacet
  facet normal 0 0 1
    outer loop
      vertex 54.04047 72.04047 77.025
      vertex 54.04047 54.04047 77.025
      vertex 72.04047 54.04047 77.025
    endloop
  endfacet
  facet normal 0 0 -1
    outer loop
      vertex 72.04047 54.04047 74.225
      vertex 54.04047 54.04047 74.225
      vertex 54.04047 72.04047 74.225
    endloop
  endfacet
  facet normal 0 -0 1
    outer loop
      vertex 72.04047 54.04047 77.025
      vertex 72.04047 65.74047 77.025
      vertex 65.74047 65.74047 77.025
    endloop
  endfacet
  facet normal 0 0 -1
    outer loop
      vertex 65.74047 65.74047 74.225
      vertex 72.04047 65.74047 74.225
      vertex 72.04047 54.04047 74.225
    endloop
  endfacet
  facet normal 0 0 1
    outer loop
      vertex 54.04047 72.04047 77.025
      vertex 72.04047 54.04047 77.025
      vertex 65.74047 65.74047 77.025
    endloop
  endfacet
  facet normal -0 -0 -1
    outer loop
      vertex 65.74047 65.74047 74.225
      vertex 72.04047 54.04047 74.225
      vertex 54.04047 72.04047 74.225
    endloop
  endfacet
  facet normal 0 -0 1
    outer loop
      vertex 65.74047 65.74047 77.025
      vertex 65.74047 72.04047 77.025
      vertex 54.04047 72.04047 77.025
    endloop
  endfacet
  facet normal 0 0 -1
    outer loop
      vertex 54.04047 72.04047 74.225
      vertex 65.74047 72.04047 74.225
      vertex 65.74047 65.74047 74.225
    endloop
  endfacet
  facet normal 0 -1 0
    outer loop
      vertex 54.04047 54.04047 74.225
      vertex 72.04047 54.04047 74.225
      vertex 72.04047 54.04047 77.025
    endloop
  endfacet
  facet normal 0 -1 0
    outer loop
      vertex 54.04047 54.04047 74.225
      vertex 72.04047 54.04047 77.025
      vertex 54.04047 54.04047 77.025
    endloop
  endfacet
  facet normal 1 0 0
    outer loop
      vertex 72.04047 54.04047 74.225
      vertex 72.04047 65.74047 74.225
      vertex 72.04047 65.74047 77.025
    endloop
  endfacet
  facet normal 1 0 0
    outer loop
      vertex 72.04047 54.04047 74.225
      vertex 72.04047 65.74047 77.025
      vertex 72.04047 54.04047 77.025
    endloop
  endfacet
  facet normal 0 1 0
    outer loop
      vertex 72.04047 65.74047 74.225
      vertex 65.74047 65.74047 74.225
      vertex 65.74047 65.74047 77.025
    endloop
  endfacet
  facet normal 0 1 -0
    outer loop
      vertex 72.04047 65.74047 74.225
      vertex 65.74047 65.74047 77.025
      vertex 72.04047 65.74047 77.025
    endloop
  endfacet
  facet normal 1 0 0
    outer loop
      vertex 65.74047 65.74047 74.225
      vertex 65.74047 72.04047 74.225
      vertex 65.74047 72.04047 77.025
    endloop
  endfacet
  facet normal 1 0 0
    outer loop
      vertex 65.74047 65.74047 74.225
      vertex 65.74047 72.04047 77.025
      vertex 65.74047 65.74047 77.025
    endloop
  endfacet
  facet normal 0 1 0
    outer loop
      vertex 65.74047 72.04047 74.225
      vertex 54.04047 72.04047 74.225
      vertex 54.04047 72.04047 77.025
    endloop
  endfacet
  facet normal 0 1 -0
    outer loop
      vertex 65.74047 72.04047 74.225
      vertex 54.04047 72.04047 77.025
      vertex 65.74047 72.04047 77.025
    endloop
  endfacet
  facet normal -1 0 0
    outer loop
      vertex 54.04047 72.04047 74.225
      vertex 54.04047 54.04047 74.225
      vertex 54.04047 54.04047 77.025
    endloop
  endfacet
  facet normal -1 0 0
    outer loop
      vertex 54.04047 72.04047 74.225
      vertex 54.04047 54.04047 77.025
      vertex 54.04047 72.04047 77.025
    endloop
  endfacet
  facet normal 0 0 1
    outer loop
      vertex 54.04047 -54.04047 82.95
      vertex 54.04047 -72.04047 82.95
      vertex 65.74047 -72.04047 82.95
    endloop
  endfacet
  facet normal 0 0 -1
    outer loop
      vertex 65.74047 -72.04047 74.225
      vertex 54.04047 -72.04047 74.225
      vertex 54.04047 -54.04047 74.225
    endloop
  endfacet
  facet normal 0 0 1
    outer loop
      vertex 54.04047 -54.04047 82.95
      vertex 65.74047 -72.04047 82.95
      vertex 65.74047 -65.74047 82.95
    endloop
  endfacet
  facet normal -0 -0 -1
    outer loop
      vertex 65.74047 -65.74047 74.225
      vertex 65.74047 -72.04047 74.225
      vertex 54.04047 -54.04047 74.225
    endloop
  endfacet
  facet normal 0 0 1
    outer loop
      vertex 54.04047 -54.04047 82.95
      vertex 65.74047 -65.74047 82.95
      vertex 72.04047 -65.74047 82.95
    endloop
  endfacet
  facet normal 0 0 -1
    outer loop
      vertex 72.04047 -65.74047 74.225
      vertex 65.74047 -65.74047 74.225
      vertex 54.04047 -54.04047 74.225
    endloop
  endfacet
  facet normal 0 -0 1
    outer loop
      vertex 72.04047 -65.74047 82.95
      vertex 72.04047 -54.04047 82.95
      vertex 54.04047 -54.04047 82.95
    endloop
  endfacet
  facet normal 0 0 -1
    outer loop
      vertex 54.04047 -54.04047 74.225
      vertex 72.04047 -54.04047 74.225
      vertex 72.04047 -65.74047 74.225
    endloop
  endfacet
  facet normal 0 -1 0
    outer loop
      vertex 54.04047 -72.04047 74.225
      vertex 65.74047 -72.04047 74.225
      vertex 65.74047 -72.04047 82.95
    endloop
  endfacet
  facet normal 0 -1 0
    outer loop
      vertex 54.04047 -72.04047 74.225
      vertex 65.74047 -72.04047 82.95
      vertex 54.04047 -72.04047 82.95
    endloop
  endfacet
  facet normal 1 0 0
    outer loop
      vertex 65.74047 -72.04047 74.225
      vertex 65.74047 -65.74047 74.225
      vertex 65.74047 -65.74047 82.95
    endloop
  endfacet
  facet normal 1 0 0
    outer loop
      vertex 65.74047 -72.04047 74.225
      vertex 65.74047 -65.74047 82.95
      vertex 65.74047 -72.04047 82.95
    endloop
  endfacet
  facet normal 0 -1 0
    outer loop
      vertex 65.74047 -65.74047 74.225
      vertex 72.04047 -65.74047 74.225
      vertex 72.04047 -65.74047 82.95
    endloop
  endfacet
  facet normal 0 -1 0
    outer loop
      vertex 65.74047 -65.74047 74.225
      vertex 72.04047 -65.74047 82.95
      vertex 65.74047 -65.74047 82.95
    endloop
  endfacet
  facet normal 1 0 0
    outer loop
      vertex 72.04047 -65.74047 74.225
      vertex 72.04047 -54.04047 74.225
      vertex 72.04047 -54.04047 82.95
    endloop
  endfacet
  facet normal 1 0 0
    outer loop
      vertex 72.04047 -65.74047 74.225
      vertex 72.04047 -54.04047 82.95
      vertex 72.04047 -65.74047 82.95
    endloop
  endfacet
  facet normal 0 1 0
    outer loop
      vertex 72.04047 -54.04047 74.225
      vertex 54.04047 -54.04047 74.225
      vertex 54.04047 -54.04047 82.95
    endloop
  endfacet
  facet normal 0 1 -0
    outer loop
      vertex 72.04047 -54.04047 74.225
      vertex 54.04047 -54.04047 82.95
      vertex 72.04047 -54.04047 82.95
    endloop
  endfacet
  facet normal -1 0 0
    outer loop
      vertex 54.04047 -54.04047 74.225
      vertex 54.04047 -72.04047 74.225
      vertex 54.04047 -72.04047 82.95
    endloop
  endfacet
  facet normal -1 0 0
    outer loop
      vertex 54.04047 -54.04047 74.225
      vertex 54.04047 -72.04047 82.95
      vertex 54.04047 -54.04047 82.95
    endloop
  endfacet
  facet normal 0 0 1
    outer loop
      vertex -65.74047 -65.74047 77.025
      vertex -65.74047 -72.04047 77.025
      vertex -54.04047 -72.04047 77.025
    endloop
  endfacet
  facet normal 0 0 -1
    outer loop
      vertex -54.04047 -72.04047 74.225
      vertex -65.74047 -72.04047 74.225
      vertex -65.74047 -65.74047 74.225
    endloop
  endfacet
  facet normal -0 0 1
    outer loop
      vertex -65.74047 -65.74047 77.025
      vertex -54.04047 -72.04047 77.025
      vertex -54.04047 -54.04047 77.025
    endloop
  endfacet
  facet normal 0 -0 -1
    outer loop
      vertex -54.04047 -54.04047 74.225
      vertex -54.04047 -72.04047 74.225
      vertex -65.74047 -65.74047 74.225
    endloop
  endfacet
  facet normal 0 -0 1
    outer loop
      vertex -65.74047 -65.74047 77.025
      vertex -54.04047 -54.04047 77.025
      vertex -72.04047 -54.04047 77.025
    endloop
  endfacet
  facet normal 0 0 -1
    outer loop
      vertex -72.04047 -54.04047 74.225
      vertex -54.04047 -54.04047 74.225
      vertex -65.74047 -65.74047 74.225
    endloop
  endfacet
  facet normal 0 0 1
    outer loop
      vertex -72.04047 -54.04047 77.025
      vertex -72.04047 -65.74047 77.025
      vertex -65.74047 -65.74047 77.025
    endloop
  endfacet
  facet normal 0 0 -1
    outer loop
      vertex -65.74047 -65.74047 74.225
      vertex -72.04047 -65.74047 74.225
      vertex -72.04047 -54.04047 74.225
    endloop
  endfacet
  facet normal 0 -1 0
    outer loop
      vertex -65.74047 -72.04047 74.225
      vertex -54.04047 -72.04047 74.225
      vertex -54.04047 -72.04047 77.025
    endloop
  endfacet
  facet normal 0 -1 0
    outer loop
      vertex -65.74047 -72.04047 74.225
      vertex -54.04047 -72.04047 77.025
      vertex -65.74047 -72.04047 77.025
    endloop
  endfacet
  facet normal 1 0 0
    outer loop
      vertex -54.04047 -72.04047 74.225
      vertex -54.04047 -54.04047 74.225
      vertex -54.04047 -54.04047 77.025
    endloop
  endfacet
  facet normal 1 0 0
    outer loop
      vertex -54.04047 -72.04047 74.225
      vertex -54.04047 -54.04047 77.025
      vertex -54.04047 -72.04047 77.025
    endloop
  endfacet
  facet normal 0 1 0
    outer loop
      vertex -54.04047 -54.04047 74.225
      vertex -72.04047 -54.04047 74.225
      vertex -72.04047 -54.04047 77.025
    endloop
  endfacet
  facet normal 0 1 -0
    outer loop
      vertex -54.04047 -54.04047 74.225
      vertex -72.04047 -54.04047 77.025
      vertex -54.04047 -54.04047 77.025
    endloop
  endfacet
  facet normal -1 0 0
    outer loop
      vertex -72.04047 -54.04047 74.225
      vertex -72.04047 -65.74047 74.225
      vertex -72.04047 -65.74047 77.025
    endloop
  endfacet
  facet normal -1 0 0
    outer loop
      vertex -72.04047 -54.04047 74.225
      vertex -72.04047 -65.74047 77.025
      vertex -72.04047 -54.04047 77.025
    endloop
  endfacet
  facet normal 0 -1 0
    outer loop
      vertex -72.04047 -65.74047 74.225
      vertex -65.74047 -65.74047 74.225
      vertex -65.74047 -65.74047 77.025
    endloop
  endfacet
  facet normal 0 -1 0
    outer loop
      vertex -72.04047 -65.74047 74.225
      vertex -65.74047 -65.74047 77.025
      vertex -72.04047 -65.74047 77.025
    endloop
  endfacet
  facet normal -1 0 0
    outer loop
      vertex -65.74047 -65.74047 74.225
      vertex -65.74047 -72.04047 74.225
      vertex -65.74047 -72.04047 77.025
    endloop
  endfacet
  facet normal -1 0 0
    outer loop
      vertex -65.74047 -65.74047 74.225
      vertex -65.74047 -72.04047 77.025
      vertex -65.74047 -65.74047 77.025
    endloop
  endfacet
  facet normal 0 0 1
    outer loop
      vertex -72.04047 65.74047 82.95
      vertex -72.04047 54.04047 82.95
      vertex -54.04047 54.04047 82.95
    endloop
  endfacet
  facet normal 0 0 -1
    outer loop
      vertex -54.04047 54.04047 74.225
      vertex -72.04047 54.04047 74.225
      vertex -72.04047 65.74047 74.225
    endloop
  endfacet
  facet normal 0 -0 1
    outer loop
      vertex -54.04047 54.04047 82.95
      vertex -54.04047 72.04047 82.95
      vertex -65.74047 72.04047 82.95
    endloop
  endfacet
  facet normal 0 0 -1
    outer loop
      vertex -65.74047 72.04047 74.225
      vertex -54.04047 72.04047 74.225
      vertex -54.04047 54.04047 74.225
    endloop
  endfacet
  facet normal 0 0 1
    outer loop
      vertex -54.04047 54.04047 82.95
      vertex -65.74047 72.04047 82.95
      vertex -65.74047 65.74047 82.95
    endloop
  endfacet
  facet normal 0 0 -1
    outer loop
      vertex -65.74047 65.74047 74.225
      vertex -65.74047 72.04047 74.225
      vertex -54.04047 54.04047 74.225
    endloop
  endfacet
  facet normal 0 0 1
    outer loop
      vertex -54.04047 54.04047 82.95
      vertex -65.74047 65.74047 82.95
      vertex -72.04047 65.74047 82.95
    endloop
  endfacet
  facet normal 0 0 -1
    outer loop
      vertex -72.04047 65.74047 74.225
      vertex -65.74047 65.74047 74.225
      vertex -54.04047 54.04047 74.225
    endloop
  endfacet
  facet normal 0 -1 0
    outer loop
      vertex -72.04047 54.04047 74.225
      vertex -54.04047 54.04047 74.225
      vertex -54.04047 54.04047 82.95
    endloop
  endfacet
  facet normal 0 -1 0
    outer loop
      vertex -72.04047 54.04047 74.225
      vertex -54.04047 54.04047 82.95
      vertex -72.04047 54.04047 82.95
    endloop
  endfacet
  facet normal 1 0 0
    outer loop
      vertex -54.04047 54.04047 74.225
      vertex -54.04047 72.04047 74.225
      vertex -54.04047 72.04047 82.95
    endloop
  endfacet
  facet normal 1 0 0
    outer loop
      vertex -54.04047 54.04047 74.225
      vertex -54.04047 72.04047 82.95
      vertex -54.04047 54.04047 82.95
    endloop
  endfacet
  facet normal 0 1 0
    outer loop
      vertex -54.04047 72.04047 74.225
      vertex -65.74047 72.04047 74.225
      vertex -65.74047 72.04047 82.95
    endloop
  endfacet
  facet normal 0 1 -0
    outer loop
      vertex -54.04047 72.04047 74.225
      vertex -65.74047 72.04047 82.95
      vertex -54.04047 72.04047 82.95
    endloop
  endfacet
  facet normal -1 0 0
    outer loop
      vertex -65.74047 72.04047 74.225
      vertex -65.74047 65.74047 74.225
      vertex -65.74047 65.74047 82.95
    endloop
  endfacet
  facet normal -1 0 0
    outer loop
      vertex -65.74047 72.04047 74.225
      vertex -65.74047 65.74047 82.95
      vertex -65.74047 72.04047 82.95
    endloop
  endfacet
  facet normal 0 1 0
    outer loop
      vertex -65.74047 65.74047 74.225
      vertex -72.04047 65.74047 74.225
      vertex -72.04047 65.74047 82.95
    endloop
  endfacet
  facet normal 0 1 -0
    outer loop
      vertex -65.74047 65.74047 74.225
      vertex -72.04047 65.74047 82.95
      vertex -65.74047 65.74047 82.95
    endloop
  endfacet
  facet normal -1 0 0
    outer loop
      vertex -72.04047 65.74047 74.225
      vertex -72.04047 54.04047 74.225
      vertex -72.04047 54.04047 82.95
    endloop
  endfacet
  facet normal -1 0 0
    outer loop
      vertex -72.04047 65.74047 74.225
      vertex -72.04047 54.04047 82.95
      vertex -72.04047 65.74047 82.95
    endloop
  endfacet
endsolid temporary_switchback_ramp_layer_14
