solid temporary_switchback_ramp_layer_06
  facet normal 0 0 1
    outer loop
      vertex -109.29 -102.64 26.825
      vertex -102.64 -102.64 26.825
      vertex -102.64 -91.63998 26.825
    endloop
  endfacet
  facet normal 0 0 1
    outer loop
      vertex -109.29 -102.64 26.825
      vertex -102.64 -91.63998 26.825
      vertex -109.29 -91.63998 26.825
    endloop
  endfacet
  facet normal 0 0 -1
    outer loop
      vertex -109.29 -91.63998 23.7
      vertex -102.64 -91.63998 23.7
      vertex -102.64 -102.64 23.7
    endloop
  endfacet
  facet normal 0 0 -1
    outer loop
      vertex -109.29 -91.63998 23.7
      vertex -102.64 -102.64 23.7
      vertex -109.29 -102.64 23.7
    endloop
  endfacet
  facet normal 0 -1 0
    outer loop
      vertex -109.29 -102.64 23.7
      vertex -102.64 -102.64 23.7
      vertex -102.64 -102.64 26.825
    endloop
  endfacet
  facet normal 0 -1 0
    outer loop
      vertex -109.29 -102.64 23.7
      vertex -102.64 -102.64 26.825
      vertex -109.29 -102.64 26.825
    endloop
  endfacet
  facet normal -1 0 0
    outer loop
      vertex -109.29 -91.63998 23.7
      vertex -109.29 -102.64 23.7
      vertex -109.29 -102.64 26.825
    endloop
  endfacet
  facet normal -1 0 0
    outer loop
      vertex -109.29 -91.63998 23.7
      vertex -109.29 -102.64 26.825
      vertex -109.29 -91.63998 26.825
    endloop
  endfacet
  facet normal 0 0 1
    outer loop
      vertex -109.29 -91.63998 26.825
      vertex -102.64 -91.63998 26.825
      vertex -102.64 91.63998 26.825
    endloop
  endfacet
  facet normal 0 0 1
    outer loop
      vertex -109.29 -91.63998 26.825
      vertex -102.64 91.63998 26.825
      vertex -109.29 91.63998 26.825
    endloop
  endfacet
  facet normal 0 0 -1
    outer loop
      vertex -109.29 91.63998 23.7
      vertex -102.64 91.63998 23.7
      vertex -102.64 -91.63998 23.7
    endloop
  endfacet
  facet normal 0 0 -1
    outer loop
      vertex -109.29 91.63998 23.7
      vertex -102.64 -91.63998 23.7
      vertex -109.29 -91.63998 23.7
    endloop
  endfacet
  facet normal -1 0 0
    outer loop
      vertex -109.29 91.63998 23.7
      vertex -109.29 -91.63998 23.7
      vertex -109.29 -91.63998 26.825
    endloop
  endfacet
  facet normal -1 0 0
    outer loop
      vertex -109.29 91.63998 23.7
      vertex -109.29 -91.63998 26.825
      vertex -109.29 91.63998 26.825
    endloop
  endfacet
  facet normal 0 0 1
    outer loop
      vertex -109.29 91.63998 26.825
      vertex -102.64 91.63998 26.825
      vertex -102.64 102.64 26.825
    endloop
  endfacet
  facet normal 0 0 1
    outer loop
      vertex -109.29 91.63998 26.825
      vertex -102.64 102.64 26.825
      vertex -109.29 102.64 26.825
    endloop
  endfacet
  facet normal 0 0 -1
    outer loop
      vertex -109.29 102.64 23.7
      vertex -102.64 102.64 23.7
      vertex -102.64 91.63998 23.7
    endloop
  endfacet
  facet normal 0 0 -1
    outer loop
      vertex -109.29 102.64 23.7
      vertex -102.64 91.63998 23.7
      vertex -109.29 91.63998 23.7
    endloop
  endfacet
  facet normal 0 1 0
    outer loop
      vertex -102.64 102.64 23.7
      vertex -109.29 102.64 23.7
      vertex -109.29 102.64 26.825
    endloop
  endfacet
  facet normal 0 1 -0
    outer loop
      vertex -102.64 102.64 23.7
      vertex -109.29 102.64 26.825
      vertex -102.64 102.64 26.825
    endloop
  endfacet
  facet normal -1 0 0
    outer loop
      vertex -109.29 102.64 23.7
      vertex -109.29 91.63998 23.7
      vertex -109.29 91.63998 26.825
    endloop
  endfacet
  facet normal -1 0 0
    outer loop
      vertex -109.29 102.64 23.7
      vertex -109.29 91.63998 26.825
      vertex -109.29 102.64 26.825
    endloop
  endfacet
  facet normal 0 0 1
    outer loop
      vertex -102.64 -109.29 26.825
      vertex -91.63998 -109.29 26.825
      vertex -91.63998 -102.64 26.825
    endloop
  endfacet
  facet normal 0 0 1
    outer loop
      vertex -102.64 -109.29 26.825
      vertex -91.63998 -102.64 26.825
      vertex -102.64 -102.64 26.825
    endloop
  endfacet
  facet normal 0 0 -1
    outer loop
      vertex -102.64 -102.64 23.7
      vertex -91.63998 -102.64 23.7
      vertex -91.63998 -109.29 23.7
    endloop
  endfacet
  facet normal 0 0 -1
    outer loop
      vertex -102.64 -102.64 23.7
      vertex -91.63998 -109.29 23.7
      vertex -102.64 -109.29 23.7
    endloop
  endfacet
  facet normal 0 -1 0
    outer loop
      vertex -102.64 -109.29 23.7
      vertex -91.63998 -109.29 23.7
      vertex -91.63998 -109.29 26.825
    endloop
  endfacet
  facet normal 0 -1 0
    outer loop
      vertex -102.64 -109.29 23.7
      vertex -91.63998 -109.29 26.825
      vertex -102.64 -109.29 26.825
    endloop
  endfacet
  facet normal -1 0 0
    outer loop
      vertex -102.64 -102.64 23.7
      vertex -102.64 -109.29 23.7
      vertex -102.64 -109.29 26.825
    endloop
  endfacet
  facet normal -1 0 0
    outer loop
      vertex -102.64 -102.64 23.7
      vertex -102.64 -109.29 26.825
      vertex -102.64 -102.64 26.825
    endloop
  endfacet
  facet normal 0 0 1
    outer loop
      vertex -102.64 -102.64 26.825
      vertex -91.63998 -102.64 26.825
      vertex -91.63998 -91.63998 26.825
    endloop
  endfacet
  facet normal 0 0 1
    outer loop
      vertex -102.64 -102.64 26.825
      vertex -91.63998 -91.63998 26.825
      vertex -102.64 -91.63998 26.825
    endloop
  endfacet
  facet normal 0 0 -1
    outer loop
      vertex -102.64 -91.63998 23.7
      vertex -91.63998 -91.63998 23.7
      vertex -91.63998 -102.64 23.7
    endloop
  endfacet
  facet normal 0 0 -1
    outer loop
      vertex -102.64 -91.63998 23.7
      vertex -91.63998 -102.64 23.7
      vertex -102.64 -102.64 23.7
    endloop
  endfacet
  facet normal 0 0 1
    outer loop
      vertex -102.64 -91.63998 26.825
      vertex -91.63998 -91.63998 26.825
      vertex -91.63998 91.63998 26.825
    endloop
  endfacet
  facet normal 0 0 1
    outer loop
      vertex -102.64 -91.63998 26.825
      vertex -91.63998 91.63998 26.825
      vertex -102.64 91.63998 26.825
    endloop
  endfacet
  facet normal 0 0 -1
    outer loop
      vertex -102.64 91.63998 23.7
      vertex -91.63998 91.63998 23.7
      vertex -91.63998 -91.63998 23.7
    endloop
  endfacet
  facet normal 0 0 -1
    outer loop
      vertex -102.64 91.63998 23.7
      vertex -91.63998 -91.63998 23.7
      vertex -102.64 -91.63998 23.7
    endloop
  endfacet
  facet normal 1 0 0
    outer loop
      vertex -91.63998 -91.63998 23.7
      vertex -91.63998 91.63998 23.7
      vertex -91.63998 91.63998 26.825
    endloop
  endfacet
  facet normal 1 0 0
    outer loop
      vertex -91.63998 -91.63998 23.7
      vertex -91.63998 91.63998 26.825
      vertex -91.63998 -91.63998 26.825
    endloop
  endfacet
  facet normal 0 0 1
    outer loop
      vertex -102.64 91.63998 26.825
      vertex -91.63998 91.63998 26.825
      vertex -91.63998 102.64 26.825
    endloop
  endfacet
  facet normal 0 0 1
    outer loop
      vertex -102.64 91.63998 26.825
      vertex -91.63998 102.64 26.825
      vertex -102.64 102.64 26.825
    endloop
  endfacet
  facet normal 0 0 -1
    outer loop
      vertex -102.64 102.64 23.7
      vertex -91.63998 102.64 23.7
      vertex -91.63998 91.63998 23.7
    endloop
  endfacet
  facet normal 0 0 -1
    outer loop
      vertex -102.64 102.64 23.7
      vertex -91.63998 91.63998 23.7
      vertex -102.64 91.63998 23.7
    endloop
  endfacet
  facet normal 0 0 1
    outer loop
      vertex -102.64 102.64 26.825
      vertex -91.63998 102.64 26.825
      vertex -91.63998 109.29 26.825
    endloop
  endfacet
  facet normal 0 0 1
    outer loop
      vertex -102.64 102.64 26.825
      vertex -91.63998 109.29 26.825
      vertex -102.64 109.29 26.825
    endloop
  endfacet
  facet normal 0 0 -1
    outer loop
      vertex -102.64 109.29 23.7
      vertex -91.63998 109.29 23.7
      vertex -91.63998 102.64 23.7
    endloop
  endfacet
  facet normal 0 0 -1
    outer loop
      vertex -102.64 109.29 23.7
      vertex -91.63998 102.64 23.7
      vertex -102.64 102.64 23.7
    endloop
  endfacet
  facet normal 0 1 0
    outer loop
      vertex -91.63998 109.29 23.7
      vertex -102.64 109.29 23.7
      vertex -102.64 109.29 26.825
    endloop
  endfacet
  facet normal 0 1 -0
    outer loop
      vertex -91.63998 109.29 23.7
      vertex -102.64 109.29 26.825
      vertex -91.63998 109.29 26.825
    endloop
  endfacet
  facet normal -1 0 0
    outer loop
      vertex -102.64 109.29 23.7
      vertex -102.64 102.64 23.7
      vertex -102.64 102.64 26.825
    endloop
  endfacet
  facet normal -1 0 0
    outer loop
      vertex -102.64 109.29 23.7
      vertex -102.64 102.64 26.825
      vertex -102.64 109.29 26.825
    endloop
  endfacet
  facet normal 0 0 1
    outer loop
      vertex -91.63998 -109.29 26.825
      vertex 91.63998 -109.29 26.825
      vertex 91.63998 -102.64 26.825
    endloop
  endfacet
  facet normal 0 0 1
    outer loop
      vertex -91.63998 -109.29 26.825
      vertex 91.63998 -102.64 26.825
      vertex -91.63998 -102.64 26.825
    endloop
  endfacet
  facet normal 0 0 -1
    outer loop
      vertex -91.63998 -102.64 23.7
      vertex 91.63998 -102.64 23.7
      vertex 91.63998 -109.29 23.7
    endloop
  endfacet
  facet normal 0 0 -1
    outer loop
      vertex -91.63998 -102.64 23.7
      vertex 91.63998 -109.29 23.7
      vertex -91.63998 -109.29 23.7
    endloop
  endfacet
  facet normal 0 -1 0
    outer loop
      vertex -91.63998 -109.29 23.7
      vertex 91.63998 -109.29 23.7
      vertex 91.63998 -109.29 26.825
    endloop
  endfacet
  facet normal 0 -1 0
    outer loop
      vertex -91.63998 -109.29 23.7
      vertex 91.63998 -109.29 26.825
      vertex -91.63998 -109.29 26.825
    endloop
  endfacet
  facet normal 0 0 1
    outer loop
      vertex -91.63998 -102.64 26.825
      vertex 91.63998 -102.64 26.825
      vertex 91.63998 -91.63998 26.825
    endloop
  endfacet
  facet normal 0 0 1
    outer loop
      vertex -91.63998 -102.64 26.825
      vertex 91.63998 -91.63998 26.825
      vertex -91.63998 -91.63998 26.825
    endloop
  endfacet
  facet normal 0 0 -1
    outer loop
      vertex -91.63998 -91.63998 23.7
      vertex 91.63998 -91.63998 23.7
      vertex 91.63998 -102.64 23.7
    endloop
  endfacet
  facet normal 0 0 -1
    outer loop
      vertex -91.63998 -91.63998 23.7
      vertex 91.63998 -102.64 23.7
      vertex -91.63998 -102.64 23.7
    endloop
  endfacet
  facet normal 0 1 0
    outer loop
      vertex 91.63998 -91.63998 23.7
      vertex -91.63998 -91.63998 23.7
      vertex -91.63998 -91.63998 26.825
    endloop
  endfacet
  facet normal 0 1 -0
    outer loop
      vertex 91.63998 -91.63998 23.7
      vertex -91.63998 -91.63998 26.825
      vertex 91.63998 -91.63998 26.825
    endloop
  endfacet
  facet normal 0 0 1
    outer loop
      vertex -91.63998 91.63998 26.825
      vertex 91.63998 91.63998 26.825
      vertex 91.63998 102.64 26.825
    endloop
  endfacet
  facet normal 0 0 1
    outer loop
      vertex -91.63998 91.63998 26.825
      vertex 91.63998 102.64 26.825
      vertex -91.63998 102.64 26.825
    endloop
  endfacet
  facet normal 0 0 -1
    outer loop
      vertex -91.63998 102.64 23.7
      vertex 91.63998 102.64 23.7
      vertex 91.63998 91.63998 23.7
    endloop
  endfacet
  facet normal 0 0 -1
    outer loop
      vertex -91.63998 102.64 23.7
      vertex 91.63998 91.63998 23.7
      vertex -91.63998 91.63998 23.7
    endloop
  endfacet
  facet normal 0 -1 0
    outer loop
      vertex -91.63998 91.63998 23.7
      vertex 91.63998 91.63998 23.7
      vertex 91.63998 91.63998 26.825
    endloop
  endfacet
  facet normal 0 -1 0
    outer loop
      vertex -91.63998 91.63998 23.7
      vertex 91.63998 91.63998 26.825
      vertex -91.63998 91.63998 26.825
    endloop
  endfacet
  facet normal 0 0 1
    outer loop
      vertex -91.63998 102.64 26.825
      vertex 91.63998 102.64 26.825
      vertex 91.63998 109.29 26.825
    endloop
  endfacet
  facet normal 0 0 1
    outer loop
      vertex -91.63998 102.64 26.825
      vertex 91.63998 109.29 26.825
      vertex -91.63998 109.29 26.825
    endloop
  endfacet
  facet normal 0 0 -1
    outer loop
      vertex -91.63998 109.29 23.7
      vertex 91.63998 109.29 23.7
      vertex 91.63998 102.64 23.7
    endloop
  endfacet
  facet normal 0 0 -1
    outer loop
      vertex -91.63998 109.29 23.7
      vertex 91.63998 102.64 23.7
      vertex -91.63998 102.64 23.7
    endloop
  endfacet
  facet normal 0 1 0
    outer loop
      vertex 91.63998 109.29 23.7
      vertex -91.63998 109.29 23.7
      vertex -91.63998 109.29 26.825
    endloop
  endfacet
  facet normal 0 1 -0
    outer loop
      vertex 91.63998 109.29 23.7
      vertex -91.63998 109.29 26.825
      vertex 91.63998 109.29 26.825
    endloop
  endfacet
  facet normal 0 0 1
    outer loop
      vertex 91.63998 -109.29 26.825
      vertex 102.64 -109.29 26.825
      vertex 102.64 -102.64 26.825
    endloop
  endfacet
  facet normal 0 0 1
    outer loop
      vertex 91.63998 -109.29 26.825
      vertex 102.64 -102.64 26.825
      vertex 91.63998 -102.64 26.825
    endloop
  endfacet
  facet normal 0 0 -1
    outer loop
      vertex 91.63998 -102.64 23.7
      vertex 102.64 -102.64 23.7
      vertex 102.64 -109.29 23.7
    endloop
  endfacet
  facet normal 0 0 -1
    outer loop
      vertex 91.63998 -102.64 23.7
      vertex 102.64 -109.29 23.7
      vertex 91.63998 -109.29 23.7
    endloop
  endfacet
  facet normal 0 -1 0
    outer loop
      vertex 91.63998 -109.29 23.7
      vertex 102.64 -109.29 23.7
      vertex 102.64 -109.29 26.825
    endloop
  endfacet
  facet normal 0 -1 0
    outer loop
      vertex 91.63998 -109.29 23.7
      vertex 102.64 -109.29 26.825
      vertex 91.63998 -109.29 26.825
    endloop
  endfacet
  facet normal 1 0 0
    outer loop
      vertex 102.64 -109.29 23.7
      vertex 102.64 -102.64 23.7
      vertex 102.64 -102.64 26.825
    endloop
  endfacet
  facet normal 1 0 0
    outer loop
      vertex 102.64 -109.29 23.7
      vertex 102.64 -102.64 26.825
      vertex 102.64 -109.29 26.825
    endloop
  endfacet
  facet normal 0 0 1
    outer loop
      vertex 91.63998 -102.64 26.825
      vertex 102.64 -102.64 26.825
      vertex 102.64 -91.63998 26.825
    endloop
  endfacet
  facet normal 0 0 1
    outer loop
      vertex 91.63998 -102.64 26.825
      vertex 102.64 -91.63998 26.825
      vertex 91.63998 -91.63998 26.825
    endloop
  endfacet
  facet normal 0 0 -1
    outer loop
      vertex 91.63998 -91.63998 23.7
      vertex 102.64 -91.63998 23.7
      vertex 102.64 -102.64 23.7
    endloop
  endfacet
  facet normal 0 0 -1
    outer loop
      vertex 91.63998 -91.63998 23.7
      vertex 102.64 -102.64 23.7
      vertex 91.63998 -102.64 23.7
    endloop
  endfacet
  facet normal 0 0 1
    outer loop
      vertex 91.63998 -91.63998 26.825
      vertex 102.64 -91.63998 26.825
      vertex 102.64 91.63998 26.825
    endloop
  endfacet
  facet normal 0 0 1
    outer loop
      vertex 91.63998 -91.63998 26.825
      vertex 102.64 91.63998 26.825
      vertex 91.63998 91.63998 26.825
    endloop
  endfacet
  facet normal 0 0 -1
    outer loop
      vertex 91.63998 91.63998 23.7
      vertex 102.64 91.63998 23.7
      vertex 102.64 -91.63998 23.7
    endloop
  endfacet
  facet normal 0 0 -1
    outer loop
      vertex 91.63998 91.63998 23.7
      vertex 102.64 -91.63998 23.7
      vertex 91.63998 -91.63998 23.7
    endloop
  endfacet
  facet normal -1 0 0
    outer loop
      vertex 91.63998 91.63998 23.7
      vertex 91.63998 -91.63998 23.7
      vertex 91.63998 -91.63998 26.825
    endloop
  endfacet
  facet normal -1 0 0
    outer loop
      vertex 91.63998 91.63998 23.7
      vertex 91.63998 -91.63998 26.825
      vertex 91.63998 91.63998 26.825
    endloop
  endfacet
  facet normal 0 0 1
    outer loop
      vertex 91.63998 91.63998 26.825
      vertex 102.64 91.63998 26.825
      vertex 102.64 102.64 26.825
    endloop
  endfacet
  facet normal 0 0 1
    outer loop
      vertex 91.63998 91.63998 26.825
      vertex 102.64 102.64 26.825
      vertex 91.63998 102.64 26.825
    endloop
  endfacet
  facet normal 0 0 -1
    outer loop
      vertex 91.63998 102.64 23.7
      vertex 102.64 102.64 23.7
      vertex 102.64 91.63998 23.7
    endloop
  endfacet
  facet normal 0 0 -1
    outer loop
      vertex 91.63998 102.64 23.7
      vertex 102.64 91.63998 23.7
      vertex 91.63998 91.63998 23.7
    endloop
  endfacet
  facet normal 0 0 1
    outer loop
      vertex 91.63998 102.64 26.825
      vertex 102.64 102.64 26.825
      vertex 102.64 109.29 26.825
    endloop
  endfacet
  facet normal 0 0 1
    outer loop
      vertex 91.63998 102.64 26.825
      vertex 102.64 109.29 26.825
      vertex 91.63998 109.29 26.825
    endloop
  endfacet
  facet normal 0 0 -1
    outer loop
      vertex 91.63998 109.29 23.7
      vertex 102.64 109.29 23.7
      vertex 102.64 102.64 23.7
    endloop
  endfacet
  facet normal 0 0 -1
    outer loop
      vertex 91.63998 109.29 23.7
      vertex 102.64 102.64 23.7
      vertex 91.63998 102.64 23.7
    endloop
  endfacet
  facet normal 1 0 0
    outer loop
      vertex 102.64 102.64 23.7
      vertex 102.64 109.29 23.7
      vertex 102.64 109.29 26.825
    endloop
  endfacet
  facet normal 1 0 0
    outer loop
      vertex 102.64 102.64 23.7
      vertex 102.64 109.29 26.825
      vertex 102.64 102.64 26.825
    endloop
  endfacet
  facet normal 0 1 0
    outer loop
      vertex 102.64 109.29 23.7
      vertex 91.63998 109.29 23.7
      vertex 91.63998 109.29 26.825
    endloop
  endfacet
  facet normal 0 1 -0
    outer loop
      vertex 102.64 109.29 23.7
      vertex 91.63998 109.29 26.825
      vertex 102.64 109.29 26.825
    endloop
  endfacet
  facet normal 0 0 1
    outer loop
      vertex 102.64 -102.64 26.825
      vertex 109.29 -102.64 26.825
      vertex 109.29 -91.63998 26.825
    endloop
  endfacet
  facet normal 0 0 1
    outer loop
      vertex 102.64 -102.64 26.825
      vertex 109.29 -91.63998 26.825
      vertex 102.64 -91.63998 26.825
    endloop
  endfacet
  facet normal 0 0 -1
    outer loop
      vertex 102.64 -91.63998 23.7
      vertex 109.29 -91.63998 23.7
      vertex 109.29 -102.64 23.7
    endloop
  endfacet
  facet normal 0 0 -1
    outer loop
      vertex 102.64 -91.63998 23.7
      vertex 109.29 -102.64 23.7
      vertex 102.64 -102.64 23.7
    endloop
  endfacet
  facet normal 0 -1 0
    outer loop
      vertex 102.64 -102.64 23.7
      vertex 109.29 -102.64 23.7
      vertex 109.29 -102.64 26.825
    endloop
  endfacet
  facet normal 0 -1 0
    outer loop
      vertex 102.64 -102.64 23.7
      vertex 109.29 -102.64 26.825
      vertex 102.64 -102.64 26.825
    endloop
  endfacet
  facet normal 1 0 0
    outer loop
      vertex 109.29 -102.64 23.7
      vertex 109.29 -91.63998 23.7
      vertex 109.29 -91.63998 26.825
    endloop
  endfacet
  facet normal 1 0 0
    outer loop
      vertex 109.29 -102.64 23.7
      vertex 109.29 -91.63998 26.825
      vertex 109.29 -102.64 26.825
    endloop
  endfacet
  facet normal 0 0 1
    outer loop
      vertex 102.64 -91.63998 26.825
      vertex 109.29 -91.63998 26.825
      vertex 109.29 91.63998 26.825
    endloop
  endfacet
  facet normal 0 0 1
    outer loop
      vertex 102.64 -91.63998 26.825
      vertex 109.29 91.63998 26.825
      vertex 102.64 91.63998 26.825
    endloop
  endfacet
  facet normal 0 0 -1
    outer loop
      vertex 102.64 91.63998 23.7
      vertex 109.29 91.63998 23.7
      vertex 109.29 -91.63998 23.7
    endloop
  endfacet
  facet normal 0 0 -1
    outer loop
      vertex 102.64 91.63998 23.7
      vertex 109.29 -91.63998 23.7
      vertex 102.64 -91.63998 23.7
    endloop
  endfacet
  facet normal 1 0 0
    outer loop
      vertex 109.29 -91.63998 23.7
      vertex 109.29 91.63998 23.7
      vertex 109.29 91.63998 26.825
    endloop
  endfacet
  facet normal 1 0 0
    outer loop
      vertex 109.29 -91.63998 23.7
      vertex 109.29 91.63998 26.825
      vertex 109.29 -91.63998 26.825
    endloop
  endfacet
  facet normal 0 0 1
    outer loop
      vertex 102.64 91.63998 26.825
      vertex 109.29 91.63998 26.825
      vertex 109.29 102.64 26.825
    endloop
  endfacet
  facet normal 0 0 1
    outer loop
      vertex 102.64 91.63998 26.825
      vertex 109.29 102.64 26.825
      vertex 102.64 102.64 26.825
    endloop
  endfacet
  facet normal 0 0 -1
    outer loop
      vertex 102.64 102.64 23.7
      vertex 109.29 102.64 23.7
      vertex 109.29 91.63998 23.7
    endloop
  endfacet
  facet normal 0 0 -1
    outer loop
      vertex 102.64 102.64 23.7
      vertex 109.29 91.63998 23.7
      vertex 102.64 91.63998 23.7
    endloop
  endfacet
  facet normal 1 0 0
    outer loop
      vertex 109.29 91.63998 23.7
      vertex 109.29 102.64 23.7
      vertex 109.29 102.64 26.825
    endloop
  endfacet
  facet normal 1 0 0
    outer loop
      vertex 109.29 91.63998 23.7
      vertex 109.29 102.64 26.825
      vertex 109.29 91.63998 26.825
    endloop
  endfacet
  facet normal 0 1 0
    outer loop
      vertex 109.29 102.64 23.7
      vertex 102.64 102.64 23.7
      vertex 102.64 102.64 26.825
    endloop
  endfacet
  facet normal 0 1 -0
    outer loop
      vertex 109.29 102.64 23.7
      vertex 102.64 102.64 26.825
      vertex 109.29 102.64 26.825
    endloop
  endfacet
  facet normal 0 0 -1
    outer loop
      vertex 91.28998 91.28998 26.825
      vertex -45.64499 91.28998 26.825
      vertex -45.64499 109.29 26.825
    endloop
  endfacet
  facet normal 0 0 -1
    outer loop
      vertex 91.28998 91.28998 26.825
      vertex -45.64499 109.29 26.825
      vertex 91.28998 109.29 26.825
    endloop
  endfacet
  facet normal 0 0 -1
    outer loop
      vertex -45.64499 91.28998 26.825
      vertex -91.28998 91.28998 26.825
      vertex -91.28998 109.29 26.825
    endloop
  endfacet
  facet normal 0 0 -1
    outer loop
      vertex -45.64499 91.28998 26.825
      vertex -91.28998 109.29 26.825
      vertex -45.64499 109.29 26.825
    endloop
  endfacet
  facet normal 0.04322827 0 0.9990652
    outer loop
      vertex 91.28998 91.28998 29.625
      vertex -45.64499 109.29 35.55
      vertex -45.64499 91.28998 35.55
    endloop
  endfacet
  facet normal 0.04322827 -0 0.9990652
    outer loop
      vertex 91.28998 91.28998 29.625
      vertex 91.28998 109.29 29.625
      vertex -45.64499 109.29 35.55
    endloop
  endfacet
  facet normal 0 0 1
    outer loop
      vertex -45.64499 91.28998 35.55
      vertex -91.28998 109.29 35.55
      vertex -91.28998 91.28998 35.55
    endloop
  endfacet
  facet normal 0 -0 1
    outer loop
      vertex -45.64499 91.28998 35.55
      vertex -45.64499 109.29 35.55
      vertex -91.28998 109.29 35.55
    endloop
  endfacet
  facet normal 0 -1 0
    outer loop
      vertex 91.28998 91.28998 26.825
      vertex -45.64499 91.28998 35.55
      vertex -45.64499 91.28998 26.825
    endloop
  endfacet
  facet normal 0 -1 0
    outer loop
      vertex 91.28998 91.28998 26.825
      vertex 91.28998 91.28998 29.625
      vertex -45.64499 91.28998 35.55
    endloop
  endfacet
  facet normal 0 -1 0
    outer loop
      vertex -45.64499 91.28998 26.825
      vertex -91.28998 91.28998 35.55
      vertex -91.28998 91.28998 26.825
    endloop
  endfacet
  facet normal 0 -1 0
    outer loop
      vertex -45.64499 91.28998 26.825
      vertex -45.64499 91.28998 35.55
      vertex -91.28998 91.28998 35.55
    endloop
  endfacet
  facet normal 0 1 0
    outer loop
      vertex 91.28998 109.29 26.825
      vertex -45.64499 109.29 26.825
      vertex -45.64499 109.29 35.55
    endloop
  endfacet
  facet normal 0 1 -0
    outer loop
      vertex 91.28998 109.29 26.825
      vertex -45.64499 109.29 35.55
      vertex 91.28998 109.29 29.625
    endloop
  endfacet
  facet normal 0 1 0
    outer loop
      vertex -45.64499 109.29 26.825
      vertex -91.28998 109.29 26.825
      vertex -91.28998 109.29 35.55
    endloop
  endfacet
  facet normal 0 1 -0
    outer loop
      vertex -45.64499 109.29 26.825
      vertex -91.28998 109.29 35.55
      vertex -45.64499 109.29 35.55
    endloop
  endfacet
  facet normal 1 0 0
    outer loop
      vertex 91.28998 109.29 26.825
      vertex 91.28998 91.28998 29.625
      vertex 91.28998 91.28998 26.825
    endloop
  endfacet
  facet normal 1 0 -0
    outer loop
      vertex 91.28998 109.29 26.825
      vertex 91.28998 109.29 29.625
      vertex 91.28998 91.28998 29.625
    endloop
  endfacet
  facet normal -1 0 0
    outer loop
      vertex -91.28998 91.28998 26.825
      vertex -91.28998 109.29 35.55
      vertex -91.28998 109.29 26.825
    endloop
  endfacet
  facet normal -1 0 0
    outer loop
      vertex -91.28998 91.28998 26.825
      vertex -91.28998 91.28998 35.55
      vertex -91.28998 109.29 35.55
    endloop
  endfacet
  facet normal 0 0 -1
    outer loop
      vertex 91.28998 91.28998 26.825
      vertex 109.29 -45.64499 26.825
      vertex 91.28998 -45.64499 26.825
    endloop
  endfacet
  facet normal 0 0 -1
    outer loop
      vertex 91.28998 91.28998 26.825
      vertex 109.29 91.28998 26.825
      vertex 109.29 -45.64499 26.825
    endloop
  endfacet
  facet normal 0 0 -1
    outer loop
      vertex 91.28998 -45.64499 26.825
      vertex 109.29 -91.28998 26.825
      vertex 91.28998 -91.28998 26.825
    endloop
  endfacet
  facet normal 0 0 -1
    outer loop
      vertex 91.28998 -45.64499 26.825
      vertex 109.29 -45.64499 26.825
      vertex 109.29 -91.28998 26.825
    endloop
  endfacet
  facet normal 0 0.04322827 0.9990652
    outer loop
      vertex 91.28998 91.28998 29.625
      vertex 91.28998 -45.64499 35.55
      vertex 109.29 -45.64499 35.55
    endloop
  endfacet
  facet normal -0 0.04322827 0.9990652
    outer loop
      vertex 91.28998 91.28998 29.625
      vertex 109.29 -45.64499 35.55
      vertex 109.29 91.28998 29.625
    endloop
  endfacet
  facet normal 0 0 1
    outer loop
      vertex 91.28998 -45.64499 35.55
      vertex 91.28998 -91.28998 35.55
      vertex 109.29 -91.28998 35.55
    endloop
  endfacet
  facet normal -0 0 1
    outer loop
      vertex 91.28998 -45.64499 35.55
      vertex 109.29 -91.28998 35.55
      vertex 109.29 -45.64499 35.55
    endloop
  endfacet
  facet normal -1 0 0
    outer loop
      vertex 91.28998 91.28998 26.825
      vertex 91.28998 -45.64499 26.825
      vertex 91.28998 -45.64499 35.55
    endloop
  endfacet
  facet normal -1 0 0
    outer loop
      vertex 91.28998 91.28998 26.825
      vertex 91.28998 -45.64499 35.55
      vertex 91.28998 91.28998 29.625
    endloop
  endfacet
  facet normal -1 0 0
    outer loop
      vertex 91.28998 -45.64499 26.825
      vertex 91.28998 -91.28998 26.825
      vertex 91.28998 -91.28998 35.55
    endloop
  endfacet
  facet normal -1 0 0
    outer loop
      vertex 91.28998 -45.64499 26.825
      vertex 91.28998 -91.28998 35.55
      vertex 91.28998 -45.64499 35.55
    endloop
  endfacet
  facet normal 1 0 0
    outer loop
      vertex 109.29 91.28998 26.825
      vertex 109.29 -45.64499 35.55
      vertex 109.29 -45.64499 26.825
    endloop
  endfacet
  facet normal 1 0 -0
    outer loop
      vertex 109.29 91.28998 26.825
      vertex 109.29 91.28998 29.625
      vertex 109.29 -45.64499 35.55
    endloop
  endfacet
  facet normal 1 0 0
    outer loop
      vertex 109.29 -45.64499 26.825
      vertex 109.29 -91.28998 35.55
      vertex 109.29 -91.28998 26.825
    endloop
  endfacet
  facet normal 1 0 -0
    outer loop
      vertex 109.29 -45.64499 26.825
      vertex 109.29 -45.64499 35.55
      vertex 109.29 -91.28998 35.55
    endloop
  endfacet
  facet normal 0 1 0
    outer loop
      vertex 109.29 91.28998 26.825
      vertex 91.28998 91.28998 26.825
      vertex 91.28998 91.28998 29.625
    endloop
  endfacet
  facet normal 0 1 -0
    outer loop
      vertex 109.29 91.28998 26.825
      vertex 91.28998 91.28998 29.625
      vertex 109.29 91.28998 29.625
    endloop
  endfacet
  facet normal 0 -1 0
    outer loop
      vertex 91.28998 -91.28998 26.825
      vertex 109.29 -91.28998 26.825
      vertex 109.29 -91.28998 35.55
    endloop
  endfacet
  facet normal 0 -1 0
    outer loop
      vertex 91.28998 -91.28998 26.825
      vertex 109.29 -91.28998 35.55
      vertex 91.28998 -91.28998 35.55
    endloop
  endfacet
  facet normal 0 0 -1
    outer loop
      vertex -91.28998 -91.28998 26.825
      vertex 45.64499 -91.28998 26.825
      vertex 45.64499 -109.29 26.825
    endloop
  endfacet
  facet normal 0 0 -1
    outer loop
      vertex -91.28998 -91.28998 26.825
      vertex 45.64499 -109.29 26.825
      vertex -91.28998 -109.29 26.825
    endloop
  endfacet
  facet normal 0 0 -1
    outer loop
      vertex 45.64499 -91.28998 26.825
      vertex 91.28998 -91.28998 26.825
      vertex 91.28998 -109.29 26.825
    endloop
  endfacet
  facet normal 0 0 -1
    outer loop
      vertex 45.64499 -91.28998 26.825
      vertex 91.28998 -109.29 26.825
      vertex 45.64499 -109.29 26.825
    endloop
  endfacet
  facet normal -0.04322827 0 0.9990652
    outer loop
      vertex -91.28998 -91.28998 29.625
      vertex 45.64499 -109.29 35.55
      vertex 45.64499 -91.28998 35.55
    endloop
  endfacet
  facet normal -0.04322827 0 0.9990652
    outer loop
      vertex -91.28998 -91.28998 29.625
      vertex -91.28998 -109.29 29.625
      vertex 45.64499 -109.29 35.55
    endloop
  endfacet
  facet normal -0 0 1
    outer loop
      vertex 45.64499 -91.28998 35.55
      vertex 91.28998 -109.29 35.55
      vertex 91.28998 -91.28998 35.55
    endloop
  endfacet
  facet normal 0 0 1
    outer loop
      vertex 45.64499 -91.28998 35.55
      vertex 45.64499 -109.29 35.55
      vertex 91.28998 -109.29 35.55
    endloop
  endfacet
  facet normal 0 1 0
    outer loop
      vertex -91.28998 -91.28998 26.825
      vertex 45.64499 -91.28998 35.55
      vertex 45.64499 -91.28998 26.825
    endloop
  endfacet
  facet normal 0 1 0
    outer loop
      vertex -91.28998 -91.28998 26.825
      vertex -91.28998 -91.28998 29.625
      vertex 45.64499 -91.28998 35.55
    endloop
  endfacet
  facet normal 0 1 0
    outer loop
      vertex 45.64499 -91.28998 26.825
      vertex 91.28998 -91.28998 35.55
      vertex 91.28998 -91.28998 26.825
    endloop
  endfacet
  facet normal 0 1 0
    outer loop
      vertex 45.64499 -91.28998 26.825
      vertex 45.64499 -91.28998 35.55
      vertex 91.28998 -91.28998 35.55
    endloop
  endfacet
  facet normal 0 -1 0
    outer loop
      vertex -91.28998 -109.29 26.825
      vertex 45.64499 -109.29 26.825
      vertex 45.64499 -109.29 35.55
    endloop
  endfacet
  facet normal 0 -1 0
    outer loop
      vertex -91.28998 -109.29 26.825
      vertex 45.64499 -109.29 35.55
      vertex -91.28998 -109.29 29.625
    endloop
  endfacet
  facet normal 0 -1 0
    outer loop
      vertex 45.64499 -109.29 26.825
      vertex 91.28998 -109.29 26.825
      vertex 91.28998 -109.29 35.55
    endloop
  endfacet
  facet normal 0 -1 0
    outer loop
      vertex 45.64499 -109.29 26.825
      vertex 91.28998 -109.29 35.55
      vertex 45.64499 -109.29 35.55
    endloop
  endfacet
  facet normal -1 0 0
    outer loop
      vertex -91.28998 -109.29 26.825
      vertex -91.28998 -91.28998 29.625
      vertex -91.28998 -91.28998 26.825
    endloop
  endfacet
  facet normal -1 0 0
    outer loop
      vertex -91.28998 -109.29 26.825
      vertex -91.28998 -109.29 29.625
      vertex -91.28998 -91.28998 29.625
    endloop
  endfacet
  facet normal 1 0 0
    outer loop
      vertex 91.28998 -91.28998 26.825
      vertex 91.28998 -109.29 35.55
      vertex 91.28998 -109.29 26.825
    endloop
  endfacet
  facet normal 1 0 -0
    outer loop
      vertex 91.28998 -91.28998 26.825
      vertex 91.28998 -91.28998 35.55
      vertex 91.28998 -109.29 35.55
    endloop
  endfacet
  facet normal 0 0 -1
    outer loop
      vertex -91.28998 -91.28998 26.825
      vertex -109.29 45.64499 26.825
      vertex -91.28998 45.64499 26.825
    endloop
  endfacet
  facet normal 0 0 -1
    outer loop
      vertex -91.28998 -91.28998 26.825
      vertex -109.29 -91.28998 26.825
      vertex -109.29 45.64499 26.825
    endloop
  endfacet
  facet normal 0 0 -1
    outer loop
      vertex -91.28998 45.64499 26.825
      vertex -109.29 91.28998 26.825
      vertex -91.28998 91.28998 26.825
    endloop
  endfacet
  facet normal 0 0 -1
    outer loop
      vertex -91.28998 45.64499 26.825
      vertex -109.29 45.64499 26.825
      vertex -109.29 91.28998 26.825
    endloop
  endfacet
  facet normal 0 -0.04322827 0.9990652
    outer loop
      vertex -91.28998 -91.28998 29.625
      vertex -91.28998 45.64499 35.55
      vertex -109.29 45.64499 35.55
    endloop
  endfacet
  facet normal 0 -0.04322827 0.9990652
    outer loop
      vertex -91.28998 -91.28998 29.625
      vertex -109.29 45.64499 35.55
      vertex -109.29 -91.28998 29.625
    endloop
  endfacet
  facet normal 0 -0 1
    outer loop
      vertex -91.28998 45.64499 35.55
      vertex -91.28998 91.28998 35.55
      vertex -109.29 91.28998 35.55
    endloop
  endfacet
  facet normal 0 0 1
    outer loop
      vertex -91.28998 45.64499 35.55
      vertex -109.29 91.28998 35.55
      vertex -109.29 45.64499 35.55
    endloop
  endfacet
  facet normal 1 0 0
    outer loop
      vertex -91.28998 -91.28998 26.825
      vertex -91.28998 45.64499 26.825
      vertex -91.28998 45.64499 35.55
    endloop
  endfacet
  facet normal 1 0 0
    outer loop
      vertex -91.28998 -91.28998 26.825
      vertex -91.28998 45.64499 35.55
      vertex -91.28998 -91.28998 29.625
    endloop
  endfacet
  facet normal 1 0 0
    outer loop
      vertex -91.28998 45.64499 26.825
      vertex -91.28998 91.28998 26.825
      vertex -91.28998 91.28998 35.55
    endloop
  endfacet
  facet normal 1 0 0
    outer loop
      vertex -91.28998 45.64499 26.825
      vertex -91.28998 91.28998 35.55
      vertex -91.28998 45.64499 35.55
    endloop
  endfacet
  facet normal -1 0 0
    outer loop
      vertex -109.29 -91.28998 26.825
      vertex -109.29 45.64499 35.55
      vertex -109.29 45.64499 26.825
    endloop
  endfacet
  facet normal -1 0 0
    outer loop
      vertex -109.29 -91.28998 26.825
      vertex -109.29 -91.28998 29.625
      vertex -109.29 45.64499 35.55
    endloop
  endfacet
  facet normal -1 0 0
    outer loop
      vertex -109.29 45.64499 26.825
      vertex -109.29 91.28998 35.55
      vertex -109.29 91.28998 26.825
    endloop
  endfacet
  facet normal -1 0 0
    outer loop
      vertex -109.29 45.64499 26.825
      vertex -109.29 45.64499 35.55
      vertex -109.29 91.28998 35.55
    endloop
  endfacet
  facet normal 0 -1 0
    outer loop
      vertex -109.29 -91.28998 26.825
      vertex -91.28998 -91.28998 26.825
      vertex -91.28998 -91.28998 29.625
    endloop
  endfacet
  facet normal 0 -1 0
    outer loop
      vertex -109.29 -91.28998 26.825
      vertex -91.28998 -91.28998 29.625
      vertex -109.29 -91.28998 29.625
    endloop
  endfacet
  facet normal 0 1 0
    outer loop
      vertex -91.28998 91.28998 26.825
      vertex -109.29 91.28998 26.825
      vertex -109.29 91.28998 35.55
    endloop
  endfacet
  facet normal 0 1 -0
    outer loop
      vertex -91.28998 91.28998 26.825
      vertex -109.29 91.28998 35.55
      vertex -91.28998 91.28998 35.55
    endloop
  endfacet
  facet normal 0 0 1
    outer loop
      vertex 91.28998 109.29 29.625
      vertex 91.28998 91.28998 29.625
      vertex 109.29 91.28998 29.625
    endloop
  endfacet
  facet normal 0 0 -1
    outer loop
      vertex 109.29 91.28998 26.825
      vertex 91.28998 91.28998 26.825
      vertex 91.28998 109.29 26.825
    endloop
  endfacet
  facet normal 0 -0 1
    outer loop
      vertex 109.29 91.28998 29.625
      vertex 109.29 102.99 29.625
      vertex 102.99 102.99 29.625
    endloop
  endfacet
  facet normal 0 0 -1
    outer loop
      vertex 102.99 102.99 26.825
      vertex 109.29 102.99 26.825
      vertex 109.29 91.28998 26.825
    endloop
  endfacet
  facet normal 0 0 1
    outer loop
      vertex 91.28998 109.29 29.625
      vertex 109.29 91.28998 29.625
      vertex 102.99 102.99 29.625
    endloop
  endfacet
  facet normal -0 -0 -1
    outer loop
      vertex 102.99 102.99 26.825
      vertex 109.29 91.28998 26.825
      vertex 91.28998 109.29 26.825
    endloop
  endfacet
  facet normal 0 -0 1
    outer loop
      vertex 102.99 102.99 29.625
      vertex 102.99 109.29 29.625
      vertex 91.28998 109.29 29.625
    endloop
  endfacet
  facet normal 0 0 -1
    outer loop
      vertex 91.28998 109.29 26.825
      vertex 102.99 109.29 26.825
      vertex 102.99 102.99 26.825
    endloop
  endfacet
  facet normal 0 -1 0
    outer loop
      vertex 91.28998 91.28998 26.825
      vertex 109.29 91.28998 26.825
      vertex 109.29 91.28998 29.625
    endloop
  endfacet
  facet normal 0 -1 0
    outer loop
      vertex 91.28998 91.28998 26.825
      vertex 109.29 91.28998 29.625
      vertex 91.28998 91.28998 29.625
    endloop
  endfacet
  facet normal 1 0 0
    outer loop
      vertex 109.29 91.28998 26.825
      vertex 109.29 102.99 26.825
      vertex 109.29 102.99 29.625
    endloop
  endfacet
  facet normal 1 0 0
    outer loop
      vertex 109.29 91.28998 26.825
      vertex 109.29 102.99 29.625
      vertex 109.29 91.28998 29.625
    endloop
  endfacet
  facet normal 0 1 0
    outer loop
      vertex 109.29 102.99 26.825
      vertex 102.99 102.99 26.825
      vertex 102.99 102.99 29.625
    endloop
  endfacet
  facet normal 0 1 -0
    outer loop
      vertex 109.29 102.99 26.825
      vertex 102.99 102.99 29.625
      vertex 109.29 102.99 29.625
    endloop
  endfacet
  facet normal 1 0 0
    outer loop
      vertex 102.99 102.99 26.825
      vertex 102.99 109.29 26.825
      vertex 102.99 109.29 29.625
    endloop
  endfacet
  facet normal 1 0 0
    outer loop
      vertex 102.99 102.99 26.825
      vertex 102.99 109.29 29.625
      vertex 102.99 102.99 29.625
    endloop
  endfacet
  facet normal 0 1 0
    outer loop
      vertex 102.99 109.29 26.825
      vertex 91.28998 109.29 26.825
      vertex 91.28998 109.29 29.625
    endloop
  endfacet
  facet normal 0 1 -0
    outer loop
      vertex 102.99 109.29 26.825
      vertex 91.28998 109.29 29.625
      vertex 102.99 109.29 29.625
    endloop
  endfacet
  facet normal -1 0 0
    outer loop
      vertex 91.28998 109.29 26.825
      vertex 91.28998 91.28998 26.825
      vertex 91.28998 91.28998 29.625
    endloop
  endfacet
  facet normal -1 0 0
    outer loop
      vertex 91.28998 109.29 26.825
      vertex 91.28998 91.28998 29.625
      vertex 91.28998 109.29 29.625
    endloop
  endfacet
  facet normal 0 0 1
    outer loop
      vertex 91.28998 -91.28998 35.55
      vertex 91.28998 -109.29 35.55
      vertex 102.99 -109.29 35.55
    endloop
  endfacet
  facet normal 0 0 -1
    outer loop
      vertex 102.99 -109.29 26.825
      vertex 91.28998 -109.29 26.825
      vertex 91.28998 -91.28998 26.825
    endloop
  endfacet
  facet normal 0 0 1
    outer loop
      vertex 91.28998 -91.28998 35.55
      vertex 102.99 -109.29 35.55
      vertex 102.99 -102.99 35.55
    endloop
  endfacet
  facet normal -0 -0 -1
    outer loop
      vertex 102.99 -102.99 26.825
      vertex 102.99 -109.29 26.825
      vertex 91.28998 -91.28998 26.825
    endloop
  endfacet
  facet normal 0 0 1
    outer loop
      vertex 91.28998 -91.28998 35.55
      vertex 102.99 -102.99 35.55
      vertex 109.29 -102.99 35.55
    endloop
  endfacet
  facet normal 0 0 -1
    outer loop
      vertex 109.29 -102.99 26.825
      vertex 102.99 -102.99 26.825
      vertex 91.28998 -91.28998 26.825
    endloop
  endfacet
  facet normal 0 -0 1
    outer loop
      vertex 109.29 -102.99 35.55
      vertex 109.29 -91.28998 35.55
      vertex 91.28998 -91.28998 35.55
    endloop
  endfacet
  facet normal 0 0 -1
    outer loop
      vertex 91.28998 -91.28998 26.825
      vertex 109.29 -91.28998 26.825
      vertex 109.29 -102.99 26.825
    endloop
  endfacet
  facet normal 0 -1 0
    outer loop
      vertex 91.28998 -109.29 26.825
      vertex 102.99 -109.29 26.825
      vertex 102.99 -109.29 35.55
    endloop
  endfacet
  facet normal 0 -1 0
    outer loop
      vertex 91.28998 -109.29 26.825
      vertex 102.99 -109.29 35.55
      vertex 91.28998 -109.29 35.55
    endloop
  endfacet
  facet normal 1 0 0
    outer loop
      vertex 102.99 -109.29 26.825
      vertex 102.99 -102.99 26.825
      vertex 102.99 -102.99 35.55
    endloop
  endfacet
  facet normal 1 0 0
    outer loop
      vertex 102.99 -109.29 26.825
      vertex 102.99 -102.99 35.55
      vertex 102.99 -109.29 35.55
    endloop
  endfacet
  facet normal 0 -1 0
    outer loop
      vertex 102.99 -102.99 26.825
      vertex 109.29 -102.99 26.825
      vertex 109.29 -102.99 35.55
    endloop
  endfacet
  facet normal 0 -1 0
    outer loop
      vertex 102.99 -102.99 26.825
      vertex 109.29 -102.99 35.55
      vertex 102.99 -102.99 35.55
    endloop
  endfacet
  facet normal 1 0 0
    outer loop
      vertex 109.29 -102.99 26.825
      vertex 109.29 -91.28998 26.825
      vertex 109.29 -91.28998 35.55
    endloop
  endfacet
  facet normal 1 0 0
    outer loop
      vertex 109.29 -102.99 26.825
      vertex 109.29 -91.28998 35.55
      vertex 109.29 -102.99 35.55
    endloop
  endfacet
  facet normal 0 1 0
    outer loop
      vertex 109.29 -91.28998 26.825
      vertex 91.28998 -91.28998 26.825
      vertex 91.28998 -91.28998 35.55
    endloop
  endfacet
  facet normal 0 1 -0
    outer loop
      vertex 109.29 -91.28998 26.825
      vertex 91.28998 -91.28998 35.55
      vertex 109.29 -91.28998 35.55
    endloop
  endfacet
  facet normal -1 0 0
    outer loop
      vertex 91.28998 -91.28998 26.825
      vertex 91.28998 -109.29 26.825
      vertex 91.28998 -109.29 35.55
    endloop
  endfacet
  facet normal -1 0 0
    outer loop
      vertex 91.28998 -91.28998 26.825
      vertex 91.28998 -109.29 35.55
      vertex 91.28998 -91.28998 35.55
    endloop
  endfacet
  facet normal 0 0 1
    outer loop
      vertex -102.99 -102.99 29.625
      vertex -102.99 -109.29 29.625
      vertex -91.28998 -109.29 29.625
    endloop
  endfacet
  facet normal 0 0 -1
    outer loop
      vertex -91.28998 -109.29 26.825
      vertex -102.99 -109.29 26.825
      vertex -102.99 -102.99 26.825
    endloop
  endfacet
  facet normal -0 0 1
    outer loop
      vertex -102.99 -102.99 29.625
      vertex -91.28998 -109.29 29.625
      vertex -91.28998 -91.28998 29.625
    endloop
  endfacet
  facet normal 0 -0 -1
    outer loop
      vertex -91.28998 -91.28998 26.825
      vertex -91.28998 -109.29 26.825
      vertex -102.99 -102.99 26.825
    endloop
  endfacet
  facet normal 0 -0 1
    outer loop
      vertex -102.99 -102.99 29.625
      vertex -91.28998 -91.28998 29.625
      vertex -109.29 -91.28998 29.625
    endloop
  endfacet
  facet normal 0 0 -1
    outer loop
      vertex -109.29 -91.28998 26.825
      vertex -91.28998 -91.28998 26.825
      vertex -102.99 -102.99 26.825
    endloop
  endfacet
  facet normal 0 0 1
    outer loop
      vertex -109.29 -91.28998 29.625
      vertex -109.29 -102.99 29.625
      vertex -102.99 -102.99 29.625
    endloop
  endfacet
  facet normal 0 0 -1
    outer loop
      vertex -102.99 -102.99 26.825
      vertex -109.29 -102.99 26.825
      vertex -109.29 -91.28998 26.825
    endloop
  endfacet
  facet normal 0 -1 0
    outer loop
      vertex -102.99 -109.29 26.825
      vertex -91.28998 -109.29 26.825
      vertex -91.28998 -109.29 29.625
    endloop
  endfacet
  facet normal 0 -1 0
    outer loop
      vertex -102.99 -109.29 26.825
      vertex -91.28998 -109.29 29.625
      vertex -102.99 -109.29 29.625
    endloop
  endfacet
  facet normal 1 0 0
    outer loop
      vertex -91.28998 -109.29 26.825
      vertex -91.28998 -91.28998 26.825
      vertex -91.28998 -91.28998 29.625
    endloop
  endfacet
  facet normal 1 0 0
    outer loop
      vertex -91.28998 -109.29 26.825
      vertex -91.28998 -91.28998 29.625
      vertex -91.28998 -109.29 29.625
    endloop
  endfacet
  facet normal 0 1 0
    outer loop
      vertex -91.28998 -91.28998 26.825
      vertex -109.29 -91.28998 26.825
      vertex -109.29 -91.28998 29.625
    endloop
  endfacet
  facet normal 0 1 -0
    outer loop
      vertex -91.28998 -91.28998 26.825
      vertex -109.29 -91.28998 29.625
      vertex -91.28998 -91.28998 29.625
    endloop
  endfacet
  facet normal -1 0 0
    outer loop
      vertex -109.29 -91.28998 26.825
      vertex -109.29 -102.99 26.825
      vertex -109.29 -102.99 29.625
    endloop
  endfacet
  facet normal -1 0 0
    outer loop
      vertex -109.29 -91.28998 26.825
      vertex -109.29 -102.99 29.625
      vertex -109.29 -91.28998 29.625
    endloop
  endfacet
  facet normal 0 -1 0
    outer loop
      vertex -109.29 -102.99 26.825
      vertex -102.99 -102.99 26.825
      vertex -102.99 -102.99 29.625
    endloop
  endfacet
  facet normal 0 -1 0
    outer loop
      vertex -109.29 -102.99 26.825
      vertex -102.99 -102.99 29.625
      vertex -109.29 -102.99 29.625
    endloop
  endfacet
  facet normal -1 0 0
    outer loop
      vertex -102.99 -102.99 26.825
      vertex -102.99 -109.29 26.825
      vertex -102.99 -109.29 29.625
    endloop
  endfacet
  facet normal -1 0 0
    outer loop
      vertex -102.99 -102.99 26.825
      vertex -102.99 -109.29 29.625
      vertex -102.99 -102.99 29.625
    endloop
  endfacet
  facet normal 0 0 1
    outer loop
      vertex -109.29 102.99 35.55
      vertex -109.29 91.28998 35.55
      vertex -91.28998 91.28998 35.55
    endloop
  endfacet
  facet normal 0 0 -1
    outer loop
      vertex -91.28998 91.28998 26.825
      vertex -109.29 91.28998 26.825
      vertex -109.29 102.99 26.825
    endloop
  endfacet
  facet normal 0 -0 1
    outer loop
      vertex -91.28998 91.28998 35.55
      vertex -91.28998 109.29 35.55
      vertex -102.99 109.29 35.55
    endloop
  endfacet
  facet normal 0 0 -1
    outer loop
      vertex -102.99 109.29 26.825
      vertex -91.28998 109.29 26.825
      vertex -91.28998 91.28998 26.825
    endloop
  endfacet
  facet normal 0 0 1
    outer loop
      vertex -91.28998 91.28998 35.55
      vertex -102.99 109.29 35.55
      vertex -102.99 102.99 35.55
    endloop
  endfacet
  facet normal 0 0 -1
    outer loop
      vertex -102.99 102.99 26.825
      vertex -102.99 109.29 26.825
      vertex -91.28998 91.28998 26.825
    endloop
  endfacet
  facet normal 0 0 1
    outer loop
      vertex -91.28998 91.28998 35.55
      vertex -102.99 102.99 35.55
      vertex -109.29 102.99 35.55
    endloop
  endfacet
  facet normal 0 0 -1
    outer loop
      vertex -109.29 102.99 26.825
      vertex -102.99 102.99 26.825
      vertex -91.28998 91.28998 26.825
    endloop
  endfacet
  facet normal 0 -1 0
    outer loop
      vertex -109.29 91.28998 26.825
      vertex -91.28998 91.28998 26.825
      vertex -91.28998 91.28998 35.55
    endloop
  endfacet
  facet normal 0 -1 0
    outer loop
      vertex -109.29 91.28998 26.825
      vertex -91.28998 91.28998 35.55
      vertex -109.29 91.28998 35.55
    endloop
  endfacet
  facet normal 1 0 0
    outer loop
      vertex -91.28998 91.28998 26.825
      vertex -91.28998 109.29 26.825
      vertex -91.28998 109.29 35.55
    endloop
  endfacet
  facet normal 1 0 0
    outer loop
      vertex -91.28998 91.28998 26.825
      vertex -91.28998 109.29 35.55
      vertex -91.28998 91.28998 35.55
    endloop
  endfacet
  facet normal 0 1 0
    outer loop
      vertex -91.28998 109.29 26.825
      vertex -102.99 109.29 26.825
      vertex -102.99 109.29 35.55
    endloop
  endfacet
  facet normal 0 1 -0
    outer loop
      vertex -91.28998 109.29 26.825
      vertex -102.99 109.29 35.55
      vertex -91.28998 109.29 35.55
    endloop
  endfacet
  facet normal -1 0 0
    outer loop
      vertex -102.99 109.29 26.825
      vertex -102.99 102.99 26.825
      vertex -102.99 102.99 35.55
    endloop
  endfacet
  facet normal -1 0 0
    outer loop
      vertex -102.99 109.29 26.825
      vertex -102.99 102.99 35.55
      vertex -102.99 109.29 35.55
    endloop
  endfacet
  facet normal 0 1 0
    outer loop
      vertex -102.99 102.99 26.825
      vertex -109.29 102.99 26.825
      vertex -109.29 102.99 35.55
    endloop
  endfacet
  facet normal 0 1 -0
    outer loop
      vertex -102.99 102.99 26.825
      vertex -109.29 102.99 35.55
      vertex -102.99 102.99 35.55
    endloop
  endfacet
  facet normal -1 0 0
    outer loop
      vertex -109.29 102.99 26.825
      vertex -109.29 91.28998 26.825
      vertex -109.29 91.28998 35.55
    endloop
  endfacet
  facet normal -1 0 0
    outer loop
      vertex -109.29 102.99 26.825
      vertex -109.29 91.28998 35.55
      vertex -109.29 102.99 35.55
    endloop
  endfacet
endsolid temporary_switchback_ramp_layer_06
