solid temporary_switchback_ramp_layer_07
  facet normal 0 0 -1
    outer loop
      vertex -104.6338 104.6338 29.625
      vertex 104.6338 104.6338 29.625
      vertex 104.6338 88.96189 29.625
    endloop
  endfacet
  facet normal 0 0 -1
    outer loop
      vertex -104.6338 104.6338 29.625
      vertex 104.6338 88.96189 29.625
      vertex -104.6338 88.96189 29.625
    endloop
  endfacet
  facet normal 0 0 1
    outer loop
      vertex -104.6338 88.96189 35.55
      vertex 104.6338 88.96189 35.55
      vertex 104.6338 104.6338 35.55
    endloop
  endfacet
  facet normal 0 0 1
    outer loop
      vertex -104.6338 88.96189 35.55
      vertex 104.6338 104.6338 35.55
      vertex -104.6338 104.6338 35.55
    endloop
  endfacet
  facet normal 0 -1 0
    outer loop
      vertex -104.6338 88.96189 29.625
      vertex 104.6338 88.96189 29.625
      vertex 104.6338 88.96189 35.55
    endloop
  endfacet
  facet normal 0 -1 0
    outer loop
      vertex -104.6338 88.96189 29.625
      vertex 104.6338 88.96189 35.55
      vertex -104.6338 88.96189 35.55
    endloop
  endfacet
  facet normal 1 0 0
    outer loop
      vertex 104.6338 88.96189 29.625
      vertex 104.6338 104.6338 29.625
      vertex 104.6338 104.6338 35.55
    endloop
  endfacet
  facet normal 1 0 0
    outer loop
      vertex 104.6338 88.96189 29.625
      vertex 104.6338 104.6338 35.55
      vertex 104.6338 88.96189 35.55
    endloop
  endfacet
  facet normal 0 1 0
    outer loop
      vertex 104.6338 104.6338 29.625
      vertex -104.6338 104.6338 29.625
      vertex -104.6338 104.6338 35.55
    endloop
  endfacet
  facet normal 0 1 -0
    outer loop
      vertex 104.6338 104.6338 29.625
      vertex -104.6338 104.6338 35.55
      vertex 104.6338 104.6338 35.55
    endloop
  endfacet
  facet normal -1 0 0
    outer loop
      vertex -104.6338 104.6338 29.625
      vertex -104.6338 88.96189 29.625
      vertex -104.6338 88.96189 35.55
    endloop
  endfacet
  facet normal -1 0 0
    outer loop
      vertex -104.6338 104.6338 29.625
      vertex -104.6338 88.96189 35.55
      vertex -104.6338 104.6338 35.55
    endloop
  endfacet
  facet normal 0 -0 -1
    outer loop
      vertex 104.6338 104.6338 29.625
      vertex 104.6338 -104.6338 29.625
      vertex 88.96189 -104.6338 29.625
    endloop
  endfacet
  facet normal -0 0 -1
    outer loop
      vertex 104.6338 104.6338 29.625
      vertex 88.96189 -104.6338 29.625
      vertex 88.96189 104.6338 29.625
    endloop
  endfacet
  facet normal 0 0 1
    outer loop
      vertex 88.96189 104.6338 35.55
      vertex 88.96189 -104.6338 35.55
      vertex 104.6338 -104.6338 35.55
    endloop
  endfacet
  facet normal -0 0 1
    outer loop
      vertex 88.96189 104.6338 35.55
      vertex 104.6338 -104.6338 35.55
      vertex 104.6338 104.6338 35.55
    endloop
  endfacet
  facet normal -1 0 0
    outer loop
      vertex 88.96189 104.6338 29.625
      vertex 88.96189 -104.6338 29.625
      vertex 88.96189 -104.6338 35.55
    endloop
  endfacet
  facet normal -1 0 0
    outer loop
      vertex 88.96189 104.6338 29.625
      vertex 88.96189 -104.6338 35.55
      vertex 88.96189 104.6338 35.55
    endloop
  endfacet
  facet normal 0 -1 0
    outer loop
      vertex 88.96189 -104.6338 29.625
      vertex 104.6338 -104.6338 29.625
      vertex 104.6338 -104.6338 35.55
    endloop
  endfacet
  facet normal 0 -1 0
    outer loop
      vertex 88.96189 -104.6338 29.625
      vertex 104.6338 -104.6338 35.55
      vertex 88.96189 -104.6338 35.55
    endloop
  endfacet
  facet normal 1 0 0
    outer loop
      vertex 104.6338 -104.6338 29.625
      vertex 104.6338 104.6338 29.625
      vertex 104.6338 104.6338 35.55
    endloop
  endfacet
  facet normal 1 0 0
    outer loop
      vertex 104.6338 -104.6338 29.625
      vertex 104.6338 104.6338 35.55
      vertex 104.6338 -104.6338 35.55
    endloop
  endfacet
  facet normal 0 1 0
    outer loop
      vertex 104.6338 104.6338 29.625
      vertex 88.96189 104.6338 29.625
      vertex 88.96189 104.6338 35.55
    endloop
  endfacet
  facet normal 0 1 -0
    outer loop
      vertex 104.6338 104.6338 29.625
      vertex 88.96189 104.6338 35.55
      vertex 104.6338 104.6338 35.55
    endloop
  endfacet
  facet normal 0 0 -1
    outer loop
      vertex 104.6338 -104.6338 29.625
      vertex -104.6338 -104.6338 29.625
      vertex -104.6338 -88.96189 29.625
    endloop
  endfacet
  facet normal 0 0 -1
    outer loop
      vertex 104.6338 -104.6338 29.625
      vertex -104.6338 -88.96189 29.625
      vertex 104.6338 -88.96189 29.625
    endloop
  endfacet
  facet normal 0 0 1
    outer loop
      vertex 104.6338 -88.96189 35.55
      vertex -104.6338 -88.96189 35.55
      vertex -104.6338 -104.6338 35.55
    endloop
  endfacet
  facet normal 0 0 1
    outer loop
      vertex 104.6338 -88.96189 35.55
      vertex -104.6338 -104.6338 35.55
      vertex 104.6338 -104.6338 35.55
    endloop
  endfacet
  facet normal 0 1 0
    outer loop
      vertex 104.6338 -88.96189 29.625
      vertex -104.6338 -88.96189 29.625
      vertex -104.6338 -88.96189 35.55
    endloop
  endfacet
  facet normal 0 1 -0
    outer loop
      vertex 104.6338 -88.96189 29.625
      vertex -104.6338 -88.96189 35.55
      vertex 104.6338 -88.96189 35.55
    endloop
  endfacet
  facet normal -1 0 0
    outer loop
      vertex -104.6338 -88.96189 29.625
      vertex -104.6338 -104.6338 29.625
      vertex -104.6338 -104.6338 35.55
    endloop
  endfacet
  facet normal -1 0 0
    outer loop
      vertex -104.6338 -88.96189 29.625
      vertex -104.6338 -104.6338 35.55
      vertex -104.6338 -88.96189 35.55
    endloop
  endfacet
  facet normal 0 -1 0
    outer loop
      vertex -104.6338 -104.6338 29.625
      vertex 104.6338 -104.6338 29.625
      vertex 104.6338 -104.6338 35.55
    endloop
  endfacet
  facet normal 0 -1 0
    outer loop
      vertex -104.6338 -104.6338 29.625
      vertex 104.6338 -104.6338 35.55
      vertex -104.6338 -104.6338 35.55
    endloop
  endfacet
  facet normal 1 0 0
    outer loop
      vertex 104.6338 -104.6338 29.625
      vertex 104.6338 -88.96189 29.625
      vertex 104.6338 -88.96189 35.55
    endloop
  endfacet
  facet normal 1 0 0
    outer loop
      vertex 104.6338 -104.6338 29.625
      vertex 104.6338 -88.96189 35.55
      vertex 104.6338 -104.6338 35.55
    endloop
  endfacet
  facet normal 0 0 -1
    outer loop
      vertex -104.6338 -104.6338 29.625
      vertex -104.6338 104.6338 29.625
      vertex -88.96189 104.6338 29.625
    endloop
  endfacet
  facet normal 0 0 -1
    outer loop
      vertex -104.6338 -104.6338 29.625
      vertex -88.96189 104.6338 29.625
      vertex -88.96189 -104.6338 29.625
    endloop
  endfacet
  facet normal 0 -0 1
    outer loop
      vertex -88.96189 -104.6338 35.55
      vertex -88.96189 104.6338 35.55
      vertex -104.6338 104.6338 35.55
    endloop
  endfacet
  facet normal 0 0 1
    outer loop
      vertex -88.96189 -104.6338 35.55
      vertex -104.6338 104.6338 35.55
      vertex -104.6338 -104.6338 35.55
    endloop
  endfacet
  facet normal 1 0 0
    outer loop
      vertex -88.96189 -104.6338 29.625
      vertex -88.96189 104.6338 29.625
      vertex -88.96189 104.6338 35.55
    endloop
  endfacet
  facet normal 1 0 0
    outer loop
      vertex -88.96189 -104.6338 29.625
      vertex -88.96189 104.6338 35.55
      vertex -88.96189 -104.6338 35.55
    endloop
  endfacet
  facet normal 0 1 0
    outer loop
      vertex -88.96189 104.6338 29.625
      vertex -104.6338 104.6338 29.625
      vertex -104.6338 104.6338 35.55
    endloop
  endfacet
  facet normal 0 1 -0
    outer loop
      vertex -88.96189 104.6338 29.625
      vertex -104.6338 104.6338 35.55
      vertex -88.96189 104.6338 35.55
    endloop
  endfacet
  facet normal -1 0 0
    outer loop
      vertex -104.6338 104.6338 29.625
      vertex -104.6338 -104.6338 29.625
      vertex -104.6338 -104.6338 35.55
    endloop
  endfacet
  facet normal -1 0 0
    outer loop
      vertex -104.6338 104.6338 29.625
      vertex -104.6338 -104.6338 35.55
      vertex -104.6338 104.6338 35.55
    endloop
  endfacet
  facet normal 0 -1 0
    outer loop
      vertex -104.6338 -104.6338 29.625
      vertex -88.96189 -104.6338 29.625
      vertex -88.96189 -104.6338 35.55
    endloop
  endfacet
  facet normal 0 -1 0
    outer loop
      vertex -104.6338 -104.6338 29.625
      vertex -88.96189 -104.6338 35.55
      vertex -104.6338 -104.6338 35.55
    endloop
  endfacet
  facet normal 0 0 1
    outer loop
      vertex 86.63379 104.6338 35.55
      vertex 86.63379 86.63379 35.55
      vertex 104.6338 86.63379 35.55
    endloop
  endfacet
  facet normal 0 0 -1
    outer loop
      vertex 104.6338 86.63379 29.625
      vertex 86.63379 86.63379 29.625
      vertex 86.63379 104.6338 29.625
    endloop
  endfacet
  facet normal 0 -0 1
    outer loop
      vertex 104.6338 86.63379 35.55
      vertex 104.6338 98.33379 35.55
      vertex 98.33379 98.33379 35.55
    endloop
  endfacet
  facet normal 0 0 -1
    outer loop
      vertex 98.33379 98.33379 29.625
      vertex 104.6338 98.33379 29.625
      vertex 104.6338 86.63379 29.625
    endloop
  endfacet
  facet normal 0 0 1
    outer loop
      vertex 86.63379 104.6338 35.55
      vertex 104.6338 86.63379 35.55
      vertex 98.33379 98.33379 35.55
    endloop
  endfacet
  facet normal -0 -0 -1
    outer loop
      vertex 98.33379 98.33379 29.625
      vertex 104.6338 86.63379 29.625
      vertex 86.63379 104.6338 29.625
    endloop
  endfacet
  facet normal 0 -0 1
    outer loop
      vertex 98.33379 98.33379 35.55
      vertex 98.33379 104.6338 35.55
      vertex 86.63379 104.6338 35.55
    endloop
  endfacet
  facet normal 0 0 -1
    outer loop
      vertex 86.63379 104.6338 29.625
      vertex 98.33379 104.6338 29.625
      vertex 98.33379 98.33379 29.625
    endloop
  endfacet
  facet normal 0 -1 0
    outer loop
      vertex 86.63379 86.63379 29.625
      vertex 104.6338 86.63379 29.625
      vertex 104.6338 86.63379 35.55
    endloop
  endfacet
  facet normal 0 -1 0
    outer loop
      vertex 86.63379 86.63379 29.625
      vertex 104.6338 86.63379 35.55
      vertex 86.63379 86.63379 35.55
    endloop
  endfacet
  facet normal 1 0 0
    outer loop
      vertex 104.6338 86.63379 29.625
      vertex 104.6338 98.33379 29.625
      vertex 104.6338 98.33379 35.55
    endloop
  endfacet
  facet normal 1 0 0
    outer loop
      vertex 104.6338 86.63379 29.625
      vertex 104.6338 98.33379 35.55
      vertex 104.6338 86.63379 35.55
    endloop
  endfacet
  facet normal 0 1 0
    outer loop
      vertex 104.6338 98.33379 29.625
      vertex 98.33379 98.33379 29.625
      vertex 98.33379 98.33379 35.55
    endloop
  endfacet
  facet normal 0 1 -0
    outer loop
      vertex 104.6338 98.33379 29.625
      vertex 98.33379 98.33379 35.55
      vertex 104.6338 98.33379 35.55
    endloop
  endfacet
  facet normal 1 0 0
    outer loop
      vertex 98.33379 98.33379 29.625
      vertex 98.33379 104.6338 29.625
      vertex 98.33379 104.6338 35.55
    endloop
  endfacet
  facet normal 1 0 0
    outer loop
      vertex 98.33379 98.33379 29.625
      vertex 98.33379 104.6338 35.55
      vertex 98.33379 98.33379 35.55
    endloop
  endfacet
  facet normal 0 1 0
    outer loop
      vertex 98.33379 104.6338 29.625
      vertex 86.63379 104.6338 29.625
      vertex 86.63379 104.6338 35.55
    endloop
  endfacet
  facet normal 0 1 -0
    outer loop
      vertex 98.33379 104.6338 29.625
      vertex 86.63379 104.6338 35.55
      vertex 98.33379 104.6338 35.55
    endloop
  endfacet
  facet normal -1 0 0
    outer loop
      vertex 86.63379 104.6338 29.625
      vertex 86.63379 86.63379 29.625
      vertex 86.63379 86.63379 35.55
    endloop
  endfacet
  facet normal -1 0 0
    outer loop
      vertex 86.63379 104.6338 29.625
      vertex 86.63379 86.63379 35.55
      vertex 86.63379 104.6338 35.55
    endloop
  endfacet
  facet normal 0 0 1
    outer loop
      vertex 86.63379 -86.63379 35.55
      vertex 86.63379 -104.6338 35.55
      vertex 98.33379 -104.6338 35.55
    endloop
  endfacet
  facet normal 0 0 -1
    outer loop
      vertex 98.33379 -104.6338 29.625
      vertex 86.63379 -104.6338 29.625
      vertex 86.63379 -86.63379 29.625
    endloop
  endfacet
  facet normal 0 0 1
    outer loop
      vertex 86.63379 -86.63379 35.55
      vertex 98.33379 -104.6338 35.55
      vertex 98.33379 -98.33379 35.55
    endloop
  endfacet
  facet normal -0 -0 -1
    outer loop
      vertex 98.33379 -98.33379 29.625
      vertex 98.33379 -104.6338 29.625
      vertex 86.63379 -86.63379 29.625
    endloop
  endfacet
  facet normal 0 0 1
    outer loop
      vertex 86.63379 -86.63379 35.55
      vertex 98.33379 -98.33379 35.55
      vertex 104.6338 -98.33379 35.55
    endloop
  endfacet
  facet normal 0 0 -1
    outer loop
      vertex 104.6338 -98.33379 29.625
      vertex 98.33379 -98.33379 29.625
      vertex 86.63379 -86.63379 29.625
    endloop
  endfacet
  facet normal 0 -0 1
    outer loop
      vertex 104.6338 -98.33379 35.55
      vertex 104.6338 -86.63379 35.55
      vertex 86.63379 -86.63379 35.55
    endloop
  endfacet
  facet normal 0 0 -1
    outer loop
      vertex 86.63379 -86.63379 29.625
      vertex 104.6338 -86.63379 29.625
      vertex 104.6338 -98.33379 29.625
    endloop
  endfacet
  facet normal 0 -1 0
    outer loop
      vertex 86.63379 -104.6338 29.625
      vertex 98.33379 -104.6338 29.625
      vertex 98.33379 -104.6338 35.55
    endloop
  endfacet
  facet normal 0 -1 0
    outer loop
      vertex 86.63379 -104.6338 29.625
      vertex 98.33379 -104.6338 35.55
      vertex 86.63379 -104.6338 35.55
    endloop
  endfacet
  facet normal 1 0 0
    outer loop
      vertex 98.33379 -104.6338 29.625
      vertex 98.33379 -98.33379 29.625
      vertex 98.33379 -98.33379 35.55
    endloop
  endfacet
  facet normal 1 0 0
    outer loop
      vertex 98.33379 -104.6338 29.625
      vertex 98.33379 -98.33379 35.55
      vertex 98.33379 -104.6338 35.55
    endloop
  endfacet
  facet normal 0 -1 0
    outer loop
      vertex 98.33379 -98.33379 29.625
      vertex 104.6338 -98.33379 29.625
      vertex 104.6338 -98.33379 35.55
    endloop
  endfacet
  facet normal 0 -1 0
    outer loop
      vertex 98.33379 -98.33379 29.625
      vertex 104.6338 -98.33379 35.55
      vertex 98.33379 -98.33379 35.55
    endloop
  endfacet
  facet normal 1 0 0
    outer loop
      vertex 104.6338 -98.33379 29.625
      vertex 104.6338 -86.63379 29.625
      vertex 104.6338 -86.63379 35.55
    endloop
  endfacet
  facet normal 1 0 0
    outer loop
      vertex 104.6338 -98.33379 29.625
      vertex 104.6338 -86.63379 35.55
      vertex 104.6338 -98.33379 35.55
    endloop
  endfacet
  facet normal 0 1 0
    outer loop
      vertex 104.6338 -86.63379 29.625
      vertex 86.63379 -86.63379 29.625
      vertex 86.63379 -86.63379 35.55
    endloop
  endfacet
  facet normal 0 1 -0
    outer loop
      vertex 104.6338 -86.63379 29.625
      vertex 86.63379 -86.63379 35.55
      vertex 104.6338 -86.63379 35.55
    endloop
  endfacet
  facet normal -1 0 0
    outer loop
      vertex 86.63379 -86.63379 29.625
      vertex 86.63379 -104.6338 29.625
      vertex 86.63379 -104.6338 35.55
    endloop
  endfacet
  facet normal -1 0 0
    outer loop
      vertex 86.63379 -86.63379 29.625
      vertex 86.63379 -104.6338 35.55
      vertex 86.63379 -86.63379 35.55
    endloop
  endfacet
  facet normal 0 0 1
    outer loop
      vertex -98.33379 -98.33379 35.55
      vertex -98.33379 -104.6338 35.55
      vertex -86.63379 -104.6338 35.55
    endloop
  endfacet
  facet normal 0 0 -1
    outer loop
      vertex -86.63379 -104.6338 29.625
      vertex -98.33379 -104.6338 29.625
      vertex -98.33379 -98.33379 29.625
    endloop
  endfacet
  facet normal -0 0 1
    outer loop
      vertex -98.33379 -98.33379 35.55
      vertex -86.63379 -104.6338 35.55
      vertex -86.63379 -86.63379 35.55
    endloop
  endfacet
  facet normal 0 -0 -1
    outer loop
      vertex -86.63379 -86.63379 29.625
      vertex -86.63379 -104.6338 29.625
      vertex -98.33379 -98.33379 29.625
    endloop
  endfacet
  facet normal 0 -0 1
    outer loop
      vertex -98.33379 -98.33379 35.55
      vertex -86.63379 -86.63379 35.55
      vertex -104.6338 -86.63379 35.55
    endloop
  endfacet
  facet normal 0 0 -1
    outer loop
      vertex -104.6338 -86.63379 29.625
      vertex -86.63379 -86.63379 29.625
      vertex -98.33379 -98.33379 29.625
    endloop
  endfacet
  facet normal 0 0 1
    outer loop
      vertex -104.6338 -86.63379 35.55
      vertex -104.6338 -98.33379 35.55
      vertex -98.33379 -98.33379 35.55
    endloop
  endfacet
  facet normal 0 0 -1
    outer loop
      vertex -98.33379 -98.33379 29.625
      vertex -104.6338 -98.33379 29.625
      vertex -104.6338 -86.63379 29.625
    endloop
  endfacet
  facet normal 0 -1 0
    outer loop
      vertex -98.33379 -104.6338 29.625
      vertex -86.63379 -104.6338 29.625
      vertex -86.63379 -104.6338 35.55
    endloop
  endfacet
  facet normal 0 -1 0
    outer loop
      vertex -98.33379 -104.6338 29.625
      vertex -86.63379 -104.6338 35.55
      vertex -98.33379 -104.6338 35.55
    endloop
  endfacet
  facet normal 1 0 0
    outer loop
      vertex -86.63379 -104.6338 29.625
      vertex -86.63379 -86.63379 29.625
      vertex -86.63379 -86.63379 35.55
    endloop
  endfacet
  facet normal 1 0 0
    outer loop
      vertex -86.63379 -104.6338 29.625
      vertex -86.63379 -86.63379 35.55
      vertex -86.63379 -104.6338 35.55
    endloop
  endfacet
  facet normal 0 1 0
    outer loop
      vertex -86.63379 -86.63379 29.625
      vertex -104.6338 -86.63379 29.625
      vertex -104.6338 -86.63379 35.55
    endloop
  endfacet
  facet normal 0 1 -0
    outer loop
      vertex -86.63379 -86.63379 29.625
      vertex -104.6338 -86.63379 35.55
      vertex -86.63379 -86.63379 35.55
    endloop
  endfacet
  facet normal -1 0 0
    outer loop
      vertex -104.6338 -86.63379 29.625
      vertex -104.6338 -98.33379 29.625
      vertex -104.6338 -98.33379 35.55
    endloop
  endfacet
  facet normal -1 0 0
    outer loop
      vertex -104.6338 -86.63379 29.625
      vertex -104.6338 -98.33379 35.55
      vertex -104.6338 -86.63379 35.55
    endloop
  endfacet
  facet normal 0 -1 0
    outer loop
      vertex -104.6338 -98.33379 29.625
      vertex -98.33379 -98.33379 29.625
      vertex -98.33379 -98.33379 35.55
    endloop
  endfacet
  facet normal 0 -1 0
    outer loop
      vertex -104.6338 -98.33379 29.625
      vertex -98.33379 -98.33379 35.55
      vertex -104.6338 -98.33379 35.55
    endloop
  endfacet
  facet normal -1 0 0
    outer loop
      vertex -98.33379 -98.33379 29.625
      vertex -98.33379 -104.6338 29.625
      vertex -98.33379 -104.6338 35.55
    endloop
  endfacet
  facet normal -1 0 0
    outer loop
      vertex -98.33379 -98.33379 29.625
      vertex -98.33379 -104.6338 35.55
      vertex -98.33379 -98.33379 35.55
    endloop
  endfacet
  facet normal 0 0 1
    outer loop
      vertex -104.6338 98.33379 35.55
      vertex -104.6338 86.63379 35.55
      vertex -86.63379 86.63379 35.55
    endloop
  endfacet
  facet normal 0 0 -1
    outer loop
      vertex -86.63379 86.63379 29.625
      vertex -104.6338 86.63379 29.625
      vertex -104.6338 98.33379 29.625
    endloop
  endfacet
  facet normal 0 -0 1
    outer loop
      vertex -86.63379 86.63379 35.55
      vertex -86.63379 104.6338 35.55
      vertex -98.33379 104.6338 35.55
    endloop
  endfacet
  facet normal 0 0 -1
    outer loop
      vertex -98.33379 104.6338 29.625
      vertex -86.63379 104.6338 29.625
      vertex -86.63379 86.63379 29.625
    endloop
  endfacet
  facet normal 0 0 1
    outer loop
      vertex -86.63379 86.63379 35.55
      vertex -98.33379 104.6338 35.55
      vertex -98.33379 98.33379 35.55
    endloop
  endfacet
  facet normal 0 0 -1
    outer loop
      vertex -98.33379 98.33379 29.625
      vertex -98.33379 104.6338 29.625
      vertex -86.63379 86.63379 29.625
    endloop
  endfacet
  facet normal 0 0 1
    outer loop
      vertex -86.63379 86.63379 35.55
      vertex -98.33379 98.33379 35.55
      vertex -104.6338 98.33379 35.55
    endloop
  endfacet
  facet normal 0 0 -1
    outer loop
      vertex -104.6338 98.33379 29.625
      vertex -98.33379 98.33379 29.625
      vertex -86.63379 86.63379 29.625
    endloop
  endfacet
  facet normal 0 -1 0
    outer loop
      vertex -104.6338 86.63379 29.625
      vertex -86.63379 86.63379 29.625
      vertex -86.63379 86.63379 35.55
    endloop
  endfacet
  facet normal 0 -1 0
    outer loop
      vertex -104.6338 86.63379 29.625
      vertex -86.63379 86.63379 35.55
      vertex -104.6338 86.63379 35.55
    endloop
  endfacet
  facet normal 1 0 0
    outer loop
      vertex -86.63379 86.63379 29.625
      vertex -86.63379 104.6338 29.625
      vertex -86.63379 104.6338 35.55
    endloop
  endfacet
  facet normal 1 0 0
    outer loop
      vertex -86.63379 86.63379 29.625
      vertex -86.63379 104.6338 35.55
      vertex -86.63379 86.63379 35.55
    endloop
  endfacet
  facet normal 0 1 0
    outer loop
      vertex -86.63379 104.6338 29.625
      vertex -98.33379 104.6338 29.625
      vertex -98.33379 104.6338 35.55
    endloop
  endfacet
  facet normal 0 1 -0
    outer loop
      vertex -86.63379 104.6338 29.625
      vertex -98.33379 104.6338 35.55
      vertex -86.63379 104.6338 35.55
    endloop
  endfacet
  facet normal -1 0 0
    outer loop
      vertex -98.33379 104.6338 29.625
      vertex -98.33379 98.33379 29.625
      vertex -98.33379 98.33379 35.55
    endloop
  endfacet
  facet normal -1 0 0
    outer loop
      vertex -98.33379 104.6338 29.625
      vertex -98.33379 98.33379 35.55
      vertex -98.33379 104.6338 35.55
    endloop
  endfacet
  facet normal 0 1 0
    outer loop
      vertex -98.33379 98.33379 29.625
      vertex -104.6338 98.33379 29.625
      vertex -104.6338 98.33379 35.55
    endloop
  endfacet
  facet normal 0 1 -0
    outer loop
      vertex -98.33379 98.33379 29.625
      vertex -104.6338 98.33379 35.55
      vertex -98.33379 98.33379 35.55
    endloop
  endfacet
  facet normal -1 0 0
    outer loop
      vertex -104.6338 98.33379 29.625
      vertex -104.6338 86.63379 29.625
      vertex -104.6338 86.63379 35.55
    endloop
  endfacet
  facet normal -1 0 0
    outer loop
      vertex -104.6338 98.33379 29.625
      vertex -104.6338 86.63379 35.55
      vertex -104.6338 98.33379 35.55
    endloop
  endfacet
  facet normal 0 0 -1
    outer loop
      vertex -86.63379 86.63379 32.75
      vertex 43.3169 104.6338 32.75
      vertex 43.3169 86.63379 32.75
    endloop
  endfacet
  facet normal 0 0 -1
    outer loop
      vertex -86.63379 86.63379 32.75
      vertex -86.63379 104.6338 32.75
      vertex 43.3169 104.6338 32.75
    endloop
  endfacet
  facet normal 0 0 -1
    outer loop
      vertex 43.3169 86.63379 32.75
      vertex 86.63379 104.6338 32.75
      vertex 86.63379 86.63379 32.75
    endloop
  endfacet
  facet normal 0 0 -1
    outer loop
      vertex 43.3169 86.63379 32.75
      vertex 43.3169 104.6338 32.75
      vertex 86.63379 104.6338 32.75
    endloop
  endfacet
  facet normal -0.0455469 0 0.9989622
    outer loop
      vertex -86.63379 86.63379 35.55
      vertex 43.3169 86.63379 41.475
      vertex 43.3169 104.6338 41.475
    endloop
  endfacet
  facet normal -0.0455469 0 0.9989622
    outer loop
      vertex -86.63379 86.63379 35.55
      vertex 43.3169 104.6338 41.475
      vertex -86.63379 104.6338 35.55
    endloop
  endfacet
  facet normal 0 0 1
    outer loop
      vertex 43.3169 86.63379 41.475
      vertex 86.63379 86.63379 41.475
      vertex 86.63379 104.6338 41.475
    endloop
  endfacet
  facet normal 0 0 1
    outer loop
      vertex 43.3169 86.63379 41.475
      vertex 86.63379 104.6338 41.475
      vertex 43.3169 104.6338 41.475
    endloop
  endfacet
  facet normal 0 -1 0
    outer loop
      vertex -86.63379 86.63379 32.75
      vertex 43.3169 86.63379 32.75
      vertex 43.3169 86.63379 41.475
    endloop
  endfacet
  facet normal 0 -1 0
    outer loop
      vertex -86.63379 86.63379 32.75
      vertex 43.3169 86.63379 41.475
      vertex -86.63379 86.63379 35.55
    endloop
  endfacet
  facet normal 0 -1 0
    outer loop
      vertex 43.3169 86.63379 32.75
      vertex 86.63379 86.63379 32.75
      vertex 86.63379 86.63379 41.475
    endloop
  endfacet
  facet normal 0 -1 0
    outer loop
      vertex 43.3169 86.63379 32.75
      vertex 86.63379 86.63379 41.475
      vertex 43.3169 86.63379 41.475
    endloop
  endfacet
  facet normal 0 1 0
    outer loop
      vertex -86.63379 104.6338 32.75
      vertex 43.3169 104.6338 41.475
      vertex 43.3169 104.6338 32.75
    endloop
  endfacet
  facet normal 0 1 0
    outer loop
      vertex -86.63379 104.6338 32.75
      vertex -86.63379 104.6338 35.55
      vertex 43.3169 104.6338 41.475
    endloop
  endfacet
  facet normal 0 1 0
    outer loop
      vertex 43.3169 104.6338 32.75
      vertex 86.63379 104.6338 41.475
      vertex 86.63379 104.6338 32.75
    endloop
  endfacet
  facet normal 0 1 0
    outer loop
      vertex 43.3169 104.6338 32.75
      vertex 43.3169 104.6338 41.475
      vertex 86.63379 104.6338 41.475
    endloop
  endfacet
  facet normal -1 0 0
    outer loop
      vertex -86.63379 104.6338 32.75
      vertex -86.63379 86.63379 32.75
      vertex -86.63379 86.63379 35.55
    endloop
  endfacet
  facet normal -1 0 0
    outer loop
      vertex -86.63379 104.6338 32.75
      vertex -86.63379 86.63379 35.55
      vertex -86.63379 104.6338 35.55
    endloop
  endfacet
  facet normal 1 0 0
    outer loop
      vertex 86.63379 86.63379 32.75
      vertex 86.63379 104.6338 32.75
      vertex 86.63379 104.6338 41.475
    endloop
  endfacet
  facet normal 1 0 0
    outer loop
      vertex 86.63379 86.63379 32.75
      vertex 86.63379 104.6338 41.475
      vertex 86.63379 86.63379 41.475
    endloop
  endfacet
  facet normal 0 0 -1
    outer loop
      vertex 86.63379 -86.63379 32.75
      vertex 86.63379 43.3169 32.75
      vertex 104.6338 43.3169 32.75
    endloop
  endfacet
  facet normal 0 0 -1
    outer loop
      vertex 86.63379 -86.63379 32.75
      vertex 104.6338 43.3169 32.75
      vertex 104.6338 -86.63379 32.75
    endloop
  endfacet
  facet normal 0 0 -1
    outer loop
      vertex 86.63379 43.3169 32.75
      vertex 86.63379 86.63379 32.75
      vertex 104.6338 86.63379 32.75
    endloop
  endfacet
  facet normal 0 0 -1
    outer loop
      vertex 86.63379 43.3169 32.75
      vertex 104.6338 86.63379 32.75
      vertex 104.6338 43.3169 32.75
    endloop
  endfacet
  facet normal 0 -0.0455469 0.9989622
    outer loop
      vertex 86.63379 -86.63379 35.55
      vertex 104.6338 43.3169 41.475
      vertex 86.63379 43.3169 41.475
    endloop
  endfacet
  facet normal 0 -0.0455469 0.9989622
    outer loop
      vertex 86.63379 -86.63379 35.55
      vertex 104.6338 -86.63379 35.55
      vertex 104.6338 43.3169 41.475
    endloop
  endfacet
  facet normal 0 0 1
    outer loop
      vertex 86.63379 43.3169 41.475
      vertex 104.6338 86.63379 41.475
      vertex 86.63379 86.63379 41.475
    endloop
  endfacet
  facet normal 0 0 1
    outer loop
      vertex 86.63379 43.3169 41.475
      vertex 104.6338 43.3169 41.475
      vertex 104.6338 86.63379 41.475
    endloop
  endfacet
  facet normal -1 0 0
    outer loop
      vertex 86.63379 -86.63379 32.75
      vertex 86.63379 43.3169 41.475
      vertex 86.63379 43.3169 32.75
    endloop
  endfacet
  facet normal -1 0 0
    outer loop
      vertex 86.63379 -86.63379 32.75
      vertex 86.63379 -86.63379 35.55
      vertex 86.63379 43.3169 41.475
    endloop
  endfacet
  facet normal -1 0 0
    outer loop
      vertex 86.63379 43.3169 32.75
      vertex 86.63379 86.63379 41.475
      vertex 86.63379 86.63379 32.75
    endloop
  endfacet
  facet normal -1 0 0
    outer loop
      vertex 86.63379 43.3169 32.75
      vertex 86.63379 43.3169 41.475
      vertex 86.63379 86.63379 41.475
    endloop
  endfacet
  facet normal 1 0 0
    outer loop
      vertex 104.6338 -86.63379 32.75
      vertex 104.6338 43.3169 32.75
      vertex 104.6338 43.3169 41.475
    endloop
  endfacet
  facet normal 1 0 0
    outer loop
      vertex 104.6338 -86.63379 32.75
      vertex 104.6338 43.3169 41.475
      vertex 104.6338 -86.63379 35.55
    endloop
  endfacet
  facet normal 1 0 0
    outer loop
      vertex 104.6338 43.3169 32.75
      vertex 104.6338 86.63379 32.75
      vertex 104.6338 86.63379 41.475
    endloop
  endfacet
  facet normal 1 0 0
    outer loop
      vertex 104.6338 43.3169 32.75
      vertex 104.6338 86.63379 41.475
      vertex 104.6338 43.3169 41.475
    endloop
  endfacet
  facet normal 0 -1 0
    outer loop
      vertex 104.6338 -86.63379 32.75
      vertex 86.63379 -86.63379 35.55
      vertex 86.63379 -86.63379 32.75
    endloop
  endfacet
  facet normal 0 -1 0
    outer loop
      vertex 104.6338 -86.63379 32.75
      vertex 104.6338 -86.63379 35.55
      vertex 86.63379 -86.63379 35.55
    endloop
  endfacet
  facet normal 0 1 0
    outer loop
      vertex 86.63379 86.63379 32.75
      vertex 104.6338 86.63379 41.475
      vertex 104.6338 86.63379 32.75
    endloop
  endfacet
  facet normal 0 1 0
    outer loop
      vertex 86.63379 86.63379 32.75
      vertex 86.63379 86.63379 41.475
      vertex 104.6338 86.63379 41.475
    endloop
  endfacet
  facet normal -0 0 -1
    outer loop
      vertex 86.63379 -86.63379 32.75
      vertex -43.3169 -104.6338 32.75
      vertex -43.3169 -86.63379 32.75
    endloop
  endfacet
  facet normal 0 -0 -1
    outer loop
      vertex 86.63379 -86.63379 32.75
      vertex 86.63379 -104.6338 32.75
      vertex -43.3169 -104.6338 32.75
    endloop
  endfacet
  facet normal -0 0 -1
    outer loop
      vertex -43.3169 -86.63379 32.75
      vertex -86.63379 -104.6338 32.75
      vertex -86.63379 -86.63379 32.75
    endloop
  endfacet
  facet normal 0 -0 -1
    outer loop
      vertex -43.3169 -86.63379 32.75
      vertex -43.3169 -104.6338 32.75
      vertex -86.63379 -104.6338 32.75
    endloop
  endfacet
  facet normal 0.0455469 0 0.9989622
    outer loop
      vertex 86.63379 -86.63379 35.55
      vertex -43.3169 -86.63379 41.475
      vertex -43.3169 -104.6338 41.475
    endloop
  endfacet
  facet normal 0.0455469 0 0.9989622
    outer loop
      vertex 86.63379 -86.63379 35.55
      vertex -43.3169 -104.6338 41.475
      vertex 86.63379 -104.6338 35.55
    endloop
  endfacet
  facet normal 0 0 1
    outer loop
      vertex -43.3169 -86.63379 41.475
      vertex -86.63379 -86.63379 41.475
      vertex -86.63379 -104.6338 41.475
    endloop
  endfacet
  facet normal 0 0 1
    outer loop
      vertex -43.3169 -86.63379 41.475
      vertex -86.63379 -104.6338 41.475
      vertex -43.3169 -104.6338 41.475
    endloop
  endfacet
  facet normal 0 1 0
    outer loop
      vertex 86.63379 -86.63379 32.75
      vertex -43.3169 -86.63379 32.75
      vertex -43.3169 -86.63379 41.475
    endloop
  endfacet
  facet normal 0 1 -0
    outer loop
      vertex 86.63379 -86.63379 32.75
      vertex -43.3169 -86.63379 41.475
      vertex 86.63379 -86.63379 35.55
    endloop
  endfacet
  facet normal 0 1 0
    outer loop
      vertex -43.3169 -86.63379 32.75
      vertex -86.63379 -86.63379 32.75
      vertex -86.63379 -86.63379 41.475
    endloop
  endfacet
  facet normal 0 1 -0
    outer loop
      vertex -43.3169 -86.63379 32.75
      vertex -86.63379 -86.63379 41.475
      vertex -43.3169 -86.63379 41.475
    endloop
  endfacet
  facet normal 0 -1 0
    outer loop
      vertex 86.63379 -104.6338 32.75
      vertex -43.3169 -104.6338 41.475
      vertex -43.3169 -104.6338 32.75
    endloop
  endfacet
  facet normal 0 -1 0
    outer loop
      vertex 86.63379 -104.6338 32.75
      vertex 86.63379 -104.6338 35.55
      vertex -43.3169 -104.6338 41.475
    endloop
  endfacet
  facet normal 0 -1 0
    outer loop
      vertex -43.3169 -104.6338 32.75
      vertex -86.63379 -104.6338 41.475
      vertex -86.63379 -104.6338 32.75
    endloop
  endfacet
  facet normal 0 -1 0
    outer loop
      vertex -43.3169 -104.6338 32.75
      vertex -43.3169 -104.6338 41.475
      vertex -86.63379 -104.6338 41.475
    endloop
  endfacet
  facet normal 1 0 0
    outer loop
      vertex 86.63379 -104.6338 32.75
      vertex 86.63379 -86.63379 32.75
      vertex 86.63379 -86.63379 35.55
    endloop
  endfacet
  facet normal 1 0 0
    outer loop
      vertex 86.63379 -104.6338 32.75
      vertex 86.63379 -86.63379 35.55
      vertex 86.63379 -104.6338 35.55
    endloop
  endfacet
  facet normal -1 0 0
    outer loop
      vertex -86.63379 -86.63379 32.75
      vertex -86.63379 -104.6338 32.75
      vertex -86.63379 -104.6338 41.475
    endloop
  endfacet
  facet normal -1 0 0
    outer loop
      vertex -86.63379 -86.63379 32.75
      vertex -86.63379 -104.6338 41.475
      vertex -86.63379 -86.63379 41.475
    endloop
  endfacet
  facet normal 0 -0 -1
    outer loop
      vertex -86.63379 86.63379 32.75
      vertex -86.63379 -43.3169 32.75
      vertex -104.6338 -43.3169 32.75
    endloop
  endfacet
  facet normal -0 0 -1
    outer loop
      vertex -86.63379 86.63379 32.75
      vertex -104.6338 -43.3169 32.75
      vertex -104.6338 86.63379 32.75
    endloop
  endfacet
  facet normal 0 -0 -1
    outer loop
      vertex -86.63379 -43.3169 32.75
      vertex -86.63379 -86.63379 32.75
      vertex -104.6338 -86.63379 32.75
    endloop
  endfacet
  facet normal -0 0 -1
    outer loop
      vertex -86.63379 -43.3169 32.75
      vertex -104.6338 -86.63379 32.75
      vertex -104.6338 -43.3169 32.75
    endloop
  endfacet
  facet normal 0 0.0455469 0.9989622
    outer loop
      vertex -86.63379 86.63379 35.55
      vertex -104.6338 -43.3169 41.475
      vertex -86.63379 -43.3169 41.475
    endloop
  endfacet
  facet normal 0 0.0455469 0.9989622
    outer loop
      vertex -86.63379 86.63379 35.55
      vertex -104.6338 86.63379 35.55
      vertex -104.6338 -43.3169 41.475
    endloop
  endfacet
  facet normal 0 0 1
    outer loop
      vertex -86.63379 -43.3169 41.475
      vertex -104.6338 -86.63379 41.475
      vertex -86.63379 -86.63379 41.475
    endloop
  endfacet
  facet normal 0 0 1
    outer loop
      vertex -86.63379 -43.3169 41.475
      vertex -104.6338 -43.3169 41.475
      vertex -104.6338 -86.63379 41.475
    endloop
  endfacet
  facet normal 1 0 0
    outer loop
      vertex -86.63379 86.63379 32.75
      vertex -86.63379 -43.3169 41.475
      vertex -86.63379 -43.3169 32.75
    endloop
  endfacet
  facet normal 1 0 -0
    outer loop
      vertex -86.63379 86.63379 32.75
      vertex -86.63379 86.63379 35.55
      vertex -86.63379 -43.3169 41.475
    endloop
  endfacet
  facet normal 1 0 0
    outer loop
      vertex -86.63379 -43.3169 32.75
      vertex -86.63379 -86.63379 41.475
      vertex -86.63379 -86.63379 32.75
    endloop
  endfacet
  facet normal 1 0 -0
    outer loop
      vertex -86.63379 -43.3169 32.75
      vertex -86.63379 -43.3169 41.475
      vertex -86.63379 -86.63379 41.475
    endloop
  endfacet
  facet normal -1 0 0
    outer loop
      vertex -104.6338 86.63379 32.75
      vertex -104.6338 -43.3169 32.75
      vertex -104.6338 -43.3169 41.475
    endloop
  endfacet
  facet normal -1 0 0
    outer loop
      vertex -104.6338 86.63379 32.75
      vertex -104.6338 -43.3169 41.475
      vertex -104.6338 86.63379 35.55
    endloop
  endfacet
  facet normal -1 0 0
    outer loop
      vertex -104.6338 -43.3169 32.75
      vertex -104.6338 -86.63379 32.75
      vertex -104.6338 -86.63379 41.475
    endloop
  endfacet
  facet normal -1 0 0
    outer loop
      vertex -104.6338 -43.3169 32.75
      vertex -104.6338 -86.63379 41.475
      vertex -104.6338 -43.3169 41.475
    endloop
  endfacet
  facet normal 0 1 0
    outer loop
      vertex -104.6338 86.63379 32.75
      vertex -86.63379 86.63379 35.55
      vertex -86.63379 86.63379 32.75
    endloop
  endfacet
  facet normal 0 1 0
    outer loop
      vertex -104.6338 86.63379 32.75
      vertex -104.6338 86.63379 35.55
      vertex -86.63379 86.63379 35.55
    endloop
  endfacet
  facet normal 0 -1 0
    outer loop
      vertex -86.63379 -86.63379 32.75
      vertex -104.6338 -86.63379 41.475
      vertex -104.6338 -86.63379 32.75
    endloop
  endfacet
  facet normal 0 -1 0
    outer loop
      vertex -86.63379 -86.63379 32.75
      vertex -86.63379 -86.63379 41.475
      vertex -104.6338 -86.63379 41.475
    endloop
  endfacet
  facet normal 0 0 1
    outer loop
      vertex 86.63379 104.6338 41.475
      vertex 86.63379 86.63379 41.475
      vertex 104.6338 86.63379 41.475
    endloop
  endfacet
  facet normal 0 0 -1
    outer loop
      vertex 104.6338 86.63379 32.75
      vertex 86.63379 86.63379 32.75
      vertex 86.63379 104.6338 32.75
    endloop
  endfacet
  facet normal 0 -0 1
    outer loop
      vertex 104.6338 86.63379 41.475
      vertex 104.6338 98.33379 41.475
      vertex 98.33379 98.33379 41.475
    endloop
  endfacet
  facet normal 0 0 -1
    outer loop
      vertex 98.33379 98.33379 32.75
      vertex 104.6338 98.33379 32.75
      vertex 104.6338 86.63379 32.75
    endloop
  endfacet
  facet normal 0 0 1
    outer loop
      vertex 86.63379 104.6338 41.475
      vertex 104.6338 86.63379 41.475
      vertex 98.33379 98.33379 41.475
    endloop
  endfacet
  facet normal -0 -0 -1
    outer loop
      vertex 98.33379 98.33379 32.75
      vertex 104.6338 86.63379 32.75
      vertex 86.63379 104.6338 32.75
    endloop
  endfacet
  facet normal 0 -0 1
    outer loop
      vertex 98.33379 98.33379 41.475
      vertex 98.33379 104.6338 41.475
      vertex 86.63379 104.6338 41.475
    endloop
  endfacet
  facet normal 0 0 -1
    outer loop
      vertex 86.63379 104.6338 32.75
      vertex 98.33379 104.6338 32.75
      vertex 98.33379 98.33379 32.75
    endloop
  endfacet
  facet normal 0 -1 0
    outer loop
      vertex 86.63379 86.63379 32.75
      vertex 104.6338 86.63379 32.75
      vertex 104.6338 86.63379 41.475
    endloop
  endfacet
  facet normal 0 -1 0
    outer loop
      vertex 86.63379 86.63379 32.75
      vertex 104.6338 86.63379 41.475
      vertex 86.63379 86.63379 41.475
    endloop
  endfacet
  facet normal 1 0 0
    outer loop
      vertex 104.6338 86.63379 32.75
      vertex 104.6338 98.33379 32.75
      vertex 104.6338 98.33379 41.475
    endloop
  endfacet
  facet normal 1 0 0
    outer loop
      vertex 104.6338 86.63379 32.75
      vertex 104.6338 98.33379 41.475
      vertex 104.6338 86.63379 41.475
    endloop
  endfacet
  facet normal 0 1 0
    outer loop
      vertex 104.6338 98.33379 32.75
      vertex 98.33379 98.33379 32.75
      vertex 98.33379 98.33379 41.475
    endloop
  endfacet
  facet normal 0 1 -0
    outer loop
      vertex 104.6338 98.33379 32.75
      vertex 98.33379 98.33379 41.475
      vertex 104.6338 98.33379 41.475
    endloop
  endfacet
  facet normal 1 0 0
    outer loop
      vertex 98.33379 98.33379 32.75
      vertex 98.33379 104.6338 32.75
      vertex 98.33379 104.6338 41.475
    endloop
  endfacet
  facet normal 1 0 0
    outer loop
      vertex 98.33379 98.33379 32.75
      vertex 98.33379 104.6338 41.475
      vertex 98.33379 98.33379 41.475
    endloop
  endfacet
  facet normal 0 1 0
    outer loop
      vertex 98.33379 104.6338 32.75
      vertex 86.63379 104.6338 32.75
      vertex 86.63379 104.6338 41.475
    endloop
  endfacet
  facet normal 0 1 -0
    outer loop
      vertex 98.33379 104.6338 32.75
      vertex 86.63379 104.6338 41.475
      vertex 98.33379 104.6338 41.475
    endloop
  endfacet
  facet normal -1 0 0
    outer loop
      vertex 86.63379 104.6338 32.75
      vertex 86.63379 86.63379 32.75
      vertex 86.63379 86.63379 41.475
    endloop
  endfacet
  facet normal -1 0 0
    outer loop
      vertex 86.63379 104.6338 32.75
      vertex 86.63379 86.63379 41.475
      vertex 86.63379 104.6338 41.475
    endloop
  endfacet
  facet normal 0 0 1
    outer loop
      vertex 86.63379 -86.63379 35.55
      vertex 86.63379 -104.6338 35.55
      vertex 98.33379 -104.6338 35.55
    endloop
  endfacet
  facet normal 0 0 -1
    outer loop
      vertex 98.33379 -104.6338 32.75
      vertex 86.63379 -104.6338 32.75
      vertex 86.63379 -86.63379 32.75
    endloop
  endfacet
  facet normal 0 0 1
    outer loop
      vertex 86.63379 -86.63379 35.55
      vertex 98.33379 -104.6338 35.55
      vertex 98.33379 -98.33379 35.55
    endloop
  endfacet
  facet normal -0 -0 -1
    outer loop
      vertex 98.33379 -98.33379 32.75
      vertex 98.33379 -104.6338 32.75
      vertex 86.63379 -86.63379 32.75
    endloop
  endfacet
  facet normal 0 0 1
    outer loop
      vertex 86.63379 -86.63379 35.55
      vertex 98.33379 -98.33379 35.55
      vertex 104.6338 -98.33379 35.55
    endloop
  endfacet
  facet normal 0 0 -1
    outer loop
      vertex 104.6338 -98.33379 32.75
      vertex 98.33379 -98.33379 32.75
      vertex 86.63379 -86.63379 32.75
    endloop
  endfacet
  facet normal 0 -0 1
    outer loop
      vertex 104.6338 -98.33379 35.55
      vertex 104.6338 -86.63379 35.55
      vertex 86.63379 -86.63379 35.55
    endloop
  endfacet
  facet normal 0 0 -1
    outer loop
      vertex 86.63379 -86.63379 32.75
      vertex 104.6338 -86.63379 32.75
      vertex 104.6338 -98.33379 32.75
    endloop
  endfacet
  facet normal 0 -1 0
    outer loop
      vertex 86.63379 -104.6338 32.75
      vertex 98.33379 -104.6338 32.75
      vertex 98.33379 -104.6338 35.55
    endloop
  endfacet
  facet normal 0 -1 0
    outer loop
      vertex 86.63379 -104.6338 32.75
      vertex 98.33379 -104.6338 35.55
      vertex 86.63379 -104.6338 35.55
    endloop
  endfacet
  facet normal 1 0 0
    outer loop
      vertex 98.33379 -104.6338 32.75
      vertex 98.33379 -98.33379 32.75
      vertex 98.33379 -98.33379 35.55
    endloop
  endfacet
  facet normal 1 0 0
    outer loop
      vertex 98.33379 -104.6338 32.75
      vertex 98.33379 -98.33379 35.55
      vertex 98.33379 -104.6338 35.55
    endloop
  endfacet
  facet normal 0 -1 0
    outer loop
      vertex 98.33379 -98.33379 32.75
      vertex 104.6338 -98.33379 32.75
      vertex 104.6338 -98.33379 35.55
    endloop
  endfacet
  facet normal 0 -1 0
    outer loop
      vertex 98.33379 -98.33379 32.75
      vertex 104.6338 -98.33379 35.55
      vertex 98.33379 -98.33379 35.55
    endloop
  endfacet
  facet normal 1 0 0
    outer loop
      vertex 104.6338 -98.33379 32.75
      vertex 104.6338 -86.63379 32.75
      vertex 104.6338 -86.63379 35.55
    endloop
  endfacet
  facet normal 1 0 0
    outer loop
      vertex 104.6338 -98.33379 32.75
      vertex 104.6338 -86.63379 35.55
      vertex 104.6338 -98.33379 35.55
    endloop
  endfacet
  facet normal 0 1 0
    outer loop
      vertex 104.6338 -86.63379 32.75
      vertex 86.63379 -86.63379 32.75
      vertex 86.63379 -86.63379 35.55
    endloop
  endfacet
  facet normal 0 1 -0
    outer loop
      vertex 104.6338 -86.63379 32.75
      vertex 86.63379 -86.63379 35.55
      vertex 104.6338 -86.63379 35.55
    endloop
  endfacet
  facet normal -1 0 0
    outer loop
      vertex 86.63379 -86.63379 32.75
      vertex 86.63379 -104.6338 32.75
      vertex 86.63379 -104.6338 35.55
    endloop
  endfacet
  facet normal -1 0 0
    outer loop
      vertex 86.63379 -86.63379 32.75
      vertex 86.63379 -104.6338 35.55
      vertex 86.63379 -86.63379 35.55
    endloop
  endfacet
  facet normal 0 0 1
    outer loop
      vertex -98.33379 -98.33379 41.475
      vertex -98.33379 -104.6338 41.475
      vertex -86.63379 -104.6338 41.475
    endloop
  endfacet
  facet normal 0 0 -1
    outer loop
      vertex -86.63379 -104.6338 32.75
      vertex -98.33379 -104.6338 32.75
      vertex -98.33379 -98.33379 32.75
    endloop
  endfacet
  facet normal -0 0 1
    outer loop
      vertex -98.33379 -98.33379 41.475
      vertex -86.63379 -104.6338 41.475
      vertex -86.63379 -86.63379 41.475
    endloop
  endfacet
  facet normal 0 -0 -1
    outer loop
      vertex -86.63379 -86.63379 32.75
      vertex -86.63379 -104.6338 32.75
      vertex -98.33379 -98.33379 32.75
    endloop
  endfacet
  facet normal 0 -0 1
    outer loop
      vertex -98.33379 -98.33379 41.475
      vertex -86.63379 -86.63379 41.475
      vertex -104.6338 -86.63379 41.475
    endloop
  endfacet
  facet normal 0 0 -1
    outer loop
      vertex -104.6338 -86.63379 32.75
      vertex -86.63379 -86.63379 32.75
      vertex -98.33379 -98.33379 32.75
    endloop
  endfacet
  facet normal 0 0 1
    outer loop
      vertex -104.6338 -86.63379 41.475
      vertex -104.6338 -98.33379 41.475
      vertex -98.33379 -98.33379 41.475
    endloop
  endfacet
  facet normal 0 0 -1
    outer loop
      vertex -98.33379 -98.33379 32.75
      vertex -104.6338 -98.33379 32.75
      vertex -104.6338 -86.63379 32.75
    endloop
  endfacet
  facet normal 0 -1 0
    outer loop
      vertex -98.33379 -104.6338 32.75
      vertex -86.63379 -104.6338 32.75
      vertex -86.63379 -104.6338 41.475
    endloop
  endfacet
  facet normal 0 -1 0
    outer loop
      vertex -98.33379 -104.6338 32.75
      vertex -86.63379 -104.6338 41.475
      vertex -98.33379 -104.6338 41.475
    endloop
  endfacet
  facet normal 1 0 0
    outer loop
      vertex -86.63379 -104.6338 32.75
      vertex -86.63379 -86.63379 32.75
      vertex -86.63379 -86.63379 41.475
    endloop
  endfacet
  facet normal 1 0 0
    outer loop
      vertex -86.63379 -104.6338 32.75
      vertex -86.63379 -86.63379 41.475
      vertex -86.63379 -104.6338 41.475
    endloop
  endfacet
  facet normal 0 1 0
    outer loop
      vertex -86.63379 -86.63379 32.75
      vertex -104.6338 -86.63379 32.75
      vertex -104.6338 -86.63379 41.475
    endloop
  endfacet
  facet normal 0 1 -0
    outer loop
      vertex -86.63379 -86.63379 32.75
      vertex -104.6338 -86.63379 41.475
      vertex -86.63379 -86.63379 41.475
    endloop
  endfacet
  facet normal -1 0 0
    outer loop
      vertex -104.6338 -86.63379 32.75
      vertex -104.6338 -98.33379 32.75
      vertex -104.6338 -98.33379 41.475
    endloop
  endfacet
  facet normal -1 0 0
    outer loop
      vertex -104.6338 -86.63379 32.75
      vertex -104.6338 -98.33379 41.475
      vertex -104.6338 -86.63379 41.475
    endloop
  endfacet
  facet normal 0 -1 0
    outer loop
      vertex -104.6338 -98.33379 32.75
      vertex -98.33379 -98.33379 32.75
      vertex -98.33379 -98.33379 41.475
    endloop
  endfacet
  facet normal 0 -1 0
    outer loop
      vertex -104.6338 -98.33379 32.75
      vertex -98.33379 -98.33379 41.475
      vertex -104.6338 -98.33379 41.475
    endloop
  endfacet
  facet normal -1 0 0
    outer loop
      vertex -98.33379 -98.33379 32.75
      vertex -98.33379 -104.6338 32.75
      vertex -98.33379 -104.6338 41.475
    endloop
  endfacet
  facet normal -1 0 0
    outer loop
      vertex -98.33379 -98.33379 32.75
      vertex -98.33379 -104.6338 41.475
      vertex -98.33379 -98.33379 41.475
    endloop
  endfacet
  facet normal 0 0 1
    outer loop
      vertex -104.6338 98.33379 35.55
      vertex -104.6338 86.63379 35.55
      vertex -86.63379 86.63379 35.55
    endloop
  endfacet
  facet normal 0 0 -1
    outer loop
      vertex -86.63379 86.63379 32.75
      vertex -104.6338 86.63379 32.75
      vertex -104.6338 98.33379 32.75
    endloop
  endfacet
  facet normal 0 -0 1
    outer loop
      vertex -86.63379 86.63379 35.55
      vertex -86.63379 104.6338 35.55
      vertex -98.33379 104.6338 35.55
    endloop
  endfacet
  facet normal 0 0 -1
    outer loop
      vertex -98.33379 104.6338 32.75
      vertex -86.63379 104.6338 32.75
      vertex -86.63379 86.63379 32.75
    endloop
  endfacet
  facet normal 0 0 1
    outer loop
      vertex -86.63379 86.63379 35.55
      vertex -98.33379 104.6338 35.55
      vertex -98.33379 98.33379 35.55
    endloop
  endfacet
  facet normal 0 0 -1
    outer loop
      vertex -98.33379 98.33379 32.75
      vertex -98.33379 104.6338 32.75
      vertex -86.63379 86.63379 32.75
    endloop
  endfacet
  facet normal 0 0 1
    outer loop
      vertex -86.63379 86.63379 35.55
      vertex -98.33379 98.33379 35.55
      vertex -104.6338 98.33379 35.55
    endloop
  endfacet
  facet normal 0 0 -1
    outer loop
      vertex -104.6338 98.33379 32.75
      vertex -98.33379 98.33379 32.75
      vertex -86.63379 86.63379 32.75
    endloop
  endfacet
  facet normal 0 -1 0
    outer loop
      vertex -104.6338 86.63379 32.75
      vertex -86.63379 86.63379 32.75
      vertex -86.63379 86.63379 35.55
    endloop
  endfacet
  facet normal 0 -1 0
    outer loop
      vertex -104.6338 86.63379 32.75
      vertex -86.63379 86.63379 35.55
      vertex -104.6338 86.63379 35.55
    endloop
  endfacet
  facet normal 1 0 0
    outer loop
      vertex -86.63379 86.63379 32.75
      vertex -86.63379 104.6338 32.75
      vertex -86.63379 104.6338 35.55
    endloop
  endfacet
  facet normal 1 0 0
    outer loop
      vertex -86.63379 86.63379 32.75
      vertex -86.63379 104.6338 35.55
      vertex -86.63379 86.63379 35.55
    endloop
  endfacet
  facet normal 0 1 0
    outer loop
      vertex -86.63379 104.6338 32.75
      vertex -98.33379 104.6338 32.75
      vertex -98.33379 104.6338 35.55
    endloop
  endfacet
  facet normal 0 1 -0
    outer loop
      vertex -86.63379 104.6338 32.75
      vertex -98.33379 104.6338 35.55
      vertex -86.63379 104.6338 35.55
    endloop
  endfacet
  facet normal -1 0 0
    outer loop
      vertex -98.33379 104.6338 32.75
      vertex -98.33379 98.33379 32.75
      vertex -98.33379 98.33379 35.55
    endloop
  endfacet
  facet normal -1 0 0
    outer loop
      vertex -98.33379 104.6338 32.75
      vertex -98.33379 98.33379 35.55
      vertex -98.33379 104.6338 35.55
    endloop
  endfacet
  facet normal 0 1 0
    outer loop
      vertex -98.33379 98.33379 32.75
      vertex -104.6338 98.33379 32.75
      vertex -104.6338 98.33379 35.55
    endloop
  endfacet
  facet normal 0 1 -0
    outer loop
      vertex -98.33379 98.33379 32.75
      vertex -104.6338 98.33379 35.55
      vertex -98.33379 98.33379 35.55
    endloop
  endfacet
  facet normal -1 0 0
    outer loop
      vertex -104.6338 98.33379 32.75
      vertex -104.6338 86.63379 32.75
      vertex -104.6338 86.63379 35.55
    endloop
  endfacet
  facet normal -1 0 0
    outer loop
      vertex -104.6338 98.33379 32.75
      vertex -104.6338 86.63379 35.55
      vertex -104.6338 98.33379 35.55
    endloop
  endfacet
endsolid temporary_switchback_ramp_layer_07
