solid internal_chambers_layer_04
  facet normal 0 0 -1
    outer loop
      vertex -1.999752 1.817956 17.775
      vertex 1.999752 1.817956 17.775
      vertex 1.999752 -1.817956 17.775
    endloop
  endfacet
  facet normal 0 0 -1
    outer loop
      vertex -1.999752 1.817956 17.775
      vertex 1.999752 -1.817956 17.775
      vertex -1.999752 -1.817956 17.775
    endloop
  endfacet
  facet normal 0 0 1
    outer loop
      vertex -1.999752 -1.817956 18.87619
      vertex 1.999752 -1.817956 18.87619
      vertex 1.999752 1.817956 18.87619
    endloop
  endfacet
  facet normal 0 0 1
    outer loop
      vertex -1.999752 -1.817956 18.87619
      vertex 1.999752 1.817956 18.87619
      vertex -1.999752 1.817956 18.87619
    endloop
  endfacet
  facet normal 0 -1 0
    outer loop
      vertex -1.999752 -1.817956 17.775
      vertex 1.999752 -1.817956 17.775
      vertex 1.999752 -1.817956 18.87619
    endloop
  endfacet
  facet normal 0 -1 0
    outer loop
      vertex -1.999752 -1.817956 17.775
      vertex 1.999752 -1.817956 18.87619
      vertex -1.999752 -1.817956 18.87619
    endloop
  endfacet
  facet normal 1 0 0
    outer loop
      vertex 1.999752 -1.817956 17.775
      vertex 1.999752 1.817956 17.775
      vertex 1.999752 1.817956 18.87619
    endloop
  endfacet
  facet normal 1 0 0
    outer loop
      vertex 1.999752 -1.817956 17.775
      vertex 1.999752 1.817956 18.87619
      vertex 1.999752 -1.817956 18.87619
    endloop
  endfacet
  facet normal 0 1 0
    outer loop
      vertex 1.999752 1.817956 17.775
      vertex -1.999752 1.817956 17.775
      vertex -1.999752 1.817956 18.87619
    endloop
  endfacet
  facet normal 0 1 -0
    outer loop
      vertex 1.999752 1.817956 17.775
      vertex -1.999752 1.817956 18.87619
      vertex 1.999752 1.817956 18.87619
    endloop
  endfacet
  facet normal -1 0 0
    outer loop
      vertex -1.999752 1.817956 17.775
      vertex -1.999752 -1.817956 17.775
      vertex -1.999752 -1.817956 18.87619
    endloop
  endfacet
  facet normal -1 0 0
    outer loop
      vertex -1.999752 1.817956 17.775
      vertex -1.999752 -1.817956 18.87619
      vertex -1.999752 1.817956 18.87619
    endloop
  endfacet
  facet normal 0 0.8980276 -0.4399392
    outer loop
      vertex -0.7271825 24.6848 20.45646
      vertex 0.7271825 24.6848 20.45646
      vertex 0.7271825 22.05753 15.09354
    endloop
  endfacet
  facet normal 0 0.8980276 -0.4399392
    outer loop
      vertex -0.7271825 24.6848 20.45646
      vertex 0.7271825 22.05753 15.09354
      vertex -0.7271825 22.05753 15.09354
    endloop
  endfacet
  facet normal 0 -0.8980276 0.4399392
    outer loop
      vertex -0.7271825 9.963103 21.01854
      vertex 0.7271825 9.963103 21.01854
      vertex 0.7271825 12.59037 26.38146
    endloop
  endfacet
  facet normal 0 -0.8980276 0.4399392
    outer loop
      vertex -0.7271825 9.963103 21.01854
      vertex 0.7271825 12.59037 26.38146
      vertex -0.7271825 12.59037 26.38146
    endloop
  endfacet
  facet normal 0 0.4399392 0.8980276
    outer loop
      vertex -0.7271825 24.6848 20.45646
      vertex -0.7271825 12.59037 26.38146
      vertex 0.7271825 12.59037 26.38146
    endloop
  endfacet
  facet normal -0 0.4399392 0.8980276
    outer loop
      vertex -0.7271825 24.6848 20.45646
      vertex 0.7271825 12.59037 26.38146
      vertex 0.7271825 24.6848 20.45646
    endloop
  endfacet
  facet normal 1 0 0
    outer loop
      vertex 0.7271825 24.6848 20.45646
      vertex 0.7271825 12.59037 26.38146
      vertex 0.7271825 9.963103 21.01854
    endloop
  endfacet
  facet normal 1 0 0
    outer loop
      vertex 0.7271825 24.6848 20.45646
      vertex 0.7271825 9.963103 21.01854
      vertex 0.7271825 22.05753 15.09354
    endloop
  endfacet
  facet normal 0 -0.4399392 -0.8980276
    outer loop
      vertex 0.7271825 22.05753 15.09354
      vertex 0.7271825 9.963103 21.01854
      vertex -0.7271825 9.963103 21.01854
    endloop
  endfacet
  facet normal -0 -0.4399392 -0.8980276
    outer loop
      vertex 0.7271825 22.05753 15.09354
      vertex -0.7271825 9.963103 21.01854
      vertex -0.7271825 22.05753 15.09354
    endloop
  endfacet
  facet normal -1 0 0
    outer loop
      vertex -0.7271825 22.05753 15.09354
      vertex -0.7271825 9.963103 21.01854
      vertex -0.7271825 12.59037 26.38146
    endloop
  endfacet
  facet normal -1 0 0
    outer loop
      vertex -0.7271825 22.05753 15.09354
      vertex -0.7271825 12.59037 26.38146
      vertex -0.7271825 24.6848 20.45646
    endloop
  endfacet
  facet normal 0 -0.8123328 -0.5831942
    outer loop
      vertex -0.575 4.375429 17.30791
      vertex 0.575 4.375429 17.30791
      vertex 0.575 3.704756 18.24209
    endloop
  endfacet
  facet normal 0 -0.8123328 -0.5831942
    outer loop
      vertex -0.575 4.375429 17.30791
      vertex 0.575 3.704756 18.24209
      vertex -0.575 3.704756 18.24209
    endloop
  endfacet
  facet normal -0 0.8123328 0.5831942
    outer loop
      vertex -0.575 11.9577 24.16709
      vertex 0.575 11.9577 24.16709
      vertex 0.575 12.62838 23.23291
    endloop
  endfacet
  facet normal 0 0.8123328 0.5831942
    outer loop
      vertex -0.575 11.9577 24.16709
      vertex 0.575 12.62838 23.23291
      vertex -0.575 12.62838 23.23291
    endloop
  endfacet
  facet normal 0 0.5831942 -0.8123328
    outer loop
      vertex -0.575 4.375429 17.30791
      vertex -0.575 12.62838 23.23291
      vertex 0.575 12.62838 23.23291
    endloop
  endfacet
  facet normal 0 0.5831942 -0.8123328
    outer loop
      vertex -0.575 4.375429 17.30791
      vertex 0.575 12.62838 23.23291
      vertex 0.575 4.375429 17.30791
    endloop
  endfacet
  facet normal 1 0 0
    outer loop
      vertex 0.575 4.375429 17.30791
      vertex 0.575 12.62838 23.23291
      vertex 0.575 11.9577 24.16709
    endloop
  endfacet
  facet normal 1 0 -0
    outer loop
      vertex 0.575 4.375429 17.30791
      vertex 0.575 11.9577 24.16709
      vertex 0.575 3.704756 18.24209
    endloop
  endfacet
  facet normal 0 -0.5831942 0.8123328
    outer loop
      vertex 0.575 3.704756 18.24209
      vertex 0.575 11.9577 24.16709
      vertex -0.575 11.9577 24.16709
    endloop
  endfacet
  facet normal 0 -0.5831942 0.8123328
    outer loop
      vertex 0.575 3.704756 18.24209
      vertex -0.575 11.9577 24.16709
      vertex -0.575 3.704756 18.24209
    endloop
  endfacet
  facet normal -1 0 0
    outer loop
      vertex -0.575 3.704756 18.24209
      vertex -0.575 11.9577 24.16709
      vertex -0.575 12.62838 23.23291
    endloop
  endfacet
  facet normal -1 0 0
    outer loop
      vertex -0.575 3.704756 18.24209
      vertex -0.575 12.62838 23.23291
      vertex -0.575 4.375429 17.30791
    endloop
  endfacet
  facet normal 0 0.8123328 -0.5831942
    outer loop
      vertex -0.575 -3.704756 18.24209
      vertex 0.575 -3.704756 18.24209
      vertex 0.575 -4.375429 17.30791
    endloop
  endfacet
  facet normal 0 0.8123328 -0.5831942
    outer loop
      vertex -0.575 -3.704756 18.24209
      vertex 0.575 -4.375429 17.30791
      vertex -0.575 -4.375429 17.30791
    endloop
  endfacet
  facet normal 0 -0.8123328 0.5831942
    outer loop
      vertex -0.575 -12.62838 23.23291
      vertex 0.575 -12.62838 23.23291
      vertex 0.575 -11.9577 24.16709
    endloop
  endfacet
  facet normal 0 -0.8123328 0.5831942
    outer loop
      vertex -0.575 -12.62838 23.23291
      vertex 0.575 -11.9577 24.16709
      vertex -0.575 -11.9577 24.16709
    endloop
  endfacet
  facet normal 0 0.5831942 0.8123328
    outer loop
      vertex -0.575 -3.704756 18.24209
      vertex -0.575 -11.9577 24.16709
      vertex 0.575 -11.9577 24.16709
    endloop
  endfacet
  facet normal -0 0.5831942 0.8123328
    outer loop
      vertex -0.575 -3.704756 18.24209
      vertex 0.575 -11.9577 24.16709
      vertex 0.575 -3.704756 18.24209
    endloop
  endfacet
  facet normal 1 0 0
    outer loop
      vertex 0.575 -3.704756 18.24209
      vertex 0.575 -11.9577 24.16709
      vertex 0.575 -12.62838 23.23291
    endloop
  endfacet
  facet normal 1 0 0
    outer loop
      vertex 0.575 -3.704756 18.24209
      vertex 0.575 -12.62838 23.23291
      vertex 0.575 -4.375429 17.30791
    endloop
  endfacet
  facet normal 0 -0.5831942 -0.8123328
    outer loop
      vertex 0.575 -4.375429 17.30791
      vertex 0.575 -12.62838 23.23291
      vertex -0.575 -12.62838 23.23291
    endloop
  endfacet
  facet normal -0 -0.5831942 -0.8123328
    outer loop
      vertex 0.575 -4.375429 17.30791
      vertex -0.575 -12.62838 23.23291
      vertex -0.575 -4.375429 17.30791
    endloop
  endfacet
  facet normal -1 0 0
    outer loop
      vertex -0.575 -4.375429 17.30791
      vertex -0.575 -12.62838 23.23291
      vertex -0.575 -11.9577 24.16709
    endloop
  endfacet
  facet normal -1 0 0
    outer loop
      vertex -0.575 -4.375429 17.30791
      vertex -0.575 -11.9577 24.16709
      vertex -0.575 -3.704756 18.24209
    endloop
  endfacet
endsolid internal_chambers_layer_04
