solid internal_chambers_layer_05
  facet normal 0 0.8980276 -0.4399392
    outer loop
      vertex -0.7271825 7.116826 29.06293
      vertex 0.7271825 7.116826 29.06293
      vertex 0.7271825 4.489555 23.7
    endloop
  endfacet
  facet normal 0 0.8980276 -0.4399392
    outer loop
      vertex -0.7271825 7.116826 29.06293
      vertex 0.7271825 4.489555 23.7
      vertex -0.7271825 4.489555 23.7
    endloop
  endfacet
  facet normal 0 -0.8980276 0.4399392
    outer loop
      vertex -0.7271825 3.342222 24.26207
      vertex 0.7271825 3.342222 24.26207
      vertex 0.7271825 5.969493 29.625
    endloop
  endfacet
  facet normal 0 -0.8980276 0.4399392
    outer loop
      vertex -0.7271825 3.342222 24.26207
      vertex 0.7271825 5.969493 29.625
      vertex -0.7271825 5.969493 29.625
    endloop
  endfacet
  facet normal 0 0.4399392 0.8980276
    outer loop
      vertex -0.7271825 7.116826 29.06293
      vertex -0.7271825 5.969493 29.625
      vertex 0.7271825 5.969493 29.625
    endloop
  endfacet
  facet normal -0 0.4399392 0.8980276
    outer loop
      vertex -0.7271825 7.116826 29.06293
      vertex 0.7271825 5.969493 29.625
      vertex 0.7271825 7.116826 29.06293
    endloop
  endfacet
  facet normal 1 0 0
    outer loop
      vertex 0.7271825 7.116826 29.06293
      vertex 0.7271825 5.969493 29.625
      vertex 0.7271825 3.342222 24.26207
    endloop
  endfacet
  facet normal 1 0 0
    outer loop
      vertex 0.7271825 7.116826 29.06293
      vertex 0.7271825 3.342222 24.26207
      vertex 0.7271825 4.489555 23.7
    endloop
  endfacet
  facet normal 0 -0.4399392 -0.8980276
    outer loop
      vertex 0.7271825 4.489555 23.7
      vertex 0.7271825 3.342222 24.26207
      vertex -0.7271825 3.342222 24.26207
    endloop
  endfacet
  facet normal -0 -0.4399392 -0.8980276
    outer loop
      vertex 0.7271825 4.489555 23.7
      vertex -0.7271825 3.342222 24.26207
      vertex -0.7271825 4.489555 23.7
    endloop
  endfacet
  facet normal -1 0 0
    outer loop
      vertex -0.7271825 4.489555 23.7
      vertex -0.7271825 3.342222 24.26207
      vertex -0.7271825 5.969493 29.625
    endloop
  endfacet
  facet normal -1 0 0
    outer loop
      vertex -0.7271825 4.489555 23.7
      vertex -0.7271825 5.969493 29.625
      vertex -0.7271825 7.116826 29.06293
    endloop
  endfacet
  facet normal 0 -0.8123328 -0.5831942
    outer loop
      vertex -0.575 13.27899 23.7
      vertex 0.575 13.27899 23.7
      vertex 0.575 12.60832 24.63418
    endloop
  endfacet
  facet normal 0 -0.8123328 -0.5831942
    outer loop
      vertex -0.575 13.27899 23.7
      vertex 0.575 12.60832 24.63418
      vertex -0.575 12.60832 24.63418
    endloop
  endfacet
  facet normal -0 0.8123328 0.5831942
    outer loop
      vertex -0.575 19.56004 29.625
      vertex 0.575 19.56004 29.625
      vertex 0.575 20.23071 28.69082
    endloop
  endfacet
  facet normal 0 0.8123328 0.5831942
    outer loop
      vertex -0.575 19.56004 29.625
      vertex 0.575 20.23071 28.69082
      vertex -0.575 20.23071 28.69082
    endloop
  endfacet
  facet normal 0 0.5831942 -0.8123328
    outer loop
      vertex -0.575 13.27899 23.7
      vertex -0.575 20.23071 28.69082
      vertex 0.575 20.23071 28.69082
    endloop
  endfacet
  facet normal 0 0.5831942 -0.8123328
    outer loop
      vertex -0.575 13.27899 23.7
      vertex 0.575 20.23071 28.69082
      vertex 0.575 13.27899 23.7
    endloop
  endfacet
  facet normal 1 0 0
    outer loop
      vertex 0.575 13.27899 23.7
      vertex 0.575 20.23071 28.69082
      vertex 0.575 19.56004 29.625
    endloop
  endfacet
  facet normal 1 0 -0
    outer loop
      vertex 0.575 13.27899 23.7
      vertex 0.575 19.56004 29.625
      vertex 0.575 12.60832 24.63418
    endloop
  endfacet
  facet normal 0 -0.5831942 0.8123328
    outer loop
      vertex 0.575 12.60832 24.63418
      vertex 0.575 19.56004 29.625
      vertex -0.575 19.56004 29.625
    endloop
  endfacet
  facet normal 0 -0.5831942 0.8123328
    outer loop
      vertex 0.575 12.60832 24.63418
      vertex -0.575 19.56004 29.625
      vertex -0.575 12.60832 24.63418
    endloop
  endfacet
  facet normal -1 0 0
    outer loop
      vertex -0.575 12.60832 24.63418
      vertex -0.575 19.56004 29.625
      vertex -0.575 20.23071 28.69082
    endloop
  endfacet
  facet normal -1 0 0
    outer loop
      vertex -0.575 12.60832 24.63418
      vertex -0.575 20.23071 28.69082
      vertex -0.575 13.27899 23.7
    endloop
  endfacet
  facet normal 0 0.8123328 -0.5831942
    outer loop
      vertex -0.575 -12.60832 24.63418
      vertex 0.575 -12.60832 24.63418
      vertex 0.575 -13.27899 23.7
    endloop
  endfacet
  facet normal 0 0.8123328 -0.5831942
    outer loop
      vertex -0.575 -12.60832 24.63418
      vertex 0.575 -13.27899 23.7
      vertex -0.575 -13.27899 23.7
    endloop
  endfacet
  facet normal 0 -0.8123328 0.5831942
    outer loop
      vertex -0.575 -20.23071 28.69082
      vertex 0.575 -20.23071 28.69082
      vertex 0.575 -19.56004 29.625
    endloop
  endfacet
  facet normal 0 -0.8123328 0.5831942
    outer loop
      vertex -0.575 -20.23071 28.69082
      vertex 0.575 -19.56004 29.625
      vertex -0.575 -19.56004 29.625
    endloop
  endfacet
  facet normal 0 0.5831942 0.8123328
    outer loop
      vertex -0.575 -12.60832 24.63418
      vertex -0.575 -19.56004 29.625
      vertex 0.575 -19.56004 29.625
    endloop
  endfacet
  facet normal -0 0.5831942 0.8123328
    outer loop
      vertex -0.575 -12.60832 24.63418
      vertex 0.575 -19.56004 29.625
      vertex 0.575 -12.60832 24.63418
    endloop
  endfacet
  facet normal 1 0 0
    outer loop
      vertex 0.575 -12.60832 24.63418
      vertex 0.575 -19.56004 29.625
      vertex 0.575 -20.23071 28.69082
    endloop
  endfacet
  facet normal 1 0 0
    outer loop
      vertex 0.575 -12.60832 24.63418
      vertex 0.575 -20.23071 28.69082
      vertex 0.575 -13.27899 23.7
    endloop
  endfacet
  facet normal 0 -0.5831942 -0.8123328
    outer loop
      vertex 0.575 -13.27899 23.7
      vertex 0.575 -20.23071 28.69082
      vertex -0.575 -20.23071 28.69082
    endloop
  endfacet
  facet normal -0 -0.5831942 -0.8123328
    outer loop
      vertex 0.575 -13.27899 23.7
      vertex -0.575 -20.23071 28.69082
      vertex -0.575 -13.27899 23.7
    endloop
  endfacet
  facet normal -1 0 0
    outer loop
      vertex -0.575 -13.27899 23.7
      vertex -0.575 -20.23071 28.69082
      vertex -0.575 -19.56004 29.625
    endloop
  endfacet
  facet normal -1 0 0
    outer loop
      vertex -0.575 -13.27899 23.7
      vertex -0.575 -19.56004 29.625
      vertex -0.575 -12.60832 24.63418
    endloop
  endfacet
endsolid internal_chambers_layer_05
