solid internal_chambers_layer_08
  facet normal 0 -0.9001448 -0.4355909
    outer loop
      vertex -0.575 24.40367 41.475
      vertex 0.575 24.40367 41.475
      vertex 0.575 23.90274 42.51017
    endloop
  endfacet
  facet normal 0 -0.9001448 -0.4355909
    outer loop
      vertex -0.575 24.40367 41.475
      vertex 0.575 23.90274 42.51017
      vertex -0.575 23.90274 42.51017
    endloop
  endfacet
  facet normal -0 0.9001448 0.4355909
    outer loop
      vertex -0.575 34.00754 47.4
      vertex 0.575 34.00754 47.4
      vertex 0.575 34.50847 46.36483
    endloop
  endfacet
  facet normal 0 0.9001448 0.4355909
    outer loop
      vertex -0.575 34.00754 47.4
      vertex 0.575 34.50847 46.36483
      vertex -0.575 34.50847 46.36483
    endloop
  endfacet
  facet normal 0 0.4355909 -0.9001448
    outer loop
      vertex -0.575 24.40367 41.475
      vertex -0.575 34.50847 46.36483
      vertex 0.575 34.50847 46.36483
    endloop
  endfacet
  facet normal 0 0.4355909 -0.9001448
    outer loop
      vertex -0.575 24.40367 41.475
      vertex 0.575 34.50847 46.36483
      vertex 0.575 24.40367 41.475
    endloop
  endfacet
  facet normal 1 0 0
    outer loop
      vertex 0.575 24.40367 41.475
      vertex 0.575 34.50847 46.36483
      vertex 0.575 34.00754 47.4
    endloop
  endfacet
  facet normal 1 0 -0
    outer loop
      vertex 0.575 24.40367 41.475
      vertex 0.575 34.00754 47.4
      vertex 0.575 23.90274 42.51017
    endloop
  endfacet
  facet normal 0 -0.4355909 0.9001448
    outer loop
      vertex 0.575 23.90274 42.51017
      vertex 0.575 34.00754 47.4
      vertex -0.575 34.00754 47.4
    endloop
  endfacet
  facet normal 0 -0.4355909 0.9001448
    outer loop
      vertex 0.575 23.90274 42.51017
      vertex -0.575 34.00754 47.4
      vertex -0.575 23.90274 42.51017
    endloop
  endfacet
  facet normal -1 0 0
    outer loop
      vertex -0.575 23.90274 42.51017
      vertex -0.575 34.00754 47.4
      vertex -0.575 34.50847 46.36483
    endloop
  endfacet
  facet normal -1 0 0
    outer loop
      vertex -0.575 23.90274 42.51017
      vertex -0.575 34.50847 46.36483
      vertex -0.575 24.40367 41.475
    endloop
  endfacet
  facet normal 0 0.8873015 -0.4611899
    outer loop
      vertex -0.575 -25.0149 42.4954
      vertex 0.575 -25.0149 42.4954
      vertex 0.575 -25.54526 41.475
    endloop
  endfacet
  facet normal 0 0.8873015 -0.4611899
    outer loop
      vertex -0.575 -25.0149 42.4954
      vertex 0.575 -25.54526 41.475
      vertex -0.575 -25.54526 41.475
    endloop
  endfacet
  facet normal 0 -0.8873015 0.4611899
    outer loop
      vertex -0.575 -34.98142 46.3796
      vertex 0.575 -34.98142 46.3796
      vertex 0.575 -34.45106 47.4
    endloop
  endfacet
  facet normal 0 -0.8873015 0.4611899
    outer loop
      vertex -0.575 -34.98142 46.3796
      vertex 0.575 -34.45106 47.4
      vertex -0.575 -34.45106 47.4
    endloop
  endfacet
  facet normal 0 0.4611899 0.8873015
    outer loop
      vertex -0.575 -25.0149 42.4954
      vertex -0.575 -34.45106 47.4
      vertex 0.575 -34.45106 47.4
    endloop
  endfacet
  facet normal -0 0.4611899 0.8873015
    outer loop
      vertex -0.575 -25.0149 42.4954
      vertex 0.575 -34.45106 47.4
      vertex 0.575 -25.0149 42.4954
    endloop
  endfacet
  facet normal 1 0 0
    outer loop
      vertex 0.575 -25.0149 42.4954
      vertex 0.575 -34.45106 47.4
      vertex 0.575 -34.98142 46.3796
    endloop
  endfacet
  facet normal 1 0 0
    outer loop
      vertex 0.575 -25.0149 42.4954
      vertex 0.575 -34.98142 46.3796
      vertex 0.575 -25.54526 41.475
    endloop
  endfacet
  facet normal 0 -0.4611899 -0.8873015
    outer loop
      vertex 0.575 -25.54526 41.475
      vertex 0.575 -34.98142 46.3796
      vertex -0.575 -34.98142 46.3796
    endloop
  endfacet
  facet normal -0 -0.4611899 -0.8873015
    outer loop
      vertex 0.575 -25.54526 41.475
      vertex -0.575 -34.98142 46.3796
      vertex -0.575 -25.54526 41.475
    endloop
  endfacet
  facet normal -1 0 0
    outer loop
      vertex -0.575 -25.54526 41.475
      vertex -0.575 -34.98142 46.3796
      vertex -0.575 -34.45106 47.4
    endloop
  endfacet
  facet normal -1 0 0
    outer loop
      vertex -0.575 -25.54526 41.475
      vertex -0.575 -34.45106 47.4
      vertex -0.575 -25.0149 42.4954
    endloop
  endfacet
endsolid internal_chambers_layer_08
