solid internal_chambers_layer_09
  facet normal 0 -0.9001448 -0.4355909
    outer loop
      vertex -0.575 36.64763 47.4
      vertex 0.575 36.64763 47.4
      vertex 0.575 36.1467 48.43517
    endloop
  endfacet
  facet normal 0 -0.9001448 -0.4355909
    outer loop
      vertex -0.575 36.64763 47.4
      vertex 0.575 36.1467 48.43517
      vertex -0.575 36.1467 48.43517
    endloop
  endfacet
  facet normal -0 0.9001448 0.4355909
    outer loop
      vertex -0.575 40.44436 50.51485
      vertex 0.575 40.44436 50.51485
      vertex 0.575 40.94529 49.47969
    endloop
  endfacet
  facet normal 0 0.9001448 0.4355909
    outer loop
      vertex -0.575 40.44436 50.51485
      vertex 0.575 40.94529 49.47969
      vertex -0.575 40.94529 49.47969
    endloop
  endfacet
  facet normal 0 0.4355909 -0.9001448
    outer loop
      vertex -0.575 36.64763 47.4
      vertex -0.575 40.94529 49.47969
      vertex 0.575 40.94529 49.47969
    endloop
  endfacet
  facet normal 0 0.4355909 -0.9001448
    outer loop
      vertex -0.575 36.64763 47.4
      vertex 0.575 40.94529 49.47969
      vertex 0.575 36.64763 47.4
    endloop
  endfacet
  facet normal 1 0 0
    outer loop
      vertex 0.575 36.64763 47.4
      vertex 0.575 40.94529 49.47969
      vertex 0.575 40.44436 50.51485
    endloop
  endfacet
  facet normal 1 0 -0
    outer loop
      vertex 0.575 36.64763 47.4
      vertex 0.575 40.44436 50.51485
      vertex 0.575 36.1467 48.43517
    endloop
  endfacet
  facet normal 0 -0.4355909 0.9001448
    outer loop
      vertex 0.575 36.1467 48.43517
      vertex 0.575 40.44436 50.51485
      vertex -0.575 40.44436 50.51485
    endloop
  endfacet
  facet normal 0 -0.4355909 0.9001448
    outer loop
      vertex 0.575 36.1467 48.43517
      vertex -0.575 40.44436 50.51485
      vertex -0.575 36.1467 48.43517
    endloop
  endfacet
  facet normal -1 0 0
    outer loop
      vertex -0.575 36.1467 48.43517
      vertex -0.575 40.44436 50.51485
      vertex -0.575 40.94529 49.47969
    endloop
  endfacet
  facet normal -1 0 0
    outer loop
      vertex -0.575 36.1467 48.43517
      vertex -0.575 40.94529 49.47969
      vertex -0.575 36.64763 47.4
    endloop
  endfacet
  facet normal 0 0.8873015 -0.4611899
    outer loop
      vertex -0.575 -36.41424 48.4204
      vertex 0.575 -36.41424 48.4204
      vertex 0.575 -36.94461 47.4
    endloop
  endfacet
  facet normal 0 0.8873015 -0.4611899
    outer loop
      vertex -0.575 -36.41424 48.4204
      vertex 0.575 -36.94461 47.4
      vertex -0.575 -36.94461 47.4
    endloop
  endfacet
  facet normal 0 -0.8873015 0.4611899
    outer loop
      vertex -0.575 -40.96001 49.48707
      vertex 0.575 -40.96001 49.48707
      vertex 0.575 -40.42964 50.50747
    endloop
  endfacet
  facet normal 0 -0.8873015 0.4611899
    outer loop
      vertex -0.575 -40.96001 49.48707
      vertex 0.575 -40.42964 50.50747
      vertex -0.575 -40.42964 50.50747
    endloop
  endfacet
  facet normal 0 0.4611899 0.8873015
    outer loop
      vertex -0.575 -36.41424 48.4204
      vertex -0.575 -40.42964 50.50747
      vertex 0.575 -40.42964 50.50747
    endloop
  endfacet
  facet normal -0 0.4611899 0.8873015
    outer loop
      vertex -0.575 -36.41424 48.4204
      vertex 0.575 -40.42964 50.50747
      vertex 0.575 -36.41424 48.4204
    endloop
  endfacet
  facet normal 1 0 0
    outer loop
      vertex 0.575 -36.41424 48.4204
      vertex 0.575 -40.42964 50.50747
      vertex 0.575 -40.96001 49.48707
    endloop
  endfacet
  facet normal 1 0 0
    outer loop
      vertex 0.575 -36.41424 48.4204
      vertex 0.575 -40.96001 49.48707
      vertex 0.575 -36.94461 47.4
    endloop
  endfacet
  facet normal 0 -0.4611899 -0.8873015
    outer loop
      vertex 0.575 -36.94461 47.4
      vertex 0.575 -40.96001 49.48707
      vertex -0.575 -40.96001 49.48707
    endloop
  endfacet
  facet normal -0 -0.4611899 -0.8873015
    outer loop
      vertex 0.575 -36.94461 47.4
      vertex -0.575 -40.96001 49.48707
      vertex -0.575 -36.94461 47.4
    endloop
  endfacet
  facet normal -1 0 0
    outer loop
      vertex -0.575 -36.94461 47.4
      vertex -0.575 -40.96001 49.48707
      vertex -0.575 -40.42964 50.50747
    endloop
  endfacet
  facet normal -1 0 0
    outer loop
      vertex -0.575 -36.94461 47.4
      vertex -0.575 -40.42964 50.50747
      vertex -0.575 -36.41424 48.4204
    endloop
  endfacet
endsolid internal_chambers_layer_09
