solid internal_chambers_layer_04
  facet normal 0 0 -1
    outer loop
      vertex -1.999752 1.817956 17.775
      vertex 1.999752 1.817956 17.775
      vertex 1.999752 -1.817956 17.775
    endloop
  endfacet
  facet normal 0 0 -1
    outer loop
      vertex -1.999752 1.817956 17.775
      vertex 1.999752 -1.817956 17.775
      vertex -1.999752 -1.817956 17.775
    endloop
  endfacet
  facet normal 0 0 1
    outer loop
      vertex -1.999752 -1.817956 18.87619
      vertex 1.999752 -1.817956 18.87619
      vertex 1.999752 1.817956 18.87619
    endloop
  endfacet
  facet normal 0 0 1
    outer loop
      vertex -1.999752 -1.817956 18.87619
      vertex 1.999752 1.817956 18.87619
      vertex -1.999752 1.817956 18.87619
    endloop
  endfacet
  facet normal 0 -1 0
    outer loop
      vertex -1.999752 -1.817956 17.775
      vertex 1.999752 -1.817956 17.775
      vertex 1.999752 -1.817956 18.87619
    endloop
  endfacet
  facet normal 0 -1 0
    outer loop
      vertex -1.999752 -1.817956 17.775
      vertex 1.999752 -1.817956 18.87619
      vertex -1.999752 -1.817956 18.87619
    endloop
  endfacet
  facet normal 1 0 0
    outer loop
      vertex 1.999752 -1.817956 17.775
      vertex 1.999752 1.817956 17.775
      vertex 1.999752 1.817956 18.87619
    endloop
  endfacet
  facet normal 1 0 0
    outer loop
      vertex 1.999752 -1.817956 17.775
      vertex 1.999752 1.817956 18.87619
      vertex 1.999752 -1.817956 18.87619
    endloop
  endfacet
  facet normal 0 1 0
    outer loop
      vertex 1.999752 1.817956 17.775
      vertex -1.999752 1.817956 17.775
      vertex -1.999752 1.817956 18.87619
    endloop
  endfacet
  facet normal 0 1 -0
    outer loop
      vertex 1.999752 1.817956 17.775
      vertex -1.999752 1.817956 18.87619
      vertex 1.999752 1.817956 18.87619
    endloop
  endfacet
  facet normal -1 0 0
    outer loop
      vertex -1.999752 1.817956 17.775
      vertex -1.999752 -1.817956 17.775
      vertex -1.999752 -1.817956 18.87619
    endloop
  endfacet
  facet normal -1 0 0
    outer loop
      vertex -1.999752 1.817956 17.775
      vertex -1.999752 -1.817956 18.87619
      vertex -1.999752 1.817956 18.87619
    endloop
  endfacet
  facet normal 0 0.8980276 -0.4399392
    outer loop
      vertex -0.7271825 19.21126 23.13793
      vertex 0.7271825 19.21126 23.13793
      vertex 0.7271825 16.58398 17.775
    endloop
  endfacet
  facet normal 0 0.8980276 -0.4399392
    outer loop
      vertex -0.7271825 19.21126 23.13793
      vertex 0.7271825 16.58398 17.775
      vertex -0.7271825 16.58398 17.775
    endloop
  endfacet
  facet normal 0 -0.8980276 0.4399392
    outer loop
      vertex -0.7271825 15.43665 18.33707
      vertex 0.7271825 15.43665 18.33707
      vertex 0.7271825 18.06392 23.7
    endloop
  endfacet
  facet normal 0 -0.8980276 0.4399392
    outer loop
      vertex -0.7271825 15.43665 18.33707
      vertex 0.7271825 18.06392 23.7
      vertex -0.7271825 18.06392 23.7
    endloop
  endfacet
  facet normal 0 0.4399392 0.8980276
    outer loop
      vertex -0.7271825 19.21126 23.13793
      vertex -0.7271825 18.06392 23.7
      vertex 0.7271825 18.06392 23.7
    endloop
  endfacet
  facet normal -0 0.4399392 0.8980276
    outer loop
      vertex -0.7271825 19.21126 23.13793
      vertex 0.7271825 18.06392 23.7
      vertex 0.7271825 19.21126 23.13793
    endloop
  endfacet
  facet normal 1 0 0
    outer loop
      vertex 0.7271825 19.21126 23.13793
      vertex 0.7271825 18.06392 23.7
      vertex 0.7271825 15.43665 18.33707
    endloop
  endfacet
  facet normal 1 0 0
    outer loop
      vertex 0.7271825 19.21126 23.13793
      vertex 0.7271825 15.43665 18.33707
      vertex 0.7271825 16.58398 17.775
    endloop
  endfacet
  facet normal 0 -0.4399392 -0.8980276
    outer loop
      vertex 0.7271825 16.58398 17.775
      vertex 0.7271825 15.43665 18.33707
      vertex -0.7271825 15.43665 18.33707
    endloop
  endfacet
  facet normal -0 -0.4399392 -0.8980276
    outer loop
      vertex 0.7271825 16.58398 17.775
      vertex -0.7271825 15.43665 18.33707
      vertex -0.7271825 16.58398 17.775
    endloop
  endfacet
  facet normal -1 0 0
    outer loop
      vertex -0.7271825 16.58398 17.775
      vertex -0.7271825 15.43665 18.33707
      vertex -0.7271825 18.06392 23.7
    endloop
  endfacet
  facet normal -1 0 0
    outer loop
      vertex -0.7271825 16.58398 17.775
      vertex -0.7271825 18.06392 23.7
      vertex -0.7271825 19.21126 23.13793
    endloop
  endfacet
  facet normal 0 -0.8123328 -0.5831942
    outer loop
      vertex -0.575 5.026042 17.775
      vertex 0.575 5.026042 17.775
      vertex 0.575 4.355368 18.70918
    endloop
  endfacet
  facet normal 0 -0.8123328 -0.5831942
    outer loop
      vertex -0.575 5.026042 17.775
      vertex 0.575 4.355368 18.70918
      vertex -0.575 4.355368 18.70918
    endloop
  endfacet
  facet normal -0 0.8123328 0.5831942
    outer loop
      vertex -0.575 11.30709 23.7
      vertex 0.575 11.30709 23.7
      vertex 0.575 11.97776 22.76582
    endloop
  endfacet
  facet normal 0 0.8123328 0.5831942
    outer loop
      vertex -0.575 11.30709 23.7
      vertex 0.575 11.97776 22.76582
      vertex -0.575 11.97776 22.76582
    endloop
  endfacet
  facet normal 0 0.5831942 -0.8123328
    outer loop
      vertex -0.575 5.026042 17.775
      vertex -0.575 11.97776 22.76582
      vertex 0.575 11.97776 22.76582
    endloop
  endfacet
  facet normal 0 0.5831942 -0.8123328
    outer loop
      vertex -0.575 5.026042 17.775
      vertex 0.575 11.97776 22.76582
      vertex 0.575 5.026042 17.775
    endloop
  endfacet
  facet normal 1 0 0
    outer loop
      vertex 0.575 5.026042 17.775
      vertex 0.575 11.97776 22.76582
      vertex 0.575 11.30709 23.7
    endloop
  endfacet
  facet normal 1 0 -0
    outer loop
      vertex 0.575 5.026042 17.775
      vertex 0.575 11.30709 23.7
      vertex 0.575 4.355368 18.70918
    endloop
  endfacet
  facet normal 0 -0.5831942 0.8123328
    outer loop
      vertex 0.575 4.355368 18.70918
      vertex 0.575 11.30709 23.7
      vertex -0.575 11.30709 23.7
    endloop
  endfacet
  facet normal 0 -0.5831942 0.8123328
    outer loop
      vertex 0.575 4.355368 18.70918
      vertex -0.575 11.30709 23.7
      vertex -0.575 4.355368 18.70918
    endloop
  endfacet
  facet normal -1 0 0
    outer loop
      vertex -0.575 4.355368 18.70918
      vertex -0.575 11.30709 23.7
      vertex -0.575 11.97776 22.76582
    endloop
  endfacet
  facet normal -1 0 0
    outer loop
      vertex -0.575 4.355368 18.70918
      vertex -0.575 11.97776 22.76582
      vertex -0.575 5.026042 17.775
    endloop
  endfacet
  facet normal 0 0.8123328 -0.5831942
    outer loop
      vertex -0.575 -4.355368 18.70918
      vertex 0.575 -4.355368 18.70918
      vertex 0.575 -5.026042 17.775
    endloop
  endfacet
  facet normal 0 0.8123328 -0.5831942
    outer loop
      vertex -0.575 -4.355368 18.70918
      vertex 0.575 -5.026042 17.775
      vertex -0.575 -5.026042 17.775
    endloop
  endfacet
  facet normal 0 -0.8123328 0.5831942
    outer loop
      vertex -0.575 -11.97776 22.76582
      vertex 0.575 -11.97776 22.76582
      vertex 0.575 -11.30709 23.7
    endloop
  endfacet
  facet normal 0 -0.8123328 0.5831942
    outer loop
      vertex -0.575 -11.97776 22.76582
      vertex 0.575 -11.30709 23.7
      vertex -0.575 -11.30709 23.7
    endloop
  endfacet
  facet normal 0 0.5831942 0.8123328
    outer loop
      vertex -0.575 -4.355368 18.70918
      vertex -0.575 -11.30709 23.7
      vertex 0.575 -11.30709 23.7
    endloop
  endfacet
  facet normal -0 0.5831942 0.8123328
    outer loop
      vertex -0.575 -4.355368 18.70918
      vertex 0.575 -11.30709 23.7
      vertex 0.575 -4.355368 18.70918
    endloop
  endfacet
  facet normal 1 0 0
    outer loop
      vertex 0.575 -4.355368 18.70918
      vertex 0.575 -11.30709 23.7
      vertex 0.575 -11.97776 22.76582
    endloop
  endfacet
  facet normal 1 0 0
    outer loop
      vertex 0.575 -4.355368 18.70918
      vertex 0.575 -11.97776 22.76582
      vertex 0.575 -5.026042 17.775
    endloop
  endfacet
  facet normal 0 -0.5831942 -0.8123328
    outer loop
      vertex 0.575 -5.026042 17.775
      vertex 0.575 -11.97776 22.76582
      vertex -0.575 -11.97776 22.76582
    endloop
  endfacet
  facet normal -0 -0.5831942 -0.8123328
    outer loop
      vertex 0.575 -5.026042 17.775
      vertex -0.575 -11.97776 22.76582
      vertex -0.575 -5.026042 17.775
    endloop
  endfacet
  facet normal -1 0 0
    outer loop
      vertex -0.575 -5.026042 17.775
      vertex -0.575 -11.97776 22.76582
      vertex -0.575 -11.30709 23.7
    endloop
  endfacet
  facet normal -1 0 0
    outer loop
      vertex -0.575 -5.026042 17.775
      vertex -0.575 -11.30709 23.7
      vertex -0.575 -4.355368 18.70918
    endloop
  endfacet
endsolid internal_chambers_layer_04
