solid internal_chambers_layer_09
  facet normal 0 -0.9001448 -0.4355909
    outer loop
      vertex -0.575 35.57805 46.88242
      vertex 0.575 35.57805 46.88242
      vertex 0.575 35.07712 47.91758
    endloop
  endfacet
  facet normal 0 -0.9001448 -0.4355909
    outer loop
      vertex -0.575 35.57805 46.88242
      vertex 0.575 35.07712 47.91758
      vertex -0.575 35.07712 47.91758
    endloop
  endfacet
  facet normal -0 0.9001448 0.4355909
    outer loop
      vertex -0.575 40.44436 50.51485
      vertex 0.575 40.44436 50.51485
      vertex 0.575 40.94529 49.47969
    endloop
  endfacet
  facet normal 0 0.9001448 0.4355909
    outer loop
      vertex -0.575 40.44436 50.51485
      vertex 0.575 40.94529 49.47969
      vertex -0.575 40.94529 49.47969
    endloop
  endfacet
  facet normal 0 0.4355909 -0.9001448
    outer loop
      vertex -0.575 35.57805 46.88242
      vertex -0.575 40.94529 49.47969
      vertex 0.575 40.94529 49.47969
    endloop
  endfacet
  facet normal 0 0.4355909 -0.9001448
    outer loop
      vertex -0.575 35.57805 46.88242
      vertex 0.575 40.94529 49.47969
      vertex 0.575 35.57805 46.88242
    endloop
  endfacet
  facet normal 1 0 0
    outer loop
      vertex 0.575 35.57805 46.88242
      vertex 0.575 40.94529 49.47969
      vertex 0.575 40.44436 50.51485
    endloop
  endfacet
  facet normal 1 0 -0
    outer loop
      vertex 0.575 35.57805 46.88242
      vertex 0.575 40.44436 50.51485
      vertex 0.575 35.07712 47.91758
    endloop
  endfacet
  facet normal 0 -0.4355909 0.9001448
    outer loop
      vertex 0.575 35.07712 47.91758
      vertex 0.575 40.44436 50.51485
      vertex -0.575 40.44436 50.51485
    endloop
  endfacet
  facet normal 0 -0.4355909 0.9001448
    outer loop
      vertex 0.575 35.07712 47.91758
      vertex -0.575 40.44436 50.51485
      vertex -0.575 35.07712 47.91758
    endloop
  endfacet
  facet normal -1 0 0
    outer loop
      vertex -0.575 35.07712 47.91758
      vertex -0.575 40.44436 50.51485
      vertex -0.575 40.94529 49.47969
    endloop
  endfacet
  facet normal -1 0 0
    outer loop
      vertex -0.575 35.07712 47.91758
      vertex -0.575 40.94529 49.47969
      vertex -0.575 35.57805 46.88242
    endloop
  endfacet
  facet normal 0 0.8873015 -0.4611899
    outer loop
      vertex -0.575 -35.43265 47.9102
      vertex 0.575 -35.43265 47.9102
      vertex 0.575 -35.96301 46.8898
    endloop
  endfacet
  facet normal 0 0.8873015 -0.4611899
    outer loop
      vertex -0.575 -35.43265 47.9102
      vertex 0.575 -35.96301 46.8898
      vertex -0.575 -35.96301 46.8898
    endloop
  endfacet
  facet normal 0 -0.8873015 0.4611899
    outer loop
      vertex -0.575 -40.96001 49.48707
      vertex 0.575 -40.96001 49.48707
      vertex 0.575 -40.42964 50.50747
    endloop
  endfacet
  facet normal 0 -0.8873015 0.4611899
    outer loop
      vertex -0.575 -40.96001 49.48707
      vertex 0.575 -40.42964 50.50747
      vertex -0.575 -40.42964 50.50747
    endloop
  endfacet
  facet normal 0 0.4611899 0.8873015
    outer loop
      vertex -0.575 -35.43265 47.9102
      vertex -0.575 -40.42964 50.50747
      vertex 0.575 -40.42964 50.50747
    endloop
  endfacet
  facet normal -0 0.4611899 0.8873015
    outer loop
      vertex -0.575 -35.43265 47.9102
      vertex 0.575 -40.42964 50.50747
      vertex 0.575 -35.43265 47.9102
    endloop
  endfacet
  facet normal 1 0 0
    outer loop
      vertex 0.575 -35.43265 47.9102
      vertex 0.575 -40.42964 50.50747
      vertex 0.575 -40.96001 49.48707
    endloop
  endfacet
  facet normal 1 0 0
    outer loop
      vertex 0.575 -35.43265 47.9102
      vertex 0.575 -40.96001 49.48707
      vertex 0.575 -35.96301 46.8898
    endloop
  endfacet
  facet normal 0 -0.4611899 -0.8873015
    outer loop
      vertex 0.575 -35.96301 46.8898
      vertex 0.575 -40.96001 49.48707
      vertex -0.575 -40.96001 49.48707
    endloop
  endfacet
  facet normal -0 -0.4611899 -0.8873015
    outer loop
      vertex 0.575 -35.96301 46.8898
      vertex -0.575 -40.96001 49.48707
      vertex -0.575 -35.96301 46.8898
    endloop
  endfacet
  facet normal -1 0 0
    outer loop
      vertex -0.575 -35.96301 46.8898
      vertex -0.575 -40.96001 49.48707
      vertex -0.575 -40.42964 50.50747
    endloop
  endfacet
  facet normal -1 0 0
    outer loop
      vertex -0.575 -35.96301 46.8898
      vertex -0.575 -40.42964 50.50747
      vertex -0.575 -35.43265 47.9102
    endloop
  endfacet
endsolid internal_chambers_layer_09
