solid temporary_cut_stepped_mound_layer_14
  facet normal 0 0 -1
    outer loop
      vertex -49.38428 49.38428 77.025
      vertex 49.38428 49.38428 77.025
      vertex 49.38428 -49.38428 77.025
    endloop
  endfacet
  facet normal 0 0 -1
    outer loop
      vertex -49.38428 49.38428 77.025
      vertex 49.38428 -49.38428 77.025
      vertex -49.38428 -49.38428 77.025
    endloop
  endfacet
  facet normal 0 0 1
    outer loop
      vertex -49.38428 -49.38428 82.95
      vertex 49.38428 -49.38428 82.95
      vertex 49.38428 49.38428 82.95
    endloop
  endfacet
  facet normal 0 0 1
    outer loop
      vertex -49.38428 -49.38428 82.95
      vertex 49.38428 49.38428 82.95
      vertex -49.38428 49.38428 82.95
    endloop
  endfacet
  facet normal 0 -1 0
    outer loop
      vertex -49.38428 -49.38428 77.025
      vertex 49.38428 -49.38428 77.025
      vertex 49.38428 -49.38428 82.95
    endloop
  endfacet
  facet normal 0 -1 0
    outer loop
      vertex -49.38428 -49.38428 77.025
      vertex 49.38428 -49.38428 82.95
      vertex -49.38428 -49.38428 82.95
    endloop
  endfacet
  facet normal 1 0 0
    outer loop
      vertex 49.38428 -49.38428 77.025
      vertex 49.38428 49.38428 77.025
      vertex 49.38428 49.38428 82.95
    endloop
  endfacet
  facet normal 1 0 0
    outer loop
      vertex 49.38428 -49.38428 77.025
      vertex 49.38428 49.38428 82.95
      vertex 49.38428 -49.38428 82.95
    endloop
  endfacet
  facet normal 0 1 0
    outer loop
      vertex 49.38428 49.38428 77.025
      vertex -49.38428 49.38428 77.025
      vertex -49.38428 49.38428 82.95
    endloop
  endfacet
  facet normal 0 1 -0
    outer loop
      vertex 49.38428 49.38428 77.025
      vertex -49.38428 49.38428 82.95
      vertex 49.38428 49.38428 82.95
    endloop
  endfacet
  facet normal -1 0 0
    outer loop
      vertex -49.38428 49.38428 77.025
      vertex -49.38428 -49.38428 77.025
      vertex -49.38428 -49.38428 82.95
    endloop
  endfacet
  facet normal -1 0 0
    outer loop
      vertex -49.38428 49.38428 77.025
      vertex -49.38428 -49.38428 82.95
      vertex -49.38428 49.38428 82.95
    endloop
  endfacet
endsolid temporary_cut_stepped_mound_layer_14
