solid temporary_cut_stepped_mound_layer_12
  facet normal 0 0 -1
    outer loop
      vertex -58.69666 58.69666 65.175
      vertex 58.69666 58.69666 65.175
      vertex 58.69666 -58.69666 65.175
    endloop
  endfacet
  facet normal 0 0 -1
    outer loop
      vertex -58.69666 58.69666 65.175
      vertex 58.69666 -58.69666 65.175
      vertex -58.69666 -58.69666 65.175
    endloop
  endfacet
  facet normal 0 0 1
    outer loop
      vertex -58.69666 -58.69666 71.1
      vertex 58.69666 -58.69666 71.1
      vertex 58.69666 58.69666 71.1
    endloop
  endfacet
  facet normal 0 0 1
    outer loop
      vertex -58.69666 -58.69666 71.1
      vertex 58.69666 58.69666 71.1
      vertex -58.69666 58.69666 71.1
    endloop
  endfacet
  facet normal 0 -1 0
    outer loop
      vertex -58.69666 -58.69666 65.175
      vertex 58.69666 -58.69666 65.175
      vertex 58.69666 -58.69666 71.1
    endloop
  endfacet
  facet normal 0 -1 0
    outer loop
      vertex -58.69666 -58.69666 65.175
      vertex 58.69666 -58.69666 71.1
      vertex -58.69666 -58.69666 71.1
    endloop
  endfacet
  facet normal 1 0 0
    outer loop
      vertex 58.69666 -58.69666 65.175
      vertex 58.69666 58.69666 65.175
      vertex 58.69666 58.69666 71.1
    endloop
  endfacet
  facet normal 1 0 0
    outer loop
      vertex 58.69666 -58.69666 65.175
      vertex 58.69666 58.69666 71.1
      vertex 58.69666 -58.69666 71.1
    endloop
  endfacet
  facet normal 0 1 0
    outer loop
      vertex 58.69666 58.69666 65.175
      vertex -58.69666 58.69666 65.175
      vertex -58.69666 58.69666 71.1
    endloop
  endfacet
  facet normal 0 1 -0
    outer loop
      vertex 58.69666 58.69666 65.175
      vertex -58.69666 58.69666 71.1
      vertex 58.69666 58.69666 71.1
    endloop
  endfacet
  facet normal -1 0 0
    outer loop
      vertex -58.69666 58.69666 65.175
      vertex -58.69666 -58.69666 65.175
      vertex -58.69666 -58.69666 71.1
    endloop
  endfacet
  facet normal -1 0 0
    outer loop
      vertex -58.69666 58.69666 65.175
      vertex -58.69666 -58.69666 71.1
      vertex -58.69666 58.69666 71.1
    endloop
  endfacet
endsolid temporary_cut_stepped_mound_layer_12
