solid temporary_cut_stepped_mound_layer_05
  facet normal 0 0 -1
    outer loop
      vertex -91.28998 91.28998 23.7
      vertex 91.28998 91.28998 23.7
      vertex 91.28998 -91.28998 23.7
    endloop
  endfacet
  facet normal 0 0 -1
    outer loop
      vertex -91.28998 91.28998 23.7
      vertex 91.28998 -91.28998 23.7
      vertex -91.28998 -91.28998 23.7
    endloop
  endfacet
  facet normal 0 0 1
    outer loop
      vertex -91.28998 -91.28998 29.625
      vertex 91.28998 -91.28998 29.625
      vertex 91.28998 91.28998 29.625
    endloop
  endfacet
  facet normal 0 0 1
    outer loop
      vertex -91.28998 -91.28998 29.625
      vertex 91.28998 91.28998 29.625
      vertex -91.28998 91.28998 29.625
    endloop
  endfacet
  facet normal 0 -1 0
    outer loop
      vertex -91.28998 -91.28998 23.7
      vertex 91.28998 -91.28998 23.7
      vertex 91.28998 -91.28998 29.625
    endloop
  endfacet
  facet normal 0 -1 0
    outer loop
      vertex -91.28998 -91.28998 23.7
      vertex 91.28998 -91.28998 29.625
      vertex -91.28998 -91.28998 29.625
    endloop
  endfacet
  facet normal 1 0 0
    outer loop
      vertex 91.28998 -91.28998 23.7
      vertex 91.28998 91.28998 23.7
      vertex 91.28998 91.28998 29.625
    endloop
  endfacet
  facet normal 1 0 0
    outer loop
      vertex 91.28998 -91.28998 23.7
      vertex 91.28998 91.28998 29.625
      vertex 91.28998 -91.28998 29.625
    endloop
  endfacet
  facet normal 0 1 0
    outer loop
      vertex 91.28998 91.28998 23.7
      vertex -91.28998 91.28998 23.7
      vertex -91.28998 91.28998 29.625
    endloop
  endfacet
  facet normal 0 1 -0
    outer loop
      vertex 91.28998 91.28998 23.7
      vertex -91.28998 91.28998 29.625
      vertex 91.28998 91.28998 29.625
    endloop
  endfacet
  facet normal -1 0 0
    outer loop
      vertex -91.28998 91.28998 23.7
      vertex -91.28998 -91.28998 23.7
      vertex -91.28998 -91.28998 29.625
    endloop
  endfacet
  facet normal -1 0 0
    outer loop
      vertex -91.28998 91.28998 23.7
      vertex -91.28998 -91.28998 29.625
      vertex -91.28998 91.28998 29.625
    endloop
  endfacet
endsolid temporary_cut_stepped_mound_layer_05
