solid temporary_cut_stepped_mound_layer_02
  facet normal 0 0 1
    outer loop
      vertex -104.9085 -104.9085 11.85
      vertex -49.31316 -104.9085 11.85
      vertex -49.31316 -49.31316 11.85
    endloop
  endfacet
  facet normal 0 0 1
    outer loop
      vertex -104.9085 -104.9085 11.85
      vertex -49.31316 -49.31316 11.85
      vertex -104.9085 -49.31316 11.85
    endloop
  endfacet
  facet normal 0 0 -1
    outer loop
      vertex -104.9085 -49.31316 5.925
      vertex -49.31316 -49.31316 5.925
      vertex -49.31316 -104.9085 5.925
    endloop
  endfacet
  facet normal 0 0 -1
    outer loop
      vertex -104.9085 -49.31316 5.925
      vertex -49.31316 -104.9085 5.925
      vertex -104.9085 -104.9085 5.925
    endloop
  endfacet
  facet normal 0 -1 0
    outer loop
      vertex -104.9085 -104.9085 5.925
      vertex -49.31316 -104.9085 5.925
      vertex -49.31316 -104.9085 11.85
    endloop
  endfacet
  facet normal 0 -1 0
    outer loop
      vertex -104.9085 -104.9085 5.925
      vertex -49.31316 -104.9085 11.85
      vertex -104.9085 -104.9085 11.85
    endloop
  endfacet
  facet normal -1 0 0
    outer loop
      vertex -104.9085 -49.31316 5.925
      vertex -104.9085 -104.9085 5.925
      vertex -104.9085 -104.9085 11.85
    endloop
  endfacet
  facet normal -1 0 0
    outer loop
      vertex -104.9085 -49.31316 5.925
      vertex -104.9085 -104.9085 11.85
      vertex -104.9085 -49.31316 11.85
    endloop
  endfacet
  facet normal 0 0 1
    outer loop
      vertex -104.9085 -49.31316 11.85
      vertex -49.31316 -49.31316 11.85
      vertex -49.31316 49.31316 11.85
    endloop
  endfacet
  facet normal 0 0 1
    outer loop
      vertex -104.9085 -49.31316 11.85
      vertex -49.31316 49.31316 11.85
      vertex -104.9085 49.31316 11.85
    endloop
  endfacet
  facet normal 0 0 -1
    outer loop
      vertex -104.9085 49.31316 5.925
      vertex -49.31316 49.31316 5.925
      vertex -49.31316 -49.31316 5.925
    endloop
  endfacet
  facet normal 0 0 -1
    outer loop
      vertex -104.9085 49.31316 5.925
      vertex -49.31316 -49.31316 5.925
      vertex -104.9085 -49.31316 5.925
    endloop
  endfacet
  facet normal 1 0 0
    outer loop
      vertex -49.31316 -49.31316 5.925
      vertex -49.31316 49.31316 5.925
      vertex -49.31316 49.31316 11.85
    endloop
  endfacet
  facet normal 1 0 0
    outer loop
      vertex -49.31316 -49.31316 5.925
      vertex -49.31316 49.31316 11.85
      vertex -49.31316 -49.31316 11.85
    endloop
  endfacet
  facet normal -1 0 0
    outer loop
      vertex -104.9085 49.31316 5.925
      vertex -104.9085 -49.31316 5.925
      vertex -104.9085 -49.31316 11.85
    endloop
  endfacet
  facet normal -1 0 0
    outer loop
      vertex -104.9085 49.31316 5.925
      vertex -104.9085 -49.31316 11.85
      vertex -104.9085 49.31316 11.85
    endloop
  endfacet
  facet normal 0 0 1
    outer loop
      vertex -104.9085 49.31316 11.85
      vertex -49.31316 49.31316 11.85
      vertex -49.31316 104.9085 11.85
    endloop
  endfacet
  facet normal 0 0 1
    outer loop
      vertex -104.9085 49.31316 11.85
      vertex -49.31316 104.9085 11.85
      vertex -104.9085 104.9085 11.85
    endloop
  endfacet
  facet normal 0 0 -1
    outer loop
      vertex -104.9085 104.9085 5.925
      vertex -49.31316 104.9085 5.925
      vertex -49.31316 49.31316 5.925
    endloop
  endfacet
  facet normal 0 0 -1
    outer loop
      vertex -104.9085 104.9085 5.925
      vertex -49.31316 49.31316 5.925
      vertex -104.9085 49.31316 5.925
    endloop
  endfacet
  facet normal 0 1 0
    outer loop
      vertex -49.31316 104.9085 5.925
      vertex -104.9085 104.9085 5.925
      vertex -104.9085 104.9085 11.85
    endloop
  endfacet
  facet normal 0 1 -0
    outer loop
      vertex -49.31316 104.9085 5.925
      vertex -104.9085 104.9085 11.85
      vertex -49.31316 104.9085 11.85
    endloop
  endfacet
  facet normal -1 0 0
    outer loop
      vertex -104.9085 104.9085 5.925
      vertex -104.9085 49.31316 5.925
      vertex -104.9085 49.31316 11.85
    endloop
  endfacet
  facet normal -1 0 0
    outer loop
      vertex -104.9085 104.9085 5.925
      vertex -104.9085 49.31316 11.85
      vertex -104.9085 104.9085 11.85
    endloop
  endfacet
  facet normal 0 0 1
    outer loop
      vertex -49.31316 -104.9085 11.85
      vertex 49.31316 -104.9085 11.85
      vertex 49.31316 -49.31316 11.85
    endloop
  endfacet
  facet normal 0 0 1
    outer loop
      vertex -49.31316 -104.9085 11.85
      vertex 49.31316 -49.31316 11.85
      vertex -49.31316 -49.31316 11.85
    endloop
  endfacet
  facet normal 0 0 -1
    outer loop
      vertex -49.31316 -49.31316 5.925
      vertex 49.31316 -49.31316 5.925
      vertex 49.31316 -104.9085 5.925
    endloop
  endfacet
  facet normal 0 0 -1
    outer loop
      vertex -49.31316 -49.31316 5.925
      vertex 49.31316 -104.9085 5.925
      vertex -49.31316 -104.9085 5.925
    endloop
  endfacet
  facet normal 0 -1 0
    outer loop
      vertex -49.31316 -104.9085 5.925
      vertex 49.31316 -104.9085 5.925
      vertex 49.31316 -104.9085 11.85
    endloop
  endfacet
  facet normal 0 -1 0
    outer loop
      vertex -49.31316 -104.9085 5.925
      vertex 49.31316 -104.9085 11.85
      vertex -49.31316 -104.9085 11.85
    endloop
  endfacet
  facet normal 0 1 0
    outer loop
      vertex 49.31316 -49.31316 5.925
      vertex -49.31316 -49.31316 5.925
      vertex -49.31316 -49.31316 11.85
    endloop
  endfacet
  facet normal 0 1 -0
    outer loop
      vertex 49.31316 -49.31316 5.925
      vertex -49.31316 -49.31316 11.85
      vertex 49.31316 -49.31316 11.85
    endloop
  endfacet
  facet normal 0 0 1
    outer loop
      vertex -49.31316 49.31316 11.85
      vertex 49.31316 49.31316 11.85
      vertex 49.31316 104.9085 11.85
    endloop
  endfacet
  facet normal 0 0 1
    outer loop
      vertex -49.31316 49.31316 11.85
      vertex 49.31316 104.9085 11.85
      vertex -49.31316 104.9085 11.85
    endloop
  endfacet
  facet normal 0 0 -1
    outer loop
      vertex -49.31316 104.9085 5.925
      vertex 49.31316 104.9085 5.925
      vertex 49.31316 49.31316 5.925
    endloop
  endfacet
  facet normal 0 0 -1
    outer loop
      vertex -49.31316 104.9085 5.925
      vertex 49.31316 49.31316 5.925
      vertex -49.31316 49.31316 5.925
    endloop
  endfacet
  facet normal 0 -1 0
    outer loop
      vertex -49.31316 49.31316 5.925
      vertex 49.31316 49.31316 5.925
      vertex 49.31316 49.31316 11.85
    endloop
  endfacet
  facet normal 0 -1 0
    outer loop
      vertex -49.31316 49.31316 5.925
      vertex 49.31316 49.31316 11.85
      vertex -49.31316 49.31316 11.85
    endloop
  endfacet
  facet normal 0 1 0
    outer loop
      vertex 49.31316 104.9085 5.925
      vertex -49.31316 104.9085 5.925
      vertex -49.31316 104.9085 11.85
    endloop
  endfacet
  facet normal 0 1 -0
    outer loop
      vertex 49.31316 104.9085 5.925
      vertex -49.31316 104.9085 11.85
      vertex 49.31316 104.9085 11.85
    endloop
  endfacet
  facet normal 0 0 1
    outer loop
      vertex 49.31316 -104.9085 11.85
      vertex 104.9085 -104.9085 11.85
      vertex 104.9085 -49.31316 11.85
    endloop
  endfacet
  facet normal 0 0 1
    outer loop
      vertex 49.31316 -104.9085 11.85
      vertex 104.9085 -49.31316 11.85
      vertex 49.31316 -49.31316 11.85
    endloop
  endfacet
  facet normal 0 0 -1
    outer loop
      vertex 49.31316 -49.31316 5.925
      vertex 104.9085 -49.31316 5.925
      vertex 104.9085 -104.9085 5.925
    endloop
  endfacet
  facet normal 0 0 -1
    outer loop
      vertex 49.31316 -49.31316 5.925
      vertex 104.9085 -104.9085 5.925
      vertex 49.31316 -104.9085 5.925
    endloop
  endfacet
  facet normal 0 -1 0
    outer loop
      vertex 49.31316 -104.9085 5.925
      vertex 104.9085 -104.9085 5.925
      vertex 104.9085 -104.9085 11.85
    endloop
  endfacet
  facet normal 0 -1 0
    outer loop
      vertex 49.31316 -104.9085 5.925
      vertex 104.9085 -104.9085 11.85
      vertex 49.31316 -104.9085 11.85
    endloop
  endfacet
  facet normal 1 0 0
    outer loop
      vertex 104.9085 -104.9085 5.925
      vertex 104.9085 -49.31316 5.925
      vertex 104.9085 -49.31316 11.85
    endloop
  endfacet
  facet normal 1 0 0
    outer loop
      vertex 104.9085 -104.9085 5.925
      vertex 104.9085 -49.31316 11.85
      vertex 104.9085 -104.9085 11.85
    endloop
  endfacet
  facet normal 0 0 1
    outer loop
      vertex 49.31316 -49.31316 11.85
      vertex 104.9085 -49.31316 11.85
      vertex 104.9085 49.31316 11.85
    endloop
  endfacet
  facet normal 0 0 1
    outer loop
      vertex 49.31316 -49.31316 11.85
      vertex 104.9085 49.31316 11.85
      vertex 49.31316 49.31316 11.85
    endloop
  endfacet
  facet normal 0 0 -1
    outer loop
      vertex 49.31316 49.31316 5.925
      vertex 104.9085 49.31316 5.925
      vertex 104.9085 -49.31316 5.925
    endloop
  endfacet
  facet normal 0 0 -1
    outer loop
      vertex 49.31316 49.31316 5.925
      vertex 104.9085 -49.31316 5.925
      vertex 49.31316 -49.31316 5.925
    endloop
  endfacet
  facet normal 1 0 0
    outer loop
      vertex 104.9085 -49.31316 5.925
      vertex 104.9085 49.31316 5.925
      vertex 104.9085 49.31316 11.85
    endloop
  endfacet
  facet normal 1 0 0
    outer loop
      vertex 104.9085 -49.31316 5.925
      vertex 104.9085 49.31316 11.85
      vertex 104.9085 -49.31316 11.85
    endloop
  endfacet
  facet normal -1 0 0
    outer loop
      vertex 49.31316 49.31316 5.925
      vertex 49.31316 -49.31316 5.925
      vertex 49.31316 -49.31316 11.85
    endloop
  endfacet
  facet normal -1 0 0
    outer loop
      vertex 49.31316 49.31316 5.925
      vertex 49.31316 -49.31316 11.85
      vertex 49.31316 49.31316 11.85
    endloop
  endfacet
  facet normal 0 0 1
    outer loop
      vertex 49.31316 49.31316 11.85
      vertex 104.9085 49.31316 11.85
      vertex 104.9085 104.9085 11.85
    endloop
  endfacet
  facet normal 0 0 1
    outer loop
      vertex 49.31316 49.31316 11.85
      vertex 104.9085 104.9085 11.85
      vertex 49.31316 104.9085 11.85
    endloop
  endfacet
  facet normal 0 0 -1
    outer loop
      vertex 49.31316 104.9085 5.925
      vertex 104.9085 104.9085 5.925
      vertex 104.9085 49.31316 5.925
    endloop
  endfacet
  facet normal 0 0 -1
    outer loop
      vertex 49.31316 104.9085 5.925
      vertex 104.9085 49.31316 5.925
      vertex 49.31316 49.31316 5.925
    endloop
  endfacet
  facet normal 1 0 0
    outer loop
      vertex 104.9085 49.31316 5.925
      vertex 104.9085 104.9085 5.925
      vertex 104.9085 104.9085 11.85
    endloop
  endfacet
  facet normal 1 0 0
    outer loop
      vertex 104.9085 49.31316 5.925
      vertex 104.9085 104.9085 11.85
      vertex 104.9085 49.31316 11.85
    endloop
  endfacet
  facet normal 0 1 0
    outer loop
      vertex 104.9085 104.9085 5.925
      vertex 49.31316 104.9085 5.925
      vertex 49.31316 104.9085 11.85
    endloop
  endfacet
  facet normal 0 1 -0
    outer loop
      vertex 104.9085 104.9085 5.925
      vertex 49.31316 104.9085 11.85
      vertex 104.9085 104.9085 11.85
    endloop
  endfacet
endsolid temporary_cut_stepped_mound_layer_02
