solid temporary_cut_stepped_mound_layer_16
  facet normal 0 0 -1
    outer loop
      vertex -44.72809 44.72809 88.875
      vertex 44.72809 44.72809 88.875
      vertex 44.72809 -44.72809 88.875
    endloop
  endfacet
  facet normal 0 0 -1
    outer loop
      vertex -44.72809 44.72809 88.875
      vertex 44.72809 -44.72809 88.875
      vertex -44.72809 -44.72809 88.875
    endloop
  endfacet
  facet normal 0 0 1
    outer loop
      vertex -44.72809 -44.72809 94.8
      vertex 44.72809 -44.72809 94.8
      vertex 44.72809 44.72809 94.8
    endloop
  endfacet
  facet normal 0 0 1
    outer loop
      vertex -44.72809 -44.72809 94.8
      vertex 44.72809 44.72809 94.8
      vertex -44.72809 44.72809 94.8
    endloop
  endfacet
  facet normal 0 -1 0
    outer loop
      vertex -44.72809 -44.72809 88.875
      vertex 44.72809 -44.72809 88.875
      vertex 44.72809 -44.72809 94.8
    endloop
  endfacet
  facet normal 0 -1 0
    outer loop
      vertex -44.72809 -44.72809 88.875
      vertex 44.72809 -44.72809 94.8
      vertex -44.72809 -44.72809 94.8
    endloop
  endfacet
  facet normal 1 0 0
    outer loop
      vertex 44.72809 -44.72809 88.875
      vertex 44.72809 44.72809 88.875
      vertex 44.72809 44.72809 94.8
    endloop
  endfacet
  facet normal 1 0 0
    outer loop
      vertex 44.72809 -44.72809 88.875
      vertex 44.72809 44.72809 94.8
      vertex 44.72809 -44.72809 94.8
    endloop
  endfacet
  facet normal 0 1 0
    outer loop
      vertex 44.72809 44.72809 88.875
      vertex -44.72809 44.72809 88.875
      vertex -44.72809 44.72809 94.8
    endloop
  endfacet
  facet normal 0 1 -0
    outer loop
      vertex 44.72809 44.72809 88.875
      vertex -44.72809 44.72809 94.8
      vertex 44.72809 44.72809 94.8
    endloop
  endfacet
  facet normal -1 0 0
    outer loop
      vertex -44.72809 44.72809 88.875
      vertex -44.72809 -44.72809 88.875
      vertex -44.72809 -44.72809 94.8
    endloop
  endfacet
  facet normal -1 0 0
    outer loop
      vertex -44.72809 44.72809 88.875
      vertex -44.72809 -44.72809 94.8
      vertex -44.72809 44.72809 94.8
    endloop
  endfacet
endsolid temporary_cut_stepped_mound_layer_16
