solid temporary_cut_stepped_mound_layer_13
  facet normal 0 0 -1
    outer loop
      vertex -54.04047 54.04047 71.1
      vertex 54.04047 54.04047 71.1
      vertex 54.04047 -54.04047 71.1
    endloop
  endfacet
  facet normal 0 0 -1
    outer loop
      vertex -54.04047 54.04047 71.1
      vertex 54.04047 -54.04047 71.1
      vertex -54.04047 -54.04047 71.1
    endloop
  endfacet
  facet normal 0 0 1
    outer loop
      vertex -54.04047 -54.04047 77.025
      vertex 54.04047 -54.04047 77.025
      vertex 54.04047 54.04047 77.025
    endloop
  endfacet
  facet normal 0 0 1
    outer loop
      vertex -54.04047 -54.04047 77.025
      vertex 54.04047 54.04047 77.025
      vertex -54.04047 54.04047 77.025
    endloop
  endfacet
  facet normal 0 -1 0
    outer loop
      vertex -54.04047 -54.04047 71.1
      vertex 54.04047 -54.04047 71.1
      vertex 54.04047 -54.04047 77.025
    endloop
  endfacet
  facet normal 0 -1 0
    outer loop
      vertex -54.04047 -54.04047 71.1
      vertex 54.04047 -54.04047 77.025
      vertex -54.04047 -54.04047 77.025
    endloop
  endfacet
  facet normal 1 0 0
    outer loop
      vertex 54.04047 -54.04047 71.1
      vertex 54.04047 54.04047 71.1
      vertex 54.04047 54.04047 77.025
    endloop
  endfacet
  facet normal 1 0 0
    outer loop
      vertex 54.04047 -54.04047 71.1
      vertex 54.04047 54.04047 77.025
      vertex 54.04047 -54.04047 77.025
    endloop
  endfacet
  facet normal 0 1 0
    outer loop
      vertex 54.04047 54.04047 71.1
      vertex -54.04047 54.04047 71.1
      vertex -54.04047 54.04047 77.025
    endloop
  endfacet
  facet normal 0 1 -0
    outer loop
      vertex 54.04047 54.04047 71.1
      vertex -54.04047 54.04047 77.025
      vertex 54.04047 54.04047 77.025
    endloop
  endfacet
  facet normal -1 0 0
    outer loop
      vertex -54.04047 54.04047 71.1
      vertex -54.04047 -54.04047 71.1
      vertex -54.04047 -54.04047 77.025
    endloop
  endfacet
  facet normal -1 0 0
    outer loop
      vertex -54.04047 54.04047 71.1
      vertex -54.04047 -54.04047 77.025
      vertex -54.04047 54.04047 77.025
    endloop
  endfacet
endsolid temporary_cut_stepped_mound_layer_13
