solid temporary_cut_stepped_mound_layer_01
  facet normal 0 0 1
    outer loop
      vertex -109.5647 -109.5647 5.925
      vertex -52.35 -109.5647 5.925
      vertex -52.35 -52.35 5.925
    endloop
  endfacet
  facet normal 0 0 1
    outer loop
      vertex -109.5647 -109.5647 5.925
      vertex -52.35 -52.35 5.925
      vertex -109.5647 -52.35 5.925
    endloop
  endfacet
  facet normal 0 0 -1
    outer loop
      vertex -109.5647 -52.35 0
      vertex -52.35 -52.35 0
      vertex -52.35 -109.5647 0
    endloop
  endfacet
  facet normal 0 0 -1
    outer loop
      vertex -109.5647 -52.35 0
      vertex -52.35 -109.5647 0
      vertex -109.5647 -109.5647 0
    endloop
  endfacet
  facet normal 0 -1 0
    outer loop
      vertex -109.5647 -109.5647 0
      vertex -52.35 -109.5647 0
      vertex -52.35 -109.5647 5.925
    endloop
  endfacet
  facet normal 0 -1 0
    outer loop
      vertex -109.5647 -109.5647 0
      vertex -52.35 -109.5647 5.925
      vertex -109.5647 -109.5647 5.925
    endloop
  endfacet
  facet normal -1 0 0
    outer loop
      vertex -109.5647 -52.35 0
      vertex -109.5647 -109.5647 0
      vertex -109.5647 -109.5647 5.925
    endloop
  endfacet
  facet normal -1 0 0
    outer loop
      vertex -109.5647 -52.35 0
      vertex -109.5647 -109.5647 5.925
      vertex -109.5647 -52.35 5.925
    endloop
  endfacet
  facet normal 0 0 1
    outer loop
      vertex -109.5647 -52.35 5.925
      vertex -52.35 -52.35 5.925
      vertex -52.35 52.35 5.925
    endloop
  endfacet
  facet normal 0 0 1
    outer loop
      vertex -109.5647 -52.35 5.925
      vertex -52.35 52.35 5.925
      vertex -109.5647 52.35 5.925
    endloop
  endfacet
  facet normal 0 0 -1
    outer loop
      vertex -109.5647 52.35 0
      vertex -52.35 52.35 0
      vertex -52.35 -52.35 0
    endloop
  endfacet
  facet normal 0 0 -1
    outer loop
      vertex -109.5647 52.35 0
      vertex -52.35 -52.35 0
      vertex -109.5647 -52.35 0
    endloop
  endfacet
  facet normal 1 0 0
    outer loop
      vertex -52.35 -52.35 0
      vertex -52.35 52.35 0
      vertex -52.35 52.35 5.925
    endloop
  endfacet
  facet normal 1 0 0
    outer loop
      vertex -52.35 -52.35 0
      vertex -52.35 52.35 5.925
      vertex -52.35 -52.35 5.925
    endloop
  endfacet
  facet normal -1 0 0
    outer loop
      vertex -109.5647 52.35 0
      vertex -109.5647 -52.35 0
      vertex -109.5647 -52.35 5.925
    endloop
  endfacet
  facet normal -1 0 0
    outer loop
      vertex -109.5647 52.35 0
      vertex -109.5647 -52.35 5.925
      vertex -109.5647 52.35 5.925
    endloop
  endfacet
  facet normal 0 0 1
    outer loop
      vertex -109.5647 52.35 5.925
      vertex -52.35 52.35 5.925
      vertex -52.35 109.5647 5.925
    endloop
  endfacet
  facet normal 0 0 1
    outer loop
      vertex -109.5647 52.35 5.925
      vertex -52.35 109.5647 5.925
      vertex -109.5647 109.5647 5.925
    endloop
  endfacet
  facet normal 0 0 -1
    outer loop
      vertex -109.5647 109.5647 0
      vertex -52.35 109.5647 0
      vertex -52.35 52.35 0
    endloop
  endfacet
  facet normal 0 0 -1
    outer loop
      vertex -109.5647 109.5647 0
      vertex -52.35 52.35 0
      vertex -109.5647 52.35 0
    endloop
  endfacet
  facet normal 0 1 0
    outer loop
      vertex -52.35 109.5647 0
      vertex -109.5647 109.5647 0
      vertex -109.5647 109.5647 5.925
    endloop
  endfacet
  facet normal 0 1 -0
    outer loop
      vertex -52.35 109.5647 0
      vertex -109.5647 109.5647 5.925
      vertex -52.35 109.5647 5.925
    endloop
  endfacet
  facet normal -1 0 0
    outer loop
      vertex -109.5647 109.5647 0
      vertex -109.5647 52.35 0
      vertex -109.5647 52.35 5.925
    endloop
  endfacet
  facet normal -1 0 0
    outer loop
      vertex -109.5647 109.5647 0
      vertex -109.5647 52.35 5.925
      vertex -109.5647 109.5647 5.925
    endloop
  endfacet
  facet normal 0 0 1
    outer loop
      vertex -52.35 -109.5647 5.925
      vertex 52.35 -109.5647 5.925
      vertex 52.35 -52.35 5.925
    endloop
  endfacet
  facet normal 0 0 1
    outer loop
      vertex -52.35 -109.5647 5.925
      vertex 52.35 -52.35 5.925
      vertex -52.35 -52.35 5.925
    endloop
  endfacet
  facet normal 0 0 -1
    outer loop
      vertex -52.35 -52.35 0
      vertex 52.35 -52.35 0
      vertex 52.35 -109.5647 0
    endloop
  endfacet
  facet normal 0 0 -1
    outer loop
      vertex -52.35 -52.35 0
      vertex 52.35 -109.5647 0
      vertex -52.35 -109.5647 0
    endloop
  endfacet
  facet normal 0 -1 0
    outer loop
      vertex -52.35 -109.5647 0
      vertex 52.35 -109.5647 0
      vertex 52.35 -109.5647 5.925
    endloop
  endfacet
  facet normal 0 -1 0
    outer loop
      vertex -52.35 -109.5647 0
      vertex 52.35 -109.5647 5.925
      vertex -52.35 -109.5647 5.925
    endloop
  endfacet
  facet normal 0 1 0
    outer loop
      vertex 52.35 -52.35 0
      vertex -52.35 -52.35 0
      vertex -52.35 -52.35 5.925
    endloop
  endfacet
  facet normal 0 1 -0
    outer loop
      vertex 52.35 -52.35 0
      vertex -52.35 -52.35 5.925
      vertex 52.35 -52.35 5.925
    endloop
  endfacet
  facet normal 0 0 1
    outer loop
      vertex -52.35 52.35 5.925
      vertex 52.35 52.35 5.925
      vertex 52.35 109.5647 5.925
    endloop
  endfacet
  facet normal 0 0 1
    outer loop
      vertex -52.35 52.35 5.925
      vertex 52.35 109.5647 5.925
      vertex -52.35 109.5647 5.925
    endloop
  endfacet
  facet normal 0 0 -1
    outer loop
      vertex -52.35 109.5647 0
      vertex 52.35 109.5647 0
      vertex 52.35 52.35 0
    endloop
  endfacet
  facet normal 0 0 -1
    outer loop
      vertex -52.35 109.5647 0
      vertex 52.35 52.35 0
      vertex -52.35 52.35 0
    endloop
  endfacet
  facet normal 0 -1 0
    outer loop
      vertex -52.35 52.35 0
      vertex 52.35 52.35 0
      vertex 52.35 52.35 5.925
    endloop
  endfacet
  facet normal 0 -1 0
    outer loop
      vertex -52.35 52.35 0
      vertex 52.35 52.35 5.925
      vertex -52.35 52.35 5.925
    endloop
  endfacet
  facet normal 0 1 0
    outer loop
      vertex 52.35 109.5647 0
      vertex -52.35 109.5647 0
      vertex -52.35 109.5647 5.925
    endloop
  endfacet
  facet normal 0 1 -0
    outer loop
      vertex 52.35 109.5647 0
      vertex -52.35 109.5647 5.925
      vertex 52.35 109.5647 5.925
    endloop
  endfacet
  facet normal 0 0 1
    outer loop
      vertex 52.35 -109.5647 5.925
      vertex 109.5647 -109.5647 5.925
      vertex 109.5647 -52.35 5.925
    endloop
  endfacet
  facet normal 0 0 1
    outer loop
      vertex 52.35 -109.5647 5.925
      vertex 109.5647 -52.35 5.925
      vertex 52.35 -52.35 5.925
    endloop
  endfacet
  facet normal 0 0 -1
    outer loop
      vertex 52.35 -52.35 0
      vertex 109.5647 -52.35 0
      vertex 109.5647 -109.5647 0
    endloop
  endfacet
  facet normal 0 0 -1
    outer loop
      vertex 52.35 -52.35 0
      vertex 109.5647 -109.5647 0
      vertex 52.35 -109.5647 0
    endloop
  endfacet
  facet normal 0 -1 0
    outer loop
      vertex 52.35 -109.5647 0
      vertex 109.5647 -109.5647 0
      vertex 109.5647 -109.5647 5.925
    endloop
  endfacet
  facet normal 0 -1 0
    outer loop
      vertex 52.35 -109.5647 0
      vertex 109.5647 -109.5647 5.925
      vertex 52.35 -109.5647 5.925
    endloop
  endfacet
  facet normal 1 0 0
    outer loop
      vertex 109.5647 -109.5647 0
      vertex 109.5647 -52.35 0
      vertex 109.5647 -52.35 5.925
    endloop
  endfacet
  facet normal 1 0 0
    outer loop
      vertex 109.5647 -109.5647 0
      vertex 109.5647 -52.35 5.925
      vertex 109.5647 -109.5647 5.925
    endloop
  endfacet
  facet normal 0 0 1
    outer loop
      vertex 52.35 -52.35 5.925
      vertex 109.5647 -52.35 5.925
      vertex 109.5647 52.35 5.925
    endloop
  endfacet
  facet normal 0 0 1
    outer loop
      vertex 52.35 -52.35 5.925
      vertex 109.5647 52.35 5.925
      vertex 52.35 52.35 5.925
    endloop
  endfacet
  facet normal 0 0 -1
    outer loop
      vertex 52.35 52.35 0
      vertex 109.5647 52.35 0
      vertex 109.5647 -52.35 0
    endloop
  endfacet
  facet normal 0 0 -1
    outer loop
      vertex 52.35 52.35 0
      vertex 109.5647 -52.35 0
      vertex 52.35 -52.35 0
    endloop
  endfacet
  facet normal 1 0 0
    outer loop
      vertex 109.5647 -52.35 0
      vertex 109.5647 52.35 0
      vertex 109.5647 52.35 5.925
    endloop
  endfacet
  facet normal 1 0 0
    outer loop
      vertex 109.5647 -52.35 0
      vertex 109.5647 52.35 5.925
      vertex 109.5647 -52.35 5.925
    endloop
  endfacet
  facet normal -1 0 0
    outer loop
      vertex 52.35 52.35 0
      vertex 52.35 -52.35 0
      vertex 52.35 -52.35 5.925
    endloop
  endfacet
  facet normal -1 0 0
    outer loop
      vertex 52.35 52.35 0
      vertex 52.35 -52.35 5.925
      vertex 52.35 52.35 5.925
    endloop
  endfacet
  facet normal 0 0 1
    outer loop
      vertex 52.35 52.35 5.925
      vertex 109.5647 52.35 5.925
      vertex 109.5647 109.5647 5.925
    endloop
  endfacet
  facet normal 0 0 1
    outer loop
      vertex 52.35 52.35 5.925
      vertex 109.5647 109.5647 5.925
      vertex 52.35 109.5647 5.925
    endloop
  endfacet
  facet normal 0 0 -1
    outer loop
      vertex 52.35 109.5647 0
      vertex 109.5647 109.5647 0
      vertex 109.5647 52.35 0
    endloop
  endfacet
  facet normal 0 0 -1
    outer loop
      vertex 52.35 109.5647 0
      vertex 109.5647 52.35 0
      vertex 52.35 52.35 0
    endloop
  endfacet
  facet normal 1 0 0
    outer loop
      vertex 109.5647 52.35 0
      vertex 109.5647 109.5647 0
      vertex 109.5647 109.5647 5.925
    endloop
  endfacet
  facet normal 1 0 0
    outer loop
      vertex 109.5647 52.35 0
      vertex 109.5647 109.5647 5.925
      vertex 109.5647 52.35 5.925
    endloop
  endfacet
  facet normal 0 1 0
    outer loop
      vertex 109.5647 109.5647 0
      vertex 52.35 109.5647 0
      vertex 52.35 109.5647 5.925
    endloop
  endfacet
  facet normal 0 1 -0
    outer loop
      vertex 109.5647 109.5647 0
      vertex 52.35 109.5647 5.925
      vertex 109.5647 109.5647 5.925
    endloop
  endfacet
endsolid temporary_cut_stepped_mound_layer_01
