solid temporary_cut_stepped_mound_layer_12
  facet normal 0 0 1
    outer loop
      vertex -58.34666 -58.34666 71.1
      vertex -18.94479 -58.34666 71.1
      vertex -18.94479 -18.94479 71.1
    endloop
  endfacet
  facet normal 0 0 1
    outer loop
      vertex -58.34666 -58.34666 71.1
      vertex -18.94479 -18.94479 71.1
      vertex -58.34666 -18.94479 71.1
    endloop
  endfacet
  facet normal 0 0 -1
    outer loop
      vertex -58.34666 -18.94479 65.175
      vertex -18.94479 -18.94479 65.175
      vertex -18.94479 -58.34666 65.175
    endloop
  endfacet
  facet normal 0 0 -1
    outer loop
      vertex -58.34666 -18.94479 65.175
      vertex -18.94479 -58.34666 65.175
      vertex -58.34666 -58.34666 65.175
    endloop
  endfacet
  facet normal 0 -1 0
    outer loop
      vertex -58.34666 -58.34666 65.175
      vertex -18.94479 -58.34666 65.175
      vertex -18.94479 -58.34666 71.1
    endloop
  endfacet
  facet normal 0 -1 0
    outer loop
      vertex -58.34666 -58.34666 65.175
      vertex -18.94479 -58.34666 71.1
      vertex -58.34666 -58.34666 71.1
    endloop
  endfacet
  facet normal -1 0 0
    outer loop
      vertex -58.34666 -18.94479 65.175
      vertex -58.34666 -58.34666 65.175
      vertex -58.34666 -58.34666 71.1
    endloop
  endfacet
  facet normal -1 0 0
    outer loop
      vertex -58.34666 -18.94479 65.175
      vertex -58.34666 -58.34666 71.1
      vertex -58.34666 -18.94479 71.1
    endloop
  endfacet
  facet normal 0 0 1
    outer loop
      vertex -58.34666 -18.94479 71.1
      vertex -18.94479 -18.94479 71.1
      vertex -18.94479 18.94479 71.1
    endloop
  endfacet
  facet normal 0 0 1
    outer loop
      vertex -58.34666 -18.94479 71.1
      vertex -18.94479 18.94479 71.1
      vertex -58.34666 18.94479 71.1
    endloop
  endfacet
  facet normal 0 0 -1
    outer loop
      vertex -58.34666 18.94479 65.175
      vertex -18.94479 18.94479 65.175
      vertex -18.94479 -18.94479 65.175
    endloop
  endfacet
  facet normal 0 0 -1
    outer loop
      vertex -58.34666 18.94479 65.175
      vertex -18.94479 -18.94479 65.175
      vertex -58.34666 -18.94479 65.175
    endloop
  endfacet
  facet normal 1 0 0
    outer loop
      vertex -18.94479 -18.94479 65.175
      vertex -18.94479 18.94479 65.175
      vertex -18.94479 18.94479 71.1
    endloop
  endfacet
  facet normal 1 0 0
    outer loop
      vertex -18.94479 -18.94479 65.175
      vertex -18.94479 18.94479 71.1
      vertex -18.94479 -18.94479 71.1
    endloop
  endfacet
  facet normal -1 0 0
    outer loop
      vertex -58.34666 18.94479 65.175
      vertex -58.34666 -18.94479 65.175
      vertex -58.34666 -18.94479 71.1
    endloop
  endfacet
  facet normal -1 0 0
    outer loop
      vertex -58.34666 18.94479 65.175
      vertex -58.34666 -18.94479 71.1
      vertex -58.34666 18.94479 71.1
    endloop
  endfacet
  facet normal 0 0 1
    outer loop
      vertex -58.34666 18.94479 71.1
      vertex -18.94479 18.94479 71.1
      vertex -18.94479 58.34666 71.1
    endloop
  endfacet
  facet normal 0 0 1
    outer loop
      vertex -58.34666 18.94479 71.1
      vertex -18.94479 58.34666 71.1
      vertex -58.34666 58.34666 71.1
    endloop
  endfacet
  facet normal 0 0 -1
    outer loop
      vertex -58.34666 58.34666 65.175
      vertex -18.94479 58.34666 65.175
      vertex -18.94479 18.94479 65.175
    endloop
  endfacet
  facet normal 0 0 -1
    outer loop
      vertex -58.34666 58.34666 65.175
      vertex -18.94479 18.94479 65.175
      vertex -58.34666 18.94479 65.175
    endloop
  endfacet
  facet normal 0 1 0
    outer loop
      vertex -18.94479 58.34666 65.175
      vertex -58.34666 58.34666 65.175
      vertex -58.34666 58.34666 71.1
    endloop
  endfacet
  facet normal 0 1 -0
    outer loop
      vertex -18.94479 58.34666 65.175
      vertex -58.34666 58.34666 71.1
      vertex -18.94479 58.34666 71.1
    endloop
  endfacet
  facet normal -1 0 0
    outer loop
      vertex -58.34666 58.34666 65.175
      vertex -58.34666 18.94479 65.175
      vertex -58.34666 18.94479 71.1
    endloop
  endfacet
  facet normal -1 0 0
    outer loop
      vertex -58.34666 58.34666 65.175
      vertex -58.34666 18.94479 71.1
      vertex -58.34666 58.34666 71.1
    endloop
  endfacet
  facet normal 0 0 1
    outer loop
      vertex -18.94479 -58.34666 71.1
      vertex 18.94479 -58.34666 71.1
      vertex 18.94479 -18.94479 71.1
    endloop
  endfacet
  facet normal 0 0 1
    outer loop
      vertex -18.94479 -58.34666 71.1
      vertex 18.94479 -18.94479 71.1
      vertex -18.94479 -18.94479 71.1
    endloop
  endfacet
  facet normal 0 0 -1
    outer loop
      vertex -18.94479 -18.94479 65.175
      vertex 18.94479 -18.94479 65.175
      vertex 18.94479 -58.34666 65.175
    endloop
  endfacet
  facet normal 0 0 -1
    outer loop
      vertex -18.94479 -18.94479 65.175
      vertex 18.94479 -58.34666 65.175
      vertex -18.94479 -58.34666 65.175
    endloop
  endfacet
  facet normal 0 -1 0
    outer loop
      vertex -18.94479 -58.34666 65.175
      vertex 18.94479 -58.34666 65.175
      vertex 18.94479 -58.34666 71.1
    endloop
  endfacet
  facet normal 0 -1 0
    outer loop
      vertex -18.94479 -58.34666 65.175
      vertex 18.94479 -58.34666 71.1
      vertex -18.94479 -58.34666 71.1
    endloop
  endfacet
  facet normal 0 1 0
    outer loop
      vertex 18.94479 -18.94479 65.175
      vertex -18.94479 -18.94479 65.175
      vertex -18.94479 -18.94479 71.1
    endloop
  endfacet
  facet normal 0 1 -0
    outer loop
      vertex 18.94479 -18.94479 65.175
      vertex -18.94479 -18.94479 71.1
      vertex 18.94479 -18.94479 71.1
    endloop
  endfacet
  facet normal 0 0 1
    outer loop
      vertex -18.94479 18.94479 71.1
      vertex 18.94479 18.94479 71.1
      vertex 18.94479 58.34666 71.1
    endloop
  endfacet
  facet normal 0 0 1
    outer loop
      vertex -18.94479 18.94479 71.1
      vertex 18.94479 58.34666 71.1
      vertex -18.94479 58.34666 71.1
    endloop
  endfacet
  facet normal 0 0 -1
    outer loop
      vertex -18.94479 58.34666 65.175
      vertex 18.94479 58.34666 65.175
      vertex 18.94479 18.94479 65.175
    endloop
  endfacet
  facet normal 0 0 -1
    outer loop
      vertex -18.94479 58.34666 65.175
      vertex 18.94479 18.94479 65.175
      vertex -18.94479 18.94479 65.175
    endloop
  endfacet
  facet normal 0 -1 0
    outer loop
      vertex -18.94479 18.94479 65.175
      vertex 18.94479 18.94479 65.175
      vertex 18.94479 18.94479 71.1
    endloop
  endfacet
  facet normal 0 -1 0
    outer loop
      vertex -18.94479 18.94479 65.175
      vertex 18.94479 18.94479 71.1
      vertex -18.94479 18.94479 71.1
    endloop
  endfacet
  facet normal 0 1 0
    outer loop
      vertex 18.94479 58.34666 65.175
      vertex -18.94479 58.34666 65.175
      vertex -18.94479 58.34666 71.1
    endloop
  endfacet
  facet normal 0 1 -0
    outer loop
      vertex 18.94479 58.34666 65.175
      vertex -18.94479 58.34666 71.1
      vertex 18.94479 58.34666 71.1
    endloop
  endfacet
  facet normal 0 0 1
    outer loop
      vertex 18.94479 -58.34666 71.1
      vertex 58.34666 -58.34666 71.1
      vertex 58.34666 -18.94479 71.1
    endloop
  endfacet
  facet normal 0 0 1
    outer loop
      vertex 18.94479 -58.34666 71.1
      vertex 58.34666 -18.94479 71.1
      vertex 18.94479 -18.94479 71.1
    endloop
  endfacet
  facet normal 0 0 -1
    outer loop
      vertex 18.94479 -18.94479 65.175
      vertex 58.34666 -18.94479 65.175
      vertex 58.34666 -58.34666 65.175
    endloop
  endfacet
  facet normal 0 0 -1
    outer loop
      vertex 18.94479 -18.94479 65.175
      vertex 58.34666 -58.34666 65.175
      vertex 18.94479 -58.34666 65.175
    endloop
  endfacet
  facet normal 0 -1 0
    outer loop
      vertex 18.94479 -58.34666 65.175
      vertex 58.34666 -58.34666 65.175
      vertex 58.34666 -58.34666 71.1
    endloop
  endfacet
  facet normal 0 -1 0
    outer loop
      vertex 18.94479 -58.34666 65.175
      vertex 58.34666 -58.34666 71.1
      vertex 18.94479 -58.34666 71.1
    endloop
  endfacet
  facet normal 1 0 0
    outer loop
      vertex 58.34666 -58.34666 65.175
      vertex 58.34666 -18.94479 65.175
      vertex 58.34666 -18.94479 71.1
    endloop
  endfacet
  facet normal 1 0 0
    outer loop
      vertex 58.34666 -58.34666 65.175
      vertex 58.34666 -18.94479 71.1
      vertex 58.34666 -58.34666 71.1
    endloop
  endfacet
  facet normal 0 0 1
    outer loop
      vertex 18.94479 -18.94479 71.1
      vertex 58.34666 -18.94479 71.1
      vertex 58.34666 18.94479 71.1
    endloop
  endfacet
  facet normal 0 0 1
    outer loop
      vertex 18.94479 -18.94479 71.1
      vertex 58.34666 18.94479 71.1
      vertex 18.94479 18.94479 71.1
    endloop
  endfacet
  facet normal 0 0 -1
    outer loop
      vertex 18.94479 18.94479 65.175
      vertex 58.34666 18.94479 65.175
      vertex 58.34666 -18.94479 65.175
    endloop
  endfacet
  facet normal 0 0 -1
    outer loop
      vertex 18.94479 18.94479 65.175
      vertex 58.34666 -18.94479 65.175
      vertex 18.94479 -18.94479 65.175
    endloop
  endfacet
  facet normal 1 0 0
    outer loop
      vertex 58.34666 -18.94479 65.175
      vertex 58.34666 18.94479 65.175
      vertex 58.34666 18.94479 71.1
    endloop
  endfacet
  facet normal 1 0 0
    outer loop
      vertex 58.34666 -18.94479 65.175
      vertex 58.34666 18.94479 71.1
      vertex 58.34666 -18.94479 71.1
    endloop
  endfacet
  facet normal -1 0 0
    outer loop
      vertex 18.94479 18.94479 65.175
      vertex 18.94479 -18.94479 65.175
      vertex 18.94479 -18.94479 71.1
    endloop
  endfacet
  facet normal -1 0 0
    outer loop
      vertex 18.94479 18.94479 65.175
      vertex 18.94479 -18.94479 71.1
      vertex 18.94479 18.94479 71.1
    endloop
  endfacet
  facet normal 0 0 1
    outer loop
      vertex 18.94479 18.94479 71.1
      vertex 58.34666 18.94479 71.1
      vertex 58.34666 58.34666 71.1
    endloop
  endfacet
  facet normal 0 0 1
    outer loop
      vertex 18.94479 18.94479 71.1
      vertex 58.34666 58.34666 71.1
      vertex 18.94479 58.34666 71.1
    endloop
  endfacet
  facet normal 0 0 -1
    outer loop
      vertex 18.94479 58.34666 65.175
      vertex 58.34666 58.34666 65.175
      vertex 58.34666 18.94479 65.175
    endloop
  endfacet
  facet normal 0 0 -1
    outer loop
      vertex 18.94479 58.34666 65.175
      vertex 58.34666 18.94479 65.175
      vertex 18.94479 18.94479 65.175
    endloop
  endfacet
  facet normal 1 0 0
    outer loop
      vertex 58.34666 18.94479 65.175
      vertex 58.34666 58.34666 65.175
      vertex 58.34666 58.34666 71.1
    endloop
  endfacet
  facet normal 1 0 0
    outer loop
      vertex 58.34666 18.94479 65.175
      vertex 58.34666 58.34666 71.1
      vertex 58.34666 18.94479 71.1
    endloop
  endfacet
  facet normal 0 1 0
    outer loop
      vertex 58.34666 58.34666 65.175
      vertex 18.94479 58.34666 65.175
      vertex 18.94479 58.34666 71.1
    endloop
  endfacet
  facet normal 0 1 -0
    outer loop
      vertex 58.34666 58.34666 65.175
      vertex 18.94479 58.34666 71.1
      vertex 58.34666 58.34666 71.1
    endloop
  endfacet
endsolid temporary_cut_stepped_mound_layer_12
