solid temporary_cut_stepped_mound_layer_13
  facet normal 0 0 1
    outer loop
      vertex -53.69047 -53.69047 77.025
      vertex -15.90796 -53.69047 77.025
      vertex -15.90796 -15.90796 77.025
    endloop
  endfacet
  facet normal 0 0 1
    outer loop
      vertex -53.69047 -53.69047 77.025
      vertex -15.90796 -15.90796 77.025
      vertex -53.69047 -15.90796 77.025
    endloop
  endfacet
  facet normal 0 0 -1
    outer loop
      vertex -53.69047 -15.90796 71.1
      vertex -15.90796 -15.90796 71.1
      vertex -15.90796 -53.69047 71.1
    endloop
  endfacet
  facet normal 0 0 -1
    outer loop
      vertex -53.69047 -15.90796 71.1
      vertex -15.90796 -53.69047 71.1
      vertex -53.69047 -53.69047 71.1
    endloop
  endfacet
  facet normal 0 -1 0
    outer loop
      vertex -53.69047 -53.69047 71.1
      vertex -15.90796 -53.69047 71.1
      vertex -15.90796 -53.69047 77.025
    endloop
  endfacet
  facet normal 0 -1 0
    outer loop
      vertex -53.69047 -53.69047 71.1
      vertex -15.90796 -53.69047 77.025
      vertex -53.69047 -53.69047 77.025
    endloop
  endfacet
  facet normal -1 0 0
    outer loop
      vertex -53.69047 -15.90796 71.1
      vertex -53.69047 -53.69047 71.1
      vertex -53.69047 -53.69047 77.025
    endloop
  endfacet
  facet normal -1 0 0
    outer loop
      vertex -53.69047 -15.90796 71.1
      vertex -53.69047 -53.69047 77.025
      vertex -53.69047 -15.90796 77.025
    endloop
  endfacet
  facet normal 0 0 1
    outer loop
      vertex -53.69047 -15.90796 77.025
      vertex -15.90796 -15.90796 77.025
      vertex -15.90796 15.90796 77.025
    endloop
  endfacet
  facet normal 0 0 1
    outer loop
      vertex -53.69047 -15.90796 77.025
      vertex -15.90796 15.90796 77.025
      vertex -53.69047 15.90796 77.025
    endloop
  endfacet
  facet normal 0 0 -1
    outer loop
      vertex -53.69047 15.90796 71.1
      vertex -15.90796 15.90796 71.1
      vertex -15.90796 -15.90796 71.1
    endloop
  endfacet
  facet normal 0 0 -1
    outer loop
      vertex -53.69047 15.90796 71.1
      vertex -15.90796 -15.90796 71.1
      vertex -53.69047 -15.90796 71.1
    endloop
  endfacet
  facet normal 1 0 0
    outer loop
      vertex -15.90796 -15.90796 71.1
      vertex -15.90796 15.90796 71.1
      vertex -15.90796 15.90796 77.025
    endloop
  endfacet
  facet normal 1 0 0
    outer loop
      vertex -15.90796 -15.90796 71.1
      vertex -15.90796 15.90796 77.025
      vertex -15.90796 -15.90796 77.025
    endloop
  endfacet
  facet normal -1 0 0
    outer loop
      vertex -53.69047 15.90796 71.1
      vertex -53.69047 -15.90796 71.1
      vertex -53.69047 -15.90796 77.025
    endloop
  endfacet
  facet normal -1 0 0
    outer loop
      vertex -53.69047 15.90796 71.1
      vertex -53.69047 -15.90796 77.025
      vertex -53.69047 15.90796 77.025
    endloop
  endfacet
  facet normal 0 0 1
    outer loop
      vertex -53.69047 15.90796 77.025
      vertex -15.90796 15.90796 77.025
      vertex -15.90796 53.69047 77.025
    endloop
  endfacet
  facet normal 0 0 1
    outer loop
      vertex -53.69047 15.90796 77.025
      vertex -15.90796 53.69047 77.025
      vertex -53.69047 53.69047 77.025
    endloop
  endfacet
  facet normal 0 0 -1
    outer loop
      vertex -53.69047 53.69047 71.1
      vertex -15.90796 53.69047 71.1
      vertex -15.90796 15.90796 71.1
    endloop
  endfacet
  facet normal 0 0 -1
    outer loop
      vertex -53.69047 53.69047 71.1
      vertex -15.90796 15.90796 71.1
      vertex -53.69047 15.90796 71.1
    endloop
  endfacet
  facet normal 0 1 0
    outer loop
      vertex -15.90796 53.69047 71.1
      vertex -53.69047 53.69047 71.1
      vertex -53.69047 53.69047 77.025
    endloop
  endfacet
  facet normal 0 1 -0
    outer loop
      vertex -15.90796 53.69047 71.1
      vertex -53.69047 53.69047 77.025
      vertex -15.90796 53.69047 77.025
    endloop
  endfacet
  facet normal -1 0 0
    outer loop
      vertex -53.69047 53.69047 71.1
      vertex -53.69047 15.90796 71.1
      vertex -53.69047 15.90796 77.025
    endloop
  endfacet
  facet normal -1 0 0
    outer loop
      vertex -53.69047 53.69047 71.1
      vertex -53.69047 15.90796 77.025
      vertex -53.69047 53.69047 77.025
    endloop
  endfacet
  facet normal 0 0 1
    outer loop
      vertex -15.90796 -53.69047 77.025
      vertex 15.90796 -53.69047 77.025
      vertex 15.90796 -15.90796 77.025
    endloop
  endfacet
  facet normal 0 0 1
    outer loop
      vertex -15.90796 -53.69047 77.025
      vertex 15.90796 -15.90796 77.025
      vertex -15.90796 -15.90796 77.025
    endloop
  endfacet
  facet normal 0 0 -1
    outer loop
      vertex -15.90796 -15.90796 71.1
      vertex 15.90796 -15.90796 71.1
      vertex 15.90796 -53.69047 71.1
    endloop
  endfacet
  facet normal 0 0 -1
    outer loop
      vertex -15.90796 -15.90796 71.1
      vertex 15.90796 -53.69047 71.1
      vertex -15.90796 -53.69047 71.1
    endloop
  endfacet
  facet normal 0 -1 0
    outer loop
      vertex -15.90796 -53.69047 71.1
      vertex 15.90796 -53.69047 71.1
      vertex 15.90796 -53.69047 77.025
    endloop
  endfacet
  facet normal 0 -1 0
    outer loop
      vertex -15.90796 -53.69047 71.1
      vertex 15.90796 -53.69047 77.025
      vertex -15.90796 -53.69047 77.025
    endloop
  endfacet
  facet normal 0 1 0
    outer loop
      vertex 15.90796 -15.90796 71.1
      vertex -15.90796 -15.90796 71.1
      vertex -15.90796 -15.90796 77.025
    endloop
  endfacet
  facet normal 0 1 -0
    outer loop
      vertex 15.90796 -15.90796 71.1
      vertex -15.90796 -15.90796 77.025
      vertex 15.90796 -15.90796 77.025
    endloop
  endfacet
  facet normal 0 0 1
    outer loop
      vertex -15.90796 15.90796 77.025
      vertex 15.90796 15.90796 77.025
      vertex 15.90796 53.69047 77.025
    endloop
  endfacet
  facet normal 0 0 1
    outer loop
      vertex -15.90796 15.90796 77.025
      vertex 15.90796 53.69047 77.025
      vertex -15.90796 53.69047 77.025
    endloop
  endfacet
  facet normal 0 0 -1
    outer loop
      vertex -15.90796 53.69047 71.1
      vertex 15.90796 53.69047 71.1
      vertex 15.90796 15.90796 71.1
    endloop
  endfacet
  facet normal 0 0 -1
    outer loop
      vertex -15.90796 53.69047 71.1
      vertex 15.90796 15.90796 71.1
      vertex -15.90796 15.90796 71.1
    endloop
  endfacet
  facet normal 0 -1 0
    outer loop
      vertex -15.90796 15.90796 71.1
      vertex 15.90796 15.90796 71.1
      vertex 15.90796 15.90796 77.025
    endloop
  endfacet
  facet normal 0 -1 0
    outer loop
      vertex -15.90796 15.90796 71.1
      vertex 15.90796 15.90796 77.025
      vertex -15.90796 15.90796 77.025
    endloop
  endfacet
  facet normal 0 1 0
    outer loop
      vertex 15.90796 53.69047 71.1
      vertex -15.90796 53.69047 71.1
      vertex -15.90796 53.69047 77.025
    endloop
  endfacet
  facet normal 0 1 -0
    outer loop
      vertex 15.90796 53.69047 71.1
      vertex -15.90796 53.69047 77.025
      vertex 15.90796 53.69047 77.025
    endloop
  endfacet
  facet normal 0 0 1
    outer loop
      vertex 15.90796 -53.69047 77.025
      vertex 53.69047 -53.69047 77.025
      vertex 53.69047 -15.90796 77.025
    endloop
  endfacet
  facet normal 0 0 1
    outer loop
      vertex 15.90796 -53.69047 77.025
      vertex 53.69047 -15.90796 77.025
      vertex 15.90796 -15.90796 77.025
    endloop
  endfacet
  facet normal 0 0 -1
    outer loop
      vertex 15.90796 -15.90796 71.1
      vertex 53.69047 -15.90796 71.1
      vertex 53.69047 -53.69047 71.1
    endloop
  endfacet
  facet normal 0 0 -1
    outer loop
      vertex 15.90796 -15.90796 71.1
      vertex 53.69047 -53.69047 71.1
      vertex 15.90796 -53.69047 71.1
    endloop
  endfacet
  facet normal 0 -1 0
    outer loop
      vertex 15.90796 -53.69047 71.1
      vertex 53.69047 -53.69047 71.1
      vertex 53.69047 -53.69047 77.025
    endloop
  endfacet
  facet normal 0 -1 0
    outer loop
      vertex 15.90796 -53.69047 71.1
      vertex 53.69047 -53.69047 77.025
      vertex 15.90796 -53.69047 77.025
    endloop
  endfacet
  facet normal 1 0 0
    outer loop
      vertex 53.69047 -53.69047 71.1
      vertex 53.69047 -15.90796 71.1
      vertex 53.69047 -15.90796 77.025
    endloop
  endfacet
  facet normal 1 0 0
    outer loop
      vertex 53.69047 -53.69047 71.1
      vertex 53.69047 -15.90796 77.025
      vertex 53.69047 -53.69047 77.025
    endloop
  endfacet
  facet normal 0 0 1
    outer loop
      vertex 15.90796 -15.90796 77.025
      vertex 53.69047 -15.90796 77.025
      vertex 53.69047 15.90796 77.025
    endloop
  endfacet
  facet normal 0 0 1
    outer loop
      vertex 15.90796 -15.90796 77.025
      vertex 53.69047 15.90796 77.025
      vertex 15.90796 15.90796 77.025
    endloop
  endfacet
  facet normal 0 0 -1
    outer loop
      vertex 15.90796 15.90796 71.1
      vertex 53.69047 15.90796 71.1
      vertex 53.69047 -15.90796 71.1
    endloop
  endfacet
  facet normal 0 0 -1
    outer loop
      vertex 15.90796 15.90796 71.1
      vertex 53.69047 -15.90796 71.1
      vertex 15.90796 -15.90796 71.1
    endloop
  endfacet
  facet normal 1 0 0
    outer loop
      vertex 53.69047 -15.90796 71.1
      vertex 53.69047 15.90796 71.1
      vertex 53.69047 15.90796 77.025
    endloop
  endfacet
  facet normal 1 0 0
    outer loop
      vertex 53.69047 -15.90796 71.1
      vertex 53.69047 15.90796 77.025
      vertex 53.69047 -15.90796 77.025
    endloop
  endfacet
  facet normal -1 0 0
    outer loop
      vertex 15.90796 15.90796 71.1
      vertex 15.90796 -15.90796 71.1
      vertex 15.90796 -15.90796 77.025
    endloop
  endfacet
  facet normal -1 0 0
    outer loop
      vertex 15.90796 15.90796 71.1
      vertex 15.90796 -15.90796 77.025
      vertex 15.90796 15.90796 77.025
    endloop
  endfacet
  facet normal 0 0 1
    outer loop
      vertex 15.90796 15.90796 77.025
      vertex 53.69047 15.90796 77.025
      vertex 53.69047 53.69047 77.025
    endloop
  endfacet
  facet normal 0 0 1
    outer loop
      vertex 15.90796 15.90796 77.025
      vertex 53.69047 53.69047 77.025
      vertex 15.90796 53.69047 77.025
    endloop
  endfacet
  facet normal 0 0 -1
    outer loop
      vertex 15.90796 53.69047 71.1
      vertex 53.69047 53.69047 71.1
      vertex 53.69047 15.90796 71.1
    endloop
  endfacet
  facet normal 0 0 -1
    outer loop
      vertex 15.90796 53.69047 71.1
      vertex 53.69047 15.90796 71.1
      vertex 15.90796 15.90796 71.1
    endloop
  endfacet
  facet normal 1 0 0
    outer loop
      vertex 53.69047 15.90796 71.1
      vertex 53.69047 53.69047 71.1
      vertex 53.69047 53.69047 77.025
    endloop
  endfacet
  facet normal 1 0 0
    outer loop
      vertex 53.69047 15.90796 71.1
      vertex 53.69047 53.69047 77.025
      vertex 53.69047 15.90796 77.025
    endloop
  endfacet
  facet normal 0 1 0
    outer loop
      vertex 53.69047 53.69047 71.1
      vertex 15.90796 53.69047 71.1
      vertex 15.90796 53.69047 77.025
    endloop
  endfacet
  facet normal 0 1 -0
    outer loop
      vertex 53.69047 53.69047 71.1
      vertex 15.90796 53.69047 77.025
      vertex 53.69047 53.69047 77.025
    endloop
  endfacet
endsolid temporary_cut_stepped_mound_layer_13
