solid temporary_cut_stepped_mound_layer_06
  facet normal 0 0 -1
    outer loop
      vertex -86.63379 86.63379 29.625
      vertex 86.63379 86.63379 29.625
      vertex 86.63379 -86.63379 29.625
    endloop
  endfacet
  facet normal 0 0 -1
    outer loop
      vertex -86.63379 86.63379 29.625
      vertex 86.63379 -86.63379 29.625
      vertex -86.63379 -86.63379 29.625
    endloop
  endfacet
  facet normal 0 0 1
    outer loop
      vertex -86.63379 -86.63379 35.55
      vertex 86.63379 -86.63379 35.55
      vertex 86.63379 86.63379 35.55
    endloop
  endfacet
  facet normal 0 0 1
    outer loop
      vertex -86.63379 -86.63379 35.55
      vertex 86.63379 86.63379 35.55
      vertex -86.63379 86.63379 35.55
    endloop
  endfacet
  facet normal 0 -1 0
    outer loop
      vertex -86.63379 -86.63379 29.625
      vertex 86.63379 -86.63379 29.625
      vertex 86.63379 -86.63379 35.55
    endloop
  endfacet
  facet normal 0 -1 0
    outer loop
      vertex -86.63379 -86.63379 29.625
      vertex 86.63379 -86.63379 35.55
      vertex -86.63379 -86.63379 35.55
    endloop
  endfacet
  facet normal 1 0 0
    outer loop
      vertex 86.63379 -86.63379 29.625
      vertex 86.63379 86.63379 29.625
      vertex 86.63379 86.63379 35.55
    endloop
  endfacet
  facet normal 1 0 0
    outer loop
      vertex 86.63379 -86.63379 29.625
      vertex 86.63379 86.63379 35.55
      vertex 86.63379 -86.63379 35.55
    endloop
  endfacet
  facet normal 0 1 0
    outer loop
      vertex 86.63379 86.63379 29.625
      vertex -86.63379 86.63379 29.625
      vertex -86.63379 86.63379 35.55
    endloop
  endfacet
  facet normal 0 1 -0
    outer loop
      vertex 86.63379 86.63379 29.625
      vertex -86.63379 86.63379 35.55
      vertex 86.63379 86.63379 35.55
    endloop
  endfacet
  facet normal -1 0 0
    outer loop
      vertex -86.63379 86.63379 29.625
      vertex -86.63379 -86.63379 29.625
      vertex -86.63379 -86.63379 35.55
    endloop
  endfacet
  facet normal -1 0 0
    outer loop
      vertex -86.63379 86.63379 29.625
      vertex -86.63379 -86.63379 35.55
      vertex -86.63379 86.63379 35.55
    endloop
  endfacet
endsolid temporary_cut_stepped_mound_layer_06
