solid temporary_cut_stepped_mound_layer_01
  facet normal 0 0 -1
    outer loop
      vertex -109.9147 109.9147 0
      vertex 109.9147 109.9147 0
      vertex 109.9147 -109.9147 0
    endloop
  endfacet
  facet normal 0 0 -1
    outer loop
      vertex -109.9147 109.9147 0
      vertex 109.9147 -109.9147 0
      vertex -109.9147 -109.9147 0
    endloop
  endfacet
  facet normal 0 0 1
    outer loop
      vertex -109.9147 -109.9147 5.925
      vertex 109.9147 -109.9147 5.925
      vertex 109.9147 109.9147 5.925
    endloop
  endfacet
  facet normal 0 0 1
    outer loop
      vertex -109.9147 -109.9147 5.925
      vertex 109.9147 109.9147 5.925
      vertex -109.9147 109.9147 5.925
    endloop
  endfacet
  facet normal 0 -1 0
    outer loop
      vertex -109.9147 -109.9147 0
      vertex 109.9147 -109.9147 0
      vertex 109.9147 -109.9147 5.925
    endloop
  endfacet
  facet normal 0 -1 0
    outer loop
      vertex -109.9147 -109.9147 0
      vertex 109.9147 -109.9147 5.925
      vertex -109.9147 -109.9147 5.925
    endloop
  endfacet
  facet normal 1 0 0
    outer loop
      vertex 109.9147 -109.9147 0
      vertex 109.9147 109.9147 0
      vertex 109.9147 109.9147 5.925
    endloop
  endfacet
  facet normal 1 0 0
    outer loop
      vertex 109.9147 -109.9147 0
      vertex 109.9147 109.9147 5.925
      vertex 109.9147 -109.9147 5.925
    endloop
  endfacet
  facet normal 0 1 0
    outer loop
      vertex 109.9147 109.9147 0
      vertex -109.9147 109.9147 0
      vertex -109.9147 109.9147 5.925
    endloop
  endfacet
  facet normal 0 1 -0
    outer loop
      vertex 109.9147 109.9147 0
      vertex -109.9147 109.9147 5.925
      vertex 109.9147 109.9147 5.925
    endloop
  endfacet
  facet normal -1 0 0
    outer loop
      vertex -109.9147 109.9147 0
      vertex -109.9147 -109.9147 0
      vertex -109.9147 -109.9147 5.925
    endloop
  endfacet
  facet normal -1 0 0
    outer loop
      vertex -109.9147 109.9147 0
      vertex -109.9147 -109.9147 5.925
      vertex -109.9147 109.9147 5.925
    endloop
  endfacet
endsolid temporary_cut_stepped_mound_layer_01
