solid temporary_cut_stepped_mound_layer_02
  facet normal 0 0 -1
    outer loop
      vertex -105.2585 105.2585 5.925
      vertex 105.2585 105.2585 5.925
      vertex 105.2585 -105.2585 5.925
    endloop
  endfacet
  facet normal 0 0 -1
    outer loop
      vertex -105.2585 105.2585 5.925
      vertex 105.2585 -105.2585 5.925
      vertex -105.2585 -105.2585 5.925
    endloop
  endfacet
  facet normal 0 0 1
    outer loop
      vertex -105.2585 -105.2585 11.85
      vertex 105.2585 -105.2585 11.85
      vertex 105.2585 105.2585 11.85
    endloop
  endfacet
  facet normal 0 0 1
    outer loop
      vertex -105.2585 -105.2585 11.85
      vertex 105.2585 105.2585 11.85
      vertex -105.2585 105.2585 11.85
    endloop
  endfacet
  facet normal 0 -1 0
    outer loop
      vertex -105.2585 -105.2585 5.925
      vertex 105.2585 -105.2585 5.925
      vertex 105.2585 -105.2585 11.85
    endloop
  endfacet
  facet normal 0 -1 0
    outer loop
      vertex -105.2585 -105.2585 5.925
      vertex 105.2585 -105.2585 11.85
      vertex -105.2585 -105.2585 11.85
    endloop
  endfacet
  facet normal 1 0 0
    outer loop
      vertex 105.2585 -105.2585 5.925
      vertex 105.2585 105.2585 5.925
      vertex 105.2585 105.2585 11.85
    endloop
  endfacet
  facet normal 1 0 0
    outer loop
      vertex 105.2585 -105.2585 5.925
      vertex 105.2585 105.2585 11.85
      vertex 105.2585 -105.2585 11.85
    endloop
  endfacet
  facet normal 0 1 0
    outer loop
      vertex 105.2585 105.2585 5.925
      vertex -105.2585 105.2585 5.925
      vertex -105.2585 105.2585 11.85
    endloop
  endfacet
  facet normal 0 1 -0
    outer loop
      vertex 105.2585 105.2585 5.925
      vertex -105.2585 105.2585 11.85
      vertex 105.2585 105.2585 11.85
    endloop
  endfacet
  facet normal -1 0 0
    outer loop
      vertex -105.2585 105.2585 5.925
      vertex -105.2585 -105.2585 5.925
      vertex -105.2585 -105.2585 11.85
    endloop
  endfacet
  facet normal -1 0 0
    outer loop
      vertex -105.2585 105.2585 5.925
      vertex -105.2585 -105.2585 11.85
      vertex -105.2585 105.2585 11.85
    endloop
  endfacet
endsolid temporary_cut_stepped_mound_layer_02
