solid temporary_cut_stepped_mound_layer_11
  facet normal 0 0 1
    outer loop
      vertex -63.00285 -63.00285 65.175
      vertex -21.98163 -63.00285 65.175
      vertex -21.98163 -21.98163 65.175
    endloop
  endfacet
  facet normal 0 0 1
    outer loop
      vertex -63.00285 -63.00285 65.175
      vertex -21.98163 -21.98163 65.175
      vertex -63.00285 -21.98163 65.175
    endloop
  endfacet
  facet normal 0 0 -1
    outer loop
      vertex -63.00285 -21.98163 59.25
      vertex -21.98163 -21.98163 59.25
      vertex -21.98163 -63.00285 59.25
    endloop
  endfacet
  facet normal 0 0 -1
    outer loop
      vertex -63.00285 -21.98163 59.25
      vertex -21.98163 -63.00285 59.25
      vertex -63.00285 -63.00285 59.25
    endloop
  endfacet
  facet normal 0 -1 0
    outer loop
      vertex -63.00285 -63.00285 59.25
      vertex -21.98163 -63.00285 59.25
      vertex -21.98163 -63.00285 65.175
    endloop
  endfacet
  facet normal 0 -1 0
    outer loop
      vertex -63.00285 -63.00285 59.25
      vertex -21.98163 -63.00285 65.175
      vertex -63.00285 -63.00285 65.175
    endloop
  endfacet
  facet normal -1 0 0
    outer loop
      vertex -63.00285 -21.98163 59.25
      vertex -63.00285 -63.00285 59.25
      vertex -63.00285 -63.00285 65.175
    endloop
  endfacet
  facet normal -1 0 0
    outer loop
      vertex -63.00285 -21.98163 59.25
      vertex -63.00285 -63.00285 65.175
      vertex -63.00285 -21.98163 65.175
    endloop
  endfacet
  facet normal 0 0 1
    outer loop
      vertex -63.00285 -21.98163 65.175
      vertex -21.98163 -21.98163 65.175
      vertex -21.98163 21.98163 65.175
    endloop
  endfacet
  facet normal 0 0 1
    outer loop
      vertex -63.00285 -21.98163 65.175
      vertex -21.98163 21.98163 65.175
      vertex -63.00285 21.98163 65.175
    endloop
  endfacet
  facet normal 0 0 -1
    outer loop
      vertex -63.00285 21.98163 59.25
      vertex -21.98163 21.98163 59.25
      vertex -21.98163 -21.98163 59.25
    endloop
  endfacet
  facet normal 0 0 -1
    outer loop
      vertex -63.00285 21.98163 59.25
      vertex -21.98163 -21.98163 59.25
      vertex -63.00285 -21.98163 59.25
    endloop
  endfacet
  facet normal 1 0 0
    outer loop
      vertex -21.98163 -21.98163 59.25
      vertex -21.98163 21.98163 59.25
      vertex -21.98163 21.98163 65.175
    endloop
  endfacet
  facet normal 1 0 0
    outer loop
      vertex -21.98163 -21.98163 59.25
      vertex -21.98163 21.98163 65.175
      vertex -21.98163 -21.98163 65.175
    endloop
  endfacet
  facet normal -1 0 0
    outer loop
      vertex -63.00285 21.98163 59.25
      vertex -63.00285 -21.98163 59.25
      vertex -63.00285 -21.98163 65.175
    endloop
  endfacet
  facet normal -1 0 0
    outer loop
      vertex -63.00285 21.98163 59.25
      vertex -63.00285 -21.98163 65.175
      vertex -63.00285 21.98163 65.175
    endloop
  endfacet
  facet normal 0 0 1
    outer loop
      vertex -63.00285 21.98163 65.175
      vertex -21.98163 21.98163 65.175
      vertex -21.98163 63.00285 65.175
    endloop
  endfacet
  facet normal 0 0 1
    outer loop
      vertex -63.00285 21.98163 65.175
      vertex -21.98163 63.00285 65.175
      vertex -63.00285 63.00285 65.175
    endloop
  endfacet
  facet normal 0 0 -1
    outer loop
      vertex -63.00285 63.00285 59.25
      vertex -21.98163 63.00285 59.25
      vertex -21.98163 21.98163 59.25
    endloop
  endfacet
  facet normal 0 0 -1
    outer loop
      vertex -63.00285 63.00285 59.25
      vertex -21.98163 21.98163 59.25
      vertex -63.00285 21.98163 59.25
    endloop
  endfacet
  facet normal 0 1 0
    outer loop
      vertex -21.98163 63.00285 59.25
      vertex -63.00285 63.00285 59.25
      vertex -63.00285 63.00285 65.175
    endloop
  endfacet
  facet normal 0 1 -0
    outer loop
      vertex -21.98163 63.00285 59.25
      vertex -63.00285 63.00285 65.175
      vertex -21.98163 63.00285 65.175
    endloop
  endfacet
  facet normal -1 0 0
    outer loop
      vertex -63.00285 63.00285 59.25
      vertex -63.00285 21.98163 59.25
      vertex -63.00285 21.98163 65.175
    endloop
  endfacet
  facet normal -1 0 0
    outer loop
      vertex -63.00285 63.00285 59.25
      vertex -63.00285 21.98163 65.175
      vertex -63.00285 63.00285 65.175
    endloop
  endfacet
  facet normal 0 0 1
    outer loop
      vertex -21.98163 -63.00285 65.175
      vertex 21.98163 -63.00285 65.175
      vertex 21.98163 -21.98163 65.175
    endloop
  endfacet
  facet normal 0 0 1
    outer loop
      vertex -21.98163 -63.00285 65.175
      vertex 21.98163 -21.98163 65.175
      vertex -21.98163 -21.98163 65.175
    endloop
  endfacet
  facet normal 0 0 -1
    outer loop
      vertex -21.98163 -21.98163 59.25
      vertex 21.98163 -21.98163 59.25
      vertex 21.98163 -63.00285 59.25
    endloop
  endfacet
  facet normal 0 0 -1
    outer loop
      vertex -21.98163 -21.98163 59.25
      vertex 21.98163 -63.00285 59.25
      vertex -21.98163 -63.00285 59.25
    endloop
  endfacet
  facet normal 0 -1 0
    outer loop
      vertex -21.98163 -63.00285 59.25
      vertex 21.98163 -63.00285 59.25
      vertex 21.98163 -63.00285 65.175
    endloop
  endfacet
  facet normal 0 -1 0
    outer loop
      vertex -21.98163 -63.00285 59.25
      vertex 21.98163 -63.00285 65.175
      vertex -21.98163 -63.00285 65.175
    endloop
  endfacet
  facet normal 0 1 0
    outer loop
      vertex 21.98163 -21.98163 59.25
      vertex -21.98163 -21.98163 59.25
      vertex -21.98163 -21.98163 65.175
    endloop
  endfacet
  facet normal 0 1 -0
    outer loop
      vertex 21.98163 -21.98163 59.25
      vertex -21.98163 -21.98163 65.175
      vertex 21.98163 -21.98163 65.175
    endloop
  endfacet
  facet normal 0 0 1
    outer loop
      vertex -21.98163 21.98163 65.175
      vertex 21.98163 21.98163 65.175
      vertex 21.98163 63.00285 65.175
    endloop
  endfacet
  facet normal 0 0 1
    outer loop
      vertex -21.98163 21.98163 65.175
      vertex 21.98163 63.00285 65.175
      vertex -21.98163 63.00285 65.175
    endloop
  endfacet
  facet normal 0 0 -1
    outer loop
      vertex -21.98163 63.00285 59.25
      vertex 21.98163 63.00285 59.25
      vertex 21.98163 21.98163 59.25
    endloop
  endfacet
  facet normal 0 0 -1
    outer loop
      vertex -21.98163 63.00285 59.25
      vertex 21.98163 21.98163 59.25
      vertex -21.98163 21.98163 59.25
    endloop
  endfacet
  facet normal 0 -1 0
    outer loop
      vertex -21.98163 21.98163 59.25
      vertex 21.98163 21.98163 59.25
      vertex 21.98163 21.98163 65.175
    endloop
  endfacet
  facet normal 0 -1 0
    outer loop
      vertex -21.98163 21.98163 59.25
      vertex 21.98163 21.98163 65.175
      vertex -21.98163 21.98163 65.175
    endloop
  endfacet
  facet normal 0 1 0
    outer loop
      vertex 21.98163 63.00285 59.25
      vertex -21.98163 63.00285 59.25
      vertex -21.98163 63.00285 65.175
    endloop
  endfacet
  facet normal 0 1 -0
    outer loop
      vertex 21.98163 63.00285 59.25
      vertex -21.98163 63.00285 65.175
      vertex 21.98163 63.00285 65.175
    endloop
  endfacet
  facet normal 0 0 1
    outer loop
      vertex 21.98163 -63.00285 65.175
      vertex 63.00285 -63.00285 65.175
      vertex 63.00285 -21.98163 65.175
    endloop
  endfacet
  facet normal 0 0 1
    outer loop
      vertex 21.98163 -63.00285 65.175
      vertex 63.00285 -21.98163 65.175
      vertex 21.98163 -21.98163 65.175
    endloop
  endfacet
  facet normal 0 0 -1
    outer loop
      vertex 21.98163 -21.98163 59.25
      vertex 63.00285 -21.98163 59.25
      vertex 63.00285 -63.00285 59.25
    endloop
  endfacet
  facet normal 0 0 -1
    outer loop
      vertex 21.98163 -21.98163 59.25
      vertex 63.00285 -63.00285 59.25
      vertex 21.98163 -63.00285 59.25
    endloop
  endfacet
  facet normal 0 -1 0
    outer loop
      vertex 21.98163 -63.00285 59.25
      vertex 63.00285 -63.00285 59.25
      vertex 63.00285 -63.00285 65.175
    endloop
  endfacet
  facet normal 0 -1 0
    outer loop
      vertex 21.98163 -63.00285 59.25
      vertex 63.00285 -63.00285 65.175
      vertex 21.98163 -63.00285 65.175
    endloop
  endfacet
  facet normal 1 0 0
    outer loop
      vertex 63.00285 -63.00285 59.25
      vertex 63.00285 -21.98163 59.25
      vertex 63.00285 -21.98163 65.175
    endloop
  endfacet
  facet normal 1 0 0
    outer loop
      vertex 63.00285 -63.00285 59.25
      vertex 63.00285 -21.98163 65.175
      vertex 63.00285 -63.00285 65.175
    endloop
  endfacet
  facet normal 0 0 1
    outer loop
      vertex 21.98163 -21.98163 65.175
      vertex 63.00285 -21.98163 65.175
      vertex 63.00285 21.98163 65.175
    endloop
  endfacet
  facet normal 0 0 1
    outer loop
      vertex 21.98163 -21.98163 65.175
      vertex 63.00285 21.98163 65.175
      vertex 21.98163 21.98163 65.175
    endloop
  endfacet
  facet normal 0 0 -1
    outer loop
      vertex 21.98163 21.98163 59.25
      vertex 63.00285 21.98163 59.25
      vertex 63.00285 -21.98163 59.25
    endloop
  endfacet
  facet normal 0 0 -1
    outer loop
      vertex 21.98163 21.98163 59.25
      vertex 63.00285 -21.98163 59.25
      vertex 21.98163 -21.98163 59.25
    endloop
  endfacet
  facet normal 1 0 0
    outer loop
      vertex 63.00285 -21.98163 59.25
      vertex 63.00285 21.98163 59.25
      vertex 63.00285 21.98163 65.175
    endloop
  endfacet
  facet normal 1 0 0
    outer loop
      vertex 63.00285 -21.98163 59.25
      vertex 63.00285 21.98163 65.175
      vertex 63.00285 -21.98163 65.175
    endloop
  endfacet
  facet normal -1 0 0
    outer loop
      vertex 21.98163 21.98163 59.25
      vertex 21.98163 -21.98163 59.25
      vertex 21.98163 -21.98163 65.175
    endloop
  endfacet
  facet normal -1 0 0
    outer loop
      vertex 21.98163 21.98163 59.25
      vertex 21.98163 -21.98163 65.175
      vertex 21.98163 21.98163 65.175
    endloop
  endfacet
  facet normal 0 0 1
    outer loop
      vertex 21.98163 21.98163 65.175
      vertex 63.00285 21.98163 65.175
      vertex 63.00285 63.00285 65.175
    endloop
  endfacet
  facet normal 0 0 1
    outer loop
      vertex 21.98163 21.98163 65.175
      vertex 63.00285 63.00285 65.175
      vertex 21.98163 63.00285 65.175
    endloop
  endfacet
  facet normal 0 0 -1
    outer loop
      vertex 21.98163 63.00285 59.25
      vertex 63.00285 63.00285 59.25
      vertex 63.00285 21.98163 59.25
    endloop
  endfacet
  facet normal 0 0 -1
    outer loop
      vertex 21.98163 63.00285 59.25
      vertex 63.00285 21.98163 59.25
      vertex 21.98163 21.98163 59.25
    endloop
  endfacet
  facet normal 1 0 0
    outer loop
      vertex 63.00285 21.98163 59.25
      vertex 63.00285 63.00285 59.25
      vertex 63.00285 63.00285 65.175
    endloop
  endfacet
  facet normal 1 0 0
    outer loop
      vertex 63.00285 21.98163 59.25
      vertex 63.00285 63.00285 65.175
      vertex 63.00285 21.98163 65.175
    endloop
  endfacet
  facet normal 0 1 0
    outer loop
      vertex 63.00285 63.00285 59.25
      vertex 21.98163 63.00285 59.25
      vertex 21.98163 63.00285 65.175
    endloop
  endfacet
  facet normal 0 1 -0
    outer loop
      vertex 63.00285 63.00285 59.25
      vertex 21.98163 63.00285 65.175
      vertex 63.00285 63.00285 65.175
    endloop
  endfacet
endsolid temporary_cut_stepped_mound_layer_11
