solid temporary_switchback_ramp_layer_08
  facet normal 0 0 -1
    outer loop
      vertex 2 201.9552 0
      vertex 201.9552 201.9552 0
      vertex 201.9552 186.2833 0
    endloop
  endfacet
  facet normal 0 0 -1
    outer loop
      vertex 2 201.9552 0
      vertex 201.9552 186.2833 0
      vertex 2 186.2833 0
    endloop
  endfacet
  facet normal 0 0 1
    outer loop
      vertex 2 186.2833 5.925
      vertex 201.9552 186.2833 5.925
      vertex 201.9552 201.9552 5.925
    endloop
  endfacet
  facet normal 0 0 1
    outer loop
      vertex 2 186.2833 5.925
      vertex 201.9552 201.9552 5.925
      vertex 2 201.9552 5.925
    endloop
  endfacet
  facet normal 0 -1 0
    outer loop
      vertex 2 186.2833 0
      vertex 201.9552 186.2833 0
      vertex 201.9552 186.2833 5.925
    endloop
  endfacet
  facet normal 0 -1 0
    outer loop
      vertex 2 186.2833 0
      vertex 201.9552 186.2833 5.925
      vertex 2 186.2833 5.925
    endloop
  endfacet
  facet normal 1 0 0
    outer loop
      vertex 201.9552 186.2833 0
      vertex 201.9552 201.9552 0
      vertex 201.9552 201.9552 5.925
    endloop
  endfacet
  facet normal 1 0 0
    outer loop
      vertex 201.9552 186.2833 0
      vertex 201.9552 201.9552 5.925
      vertex 201.9552 186.2833 5.925
    endloop
  endfacet
  facet normal 0 1 0
    outer loop
      vertex 201.9552 201.9552 0
      vertex 2 201.9552 0
      vertex 2 201.9552 5.925
    endloop
  endfacet
  facet normal 0 1 -0
    outer loop
      vertex 201.9552 201.9552 0
      vertex 2 201.9552 5.925
      vertex 201.9552 201.9552 5.925
    endloop
  endfacet
  facet normal -1 0 0
    outer loop
      vertex 2 201.9552 0
      vertex 2 186.2833 0
      vertex 2 186.2833 5.925
    endloop
  endfacet
  facet normal -1 0 0
    outer loop
      vertex 2 201.9552 0
      vertex 2 186.2833 5.925
      vertex 2 201.9552 5.925
    endloop
  endfacet
  facet normal 0 -0 -1
    outer loop
      vertex 201.9552 201.9552 0
      vertex 201.9552 2 0
      vertex 186.2833 2 0
    endloop
  endfacet
  facet normal -0 0 -1
    outer loop
      vertex 201.9552 201.9552 0
      vertex 186.2833 2 0
      vertex 186.2833 201.9552 0
    endloop
  endfacet
  facet normal 0 0 1
    outer loop
      vertex 186.2833 201.9552 5.925
      vertex 186.2833 2 5.925
      vertex 201.9552 2 5.925
    endloop
  endfacet
  facet normal -0 0 1
    outer loop
      vertex 186.2833 201.9552 5.925
      vertex 201.9552 2 5.925
      vertex 201.9552 201.9552 5.925
    endloop
  endfacet
  facet normal -1 0 0
    outer loop
      vertex 186.2833 201.9552 0
      vertex 186.2833 2 0
      vertex 186.2833 2 5.925
    endloop
  endfacet
  facet normal -1 0 0
    outer loop
      vertex 186.2833 201.9552 0
      vertex 186.2833 2 5.925
      vertex 186.2833 201.9552 5.925
    endloop
  endfacet
  facet normal 0 -1 0
    outer loop
      vertex 186.2833 2 0
      vertex 201.9552 2 0
      vertex 201.9552 2 5.925
    endloop
  endfacet
  facet normal 0 -1 0
    outer loop
      vertex 186.2833 2 0
      vertex 201.9552 2 5.925
      vertex 186.2833 2 5.925
    endloop
  endfacet
  facet normal 1 0 0
    outer loop
      vertex 201.9552 2 0
      vertex 201.9552 201.9552 0
      vertex 201.9552 201.9552 5.925
    endloop
  endfacet
  facet normal 1 0 0
    outer loop
      vertex 201.9552 2 0
      vertex 201.9552 201.9552 5.925
      vertex 201.9552 2 5.925
    endloop
  endfacet
  facet normal 0 1 0
    outer loop
      vertex 201.9552 201.9552 0
      vertex 186.2833 201.9552 0
      vertex 186.2833 201.9552 5.925
    endloop
  endfacet
  facet normal 0 1 -0
    outer loop
      vertex 201.9552 201.9552 0
      vertex 186.2833 201.9552 5.925
      vertex 201.9552 201.9552 5.925
    endloop
  endfacet
  facet normal 0 0 -1
    outer loop
      vertex 201.9552 2 0
      vertex 2 2 0
      vertex 2 17.67191 0
    endloop
  endfacet
  facet normal 0 0 -1
    outer loop
      vertex 201.9552 2 0
      vertex 2 17.67191 0
      vertex 201.9552 17.67191 0
    endloop
  endfacet
  facet normal 0 0 1
    outer loop
      vertex 201.9552 17.67191 5.925
      vertex 2 17.67191 5.925
      vertex 2 2 5.925
    endloop
  endfacet
  facet normal 0 0 1
    outer loop
      vertex 201.9552 17.67191 5.925
      vertex 2 2 5.925
      vertex 201.9552 2 5.925
    endloop
  endfacet
  facet normal 0 1 0
    outer loop
      vertex 201.9552 17.67191 0
      vertex 2 17.67191 0
      vertex 2 17.67191 5.925
    endloop
  endfacet
  facet normal 0 1 -0
    outer loop
      vertex 201.9552 17.67191 0
      vertex 2 17.67191 5.925
      vertex 201.9552 17.67191 5.925
    endloop
  endfacet
  facet normal -1 0 0
    outer loop
      vertex 2 17.67191 0
      vertex 2 2 0
      vertex 2 2 5.925
    endloop
  endfacet
  facet normal -1 0 0
    outer loop
      vertex 2 17.67191 0
      vertex 2 2 5.925
      vertex 2 17.67191 5.925
    endloop
  endfacet
  facet normal 0 -1 0
    outer loop
      vertex 2 2 0
      vertex 201.9552 2 0
      vertex 201.9552 2 5.925
    endloop
  endfacet
  facet normal 0 -1 0
    outer loop
      vertex 2 2 0
      vertex 201.9552 2 5.925
      vertex 2 2 5.925
    endloop
  endfacet
  facet normal 1 0 0
    outer loop
      vertex 201.9552 2 0
      vertex 201.9552 17.67191 0
      vertex 201.9552 17.67191 5.925
    endloop
  endfacet
  facet normal 1 0 0
    outer loop
      vertex 201.9552 2 0
      vertex 201.9552 17.67191 5.925
      vertex 201.9552 2 5.925
    endloop
  endfacet
  facet normal 0 0 -1
    outer loop
      vertex 2 2 0
      vertex 2 201.9552 0
      vertex 17.67191 201.9552 0
    endloop
  endfacet
  facet normal 0 0 -1
    outer loop
      vertex 2 2 0
      vertex 17.67191 201.9552 0
      vertex 17.67191 2 0
    endloop
  endfacet
  facet normal 0 -0 1
    outer loop
      vertex 17.67191 2 5.925
      vertex 17.67191 201.9552 5.925
      vertex 2 201.9552 5.925
    endloop
  endfacet
  facet normal 0 0 1
    outer loop
      vertex 17.67191 2 5.925
      vertex 2 201.9552 5.925
      vertex 2 2 5.925
    endloop
  endfacet
  facet normal 1 0 0
    outer loop
      vertex 17.67191 2 0
      vertex 17.67191 201.9552 0
      vertex 17.67191 201.9552 5.925
    endloop
  endfacet
  facet normal 1 0 0
    outer loop
      vertex 17.67191 2 0
      vertex 17.67191 201.9552 5.925
      vertex 17.67191 2 5.925
    endloop
  endfacet
  facet normal 0 1 0
    outer loop
      vertex 17.67191 201.9552 0
      vertex 2 201.9552 0
      vertex 2 201.9552 5.925
    endloop
  endfacet
  facet normal 0 1 -0
    outer loop
      vertex 17.67191 201.9552 0
      vertex 2 201.9552 5.925
      vertex 17.67191 201.9552 5.925
    endloop
  endfacet
  facet normal -1 0 0
    outer loop
      vertex 2 201.9552 0
      vertex 2 2 0
      vertex 2 2 5.925
    endloop
  endfacet
  facet normal -1 0 0
    outer loop
      vertex 2 201.9552 0
      vertex 2 2 5.925
      vertex 2 201.9552 5.925
    endloop
  endfacet
  facet normal 0 -1 0
    outer loop
      vertex 2 2 0
      vertex 17.67191 2 0
      vertex 17.67191 2 5.925
    endloop
  endfacet
  facet normal 0 -1 0
    outer loop
      vertex 2 2 0
      vertex 17.67191 2 5.925
      vertex 2 2 5.925
    endloop
  endfacet
  facet normal 0 0 1
    outer loop
      vertex 183.9552 201.9552 5.925
      vertex 183.9552 183.9552 5.925
      vertex 201.9552 183.9552 5.925
    endloop
  endfacet
  facet normal 0 0 -1
    outer loop
      vertex 201.9552 183.9552 0
      vertex 183.9552 183.9552 0
      vertex 183.9552 201.9552 0
    endloop
  endfacet
  facet normal 0 -0 1
    outer loop
      vertex 201.9552 183.9552 5.925
      vertex 201.9552 195.6552 5.925
      vertex 195.6552 195.6552 5.925
    endloop
  endfacet
  facet normal 0 0 -1
    outer loop
      vertex 195.6552 195.6552 0
      vertex 201.9552 195.6552 0
      vertex 201.9552 183.9552 0
    endloop
  endfacet
  facet normal 0 0 1
    outer loop
      vertex 183.9552 201.9552 5.925
      vertex 201.9552 183.9552 5.925
      vertex 195.6552 195.6552 5.925
    endloop
  endfacet
  facet normal -0 -0 -1
    outer loop
      vertex 195.6552 195.6552 0
      vertex 201.9552 183.9552 0
      vertex 183.9552 201.9552 0
    endloop
  endfacet
  facet normal 0 -0 1
    outer loop
      vertex 195.6552 195.6552 5.925
      vertex 195.6552 201.9552 5.925
      vertex 183.9552 201.9552 5.925
    endloop
  endfacet
  facet normal 0 0 -1
    outer loop
      vertex 183.9552 201.9552 0
      vertex 195.6552 201.9552 0
      vertex 195.6552 195.6552 0
    endloop
  endfacet
  facet normal 0 -1 0
    outer loop
      vertex 183.9552 183.9552 0
      vertex 201.9552 183.9552 0
      vertex 201.9552 183.9552 5.925
    endloop
  endfacet
  facet normal 0 -1 0
    outer loop
      vertex 183.9552 183.9552 0
      vertex 201.9552 183.9552 5.925
      vertex 183.9552 183.9552 5.925
    endloop
  endfacet
  facet normal 1 0 0
    outer loop
      vertex 201.9552 183.9552 0
      vertex 201.9552 195.6552 0
      vertex 201.9552 195.6552 5.925
    endloop
  endfacet
  facet normal 1 0 0
    outer loop
      vertex 201.9552 183.9552 0
      vertex 201.9552 195.6552 5.925
      vertex 201.9552 183.9552 5.925
    endloop
  endfacet
  facet normal 0 1 0
    outer loop
      vertex 201.9552 195.6552 0
      vertex 195.6552 195.6552 0
      vertex 195.6552 195.6552 5.925
    endloop
  endfacet
  facet normal 0 1 -0
    outer loop
      vertex 201.9552 195.6552 0
      vertex 195.6552 195.6552 5.925
      vertex 201.9552 195.6552 5.925
    endloop
  endfacet
  facet normal 1 0 0
    outer loop
      vertex 195.6552 195.6552 0
      vertex 195.6552 201.9552 0
      vertex 195.6552 201.9552 5.925
    endloop
  endfacet
  facet normal 1 0 0
    outer loop
      vertex 195.6552 195.6552 0
      vertex 195.6552 201.9552 5.925
      vertex 195.6552 195.6552 5.925
    endloop
  endfacet
  facet normal 0 1 0
    outer loop
      vertex 195.6552 201.9552 0
      vertex 183.9552 201.9552 0
      vertex 183.9552 201.9552 5.925
    endloop
  endfacet
  facet normal 0 1 -0
    outer loop
      vertex 195.6552 201.9552 0
      vertex 183.9552 201.9552 5.925
      vertex 195.6552 201.9552 5.925
    endloop
  endfacet
  facet normal -1 0 0
    outer loop
      vertex 183.9552 201.9552 0
      vertex 183.9552 183.9552 0
      vertex 183.9552 183.9552 5.925
    endloop
  endfacet
  facet normal -1 0 0
    outer loop
      vertex 183.9552 201.9552 0
      vertex 183.9552 183.9552 5.925
      vertex 183.9552 201.9552 5.925
    endloop
  endfacet
  facet normal 0 0 1
    outer loop
      vertex 183.9552 20 5.925
      vertex 183.9552 2 5.925
      vertex 195.6552 2 5.925
    endloop
  endfacet
  facet normal 0 0 -1
    outer loop
      vertex 195.6552 2 0
      vertex 183.9552 2 0
      vertex 183.9552 20 0
    endloop
  endfacet
  facet normal 0 0 1
    outer loop
      vertex 183.9552 20 5.925
      vertex 195.6552 2 5.925
      vertex 195.6552 8.3 5.925
    endloop
  endfacet
  facet normal -0 -0 -1
    outer loop
      vertex 195.6552 8.3 0
      vertex 195.6552 2 0
      vertex 183.9552 20 0
    endloop
  endfacet
  facet normal 0 0 1
    outer loop
      vertex 183.9552 20 5.925
      vertex 195.6552 8.3 5.925
      vertex 201.9552 8.3 5.925
    endloop
  endfacet
  facet normal 0 0 -1
    outer loop
      vertex 201.9552 8.3 0
      vertex 195.6552 8.3 0
      vertex 183.9552 20 0
    endloop
  endfacet
  facet normal 0 -0 1
    outer loop
      vertex 201.9552 8.3 5.925
      vertex 201.9552 20 5.925
      vertex 183.9552 20 5.925
    endloop
  endfacet
  facet normal 0 0 -1
    outer loop
      vertex 183.9552 20 0
      vertex 201.9552 20 0
      vertex 201.9552 8.3 0
    endloop
  endfacet
  facet normal 0 -1 0
    outer loop
      vertex 183.9552 2 0
      vertex 195.6552 2 0
      vertex 195.6552 2 5.925
    endloop
  endfacet
  facet normal 0 -1 0
    outer loop
      vertex 183.9552 2 0
      vertex 195.6552 2 5.925
      vertex 183.9552 2 5.925
    endloop
  endfacet
  facet normal 1 0 0
    outer loop
      vertex 195.6552 2 0
      vertex 195.6552 8.3 0
      vertex 195.6552 8.3 5.925
    endloop
  endfacet
  facet normal 1 0 0
    outer loop
      vertex 195.6552 2 0
      vertex 195.6552 8.3 5.925
      vertex 195.6552 2 5.925
    endloop
  endfacet
  facet normal 0 -1 0
    outer loop
      vertex 195.6552 8.3 0
      vertex 201.9552 8.3 0
      vertex 201.9552 8.3 5.925
    endloop
  endfacet
  facet normal 0 -1 0
    outer loop
      vertex 195.6552 8.3 0
      vertex 201.9552 8.3 5.925
      vertex 195.6552 8.3 5.925
    endloop
  endfacet
  facet normal 1 0 0
    outer loop
      vertex 201.9552 8.3 0
      vertex 201.9552 20 0
      vertex 201.9552 20 5.925
    endloop
  endfacet
  facet normal 1 0 0
    outer loop
      vertex 201.9552 8.3 0
      vertex 201.9552 20 5.925
      vertex 201.9552 8.3 5.925
    endloop
  endfacet
  facet normal 0 1 0
    outer loop
      vertex 201.9552 20 0
      vertex 183.9552 20 0
      vertex 183.9552 20 5.925
    endloop
  endfacet
  facet normal 0 1 -0
    outer loop
      vertex 201.9552 20 0
      vertex 183.9552 20 5.925
      vertex 201.9552 20 5.925
    endloop
  endfacet
  facet normal -1 0 0
    outer loop
      vertex 183.9552 20 0
      vertex 183.9552 2 0
      vertex 183.9552 2 5.925
    endloop
  endfacet
  facet normal -1 0 0
    outer loop
      vertex 183.9552 20 0
      vertex 183.9552 2 5.925
      vertex 183.9552 20 5.925
    endloop
  endfacet
  facet normal 0 0 1
    outer loop
      vertex 8.3 8.3 5.925
      vertex 8.3 2 5.925
      vertex 20 2 5.925
    endloop
  endfacet
  facet normal 0 0 -1
    outer loop
      vertex 20 2 0
      vertex 8.3 2 0
      vertex 8.3 8.3 0
    endloop
  endfacet
  facet normal -0 0 1
    outer loop
      vertex 8.3 8.3 5.925
      vertex 20 2 5.925
      vertex 20 20 5.925
    endloop
  endfacet
  facet normal 0 -0 -1
    outer loop
      vertex 20 20 0
      vertex 20 2 0
      vertex 8.3 8.3 0
    endloop
  endfacet
  facet normal 0 -0 1
    outer loop
      vertex 8.3 8.3 5.925
      vertex 20 20 5.925
      vertex 2 20 5.925
    endloop
  endfacet
  facet normal 0 0 -1
    outer loop
      vertex 2 20 0
      vertex 20 20 0
      vertex 8.3 8.3 0
    endloop
  endfacet
  facet normal 0 0 1
    outer loop
      vertex 2 20 5.925
      vertex 2 8.3 5.925
      vertex 8.3 8.3 5.925
    endloop
  endfacet
  facet normal 0 0 -1
    outer loop
      vertex 8.3 8.3 0
      vertex 2 8.3 0
      vertex 2 20 0
    endloop
  endfacet
  facet normal 0 -1 0
    outer loop
      vertex 8.3 2 0
      vertex 20 2 0
      vertex 20 2 5.925
    endloop
  endfacet
  facet normal 0 -1 0
    outer loop
      vertex 8.3 2 0
      vertex 20 2 5.925
      vertex 8.3 2 5.925
    endloop
  endfacet
  facet normal 1 0 0
    outer loop
      vertex 20 2 0
      vertex 20 20 0
      vertex 20 20 5.925
    endloop
  endfacet
  facet normal 1 0 0
    outer loop
      vertex 20 2 0
      vertex 20 20 5.925
      vertex 20 2 5.925
    endloop
  endfacet
  facet normal 0 1 0
    outer loop
      vertex 20 20 0
      vertex 2 20 0
      vertex 2 20 5.925
    endloop
  endfacet
  facet normal 0 1 -0
    outer loop
      vertex 20 20 0
      vertex 2 20 5.925
      vertex 20 20 5.925
    endloop
  endfacet
  facet normal -1 0 0
    outer loop
      vertex 2 20 0
      vertex 2 8.3 0
      vertex 2 8.3 5.925
    endloop
  endfacet
  facet normal -1 0 0
    outer loop
      vertex 2 20 0
      vertex 2 8.3 5.925
      vertex 2 20 5.925
    endloop
  endfacet
  facet normal 0 -1 0
    outer loop
      vertex 2 8.3 0
      vertex 8.3 8.3 0
      vertex 8.3 8.3 5.925
    endloop
  endfacet
  facet normal 0 -1 0
    outer loop
      vertex 2 8.3 0
      vertex 8.3 8.3 5.925
      vertex 2 8.3 5.925
    endloop
  endfacet
  facet normal -1 0 0
    outer loop
      vertex 8.3 8.3 0
      vertex 8.3 2 0
      vertex 8.3 2 5.925
    endloop
  endfacet
  facet normal -1 0 0
    outer loop
      vertex 8.3 8.3 0
      vertex 8.3 2 5.925
      vertex 8.3 8.3 5.925
    endloop
  endfacet
  facet normal 0 0 1
    outer loop
      vertex 2 195.6552 5.925
      vertex 2 183.9552 5.925
      vertex 20 183.9552 5.925
    endloop
  endfacet
  facet normal 0 0 -1
    outer loop
      vertex 20 183.9552 0
      vertex 2 183.9552 0
      vertex 2 195.6552 0
    endloop
  endfacet
  facet normal 0 -0 1
    outer loop
      vertex 20 183.9552 5.925
      vertex 20 201.9552 5.925
      vertex 8.3 201.9552 5.925
    endloop
  endfacet
  facet normal 0 0 -1
    outer loop
      vertex 8.3 201.9552 0
      vertex 20 201.9552 0
      vertex 20 183.9552 0
    endloop
  endfacet
  facet normal 0 0 1
    outer loop
      vertex 20 183.9552 5.925
      vertex 8.3 201.9552 5.925
      vertex 8.3 195.6552 5.925
    endloop
  endfacet
  facet normal 0 0 -1
    outer loop
      vertex 8.3 195.6552 0
      vertex 8.3 201.9552 0
      vertex 20 183.9552 0
    endloop
  endfacet
  facet normal 0 0 1
    outer loop
      vertex 20 183.9552 5.925
      vertex 8.3 195.6552 5.925
      vertex 2 195.6552 5.925
    endloop
  endfacet
  facet normal 0 0 -1
    outer loop
      vertex 2 195.6552 0
      vertex 8.3 195.6552 0
      vertex 20 183.9552 0
    endloop
  endfacet
  facet normal 0 -1 0
    outer loop
      vertex 2 183.9552 0
      vertex 20 183.9552 0
      vertex 20 183.9552 5.925
    endloop
  endfacet
  facet normal 0 -1 0
    outer loop
      vertex 2 183.9552 0
      vertex 20 183.9552 5.925
      vertex 2 183.9552 5.925
    endloop
  endfacet
  facet normal 1 0 0
    outer loop
      vertex 20 183.9552 0
      vertex 20 201.9552 0
      vertex 20 201.9552 5.925
    endloop
  endfacet
  facet normal 1 0 0
    outer loop
      vertex 20 183.9552 0
      vertex 20 201.9552 5.925
      vertex 20 183.9552 5.925
    endloop
  endfacet
  facet normal 0 1 0
    outer loop
      vertex 20 201.9552 0
      vertex 8.3 201.9552 0
      vertex 8.3 201.9552 5.925
    endloop
  endfacet
  facet normal 0 1 -0
    outer loop
      vertex 20 201.9552 0
      vertex 8.3 201.9552 5.925
      vertex 20 201.9552 5.925
    endloop
  endfacet
  facet normal -1 0 0
    outer loop
      vertex 8.3 201.9552 0
      vertex 8.3 195.6552 0
      vertex 8.3 195.6552 5.925
    endloop
  endfacet
  facet normal -1 0 0
    outer loop
      vertex 8.3 201.9552 0
      vertex 8.3 195.6552 5.925
      vertex 8.3 201.9552 5.925
    endloop
  endfacet
  facet normal 0 1 0
    outer loop
      vertex 8.3 195.6552 0
      vertex 2 195.6552 0
      vertex 2 195.6552 5.925
    endloop
  endfacet
  facet normal 0 1 -0
    outer loop
      vertex 8.3 195.6552 0
      vertex 2 195.6552 5.925
      vertex 8.3 195.6552 5.925
    endloop
  endfacet
  facet normal -1 0 0
    outer loop
      vertex 2 195.6552 0
      vertex 2 183.9552 0
      vertex 2 183.9552 5.925
    endloop
  endfacet
  facet normal -1 0 0
    outer loop
      vertex 2 195.6552 0
      vertex 2 183.9552 5.925
      vertex 2 195.6552 5.925
    endloop
  endfacet
  facet normal 0 0 -1
    outer loop
      vertex 183.9552 183.9552 3.125
      vertex 60.9888 183.9552 3.125
      vertex 60.9888 201.9552 3.125
    endloop
  endfacet
  facet normal 0 0 -1
    outer loop
      vertex 183.9552 183.9552 3.125
      vertex 60.9888 201.9552 3.125
      vertex 183.9552 201.9552 3.125
    endloop
  endfacet
  facet normal 0 0 -1
    outer loop
      vertex 60.9888 183.9552 3.125
      vertex 20 183.9552 3.125
      vertex 20 201.9552 3.125
    endloop
  endfacet
  facet normal 0 0 -1
    outer loop
      vertex 60.9888 183.9552 3.125
      vertex 20 201.9552 3.125
      vertex 60.9888 201.9552 3.125
    endloop
  endfacet
  facet normal 0.04812806 0 0.9988412
    outer loop
      vertex 183.9552 183.9552 5.925
      vertex 60.9888 201.9552 11.85
      vertex 60.9888 183.9552 11.85
    endloop
  endfacet
  facet normal 0.04812806 -0 0.9988412
    outer loop
      vertex 183.9552 183.9552 5.925
      vertex 183.9552 201.9552 5.925
      vertex 60.9888 201.9552 11.85
    endloop
  endfacet
  facet normal 0 0 1
    outer loop
      vertex 60.9888 183.9552 11.85
      vertex 20 201.9552 11.85
      vertex 20 183.9552 11.85
    endloop
  endfacet
  facet normal 0 -0 1
    outer loop
      vertex 60.9888 183.9552 11.85
      vertex 60.9888 201.9552 11.85
      vertex 20 201.9552 11.85
    endloop
  endfacet
  facet normal 0 -1 0
    outer loop
      vertex 183.9552 183.9552 3.125
      vertex 60.9888 183.9552 11.85
      vertex 60.9888 183.9552 3.125
    endloop
  endfacet
  facet normal 0 -1 0
    outer loop
      vertex 183.9552 183.9552 3.125
      vertex 183.9552 183.9552 5.925
      vertex 60.9888 183.9552 11.85
    endloop
  endfacet
  facet normal 0 -1 0
    outer loop
      vertex 60.9888 183.9552 3.125
      vertex 20 183.9552 11.85
      vertex 20 183.9552 3.125
    endloop
  endfacet
  facet normal 0 -1 0
    outer loop
      vertex 60.9888 183.9552 3.125
      vertex 60.9888 183.9552 11.85
      vertex 20 183.9552 11.85
    endloop
  endfacet
  facet normal 0 1 0
    outer loop
      vertex 183.9552 201.9552 3.125
      vertex 60.9888 201.9552 3.125
      vertex 60.9888 201.9552 11.85
    endloop
  endfacet
  facet normal 0 1 -0
    outer loop
      vertex 183.9552 201.9552 3.125
      vertex 60.9888 201.9552 11.85
      vertex 183.9552 201.9552 5.925
    endloop
  endfacet
  facet normal 0 1 0
    outer loop
      vertex 60.9888 201.9552 3.125
      vertex 20 201.9552 3.125
      vertex 20 201.9552 11.85
    endloop
  endfacet
  facet normal 0 1 -0
    outer loop
      vertex 60.9888 201.9552 3.125
      vertex 20 201.9552 11.85
      vertex 60.9888 201.9552 11.85
    endloop
  endfacet
  facet normal 1 0 0
    outer loop
      vertex 183.9552 201.9552 3.125
      vertex 183.9552 183.9552 5.925
      vertex 183.9552 183.9552 3.125
    endloop
  endfacet
  facet normal 1 0 -0
    outer loop
      vertex 183.9552 201.9552 3.125
      vertex 183.9552 201.9552 5.925
      vertex 183.9552 183.9552 5.925
    endloop
  endfacet
  facet normal -1 0 0
    outer loop
      vertex 20 183.9552 3.125
      vertex 20 201.9552 11.85
      vertex 20 201.9552 3.125
    endloop
  endfacet
  facet normal -1 0 0
    outer loop
      vertex 20 183.9552 3.125
      vertex 20 183.9552 11.85
      vertex 20 201.9552 11.85
    endloop
  endfacet
  facet normal 0 0 -1
    outer loop
      vertex 183.9552 183.9552 3.125
      vertex 201.9552 60.9888 3.125
      vertex 183.9552 60.9888 3.125
    endloop
  endfacet
  facet normal 0 0 -1
    outer loop
      vertex 183.9552 183.9552 3.125
      vertex 201.9552 183.9552 3.125
      vertex 201.9552 60.9888 3.125
    endloop
  endfacet
  facet normal 0 0 -1
    outer loop
      vertex 183.9552 60.9888 3.125
      vertex 201.9552 20 3.125
      vertex 183.9552 20 3.125
    endloop
  endfacet
  facet normal 0 0 -1
    outer loop
      vertex 183.9552 60.9888 3.125
      vertex 201.9552 60.9888 3.125
      vertex 201.9552 20 3.125
    endloop
  endfacet
  facet normal 0 0.04812806 0.9988412
    outer loop
      vertex 183.9552 183.9552 5.925
      vertex 183.9552 60.9888 11.85
      vertex 201.9552 60.9888 11.85
    endloop
  endfacet
  facet normal -0 0.04812806 0.9988412
    outer loop
      vertex 183.9552 183.9552 5.925
      vertex 201.9552 60.9888 11.85
      vertex 201.9552 183.9552 5.925
    endloop
  endfacet
  facet normal 0 0 1
    outer loop
      vertex 183.9552 60.9888 11.85
      vertex 183.9552 20 11.85
      vertex 201.9552 20 11.85
    endloop
  endfacet
  facet normal -0 0 1
    outer loop
      vertex 183.9552 60.9888 11.85
      vertex 201.9552 20 11.85
      vertex 201.9552 60.9888 11.85
    endloop
  endfacet
  facet normal -1 0 0
    outer loop
      vertex 183.9552 183.9552 3.125
      vertex 183.9552 60.9888 3.125
      vertex 183.9552 60.9888 11.85
    endloop
  endfacet
  facet normal -1 0 0
    outer loop
      vertex 183.9552 183.9552 3.125
      vertex 183.9552 60.9888 11.85
      vertex 183.9552 183.9552 5.925
    endloop
  endfacet
  facet normal -1 0 0
    outer loop
      vertex 183.9552 60.9888 3.125
      vertex 183.9552 20 3.125
      vertex 183.9552 20 11.85
    endloop
  endfacet
  facet normal -1 0 0
    outer loop
      vertex 183.9552 60.9888 3.125
      vertex 183.9552 20 11.85
      vertex 183.9552 60.9888 11.85
    endloop
  endfacet
  facet normal 1 0 0
    outer loop
      vertex 201.9552 183.9552 3.125
      vertex 201.9552 60.9888 11.85
      vertex 201.9552 60.9888 3.125
    endloop
  endfacet
  facet normal 1 0 -0
    outer loop
      vertex 201.9552 183.9552 3.125
      vertex 201.9552 183.9552 5.925
      vertex 201.9552 60.9888 11.85
    endloop
  endfacet
  facet normal 1 0 0
    outer loop
      vertex 201.9552 60.9888 3.125
      vertex 201.9552 20 11.85
      vertex 201.9552 20 3.125
    endloop
  endfacet
  facet normal 1 0 -0
    outer loop
      vertex 201.9552 60.9888 3.125
      vertex 201.9552 60.9888 11.85
      vertex 201.9552 20 11.85
    endloop
  endfacet
  facet normal 0 1 0
    outer loop
      vertex 201.9552 183.9552 3.125
      vertex 183.9552 183.9552 3.125
      vertex 183.9552 183.9552 5.925
    endloop
  endfacet
  facet normal 0 1 -0
    outer loop
      vertex 201.9552 183.9552 3.125
      vertex 183.9552 183.9552 5.925
      vertex 201.9552 183.9552 5.925
    endloop
  endfacet
  facet normal 0 -1 0
    outer loop
      vertex 183.9552 20 3.125
      vertex 201.9552 20 3.125
      vertex 201.9552 20 11.85
    endloop
  endfacet
  facet normal 0 -1 0
    outer loop
      vertex 183.9552 20 3.125
      vertex 201.9552 20 11.85
      vertex 183.9552 20 11.85
    endloop
  endfacet
  facet normal 0 0 -1
    outer loop
      vertex 20 20 3.125
      vertex 142.9664 20 3.125
      vertex 142.9664 2 3.125
    endloop
  endfacet
  facet normal 0 0 -1
    outer loop
      vertex 20 20 3.125
      vertex 142.9664 2 3.125
      vertex 20 2 3.125
    endloop
  endfacet
  facet normal 0 0 -1
    outer loop
      vertex 142.9664 20 3.125
      vertex 183.9552 20 3.125
      vertex 183.9552 2 3.125
    endloop
  endfacet
  facet normal 0 0 -1
    outer loop
      vertex 142.9664 20 3.125
      vertex 183.9552 2 3.125
      vertex 142.9664 2 3.125
    endloop
  endfacet
  facet normal -0.04812806 0 0.9988412
    outer loop
      vertex 20 20 5.925
      vertex 142.9664 2 11.85
      vertex 142.9664 20 11.85
    endloop
  endfacet
  facet normal -0.04812806 0 0.9988412
    outer loop
      vertex 20 20 5.925
      vertex 20 2 5.925
      vertex 142.9664 2 11.85
    endloop
  endfacet
  facet normal -0 0 1
    outer loop
      vertex 142.9664 20 11.85
      vertex 183.9552 2 11.85
      vertex 183.9552 20 11.85
    endloop
  endfacet
  facet normal 0 0 1
    outer loop
      vertex 142.9664 20 11.85
      vertex 142.9664 2 11.85
      vertex 183.9552 2 11.85
    endloop
  endfacet
  facet normal 0 1 0
    outer loop
      vertex 20 20 3.125
      vertex 142.9664 20 11.85
      vertex 142.9664 20 3.125
    endloop
  endfacet
  facet normal 0 1 0
    outer loop
      vertex 20 20 3.125
      vertex 20 20 5.925
      vertex 142.9664 20 11.85
    endloop
  endfacet
  facet normal 0 1 0
    outer loop
      vertex 142.9664 20 3.125
      vertex 183.9552 20 11.85
      vertex 183.9552 20 3.125
    endloop
  endfacet
  facet normal 0 1 0
    outer loop
      vertex 142.9664 20 3.125
      vertex 142.9664 20 11.85
      vertex 183.9552 20 11.85
    endloop
  endfacet
  facet normal 0 -1 0
    outer loop
      vertex 20 2 3.125
      vertex 142.9664 2 3.125
      vertex 142.9664 2 11.85
    endloop
  endfacet
  facet normal 0 -1 0
    outer loop
      vertex 20 2 3.125
      vertex 142.9664 2 11.85
      vertex 20 2 5.925
    endloop
  endfacet
  facet normal 0 -1 0
    outer loop
      vertex 142.9664 2 3.125
      vertex 183.9552 2 3.125
      vertex 183.9552 2 11.85
    endloop
  endfacet
  facet normal 0 -1 0
    outer loop
      vertex 142.9664 2 3.125
      vertex 183.9552 2 11.85
      vertex 142.9664 2 11.85
    endloop
  endfacet
  facet normal -1 0 0
    outer loop
      vertex 20 2 3.125
      vertex 20 20 5.925
      vertex 20 20 3.125
    endloop
  endfacet
  facet normal -1 0 0
    outer loop
      vertex 20 2 3.125
      vertex 20 2 5.925
      vertex 20 20 5.925
    endloop
  endfacet
  facet normal 1 0 0
    outer loop
      vertex 183.9552 20 3.125
      vertex 183.9552 2 11.85
      vertex 183.9552 2 3.125
    endloop
  endfacet
  facet normal 1 0 -0
    outer loop
      vertex 183.9552 20 3.125
      vertex 183.9552 20 11.85
      vertex 183.9552 2 11.85
    endloop
  endfacet
  facet normal 0 0 -1
    outer loop
      vertex 20 20 3.125
      vertex 2 142.9664 3.125
      vertex 20 142.9664 3.125
    endloop
  endfacet
  facet normal 0 0 -1
    outer loop
      vertex 20 20 3.125
      vertex 2 20 3.125
      vertex 2 142.9664 3.125
    endloop
  endfacet
  facet normal 0 0 -1
    outer loop
      vertex 20 142.9664 3.125
      vertex 2 183.9552 3.125
      vertex 20 183.9552 3.125
    endloop
  endfacet
  facet normal 0 0 -1
    outer loop
      vertex 20 142.9664 3.125
      vertex 2 142.9664 3.125
      vertex 2 183.9552 3.125
    endloop
  endfacet
  facet normal 0 -0.04812806 0.9988412
    outer loop
      vertex 20 20 5.925
      vertex 20 142.9664 11.85
      vertex 2 142.9664 11.85
    endloop
  endfacet
  facet normal 0 -0.04812806 0.9988412
    outer loop
      vertex 20 20 5.925
      vertex 2 142.9664 11.85
      vertex 2 20 5.925
    endloop
  endfacet
  facet normal 0 -0 1
    outer loop
      vertex 20 142.9664 11.85
      vertex 20 183.9552 11.85
      vertex 2 183.9552 11.85
    endloop
  endfacet
  facet normal 0 0 1
    outer loop
      vertex 20 142.9664 11.85
      vertex 2 183.9552 11.85
      vertex 2 142.9664 11.85
    endloop
  endfacet
  facet normal 1 0 0
    outer loop
      vertex 20 20 3.125
      vertex 20 142.9664 3.125
      vertex 20 142.9664 11.85
    endloop
  endfacet
  facet normal 1 0 0
    outer loop
      vertex 20 20 3.125
      vertex 20 142.9664 11.85
      vertex 20 20 5.925
    endloop
  endfacet
  facet normal 1 0 0
    outer loop
      vertex 20 142.9664 3.125
      vertex 20 183.9552 3.125
      vertex 20 183.9552 11.85
    endloop
  endfacet
  facet normal 1 0 0
    outer loop
      vertex 20 142.9664 3.125
      vertex 20 183.9552 11.85
      vertex 20 142.9664 11.85
    endloop
  endfacet
  facet normal -1 0 0
    outer loop
      vertex 2 20 3.125
      vertex 2 142.9664 11.85
      vertex 2 142.9664 3.125
    endloop
  endfacet
  facet normal -1 0 0
    outer loop
      vertex 2 20 3.125
      vertex 2 20 5.925
      vertex 2 142.9664 11.85
    endloop
  endfacet
  facet normal -1 0 0
    outer loop
      vertex 2 142.9664 3.125
      vertex 2 183.9552 11.85
      vertex 2 183.9552 3.125
    endloop
  endfacet
  facet normal -1 0 0
    outer loop
      vertex 2 142.9664 3.125
      vertex 2 142.9664 11.85
      vertex 2 183.9552 11.85
    endloop
  endfacet
  facet normal 0 -1 0
    outer loop
      vertex 2 20 3.125
      vertex 20 20 3.125
      vertex 20 20 5.925
    endloop
  endfacet
  facet normal 0 -1 0
    outer loop
      vertex 2 20 3.125
      vertex 20 20 5.925
      vertex 2 20 5.925
    endloop
  endfacet
  facet normal 0 1 0
    outer loop
      vertex 20 183.9552 3.125
      vertex 2 183.9552 3.125
      vertex 2 183.9552 11.85
    endloop
  endfacet
  facet normal 0 1 -0
    outer loop
      vertex 20 183.9552 3.125
      vertex 2 183.9552 11.85
      vertex 20 183.9552 11.85
    endloop
  endfacet
  facet normal 0 0 1
    outer loop
      vertex 183.9552 201.9552 5.925
      vertex 183.9552 183.9552 5.925
      vertex 201.9552 183.9552 5.925
    endloop
  endfacet
  facet normal 0 0 -1
    outer loop
      vertex 201.9552 183.9552 3.125
      vertex 183.9552 183.9552 3.125
      vertex 183.9552 201.9552 3.125
    endloop
  endfacet
  facet normal 0 -0 1
    outer loop
      vertex 201.9552 183.9552 5.925
      vertex 201.9552 195.6552 5.925
      vertex 195.6552 195.6552 5.925
    endloop
  endfacet
  facet normal 0 0 -1
    outer loop
      vertex 195.6552 195.6552 3.125
      vertex 201.9552 195.6552 3.125
      vertex 201.9552 183.9552 3.125
    endloop
  endfacet
  facet normal 0 0 1
    outer loop
      vertex 183.9552 201.9552 5.925
      vertex 201.9552 183.9552 5.925
      vertex 195.6552 195.6552 5.925
    endloop
  endfacet
  facet normal -0 -0 -1
    outer loop
      vertex 195.6552 195.6552 3.125
      vertex 201.9552 183.9552 3.125
      vertex 183.9552 201.9552 3.125
    endloop
  endfacet
  facet normal 0 -0 1
    outer loop
      vertex 195.6552 195.6552 5.925
      vertex 195.6552 201.9552 5.925
      vertex 183.9552 201.9552 5.925
    endloop
  endfacet
  facet normal 0 0 -1
    outer loop
      vertex 183.9552 201.9552 3.125
      vertex 195.6552 201.9552 3.125
      vertex 195.6552 195.6552 3.125
    endloop
  endfacet
  facet normal 0 -1 0
    outer loop
      vertex 183.9552 183.9552 3.125
      vertex 201.9552 183.9552 3.125
      vertex 201.9552 183.9552 5.925
    endloop
  endfacet
  facet normal 0 -1 0
    outer loop
      vertex 183.9552 183.9552 3.125
      vertex 201.9552 183.9552 5.925
      vertex 183.9552 183.9552 5.925
    endloop
  endfacet
  facet normal 1 0 0
    outer loop
      vertex 201.9552 183.9552 3.125
      vertex 201.9552 195.6552 3.125
      vertex 201.9552 195.6552 5.925
    endloop
  endfacet
  facet normal 1 0 0
    outer loop
      vertex 201.9552 183.9552 3.125
      vertex 201.9552 195.6552 5.925
      vertex 201.9552 183.9552 5.925
    endloop
  endfacet
  facet normal 0 1 0
    outer loop
      vertex 201.9552 195.6552 3.125
      vertex 195.6552 195.6552 3.125
      vertex 195.6552 195.6552 5.925
    endloop
  endfacet
  facet normal 0 1 -0
    outer loop
      vertex 201.9552 195.6552 3.125
      vertex 195.6552 195.6552 5.925
      vertex 201.9552 195.6552 5.925
    endloop
  endfacet
  facet normal 1 0 0
    outer loop
      vertex 195.6552 195.6552 3.125
      vertex 195.6552 201.9552 3.125
      vertex 195.6552 201.9552 5.925
    endloop
  endfacet
  facet normal 1 0 0
    outer loop
      vertex 195.6552 195.6552 3.125
      vertex 195.6552 201.9552 5.925
      vertex 195.6552 195.6552 5.925
    endloop
  endfacet
  facet normal 0 1 0
    outer loop
      vertex 195.6552 201.9552 3.125
      vertex 183.9552 201.9552 3.125
      vertex 183.9552 201.9552 5.925
    endloop
  endfacet
  facet normal 0 1 -0
    outer loop
      vertex 195.6552 201.9552 3.125
      vertex 183.9552 201.9552 5.925
      vertex 195.6552 201.9552 5.925
    endloop
  endfacet
  facet normal -1 0 0
    outer loop
      vertex 183.9552 201.9552 3.125
      vertex 183.9552 183.9552 3.125
      vertex 183.9552 183.9552 5.925
    endloop
  endfacet
  facet normal -1 0 0
    outer loop
      vertex 183.9552 201.9552 3.125
      vertex 183.9552 183.9552 5.925
      vertex 183.9552 201.9552 5.925
    endloop
  endfacet
  facet normal 0 0 1
    outer loop
      vertex 183.9552 20 11.85
      vertex 183.9552 2 11.85
      vertex 195.6552 2 11.85
    endloop
  endfacet
  facet normal 0 0 -1
    outer loop
      vertex 195.6552 2 3.125
      vertex 183.9552 2 3.125
      vertex 183.9552 20 3.125
    endloop
  endfacet
  facet normal 0 0 1
    outer loop
      vertex 183.9552 20 11.85
      vertex 195.6552 2 11.85
      vertex 195.6552 8.3 11.85
    endloop
  endfacet
  facet normal -0 -0 -1
    outer loop
      vertex 195.6552 8.3 3.125
      vertex 195.6552 2 3.125
      vertex 183.9552 20 3.125
    endloop
  endfacet
  facet normal 0 0 1
    outer loop
      vertex 183.9552 20 11.85
      vertex 195.6552 8.3 11.85
      vertex 201.9552 8.3 11.85
    endloop
  endfacet
  facet normal 0 0 -1
    outer loop
      vertex 201.9552 8.3 3.125
      vertex 195.6552 8.3 3.125
      vertex 183.9552 20 3.125
    endloop
  endfacet
  facet normal 0 -0 1
    outer loop
      vertex 201.9552 8.3 11.85
      vertex 201.9552 20 11.85
      vertex 183.9552 20 11.85
    endloop
  endfacet
  facet normal 0 0 -1
    outer loop
      vertex 183.9552 20 3.125
      vertex 201.9552 20 3.125
      vertex 201.9552 8.3 3.125
    endloop
  endfacet
  facet normal 0 -1 0
    outer loop
      vertex 183.9552 2 3.125
      vertex 195.6552 2 3.125
      vertex 195.6552 2 11.85
    endloop
  endfacet
  facet normal 0 -1 0
    outer loop
      vertex 183.9552 2 3.125
      vertex 195.6552 2 11.85
      vertex 183.9552 2 11.85
    endloop
  endfacet
  facet normal 1 0 0
    outer loop
      vertex 195.6552 2 3.125
      vertex 195.6552 8.3 3.125
      vertex 195.6552 8.3 11.85
    endloop
  endfacet
  facet normal 1 0 0
    outer loop
      vertex 195.6552 2 3.125
      vertex 195.6552 8.3 11.85
      vertex 195.6552 2 11.85
    endloop
  endfacet
  facet normal 0 -1 0
    outer loop
      vertex 195.6552 8.3 3.125
      vertex 201.9552 8.3 3.125
      vertex 201.9552 8.3 11.85
    endloop
  endfacet
  facet normal 0 -1 0
    outer loop
      vertex 195.6552 8.3 3.125
      vertex 201.9552 8.3 11.85
      vertex 195.6552 8.3 11.85
    endloop
  endfacet
  facet normal 1 0 0
    outer loop
      vertex 201.9552 8.3 3.125
      vertex 201.9552 20 3.125
      vertex 201.9552 20 11.85
    endloop
  endfacet
  facet normal 1 0 0
    outer loop
      vertex 201.9552 8.3 3.125
      vertex 201.9552 20 11.85
      vertex 201.9552 8.3 11.85
    endloop
  endfacet
  facet normal 0 1 0
    outer loop
      vertex 201.9552 20 3.125
      vertex 183.9552 20 3.125
      vertex 183.9552 20 11.85
    endloop
  endfacet
  facet normal 0 1 -0
    outer loop
      vertex 201.9552 20 3.125
      vertex 183.9552 20 11.85
      vertex 201.9552 20 11.85
    endloop
  endfacet
  facet normal -1 0 0
    outer loop
      vertex 183.9552 20 3.125
      vertex 183.9552 2 3.125
      vertex 183.9552 2 11.85
    endloop
  endfacet
  facet normal -1 0 0
    outer loop
      vertex 183.9552 20 3.125
      vertex 183.9552 2 11.85
      vertex 183.9552 20 11.85
    endloop
  endfacet
  facet normal 0 0 1
    outer loop
      vertex 8.3 8.3 5.925
      vertex 8.3 2 5.925
      vertex 20 2 5.925
    endloop
  endfacet
  facet normal 0 0 -1
    outer loop
      vertex 20 2 3.125
      vertex 8.3 2 3.125
      vertex 8.3 8.3 3.125
    endloop
  endfacet
  facet normal -0 0 1
    outer loop
      vertex 8.3 8.3 5.925
      vertex 20 2 5.925
      vertex 20 20 5.925
    endloop
  endfacet
  facet normal 0 -0 -1
    outer loop
      vertex 20 20 3.125
      vertex 20 2 3.125
      vertex 8.3 8.3 3.125
    endloop
  endfacet
  facet normal 0 -0 1
    outer loop
      vertex 8.3 8.3 5.925
      vertex 20 20 5.925
      vertex 2 20 5.925
    endloop
  endfacet
  facet normal 0 0 -1
    outer loop
      vertex 2 20 3.125
      vertex 20 20 3.125
      vertex 8.3 8.3 3.125
    endloop
  endfacet
  facet normal 0 0 1
    outer loop
      vertex 2 20 5.925
      vertex 2 8.3 5.925
      vertex 8.3 8.3 5.925
    endloop
  endfacet
  facet normal 0 0 -1
    outer loop
      vertex 8.3 8.3 3.125
      vertex 2 8.3 3.125
      vertex 2 20 3.125
    endloop
  endfacet
  facet normal 0 -1 0
    outer loop
      vertex 8.3 2 3.125
      vertex 20 2 3.125
      vertex 20 2 5.925
    endloop
  endfacet
  facet normal 0 -1 0
    outer loop
      vertex 8.3 2 3.125
      vertex 20 2 5.925
      vertex 8.3 2 5.925
    endloop
  endfacet
  facet normal 1 0 0
    outer loop
      vertex 20 2 3.125
      vertex 20 20 3.125
      vertex 20 20 5.925
    endloop
  endfacet
  facet normal 1 0 0
    outer loop
      vertex 20 2 3.125
      vertex 20 20 5.925
      vertex 20 2 5.925
    endloop
  endfacet
  facet normal 0 1 0
    outer loop
      vertex 20 20 3.125
      vertex 2 20 3.125
      vertex 2 20 5.925
    endloop
  endfacet
  facet normal 0 1 -0
    outer loop
      vertex 20 20 3.125
      vertex 2 20 5.925
      vertex 20 20 5.925
    endloop
  endfacet
  facet normal -1 0 0
    outer loop
      vertex 2 20 3.125
      vertex 2 8.3 3.125
      vertex 2 8.3 5.925
    endloop
  endfacet
  facet normal -1 0 0
    outer loop
      vertex 2 20 3.125
      vertex 2 8.3 5.925
      vertex 2 20 5.925
    endloop
  endfacet
  facet normal 0 -1 0
    outer loop
      vertex 2 8.3 3.125
      vertex 8.3 8.3 3.125
      vertex 8.3 8.3 5.925
    endloop
  endfacet
  facet normal 0 -1 0
    outer loop
      vertex 2 8.3 3.125
      vertex 8.3 8.3 5.925
      vertex 2 8.3 5.925
    endloop
  endfacet
  facet normal -1 0 0
    outer loop
      vertex 8.3 8.3 3.125
      vertex 8.3 2 3.125
      vertex 8.3 2 5.925
    endloop
  endfacet
  facet normal -1 0 0
    outer loop
      vertex 8.3 8.3 3.125
      vertex 8.3 2 5.925
      vertex 8.3 8.3 5.925
    endloop
  endfacet
  facet normal 0 0 1
    outer loop
      vertex 2 195.6552 11.85
      vertex 2 183.9552 11.85
      vertex 20 183.9552 11.85
    endloop
  endfacet
  facet normal 0 0 -1
    outer loop
      vertex 20 183.9552 3.125
      vertex 2 183.9552 3.125
      vertex 2 195.6552 3.125
    endloop
  endfacet
  facet normal 0 -0 1
    outer loop
      vertex 20 183.9552 11.85
      vertex 20 201.9552 11.85
      vertex 8.3 201.9552 11.85
    endloop
  endfacet
  facet normal 0 0 -1
    outer loop
      vertex 8.3 201.9552 3.125
      vertex 20 201.9552 3.125
      vertex 20 183.9552 3.125
    endloop
  endfacet
  facet normal 0 0 1
    outer loop
      vertex 20 183.9552 11.85
      vertex 8.3 201.9552 11.85
      vertex 8.3 195.6552 11.85
    endloop
  endfacet
  facet normal 0 0 -1
    outer loop
      vertex 8.3 195.6552 3.125
      vertex 8.3 201.9552 3.125
      vertex 20 183.9552 3.125
    endloop
  endfacet
  facet normal 0 0 1
    outer loop
      vertex 20 183.9552 11.85
      vertex 8.3 195.6552 11.85
      vertex 2 195.6552 11.85
    endloop
  endfacet
  facet normal 0 0 -1
    outer loop
      vertex 2 195.6552 3.125
      vertex 8.3 195.6552 3.125
      vertex 20 183.9552 3.125
    endloop
  endfacet
  facet normal 0 -1 0
    outer loop
      vertex 2 183.9552 3.125
      vertex 20 183.9552 3.125
      vertex 20 183.9552 11.85
    endloop
  endfacet
  facet normal 0 -1 0
    outer loop
      vertex 2 183.9552 3.125
      vertex 20 183.9552 11.85
      vertex 2 183.9552 11.85
    endloop
  endfacet
  facet normal 1 0 0
    outer loop
      vertex 20 183.9552 3.125
      vertex 20 201.9552 3.125
      vertex 20 201.9552 11.85
    endloop
  endfacet
  facet normal 1 0 0
    outer loop
      vertex 20 183.9552 3.125
      vertex 20 201.9552 11.85
      vertex 20 183.9552 11.85
    endloop
  endfacet
  facet normal 0 1 0
    outer loop
      vertex 20 201.9552 3.125
      vertex 8.3 201.9552 3.125
      vertex 8.3 201.9552 11.85
    endloop
  endfacet
  facet normal 0 1 -0
    outer loop
      vertex 20 201.9552 3.125
      vertex 8.3 201.9552 11.85
      vertex 20 201.9552 11.85
    endloop
  endfacet
  facet normal -1 0 0
    outer loop
      vertex 8.3 201.9552 3.125
      vertex 8.3 195.6552 3.125
      vertex 8.3 195.6552 11.85
    endloop
  endfacet
  facet normal -1 0 0
    outer loop
      vertex 8.3 201.9552 3.125
      vertex 8.3 195.6552 11.85
      vertex 8.3 201.9552 11.85
    endloop
  endfacet
  facet normal 0 1 0
    outer loop
      vertex 8.3 195.6552 3.125
      vertex 2 195.6552 3.125
      vertex 2 195.6552 11.85
    endloop
  endfacet
  facet normal 0 1 -0
    outer loop
      vertex 8.3 195.6552 3.125
      vertex 2 195.6552 11.85
      vertex 8.3 195.6552 11.85
    endloop
  endfacet
  facet normal -1 0 0
    outer loop
      vertex 2 195.6552 3.125
      vertex 2 183.9552 3.125
      vertex 2 183.9552 11.85
    endloop
  endfacet
  facet normal -1 0 0
    outer loop
      vertex 2 195.6552 3.125
      vertex 2 183.9552 11.85
      vertex 2 195.6552 11.85
    endloop
  endfacet
endsolid temporary_switchback_ramp_layer_08
