solid temporary_switchback_ramp_layer_02
  facet normal 0 0 -1
    outer loop
      vertex 2 257.8295 0
      vertex 257.8295 257.8295 0
      vertex 257.8295 242.1576 0
    endloop
  endfacet
  facet normal 0 0 -1
    outer loop
      vertex 2 257.8295 0
      vertex 257.8295 242.1576 0
      vertex 2 242.1576 0
    endloop
  endfacet
  facet normal 0 0 1
    outer loop
      vertex 2 242.1576 5.925
      vertex 257.8295 242.1576 5.925
      vertex 257.8295 257.8295 5.925
    endloop
  endfacet
  facet normal 0 0 1
    outer loop
      vertex 2 242.1576 5.925
      vertex 257.8295 257.8295 5.925
      vertex 2 257.8295 5.925
    endloop
  endfacet
  facet normal 0 -1 0
    outer loop
      vertex 2 242.1576 0
      vertex 257.8295 242.1576 0
      vertex 257.8295 242.1576 5.925
    endloop
  endfacet
  facet normal 0 -1 0
    outer loop
      vertex 2 242.1576 0
      vertex 257.8295 242.1576 5.925
      vertex 2 242.1576 5.925
    endloop
  endfacet
  facet normal 1 0 0
    outer loop
      vertex 257.8295 242.1576 0
      vertex 257.8295 257.8295 0
      vertex 257.8295 257.8295 5.925
    endloop
  endfacet
  facet normal 1 0 0
    outer loop
      vertex 257.8295 242.1576 0
      vertex 257.8295 257.8295 5.925
      vertex 257.8295 242.1576 5.925
    endloop
  endfacet
  facet normal 0 1 0
    outer loop
      vertex 257.8295 257.8295 0
      vertex 2 257.8295 0
      vertex 2 257.8295 5.925
    endloop
  endfacet
  facet normal 0 1 -0
    outer loop
      vertex 257.8295 257.8295 0
      vertex 2 257.8295 5.925
      vertex 257.8295 257.8295 5.925
    endloop
  endfacet
  facet normal -1 0 0
    outer loop
      vertex 2 257.8295 0
      vertex 2 242.1576 0
      vertex 2 242.1576 5.925
    endloop
  endfacet
  facet normal -1 0 0
    outer loop
      vertex 2 257.8295 0
      vertex 2 242.1576 5.925
      vertex 2 257.8295 5.925
    endloop
  endfacet
  facet normal 0 -0 -1
    outer loop
      vertex 257.8295 257.8295 0
      vertex 257.8295 2 0
      vertex 242.1576 2 0
    endloop
  endfacet
  facet normal -0 0 -1
    outer loop
      vertex 257.8295 257.8295 0
      vertex 242.1576 2 0
      vertex 242.1576 257.8295 0
    endloop
  endfacet
  facet normal 0 0 1
    outer loop
      vertex 242.1576 257.8295 5.925
      vertex 242.1576 2 5.925
      vertex 257.8295 2 5.925
    endloop
  endfacet
  facet normal -0 0 1
    outer loop
      vertex 242.1576 257.8295 5.925
      vertex 257.8295 2 5.925
      vertex 257.8295 257.8295 5.925
    endloop
  endfacet
  facet normal -1 0 0
    outer loop
      vertex 242.1576 257.8295 0
      vertex 242.1576 2 0
      vertex 242.1576 2 5.925
    endloop
  endfacet
  facet normal -1 0 0
    outer loop
      vertex 242.1576 257.8295 0
      vertex 242.1576 2 5.925
      vertex 242.1576 257.8295 5.925
    endloop
  endfacet
  facet normal 0 -1 0
    outer loop
      vertex 242.1576 2 0
      vertex 257.8295 2 0
      vertex 257.8295 2 5.925
    endloop
  endfacet
  facet normal 0 -1 0
    outer loop
      vertex 242.1576 2 0
      vertex 257.8295 2 5.925
      vertex 242.1576 2 5.925
    endloop
  endfacet
  facet normal 1 0 0
    outer loop
      vertex 257.8295 2 0
      vertex 257.8295 257.8295 0
      vertex 257.8295 257.8295 5.925
    endloop
  endfacet
  facet normal 1 0 0
    outer loop
      vertex 257.8295 2 0
      vertex 257.8295 257.8295 5.925
      vertex 257.8295 2 5.925
    endloop
  endfacet
  facet normal 0 1 0
    outer loop
      vertex 257.8295 257.8295 0
      vertex 242.1576 257.8295 0
      vertex 242.1576 257.8295 5.925
    endloop
  endfacet
  facet normal 0 1 -0
    outer loop
      vertex 257.8295 257.8295 0
      vertex 242.1576 257.8295 5.925
      vertex 257.8295 257.8295 5.925
    endloop
  endfacet
  facet normal 0 0 -1
    outer loop
      vertex 257.8295 2 0
      vertex 2 2 0
      vertex 2 17.67191 0
    endloop
  endfacet
  facet normal 0 0 -1
    outer loop
      vertex 257.8295 2 0
      vertex 2 17.67191 0
      vertex 257.8295 17.67191 0
    endloop
  endfacet
  facet normal 0 0 1
    outer loop
      vertex 257.8295 17.67191 5.925
      vertex 2 17.67191 5.925
      vertex 2 2 5.925
    endloop
  endfacet
  facet normal 0 0 1
    outer loop
      vertex 257.8295 17.67191 5.925
      vertex 2 2 5.925
      vertex 257.8295 2 5.925
    endloop
  endfacet
  facet normal 0 1 0
    outer loop
      vertex 257.8295 17.67191 0
      vertex 2 17.67191 0
      vertex 2 17.67191 5.925
    endloop
  endfacet
  facet normal 0 1 -0
    outer loop
      vertex 257.8295 17.67191 0
      vertex 2 17.67191 5.925
      vertex 257.8295 17.67191 5.925
    endloop
  endfacet
  facet normal -1 0 0
    outer loop
      vertex 2 17.67191 0
      vertex 2 2 0
      vertex 2 2 5.925
    endloop
  endfacet
  facet normal -1 0 0
    outer loop
      vertex 2 17.67191 0
      vertex 2 2 5.925
      vertex 2 17.67191 5.925
    endloop
  endfacet
  facet normal 0 -1 0
    outer loop
      vertex 2 2 0
      vertex 257.8295 2 0
      vertex 257.8295 2 5.925
    endloop
  endfacet
  facet normal 0 -1 0
    outer loop
      vertex 2 2 0
      vertex 257.8295 2 5.925
      vertex 2 2 5.925
    endloop
  endfacet
  facet normal 1 0 0
    outer loop
      vertex 257.8295 2 0
      vertex 257.8295 17.67191 0
      vertex 257.8295 17.67191 5.925
    endloop
  endfacet
  facet normal 1 0 0
    outer loop
      vertex 257.8295 2 0
      vertex 257.8295 17.67191 5.925
      vertex 257.8295 2 5.925
    endloop
  endfacet
  facet normal 0 0 -1
    outer loop
      vertex 2 2 0
      vertex 2 257.8295 0
      vertex 17.67191 257.8295 0
    endloop
  endfacet
  facet normal 0 0 -1
    outer loop
      vertex 2 2 0
      vertex 17.67191 257.8295 0
      vertex 17.67191 2 0
    endloop
  endfacet
  facet normal 0 -0 1
    outer loop
      vertex 17.67191 2 5.925
      vertex 17.67191 257.8295 5.925
      vertex 2 257.8295 5.925
    endloop
  endfacet
  facet normal 0 0 1
    outer loop
      vertex 17.67191 2 5.925
      vertex 2 257.8295 5.925
      vertex 2 2 5.925
    endloop
  endfacet
  facet normal 1 0 0
    outer loop
      vertex 17.67191 2 0
      vertex 17.67191 257.8295 0
      vertex 17.67191 257.8295 5.925
    endloop
  endfacet
  facet normal 1 0 0
    outer loop
      vertex 17.67191 2 0
      vertex 17.67191 257.8295 5.925
      vertex 17.67191 2 5.925
    endloop
  endfacet
  facet normal 0 1 0
    outer loop
      vertex 17.67191 257.8295 0
      vertex 2 257.8295 0
      vertex 2 257.8295 5.925
    endloop
  endfacet
  facet normal 0 1 -0
    outer loop
      vertex 17.67191 257.8295 0
      vertex 2 257.8295 5.925
      vertex 17.67191 257.8295 5.925
    endloop
  endfacet
  facet normal -1 0 0
    outer loop
      vertex 2 257.8295 0
      vertex 2 2 0
      vertex 2 2 5.925
    endloop
  endfacet
  facet normal -1 0 0
    outer loop
      vertex 2 257.8295 0
      vertex 2 2 5.925
      vertex 2 257.8295 5.925
    endloop
  endfacet
  facet normal 0 -1 0
    outer loop
      vertex 2 2 0
      vertex 17.67191 2 0
      vertex 17.67191 2 5.925
    endloop
  endfacet
  facet normal 0 -1 0
    outer loop
      vertex 2 2 0
      vertex 17.67191 2 5.925
      vertex 2 2 5.925
    endloop
  endfacet
  facet normal 0 0 1
    outer loop
      vertex 239.8295 257.8295 5.925
      vertex 239.8295 239.8295 5.925
      vertex 257.8295 239.8295 5.925
    endloop
  endfacet
  facet normal 0 0 -1
    outer loop
      vertex 257.8295 239.8295 0
      vertex 239.8295 239.8295 0
      vertex 239.8295 257.8295 0
    endloop
  endfacet
  facet normal 0 -0 1
    outer loop
      vertex 257.8295 239.8295 5.925
      vertex 257.8295 251.5295 5.925
      vertex 251.5295 251.5295 5.925
    endloop
  endfacet
  facet normal 0 0 -1
    outer loop
      vertex 251.5295 251.5295 0
      vertex 257.8295 251.5295 0
      vertex 257.8295 239.8295 0
    endloop
  endfacet
  facet normal 0 0 1
    outer loop
      vertex 239.8295 257.8295 5.925
      vertex 257.8295 239.8295 5.925
      vertex 251.5295 251.5295 5.925
    endloop
  endfacet
  facet normal -0 -0 -1
    outer loop
      vertex 251.5295 251.5295 0
      vertex 257.8295 239.8295 0
      vertex 239.8295 257.8295 0
    endloop
  endfacet
  facet normal 0 -0 1
    outer loop
      vertex 251.5295 251.5295 5.925
      vertex 251.5295 257.8295 5.925
      vertex 239.8295 257.8295 5.925
    endloop
  endfacet
  facet normal 0 0 -1
    outer loop
      vertex 239.8295 257.8295 0
      vertex 251.5295 257.8295 0
      vertex 251.5295 251.5295 0
    endloop
  endfacet
  facet normal 0 -1 0
    outer loop
      vertex 239.8295 239.8295 0
      vertex 257.8295 239.8295 0
      vertex 257.8295 239.8295 5.925
    endloop
  endfacet
  facet normal 0 -1 0
    outer loop
      vertex 239.8295 239.8295 0
      vertex 257.8295 239.8295 5.925
      vertex 239.8295 239.8295 5.925
    endloop
  endfacet
  facet normal 1 0 0
    outer loop
      vertex 257.8295 239.8295 0
      vertex 257.8295 251.5295 0
      vertex 257.8295 251.5295 5.925
    endloop
  endfacet
  facet normal 1 0 0
    outer loop
      vertex 257.8295 239.8295 0
      vertex 257.8295 251.5295 5.925
      vertex 257.8295 239.8295 5.925
    endloop
  endfacet
  facet normal 0 1 0
    outer loop
      vertex 257.8295 251.5295 0
      vertex 251.5295 251.5295 0
      vertex 251.5295 251.5295 5.925
    endloop
  endfacet
  facet normal 0 1 -0
    outer loop
      vertex 257.8295 251.5295 0
      vertex 251.5295 251.5295 5.925
      vertex 257.8295 251.5295 5.925
    endloop
  endfacet
  facet normal 1 0 0
    outer loop
      vertex 251.5295 251.5295 0
      vertex 251.5295 257.8295 0
      vertex 251.5295 257.8295 5.925
    endloop
  endfacet
  facet normal 1 0 0
    outer loop
      vertex 251.5295 251.5295 0
      vertex 251.5295 257.8295 5.925
      vertex 251.5295 251.5295 5.925
    endloop
  endfacet
  facet normal 0 1 0
    outer loop
      vertex 251.5295 257.8295 0
      vertex 239.8295 257.8295 0
      vertex 239.8295 257.8295 5.925
    endloop
  endfacet
  facet normal 0 1 -0
    outer loop
      vertex 251.5295 257.8295 0
      vertex 239.8295 257.8295 5.925
      vertex 251.5295 257.8295 5.925
    endloop
  endfacet
  facet normal -1 0 0
    outer loop
      vertex 239.8295 257.8295 0
      vertex 239.8295 239.8295 0
      vertex 239.8295 239.8295 5.925
    endloop
  endfacet
  facet normal -1 0 0
    outer loop
      vertex 239.8295 257.8295 0
      vertex 239.8295 239.8295 5.925
      vertex 239.8295 257.8295 5.925
    endloop
  endfacet
  facet normal 0 0 1
    outer loop
      vertex 239.8295 20 5.925
      vertex 239.8295 2 5.925
      vertex 251.5295 2 5.925
    endloop
  endfacet
  facet normal 0 0 -1
    outer loop
      vertex 251.5295 2 0
      vertex 239.8295 2 0
      vertex 239.8295 20 0
    endloop
  endfacet
  facet normal 0 0 1
    outer loop
      vertex 239.8295 20 5.925
      vertex 251.5295 2 5.925
      vertex 251.5295 8.3 5.925
    endloop
  endfacet
  facet normal -0 -0 -1
    outer loop
      vertex 251.5295 8.3 0
      vertex 251.5295 2 0
      vertex 239.8295 20 0
    endloop
  endfacet
  facet normal 0 0 1
    outer loop
      vertex 239.8295 20 5.925
      vertex 251.5295 8.3 5.925
      vertex 257.8295 8.3 5.925
    endloop
  endfacet
  facet normal 0 0 -1
    outer loop
      vertex 257.8295 8.3 0
      vertex 251.5295 8.3 0
      vertex 239.8295 20 0
    endloop
  endfacet
  facet normal 0 -0 1
    outer loop
      vertex 257.8295 8.3 5.925
      vertex 257.8295 20 5.925
      vertex 239.8295 20 5.925
    endloop
  endfacet
  facet normal 0 0 -1
    outer loop
      vertex 239.8295 20 0
      vertex 257.8295 20 0
      vertex 257.8295 8.3 0
    endloop
  endfacet
  facet normal 0 -1 0
    outer loop
      vertex 239.8295 2 0
      vertex 251.5295 2 0
      vertex 251.5295 2 5.925
    endloop
  endfacet
  facet normal 0 -1 0
    outer loop
      vertex 239.8295 2 0
      vertex 251.5295 2 5.925
      vertex 239.8295 2 5.925
    endloop
  endfacet
  facet normal 1 0 0
    outer loop
      vertex 251.5295 2 0
      vertex 251.5295 8.3 0
      vertex 251.5295 8.3 5.925
    endloop
  endfacet
  facet normal 1 0 0
    outer loop
      vertex 251.5295 2 0
      vertex 251.5295 8.3 5.925
      vertex 251.5295 2 5.925
    endloop
  endfacet
  facet normal 0 -1 0
    outer loop
      vertex 251.5295 8.3 0
      vertex 257.8295 8.3 0
      vertex 257.8295 8.3 5.925
    endloop
  endfacet
  facet normal 0 -1 0
    outer loop
      vertex 251.5295 8.3 0
      vertex 257.8295 8.3 5.925
      vertex 251.5295 8.3 5.925
    endloop
  endfacet
  facet normal 1 0 0
    outer loop
      vertex 257.8295 8.3 0
      vertex 257.8295 20 0
      vertex 257.8295 20 5.925
    endloop
  endfacet
  facet normal 1 0 0
    outer loop
      vertex 257.8295 8.3 0
      vertex 257.8295 20 5.925
      vertex 257.8295 8.3 5.925
    endloop
  endfacet
  facet normal 0 1 0
    outer loop
      vertex 257.8295 20 0
      vertex 239.8295 20 0
      vertex 239.8295 20 5.925
    endloop
  endfacet
  facet normal 0 1 -0
    outer loop
      vertex 257.8295 20 0
      vertex 239.8295 20 5.925
      vertex 257.8295 20 5.925
    endloop
  endfacet
  facet normal -1 0 0
    outer loop
      vertex 239.8295 20 0
      vertex 239.8295 2 0
      vertex 239.8295 2 5.925
    endloop
  endfacet
  facet normal -1 0 0
    outer loop
      vertex 239.8295 20 0
      vertex 239.8295 2 5.925
      vertex 239.8295 20 5.925
    endloop
  endfacet
  facet normal 0 0 1
    outer loop
      vertex 8.3 8.3 5.925
      vertex 8.3 2 5.925
      vertex 20 2 5.925
    endloop
  endfacet
  facet normal 0 0 -1
    outer loop
      vertex 20 2 0
      vertex 8.3 2 0
      vertex 8.3 8.3 0
    endloop
  endfacet
  facet normal -0 0 1
    outer loop
      vertex 8.3 8.3 5.925
      vertex 20 2 5.925
      vertex 20 20 5.925
    endloop
  endfacet
  facet normal 0 -0 -1
    outer loop
      vertex 20 20 0
      vertex 20 2 0
      vertex 8.3 8.3 0
    endloop
  endfacet
  facet normal 0 -0 1
    outer loop
      vertex 8.3 8.3 5.925
      vertex 20 20 5.925
      vertex 2 20 5.925
    endloop
  endfacet
  facet normal 0 0 -1
    outer loop
      vertex 2 20 0
      vertex 20 20 0
      vertex 8.3 8.3 0
    endloop
  endfacet
  facet normal 0 0 1
    outer loop
      vertex 2 20 5.925
      vertex 2 8.3 5.925
      vertex 8.3 8.3 5.925
    endloop
  endfacet
  facet normal 0 0 -1
    outer loop
      vertex 8.3 8.3 0
      vertex 2 8.3 0
      vertex 2 20 0
    endloop
  endfacet
  facet normal 0 -1 0
    outer loop
      vertex 8.3 2 0
      vertex 20 2 0
      vertex 20 2 5.925
    endloop
  endfacet
  facet normal 0 -1 0
    outer loop
      vertex 8.3 2 0
      vertex 20 2 5.925
      vertex 8.3 2 5.925
    endloop
  endfacet
  facet normal 1 0 0
    outer loop
      vertex 20 2 0
      vertex 20 20 0
      vertex 20 20 5.925
    endloop
  endfacet
  facet normal 1 0 0
    outer loop
      vertex 20 2 0
      vertex 20 20 5.925
      vertex 20 2 5.925
    endloop
  endfacet
  facet normal 0 1 0
    outer loop
      vertex 20 20 0
      vertex 2 20 0
      vertex 2 20 5.925
    endloop
  endfacet
  facet normal 0 1 -0
    outer loop
      vertex 20 20 0
      vertex 2 20 5.925
      vertex 20 20 5.925
    endloop
  endfacet
  facet normal -1 0 0
    outer loop
      vertex 2 20 0
      vertex 2 8.3 0
      vertex 2 8.3 5.925
    endloop
  endfacet
  facet normal -1 0 0
    outer loop
      vertex 2 20 0
      vertex 2 8.3 5.925
      vertex 2 20 5.925
    endloop
  endfacet
  facet normal 0 -1 0
    outer loop
      vertex 2 8.3 0
      vertex 8.3 8.3 0
      vertex 8.3 8.3 5.925
    endloop
  endfacet
  facet normal 0 -1 0
    outer loop
      vertex 2 8.3 0
      vertex 8.3 8.3 5.925
      vertex 2 8.3 5.925
    endloop
  endfacet
  facet normal -1 0 0
    outer loop
      vertex 8.3 8.3 0
      vertex 8.3 2 0
      vertex 8.3 2 5.925
    endloop
  endfacet
  facet normal -1 0 0
    outer loop
      vertex 8.3 8.3 0
      vertex 8.3 2 5.925
      vertex 8.3 8.3 5.925
    endloop
  endfacet
  facet normal 0 0 1
    outer loop
      vertex 2 251.5295 5.925
      vertex 2 239.8295 5.925
      vertex 20 239.8295 5.925
    endloop
  endfacet
  facet normal 0 0 -1
    outer loop
      vertex 20 239.8295 0
      vertex 2 239.8295 0
      vertex 2 251.5295 0
    endloop
  endfacet
  facet normal 0 -0 1
    outer loop
      vertex 20 239.8295 5.925
      vertex 20 257.8295 5.925
      vertex 8.3 257.8295 5.925
    endloop
  endfacet
  facet normal 0 0 -1
    outer loop
      vertex 8.3 257.8295 0
      vertex 20 257.8295 0
      vertex 20 239.8295 0
    endloop
  endfacet
  facet normal 0 0 1
    outer loop
      vertex 20 239.8295 5.925
      vertex 8.3 257.8295 5.925
      vertex 8.3 251.5295 5.925
    endloop
  endfacet
  facet normal 0 0 -1
    outer loop
      vertex 8.3 251.5295 0
      vertex 8.3 257.8295 0
      vertex 20 239.8295 0
    endloop
  endfacet
  facet normal 0 0 1
    outer loop
      vertex 20 239.8295 5.925
      vertex 8.3 251.5295 5.925
      vertex 2 251.5295 5.925
    endloop
  endfacet
  facet normal 0 0 -1
    outer loop
      vertex 2 251.5295 0
      vertex 8.3 251.5295 0
      vertex 20 239.8295 0
    endloop
  endfacet
  facet normal 0 -1 0
    outer loop
      vertex 2 239.8295 0
      vertex 20 239.8295 0
      vertex 20 239.8295 5.925
    endloop
  endfacet
  facet normal 0 -1 0
    outer loop
      vertex 2 239.8295 0
      vertex 20 239.8295 5.925
      vertex 2 239.8295 5.925
    endloop
  endfacet
  facet normal 1 0 0
    outer loop
      vertex 20 239.8295 0
      vertex 20 257.8295 0
      vertex 20 257.8295 5.925
    endloop
  endfacet
  facet normal 1 0 0
    outer loop
      vertex 20 239.8295 0
      vertex 20 257.8295 5.925
      vertex 20 239.8295 5.925
    endloop
  endfacet
  facet normal 0 1 0
    outer loop
      vertex 20 257.8295 0
      vertex 8.3 257.8295 0
      vertex 8.3 257.8295 5.925
    endloop
  endfacet
  facet normal 0 1 -0
    outer loop
      vertex 20 257.8295 0
      vertex 8.3 257.8295 5.925
      vertex 20 257.8295 5.925
    endloop
  endfacet
  facet normal -1 0 0
    outer loop
      vertex 8.3 257.8295 0
      vertex 8.3 251.5295 0
      vertex 8.3 251.5295 5.925
    endloop
  endfacet
  facet normal -1 0 0
    outer loop
      vertex 8.3 257.8295 0
      vertex 8.3 251.5295 5.925
      vertex 8.3 257.8295 5.925
    endloop
  endfacet
  facet normal 0 1 0
    outer loop
      vertex 8.3 251.5295 0
      vertex 2 251.5295 0
      vertex 2 251.5295 5.925
    endloop
  endfacet
  facet normal 0 1 -0
    outer loop
      vertex 8.3 251.5295 0
      vertex 2 251.5295 5.925
      vertex 8.3 251.5295 5.925
    endloop
  endfacet
  facet normal -1 0 0
    outer loop
      vertex 2 251.5295 0
      vertex 2 239.8295 0
      vertex 2 239.8295 5.925
    endloop
  endfacet
  facet normal -1 0 0
    outer loop
      vertex 2 251.5295 0
      vertex 2 239.8295 5.925
      vertex 2 251.5295 5.925
    endloop
  endfacet
  facet normal 0 0 -1
    outer loop
      vertex 239.8295 239.8295 3.125
      vertex 74.95737 239.8295 3.125
      vertex 74.95737 257.8295 3.125
    endloop
  endfacet
  facet normal 0 0 -1
    outer loop
      vertex 239.8295 239.8295 3.125
      vertex 74.95737 257.8295 3.125
      vertex 239.8295 257.8295 3.125
    endloop
  endfacet
  facet normal 0 0 -1
    outer loop
      vertex 74.95737 239.8295 3.125
      vertex 20 239.8295 3.125
      vertex 20 257.8295 3.125
    endloop
  endfacet
  facet normal 0 0 -1
    outer loop
      vertex 74.95737 239.8295 3.125
      vertex 20 257.8295 3.125
      vertex 74.95737 257.8295 3.125
    endloop
  endfacet
  facet normal 0.03591376 0 0.9993549
    outer loop
      vertex 239.8295 239.8295 5.925
      vertex 74.95737 257.8295 11.85
      vertex 74.95737 239.8295 11.85
    endloop
  endfacet
  facet normal 0.03591376 -0 0.9993549
    outer loop
      vertex 239.8295 239.8295 5.925
      vertex 239.8295 257.8295 5.925
      vertex 74.95737 257.8295 11.85
    endloop
  endfacet
  facet normal 0 0 1
    outer loop
      vertex 74.95737 239.8295 11.85
      vertex 20 257.8295 11.85
      vertex 20 239.8295 11.85
    endloop
  endfacet
  facet normal 0 -0 1
    outer loop
      vertex 74.95737 239.8295 11.85
      vertex 74.95737 257.8295 11.85
      vertex 20 257.8295 11.85
    endloop
  endfacet
  facet normal 0 -1 0
    outer loop
      vertex 239.8295 239.8295 3.125
      vertex 74.95737 239.8295 11.85
      vertex 74.95737 239.8295 3.125
    endloop
  endfacet
  facet normal 0 -1 0
    outer loop
      vertex 239.8295 239.8295 3.125
      vertex 239.8295 239.8295 5.925
      vertex 74.95737 239.8295 11.85
    endloop
  endfacet
  facet normal 0 -1 0
    outer loop
      vertex 74.95737 239.8295 3.125
      vertex 20 239.8295 11.85
      vertex 20 239.8295 3.125
    endloop
  endfacet
  facet normal 0 -1 0
    outer loop
      vertex 74.95737 239.8295 3.125
      vertex 74.95737 239.8295 11.85
      vertex 20 239.8295 11.85
    endloop
  endfacet
  facet normal 0 1 0
    outer loop
      vertex 239.8295 257.8295 3.125
      vertex 74.95737 257.8295 3.125
      vertex 74.95737 257.8295 11.85
    endloop
  endfacet
  facet normal 0 1 -0
    outer loop
      vertex 239.8295 257.8295 3.125
      vertex 74.95737 257.8295 11.85
      vertex 239.8295 257.8295 5.925
    endloop
  endfacet
  facet normal 0 1 0
    outer loop
      vertex 74.95737 257.8295 3.125
      vertex 20 257.8295 3.125
      vertex 20 257.8295 11.85
    endloop
  endfacet
  facet normal 0 1 -0
    outer loop
      vertex 74.95737 257.8295 3.125
      vertex 20 257.8295 11.85
      vertex 74.95737 257.8295 11.85
    endloop
  endfacet
  facet normal 1 0 0
    outer loop
      vertex 239.8295 257.8295 3.125
      vertex 239.8295 239.8295 5.925
      vertex 239.8295 239.8295 3.125
    endloop
  endfacet
  facet normal 1 0 -0
    outer loop
      vertex 239.8295 257.8295 3.125
      vertex 239.8295 257.8295 5.925
      vertex 239.8295 239.8295 5.925
    endloop
  endfacet
  facet normal -1 0 0
    outer loop
      vertex 20 239.8295 3.125
      vertex 20 257.8295 11.85
      vertex 20 257.8295 3.125
    endloop
  endfacet
  facet normal -1 0 0
    outer loop
      vertex 20 239.8295 3.125
      vertex 20 239.8295 11.85
      vertex 20 257.8295 11.85
    endloop
  endfacet
  facet normal 0 0 -1
    outer loop
      vertex 239.8295 239.8295 3.125
      vertex 257.8295 74.95737 3.125
      vertex 239.8295 74.95737 3.125
    endloop
  endfacet
  facet normal 0 0 -1
    outer loop
      vertex 239.8295 239.8295 3.125
      vertex 257.8295 239.8295 3.125
      vertex 257.8295 74.95737 3.125
    endloop
  endfacet
  facet normal 0 0 -1
    outer loop
      vertex 239.8295 74.95737 3.125
      vertex 257.8295 20 3.125
      vertex 239.8295 20 3.125
    endloop
  endfacet
  facet normal 0 0 -1
    outer loop
      vertex 239.8295 74.95737 3.125
      vertex 257.8295 74.95737 3.125
      vertex 257.8295 20 3.125
    endloop
  endfacet
  facet normal 0 0.03591376 0.9993549
    outer loop
      vertex 239.8295 239.8295 5.925
      vertex 239.8295 74.95737 11.85
      vertex 257.8295 74.95737 11.85
    endloop
  endfacet
  facet normal -0 0.03591376 0.9993549
    outer loop
      vertex 239.8295 239.8295 5.925
      vertex 257.8295 74.95737 11.85
      vertex 257.8295 239.8295 5.925
    endloop
  endfacet
  facet normal 0 0 1
    outer loop
      vertex 239.8295 74.95737 11.85
      vertex 239.8295 20 11.85
      vertex 257.8295 20 11.85
    endloop
  endfacet
  facet normal -0 0 1
    outer loop
      vertex 239.8295 74.95737 11.85
      vertex 257.8295 20 11.85
      vertex 257.8295 74.95737 11.85
    endloop
  endfacet
  facet normal -1 0 0
    outer loop
      vertex 239.8295 239.8295 3.125
      vertex 239.8295 74.95737 3.125
      vertex 239.8295 74.95737 11.85
    endloop
  endfacet
  facet normal -1 0 0
    outer loop
      vertex 239.8295 239.8295 3.125
      vertex 239.8295 74.95737 11.85
      vertex 239.8295 239.8295 5.925
    endloop
  endfacet
  facet normal -1 0 0
    outer loop
      vertex 239.8295 74.95737 3.125
      vertex 239.8295 20 3.125
      vertex 239.8295 20 11.85
    endloop
  endfacet
  facet normal -1 0 0
    outer loop
      vertex 239.8295 74.95737 3.125
      vertex 239.8295 20 11.85
      vertex 239.8295 74.95737 11.85
    endloop
  endfacet
  facet normal 1 0 0
    outer loop
      vertex 257.8295 239.8295 3.125
      vertex 257.8295 74.95737 11.85
      vertex 257.8295 74.95737 3.125
    endloop
  endfacet
  facet normal 1 0 -0
    outer loop
      vertex 257.8295 239.8295 3.125
      vertex 257.8295 239.8295 5.925
      vertex 257.8295 74.95737 11.85
    endloop
  endfacet
  facet normal 1 0 0
    outer loop
      vertex 257.8295 74.95737 3.125
      vertex 257.8295 20 11.85
      vertex 257.8295 20 3.125
    endloop
  endfacet
  facet normal 1 0 -0
    outer loop
      vertex 257.8295 74.95737 3.125
      vertex 257.8295 74.95737 11.85
      vertex 257.8295 20 11.85
    endloop
  endfacet
  facet normal 0 1 0
    outer loop
      vertex 257.8295 239.8295 3.125
      vertex 239.8295 239.8295 3.125
      vertex 239.8295 239.8295 5.925
    endloop
  endfacet
  facet normal 0 1 -0
    outer loop
      vertex 257.8295 239.8295 3.125
      vertex 239.8295 239.8295 5.925
      vertex 257.8295 239.8295 5.925
    endloop
  endfacet
  facet normal 0 -1 0
    outer loop
      vertex 239.8295 20 3.125
      vertex 257.8295 20 3.125
      vertex 257.8295 20 11.85
    endloop
  endfacet
  facet normal 0 -1 0
    outer loop
      vertex 239.8295 20 3.125
      vertex 257.8295 20 11.85
      vertex 239.8295 20 11.85
    endloop
  endfacet
  facet normal 0 0 -1
    outer loop
      vertex 20 20 3.125
      vertex 184.8721 20 3.125
      vertex 184.8721 2 3.125
    endloop
  endfacet
  facet normal 0 0 -1
    outer loop
      vertex 20 20 3.125
      vertex 184.8721 2 3.125
      vertex 20 2 3.125
    endloop
  endfacet
  facet normal 0 0 -1
    outer loop
      vertex 184.8721 20 3.125
      vertex 239.8295 20 3.125
      vertex 239.8295 2 3.125
    endloop
  endfacet
  facet normal 0 0 -1
    outer loop
      vertex 184.8721 20 3.125
      vertex 239.8295 2 3.125
      vertex 184.8721 2 3.125
    endloop
  endfacet
  facet normal -0.03591376 0 0.9993549
    outer loop
      vertex 20 20 5.925
      vertex 184.8721 2 11.85
      vertex 184.8721 20 11.85
    endloop
  endfacet
  facet normal -0.03591376 0 0.9993549
    outer loop
      vertex 20 20 5.925
      vertex 20 2 5.925
      vertex 184.8721 2 11.85
    endloop
  endfacet
  facet normal -0 0 1
    outer loop
      vertex 184.8721 20 11.85
      vertex 239.8295 2 11.85
      vertex 239.8295 20 11.85
    endloop
  endfacet
  facet normal 0 0 1
    outer loop
      vertex 184.8721 20 11.85
      vertex 184.8721 2 11.85
      vertex 239.8295 2 11.85
    endloop
  endfacet
  facet normal 0 1 0
    outer loop
      vertex 20 20 3.125
      vertex 184.8721 20 11.85
      vertex 184.8721 20 3.125
    endloop
  endfacet
  facet normal 0 1 0
    outer loop
      vertex 20 20 3.125
      vertex 20 20 5.925
      vertex 184.8721 20 11.85
    endloop
  endfacet
  facet normal 0 1 0
    outer loop
      vertex 184.8721 20 3.125
      vertex 239.8295 20 11.85
      vertex 239.8295 20 3.125
    endloop
  endfacet
  facet normal 0 1 0
    outer loop
      vertex 184.8721 20 3.125
      vertex 184.8721 20 11.85
      vertex 239.8295 20 11.85
    endloop
  endfacet
  facet normal 0 -1 0
    outer loop
      vertex 20 2 3.125
      vertex 184.8721 2 3.125
      vertex 184.8721 2 11.85
    endloop
  endfacet
  facet normal 0 -1 0
    outer loop
      vertex 20 2 3.125
      vertex 184.8721 2 11.85
      vertex 20 2 5.925
    endloop
  endfacet
  facet normal 0 -1 0
    outer loop
      vertex 184.8721 2 3.125
      vertex 239.8295 2 3.125
      vertex 239.8295 2 11.85
    endloop
  endfacet
  facet normal 0 -1 0
    outer loop
      vertex 184.8721 2 3.125
      vertex 239.8295 2 11.85
      vertex 184.8721 2 11.85
    endloop
  endfacet
  facet normal -1 0 0
    outer loop
      vertex 20 2 3.125
      vertex 20 20 5.925
      vertex 20 20 3.125
    endloop
  endfacet
  facet normal -1 0 0
    outer loop
      vertex 20 2 3.125
      vertex 20 2 5.925
      vertex 20 20 5.925
    endloop
  endfacet
  facet normal 1 0 0
    outer loop
      vertex 239.8295 20 3.125
      vertex 239.8295 2 11.85
      vertex 239.8295 2 3.125
    endloop
  endfacet
  facet normal 1 0 -0
    outer loop
      vertex 239.8295 20 3.125
      vertex 239.8295 20 11.85
      vertex 239.8295 2 11.85
    endloop
  endfacet
  facet normal 0 0 -1
    outer loop
      vertex 20 20 3.125
      vertex 2 184.8721 3.125
      vertex 20 184.8721 3.125
    endloop
  endfacet
  facet normal 0 0 -1
    outer loop
      vertex 20 20 3.125
      vertex 2 20 3.125
      vertex 2 184.8721 3.125
    endloop
  endfacet
  facet normal 0 0 -1
    outer loop
      vertex 20 184.8721 3.125
      vertex 2 239.8295 3.125
      vertex 20 239.8295 3.125
    endloop
  endfacet
  facet normal 0 0 -1
    outer loop
      vertex 20 184.8721 3.125
      vertex 2 184.8721 3.125
      vertex 2 239.8295 3.125
    endloop
  endfacet
  facet normal 0 -0.03591376 0.9993549
    outer loop
      vertex 20 20 5.925
      vertex 20 184.8721 11.85
      vertex 2 184.8721 11.85
    endloop
  endfacet
  facet normal 0 -0.03591376 0.9993549
    outer loop
      vertex 20 20 5.925
      vertex 2 184.8721 11.85
      vertex 2 20 5.925
    endloop
  endfacet
  facet normal 0 -0 1
    outer loop
      vertex 20 184.8721 11.85
      vertex 20 239.8295 11.85
      vertex 2 239.8295 11.85
    endloop
  endfacet
  facet normal 0 0 1
    outer loop
      vertex 20 184.8721 11.85
      vertex 2 239.8295 11.85
      vertex 2 184.8721 11.85
    endloop
  endfacet
  facet normal 1 0 0
    outer loop
      vertex 20 20 3.125
      vertex 20 184.8721 3.125
      vertex 20 184.8721 11.85
    endloop
  endfacet
  facet normal 1 0 0
    outer loop
      vertex 20 20 3.125
      vertex 20 184.8721 11.85
      vertex 20 20 5.925
    endloop
  endfacet
  facet normal 1 0 0
    outer loop
      vertex 20 184.8721 3.125
      vertex 20 239.8295 3.125
      vertex 20 239.8295 11.85
    endloop
  endfacet
  facet normal 1 0 0
    outer loop
      vertex 20 184.8721 3.125
      vertex 20 239.8295 11.85
      vertex 20 184.8721 11.85
    endloop
  endfacet
  facet normal -1 0 0
    outer loop
      vertex 2 20 3.125
      vertex 2 184.8721 11.85
      vertex 2 184.8721 3.125
    endloop
  endfacet
  facet normal -1 0 0
    outer loop
      vertex 2 20 3.125
      vertex 2 20 5.925
      vertex 2 184.8721 11.85
    endloop
  endfacet
  facet normal -1 0 0
    outer loop
      vertex 2 184.8721 3.125
      vertex 2 239.8295 11.85
      vertex 2 239.8295 3.125
    endloop
  endfacet
  facet normal -1 0 0
    outer loop
      vertex 2 184.8721 3.125
      vertex 2 184.8721 11.85
      vertex 2 239.8295 11.85
    endloop
  endfacet
  facet normal 0 -1 0
    outer loop
      vertex 2 20 3.125
      vertex 20 20 3.125
      vertex 20 20 5.925
    endloop
  endfacet
  facet normal 0 -1 0
    outer loop
      vertex 2 20 3.125
      vertex 20 20 5.925
      vertex 2 20 5.925
    endloop
  endfacet
  facet normal 0 1 0
    outer loop
      vertex 20 239.8295 3.125
      vertex 2 239.8295 3.125
      vertex 2 239.8295 11.85
    endloop
  endfacet
  facet normal 0 1 -0
    outer loop
      vertex 20 239.8295 3.125
      vertex 2 239.8295 11.85
      vertex 20 239.8295 11.85
    endloop
  endfacet
  facet normal 0 0 1
    outer loop
      vertex 239.8295 257.8295 5.925
      vertex 239.8295 239.8295 5.925
      vertex 257.8295 239.8295 5.925
    endloop
  endfacet
  facet normal 0 0 -1
    outer loop
      vertex 257.8295 239.8295 3.125
      vertex 239.8295 239.8295 3.125
      vertex 239.8295 257.8295 3.125
    endloop
  endfacet
  facet normal 0 -0 1
    outer loop
      vertex 257.8295 239.8295 5.925
      vertex 257.8295 251.5295 5.925
      vertex 251.5295 251.5295 5.925
    endloop
  endfacet
  facet normal 0 0 -1
    outer loop
      vertex 251.5295 251.5295 3.125
      vertex 257.8295 251.5295 3.125
      vertex 257.8295 239.8295 3.125
    endloop
  endfacet
  facet normal 0 0 1
    outer loop
      vertex 239.8295 257.8295 5.925
      vertex 257.8295 239.8295 5.925
      vertex 251.5295 251.5295 5.925
    endloop
  endfacet
  facet normal -0 -0 -1
    outer loop
      vertex 251.5295 251.5295 3.125
      vertex 257.8295 239.8295 3.125
      vertex 239.8295 257.8295 3.125
    endloop
  endfacet
  facet normal 0 -0 1
    outer loop
      vertex 251.5295 251.5295 5.925
      vertex 251.5295 257.8295 5.925
      vertex 239.8295 257.8295 5.925
    endloop
  endfacet
  facet normal 0 0 -1
    outer loop
      vertex 239.8295 257.8295 3.125
      vertex 251.5295 257.8295 3.125
      vertex 251.5295 251.5295 3.125
    endloop
  endfacet
  facet normal 0 -1 0
    outer loop
      vertex 239.8295 239.8295 3.125
      vertex 257.8295 239.8295 3.125
      vertex 257.8295 239.8295 5.925
    endloop
  endfacet
  facet normal 0 -1 0
    outer loop
      vertex 239.8295 239.8295 3.125
      vertex 257.8295 239.8295 5.925
      vertex 239.8295 239.8295 5.925
    endloop
  endfacet
  facet normal 1 0 0
    outer loop
      vertex 257.8295 239.8295 3.125
      vertex 257.8295 251.5295 3.125
      vertex 257.8295 251.5295 5.925
    endloop
  endfacet
  facet normal 1 0 0
    outer loop
      vertex 257.8295 239.8295 3.125
      vertex 257.8295 251.5295 5.925
      vertex 257.8295 239.8295 5.925
    endloop
  endfacet
  facet normal 0 1 0
    outer loop
      vertex 257.8295 251.5295 3.125
      vertex 251.5295 251.5295 3.125
      vertex 251.5295 251.5295 5.925
    endloop
  endfacet
  facet normal 0 1 -0
    outer loop
      vertex 257.8295 251.5295 3.125
      vertex 251.5295 251.5295 5.925
      vertex 257.8295 251.5295 5.925
    endloop
  endfacet
  facet normal 1 0 0
    outer loop
      vertex 251.5295 251.5295 3.125
      vertex 251.5295 257.8295 3.125
      vertex 251.5295 257.8295 5.925
    endloop
  endfacet
  facet normal 1 0 0
    outer loop
      vertex 251.5295 251.5295 3.125
      vertex 251.5295 257.8295 5.925
      vertex 251.5295 251.5295 5.925
    endloop
  endfacet
  facet normal 0 1 0
    outer loop
      vertex 251.5295 257.8295 3.125
      vertex 239.8295 257.8295 3.125
      vertex 239.8295 257.8295 5.925
    endloop
  endfacet
  facet normal 0 1 -0
    outer loop
      vertex 251.5295 257.8295 3.125
      vertex 239.8295 257.8295 5.925
      vertex 251.5295 257.8295 5.925
    endloop
  endfacet
  facet normal -1 0 0
    outer loop
      vertex 239.8295 257.8295 3.125
      vertex 239.8295 239.8295 3.125
      vertex 239.8295 239.8295 5.925
    endloop
  endfacet
  facet normal -1 0 0
    outer loop
      vertex 239.8295 257.8295 3.125
      vertex 239.8295 239.8295 5.925
      vertex 239.8295 257.8295 5.925
    endloop
  endfacet
  facet normal 0 0 1
    outer loop
      vertex 239.8295 20 11.85
      vertex 239.8295 2 11.85
      vertex 251.5295 2 11.85
    endloop
  endfacet
  facet normal 0 0 -1
    outer loop
      vertex 251.5295 2 3.125
      vertex 239.8295 2 3.125
      vertex 239.8295 20 3.125
    endloop
  endfacet
  facet normal 0 0 1
    outer loop
      vertex 239.8295 20 11.85
      vertex 251.5295 2 11.85
      vertex 251.5295 8.3 11.85
    endloop
  endfacet
  facet normal -0 -0 -1
    outer loop
      vertex 251.5295 8.3 3.125
      vertex 251.5295 2 3.125
      vertex 239.8295 20 3.125
    endloop
  endfacet
  facet normal 0 0 1
    outer loop
      vertex 239.8295 20 11.85
      vertex 251.5295 8.3 11.85
      vertex 257.8295 8.3 11.85
    endloop
  endfacet
  facet normal 0 0 -1
    outer loop
      vertex 257.8295 8.3 3.125
      vertex 251.5295 8.3 3.125
      vertex 239.8295 20 3.125
    endloop
  endfacet
  facet normal 0 -0 1
    outer loop
      vertex 257.8295 8.3 11.85
      vertex 257.8295 20 11.85
      vertex 239.8295 20 11.85
    endloop
  endfacet
  facet normal 0 0 -1
    outer loop
      vertex 239.8295 20 3.125
      vertex 257.8295 20 3.125
      vertex 257.8295 8.3 3.125
    endloop
  endfacet
  facet normal 0 -1 0
    outer loop
      vertex 239.8295 2 3.125
      vertex 251.5295 2 3.125
      vertex 251.5295 2 11.85
    endloop
  endfacet
  facet normal 0 -1 0
    outer loop
      vertex 239.8295 2 3.125
      vertex 251.5295 2 11.85
      vertex 239.8295 2 11.85
    endloop
  endfacet
  facet normal 1 0 0
    outer loop
      vertex 251.5295 2 3.125
      vertex 251.5295 8.3 3.125
      vertex 251.5295 8.3 11.85
    endloop
  endfacet
  facet normal 1 0 0
    outer loop
      vertex 251.5295 2 3.125
      vertex 251.5295 8.3 11.85
      vertex 251.5295 2 11.85
    endloop
  endfacet
  facet normal 0 -1 0
    outer loop
      vertex 251.5295 8.3 3.125
      vertex 257.8295 8.3 3.125
      vertex 257.8295 8.3 11.85
    endloop
  endfacet
  facet normal 0 -1 0
    outer loop
      vertex 251.5295 8.3 3.125
      vertex 257.8295 8.3 11.85
      vertex 251.5295 8.3 11.85
    endloop
  endfacet
  facet normal 1 0 0
    outer loop
      vertex 257.8295 8.3 3.125
      vertex 257.8295 20 3.125
      vertex 257.8295 20 11.85
    endloop
  endfacet
  facet normal 1 0 0
    outer loop
      vertex 257.8295 8.3 3.125
      vertex 257.8295 20 11.85
      vertex 257.8295 8.3 11.85
    endloop
  endfacet
  facet normal 0 1 0
    outer loop
      vertex 257.8295 20 3.125
      vertex 239.8295 20 3.125
      vertex 239.8295 20 11.85
    endloop
  endfacet
  facet normal 0 1 -0
    outer loop
      vertex 257.8295 20 3.125
      vertex 239.8295 20 11.85
      vertex 257.8295 20 11.85
    endloop
  endfacet
  facet normal -1 0 0
    outer loop
      vertex 239.8295 20 3.125
      vertex 239.8295 2 3.125
      vertex 239.8295 2 11.85
    endloop
  endfacet
  facet normal -1 0 0
    outer loop
      vertex 239.8295 20 3.125
      vertex 239.8295 2 11.85
      vertex 239.8295 20 11.85
    endloop
  endfacet
  facet normal 0 0 1
    outer loop
      vertex 8.3 8.3 5.925
      vertex 8.3 2 5.925
      vertex 20 2 5.925
    endloop
  endfacet
  facet normal 0 0 -1
    outer loop
      vertex 20 2 3.125
      vertex 8.3 2 3.125
      vertex 8.3 8.3 3.125
    endloop
  endfacet
  facet normal -0 0 1
    outer loop
      vertex 8.3 8.3 5.925
      vertex 20 2 5.925
      vertex 20 20 5.925
    endloop
  endfacet
  facet normal 0 -0 -1
    outer loop
      vertex 20 20 3.125
      vertex 20 2 3.125
      vertex 8.3 8.3 3.125
    endloop
  endfacet
  facet normal 0 -0 1
    outer loop
      vertex 8.3 8.3 5.925
      vertex 20 20 5.925
      vertex 2 20 5.925
    endloop
  endfacet
  facet normal 0 0 -1
    outer loop
      vertex 2 20 3.125
      vertex 20 20 3.125
      vertex 8.3 8.3 3.125
    endloop
  endfacet
  facet normal 0 0 1
    outer loop
      vertex 2 20 5.925
      vertex 2 8.3 5.925
      vertex 8.3 8.3 5.925
    endloop
  endfacet
  facet normal 0 0 -1
    outer loop
      vertex 8.3 8.3 3.125
      vertex 2 8.3 3.125
      vertex 2 20 3.125
    endloop
  endfacet
  facet normal 0 -1 0
    outer loop
      vertex 8.3 2 3.125
      vertex 20 2 3.125
      vertex 20 2 5.925
    endloop
  endfacet
  facet normal 0 -1 0
    outer loop
      vertex 8.3 2 3.125
      vertex 20 2 5.925
      vertex 8.3 2 5.925
    endloop
  endfacet
  facet normal 1 0 0
    outer loop
      vertex 20 2 3.125
      vertex 20 20 3.125
      vertex 20 20 5.925
    endloop
  endfacet
  facet normal 1 0 0
    outer loop
      vertex 20 2 3.125
      vertex 20 20 5.925
      vertex 20 2 5.925
    endloop
  endfacet
  facet normal 0 1 0
    outer loop
      vertex 20 20 3.125
      vertex 2 20 3.125
      vertex 2 20 5.925
    endloop
  endfacet
  facet normal 0 1 -0
    outer loop
      vertex 20 20 3.125
      vertex 2 20 5.925
      vertex 20 20 5.925
    endloop
  endfacet
  facet normal -1 0 0
    outer loop
      vertex 2 20 3.125
      vertex 2 8.3 3.125
      vertex 2 8.3 5.925
    endloop
  endfacet
  facet normal -1 0 0
    outer loop
      vertex 2 20 3.125
      vertex 2 8.3 5.925
      vertex 2 20 5.925
    endloop
  endfacet
  facet normal 0 -1 0
    outer loop
      vertex 2 8.3 3.125
      vertex 8.3 8.3 3.125
      vertex 8.3 8.3 5.925
    endloop
  endfacet
  facet normal 0 -1 0
    outer loop
      vertex 2 8.3 3.125
      vertex 8.3 8.3 5.925
      vertex 2 8.3 5.925
    endloop
  endfacet
  facet normal -1 0 0
    outer loop
      vertex 8.3 8.3 3.125
      vertex 8.3 2 3.125
      vertex 8.3 2 5.925
    endloop
  endfacet
  facet normal -1 0 0
    outer loop
      vertex 8.3 8.3 3.125
      vertex 8.3 2 5.925
      vertex 8.3 8.3 5.925
    endloop
  endfacet
  facet normal 0 0 1
    outer loop
      vertex 2 251.5295 11.85
      vertex 2 239.8295 11.85
      vertex 20 239.8295 11.85
    endloop
  endfacet
  facet normal 0 0 -1
    outer loop
      vertex 20 239.8295 3.125
      vertex 2 239.8295 3.125
      vertex 2 251.5295 3.125
    endloop
  endfacet
  facet normal 0 -0 1
    outer loop
      vertex 20 239.8295 11.85
      vertex 20 257.8295 11.85
      vertex 8.3 257.8295 11.85
    endloop
  endfacet
  facet normal 0 0 -1
    outer loop
      vertex 8.3 257.8295 3.125
      vertex 20 257.8295 3.125
      vertex 20 239.8295 3.125
    endloop
  endfacet
  facet normal 0 0 1
    outer loop
      vertex 20 239.8295 11.85
      vertex 8.3 257.8295 11.85
      vertex 8.3 251.5295 11.85
    endloop
  endfacet
  facet normal 0 0 -1
    outer loop
      vertex 8.3 251.5295 3.125
      vertex 8.3 257.8295 3.125
      vertex 20 239.8295 3.125
    endloop
  endfacet
  facet normal 0 0 1
    outer loop
      vertex 20 239.8295 11.85
      vertex 8.3 251.5295 11.85
      vertex 2 251.5295 11.85
    endloop
  endfacet
  facet normal 0 0 -1
    outer loop
      vertex 2 251.5295 3.125
      vertex 8.3 251.5295 3.125
      vertex 20 239.8295 3.125
    endloop
  endfacet
  facet normal 0 -1 0
    outer loop
      vertex 2 239.8295 3.125
      vertex 20 239.8295 3.125
      vertex 20 239.8295 11.85
    endloop
  endfacet
  facet normal 0 -1 0
    outer loop
      vertex 2 239.8295 3.125
      vertex 20 239.8295 11.85
      vertex 2 239.8295 11.85
    endloop
  endfacet
  facet normal 1 0 0
    outer loop
      vertex 20 239.8295 3.125
      vertex 20 257.8295 3.125
      vertex 20 257.8295 11.85
    endloop
  endfacet
  facet normal 1 0 0
    outer loop
      vertex 20 239.8295 3.125
      vertex 20 257.8295 11.85
      vertex 20 239.8295 11.85
    endloop
  endfacet
  facet normal 0 1 0
    outer loop
      vertex 20 257.8295 3.125
      vertex 8.3 257.8295 3.125
      vertex 8.3 257.8295 11.85
    endloop
  endfacet
  facet normal 0 1 -0
    outer loop
      vertex 20 257.8295 3.125
      vertex 8.3 257.8295 11.85
      vertex 20 257.8295 11.85
    endloop
  endfacet
  facet normal -1 0 0
    outer loop
      vertex 8.3 257.8295 3.125
      vertex 8.3 251.5295 3.125
      vertex 8.3 251.5295 11.85
    endloop
  endfacet
  facet normal -1 0 0
    outer loop
      vertex 8.3 257.8295 3.125
      vertex 8.3 251.5295 11.85
      vertex 8.3 257.8295 11.85
    endloop
  endfacet
  facet normal 0 1 0
    outer loop
      vertex 8.3 251.5295 3.125
      vertex 2 251.5295 3.125
      vertex 2 251.5295 11.85
    endloop
  endfacet
  facet normal 0 1 -0
    outer loop
      vertex 8.3 251.5295 3.125
      vertex 2 251.5295 11.85
      vertex 8.3 251.5295 11.85
    endloop
  endfacet
  facet normal -1 0 0
    outer loop
      vertex 2 251.5295 3.125
      vertex 2 239.8295 3.125
      vertex 2 239.8295 11.85
    endloop
  endfacet
  facet normal -1 0 0
    outer loop
      vertex 2 251.5295 3.125
      vertex 2 239.8295 11.85
      vertex 2 251.5295 11.85
    endloop
  endfacet
endsolid temporary_switchback_ramp_layer_02
