solid temporary_switchback_ramp_layer_03
  facet normal 0 0 1
    outer loop
      vertex 2 8.65 3.125
      vertex 8.65 8.65 3.125
      vertex 8.65 19.65 3.125
    endloop
  endfacet
  facet normal 0 0 1
    outer loop
      vertex 2 8.65 3.125
      vertex 8.65 19.65 3.125
      vertex 2 19.65 3.125
    endloop
  endfacet
  facet normal 0 0 -1
    outer loop
      vertex 2 19.65 0
      vertex 8.65 19.65 0
      vertex 8.65 8.65 0
    endloop
  endfacet
  facet normal 0 0 -1
    outer loop
      vertex 2 19.65 0
      vertex 8.65 8.65 0
      vertex 2 8.65 0
    endloop
  endfacet
  facet normal 0 -1 0
    outer loop
      vertex 2 8.65 0
      vertex 8.65 8.65 0
      vertex 8.65 8.65 3.125
    endloop
  endfacet
  facet normal 0 -1 0
    outer loop
      vertex 2 8.65 0
      vertex 8.65 8.65 3.125
      vertex 2 8.65 3.125
    endloop
  endfacet
  facet normal -1 0 0
    outer loop
      vertex 2 19.65 0
      vertex 2 8.65 0
      vertex 2 8.65 3.125
    endloop
  endfacet
  facet normal -1 0 0
    outer loop
      vertex 2 19.65 0
      vertex 2 8.65 3.125
      vertex 2 19.65 3.125
    endloop
  endfacet
  facet normal 0 0 1
    outer loop
      vertex 2 19.65 3.125
      vertex 8.65 19.65 3.125
      vertex 8.65 230.8671 3.125
    endloop
  endfacet
  facet normal 0 0 1
    outer loop
      vertex 2 19.65 3.125
      vertex 8.65 230.8671 3.125
      vertex 2 230.8671 3.125
    endloop
  endfacet
  facet normal 0 0 -1
    outer loop
      vertex 2 230.8671 0
      vertex 8.65 230.8671 0
      vertex 8.65 19.65 0
    endloop
  endfacet
  facet normal 0 0 -1
    outer loop
      vertex 2 230.8671 0
      vertex 8.65 19.65 0
      vertex 2 19.65 0
    endloop
  endfacet
  facet normal -1 0 0
    outer loop
      vertex 2 230.8671 0
      vertex 2 19.65 0
      vertex 2 19.65 3.125
    endloop
  endfacet
  facet normal -1 0 0
    outer loop
      vertex 2 230.8671 0
      vertex 2 19.65 3.125
      vertex 2 230.8671 3.125
    endloop
  endfacet
  facet normal 0 0 1
    outer loop
      vertex 2 230.8671 3.125
      vertex 8.65 230.8671 3.125
      vertex 8.65 241.8671 3.125
    endloop
  endfacet
  facet normal 0 0 1
    outer loop
      vertex 2 230.8671 3.125
      vertex 8.65 241.8671 3.125
      vertex 2 241.8671 3.125
    endloop
  endfacet
  facet normal 0 0 -1
    outer loop
      vertex 2 241.8671 0
      vertex 8.65 241.8671 0
      vertex 8.65 230.8671 0
    endloop
  endfacet
  facet normal 0 0 -1
    outer loop
      vertex 2 241.8671 0
      vertex 8.65 230.8671 0
      vertex 2 230.8671 0
    endloop
  endfacet
  facet normal 0 1 0
    outer loop
      vertex 8.65 241.8671 0
      vertex 2 241.8671 0
      vertex 2 241.8671 3.125
    endloop
  endfacet
  facet normal 0 1 -0
    outer loop
      vertex 8.65 241.8671 0
      vertex 2 241.8671 3.125
      vertex 8.65 241.8671 3.125
    endloop
  endfacet
  facet normal -1 0 0
    outer loop
      vertex 2 241.8671 0
      vertex 2 230.8671 0
      vertex 2 230.8671 3.125
    endloop
  endfacet
  facet normal -1 0 0
    outer loop
      vertex 2 241.8671 0
      vertex 2 230.8671 3.125
      vertex 2 241.8671 3.125
    endloop
  endfacet
  facet normal 0 0 1
    outer loop
      vertex 8.65 2 3.125
      vertex 19.65 2 3.125
      vertex 19.65 8.65 3.125
    endloop
  endfacet
  facet normal 0 0 1
    outer loop
      vertex 8.65 2 3.125
      vertex 19.65 8.65 3.125
      vertex 8.65 8.65 3.125
    endloop
  endfacet
  facet normal 0 0 -1
    outer loop
      vertex 8.65 8.65 0
      vertex 19.65 8.65 0
      vertex 19.65 2 0
    endloop
  endfacet
  facet normal 0 0 -1
    outer loop
      vertex 8.65 8.65 0
      vertex 19.65 2 0
      vertex 8.65 2 0
    endloop
  endfacet
  facet normal 0 -1 0
    outer loop
      vertex 8.65 2 0
      vertex 19.65 2 0
      vertex 19.65 2 3.125
    endloop
  endfacet
  facet normal 0 -1 0
    outer loop
      vertex 8.65 2 0
      vertex 19.65 2 3.125
      vertex 8.65 2 3.125
    endloop
  endfacet
  facet normal -1 0 0
    outer loop
      vertex 8.65 8.65 0
      vertex 8.65 2 0
      vertex 8.65 2 3.125
    endloop
  endfacet
  facet normal -1 0 0
    outer loop
      vertex 8.65 8.65 0
      vertex 8.65 2 3.125
      vertex 8.65 8.65 3.125
    endloop
  endfacet
  facet normal 0 0 1
    outer loop
      vertex 8.65 8.65 3.125
      vertex 19.65 8.65 3.125
      vertex 19.65 19.65 3.125
    endloop
  endfacet
  facet normal 0 0 1
    outer loop
      vertex 8.65 8.65 3.125
      vertex 19.65 19.65 3.125
      vertex 8.65 19.65 3.125
    endloop
  endfacet
  facet normal 0 0 -1
    outer loop
      vertex 8.65 19.65 0
      vertex 19.65 19.65 0
      vertex 19.65 8.65 0
    endloop
  endfacet
  facet normal 0 0 -1
    outer loop
      vertex 8.65 19.65 0
      vertex 19.65 8.65 0
      vertex 8.65 8.65 0
    endloop
  endfacet
  facet normal 0 0 1
    outer loop
      vertex 8.65 19.65 3.125
      vertex 19.65 19.65 3.125
      vertex 19.65 230.8671 3.125
    endloop
  endfacet
  facet normal 0 0 1
    outer loop
      vertex 8.65 19.65 3.125
      vertex 19.65 230.8671 3.125
      vertex 8.65 230.8671 3.125
    endloop
  endfacet
  facet normal 0 0 -1
    outer loop
      vertex 8.65 230.8671 0
      vertex 19.65 230.8671 0
      vertex 19.65 19.65 0
    endloop
  endfacet
  facet normal 0 0 -1
    outer loop
      vertex 8.65 230.8671 0
      vertex 19.65 19.65 0
      vertex 8.65 19.65 0
    endloop
  endfacet
  facet normal 1 0 0
    outer loop
      vertex 19.65 19.65 0
      vertex 19.65 230.8671 0
      vertex 19.65 230.8671 3.125
    endloop
  endfacet
  facet normal 1 0 0
    outer loop
      vertex 19.65 19.65 0
      vertex 19.65 230.8671 3.125
      vertex 19.65 19.65 3.125
    endloop
  endfacet
  facet normal 0 0 1
    outer loop
      vertex 8.65 230.8671 3.125
      vertex 19.65 230.8671 3.125
      vertex 19.65 241.8671 3.125
    endloop
  endfacet
  facet normal 0 0 1
    outer loop
      vertex 8.65 230.8671 3.125
      vertex 19.65 241.8671 3.125
      vertex 8.65 241.8671 3.125
    endloop
  endfacet
  facet normal 0 0 -1
    outer loop
      vertex 8.65 241.8671 0
      vertex 19.65 241.8671 0
      vertex 19.65 230.8671 0
    endloop
  endfacet
  facet normal 0 0 -1
    outer loop
      vertex 8.65 241.8671 0
      vertex 19.65 230.8671 0
      vertex 8.65 230.8671 0
    endloop
  endfacet
  facet normal 0 0 1
    outer loop
      vertex 8.65 241.8671 3.125
      vertex 19.65 241.8671 3.125
      vertex 19.65 248.5171 3.125
    endloop
  endfacet
  facet normal 0 0 1
    outer loop
      vertex 8.65 241.8671 3.125
      vertex 19.65 248.5171 3.125
      vertex 8.65 248.5171 3.125
    endloop
  endfacet
  facet normal 0 0 -1
    outer loop
      vertex 8.65 248.5171 0
      vertex 19.65 248.5171 0
      vertex 19.65 241.8671 0
    endloop
  endfacet
  facet normal 0 0 -1
    outer loop
      vertex 8.65 248.5171 0
      vertex 19.65 241.8671 0
      vertex 8.65 241.8671 0
    endloop
  endfacet
  facet normal 0 1 0
    outer loop
      vertex 19.65 248.5171 0
      vertex 8.65 248.5171 0
      vertex 8.65 248.5171 3.125
    endloop
  endfacet
  facet normal 0 1 -0
    outer loop
      vertex 19.65 248.5171 0
      vertex 8.65 248.5171 3.125
      vertex 19.65 248.5171 3.125
    endloop
  endfacet
  facet normal -1 0 0
    outer loop
      vertex 8.65 248.5171 0
      vertex 8.65 241.8671 0
      vertex 8.65 241.8671 3.125
    endloop
  endfacet
  facet normal -1 0 0
    outer loop
      vertex 8.65 248.5171 0
      vertex 8.65 241.8671 3.125
      vertex 8.65 248.5171 3.125
    endloop
  endfacet
  facet normal 0 0 1
    outer loop
      vertex 19.65 2 3.125
      vertex 230.8671 2 3.125
      vertex 230.8671 8.65 3.125
    endloop
  endfacet
  facet normal 0 0 1
    outer loop
      vertex 19.65 2 3.125
      vertex 230.8671 8.65 3.125
      vertex 19.65 8.65 3.125
    endloop
  endfacet
  facet normal 0 0 -1
    outer loop
      vertex 19.65 8.65 0
      vertex 230.8671 8.65 0
      vertex 230.8671 2 0
    endloop
  endfacet
  facet normal 0 0 -1
    outer loop
      vertex 19.65 8.65 0
      vertex 230.8671 2 0
      vertex 19.65 2 0
    endloop
  endfacet
  facet normal 0 -1 0
    outer loop
      vertex 19.65 2 0
      vertex 230.8671 2 0
      vertex 230.8671 2 3.125
    endloop
  endfacet
  facet normal 0 -1 0
    outer loop
      vertex 19.65 2 0
      vertex 230.8671 2 3.125
      vertex 19.65 2 3.125
    endloop
  endfacet
  facet normal 0 0 1
    outer loop
      vertex 19.65 8.65 3.125
      vertex 230.8671 8.65 3.125
      vertex 230.8671 19.65 3.125
    endloop
  endfacet
  facet normal 0 0 1
    outer loop
      vertex 19.65 8.65 3.125
      vertex 230.8671 19.65 3.125
      vertex 19.65 19.65 3.125
    endloop
  endfacet
  facet normal 0 0 -1
    outer loop
      vertex 19.65 19.65 0
      vertex 230.8671 19.65 0
      vertex 230.8671 8.65 0
    endloop
  endfacet
  facet normal 0 0 -1
    outer loop
      vertex 19.65 19.65 0
      vertex 230.8671 8.65 0
      vertex 19.65 8.65 0
    endloop
  endfacet
  facet normal 0 1 0
    outer loop
      vertex 230.8671 19.65 0
      vertex 19.65 19.65 0
      vertex 19.65 19.65 3.125
    endloop
  endfacet
  facet normal 0 1 -0
    outer loop
      vertex 230.8671 19.65 0
      vertex 19.65 19.65 3.125
      vertex 230.8671 19.65 3.125
    endloop
  endfacet
  facet normal 0 0 1
    outer loop
      vertex 19.65 230.8671 3.125
      vertex 230.8671 230.8671 3.125
      vertex 230.8671 241.8671 3.125
    endloop
  endfacet
  facet normal 0 0 1
    outer loop
      vertex 19.65 230.8671 3.125
      vertex 230.8671 241.8671 3.125
      vertex 19.65 241.8671 3.125
    endloop
  endfacet
  facet normal 0 0 -1
    outer loop
      vertex 19.65 241.8671 0
      vertex 230.8671 241.8671 0
      vertex 230.8671 230.8671 0
    endloop
  endfacet
  facet normal 0 0 -1
    outer loop
      vertex 19.65 241.8671 0
      vertex 230.8671 230.8671 0
      vertex 19.65 230.8671 0
    endloop
  endfacet
  facet normal 0 -1 0
    outer loop
      vertex 19.65 230.8671 0
      vertex 230.8671 230.8671 0
      vertex 230.8671 230.8671 3.125
    endloop
  endfacet
  facet normal 0 -1 0
    outer loop
      vertex 19.65 230.8671 0
      vertex 230.8671 230.8671 3.125
      vertex 19.65 230.8671 3.125
    endloop
  endfacet
  facet normal 0 0 1
    outer loop
      vertex 19.65 241.8671 3.125
      vertex 230.8671 241.8671 3.125
      vertex 230.8671 248.5171 3.125
    endloop
  endfacet
  facet normal 0 0 1
    outer loop
      vertex 19.65 241.8671 3.125
      vertex 230.8671 248.5171 3.125
      vertex 19.65 248.5171 3.125
    endloop
  endfacet
  facet normal 0 0 -1
    outer loop
      vertex 19.65 248.5171 0
      vertex 230.8671 248.5171 0
      vertex 230.8671 241.8671 0
    endloop
  endfacet
  facet normal 0 0 -1
    outer loop
      vertex 19.65 248.5171 0
      vertex 230.8671 241.8671 0
      vertex 19.65 241.8671 0
    endloop
  endfacet
  facet normal 0 1 0
    outer loop
      vertex 230.8671 248.5171 0
      vertex 19.65 248.5171 0
      vertex 19.65 248.5171 3.125
    endloop
  endfacet
  facet normal 0 1 -0
    outer loop
      vertex 230.8671 248.5171 0
      vertex 19.65 248.5171 3.125
      vertex 230.8671 248.5171 3.125
    endloop
  endfacet
  facet normal 0 0 1
    outer loop
      vertex 230.8671 2 3.125
      vertex 241.8671 2 3.125
      vertex 241.8671 8.65 3.125
    endloop
  endfacet
  facet normal 0 0 1
    outer loop
      vertex 230.8671 2 3.125
      vertex 241.8671 8.65 3.125
      vertex 230.8671 8.65 3.125
    endloop
  endfacet
  facet normal 0 0 -1
    outer loop
      vertex 230.8671 8.65 0
      vertex 241.8671 8.65 0
      vertex 241.8671 2 0
    endloop
  endfacet
  facet normal 0 0 -1
    outer loop
      vertex 230.8671 8.65 0
      vertex 241.8671 2 0
      vertex 230.8671 2 0
    endloop
  endfacet
  facet normal 0 -1 0
    outer loop
      vertex 230.8671 2 0
      vertex 241.8671 2 0
      vertex 241.8671 2 3.125
    endloop
  endfacet
  facet normal 0 -1 0
    outer loop
      vertex 230.8671 2 0
      vertex 241.8671 2 3.125
      vertex 230.8671 2 3.125
    endloop
  endfacet
  facet normal 1 0 0
    outer loop
      vertex 241.8671 2 0
      vertex 241.8671 8.65 0
      vertex 241.8671 8.65 3.125
    endloop
  endfacet
  facet normal 1 0 0
    outer loop
      vertex 241.8671 2 0
      vertex 241.8671 8.65 3.125
      vertex 241.8671 2 3.125
    endloop
  endfacet
  facet normal 0 0 1
    outer loop
      vertex 230.8671 8.65 3.125
      vertex 241.8671 8.65 3.125
      vertex 241.8671 19.65 3.125
    endloop
  endfacet
  facet normal 0 0 1
    outer loop
      vertex 230.8671 8.65 3.125
      vertex 241.8671 19.65 3.125
      vertex 230.8671 19.65 3.125
    endloop
  endfacet
  facet normal 0 0 -1
    outer loop
      vertex 230.8671 19.65 0
      vertex 241.8671 19.65 0
      vertex 241.8671 8.65 0
    endloop
  endfacet
  facet normal 0 0 -1
    outer loop
      vertex 230.8671 19.65 0
      vertex 241.8671 8.65 0
      vertex 230.8671 8.65 0
    endloop
  endfacet
  facet normal 0 0 1
    outer loop
      vertex 230.8671 19.65 3.125
      vertex 241.8671 19.65 3.125
      vertex 241.8671 230.8671 3.125
    endloop
  endfacet
  facet normal 0 0 1
    outer loop
      vertex 230.8671 19.65 3.125
      vertex 241.8671 230.8671 3.125
      vertex 230.8671 230.8671 3.125
    endloop
  endfacet
  facet normal 0 0 -1
    outer loop
      vertex 230.8671 230.8671 0
      vertex 241.8671 230.8671 0
      vertex 241.8671 19.65 0
    endloop
  endfacet
  facet normal 0 0 -1
    outer loop
      vertex 230.8671 230.8671 0
      vertex 241.8671 19.65 0
      vertex 230.8671 19.65 0
    endloop
  endfacet
  facet normal -1 0 0
    outer loop
      vertex 230.8671 230.8671 0
      vertex 230.8671 19.65 0
      vertex 230.8671 19.65 3.125
    endloop
  endfacet
  facet normal -1 0 0
    outer loop
      vertex 230.8671 230.8671 0
      vertex 230.8671 19.65 3.125
      vertex 230.8671 230.8671 3.125
    endloop
  endfacet
  facet normal 0 0 1
    outer loop
      vertex 230.8671 230.8671 3.125
      vertex 241.8671 230.8671 3.125
      vertex 241.8671 241.8671 3.125
    endloop
  endfacet
  facet normal 0 0 1
    outer loop
      vertex 230.8671 230.8671 3.125
      vertex 241.8671 241.8671 3.125
      vertex 230.8671 241.8671 3.125
    endloop
  endfacet
  facet normal 0 0 -1
    outer loop
      vertex 230.8671 241.8671 0
      vertex 241.8671 241.8671 0
      vertex 241.8671 230.8671 0
    endloop
  endfacet
  facet normal 0 0 -1
    outer loop
      vertex 230.8671 241.8671 0
      vertex 241.8671 230.8671 0
      vertex 230.8671 230.8671 0
    endloop
  endfacet
  facet normal 0 0 1
    outer loop
      vertex 230.8671 241.8671 3.125
      vertex 241.8671 241.8671 3.125
      vertex 241.8671 248.5171 3.125
    endloop
  endfacet
  facet normal 0 0 1
    outer loop
      vertex 230.8671 241.8671 3.125
      vertex 241.8671 248.5171 3.125
      vertex 230.8671 248.5171 3.125
    endloop
  endfacet
  facet normal 0 0 -1
    outer loop
      vertex 230.8671 248.5171 0
      vertex 241.8671 248.5171 0
      vertex 241.8671 241.8671 0
    endloop
  endfacet
  facet normal 0 0 -1
    outer loop
      vertex 230.8671 248.5171 0
      vertex 241.8671 241.8671 0
      vertex 230.8671 241.8671 0
    endloop
  endfacet
  facet normal 1 0 0
    outer loop
      vertex 241.8671 241.8671 0
      vertex 241.8671 248.5171 0
      vertex 241.8671 248.5171 3.125
    endloop
  endfacet
  facet normal 1 0 0
    outer loop
      vertex 241.8671 241.8671 0
      vertex 241.8671 248.5171 3.125
      vertex 241.8671 241.8671 3.125
    endloop
  endfacet
  facet normal 0 1 0
    outer loop
      vertex 241.8671 248.5171 0
      vertex 230.8671 248.5171 0
      vertex 230.8671 248.5171 3.125
    endloop
  endfacet
  facet normal 0 1 -0
    outer loop
      vertex 241.8671 248.5171 0
      vertex 230.8671 248.5171 3.125
      vertex 241.8671 248.5171 3.125
    endloop
  endfacet
  facet normal 0 0 1
    outer loop
      vertex 241.8671 8.65 3.125
      vertex 248.5171 8.65 3.125
      vertex 248.5171 19.65 3.125
    endloop
  endfacet
  facet normal 0 0 1
    outer loop
      vertex 241.8671 8.65 3.125
      vertex 248.5171 19.65 3.125
      vertex 241.8671 19.65 3.125
    endloop
  endfacet
  facet normal 0 0 -1
    outer loop
      vertex 241.8671 19.65 0
      vertex 248.5171 19.65 0
      vertex 248.5171 8.65 0
    endloop
  endfacet
  facet normal 0 0 -1
    outer loop
      vertex 241.8671 19.65 0
      vertex 248.5171 8.65 0
      vertex 241.8671 8.65 0
    endloop
  endfacet
  facet normal 0 -1 0
    outer loop
      vertex 241.8671 8.65 0
      vertex 248.5171 8.65 0
      vertex 248.5171 8.65 3.125
    endloop
  endfacet
  facet normal 0 -1 0
    outer loop
      vertex 241.8671 8.65 0
      vertex 248.5171 8.65 3.125
      vertex 241.8671 8.65 3.125
    endloop
  endfacet
  facet normal 1 0 0
    outer loop
      vertex 248.5171 8.65 0
      vertex 248.5171 19.65 0
      vertex 248.5171 19.65 3.125
    endloop
  endfacet
  facet normal 1 0 0
    outer loop
      vertex 248.5171 8.65 0
      vertex 248.5171 19.65 3.125
      vertex 248.5171 8.65 3.125
    endloop
  endfacet
  facet normal 0 0 1
    outer loop
      vertex 241.8671 19.65 3.125
      vertex 248.5171 19.65 3.125
      vertex 248.5171 230.8671 3.125
    endloop
  endfacet
  facet normal 0 0 1
    outer loop
      vertex 241.8671 19.65 3.125
      vertex 248.5171 230.8671 3.125
      vertex 241.8671 230.8671 3.125
    endloop
  endfacet
  facet normal 0 0 -1
    outer loop
      vertex 241.8671 230.8671 0
      vertex 248.5171 230.8671 0
      vertex 248.5171 19.65 0
    endloop
  endfacet
  facet normal 0 0 -1
    outer loop
      vertex 241.8671 230.8671 0
      vertex 248.5171 19.65 0
      vertex 241.8671 19.65 0
    endloop
  endfacet
  facet normal 1 0 0
    outer loop
      vertex 248.5171 19.65 0
      vertex 248.5171 230.8671 0
      vertex 248.5171 230.8671 3.125
    endloop
  endfacet
  facet normal 1 0 0
    outer loop
      vertex 248.5171 19.65 0
      vertex 248.5171 230.8671 3.125
      vertex 248.5171 19.65 3.125
    endloop
  endfacet
  facet normal 0 0 1
    outer loop
      vertex 241.8671 230.8671 3.125
      vertex 248.5171 230.8671 3.125
      vertex 248.5171 241.8671 3.125
    endloop
  endfacet
  facet normal 0 0 1
    outer loop
      vertex 241.8671 230.8671 3.125
      vertex 248.5171 241.8671 3.125
      vertex 241.8671 241.8671 3.125
    endloop
  endfacet
  facet normal 0 0 -1
    outer loop
      vertex 241.8671 241.8671 0
      vertex 248.5171 241.8671 0
      vertex 248.5171 230.8671 0
    endloop
  endfacet
  facet normal 0 0 -1
    outer loop
      vertex 241.8671 241.8671 0
      vertex 248.5171 230.8671 0
      vertex 241.8671 230.8671 0
    endloop
  endfacet
  facet normal 1 0 0
    outer loop
      vertex 248.5171 230.8671 0
      vertex 248.5171 241.8671 0
      vertex 248.5171 241.8671 3.125
    endloop
  endfacet
  facet normal 1 0 0
    outer loop
      vertex 248.5171 230.8671 0
      vertex 248.5171 241.8671 3.125
      vertex 248.5171 230.8671 3.125
    endloop
  endfacet
  facet normal 0 1 0
    outer loop
      vertex 248.5171 241.8671 0
      vertex 241.8671 241.8671 0
      vertex 241.8671 241.8671 3.125
    endloop
  endfacet
  facet normal 0 1 -0
    outer loop
      vertex 248.5171 241.8671 0
      vertex 241.8671 241.8671 3.125
      vertex 248.5171 241.8671 3.125
    endloop
  endfacet
  facet normal 0 0 -1
    outer loop
      vertex 20 230.5171 3.125
      vertex 177.8878 248.5171 3.125
      vertex 177.8878 230.5171 3.125
    endloop
  endfacet
  facet normal 0 0 -1
    outer loop
      vertex 20 230.5171 3.125
      vertex 20 248.5171 3.125
      vertex 177.8878 248.5171 3.125
    endloop
  endfacet
  facet normal 0 0 -1
    outer loop
      vertex 177.8878 230.5171 3.125
      vertex 230.5171 248.5171 3.125
      vertex 230.5171 230.5171 3.125
    endloop
  endfacet
  facet normal 0 0 -1
    outer loop
      vertex 177.8878 230.5171 3.125
      vertex 177.8878 248.5171 3.125
      vertex 230.5171 248.5171 3.125
    endloop
  endfacet
  facet normal -0.03750025 0 0.9992966
    outer loop
      vertex 20 230.5171 5.925
      vertex 177.8878 230.5171 11.85
      vertex 177.8878 248.5171 11.85
    endloop
  endfacet
  facet normal -0.03750025 0 0.9992966
    outer loop
      vertex 20 230.5171 5.925
      vertex 177.8878 248.5171 11.85
      vertex 20 248.5171 5.925
    endloop
  endfacet
  facet normal 0 0 1
    outer loop
      vertex 177.8878 230.5171 11.85
      vertex 230.5171 230.5171 11.85
      vertex 230.5171 248.5171 11.85
    endloop
  endfacet
  facet normal 0 0 1
    outer loop
      vertex 177.8878 230.5171 11.85
      vertex 230.5171 248.5171 11.85
      vertex 177.8878 248.5171 11.85
    endloop
  endfacet
  facet normal 0 -1 0
    outer loop
      vertex 20 230.5171 3.125
      vertex 177.8878 230.5171 3.125
      vertex 177.8878 230.5171 11.85
    endloop
  endfacet
  facet normal 0 -1 0
    outer loop
      vertex 20 230.5171 3.125
      vertex 177.8878 230.5171 11.85
      vertex 20 230.5171 5.925
    endloop
  endfacet
  facet normal 0 -1 0
    outer loop
      vertex 177.8878 230.5171 3.125
      vertex 230.5171 230.5171 3.125
      vertex 230.5171 230.5171 11.85
    endloop
  endfacet
  facet normal 0 -1 0
    outer loop
      vertex 177.8878 230.5171 3.125
      vertex 230.5171 230.5171 11.85
      vertex 177.8878 230.5171 11.85
    endloop
  endfacet
  facet normal 0 1 0
    outer loop
      vertex 20 248.5171 3.125
      vertex 177.8878 248.5171 11.85
      vertex 177.8878 248.5171 3.125
    endloop
  endfacet
  facet normal 0 1 0
    outer loop
      vertex 20 248.5171 3.125
      vertex 20 248.5171 5.925
      vertex 177.8878 248.5171 11.85
    endloop
  endfacet
  facet normal 0 1 0
    outer loop
      vertex 177.8878 248.5171 3.125
      vertex 230.5171 248.5171 11.85
      vertex 230.5171 248.5171 3.125
    endloop
  endfacet
  facet normal 0 1 0
    outer loop
      vertex 177.8878 248.5171 3.125
      vertex 177.8878 248.5171 11.85
      vertex 230.5171 248.5171 11.85
    endloop
  endfacet
  facet normal -1 0 0
    outer loop
      vertex 20 248.5171 3.125
      vertex 20 230.5171 3.125
      vertex 20 230.5171 5.925
    endloop
  endfacet
  facet normal -1 0 0
    outer loop
      vertex 20 248.5171 3.125
      vertex 20 230.5171 5.925
      vertex 20 248.5171 5.925
    endloop
  endfacet
  facet normal 1 0 0
    outer loop
      vertex 230.5171 230.5171 3.125
      vertex 230.5171 248.5171 3.125
      vertex 230.5171 248.5171 11.85
    endloop
  endfacet
  facet normal 1 0 0
    outer loop
      vertex 230.5171 230.5171 3.125
      vertex 230.5171 248.5171 11.85
      vertex 230.5171 230.5171 11.85
    endloop
  endfacet
  facet normal 0 0 -1
    outer loop
      vertex 230.5171 20 3.125
      vertex 230.5171 177.8878 3.125
      vertex 248.5171 177.8878 3.125
    endloop
  endfacet
  facet normal 0 0 -1
    outer loop
      vertex 230.5171 20 3.125
      vertex 248.5171 177.8878 3.125
      vertex 248.5171 20 3.125
    endloop
  endfacet
  facet normal 0 0 -1
    outer loop
      vertex 230.5171 177.8878 3.125
      vertex 230.5171 230.5171 3.125
      vertex 248.5171 230.5171 3.125
    endloop
  endfacet
  facet normal 0 0 -1
    outer loop
      vertex 230.5171 177.8878 3.125
      vertex 248.5171 230.5171 3.125
      vertex 248.5171 177.8878 3.125
    endloop
  endfacet
  facet normal 0 -0.03750025 0.9992966
    outer loop
      vertex 230.5171 20 5.925
      vertex 248.5171 177.8878 11.85
      vertex 230.5171 177.8878 11.85
    endloop
  endfacet
  facet normal 0 -0.03750025 0.9992966
    outer loop
      vertex 230.5171 20 5.925
      vertex 248.5171 20 5.925
      vertex 248.5171 177.8878 11.85
    endloop
  endfacet
  facet normal 0 0 1
    outer loop
      vertex 230.5171 177.8878 11.85
      vertex 248.5171 230.5171 11.85
      vertex 230.5171 230.5171 11.85
    endloop
  endfacet
  facet normal 0 0 1
    outer loop
      vertex 230.5171 177.8878 11.85
      vertex 248.5171 177.8878 11.85
      vertex 248.5171 230.5171 11.85
    endloop
  endfacet
  facet normal -1 0 0
    outer loop
      vertex 230.5171 20 3.125
      vertex 230.5171 177.8878 11.85
      vertex 230.5171 177.8878 3.125
    endloop
  endfacet
  facet normal -1 0 0
    outer loop
      vertex 230.5171 20 3.125
      vertex 230.5171 20 5.925
      vertex 230.5171 177.8878 11.85
    endloop
  endfacet
  facet normal -1 0 0
    outer loop
      vertex 230.5171 177.8878 3.125
      vertex 230.5171 230.5171 11.85
      vertex 230.5171 230.5171 3.125
    endloop
  endfacet
  facet normal -1 0 0
    outer loop
      vertex 230.5171 177.8878 3.125
      vertex 230.5171 177.8878 11.85
      vertex 230.5171 230.5171 11.85
    endloop
  endfacet
  facet normal 1 0 0
    outer loop
      vertex 248.5171 20 3.125
      vertex 248.5171 177.8878 3.125
      vertex 248.5171 177.8878 11.85
    endloop
  endfacet
  facet normal 1 0 0
    outer loop
      vertex 248.5171 20 3.125
      vertex 248.5171 177.8878 11.85
      vertex 248.5171 20 5.925
    endloop
  endfacet
  facet normal 1 0 0
    outer loop
      vertex 248.5171 177.8878 3.125
      vertex 248.5171 230.5171 3.125
      vertex 248.5171 230.5171 11.85
    endloop
  endfacet
  facet normal 1 0 0
    outer loop
      vertex 248.5171 177.8878 3.125
      vertex 248.5171 230.5171 11.85
      vertex 248.5171 177.8878 11.85
    endloop
  endfacet
  facet normal 0 -1 0
    outer loop
      vertex 248.5171 20 3.125
      vertex 230.5171 20 5.925
      vertex 230.5171 20 3.125
    endloop
  endfacet
  facet normal 0 -1 0
    outer loop
      vertex 248.5171 20 3.125
      vertex 248.5171 20 5.925
      vertex 230.5171 20 5.925
    endloop
  endfacet
  facet normal 0 1 0
    outer loop
      vertex 230.5171 230.5171 3.125
      vertex 248.5171 230.5171 11.85
      vertex 248.5171 230.5171 3.125
    endloop
  endfacet
  facet normal 0 1 0
    outer loop
      vertex 230.5171 230.5171 3.125
      vertex 230.5171 230.5171 11.85
      vertex 248.5171 230.5171 11.85
    endloop
  endfacet
  facet normal -0 0 -1
    outer loop
      vertex 230.5171 20 3.125
      vertex 72.62927 2 3.125
      vertex 72.62927 20 3.125
    endloop
  endfacet
  facet normal 0 -0 -1
    outer loop
      vertex 230.5171 20 3.125
      vertex 230.5171 2 3.125
      vertex 72.62927 2 3.125
    endloop
  endfacet
  facet normal -0 0 -1
    outer loop
      vertex 72.62927 20 3.125
      vertex 20 2 3.125
      vertex 20 20 3.125
    endloop
  endfacet
  facet normal 0 -0 -1
    outer loop
      vertex 72.62927 20 3.125
      vertex 72.62927 2 3.125
      vertex 20 2 3.125
    endloop
  endfacet
  facet normal 0.03750025 0 0.9992966
    outer loop
      vertex 230.5171 20 5.925
      vertex 72.62927 20 11.85
      vertex 72.62927 2 11.85
    endloop
  endfacet
  facet normal 0.03750025 0 0.9992966
    outer loop
      vertex 230.5171 20 5.925
      vertex 72.62927 2 11.85
      vertex 230.5171 2 5.925
    endloop
  endfacet
  facet normal 0 0 1
    outer loop
      vertex 72.62927 20 11.85
      vertex 20 20 11.85
      vertex 20 2 11.85
    endloop
  endfacet
  facet normal 0 0 1
    outer loop
      vertex 72.62927 20 11.85
      vertex 20 2 11.85
      vertex 72.62927 2 11.85
    endloop
  endfacet
  facet normal 0 1 0
    outer loop
      vertex 230.5171 20 3.125
      vertex 72.62927 20 3.125
      vertex 72.62927 20 11.85
    endloop
  endfacet
  facet normal 0 1 -0
    outer loop
      vertex 230.5171 20 3.125
      vertex 72.62927 20 11.85
      vertex 230.5171 20 5.925
    endloop
  endfacet
  facet normal 0 1 0
    outer loop
      vertex 72.62927 20 3.125
      vertex 20 20 3.125
      vertex 20 20 11.85
    endloop
  endfacet
  facet normal 0 1 -0
    outer loop
      vertex 72.62927 20 3.125
      vertex 20 20 11.85
      vertex 72.62927 20 11.85
    endloop
  endfacet
  facet normal 0 -1 0
    outer loop
      vertex 230.5171 2 3.125
      vertex 72.62927 2 11.85
      vertex 72.62927 2 3.125
    endloop
  endfacet
  facet normal 0 -1 0
    outer loop
      vertex 230.5171 2 3.125
      vertex 230.5171 2 5.925
      vertex 72.62927 2 11.85
    endloop
  endfacet
  facet normal 0 -1 0
    outer loop
      vertex 72.62927 2 3.125
      vertex 20 2 11.85
      vertex 20 2 3.125
    endloop
  endfacet
  facet normal 0 -1 0
    outer loop
      vertex 72.62927 2 3.125
      vertex 72.62927 2 11.85
      vertex 20 2 11.85
    endloop
  endfacet
  facet normal 1 0 0
    outer loop
      vertex 230.5171 2 3.125
      vertex 230.5171 20 3.125
      vertex 230.5171 20 5.925
    endloop
  endfacet
  facet normal 1 0 0
    outer loop
      vertex 230.5171 2 3.125
      vertex 230.5171 20 5.925
      vertex 230.5171 2 5.925
    endloop
  endfacet
  facet normal -1 0 0
    outer loop
      vertex 20 20 3.125
      vertex 20 2 3.125
      vertex 20 2 11.85
    endloop
  endfacet
  facet normal -1 0 0
    outer loop
      vertex 20 20 3.125
      vertex 20 2 11.85
      vertex 20 20 11.85
    endloop
  endfacet
  facet normal 0 -0 -1
    outer loop
      vertex 20 230.5171 3.125
      vertex 20 72.62927 3.125
      vertex 2 72.62927 3.125
    endloop
  endfacet
  facet normal -0 0 -1
    outer loop
      vertex 20 230.5171 3.125
      vertex 2 72.62927 3.125
      vertex 2 230.5171 3.125
    endloop
  endfacet
  facet normal 0 -0 -1
    outer loop
      vertex 20 72.62927 3.125
      vertex 20 20 3.125
      vertex 2 20 3.125
    endloop
  endfacet
  facet normal -0 0 -1
    outer loop
      vertex 20 72.62927 3.125
      vertex 2 20 3.125
      vertex 2 72.62927 3.125
    endloop
  endfacet
  facet normal 0 0.03750025 0.9992966
    outer loop
      vertex 20 230.5171 5.925
      vertex 2 72.62927 11.85
      vertex 20 72.62927 11.85
    endloop
  endfacet
  facet normal 0 0.03750025 0.9992966
    outer loop
      vertex 20 230.5171 5.925
      vertex 2 230.5171 5.925
      vertex 2 72.62927 11.85
    endloop
  endfacet
  facet normal 0 0 1
    outer loop
      vertex 20 72.62927 11.85
      vertex 2 20 11.85
      vertex 20 20 11.85
    endloop
  endfacet
  facet normal 0 0 1
    outer loop
      vertex 20 72.62927 11.85
      vertex 2 72.62927 11.85
      vertex 2 20 11.85
    endloop
  endfacet
  facet normal 1 0 0
    outer loop
      vertex 20 230.5171 3.125
      vertex 20 72.62927 11.85
      vertex 20 72.62927 3.125
    endloop
  endfacet
  facet normal 1 0 -0
    outer loop
      vertex 20 230.5171 3.125
      vertex 20 230.5171 5.925
      vertex 20 72.62927 11.85
    endloop
  endfacet
  facet normal 1 0 0
    outer loop
      vertex 20 72.62927 3.125
      vertex 20 20 11.85
      vertex 20 20 3.125
    endloop
  endfacet
  facet normal 1 0 -0
    outer loop
      vertex 20 72.62927 3.125
      vertex 20 72.62927 11.85
      vertex 20 20 11.85
    endloop
  endfacet
  facet normal -1 0 0
    outer loop
      vertex 2 230.5171 3.125
      vertex 2 72.62927 3.125
      vertex 2 72.62927 11.85
    endloop
  endfacet
  facet normal -1 0 0
    outer loop
      vertex 2 230.5171 3.125
      vertex 2 72.62927 11.85
      vertex 2 230.5171 5.925
    endloop
  endfacet
  facet normal -1 0 0
    outer loop
      vertex 2 72.62927 3.125
      vertex 2 20 3.125
      vertex 2 20 11.85
    endloop
  endfacet
  facet normal -1 0 0
    outer loop
      vertex 2 72.62927 3.125
      vertex 2 20 11.85
      vertex 2 72.62927 11.85
    endloop
  endfacet
  facet normal 0 1 0
    outer loop
      vertex 2 230.5171 3.125
      vertex 20 230.5171 5.925
      vertex 20 230.5171 3.125
    endloop
  endfacet
  facet normal 0 1 0
    outer loop
      vertex 2 230.5171 3.125
      vertex 2 230.5171 5.925
      vertex 20 230.5171 5.925
    endloop
  endfacet
  facet normal 0 -1 0
    outer loop
      vertex 20 20 3.125
      vertex 2 20 11.85
      vertex 2 20 3.125
    endloop
  endfacet
  facet normal 0 -1 0
    outer loop
      vertex 20 20 3.125
      vertex 20 20 11.85
      vertex 2 20 11.85
    endloop
  endfacet
  facet normal 0 0 1
    outer loop
      vertex 230.5171 248.5171 11.85
      vertex 230.5171 230.5171 11.85
      vertex 248.5171 230.5171 11.85
    endloop
  endfacet
  facet normal 0 0 -1
    outer loop
      vertex 248.5171 230.5171 3.125
      vertex 230.5171 230.5171 3.125
      vertex 230.5171 248.5171 3.125
    endloop
  endfacet
  facet normal 0 -0 1
    outer loop
      vertex 248.5171 230.5171 11.85
      vertex 248.5171 242.2171 11.85
      vertex 242.2171 242.2171 11.85
    endloop
  endfacet
  facet normal 0 0 -1
    outer loop
      vertex 242.2171 242.2171 3.125
      vertex 248.5171 242.2171 3.125
      vertex 248.5171 230.5171 3.125
    endloop
  endfacet
  facet normal 0 0 1
    outer loop
      vertex 230.5171 248.5171 11.85
      vertex 248.5171 230.5171 11.85
      vertex 242.2171 242.2171 11.85
    endloop
  endfacet
  facet normal -0 -0 -1
    outer loop
      vertex 242.2171 242.2171 3.125
      vertex 248.5171 230.5171 3.125
      vertex 230.5171 248.5171 3.125
    endloop
  endfacet
  facet normal 0 -0 1
    outer loop
      vertex 242.2171 242.2171 11.85
      vertex 242.2171 248.5171 11.85
      vertex 230.5171 248.5171 11.85
    endloop
  endfacet
  facet normal 0 0 -1
    outer loop
      vertex 230.5171 248.5171 3.125
      vertex 242.2171 248.5171 3.125
      vertex 242.2171 242.2171 3.125
    endloop
  endfacet
  facet normal 0 -1 0
    outer loop
      vertex 230.5171 230.5171 3.125
      vertex 248.5171 230.5171 3.125
      vertex 248.5171 230.5171 11.85
    endloop
  endfacet
  facet normal 0 -1 0
    outer loop
      vertex 230.5171 230.5171 3.125
      vertex 248.5171 230.5171 11.85
      vertex 230.5171 230.5171 11.85
    endloop
  endfacet
  facet normal 1 0 0
    outer loop
      vertex 248.5171 230.5171 3.125
      vertex 248.5171 242.2171 3.125
      vertex 248.5171 242.2171 11.85
    endloop
  endfacet
  facet normal 1 0 0
    outer loop
      vertex 248.5171 230.5171 3.125
      vertex 248.5171 242.2171 11.85
      vertex 248.5171 230.5171 11.85
    endloop
  endfacet
  facet normal 0 1 0
    outer loop
      vertex 248.5171 242.2171 3.125
      vertex 242.2171 242.2171 3.125
      vertex 242.2171 242.2171 11.85
    endloop
  endfacet
  facet normal 0 1 -0
    outer loop
      vertex 248.5171 242.2171 3.125
      vertex 242.2171 242.2171 11.85
      vertex 248.5171 242.2171 11.85
    endloop
  endfacet
  facet normal 1 0 0
    outer loop
      vertex 242.2171 242.2171 3.125
      vertex 242.2171 248.5171 3.125
      vertex 242.2171 248.5171 11.85
    endloop
  endfacet
  facet normal 1 0 0
    outer loop
      vertex 242.2171 242.2171 3.125
      vertex 242.2171 248.5171 11.85
      vertex 242.2171 242.2171 11.85
    endloop
  endfacet
  facet normal 0 1 0
    outer loop
      vertex 242.2171 248.5171 3.125
      vertex 230.5171 248.5171 3.125
      vertex 230.5171 248.5171 11.85
    endloop
  endfacet
  facet normal 0 1 -0
    outer loop
      vertex 242.2171 248.5171 3.125
      vertex 230.5171 248.5171 11.85
      vertex 242.2171 248.5171 11.85
    endloop
  endfacet
  facet normal -1 0 0
    outer loop
      vertex 230.5171 248.5171 3.125
      vertex 230.5171 230.5171 3.125
      vertex 230.5171 230.5171 11.85
    endloop
  endfacet
  facet normal -1 0 0
    outer loop
      vertex 230.5171 248.5171 3.125
      vertex 230.5171 230.5171 11.85
      vertex 230.5171 248.5171 11.85
    endloop
  endfacet
  facet normal 0 0 1
    outer loop
      vertex 230.5171 20 5.925
      vertex 230.5171 2 5.925
      vertex 242.2171 2 5.925
    endloop
  endfacet
  facet normal 0 0 -1
    outer loop
      vertex 242.2171 2 3.125
      vertex 230.5171 2 3.125
      vertex 230.5171 20 3.125
    endloop
  endfacet
  facet normal 0 0 1
    outer loop
      vertex 230.5171 20 5.925
      vertex 242.2171 2 5.925
      vertex 242.2171 8.3 5.925
    endloop
  endfacet
  facet normal -0 -0 -1
    outer loop
      vertex 242.2171 8.3 3.125
      vertex 242.2171 2 3.125
      vertex 230.5171 20 3.125
    endloop
  endfacet
  facet normal 0 0 1
    outer loop
      vertex 230.5171 20 5.925
      vertex 242.2171 8.3 5.925
      vertex 248.5171 8.3 5.925
    endloop
  endfacet
  facet normal 0 0 -1
    outer loop
      vertex 248.5171 8.3 3.125
      vertex 242.2171 8.3 3.125
      vertex 230.5171 20 3.125
    endloop
  endfacet
  facet normal 0 -0 1
    outer loop
      vertex 248.5171 8.3 5.925
      vertex 248.5171 20 5.925
      vertex 230.5171 20 5.925
    endloop
  endfacet
  facet normal 0 0 -1
    outer loop
      vertex 230.5171 20 3.125
      vertex 248.5171 20 3.125
      vertex 248.5171 8.3 3.125
    endloop
  endfacet
  facet normal 0 -1 0
    outer loop
      vertex 230.5171 2 3.125
      vertex 242.2171 2 3.125
      vertex 242.2171 2 5.925
    endloop
  endfacet
  facet normal 0 -1 0
    outer loop
      vertex 230.5171 2 3.125
      vertex 242.2171 2 5.925
      vertex 230.5171 2 5.925
    endloop
  endfacet
  facet normal 1 0 0
    outer loop
      vertex 242.2171 2 3.125
      vertex 242.2171 8.3 3.125
      vertex 242.2171 8.3 5.925
    endloop
  endfacet
  facet normal 1 0 0
    outer loop
      vertex 242.2171 2 3.125
      vertex 242.2171 8.3 5.925
      vertex 242.2171 2 5.925
    endloop
  endfacet
  facet normal 0 -1 0
    outer loop
      vertex 242.2171 8.3 3.125
      vertex 248.5171 8.3 3.125
      vertex 248.5171 8.3 5.925
    endloop
  endfacet
  facet normal 0 -1 0
    outer loop
      vertex 242.2171 8.3 3.125
      vertex 248.5171 8.3 5.925
      vertex 242.2171 8.3 5.925
    endloop
  endfacet
  facet normal 1 0 0
    outer loop
      vertex 248.5171 8.3 3.125
      vertex 248.5171 20 3.125
      vertex 248.5171 20 5.925
    endloop
  endfacet
  facet normal 1 0 0
    outer loop
      vertex 248.5171 8.3 3.125
      vertex 248.5171 20 5.925
      vertex 248.5171 8.3 5.925
    endloop
  endfacet
  facet normal 0 1 0
    outer loop
      vertex 248.5171 20 3.125
      vertex 230.5171 20 3.125
      vertex 230.5171 20 5.925
    endloop
  endfacet
  facet normal 0 1 -0
    outer loop
      vertex 248.5171 20 3.125
      vertex 230.5171 20 5.925
      vertex 248.5171 20 5.925
    endloop
  endfacet
  facet normal -1 0 0
    outer loop
      vertex 230.5171 20 3.125
      vertex 230.5171 2 3.125
      vertex 230.5171 2 5.925
    endloop
  endfacet
  facet normal -1 0 0
    outer loop
      vertex 230.5171 20 3.125
      vertex 230.5171 2 5.925
      vertex 230.5171 20 5.925
    endloop
  endfacet
  facet normal 0 0 1
    outer loop
      vertex 8.3 8.3 11.85
      vertex 8.3 2 11.85
      vertex 20 2 11.85
    endloop
  endfacet
  facet normal 0 0 -1
    outer loop
      vertex 20 2 3.125
      vertex 8.3 2 3.125
      vertex 8.3 8.3 3.125
    endloop
  endfacet
  facet normal -0 0 1
    outer loop
      vertex 8.3 8.3 11.85
      vertex 20 2 11.85
      vertex 20 20 11.85
    endloop
  endfacet
  facet normal 0 -0 -1
    outer loop
      vertex 20 20 3.125
      vertex 20 2 3.125
      vertex 8.3 8.3 3.125
    endloop
  endfacet
  facet normal 0 -0 1
    outer loop
      vertex 8.3 8.3 11.85
      vertex 20 20 11.85
      vertex 2 20 11.85
    endloop
  endfacet
  facet normal 0 0 -1
    outer loop
      vertex 2 20 3.125
      vertex 20 20 3.125
      vertex 8.3 8.3 3.125
    endloop
  endfacet
  facet normal 0 0 1
    outer loop
      vertex 2 20 11.85
      vertex 2 8.3 11.85
      vertex 8.3 8.3 11.85
    endloop
  endfacet
  facet normal 0 0 -1
    outer loop
      vertex 8.3 8.3 3.125
      vertex 2 8.3 3.125
      vertex 2 20 3.125
    endloop
  endfacet
  facet normal 0 -1 0
    outer loop
      vertex 8.3 2 3.125
      vertex 20 2 3.125
      vertex 20 2 11.85
    endloop
  endfacet
  facet normal 0 -1 0
    outer loop
      vertex 8.3 2 3.125
      vertex 20 2 11.85
      vertex 8.3 2 11.85
    endloop
  endfacet
  facet normal 1 0 0
    outer loop
      vertex 20 2 3.125
      vertex 20 20 3.125
      vertex 20 20 11.85
    endloop
  endfacet
  facet normal 1 0 0
    outer loop
      vertex 20 2 3.125
      vertex 20 20 11.85
      vertex 20 2 11.85
    endloop
  endfacet
  facet normal 0 1 0
    outer loop
      vertex 20 20 3.125
      vertex 2 20 3.125
      vertex 2 20 11.85
    endloop
  endfacet
  facet normal 0 1 -0
    outer loop
      vertex 20 20 3.125
      vertex 2 20 11.85
      vertex 20 20 11.85
    endloop
  endfacet
  facet normal -1 0 0
    outer loop
      vertex 2 20 3.125
      vertex 2 8.3 3.125
      vertex 2 8.3 11.85
    endloop
  endfacet
  facet normal -1 0 0
    outer loop
      vertex 2 20 3.125
      vertex 2 8.3 11.85
      vertex 2 20 11.85
    endloop
  endfacet
  facet normal 0 -1 0
    outer loop
      vertex 2 8.3 3.125
      vertex 8.3 8.3 3.125
      vertex 8.3 8.3 11.85
    endloop
  endfacet
  facet normal 0 -1 0
    outer loop
      vertex 2 8.3 3.125
      vertex 8.3 8.3 11.85
      vertex 2 8.3 11.85
    endloop
  endfacet
  facet normal -1 0 0
    outer loop
      vertex 8.3 8.3 3.125
      vertex 8.3 2 3.125
      vertex 8.3 2 11.85
    endloop
  endfacet
  facet normal -1 0 0
    outer loop
      vertex 8.3 8.3 3.125
      vertex 8.3 2 11.85
      vertex 8.3 8.3 11.85
    endloop
  endfacet
  facet normal 0 0 1
    outer loop
      vertex 2 242.2171 5.925
      vertex 2 230.5171 5.925
      vertex 20 230.5171 5.925
    endloop
  endfacet
  facet normal 0 0 -1
    outer loop
      vertex 20 230.5171 3.125
      vertex 2 230.5171 3.125
      vertex 2 242.2171 3.125
    endloop
  endfacet
  facet normal 0 -0 1
    outer loop
      vertex 20 230.5171 5.925
      vertex 20 248.5171 5.925
      vertex 8.3 248.5171 5.925
    endloop
  endfacet
  facet normal 0 0 -1
    outer loop
      vertex 8.3 248.5171 3.125
      vertex 20 248.5171 3.125
      vertex 20 230.5171 3.125
    endloop
  endfacet
  facet normal 0 0 1
    outer loop
      vertex 20 230.5171 5.925
      vertex 8.3 248.5171 5.925
      vertex 8.3 242.2171 5.925
    endloop
  endfacet
  facet normal 0 0 -1
    outer loop
      vertex 8.3 242.2171 3.125
      vertex 8.3 248.5171 3.125
      vertex 20 230.5171 3.125
    endloop
  endfacet
  facet normal 0 0 1
    outer loop
      vertex 20 230.5171 5.925
      vertex 8.3 242.2171 5.925
      vertex 2 242.2171 5.925
    endloop
  endfacet
  facet normal 0 0 -1
    outer loop
      vertex 2 242.2171 3.125
      vertex 8.3 242.2171 3.125
      vertex 20 230.5171 3.125
    endloop
  endfacet
  facet normal 0 -1 0
    outer loop
      vertex 2 230.5171 3.125
      vertex 20 230.5171 3.125
      vertex 20 230.5171 5.925
    endloop
  endfacet
  facet normal 0 -1 0
    outer loop
      vertex 2 230.5171 3.125
      vertex 20 230.5171 5.925
      vertex 2 230.5171 5.925
    endloop
  endfacet
  facet normal 1 0 0
    outer loop
      vertex 20 230.5171 3.125
      vertex 20 248.5171 3.125
      vertex 20 248.5171 5.925
    endloop
  endfacet
  facet normal 1 0 0
    outer loop
      vertex 20 230.5171 3.125
      vertex 20 248.5171 5.925
      vertex 20 230.5171 5.925
    endloop
  endfacet
  facet normal 0 1 0
    outer loop
      vertex 20 248.5171 3.125
      vertex 8.3 248.5171 3.125
      vertex 8.3 248.5171 5.925
    endloop
  endfacet
  facet normal 0 1 -0
    outer loop
      vertex 20 248.5171 3.125
      vertex 8.3 248.5171 5.925
      vertex 20 248.5171 5.925
    endloop
  endfacet
  facet normal -1 0 0
    outer loop
      vertex 8.3 248.5171 3.125
      vertex 8.3 242.2171 3.125
      vertex 8.3 242.2171 5.925
    endloop
  endfacet
  facet normal -1 0 0
    outer loop
      vertex 8.3 248.5171 3.125
      vertex 8.3 242.2171 5.925
      vertex 8.3 248.5171 5.925
    endloop
  endfacet
  facet normal 0 1 0
    outer loop
      vertex 8.3 242.2171 3.125
      vertex 2 242.2171 3.125
      vertex 2 242.2171 5.925
    endloop
  endfacet
  facet normal 0 1 -0
    outer loop
      vertex 8.3 242.2171 3.125
      vertex 2 242.2171 5.925
      vertex 8.3 242.2171 5.925
    endloop
  endfacet
  facet normal -1 0 0
    outer loop
      vertex 2 242.2171 3.125
      vertex 2 230.5171 3.125
      vertex 2 230.5171 5.925
    endloop
  endfacet
  facet normal -1 0 0
    outer loop
      vertex 2 242.2171 3.125
      vertex 2 230.5171 5.925
      vertex 2 242.2171 5.925
    endloop
  endfacet
endsolid temporary_switchback_ramp_layer_03
