solid temporary_switchback_ramp_layer_03
  facet normal 0 0 -1
    outer loop
      vertex 2 248.5171 0
      vertex 248.5171 248.5171 0
      vertex 248.5171 232.8452 0
    endloop
  endfacet
  facet normal 0 0 -1
    outer loop
      vertex 2 248.5171 0
      vertex 248.5171 232.8452 0
      vertex 2 232.8452 0
    endloop
  endfacet
  facet normal 0 0 1
    outer loop
      vertex 2 232.8452 5.925
      vertex 248.5171 232.8452 5.925
      vertex 248.5171 248.5171 5.925
    endloop
  endfacet
  facet normal 0 0 1
    outer loop
      vertex 2 232.8452 5.925
      vertex 248.5171 248.5171 5.925
      vertex 2 248.5171 5.925
    endloop
  endfacet
  facet normal 0 -1 0
    outer loop
      vertex 2 232.8452 0
      vertex 248.5171 232.8452 0
      vertex 248.5171 232.8452 5.925
    endloop
  endfacet
  facet normal 0 -1 0
    outer loop
      vertex 2 232.8452 0
      vertex 248.5171 232.8452 5.925
      vertex 2 232.8452 5.925
    endloop
  endfacet
  facet normal 1 0 0
    outer loop
      vertex 248.5171 232.8452 0
      vertex 248.5171 248.5171 0
      vertex 248.5171 248.5171 5.925
    endloop
  endfacet
  facet normal 1 0 0
    outer loop
      vertex 248.5171 232.8452 0
      vertex 248.5171 248.5171 5.925
      vertex 248.5171 232.8452 5.925
    endloop
  endfacet
  facet normal 0 1 0
    outer loop
      vertex 248.5171 248.5171 0
      vertex 2 248.5171 0
      vertex 2 248.5171 5.925
    endloop
  endfacet
  facet normal 0 1 -0
    outer loop
      vertex 248.5171 248.5171 0
      vertex 2 248.5171 5.925
      vertex 248.5171 248.5171 5.925
    endloop
  endfacet
  facet normal -1 0 0
    outer loop
      vertex 2 248.5171 0
      vertex 2 232.8452 0
      vertex 2 232.8452 5.925
    endloop
  endfacet
  facet normal -1 0 0
    outer loop
      vertex 2 248.5171 0
      vertex 2 232.8452 5.925
      vertex 2 248.5171 5.925
    endloop
  endfacet
  facet normal 0 -0 -1
    outer loop
      vertex 248.5171 248.5171 0
      vertex 248.5171 2 0
      vertex 232.8452 2 0
    endloop
  endfacet
  facet normal -0 0 -1
    outer loop
      vertex 248.5171 248.5171 0
      vertex 232.8452 2 0
      vertex 232.8452 248.5171 0
    endloop
  endfacet
  facet normal 0 0 1
    outer loop
      vertex 232.8452 248.5171 5.925
      vertex 232.8452 2 5.925
      vertex 248.5171 2 5.925
    endloop
  endfacet
  facet normal -0 0 1
    outer loop
      vertex 232.8452 248.5171 5.925
      vertex 248.5171 2 5.925
      vertex 248.5171 248.5171 5.925
    endloop
  endfacet
  facet normal -1 0 0
    outer loop
      vertex 232.8452 248.5171 0
      vertex 232.8452 2 0
      vertex 232.8452 2 5.925
    endloop
  endfacet
  facet normal -1 0 0
    outer loop
      vertex 232.8452 248.5171 0
      vertex 232.8452 2 5.925
      vertex 232.8452 248.5171 5.925
    endloop
  endfacet
  facet normal 0 -1 0
    outer loop
      vertex 232.8452 2 0
      vertex 248.5171 2 0
      vertex 248.5171 2 5.925
    endloop
  endfacet
  facet normal 0 -1 0
    outer loop
      vertex 232.8452 2 0
      vertex 248.5171 2 5.925
      vertex 232.8452 2 5.925
    endloop
  endfacet
  facet normal 1 0 0
    outer loop
      vertex 248.5171 2 0
      vertex 248.5171 248.5171 0
      vertex 248.5171 248.5171 5.925
    endloop
  endfacet
  facet normal 1 0 0
    outer loop
      vertex 248.5171 2 0
      vertex 248.5171 248.5171 5.925
      vertex 248.5171 2 5.925
    endloop
  endfacet
  facet normal 0 1 0
    outer loop
      vertex 248.5171 248.5171 0
      vertex 232.8452 248.5171 0
      vertex 232.8452 248.5171 5.925
    endloop
  endfacet
  facet normal 0 1 -0
    outer loop
      vertex 248.5171 248.5171 0
      vertex 232.8452 248.5171 5.925
      vertex 248.5171 248.5171 5.925
    endloop
  endfacet
  facet normal 0 0 -1
    outer loop
      vertex 248.5171 2 0
      vertex 2 2 0
      vertex 2 17.67191 0
    endloop
  endfacet
  facet normal 0 0 -1
    outer loop
      vertex 248.5171 2 0
      vertex 2 17.67191 0
      vertex 248.5171 17.67191 0
    endloop
  endfacet
  facet normal 0 0 1
    outer loop
      vertex 248.5171 17.67191 5.925
      vertex 2 17.67191 5.925
      vertex 2 2 5.925
    endloop
  endfacet
  facet normal 0 0 1
    outer loop
      vertex 248.5171 17.67191 5.925
      vertex 2 2 5.925
      vertex 248.5171 2 5.925
    endloop
  endfacet
  facet normal 0 1 0
    outer loop
      vertex 248.5171 17.67191 0
      vertex 2 17.67191 0
      vertex 2 17.67191 5.925
    endloop
  endfacet
  facet normal 0 1 -0
    outer loop
      vertex 248.5171 17.67191 0
      vertex 2 17.67191 5.925
      vertex 248.5171 17.67191 5.925
    endloop
  endfacet
  facet normal -1 0 0
    outer loop
      vertex 2 17.67191 0
      vertex 2 2 0
      vertex 2 2 5.925
    endloop
  endfacet
  facet normal -1 0 0
    outer loop
      vertex 2 17.67191 0
      vertex 2 2 5.925
      vertex 2 17.67191 5.925
    endloop
  endfacet
  facet normal 0 -1 0
    outer loop
      vertex 2 2 0
      vertex 248.5171 2 0
      vertex 248.5171 2 5.925
    endloop
  endfacet
  facet normal 0 -1 0
    outer loop
      vertex 2 2 0
      vertex 248.5171 2 5.925
      vertex 2 2 5.925
    endloop
  endfacet
  facet normal 1 0 0
    outer loop
      vertex 248.5171 2 0
      vertex 248.5171 17.67191 0
      vertex 248.5171 17.67191 5.925
    endloop
  endfacet
  facet normal 1 0 0
    outer loop
      vertex 248.5171 2 0
      vertex 248.5171 17.67191 5.925
      vertex 248.5171 2 5.925
    endloop
  endfacet
  facet normal 0 0 -1
    outer loop
      vertex 2 2 0
      vertex 2 248.5171 0
      vertex 17.67191 248.5171 0
    endloop
  endfacet
  facet normal 0 0 -1
    outer loop
      vertex 2 2 0
      vertex 17.67191 248.5171 0
      vertex 17.67191 2 0
    endloop
  endfacet
  facet normal 0 -0 1
    outer loop
      vertex 17.67191 2 5.925
      vertex 17.67191 248.5171 5.925
      vertex 2 248.5171 5.925
    endloop
  endfacet
  facet normal 0 0 1
    outer loop
      vertex 17.67191 2 5.925
      vertex 2 248.5171 5.925
      vertex 2 2 5.925
    endloop
  endfacet
  facet normal 1 0 0
    outer loop
      vertex 17.67191 2 0
      vertex 17.67191 248.5171 0
      vertex 17.67191 248.5171 5.925
    endloop
  endfacet
  facet normal 1 0 0
    outer loop
      vertex 17.67191 2 0
      vertex 17.67191 248.5171 5.925
      vertex 17.67191 2 5.925
    endloop
  endfacet
  facet normal 0 1 0
    outer loop
      vertex 17.67191 248.5171 0
      vertex 2 248.5171 0
      vertex 2 248.5171 5.925
    endloop
  endfacet
  facet normal 0 1 -0
    outer loop
      vertex 17.67191 248.5171 0
      vertex 2 248.5171 5.925
      vertex 17.67191 248.5171 5.925
    endloop
  endfacet
  facet normal -1 0 0
    outer loop
      vertex 2 248.5171 0
      vertex 2 2 0
      vertex 2 2 5.925
    endloop
  endfacet
  facet normal -1 0 0
    outer loop
      vertex 2 248.5171 0
      vertex 2 2 5.925
      vertex 2 248.5171 5.925
    endloop
  endfacet
  facet normal 0 -1 0
    outer loop
      vertex 2 2 0
      vertex 17.67191 2 0
      vertex 17.67191 2 5.925
    endloop
  endfacet
  facet normal 0 -1 0
    outer loop
      vertex 2 2 0
      vertex 17.67191 2 5.925
      vertex 2 2 5.925
    endloop
  endfacet
  facet normal 0 0 1
    outer loop
      vertex 230.5171 248.5171 5.925
      vertex 230.5171 230.5171 5.925
      vertex 248.5171 230.5171 5.925
    endloop
  endfacet
  facet normal 0 0 -1
    outer loop
      vertex 248.5171 230.5171 0
      vertex 230.5171 230.5171 0
      vertex 230.5171 248.5171 0
    endloop
  endfacet
  facet normal 0 -0 1
    outer loop
      vertex 248.5171 230.5171 5.925
      vertex 248.5171 242.2171 5.925
      vertex 242.2171 242.2171 5.925
    endloop
  endfacet
  facet normal 0 0 -1
    outer loop
      vertex 242.2171 242.2171 0
      vertex 248.5171 242.2171 0
      vertex 248.5171 230.5171 0
    endloop
  endfacet
  facet normal 0 0 1
    outer loop
      vertex 230.5171 248.5171 5.925
      vertex 248.5171 230.5171 5.925
      vertex 242.2171 242.2171 5.925
    endloop
  endfacet
  facet normal -0 -0 -1
    outer loop
      vertex 242.2171 242.2171 0
      vertex 248.5171 230.5171 0
      vertex 230.5171 248.5171 0
    endloop
  endfacet
  facet normal 0 -0 1
    outer loop
      vertex 242.2171 242.2171 5.925
      vertex 242.2171 248.5171 5.925
      vertex 230.5171 248.5171 5.925
    endloop
  endfacet
  facet normal 0 0 -1
    outer loop
      vertex 230.5171 248.5171 0
      vertex 242.2171 248.5171 0
      vertex 242.2171 242.2171 0
    endloop
  endfacet
  facet normal 0 -1 0
    outer loop
      vertex 230.5171 230.5171 0
      vertex 248.5171 230.5171 0
      vertex 248.5171 230.5171 5.925
    endloop
  endfacet
  facet normal 0 -1 0
    outer loop
      vertex 230.5171 230.5171 0
      vertex 248.5171 230.5171 5.925
      vertex 230.5171 230.5171 5.925
    endloop
  endfacet
  facet normal 1 0 0
    outer loop
      vertex 248.5171 230.5171 0
      vertex 248.5171 242.2171 0
      vertex 248.5171 242.2171 5.925
    endloop
  endfacet
  facet normal 1 0 0
    outer loop
      vertex 248.5171 230.5171 0
      vertex 248.5171 242.2171 5.925
      vertex 248.5171 230.5171 5.925
    endloop
  endfacet
  facet normal 0 1 0
    outer loop
      vertex 248.5171 242.2171 0
      vertex 242.2171 242.2171 0
      vertex 242.2171 242.2171 5.925
    endloop
  endfacet
  facet normal 0 1 -0
    outer loop
      vertex 248.5171 242.2171 0
      vertex 242.2171 242.2171 5.925
      vertex 248.5171 242.2171 5.925
    endloop
  endfacet
  facet normal 1 0 0
    outer loop
      vertex 242.2171 242.2171 0
      vertex 242.2171 248.5171 0
      vertex 242.2171 248.5171 5.925
    endloop
  endfacet
  facet normal 1 0 0
    outer loop
      vertex 242.2171 242.2171 0
      vertex 242.2171 248.5171 5.925
      vertex 242.2171 242.2171 5.925
    endloop
  endfacet
  facet normal 0 1 0
    outer loop
      vertex 242.2171 248.5171 0
      vertex 230.5171 248.5171 0
      vertex 230.5171 248.5171 5.925
    endloop
  endfacet
  facet normal 0 1 -0
    outer loop
      vertex 242.2171 248.5171 0
      vertex 230.5171 248.5171 5.925
      vertex 242.2171 248.5171 5.925
    endloop
  endfacet
  facet normal -1 0 0
    outer loop
      vertex 230.5171 248.5171 0
      vertex 230.5171 230.5171 0
      vertex 230.5171 230.5171 5.925
    endloop
  endfacet
  facet normal -1 0 0
    outer loop
      vertex 230.5171 248.5171 0
      vertex 230.5171 230.5171 5.925
      vertex 230.5171 248.5171 5.925
    endloop
  endfacet
  facet normal 0 0 1
    outer loop
      vertex 230.5171 20 5.925
      vertex 230.5171 2 5.925
      vertex 242.2171 2 5.925
    endloop
  endfacet
  facet normal 0 0 -1
    outer loop
      vertex 242.2171 2 0
      vertex 230.5171 2 0
      vertex 230.5171 20 0
    endloop
  endfacet
  facet normal 0 0 1
    outer loop
      vertex 230.5171 20 5.925
      vertex 242.2171 2 5.925
      vertex 242.2171 8.3 5.925
    endloop
  endfacet
  facet normal -0 -0 -1
    outer loop
      vertex 242.2171 8.3 0
      vertex 242.2171 2 0
      vertex 230.5171 20 0
    endloop
  endfacet
  facet normal 0 0 1
    outer loop
      vertex 230.5171 20 5.925
      vertex 242.2171 8.3 5.925
      vertex 248.5171 8.3 5.925
    endloop
  endfacet
  facet normal 0 0 -1
    outer loop
      vertex 248.5171 8.3 0
      vertex 242.2171 8.3 0
      vertex 230.5171 20 0
    endloop
  endfacet
  facet normal 0 -0 1
    outer loop
      vertex 248.5171 8.3 5.925
      vertex 248.5171 20 5.925
      vertex 230.5171 20 5.925
    endloop
  endfacet
  facet normal 0 0 -1
    outer loop
      vertex 230.5171 20 0
      vertex 248.5171 20 0
      vertex 248.5171 8.3 0
    endloop
  endfacet
  facet normal 0 -1 0
    outer loop
      vertex 230.5171 2 0
      vertex 242.2171 2 0
      vertex 242.2171 2 5.925
    endloop
  endfacet
  facet normal 0 -1 0
    outer loop
      vertex 230.5171 2 0
      vertex 242.2171 2 5.925
      vertex 230.5171 2 5.925
    endloop
  endfacet
  facet normal 1 0 0
    outer loop
      vertex 242.2171 2 0
      vertex 242.2171 8.3 0
      vertex 242.2171 8.3 5.925
    endloop
  endfacet
  facet normal 1 0 0
    outer loop
      vertex 242.2171 2 0
      vertex 242.2171 8.3 5.925
      vertex 242.2171 2 5.925
    endloop
  endfacet
  facet normal 0 -1 0
    outer loop
      vertex 242.2171 8.3 0
      vertex 248.5171 8.3 0
      vertex 248.5171 8.3 5.925
    endloop
  endfacet
  facet normal 0 -1 0
    outer loop
      vertex 242.2171 8.3 0
      vertex 248.5171 8.3 5.925
      vertex 242.2171 8.3 5.925
    endloop
  endfacet
  facet normal 1 0 0
    outer loop
      vertex 248.5171 8.3 0
      vertex 248.5171 20 0
      vertex 248.5171 20 5.925
    endloop
  endfacet
  facet normal 1 0 0
    outer loop
      vertex 248.5171 8.3 0
      vertex 248.5171 20 5.925
      vertex 248.5171 8.3 5.925
    endloop
  endfacet
  facet normal 0 1 0
    outer loop
      vertex 248.5171 20 0
      vertex 230.5171 20 0
      vertex 230.5171 20 5.925
    endloop
  endfacet
  facet normal 0 1 -0
    outer loop
      vertex 248.5171 20 0
      vertex 230.5171 20 5.925
      vertex 248.5171 20 5.925
    endloop
  endfacet
  facet normal -1 0 0
    outer loop
      vertex 230.5171 20 0
      vertex 230.5171 2 0
      vertex 230.5171 2 5.925
    endloop
  endfacet
  facet normal -1 0 0
    outer loop
      vertex 230.5171 20 0
      vertex 230.5171 2 5.925
      vertex 230.5171 20 5.925
    endloop
  endfacet
  facet normal 0 0 1
    outer loop
      vertex 8.3 8.3 5.925
      vertex 8.3 2 5.925
      vertex 20 2 5.925
    endloop
  endfacet
  facet normal 0 0 -1
    outer loop
      vertex 20 2 0
      vertex 8.3 2 0
      vertex 8.3 8.3 0
    endloop
  endfacet
  facet normal -0 0 1
    outer loop
      vertex 8.3 8.3 5.925
      vertex 20 2 5.925
      vertex 20 20 5.925
    endloop
  endfacet
  facet normal 0 -0 -1
    outer loop
      vertex 20 20 0
      vertex 20 2 0
      vertex 8.3 8.3 0
    endloop
  endfacet
  facet normal 0 -0 1
    outer loop
      vertex 8.3 8.3 5.925
      vertex 20 20 5.925
      vertex 2 20 5.925
    endloop
  endfacet
  facet normal 0 0 -1
    outer loop
      vertex 2 20 0
      vertex 20 20 0
      vertex 8.3 8.3 0
    endloop
  endfacet
  facet normal 0 0 1
    outer loop
      vertex 2 20 5.925
      vertex 2 8.3 5.925
      vertex 8.3 8.3 5.925
    endloop
  endfacet
  facet normal 0 0 -1
    outer loop
      vertex 8.3 8.3 0
      vertex 2 8.3 0
      vertex 2 20 0
    endloop
  endfacet
  facet normal 0 -1 0
    outer loop
      vertex 8.3 2 0
      vertex 20 2 0
      vertex 20 2 5.925
    endloop
  endfacet
  facet normal 0 -1 0
    outer loop
      vertex 8.3 2 0
      vertex 20 2 5.925
      vertex 8.3 2 5.925
    endloop
  endfacet
  facet normal 1 0 0
    outer loop
      vertex 20 2 0
      vertex 20 20 0
      vertex 20 20 5.925
    endloop
  endfacet
  facet normal 1 0 0
    outer loop
      vertex 20 2 0
      vertex 20 20 5.925
      vertex 20 2 5.925
    endloop
  endfacet
  facet normal 0 1 0
    outer loop
      vertex 20 20 0
      vertex 2 20 0
      vertex 2 20 5.925
    endloop
  endfacet
  facet normal 0 1 -0
    outer loop
      vertex 20 20 0
      vertex 2 20 5.925
      vertex 20 20 5.925
    endloop
  endfacet
  facet normal -1 0 0
    outer loop
      vertex 2 20 0
      vertex 2 8.3 0
      vertex 2 8.3 5.925
    endloop
  endfacet
  facet normal -1 0 0
    outer loop
      vertex 2 20 0
      vertex 2 8.3 5.925
      vertex 2 20 5.925
    endloop
  endfacet
  facet normal 0 -1 0
    outer loop
      vertex 2 8.3 0
      vertex 8.3 8.3 0
      vertex 8.3 8.3 5.925
    endloop
  endfacet
  facet normal 0 -1 0
    outer loop
      vertex 2 8.3 0
      vertex 8.3 8.3 5.925
      vertex 2 8.3 5.925
    endloop
  endfacet
  facet normal -1 0 0
    outer loop
      vertex 8.3 8.3 0
      vertex 8.3 2 0
      vertex 8.3 2 5.925
    endloop
  endfacet
  facet normal -1 0 0
    outer loop
      vertex 8.3 8.3 0
      vertex 8.3 2 5.925
      vertex 8.3 8.3 5.925
    endloop
  endfacet
  facet normal 0 0 1
    outer loop
      vertex 2 242.2171 5.925
      vertex 2 230.5171 5.925
      vertex 20 230.5171 5.925
    endloop
  endfacet
  facet normal 0 0 -1
    outer loop
      vertex 20 230.5171 0
      vertex 2 230.5171 0
      vertex 2 242.2171 0
    endloop
  endfacet
  facet normal 0 -0 1
    outer loop
      vertex 20 230.5171 5.925
      vertex 20 248.5171 5.925
      vertex 8.3 248.5171 5.925
    endloop
  endfacet
  facet normal 0 0 -1
    outer loop
      vertex 8.3 248.5171 0
      vertex 20 248.5171 0
      vertex 20 230.5171 0
    endloop
  endfacet
  facet normal 0 0 1
    outer loop
      vertex 20 230.5171 5.925
      vertex 8.3 248.5171 5.925
      vertex 8.3 242.2171 5.925
    endloop
  endfacet
  facet normal 0 0 -1
    outer loop
      vertex 8.3 242.2171 0
      vertex 8.3 248.5171 0
      vertex 20 230.5171 0
    endloop
  endfacet
  facet normal 0 0 1
    outer loop
      vertex 20 230.5171 5.925
      vertex 8.3 242.2171 5.925
      vertex 2 242.2171 5.925
    endloop
  endfacet
  facet normal 0 0 -1
    outer loop
      vertex 2 242.2171 0
      vertex 8.3 242.2171 0
      vertex 20 230.5171 0
    endloop
  endfacet
  facet normal 0 -1 0
    outer loop
      vertex 2 230.5171 0
      vertex 20 230.5171 0
      vertex 20 230.5171 5.925
    endloop
  endfacet
  facet normal 0 -1 0
    outer loop
      vertex 2 230.5171 0
      vertex 20 230.5171 5.925
      vertex 2 230.5171 5.925
    endloop
  endfacet
  facet normal 1 0 0
    outer loop
      vertex 20 230.5171 0
      vertex 20 248.5171 0
      vertex 20 248.5171 5.925
    endloop
  endfacet
  facet normal 1 0 0
    outer loop
      vertex 20 230.5171 0
      vertex 20 248.5171 5.925
      vertex 20 230.5171 5.925
    endloop
  endfacet
  facet normal 0 1 0
    outer loop
      vertex 20 248.5171 0
      vertex 8.3 248.5171 0
      vertex 8.3 248.5171 5.925
    endloop
  endfacet
  facet normal 0 1 -0
    outer loop
      vertex 20 248.5171 0
      vertex 8.3 248.5171 5.925
      vertex 20 248.5171 5.925
    endloop
  endfacet
  facet normal -1 0 0
    outer loop
      vertex 8.3 248.5171 0
      vertex 8.3 242.2171 0
      vertex 8.3 242.2171 5.925
    endloop
  endfacet
  facet normal -1 0 0
    outer loop
      vertex 8.3 248.5171 0
      vertex 8.3 242.2171 5.925
      vertex 8.3 248.5171 5.925
    endloop
  endfacet
  facet normal 0 1 0
    outer loop
      vertex 8.3 242.2171 0
      vertex 2 242.2171 0
      vertex 2 242.2171 5.925
    endloop
  endfacet
  facet normal 0 1 -0
    outer loop
      vertex 8.3 242.2171 0
      vertex 2 242.2171 5.925
      vertex 8.3 242.2171 5.925
    endloop
  endfacet
  facet normal -1 0 0
    outer loop
      vertex 2 242.2171 0
      vertex 2 230.5171 0
      vertex 2 230.5171 5.925
    endloop
  endfacet
  facet normal -1 0 0
    outer loop
      vertex 2 242.2171 0
      vertex 2 230.5171 5.925
      vertex 2 242.2171 5.925
    endloop
  endfacet
  facet normal 0 0 -1
    outer loop
      vertex 20 230.5171 3.125
      vertex 177.8878 248.5171 3.125
      vertex 177.8878 230.5171 3.125
    endloop
  endfacet
  facet normal 0 0 -1
    outer loop
      vertex 20 230.5171 3.125
      vertex 20 248.5171 3.125
      vertex 177.8878 248.5171 3.125
    endloop
  endfacet
  facet normal 0 0 -1
    outer loop
      vertex 177.8878 230.5171 3.125
      vertex 230.5171 248.5171 3.125
      vertex 230.5171 230.5171 3.125
    endloop
  endfacet
  facet normal 0 0 -1
    outer loop
      vertex 177.8878 230.5171 3.125
      vertex 177.8878 248.5171 3.125
      vertex 230.5171 248.5171 3.125
    endloop
  endfacet
  facet normal -0.03750025 0 0.9992966
    outer loop
      vertex 20 230.5171 5.925
      vertex 177.8878 230.5171 11.85
      vertex 177.8878 248.5171 11.85
    endloop
  endfacet
  facet normal -0.03750025 0 0.9992966
    outer loop
      vertex 20 230.5171 5.925
      vertex 177.8878 248.5171 11.85
      vertex 20 248.5171 5.925
    endloop
  endfacet
  facet normal 0 0 1
    outer loop
      vertex 177.8878 230.5171 11.85
      vertex 230.5171 230.5171 11.85
      vertex 230.5171 248.5171 11.85
    endloop
  endfacet
  facet normal 0 0 1
    outer loop
      vertex 177.8878 230.5171 11.85
      vertex 230.5171 248.5171 11.85
      vertex 177.8878 248.5171 11.85
    endloop
  endfacet
  facet normal 0 -1 0
    outer loop
      vertex 20 230.5171 3.125
      vertex 177.8878 230.5171 3.125
      vertex 177.8878 230.5171 11.85
    endloop
  endfacet
  facet normal 0 -1 0
    outer loop
      vertex 20 230.5171 3.125
      vertex 177.8878 230.5171 11.85
      vertex 20 230.5171 5.925
    endloop
  endfacet
  facet normal 0 -1 0
    outer loop
      vertex 177.8878 230.5171 3.125
      vertex 230.5171 230.5171 3.125
      vertex 230.5171 230.5171 11.85
    endloop
  endfacet
  facet normal 0 -1 0
    outer loop
      vertex 177.8878 230.5171 3.125
      vertex 230.5171 230.5171 11.85
      vertex 177.8878 230.5171 11.85
    endloop
  endfacet
  facet normal 0 1 0
    outer loop
      vertex 20 248.5171 3.125
      vertex 177.8878 248.5171 11.85
      vertex 177.8878 248.5171 3.125
    endloop
  endfacet
  facet normal 0 1 0
    outer loop
      vertex 20 248.5171 3.125
      vertex 20 248.5171 5.925
      vertex 177.8878 248.5171 11.85
    endloop
  endfacet
  facet normal 0 1 0
    outer loop
      vertex 177.8878 248.5171 3.125
      vertex 230.5171 248.5171 11.85
      vertex 230.5171 248.5171 3.125
    endloop
  endfacet
  facet normal 0 1 0
    outer loop
      vertex 177.8878 248.5171 3.125
      vertex 177.8878 248.5171 11.85
      vertex 230.5171 248.5171 11.85
    endloop
  endfacet
  facet normal -1 0 0
    outer loop
      vertex 20 248.5171 3.125
      vertex 20 230.5171 3.125
      vertex 20 230.5171 5.925
    endloop
  endfacet
  facet normal -1 0 0
    outer loop
      vertex 20 248.5171 3.125
      vertex 20 230.5171 5.925
      vertex 20 248.5171 5.925
    endloop
  endfacet
  facet normal 1 0 0
    outer loop
      vertex 230.5171 230.5171 3.125
      vertex 230.5171 248.5171 3.125
      vertex 230.5171 248.5171 11.85
    endloop
  endfacet
  facet normal 1 0 0
    outer loop
      vertex 230.5171 230.5171 3.125
      vertex 230.5171 248.5171 11.85
      vertex 230.5171 230.5171 11.85
    endloop
  endfacet
  facet normal 0 0 -1
    outer loop
      vertex 230.5171 20 3.125
      vertex 230.5171 177.8878 3.125
      vertex 248.5171 177.8878 3.125
    endloop
  endfacet
  facet normal 0 0 -1
    outer loop
      vertex 230.5171 20 3.125
      vertex 248.5171 177.8878 3.125
      vertex 248.5171 20 3.125
    endloop
  endfacet
  facet normal 0 0 -1
    outer loop
      vertex 230.5171 177.8878 3.125
      vertex 230.5171 230.5171 3.125
      vertex 248.5171 230.5171 3.125
    endloop
  endfacet
  facet normal 0 0 -1
    outer loop
      vertex 230.5171 177.8878 3.125
      vertex 248.5171 230.5171 3.125
      vertex 248.5171 177.8878 3.125
    endloop
  endfacet
  facet normal 0 -0.03750025 0.9992966
    outer loop
      vertex 230.5171 20 5.925
      vertex 248.5171 177.8878 11.85
      vertex 230.5171 177.8878 11.85
    endloop
  endfacet
  facet normal 0 -0.03750025 0.9992966
    outer loop
      vertex 230.5171 20 5.925
      vertex 248.5171 20 5.925
      vertex 248.5171 177.8878 11.85
    endloop
  endfacet
  facet normal 0 0 1
    outer loop
      vertex 230.5171 177.8878 11.85
      vertex 248.5171 230.5171 11.85
      vertex 230.5171 230.5171 11.85
    endloop
  endfacet
  facet normal 0 0 1
    outer loop
      vertex 230.5171 177.8878 11.85
      vertex 248.5171 177.8878 11.85
      vertex 248.5171 230.5171 11.85
    endloop
  endfacet
  facet normal -1 0 0
    outer loop
      vertex 230.5171 20 3.125
      vertex 230.5171 177.8878 11.85
      vertex 230.5171 177.8878 3.125
    endloop
  endfacet
  facet normal -1 0 0
    outer loop
      vertex 230.5171 20 3.125
      vertex 230.5171 20 5.925
      vertex 230.5171 177.8878 11.85
    endloop
  endfacet
  facet normal -1 0 0
    outer loop
      vertex 230.5171 177.8878 3.125
      vertex 230.5171 230.5171 11.85
      vertex 230.5171 230.5171 3.125
    endloop
  endfacet
  facet normal -1 0 0
    outer loop
      vertex 230.5171 177.8878 3.125
      vertex 230.5171 177.8878 11.85
      vertex 230.5171 230.5171 11.85
    endloop
  endfacet
  facet normal 1 0 0
    outer loop
      vertex 248.5171 20 3.125
      vertex 248.5171 177.8878 3.125
      vertex 248.5171 177.8878 11.85
    endloop
  endfacet
  facet normal 1 0 0
    outer loop
      vertex 248.5171 20 3.125
      vertex 248.5171 177.8878 11.85
      vertex 248.5171 20 5.925
    endloop
  endfacet
  facet normal 1 0 0
    outer loop
      vertex 248.5171 177.8878 3.125
      vertex 248.5171 230.5171 3.125
      vertex 248.5171 230.5171 11.85
    endloop
  endfacet
  facet normal 1 0 0
    outer loop
      vertex 248.5171 177.8878 3.125
      vertex 248.5171 230.5171 11.85
      vertex 248.5171 177.8878 11.85
    endloop
  endfacet
  facet normal 0 -1 0
    outer loop
      vertex 248.5171 20 3.125
      vertex 230.5171 20 5.925
      vertex 230.5171 20 3.125
    endloop
  endfacet
  facet normal 0 -1 0
    outer loop
      vertex 248.5171 20 3.125
      vertex 248.5171 20 5.925
      vertex 230.5171 20 5.925
    endloop
  endfacet
  facet normal 0 1 0
    outer loop
      vertex 230.5171 230.5171 3.125
      vertex 248.5171 230.5171 11.85
      vertex 248.5171 230.5171 3.125
    endloop
  endfacet
  facet normal 0 1 0
    outer loop
      vertex 230.5171 230.5171 3.125
      vertex 230.5171 230.5171 11.85
      vertex 248.5171 230.5171 11.85
    endloop
  endfacet
  facet normal -0 0 -1
    outer loop
      vertex 230.5171 20 3.125
      vertex 72.62927 2 3.125
      vertex 72.62927 20 3.125
    endloop
  endfacet
  facet normal 0 -0 -1
    outer loop
      vertex 230.5171 20 3.125
      vertex 230.5171 2 3.125
      vertex 72.62927 2 3.125
    endloop
  endfacet
  facet normal -0 0 -1
    outer loop
      vertex 72.62927 20 3.125
      vertex 20 2 3.125
      vertex 20 20 3.125
    endloop
  endfacet
  facet normal 0 -0 -1
    outer loop
      vertex 72.62927 20 3.125
      vertex 72.62927 2 3.125
      vertex 20 2 3.125
    endloop
  endfacet
  facet normal 0.03750025 0 0.9992966
    outer loop
      vertex 230.5171 20 5.925
      vertex 72.62927 20 11.85
      vertex 72.62927 2 11.85
    endloop
  endfacet
  facet normal 0.03750025 0 0.9992966
    outer loop
      vertex 230.5171 20 5.925
      vertex 72.62927 2 11.85
      vertex 230.5171 2 5.925
    endloop
  endfacet
  facet normal 0 0 1
    outer loop
      vertex 72.62927 20 11.85
      vertex 20 20 11.85
      vertex 20 2 11.85
    endloop
  endfacet
  facet normal 0 0 1
    outer loop
      vertex 72.62927 20 11.85
      vertex 20 2 11.85
      vertex 72.62927 2 11.85
    endloop
  endfacet
  facet normal 0 1 0
    outer loop
      vertex 230.5171 20 3.125
      vertex 72.62927 20 3.125
      vertex 72.62927 20 11.85
    endloop
  endfacet
  facet normal 0 1 -0
    outer loop
      vertex 230.5171 20 3.125
      vertex 72.62927 20 11.85
      vertex 230.5171 20 5.925
    endloop
  endfacet
  facet normal 0 1 0
    outer loop
      vertex 72.62927 20 3.125
      vertex 20 20 3.125
      vertex 20 20 11.85
    endloop
  endfacet
  facet normal 0 1 -0
    outer loop
      vertex 72.62927 20 3.125
      vertex 20 20 11.85
      vertex 72.62927 20 11.85
    endloop
  endfacet
  facet normal 0 -1 0
    outer loop
      vertex 230.5171 2 3.125
      vertex 72.62927 2 11.85
      vertex 72.62927 2 3.125
    endloop
  endfacet
  facet normal 0 -1 0
    outer loop
      vertex 230.5171 2 3.125
      vertex 230.5171 2 5.925
      vertex 72.62927 2 11.85
    endloop
  endfacet
  facet normal 0 -1 0
    outer loop
      vertex 72.62927 2 3.125
      vertex 20 2 11.85
      vertex 20 2 3.125
    endloop
  endfacet
  facet normal 0 -1 0
    outer loop
      vertex 72.62927 2 3.125
      vertex 72.62927 2 11.85
      vertex 20 2 11.85
    endloop
  endfacet
  facet normal 1 0 0
    outer loop
      vertex 230.5171 2 3.125
      vertex 230.5171 20 3.125
      vertex 230.5171 20 5.925
    endloop
  endfacet
  facet normal 1 0 0
    outer loop
      vertex 230.5171 2 3.125
      vertex 230.5171 20 5.925
      vertex 230.5171 2 5.925
    endloop
  endfacet
  facet normal -1 0 0
    outer loop
      vertex 20 20 3.125
      vertex 20 2 3.125
      vertex 20 2 11.85
    endloop
  endfacet
  facet normal -1 0 0
    outer loop
      vertex 20 20 3.125
      vertex 20 2 11.85
      vertex 20 20 11.85
    endloop
  endfacet
  facet normal 0 -0 -1
    outer loop
      vertex 20 230.5171 3.125
      vertex 20 72.62927 3.125
      vertex 2 72.62927 3.125
    endloop
  endfacet
  facet normal -0 0 -1
    outer loop
      vertex 20 230.5171 3.125
      vertex 2 72.62927 3.125
      vertex 2 230.5171 3.125
    endloop
  endfacet
  facet normal 0 -0 -1
    outer loop
      vertex 20 72.62927 3.125
      vertex 20 20 3.125
      vertex 2 20 3.125
    endloop
  endfacet
  facet normal -0 0 -1
    outer loop
      vertex 20 72.62927 3.125
      vertex 2 20 3.125
      vertex 2 72.62927 3.125
    endloop
  endfacet
  facet normal 0 0.03750025 0.9992966
    outer loop
      vertex 20 230.5171 5.925
      vertex 2 72.62927 11.85
      vertex 20 72.62927 11.85
    endloop
  endfacet
  facet normal 0 0.03750025 0.9992966
    outer loop
      vertex 20 230.5171 5.925
      vertex 2 230.5171 5.925
      vertex 2 72.62927 11.85
    endloop
  endfacet
  facet normal 0 0 1
    outer loop
      vertex 20 72.62927 11.85
      vertex 2 20 11.85
      vertex 20 20 11.85
    endloop
  endfacet
  facet normal 0 0 1
    outer loop
      vertex 20 72.62927 11.85
      vertex 2 72.62927 11.85
      vertex 2 20 11.85
    endloop
  endfacet
  facet normal 1 0 0
    outer loop
      vertex 20 230.5171 3.125
      vertex 20 72.62927 11.85
      vertex 20 72.62927 3.125
    endloop
  endfacet
  facet normal 1 0 -0
    outer loop
      vertex 20 230.5171 3.125
      vertex 20 230.5171 5.925
      vertex 20 72.62927 11.85
    endloop
  endfacet
  facet normal 1 0 0
    outer loop
      vertex 20 72.62927 3.125
      vertex 20 20 11.85
      vertex 20 20 3.125
    endloop
  endfacet
  facet normal 1 0 -0
    outer loop
      vertex 20 72.62927 3.125
      vertex 20 72.62927 11.85
      vertex 20 20 11.85
    endloop
  endfacet
  facet normal -1 0 0
    outer loop
      vertex 2 230.5171 3.125
      vertex 2 72.62927 3.125
      vertex 2 72.62927 11.85
    endloop
  endfacet
  facet normal -1 0 0
    outer loop
      vertex 2 230.5171 3.125
      vertex 2 72.62927 11.85
      vertex 2 230.5171 5.925
    endloop
  endfacet
  facet normal -1 0 0
    outer loop
      vertex 2 72.62927 3.125
      vertex 2 20 3.125
      vertex 2 20 11.85
    endloop
  endfacet
  facet normal -1 0 0
    outer loop
      vertex 2 72.62927 3.125
      vertex 2 20 11.85
      vertex 2 72.62927 11.85
    endloop
  endfacet
  facet normal 0 1 0
    outer loop
      vertex 2 230.5171 3.125
      vertex 20 230.5171 5.925
      vertex 20 230.5171 3.125
    endloop
  endfacet
  facet normal 0 1 0
    outer loop
      vertex 2 230.5171 3.125
      vertex 2 230.5171 5.925
      vertex 20 230.5171 5.925
    endloop
  endfacet
  facet normal 0 -1 0
    outer loop
      vertex 20 20 3.125
      vertex 2 20 11.85
      vertex 2 20 3.125
    endloop
  endfacet
  facet normal 0 -1 0
    outer loop
      vertex 20 20 3.125
      vertex 20 20 11.85
      vertex 2 20 11.85
    endloop
  endfacet
  facet normal 0 0 1
    outer loop
      vertex 230.5171 248.5171 11.85
      vertex 230.5171 230.5171 11.85
      vertex 248.5171 230.5171 11.85
    endloop
  endfacet
  facet normal 0 0 -1
    outer loop
      vertex 248.5171 230.5171 3.125
      vertex 230.5171 230.5171 3.125
      vertex 230.5171 248.5171 3.125
    endloop
  endfacet
  facet normal 0 -0 1
    outer loop
      vertex 248.5171 230.5171 11.85
      vertex 248.5171 242.2171 11.85
      vertex 242.2171 242.2171 11.85
    endloop
  endfacet
  facet normal 0 0 -1
    outer loop
      vertex 242.2171 242.2171 3.125
      vertex 248.5171 242.2171 3.125
      vertex 248.5171 230.5171 3.125
    endloop
  endfacet
  facet normal 0 0 1
    outer loop
      vertex 230.5171 248.5171 11.85
      vertex 248.5171 230.5171 11.85
      vertex 242.2171 242.2171 11.85
    endloop
  endfacet
  facet normal -0 -0 -1
    outer loop
      vertex 242.2171 242.2171 3.125
      vertex 248.5171 230.5171 3.125
      vertex 230.5171 248.5171 3.125
    endloop
  endfacet
  facet normal 0 -0 1
    outer loop
      vertex 242.2171 242.2171 11.85
      vertex 242.2171 248.5171 11.85
      vertex 230.5171 248.5171 11.85
    endloop
  endfacet
  facet normal 0 0 -1
    outer loop
      vertex 230.5171 248.5171 3.125
      vertex 242.2171 248.5171 3.125
      vertex 242.2171 242.2171 3.125
    endloop
  endfacet
  facet normal 0 -1 0
    outer loop
      vertex 230.5171 230.5171 3.125
      vertex 248.5171 230.5171 3.125
      vertex 248.5171 230.5171 11.85
    endloop
  endfacet
  facet normal 0 -1 0
    outer loop
      vertex 230.5171 230.5171 3.125
      vertex 248.5171 230.5171 11.85
      vertex 230.5171 230.5171 11.85
    endloop
  endfacet
  facet normal 1 0 0
    outer loop
      vertex 248.5171 230.5171 3.125
      vertex 248.5171 242.2171 3.125
      vertex 248.5171 242.2171 11.85
    endloop
  endfacet
  facet normal 1 0 0
    outer loop
      vertex 248.5171 230.5171 3.125
      vertex 248.5171 242.2171 11.85
      vertex 248.5171 230.5171 11.85
    endloop
  endfacet
  facet normal 0 1 0
    outer loop
      vertex 248.5171 242.2171 3.125
      vertex 242.2171 242.2171 3.125
      vertex 242.2171 242.2171 11.85
    endloop
  endfacet
  facet normal 0 1 -0
    outer loop
      vertex 248.5171 242.2171 3.125
      vertex 242.2171 242.2171 11.85
      vertex 248.5171 242.2171 11.85
    endloop
  endfacet
  facet normal 1 0 0
    outer loop
      vertex 242.2171 242.2171 3.125
      vertex 242.2171 248.5171 3.125
      vertex 242.2171 248.5171 11.85
    endloop
  endfacet
  facet normal 1 0 0
    outer loop
      vertex 242.2171 242.2171 3.125
      vertex 242.2171 248.5171 11.85
      vertex 242.2171 242.2171 11.85
    endloop
  endfacet
  facet normal 0 1 0
    outer loop
      vertex 242.2171 248.5171 3.125
      vertex 230.5171 248.5171 3.125
      vertex 230.5171 248.5171 11.85
    endloop
  endfacet
  facet normal 0 1 -0
    outer loop
      vertex 242.2171 248.5171 3.125
      vertex 230.5171 248.5171 11.85
      vertex 242.2171 248.5171 11.85
    endloop
  endfacet
  facet normal -1 0 0
    outer loop
      vertex 230.5171 248.5171 3.125
      vertex 230.5171 230.5171 3.125
      vertex 230.5171 230.5171 11.85
    endloop
  endfacet
  facet normal -1 0 0
    outer loop
      vertex 230.5171 248.5171 3.125
      vertex 230.5171 230.5171 11.85
      vertex 230.5171 248.5171 11.85
    endloop
  endfacet
  facet normal 0 0 1
    outer loop
      vertex 230.5171 20 5.925
      vertex 230.5171 2 5.925
      vertex 242.2171 2 5.925
    endloop
  endfacet
  facet normal 0 0 -1
    outer loop
      vertex 242.2171 2 3.125
      vertex 230.5171 2 3.125
      vertex 230.5171 20 3.125
    endloop
  endfacet
  facet normal 0 0 1
    outer loop
      vertex 230.5171 20 5.925
      vertex 242.2171 2 5.925
      vertex 242.2171 8.3 5.925
    endloop
  endfacet
  facet normal -0 -0 -1
    outer loop
      vertex 242.2171 8.3 3.125
      vertex 242.2171 2 3.125
      vertex 230.5171 20 3.125
    endloop
  endfacet
  facet normal 0 0 1
    outer loop
      vertex 230.5171 20 5.925
      vertex 242.2171 8.3 5.925
      vertex 248.5171 8.3 5.925
    endloop
  endfacet
  facet normal 0 0 -1
    outer loop
      vertex 248.5171 8.3 3.125
      vertex 242.2171 8.3 3.125
      vertex 230.5171 20 3.125
    endloop
  endfacet
  facet normal 0 -0 1
    outer loop
      vertex 248.5171 8.3 5.925
      vertex 248.5171 20 5.925
      vertex 230.5171 20 5.925
    endloop
  endfacet
  facet normal 0 0 -1
    outer loop
      vertex 230.5171 20 3.125
      vertex 248.5171 20 3.125
      vertex 248.5171 8.3 3.125
    endloop
  endfacet
  facet normal 0 -1 0
    outer loop
      vertex 230.5171 2 3.125
      vertex 242.2171 2 3.125
      vertex 242.2171 2 5.925
    endloop
  endfacet
  facet normal 0 -1 0
    outer loop
      vertex 230.5171 2 3.125
      vertex 242.2171 2 5.925
      vertex 230.5171 2 5.925
    endloop
  endfacet
  facet normal 1 0 0
    outer loop
      vertex 242.2171 2 3.125
      vertex 242.2171 8.3 3.125
      vertex 242.2171 8.3 5.925
    endloop
  endfacet
  facet normal 1 0 0
    outer loop
      vertex 242.2171 2 3.125
      vertex 242.2171 8.3 5.925
      vertex 242.2171 2 5.925
    endloop
  endfacet
  facet normal 0 -1 0
    outer loop
      vertex 242.2171 8.3 3.125
      vertex 248.5171 8.3 3.125
      vertex 248.5171 8.3 5.925
    endloop
  endfacet
  facet normal 0 -1 0
    outer loop
      vertex 242.2171 8.3 3.125
      vertex 248.5171 8.3 5.925
      vertex 242.2171 8.3 5.925
    endloop
  endfacet
  facet normal 1 0 0
    outer loop
      vertex 248.5171 8.3 3.125
      vertex 248.5171 20 3.125
      vertex 248.5171 20 5.925
    endloop
  endfacet
  facet normal 1 0 0
    outer loop
      vertex 248.5171 8.3 3.125
      vertex 248.5171 20 5.925
      vertex 248.5171 8.3 5.925
    endloop
  endfacet
  facet normal 0 1 0
    outer loop
      vertex 248.5171 20 3.125
      vertex 230.5171 20 3.125
      vertex 230.5171 20 5.925
    endloop
  endfacet
  facet normal 0 1 -0
    outer loop
      vertex 248.5171 20 3.125
      vertex 230.5171 20 5.925
      vertex 248.5171 20 5.925
    endloop
  endfacet
  facet normal -1 0 0
    outer loop
      vertex 230.5171 20 3.125
      vertex 230.5171 2 3.125
      vertex 230.5171 2 5.925
    endloop
  endfacet
  facet normal -1 0 0
    outer loop
      vertex 230.5171 20 3.125
      vertex 230.5171 2 5.925
      vertex 230.5171 20 5.925
    endloop
  endfacet
  facet normal 0 0 1
    outer loop
      vertex 8.3 8.3 11.85
      vertex 8.3 2 11.85
      vertex 20 2 11.85
    endloop
  endfacet
  facet normal 0 0 -1
    outer loop
      vertex 20 2 3.125
      vertex 8.3 2 3.125
      vertex 8.3 8.3 3.125
    endloop
  endfacet
  facet normal -0 0 1
    outer loop
      vertex 8.3 8.3 11.85
      vertex 20 2 11.85
      vertex 20 20 11.85
    endloop
  endfacet
  facet normal 0 -0 -1
    outer loop
      vertex 20 20 3.125
      vertex 20 2 3.125
      vertex 8.3 8.3 3.125
    endloop
  endfacet
  facet normal 0 -0 1
    outer loop
      vertex 8.3 8.3 11.85
      vertex 20 20 11.85
      vertex 2 20 11.85
    endloop
  endfacet
  facet normal 0 0 -1
    outer loop
      vertex 2 20 3.125
      vertex 20 20 3.125
      vertex 8.3 8.3 3.125
    endloop
  endfacet
  facet normal 0 0 1
    outer loop
      vertex 2 20 11.85
      vertex 2 8.3 11.85
      vertex 8.3 8.3 11.85
    endloop
  endfacet
  facet normal 0 0 -1
    outer loop
      vertex 8.3 8.3 3.125
      vertex 2 8.3 3.125
      vertex 2 20 3.125
    endloop
  endfacet
  facet normal 0 -1 0
    outer loop
      vertex 8.3 2 3.125
      vertex 20 2 3.125
      vertex 20 2 11.85
    endloop
  endfacet
  facet normal 0 -1 0
    outer loop
      vertex 8.3 2 3.125
      vertex 20 2 11.85
      vertex 8.3 2 11.85
    endloop
  endfacet
  facet normal 1 0 0
    outer loop
      vertex 20 2 3.125
      vertex 20 20 3.125
      vertex 20 20 11.85
    endloop
  endfacet
  facet normal 1 0 0
    outer loop
      vertex 20 2 3.125
      vertex 20 20 11.85
      vertex 20 2 11.85
    endloop
  endfacet
  facet normal 0 1 0
    outer loop
      vertex 20 20 3.125
      vertex 2 20 3.125
      vertex 2 20 11.85
    endloop
  endfacet
  facet normal 0 1 -0
    outer loop
      vertex 20 20 3.125
      vertex 2 20 11.85
      vertex 20 20 11.85
    endloop
  endfacet
  facet normal -1 0 0
    outer loop
      vertex 2 20 3.125
      vertex 2 8.3 3.125
      vertex 2 8.3 11.85
    endloop
  endfacet
  facet normal -1 0 0
    outer loop
      vertex 2 20 3.125
      vertex 2 8.3 11.85
      vertex 2 20 11.85
    endloop
  endfacet
  facet normal 0 -1 0
    outer loop
      vertex 2 8.3 3.125
      vertex 8.3 8.3 3.125
      vertex 8.3 8.3 11.85
    endloop
  endfacet
  facet normal 0 -1 0
    outer loop
      vertex 2 8.3 3.125
      vertex 8.3 8.3 11.85
      vertex 2 8.3 11.85
    endloop
  endfacet
  facet normal -1 0 0
    outer loop
      vertex 8.3 8.3 3.125
      vertex 8.3 2 3.125
      vertex 8.3 2 11.85
    endloop
  endfacet
  facet normal -1 0 0
    outer loop
      vertex 8.3 8.3 3.125
      vertex 8.3 2 11.85
      vertex 8.3 8.3 11.85
    endloop
  endfacet
  facet normal 0 0 1
    outer loop
      vertex 2 242.2171 5.925
      vertex 2 230.5171 5.925
      vertex 20 230.5171 5.925
    endloop
  endfacet
  facet normal 0 0 -1
    outer loop
      vertex 20 230.5171 3.125
      vertex 2 230.5171 3.125
      vertex 2 242.2171 3.125
    endloop
  endfacet
  facet normal 0 -0 1
    outer loop
      vertex 20 230.5171 5.925
      vertex 20 248.5171 5.925
      vertex 8.3 248.5171 5.925
    endloop
  endfacet
  facet normal 0 0 -1
    outer loop
      vertex 8.3 248.5171 3.125
      vertex 20 248.5171 3.125
      vertex 20 230.5171 3.125
    endloop
  endfacet
  facet normal 0 0 1
    outer loop
      vertex 20 230.5171 5.925
      vertex 8.3 248.5171 5.925
      vertex 8.3 242.2171 5.925
    endloop
  endfacet
  facet normal 0 0 -1
    outer loop
      vertex 8.3 242.2171 3.125
      vertex 8.3 248.5171 3.125
      vertex 20 230.5171 3.125
    endloop
  endfacet
  facet normal 0 0 1
    outer loop
      vertex 20 230.5171 5.925
      vertex 8.3 242.2171 5.925
      vertex 2 242.2171 5.925
    endloop
  endfacet
  facet normal 0 0 -1
    outer loop
      vertex 2 242.2171 3.125
      vertex 8.3 242.2171 3.125
      vertex 20 230.5171 3.125
    endloop
  endfacet
  facet normal 0 -1 0
    outer loop
      vertex 2 230.5171 3.125
      vertex 20 230.5171 3.125
      vertex 20 230.5171 5.925
    endloop
  endfacet
  facet normal 0 -1 0
    outer loop
      vertex 2 230.5171 3.125
      vertex 20 230.5171 5.925
      vertex 2 230.5171 5.925
    endloop
  endfacet
  facet normal 1 0 0
    outer loop
      vertex 20 230.5171 3.125
      vertex 20 248.5171 3.125
      vertex 20 248.5171 5.925
    endloop
  endfacet
  facet normal 1 0 0
    outer loop
      vertex 20 230.5171 3.125
      vertex 20 248.5171 5.925
      vertex 20 230.5171 5.925
    endloop
  endfacet
  facet normal 0 1 0
    outer loop
      vertex 20 248.5171 3.125
      vertex 8.3 248.5171 3.125
      vertex 8.3 248.5171 5.925
    endloop
  endfacet
  facet normal 0 1 -0
    outer loop
      vertex 20 248.5171 3.125
      vertex 8.3 248.5171 5.925
      vertex 20 248.5171 5.925
    endloop
  endfacet
  facet normal -1 0 0
    outer loop
      vertex 8.3 248.5171 3.125
      vertex 8.3 242.2171 3.125
      vertex 8.3 242.2171 5.925
    endloop
  endfacet
  facet normal -1 0 0
    outer loop
      vertex 8.3 248.5171 3.125
      vertex 8.3 242.2171 5.925
      vertex 8.3 248.5171 5.925
    endloop
  endfacet
  facet normal 0 1 0
    outer loop
      vertex 8.3 242.2171 3.125
      vertex 2 242.2171 3.125
      vertex 2 242.2171 5.925
    endloop
  endfacet
  facet normal 0 1 -0
    outer loop
      vertex 8.3 242.2171 3.125
      vertex 2 242.2171 5.925
      vertex 8.3 242.2171 5.925
    endloop
  endfacet
  facet normal -1 0 0
    outer loop
      vertex 2 242.2171 3.125
      vertex 2 230.5171 3.125
      vertex 2 230.5171 5.925
    endloop
  endfacet
  facet normal -1 0 0
    outer loop
      vertex 2 242.2171 3.125
      vertex 2 230.5171 5.925
      vertex 2 242.2171 5.925
    endloop
  endfacet
endsolid temporary_switchback_ramp_layer_03
