solid temporary_switchback_ramp_layer_06
  facet normal 0 0 1
    outer loop
      vertex 2 8.65 3.125
      vertex 8.65 8.65 3.125
      vertex 8.65 19.65 3.125
    endloop
  endfacet
  facet normal 0 0 1
    outer loop
      vertex 2 8.65 3.125
      vertex 8.65 19.65 3.125
      vertex 2 19.65 3.125
    endloop
  endfacet
  facet normal 0 0 -1
    outer loop
      vertex 2 19.65 0
      vertex 8.65 19.65 0
      vertex 8.65 8.65 0
    endloop
  endfacet
  facet normal 0 0 -1
    outer loop
      vertex 2 19.65 0
      vertex 8.65 8.65 0
      vertex 2 8.65 0
    endloop
  endfacet
  facet normal 0 -1 0
    outer loop
      vertex 2 8.65 0
      vertex 8.65 8.65 0
      vertex 8.65 8.65 3.125
    endloop
  endfacet
  facet normal 0 -1 0
    outer loop
      vertex 2 8.65 0
      vertex 8.65 8.65 3.125
      vertex 2 8.65 3.125
    endloop
  endfacet
  facet normal -1 0 0
    outer loop
      vertex 2 19.65 0
      vertex 2 8.65 0
      vertex 2 8.65 3.125
    endloop
  endfacet
  facet normal -1 0 0
    outer loop
      vertex 2 19.65 0
      vertex 2 8.65 3.125
      vertex 2 19.65 3.125
    endloop
  endfacet
  facet normal 0 0 1
    outer loop
      vertex 2 19.65 3.125
      vertex 8.65 19.65 3.125
      vertex 8.65 202.93 3.125
    endloop
  endfacet
  facet normal 0 0 1
    outer loop
      vertex 2 19.65 3.125
      vertex 8.65 202.93 3.125
      vertex 2 202.93 3.125
    endloop
  endfacet
  facet normal 0 0 -1
    outer loop
      vertex 2 202.93 0
      vertex 8.65 202.93 0
      vertex 8.65 19.65 0
    endloop
  endfacet
  facet normal 0 0 -1
    outer loop
      vertex 2 202.93 0
      vertex 8.65 19.65 0
      vertex 2 19.65 0
    endloop
  endfacet
  facet normal -1 0 0
    outer loop
      vertex 2 202.93 0
      vertex 2 19.65 0
      vertex 2 19.65 3.125
    endloop
  endfacet
  facet normal -1 0 0
    outer loop
      vertex 2 202.93 0
      vertex 2 19.65 3.125
      vertex 2 202.93 3.125
    endloop
  endfacet
  facet normal 0 0 1
    outer loop
      vertex 2 202.93 3.125
      vertex 8.65 202.93 3.125
      vertex 8.65 213.93 3.125
    endloop
  endfacet
  facet normal 0 0 1
    outer loop
      vertex 2 202.93 3.125
      vertex 8.65 213.93 3.125
      vertex 2 213.93 3.125
    endloop
  endfacet
  facet normal 0 0 -1
    outer loop
      vertex 2 213.93 0
      vertex 8.65 213.93 0
      vertex 8.65 202.93 0
    endloop
  endfacet
  facet normal 0 0 -1
    outer loop
      vertex 2 213.93 0
      vertex 8.65 202.93 0
      vertex 2 202.93 0
    endloop
  endfacet
  facet normal 0 1 0
    outer loop
      vertex 8.65 213.93 0
      vertex 2 213.93 0
      vertex 2 213.93 3.125
    endloop
  endfacet
  facet normal 0 1 -0
    outer loop
      vertex 8.65 213.93 0
      vertex 2 213.93 3.125
      vertex 8.65 213.93 3.125
    endloop
  endfacet
  facet normal -1 0 0
    outer loop
      vertex 2 213.93 0
      vertex 2 202.93 0
      vertex 2 202.93 3.125
    endloop
  endfacet
  facet normal -1 0 0
    outer loop
      vertex 2 213.93 0
      vertex 2 202.93 3.125
      vertex 2 213.93 3.125
    endloop
  endfacet
  facet normal 0 0 1
    outer loop
      vertex 8.65 2 3.125
      vertex 19.65 2 3.125
      vertex 19.65 8.65 3.125
    endloop
  endfacet
  facet normal 0 0 1
    outer loop
      vertex 8.65 2 3.125
      vertex 19.65 8.65 3.125
      vertex 8.65 8.65 3.125
    endloop
  endfacet
  facet normal 0 0 -1
    outer loop
      vertex 8.65 8.65 0
      vertex 19.65 8.65 0
      vertex 19.65 2 0
    endloop
  endfacet
  facet normal 0 0 -1
    outer loop
      vertex 8.65 8.65 0
      vertex 19.65 2 0
      vertex 8.65 2 0
    endloop
  endfacet
  facet normal 0 -1 0
    outer loop
      vertex 8.65 2 0
      vertex 19.65 2 0
      vertex 19.65 2 3.125
    endloop
  endfacet
  facet normal 0 -1 0
    outer loop
      vertex 8.65 2 0
      vertex 19.65 2 3.125
      vertex 8.65 2 3.125
    endloop
  endfacet
  facet normal -1 0 0
    outer loop
      vertex 8.65 8.65 0
      vertex 8.65 2 0
      vertex 8.65 2 3.125
    endloop
  endfacet
  facet normal -1 0 0
    outer loop
      vertex 8.65 8.65 0
      vertex 8.65 2 3.125
      vertex 8.65 8.65 3.125
    endloop
  endfacet
  facet normal 0 0 1
    outer loop
      vertex 8.65 8.65 3.125
      vertex 19.65 8.65 3.125
      vertex 19.65 19.65 3.125
    endloop
  endfacet
  facet normal 0 0 1
    outer loop
      vertex 8.65 8.65 3.125
      vertex 19.65 19.65 3.125
      vertex 8.65 19.65 3.125
    endloop
  endfacet
  facet normal 0 0 -1
    outer loop
      vertex 8.65 19.65 0
      vertex 19.65 19.65 0
      vertex 19.65 8.65 0
    endloop
  endfacet
  facet normal 0 0 -1
    outer loop
      vertex 8.65 19.65 0
      vertex 19.65 8.65 0
      vertex 8.65 8.65 0
    endloop
  endfacet
  facet normal 0 0 1
    outer loop
      vertex 8.65 19.65 3.125
      vertex 19.65 19.65 3.125
      vertex 19.65 202.93 3.125
    endloop
  endfacet
  facet normal 0 0 1
    outer loop
      vertex 8.65 19.65 3.125
      vertex 19.65 202.93 3.125
      vertex 8.65 202.93 3.125
    endloop
  endfacet
  facet normal 0 0 -1
    outer loop
      vertex 8.65 202.93 0
      vertex 19.65 202.93 0
      vertex 19.65 19.65 0
    endloop
  endfacet
  facet normal 0 0 -1
    outer loop
      vertex 8.65 202.93 0
      vertex 19.65 19.65 0
      vertex 8.65 19.65 0
    endloop
  endfacet
  facet normal 1 0 0
    outer loop
      vertex 19.65 19.65 0
      vertex 19.65 202.93 0
      vertex 19.65 202.93 3.125
    endloop
  endfacet
  facet normal 1 0 0
    outer loop
      vertex 19.65 19.65 0
      vertex 19.65 202.93 3.125
      vertex 19.65 19.65 3.125
    endloop
  endfacet
  facet normal 0 0 1
    outer loop
      vertex 8.65 202.93 3.125
      vertex 19.65 202.93 3.125
      vertex 19.65 213.93 3.125
    endloop
  endfacet
  facet normal 0 0 1
    outer loop
      vertex 8.65 202.93 3.125
      vertex 19.65 213.93 3.125
      vertex 8.65 213.93 3.125
    endloop
  endfacet
  facet normal 0 0 -1
    outer loop
      vertex 8.65 213.93 0
      vertex 19.65 213.93 0
      vertex 19.65 202.93 0
    endloop
  endfacet
  facet normal 0 0 -1
    outer loop
      vertex 8.65 213.93 0
      vertex 19.65 202.93 0
      vertex 8.65 202.93 0
    endloop
  endfacet
  facet normal 0 0 1
    outer loop
      vertex 8.65 213.93 3.125
      vertex 19.65 213.93 3.125
      vertex 19.65 220.58 3.125
    endloop
  endfacet
  facet normal 0 0 1
    outer loop
      vertex 8.65 213.93 3.125
      vertex 19.65 220.58 3.125
      vertex 8.65 220.58 3.125
    endloop
  endfacet
  facet normal 0 0 -1
    outer loop
      vertex 8.65 220.58 0
      vertex 19.65 220.58 0
      vertex 19.65 213.93 0
    endloop
  endfacet
  facet normal 0 0 -1
    outer loop
      vertex 8.65 220.58 0
      vertex 19.65 213.93 0
      vertex 8.65 213.93 0
    endloop
  endfacet
  facet normal 0 1 0
    outer loop
      vertex 19.65 220.58 0
      vertex 8.65 220.58 0
      vertex 8.65 220.58 3.125
    endloop
  endfacet
  facet normal 0 1 -0
    outer loop
      vertex 19.65 220.58 0
      vertex 8.65 220.58 3.125
      vertex 19.65 220.58 3.125
    endloop
  endfacet
  facet normal -1 0 0
    outer loop
      vertex 8.65 220.58 0
      vertex 8.65 213.93 0
      vertex 8.65 213.93 3.125
    endloop
  endfacet
  facet normal -1 0 0
    outer loop
      vertex 8.65 220.58 0
      vertex 8.65 213.93 3.125
      vertex 8.65 220.58 3.125
    endloop
  endfacet
  facet normal 0 0 1
    outer loop
      vertex 19.65 2 3.125
      vertex 202.93 2 3.125
      vertex 202.93 8.65 3.125
    endloop
  endfacet
  facet normal 0 0 1
    outer loop
      vertex 19.65 2 3.125
      vertex 202.93 8.65 3.125
      vertex 19.65 8.65 3.125
    endloop
  endfacet
  facet normal 0 0 -1
    outer loop
      vertex 19.65 8.65 0
      vertex 202.93 8.65 0
      vertex 202.93 2 0
    endloop
  endfacet
  facet normal 0 0 -1
    outer loop
      vertex 19.65 8.65 0
      vertex 202.93 2 0
      vertex 19.65 2 0
    endloop
  endfacet
  facet normal 0 -1 0
    outer loop
      vertex 19.65 2 0
      vertex 202.93 2 0
      vertex 202.93 2 3.125
    endloop
  endfacet
  facet normal 0 -1 0
    outer loop
      vertex 19.65 2 0
      vertex 202.93 2 3.125
      vertex 19.65 2 3.125
    endloop
  endfacet
  facet normal 0 0 1
    outer loop
      vertex 19.65 8.65 3.125
      vertex 202.93 8.65 3.125
      vertex 202.93 19.65 3.125
    endloop
  endfacet
  facet normal 0 0 1
    outer loop
      vertex 19.65 8.65 3.125
      vertex 202.93 19.65 3.125
      vertex 19.65 19.65 3.125
    endloop
  endfacet
  facet normal 0 0 -1
    outer loop
      vertex 19.65 19.65 0
      vertex 202.93 19.65 0
      vertex 202.93 8.65 0
    endloop
  endfacet
  facet normal 0 0 -1
    outer loop
      vertex 19.65 19.65 0
      vertex 202.93 8.65 0
      vertex 19.65 8.65 0
    endloop
  endfacet
  facet normal 0 1 0
    outer loop
      vertex 202.93 19.65 0
      vertex 19.65 19.65 0
      vertex 19.65 19.65 3.125
    endloop
  endfacet
  facet normal 0 1 -0
    outer loop
      vertex 202.93 19.65 0
      vertex 19.65 19.65 3.125
      vertex 202.93 19.65 3.125
    endloop
  endfacet
  facet normal 0 0 1
    outer loop
      vertex 19.65 202.93 3.125
      vertex 202.93 202.93 3.125
      vertex 202.93 213.93 3.125
    endloop
  endfacet
  facet normal 0 0 1
    outer loop
      vertex 19.65 202.93 3.125
      vertex 202.93 213.93 3.125
      vertex 19.65 213.93 3.125
    endloop
  endfacet
  facet normal 0 0 -1
    outer loop
      vertex 19.65 213.93 0
      vertex 202.93 213.93 0
      vertex 202.93 202.93 0
    endloop
  endfacet
  facet normal 0 0 -1
    outer loop
      vertex 19.65 213.93 0
      vertex 202.93 202.93 0
      vertex 19.65 202.93 0
    endloop
  endfacet
  facet normal 0 -1 0
    outer loop
      vertex 19.65 202.93 0
      vertex 202.93 202.93 0
      vertex 202.93 202.93 3.125
    endloop
  endfacet
  facet normal 0 -1 0
    outer loop
      vertex 19.65 202.93 0
      vertex 202.93 202.93 3.125
      vertex 19.65 202.93 3.125
    endloop
  endfacet
  facet normal 0 0 1
    outer loop
      vertex 19.65 213.93 3.125
      vertex 202.93 213.93 3.125
      vertex 202.93 220.58 3.125
    endloop
  endfacet
  facet normal 0 0 1
    outer loop
      vertex 19.65 213.93 3.125
      vertex 202.93 220.58 3.125
      vertex 19.65 220.58 3.125
    endloop
  endfacet
  facet normal 0 0 -1
    outer loop
      vertex 19.65 220.58 0
      vertex 202.93 220.58 0
      vertex 202.93 213.93 0
    endloop
  endfacet
  facet normal 0 0 -1
    outer loop
      vertex 19.65 220.58 0
      vertex 202.93 213.93 0
      vertex 19.65 213.93 0
    endloop
  endfacet
  facet normal 0 1 0
    outer loop
      vertex 202.93 220.58 0
      vertex 19.65 220.58 0
      vertex 19.65 220.58 3.125
    endloop
  endfacet
  facet normal 0 1 -0
    outer loop
      vertex 202.93 220.58 0
      vertex 19.65 220.58 3.125
      vertex 202.93 220.58 3.125
    endloop
  endfacet
  facet normal 0 0 1
    outer loop
      vertex 202.93 2 3.125
      vertex 213.93 2 3.125
      vertex 213.93 8.65 3.125
    endloop
  endfacet
  facet normal 0 0 1
    outer loop
      vertex 202.93 2 3.125
      vertex 213.93 8.65 3.125
      vertex 202.93 8.65 3.125
    endloop
  endfacet
  facet normal 0 0 -1
    outer loop
      vertex 202.93 8.65 0
      vertex 213.93 8.65 0
      vertex 213.93 2 0
    endloop
  endfacet
  facet normal 0 0 -1
    outer loop
      vertex 202.93 8.65 0
      vertex 213.93 2 0
      vertex 202.93 2 0
    endloop
  endfacet
  facet normal 0 -1 0
    outer loop
      vertex 202.93 2 0
      vertex 213.93 2 0
      vertex 213.93 2 3.125
    endloop
  endfacet
  facet normal 0 -1 0
    outer loop
      vertex 202.93 2 0
      vertex 213.93 2 3.125
      vertex 202.93 2 3.125
    endloop
  endfacet
  facet normal 1 0 0
    outer loop
      vertex 213.93 2 0
      vertex 213.93 8.65 0
      vertex 213.93 8.65 3.125
    endloop
  endfacet
  facet normal 1 0 0
    outer loop
      vertex 213.93 2 0
      vertex 213.93 8.65 3.125
      vertex 213.93 2 3.125
    endloop
  endfacet
  facet normal 0 0 1
    outer loop
      vertex 202.93 8.65 3.125
      vertex 213.93 8.65 3.125
      vertex 213.93 19.65 3.125
    endloop
  endfacet
  facet normal 0 0 1
    outer loop
      vertex 202.93 8.65 3.125
      vertex 213.93 19.65 3.125
      vertex 202.93 19.65 3.125
    endloop
  endfacet
  facet normal 0 0 -1
    outer loop
      vertex 202.93 19.65 0
      vertex 213.93 19.65 0
      vertex 213.93 8.65 0
    endloop
  endfacet
  facet normal 0 0 -1
    outer loop
      vertex 202.93 19.65 0
      vertex 213.93 8.65 0
      vertex 202.93 8.65 0
    endloop
  endfacet
  facet normal 0 0 1
    outer loop
      vertex 202.93 19.65 3.125
      vertex 213.93 19.65 3.125
      vertex 213.93 202.93 3.125
    endloop
  endfacet
  facet normal 0 0 1
    outer loop
      vertex 202.93 19.65 3.125
      vertex 213.93 202.93 3.125
      vertex 202.93 202.93 3.125
    endloop
  endfacet
  facet normal 0 0 -1
    outer loop
      vertex 202.93 202.93 0
      vertex 213.93 202.93 0
      vertex 213.93 19.65 0
    endloop
  endfacet
  facet normal 0 0 -1
    outer loop
      vertex 202.93 202.93 0
      vertex 213.93 19.65 0
      vertex 202.93 19.65 0
    endloop
  endfacet
  facet normal -1 0 0
    outer loop
      vertex 202.93 202.93 0
      vertex 202.93 19.65 0
      vertex 202.93 19.65 3.125
    endloop
  endfacet
  facet normal -1 0 0
    outer loop
      vertex 202.93 202.93 0
      vertex 202.93 19.65 3.125
      vertex 202.93 202.93 3.125
    endloop
  endfacet
  facet normal 0 0 1
    outer loop
      vertex 202.93 202.93 3.125
      vertex 213.93 202.93 3.125
      vertex 213.93 213.93 3.125
    endloop
  endfacet
  facet normal 0 0 1
    outer loop
      vertex 202.93 202.93 3.125
      vertex 213.93 213.93 3.125
      vertex 202.93 213.93 3.125
    endloop
  endfacet
  facet normal 0 0 -1
    outer loop
      vertex 202.93 213.93 0
      vertex 213.93 213.93 0
      vertex 213.93 202.93 0
    endloop
  endfacet
  facet normal 0 0 -1
    outer loop
      vertex 202.93 213.93 0
      vertex 213.93 202.93 0
      vertex 202.93 202.93 0
    endloop
  endfacet
  facet normal 0 0 1
    outer loop
      vertex 202.93 213.93 3.125
      vertex 213.93 213.93 3.125
      vertex 213.93 220.58 3.125
    endloop
  endfacet
  facet normal 0 0 1
    outer loop
      vertex 202.93 213.93 3.125
      vertex 213.93 220.58 3.125
      vertex 202.93 220.58 3.125
    endloop
  endfacet
  facet normal 0 0 -1
    outer loop
      vertex 202.93 220.58 0
      vertex 213.93 220.58 0
      vertex 213.93 213.93 0
    endloop
  endfacet
  facet normal 0 0 -1
    outer loop
      vertex 202.93 220.58 0
      vertex 213.93 213.93 0
      vertex 202.93 213.93 0
    endloop
  endfacet
  facet normal 1 0 0
    outer loop
      vertex 213.93 213.93 0
      vertex 213.93 220.58 0
      vertex 213.93 220.58 3.125
    endloop
  endfacet
  facet normal 1 0 0
    outer loop
      vertex 213.93 213.93 0
      vertex 213.93 220.58 3.125
      vertex 213.93 213.93 3.125
    endloop
  endfacet
  facet normal 0 1 0
    outer loop
      vertex 213.93 220.58 0
      vertex 202.93 220.58 0
      vertex 202.93 220.58 3.125
    endloop
  endfacet
  facet normal 0 1 -0
    outer loop
      vertex 213.93 220.58 0
      vertex 202.93 220.58 3.125
      vertex 213.93 220.58 3.125
    endloop
  endfacet
  facet normal 0 0 1
    outer loop
      vertex 213.93 8.65 3.125
      vertex 220.58 8.65 3.125
      vertex 220.58 19.65 3.125
    endloop
  endfacet
  facet normal 0 0 1
    outer loop
      vertex 213.93 8.65 3.125
      vertex 220.58 19.65 3.125
      vertex 213.93 19.65 3.125
    endloop
  endfacet
  facet normal 0 0 -1
    outer loop
      vertex 213.93 19.65 0
      vertex 220.58 19.65 0
      vertex 220.58 8.65 0
    endloop
  endfacet
  facet normal 0 0 -1
    outer loop
      vertex 213.93 19.65 0
      vertex 220.58 8.65 0
      vertex 213.93 8.65 0
    endloop
  endfacet
  facet normal 0 -1 0
    outer loop
      vertex 213.93 8.65 0
      vertex 220.58 8.65 0
      vertex 220.58 8.65 3.125
    endloop
  endfacet
  facet normal 0 -1 0
    outer loop
      vertex 213.93 8.65 0
      vertex 220.58 8.65 3.125
      vertex 213.93 8.65 3.125
    endloop
  endfacet
  facet normal 1 0 0
    outer loop
      vertex 220.58 8.65 0
      vertex 220.58 19.65 0
      vertex 220.58 19.65 3.125
    endloop
  endfacet
  facet normal 1 0 0
    outer loop
      vertex 220.58 8.65 0
      vertex 220.58 19.65 3.125
      vertex 220.58 8.65 3.125
    endloop
  endfacet
  facet normal 0 0 1
    outer loop
      vertex 213.93 19.65 3.125
      vertex 220.58 19.65 3.125
      vertex 220.58 202.93 3.125
    endloop
  endfacet
  facet normal 0 0 1
    outer loop
      vertex 213.93 19.65 3.125
      vertex 220.58 202.93 3.125
      vertex 213.93 202.93 3.125
    endloop
  endfacet
  facet normal 0 0 -1
    outer loop
      vertex 213.93 202.93 0
      vertex 220.58 202.93 0
      vertex 220.58 19.65 0
    endloop
  endfacet
  facet normal 0 0 -1
    outer loop
      vertex 213.93 202.93 0
      vertex 220.58 19.65 0
      vertex 213.93 19.65 0
    endloop
  endfacet
  facet normal 1 0 0
    outer loop
      vertex 220.58 19.65 0
      vertex 220.58 202.93 0
      vertex 220.58 202.93 3.125
    endloop
  endfacet
  facet normal 1 0 0
    outer loop
      vertex 220.58 19.65 0
      vertex 220.58 202.93 3.125
      vertex 220.58 19.65 3.125
    endloop
  endfacet
  facet normal 0 0 1
    outer loop
      vertex 213.93 202.93 3.125
      vertex 220.58 202.93 3.125
      vertex 220.58 213.93 3.125
    endloop
  endfacet
  facet normal 0 0 1
    outer loop
      vertex 213.93 202.93 3.125
      vertex 220.58 213.93 3.125
      vertex 213.93 213.93 3.125
    endloop
  endfacet
  facet normal 0 0 -1
    outer loop
      vertex 213.93 213.93 0
      vertex 220.58 213.93 0
      vertex 220.58 202.93 0
    endloop
  endfacet
  facet normal 0 0 -1
    outer loop
      vertex 213.93 213.93 0
      vertex 220.58 202.93 0
      vertex 213.93 202.93 0
    endloop
  endfacet
  facet normal 1 0 0
    outer loop
      vertex 220.58 202.93 0
      vertex 220.58 213.93 0
      vertex 220.58 213.93 3.125
    endloop
  endfacet
  facet normal 1 0 0
    outer loop
      vertex 220.58 202.93 0
      vertex 220.58 213.93 3.125
      vertex 220.58 202.93 3.125
    endloop
  endfacet
  facet normal 0 1 0
    outer loop
      vertex 220.58 213.93 0
      vertex 213.93 213.93 0
      vertex 213.93 213.93 3.125
    endloop
  endfacet
  facet normal 0 1 -0
    outer loop
      vertex 220.58 213.93 0
      vertex 213.93 213.93 3.125
      vertex 220.58 213.93 3.125
    endloop
  endfacet
  facet normal 0 0 -1
    outer loop
      vertex 202.58 202.58 3.125
      vertex 65.64499 202.58 3.125
      vertex 65.64499 220.58 3.125
    endloop
  endfacet
  facet normal 0 0 -1
    outer loop
      vertex 202.58 202.58 3.125
      vertex 65.64499 220.58 3.125
      vertex 202.58 220.58 3.125
    endloop
  endfacet
  facet normal 0 0 -1
    outer loop
      vertex 65.64499 202.58 3.125
      vertex 20 202.58 3.125
      vertex 20 220.58 3.125
    endloop
  endfacet
  facet normal 0 0 -1
    outer loop
      vertex 65.64499 202.58 3.125
      vertex 20 220.58 3.125
      vertex 65.64499 220.58 3.125
    endloop
  endfacet
  facet normal 0.04322827 0 0.9990652
    outer loop
      vertex 202.58 202.58 5.925
      vertex 65.64499 220.58 11.85
      vertex 65.64499 202.58 11.85
    endloop
  endfacet
  facet normal 0.04322827 -0 0.9990652
    outer loop
      vertex 202.58 202.58 5.925
      vertex 202.58 220.58 5.925
      vertex 65.64499 220.58 11.85
    endloop
  endfacet
  facet normal 0 0 1
    outer loop
      vertex 65.64499 202.58 11.85
      vertex 20 220.58 11.85
      vertex 20 202.58 11.85
    endloop
  endfacet
  facet normal 0 -0 1
    outer loop
      vertex 65.64499 202.58 11.85
      vertex 65.64499 220.58 11.85
      vertex 20 220.58 11.85
    endloop
  endfacet
  facet normal 0 -1 0
    outer loop
      vertex 202.58 202.58 3.125
      vertex 65.64499 202.58 11.85
      vertex 65.64499 202.58 3.125
    endloop
  endfacet
  facet normal 0 -1 0
    outer loop
      vertex 202.58 202.58 3.125
      vertex 202.58 202.58 5.925
      vertex 65.64499 202.58 11.85
    endloop
  endfacet
  facet normal 0 -1 0
    outer loop
      vertex 65.64499 202.58 3.125
      vertex 20 202.58 11.85
      vertex 20 202.58 3.125
    endloop
  endfacet
  facet normal 0 -1 0
    outer loop
      vertex 65.64499 202.58 3.125
      vertex 65.64499 202.58 11.85
      vertex 20 202.58 11.85
    endloop
  endfacet
  facet normal 0 1 0
    outer loop
      vertex 202.58 220.58 3.125
      vertex 65.64499 220.58 3.125
      vertex 65.64499 220.58 11.85
    endloop
  endfacet
  facet normal 0 1 -0
    outer loop
      vertex 202.58 220.58 3.125
      vertex 65.64499 220.58 11.85
      vertex 202.58 220.58 5.925
    endloop
  endfacet
  facet normal 0 1 0
    outer loop
      vertex 65.64499 220.58 3.125
      vertex 20 220.58 3.125
      vertex 20 220.58 11.85
    endloop
  endfacet
  facet normal 0 1 -0
    outer loop
      vertex 65.64499 220.58 3.125
      vertex 20 220.58 11.85
      vertex 65.64499 220.58 11.85
    endloop
  endfacet
  facet normal 1 0 0
    outer loop
      vertex 202.58 220.58 3.125
      vertex 202.58 202.58 5.925
      vertex 202.58 202.58 3.125
    endloop
  endfacet
  facet normal 1 0 -0
    outer loop
      vertex 202.58 220.58 3.125
      vertex 202.58 220.58 5.925
      vertex 202.58 202.58 5.925
    endloop
  endfacet
  facet normal -1 0 0
    outer loop
      vertex 20 202.58 3.125
      vertex 20 220.58 11.85
      vertex 20 220.58 3.125
    endloop
  endfacet
  facet normal -1 0 0
    outer loop
      vertex 20 202.58 3.125
      vertex 20 202.58 11.85
      vertex 20 220.58 11.85
    endloop
  endfacet
  facet normal 0 0 -1
    outer loop
      vertex 202.58 202.58 3.125
      vertex 220.58 65.64499 3.125
      vertex 202.58 65.64499 3.125
    endloop
  endfacet
  facet normal 0 0 -1
    outer loop
      vertex 202.58 202.58 3.125
      vertex 220.58 202.58 3.125
      vertex 220.58 65.64499 3.125
    endloop
  endfacet
  facet normal 0 0 -1
    outer loop
      vertex 202.58 65.64499 3.125
      vertex 220.58 20 3.125
      vertex 202.58 20 3.125
    endloop
  endfacet
  facet normal 0 0 -1
    outer loop
      vertex 202.58 65.64499 3.125
      vertex 220.58 65.64499 3.125
      vertex 220.58 20 3.125
    endloop
  endfacet
  facet normal 0 0.04322827 0.9990652
    outer loop
      vertex 202.58 202.58 5.925
      vertex 202.58 65.64499 11.85
      vertex 220.58 65.64499 11.85
    endloop
  endfacet
  facet normal -0 0.04322827 0.9990652
    outer loop
      vertex 202.58 202.58 5.925
      vertex 220.58 65.64499 11.85
      vertex 220.58 202.58 5.925
    endloop
  endfacet
  facet normal 0 0 1
    outer loop
      vertex 202.58 65.64499 11.85
      vertex 202.58 20 11.85
      vertex 220.58 20 11.85
    endloop
  endfacet
  facet normal -0 0 1
    outer loop
      vertex 202.58 65.64499 11.85
      vertex 220.58 20 11.85
      vertex 220.58 65.64499 11.85
    endloop
  endfacet
  facet normal -1 0 0
    outer loop
      vertex 202.58 202.58 3.125
      vertex 202.58 65.64499 3.125
      vertex 202.58 65.64499 11.85
    endloop
  endfacet
  facet normal -1 0 0
    outer loop
      vertex 202.58 202.58 3.125
      vertex 202.58 65.64499 11.85
      vertex 202.58 202.58 5.925
    endloop
  endfacet
  facet normal -1 0 0
    outer loop
      vertex 202.58 65.64499 3.125
      vertex 202.58 20 3.125
      vertex 202.58 20 11.85
    endloop
  endfacet
  facet normal -1 0 0
    outer loop
      vertex 202.58 65.64499 3.125
      vertex 202.58 20 11.85
      vertex 202.58 65.64499 11.85
    endloop
  endfacet
  facet normal 1 0 0
    outer loop
      vertex 220.58 202.58 3.125
      vertex 220.58 65.64499 11.85
      vertex 220.58 65.64499 3.125
    endloop
  endfacet
  facet normal 1 0 -0
    outer loop
      vertex 220.58 202.58 3.125
      vertex 220.58 202.58 5.925
      vertex 220.58 65.64499 11.85
    endloop
  endfacet
  facet normal 1 0 0
    outer loop
      vertex 220.58 65.64499 3.125
      vertex 220.58 20 11.85
      vertex 220.58 20 3.125
    endloop
  endfacet
  facet normal 1 0 -0
    outer loop
      vertex 220.58 65.64499 3.125
      vertex 220.58 65.64499 11.85
      vertex 220.58 20 11.85
    endloop
  endfacet
  facet normal 0 1 0
    outer loop
      vertex 220.58 202.58 3.125
      vertex 202.58 202.58 3.125
      vertex 202.58 202.58 5.925
    endloop
  endfacet
  facet normal 0 1 -0
    outer loop
      vertex 220.58 202.58 3.125
      vertex 202.58 202.58 5.925
      vertex 220.58 202.58 5.925
    endloop
  endfacet
  facet normal 0 -1 0
    outer loop
      vertex 202.58 20 3.125
      vertex 220.58 20 3.125
      vertex 220.58 20 11.85
    endloop
  endfacet
  facet normal 0 -1 0
    outer loop
      vertex 202.58 20 3.125
      vertex 220.58 20 11.85
      vertex 202.58 20 11.85
    endloop
  endfacet
  facet normal 0 0 -1
    outer loop
      vertex 20 20 3.125
      vertex 156.935 20 3.125
      vertex 156.935 2 3.125
    endloop
  endfacet
  facet normal 0 0 -1
    outer loop
      vertex 20 20 3.125
      vertex 156.935 2 3.125
      vertex 20 2 3.125
    endloop
  endfacet
  facet normal 0 0 -1
    outer loop
      vertex 156.935 20 3.125
      vertex 202.58 20 3.125
      vertex 202.58 2 3.125
    endloop
  endfacet
  facet normal 0 0 -1
    outer loop
      vertex 156.935 20 3.125
      vertex 202.58 2 3.125
      vertex 156.935 2 3.125
    endloop
  endfacet
  facet normal -0.04322827 0 0.9990652
    outer loop
      vertex 20 20 5.925
      vertex 156.935 2 11.85
      vertex 156.935 20 11.85
    endloop
  endfacet
  facet normal -0.04322827 0 0.9990652
    outer loop
      vertex 20 20 5.925
      vertex 20 2 5.925
      vertex 156.935 2 11.85
    endloop
  endfacet
  facet normal -0 0 1
    outer loop
      vertex 156.935 20 11.85
      vertex 202.58 2 11.85
      vertex 202.58 20 11.85
    endloop
  endfacet
  facet normal 0 0 1
    outer loop
      vertex 156.935 20 11.85
      vertex 156.935 2 11.85
      vertex 202.58 2 11.85
    endloop
  endfacet
  facet normal 0 1 0
    outer loop
      vertex 20 20 3.125
      vertex 156.935 20 11.85
      vertex 156.935 20 3.125
    endloop
  endfacet
  facet normal 0 1 0
    outer loop
      vertex 20 20 3.125
      vertex 20 20 5.925
      vertex 156.935 20 11.85
    endloop
  endfacet
  facet normal 0 1 0
    outer loop
      vertex 156.935 20 3.125
      vertex 202.58 20 11.85
      vertex 202.58 20 3.125
    endloop
  endfacet
  facet normal 0 1 0
    outer loop
      vertex 156.935 20 3.125
      vertex 156.935 20 11.85
      vertex 202.58 20 11.85
    endloop
  endfacet
  facet normal 0 -1 0
    outer loop
      vertex 20 2 3.125
      vertex 156.935 2 3.125
      vertex 156.935 2 11.85
    endloop
  endfacet
  facet normal 0 -1 0
    outer loop
      vertex 20 2 3.125
      vertex 156.935 2 11.85
      vertex 20 2 5.925
    endloop
  endfacet
  facet normal 0 -1 0
    outer loop
      vertex 156.935 2 3.125
      vertex 202.58 2 3.125
      vertex 202.58 2 11.85
    endloop
  endfacet
  facet normal 0 -1 0
    outer loop
      vertex 156.935 2 3.125
      vertex 202.58 2 11.85
      vertex 156.935 2 11.85
    endloop
  endfacet
  facet normal -1 0 0
    outer loop
      vertex 20 2 3.125
      vertex 20 20 5.925
      vertex 20 20 3.125
    endloop
  endfacet
  facet normal -1 0 0
    outer loop
      vertex 20 2 3.125
      vertex 20 2 5.925
      vertex 20 20 5.925
    endloop
  endfacet
  facet normal 1 0 0
    outer loop
      vertex 202.58 20 3.125
      vertex 202.58 2 11.85
      vertex 202.58 2 3.125
    endloop
  endfacet
  facet normal 1 0 -0
    outer loop
      vertex 202.58 20 3.125
      vertex 202.58 20 11.85
      vertex 202.58 2 11.85
    endloop
  endfacet
  facet normal 0 0 -1
    outer loop
      vertex 20 20 3.125
      vertex 2 156.935 3.125
      vertex 20 156.935 3.125
    endloop
  endfacet
  facet normal 0 0 -1
    outer loop
      vertex 20 20 3.125
      vertex 2 20 3.125
      vertex 2 156.935 3.125
    endloop
  endfacet
  facet normal 0 0 -1
    outer loop
      vertex 20 156.935 3.125
      vertex 2 202.58 3.125
      vertex 20 202.58 3.125
    endloop
  endfacet
  facet normal 0 0 -1
    outer loop
      vertex 20 156.935 3.125
      vertex 2 156.935 3.125
      vertex 2 202.58 3.125
    endloop
  endfacet
  facet normal 0 -0.04322827 0.9990652
    outer loop
      vertex 20 20 5.925
      vertex 20 156.935 11.85
      vertex 2 156.935 11.85
    endloop
  endfacet
  facet normal 0 -0.04322827 0.9990652
    outer loop
      vertex 20 20 5.925
      vertex 2 156.935 11.85
      vertex 2 20 5.925
    endloop
  endfacet
  facet normal 0 -0 1
    outer loop
      vertex 20 156.935 11.85
      vertex 20 202.58 11.85
      vertex 2 202.58 11.85
    endloop
  endfacet
  facet normal 0 0 1
    outer loop
      vertex 20 156.935 11.85
      vertex 2 202.58 11.85
      vertex 2 156.935 11.85
    endloop
  endfacet
  facet normal 1 0 0
    outer loop
      vertex 20 20 3.125
      vertex 20 156.935 3.125
      vertex 20 156.935 11.85
    endloop
  endfacet
  facet normal 1 0 0
    outer loop
      vertex 20 20 3.125
      vertex 20 156.935 11.85
      vertex 20 20 5.925
    endloop
  endfacet
  facet normal 1 0 0
    outer loop
      vertex 20 156.935 3.125
      vertex 20 202.58 3.125
      vertex 20 202.58 11.85
    endloop
  endfacet
  facet normal 1 0 0
    outer loop
      vertex 20 156.935 3.125
      vertex 20 202.58 11.85
      vertex 20 156.935 11.85
    endloop
  endfacet
  facet normal -1 0 0
    outer loop
      vertex 2 20 3.125
      vertex 2 156.935 11.85
      vertex 2 156.935 3.125
    endloop
  endfacet
  facet normal -1 0 0
    outer loop
      vertex 2 20 3.125
      vertex 2 20 5.925
      vertex 2 156.935 11.85
    endloop
  endfacet
  facet normal -1 0 0
    outer loop
      vertex 2 156.935 3.125
      vertex 2 202.58 11.85
      vertex 2 202.58 3.125
    endloop
  endfacet
  facet normal -1 0 0
    outer loop
      vertex 2 156.935 3.125
      vertex 2 156.935 11.85
      vertex 2 202.58 11.85
    endloop
  endfacet
  facet normal 0 -1 0
    outer loop
      vertex 2 20 3.125
      vertex 20 20 3.125
      vertex 20 20 5.925
    endloop
  endfacet
  facet normal 0 -1 0
    outer loop
      vertex 2 20 3.125
      vertex 20 20 5.925
      vertex 2 20 5.925
    endloop
  endfacet
  facet normal 0 1 0
    outer loop
      vertex 20 202.58 3.125
      vertex 2 202.58 3.125
      vertex 2 202.58 11.85
    endloop
  endfacet
  facet normal 0 1 -0
    outer loop
      vertex 20 202.58 3.125
      vertex 2 202.58 11.85
      vertex 20 202.58 11.85
    endloop
  endfacet
  facet normal 0 0 1
    outer loop
      vertex 202.58 220.58 5.925
      vertex 202.58 202.58 5.925
      vertex 220.58 202.58 5.925
    endloop
  endfacet
  facet normal 0 0 -1
    outer loop
      vertex 220.58 202.58 3.125
      vertex 202.58 202.58 3.125
      vertex 202.58 220.58 3.125
    endloop
  endfacet
  facet normal 0 -0 1
    outer loop
      vertex 220.58 202.58 5.925
      vertex 220.58 214.28 5.925
      vertex 214.28 214.28 5.925
    endloop
  endfacet
  facet normal 0 0 -1
    outer loop
      vertex 214.28 214.28 3.125
      vertex 220.58 214.28 3.125
      vertex 220.58 202.58 3.125
    endloop
  endfacet
  facet normal 0 0 1
    outer loop
      vertex 202.58 220.58 5.925
      vertex 220.58 202.58 5.925
      vertex 214.28 214.28 5.925
    endloop
  endfacet
  facet normal -0 -0 -1
    outer loop
      vertex 214.28 214.28 3.125
      vertex 220.58 202.58 3.125
      vertex 202.58 220.58 3.125
    endloop
  endfacet
  facet normal 0 -0 1
    outer loop
      vertex 214.28 214.28 5.925
      vertex 214.28 220.58 5.925
      vertex 202.58 220.58 5.925
    endloop
  endfacet
  facet normal 0 0 -1
    outer loop
      vertex 202.58 220.58 3.125
      vertex 214.28 220.58 3.125
      vertex 214.28 214.28 3.125
    endloop
  endfacet
  facet normal 0 -1 0
    outer loop
      vertex 202.58 202.58 3.125
      vertex 220.58 202.58 3.125
      vertex 220.58 202.58 5.925
    endloop
  endfacet
  facet normal 0 -1 0
    outer loop
      vertex 202.58 202.58 3.125
      vertex 220.58 202.58 5.925
      vertex 202.58 202.58 5.925
    endloop
  endfacet
  facet normal 1 0 0
    outer loop
      vertex 220.58 202.58 3.125
      vertex 220.58 214.28 3.125
      vertex 220.58 214.28 5.925
    endloop
  endfacet
  facet normal 1 0 0
    outer loop
      vertex 220.58 202.58 3.125
      vertex 220.58 214.28 5.925
      vertex 220.58 202.58 5.925
    endloop
  endfacet
  facet normal 0 1 0
    outer loop
      vertex 220.58 214.28 3.125
      vertex 214.28 214.28 3.125
      vertex 214.28 214.28 5.925
    endloop
  endfacet
  facet normal 0 1 -0
    outer loop
      vertex 220.58 214.28 3.125
      vertex 214.28 214.28 5.925
      vertex 220.58 214.28 5.925
    endloop
  endfacet
  facet normal 1 0 0
    outer loop
      vertex 214.28 214.28 3.125
      vertex 214.28 220.58 3.125
      vertex 214.28 220.58 5.925
    endloop
  endfacet
  facet normal 1 0 0
    outer loop
      vertex 214.28 214.28 3.125
      vertex 214.28 220.58 5.925
      vertex 214.28 214.28 5.925
    endloop
  endfacet
  facet normal 0 1 0
    outer loop
      vertex 214.28 220.58 3.125
      vertex 202.58 220.58 3.125
      vertex 202.58 220.58 5.925
    endloop
  endfacet
  facet normal 0 1 -0
    outer loop
      vertex 214.28 220.58 3.125
      vertex 202.58 220.58 5.925
      vertex 214.28 220.58 5.925
    endloop
  endfacet
  facet normal -1 0 0
    outer loop
      vertex 202.58 220.58 3.125
      vertex 202.58 202.58 3.125
      vertex 202.58 202.58 5.925
    endloop
  endfacet
  facet normal -1 0 0
    outer loop
      vertex 202.58 220.58 3.125
      vertex 202.58 202.58 5.925
      vertex 202.58 220.58 5.925
    endloop
  endfacet
  facet normal 0 0 1
    outer loop
      vertex 202.58 20 11.85
      vertex 202.58 2 11.85
      vertex 214.28 2 11.85
    endloop
  endfacet
  facet normal 0 0 -1
    outer loop
      vertex 214.28 2 3.125
      vertex 202.58 2 3.125
      vertex 202.58 20 3.125
    endloop
  endfacet
  facet normal 0 0 1
    outer loop
      vertex 202.58 20 11.85
      vertex 214.28 2 11.85
      vertex 214.28 8.3 11.85
    endloop
  endfacet
  facet normal -0 -0 -1
    outer loop
      vertex 214.28 8.3 3.125
      vertex 214.28 2 3.125
      vertex 202.58 20 3.125
    endloop
  endfacet
  facet normal 0 0 1
    outer loop
      vertex 202.58 20 11.85
      vertex 214.28 8.3 11.85
      vertex 220.58 8.3 11.85
    endloop
  endfacet
  facet normal 0 0 -1
    outer loop
      vertex 220.58 8.3 3.125
      vertex 214.28 8.3 3.125
      vertex 202.58 20 3.125
    endloop
  endfacet
  facet normal 0 -0 1
    outer loop
      vertex 220.58 8.3 11.85
      vertex 220.58 20 11.85
      vertex 202.58 20 11.85
    endloop
  endfacet
  facet normal 0 0 -1
    outer loop
      vertex 202.58 20 3.125
      vertex 220.58 20 3.125
      vertex 220.58 8.3 3.125
    endloop
  endfacet
  facet normal 0 -1 0
    outer loop
      vertex 202.58 2 3.125
      vertex 214.28 2 3.125
      vertex 214.28 2 11.85
    endloop
  endfacet
  facet normal 0 -1 0
    outer loop
      vertex 202.58 2 3.125
      vertex 214.28 2 11.85
      vertex 202.58 2 11.85
    endloop
  endfacet
  facet normal 1 0 0
    outer loop
      vertex 214.28 2 3.125
      vertex 214.28 8.3 3.125
      vertex 214.28 8.3 11.85
    endloop
  endfacet
  facet normal 1 0 0
    outer loop
      vertex 214.28 2 3.125
      vertex 214.28 8.3 11.85
      vertex 214.28 2 11.85
    endloop
  endfacet
  facet normal 0 -1 0
    outer loop
      vertex 214.28 8.3 3.125
      vertex 220.58 8.3 3.125
      vertex 220.58 8.3 11.85
    endloop
  endfacet
  facet normal 0 -1 0
    outer loop
      vertex 214.28 8.3 3.125
      vertex 220.58 8.3 11.85
      vertex 214.28 8.3 11.85
    endloop
  endfacet
  facet normal 1 0 0
    outer loop
      vertex 220.58 8.3 3.125
      vertex 220.58 20 3.125
      vertex 220.58 20 11.85
    endloop
  endfacet
  facet normal 1 0 0
    outer loop
      vertex 220.58 8.3 3.125
      vertex 220.58 20 11.85
      vertex 220.58 8.3 11.85
    endloop
  endfacet
  facet normal 0 1 0
    outer loop
      vertex 220.58 20 3.125
      vertex 202.58 20 3.125
      vertex 202.58 20 11.85
    endloop
  endfacet
  facet normal 0 1 -0
    outer loop
      vertex 220.58 20 3.125
      vertex 202.58 20 11.85
      vertex 220.58 20 11.85
    endloop
  endfacet
  facet normal -1 0 0
    outer loop
      vertex 202.58 20 3.125
      vertex 202.58 2 3.125
      vertex 202.58 2 11.85
    endloop
  endfacet
  facet normal -1 0 0
    outer loop
      vertex 202.58 20 3.125
      vertex 202.58 2 11.85
      vertex 202.58 20 11.85
    endloop
  endfacet
  facet normal 0 0 1
    outer loop
      vertex 8.3 8.3 5.925
      vertex 8.3 2 5.925
      vertex 20 2 5.925
    endloop
  endfacet
  facet normal 0 0 -1
    outer loop
      vertex 20 2 3.125
      vertex 8.3 2 3.125
      vertex 8.3 8.3 3.125
    endloop
  endfacet
  facet normal -0 0 1
    outer loop
      vertex 8.3 8.3 5.925
      vertex 20 2 5.925
      vertex 20 20 5.925
    endloop
  endfacet
  facet normal 0 -0 -1
    outer loop
      vertex 20 20 3.125
      vertex 20 2 3.125
      vertex 8.3 8.3 3.125
    endloop
  endfacet
  facet normal 0 -0 1
    outer loop
      vertex 8.3 8.3 5.925
      vertex 20 20 5.925
      vertex 2 20 5.925
    endloop
  endfacet
  facet normal 0 0 -1
    outer loop
      vertex 2 20 3.125
      vertex 20 20 3.125
      vertex 8.3 8.3 3.125
    endloop
  endfacet
  facet normal 0 0 1
    outer loop
      vertex 2 20 5.925
      vertex 2 8.3 5.925
      vertex 8.3 8.3 5.925
    endloop
  endfacet
  facet normal 0 0 -1
    outer loop
      vertex 8.3 8.3 3.125
      vertex 2 8.3 3.125
      vertex 2 20 3.125
    endloop
  endfacet
  facet normal 0 -1 0
    outer loop
      vertex 8.3 2 3.125
      vertex 20 2 3.125
      vertex 20 2 5.925
    endloop
  endfacet
  facet normal 0 -1 0
    outer loop
      vertex 8.3 2 3.125
      vertex 20 2 5.925
      vertex 8.3 2 5.925
    endloop
  endfacet
  facet normal 1 0 0
    outer loop
      vertex 20 2 3.125
      vertex 20 20 3.125
      vertex 20 20 5.925
    endloop
  endfacet
  facet normal 1 0 0
    outer loop
      vertex 20 2 3.125
      vertex 20 20 5.925
      vertex 20 2 5.925
    endloop
  endfacet
  facet normal 0 1 0
    outer loop
      vertex 20 20 3.125
      vertex 2 20 3.125
      vertex 2 20 5.925
    endloop
  endfacet
  facet normal 0 1 -0
    outer loop
      vertex 20 20 3.125
      vertex 2 20 5.925
      vertex 20 20 5.925
    endloop
  endfacet
  facet normal -1 0 0
    outer loop
      vertex 2 20 3.125
      vertex 2 8.3 3.125
      vertex 2 8.3 5.925
    endloop
  endfacet
  facet normal -1 0 0
    outer loop
      vertex 2 20 3.125
      vertex 2 8.3 5.925
      vertex 2 20 5.925
    endloop
  endfacet
  facet normal 0 -1 0
    outer loop
      vertex 2 8.3 3.125
      vertex 8.3 8.3 3.125
      vertex 8.3 8.3 5.925
    endloop
  endfacet
  facet normal 0 -1 0
    outer loop
      vertex 2 8.3 3.125
      vertex 8.3 8.3 5.925
      vertex 2 8.3 5.925
    endloop
  endfacet
  facet normal -1 0 0
    outer loop
      vertex 8.3 8.3 3.125
      vertex 8.3 2 3.125
      vertex 8.3 2 5.925
    endloop
  endfacet
  facet normal -1 0 0
    outer loop
      vertex 8.3 8.3 3.125
      vertex 8.3 2 5.925
      vertex 8.3 8.3 5.925
    endloop
  endfacet
  facet normal 0 0 1
    outer loop
      vertex 2 214.28 11.85
      vertex 2 202.58 11.85
      vertex 20 202.58 11.85
    endloop
  endfacet
  facet normal 0 0 -1
    outer loop
      vertex 20 202.58 3.125
      vertex 2 202.58 3.125
      vertex 2 214.28 3.125
    endloop
  endfacet
  facet normal 0 -0 1
    outer loop
      vertex 20 202.58 11.85
      vertex 20 220.58 11.85
      vertex 8.3 220.58 11.85
    endloop
  endfacet
  facet normal 0 0 -1
    outer loop
      vertex 8.3 220.58 3.125
      vertex 20 220.58 3.125
      vertex 20 202.58 3.125
    endloop
  endfacet
  facet normal 0 0 1
    outer loop
      vertex 20 202.58 11.85
      vertex 8.3 220.58 11.85
      vertex 8.3 214.28 11.85
    endloop
  endfacet
  facet normal 0 0 -1
    outer loop
      vertex 8.3 214.28 3.125
      vertex 8.3 220.58 3.125
      vertex 20 202.58 3.125
    endloop
  endfacet
  facet normal 0 0 1
    outer loop
      vertex 20 202.58 11.85
      vertex 8.3 214.28 11.85
      vertex 2 214.28 11.85
    endloop
  endfacet
  facet normal 0 0 -1
    outer loop
      vertex 2 214.28 3.125
      vertex 8.3 214.28 3.125
      vertex 20 202.58 3.125
    endloop
  endfacet
  facet normal 0 -1 0
    outer loop
      vertex 2 202.58 3.125
      vertex 20 202.58 3.125
      vertex 20 202.58 11.85
    endloop
  endfacet
  facet normal 0 -1 0
    outer loop
      vertex 2 202.58 3.125
      vertex 20 202.58 11.85
      vertex 2 202.58 11.85
    endloop
  endfacet
  facet normal 1 0 0
    outer loop
      vertex 20 202.58 3.125
      vertex 20 220.58 3.125
      vertex 20 220.58 11.85
    endloop
  endfacet
  facet normal 1 0 0
    outer loop
      vertex 20 202.58 3.125
      vertex 20 220.58 11.85
      vertex 20 202.58 11.85
    endloop
  endfacet
  facet normal 0 1 0
    outer loop
      vertex 20 220.58 3.125
      vertex 8.3 220.58 3.125
      vertex 8.3 220.58 11.85
    endloop
  endfacet
  facet normal 0 1 -0
    outer loop
      vertex 20 220.58 3.125
      vertex 8.3 220.58 11.85
      vertex 20 220.58 11.85
    endloop
  endfacet
  facet normal -1 0 0
    outer loop
      vertex 8.3 220.58 3.125
      vertex 8.3 214.28 3.125
      vertex 8.3 214.28 11.85
    endloop
  endfacet
  facet normal -1 0 0
    outer loop
      vertex 8.3 220.58 3.125
      vertex 8.3 214.28 11.85
      vertex 8.3 220.58 11.85
    endloop
  endfacet
  facet normal 0 1 0
    outer loop
      vertex 8.3 214.28 3.125
      vertex 2 214.28 3.125
      vertex 2 214.28 11.85
    endloop
  endfacet
  facet normal 0 1 -0
    outer loop
      vertex 8.3 214.28 3.125
      vertex 2 214.28 11.85
      vertex 8.3 214.28 11.85
    endloop
  endfacet
  facet normal -1 0 0
    outer loop
      vertex 2 214.28 3.125
      vertex 2 202.58 3.125
      vertex 2 202.58 11.85
    endloop
  endfacet
  facet normal -1 0 0
    outer loop
      vertex 2 214.28 3.125
      vertex 2 202.58 11.85
      vertex 2 214.28 11.85
    endloop
  endfacet
endsolid temporary_switchback_ramp_layer_06
