solid temporary_switchback_ramp_layer_05
  facet normal 0 0 1
    outer loop
      vertex 2 8.65 3.125
      vertex 8.65 8.65 3.125
      vertex 8.65 19.65 3.125
    endloop
  endfacet
  facet normal 0 0 1
    outer loop
      vertex 2 8.65 3.125
      vertex 8.65 19.65 3.125
      vertex 2 19.65 3.125
    endloop
  endfacet
  facet normal 0 0 -1
    outer loop
      vertex 2 19.65 0
      vertex 8.65 19.65 0
      vertex 8.65 8.65 0
    endloop
  endfacet
  facet normal 0 0 -1
    outer loop
      vertex 2 19.65 0
      vertex 8.65 8.65 0
      vertex 2 8.65 0
    endloop
  endfacet
  facet normal 0 -1 0
    outer loop
      vertex 2 8.65 0
      vertex 8.65 8.65 0
      vertex 8.65 8.65 3.125
    endloop
  endfacet
  facet normal 0 -1 0
    outer loop
      vertex 2 8.65 0
      vertex 8.65 8.65 3.125
      vertex 2 8.65 3.125
    endloop
  endfacet
  facet normal -1 0 0
    outer loop
      vertex 2 19.65 0
      vertex 2 8.65 0
      vertex 2 8.65 3.125
    endloop
  endfacet
  facet normal -1 0 0
    outer loop
      vertex 2 19.65 0
      vertex 2 8.65 3.125
      vertex 2 19.65 3.125
    endloop
  endfacet
  facet normal 0 0 1
    outer loop
      vertex 2 19.65 3.125
      vertex 8.65 19.65 3.125
      vertex 8.65 212.2423 3.125
    endloop
  endfacet
  facet normal 0 0 1
    outer loop
      vertex 2 19.65 3.125
      vertex 8.65 212.2423 3.125
      vertex 2 212.2423 3.125
    endloop
  endfacet
  facet normal 0 0 -1
    outer loop
      vertex 2 212.2423 0
      vertex 8.65 212.2423 0
      vertex 8.65 19.65 0
    endloop
  endfacet
  facet normal 0 0 -1
    outer loop
      vertex 2 212.2423 0
      vertex 8.65 19.65 0
      vertex 2 19.65 0
    endloop
  endfacet
  facet normal -1 0 0
    outer loop
      vertex 2 212.2423 0
      vertex 2 19.65 0
      vertex 2 19.65 3.125
    endloop
  endfacet
  facet normal -1 0 0
    outer loop
      vertex 2 212.2423 0
      vertex 2 19.65 3.125
      vertex 2 212.2423 3.125
    endloop
  endfacet
  facet normal 0 0 1
    outer loop
      vertex 2 212.2423 3.125
      vertex 8.65 212.2423 3.125
      vertex 8.65 223.2423 3.125
    endloop
  endfacet
  facet normal 0 0 1
    outer loop
      vertex 2 212.2423 3.125
      vertex 8.65 223.2423 3.125
      vertex 2 223.2423 3.125
    endloop
  endfacet
  facet normal 0 0 -1
    outer loop
      vertex 2 223.2423 0
      vertex 8.65 223.2423 0
      vertex 8.65 212.2423 0
    endloop
  endfacet
  facet normal 0 0 -1
    outer loop
      vertex 2 223.2423 0
      vertex 8.65 212.2423 0
      vertex 2 212.2423 0
    endloop
  endfacet
  facet normal 0 1 0
    outer loop
      vertex 8.65 223.2423 0
      vertex 2 223.2423 0
      vertex 2 223.2423 3.125
    endloop
  endfacet
  facet normal 0 1 -0
    outer loop
      vertex 8.65 223.2423 0
      vertex 2 223.2423 3.125
      vertex 8.65 223.2423 3.125
    endloop
  endfacet
  facet normal -1 0 0
    outer loop
      vertex 2 223.2423 0
      vertex 2 212.2423 0
      vertex 2 212.2423 3.125
    endloop
  endfacet
  facet normal -1 0 0
    outer loop
      vertex 2 223.2423 0
      vertex 2 212.2423 3.125
      vertex 2 223.2423 3.125
    endloop
  endfacet
  facet normal 0 0 1
    outer loop
      vertex 8.65 2 3.125
      vertex 19.65 2 3.125
      vertex 19.65 8.65 3.125
    endloop
  endfacet
  facet normal 0 0 1
    outer loop
      vertex 8.65 2 3.125
      vertex 19.65 8.65 3.125
      vertex 8.65 8.65 3.125
    endloop
  endfacet
  facet normal 0 0 -1
    outer loop
      vertex 8.65 8.65 0
      vertex 19.65 8.65 0
      vertex 19.65 2 0
    endloop
  endfacet
  facet normal 0 0 -1
    outer loop
      vertex 8.65 8.65 0
      vertex 19.65 2 0
      vertex 8.65 2 0
    endloop
  endfacet
  facet normal 0 -1 0
    outer loop
      vertex 8.65 2 0
      vertex 19.65 2 0
      vertex 19.65 2 3.125
    endloop
  endfacet
  facet normal 0 -1 0
    outer loop
      vertex 8.65 2 0
      vertex 19.65 2 3.125
      vertex 8.65 2 3.125
    endloop
  endfacet
  facet normal -1 0 0
    outer loop
      vertex 8.65 8.65 0
      vertex 8.65 2 0
      vertex 8.65 2 3.125
    endloop
  endfacet
  facet normal -1 0 0
    outer loop
      vertex 8.65 8.65 0
      vertex 8.65 2 3.125
      vertex 8.65 8.65 3.125
    endloop
  endfacet
  facet normal 0 0 1
    outer loop
      vertex 8.65 8.65 3.125
      vertex 19.65 8.65 3.125
      vertex 19.65 19.65 3.125
    endloop
  endfacet
  facet normal 0 0 1
    outer loop
      vertex 8.65 8.65 3.125
      vertex 19.65 19.65 3.125
      vertex 8.65 19.65 3.125
    endloop
  endfacet
  facet normal 0 0 -1
    outer loop
      vertex 8.65 19.65 0
      vertex 19.65 19.65 0
      vertex 19.65 8.65 0
    endloop
  endfacet
  facet normal 0 0 -1
    outer loop
      vertex 8.65 19.65 0
      vertex 19.65 8.65 0
      vertex 8.65 8.65 0
    endloop
  endfacet
  facet normal 0 0 1
    outer loop
      vertex 8.65 19.65 3.125
      vertex 19.65 19.65 3.125
      vertex 19.65 212.2423 3.125
    endloop
  endfacet
  facet normal 0 0 1
    outer loop
      vertex 8.65 19.65 3.125
      vertex 19.65 212.2423 3.125
      vertex 8.65 212.2423 3.125
    endloop
  endfacet
  facet normal 0 0 -1
    outer loop
      vertex 8.65 212.2423 0
      vertex 19.65 212.2423 0
      vertex 19.65 19.65 0
    endloop
  endfacet
  facet normal 0 0 -1
    outer loop
      vertex 8.65 212.2423 0
      vertex 19.65 19.65 0
      vertex 8.65 19.65 0
    endloop
  endfacet
  facet normal 1 0 0
    outer loop
      vertex 19.65 19.65 0
      vertex 19.65 212.2423 0
      vertex 19.65 212.2423 3.125
    endloop
  endfacet
  facet normal 1 0 0
    outer loop
      vertex 19.65 19.65 0
      vertex 19.65 212.2423 3.125
      vertex 19.65 19.65 3.125
    endloop
  endfacet
  facet normal 0 0 1
    outer loop
      vertex 8.65 212.2423 3.125
      vertex 19.65 212.2423 3.125
      vertex 19.65 223.2423 3.125
    endloop
  endfacet
  facet normal 0 0 1
    outer loop
      vertex 8.65 212.2423 3.125
      vertex 19.65 223.2423 3.125
      vertex 8.65 223.2423 3.125
    endloop
  endfacet
  facet normal 0 0 -1
    outer loop
      vertex 8.65 223.2423 0
      vertex 19.65 223.2423 0
      vertex 19.65 212.2423 0
    endloop
  endfacet
  facet normal 0 0 -1
    outer loop
      vertex 8.65 223.2423 0
      vertex 19.65 212.2423 0
      vertex 8.65 212.2423 0
    endloop
  endfacet
  facet normal 0 0 1
    outer loop
      vertex 8.65 223.2423 3.125
      vertex 19.65 223.2423 3.125
      vertex 19.65 229.8923 3.125
    endloop
  endfacet
  facet normal 0 0 1
    outer loop
      vertex 8.65 223.2423 3.125
      vertex 19.65 229.8923 3.125
      vertex 8.65 229.8923 3.125
    endloop
  endfacet
  facet normal 0 0 -1
    outer loop
      vertex 8.65 229.8923 0
      vertex 19.65 229.8923 0
      vertex 19.65 223.2423 0
    endloop
  endfacet
  facet normal 0 0 -1
    outer loop
      vertex 8.65 229.8923 0
      vertex 19.65 223.2423 0
      vertex 8.65 223.2423 0
    endloop
  endfacet
  facet normal 0 1 0
    outer loop
      vertex 19.65 229.8923 0
      vertex 8.65 229.8923 0
      vertex 8.65 229.8923 3.125
    endloop
  endfacet
  facet normal 0 1 -0
    outer loop
      vertex 19.65 229.8923 0
      vertex 8.65 229.8923 3.125
      vertex 19.65 229.8923 3.125
    endloop
  endfacet
  facet normal -1 0 0
    outer loop
      vertex 8.65 229.8923 0
      vertex 8.65 223.2423 0
      vertex 8.65 223.2423 3.125
    endloop
  endfacet
  facet normal -1 0 0
    outer loop
      vertex 8.65 229.8923 0
      vertex 8.65 223.2423 3.125
      vertex 8.65 229.8923 3.125
    endloop
  endfacet
  facet normal 0 0 1
    outer loop
      vertex 19.65 2 3.125
      vertex 212.2423 2 3.125
      vertex 212.2423 8.65 3.125
    endloop
  endfacet
  facet normal 0 0 1
    outer loop
      vertex 19.65 2 3.125
      vertex 212.2423 8.65 3.125
      vertex 19.65 8.65 3.125
    endloop
  endfacet
  facet normal 0 0 -1
    outer loop
      vertex 19.65 8.65 0
      vertex 212.2423 8.65 0
      vertex 212.2423 2 0
    endloop
  endfacet
  facet normal 0 0 -1
    outer loop
      vertex 19.65 8.65 0
      vertex 212.2423 2 0
      vertex 19.65 2 0
    endloop
  endfacet
  facet normal 0 -1 0
    outer loop
      vertex 19.65 2 0
      vertex 212.2423 2 0
      vertex 212.2423 2 3.125
    endloop
  endfacet
  facet normal 0 -1 0
    outer loop
      vertex 19.65 2 0
      vertex 212.2423 2 3.125
      vertex 19.65 2 3.125
    endloop
  endfacet
  facet normal 0 0 1
    outer loop
      vertex 19.65 8.65 3.125
      vertex 212.2423 8.65 3.125
      vertex 212.2423 19.65 3.125
    endloop
  endfacet
  facet normal 0 0 1
    outer loop
      vertex 19.65 8.65 3.125
      vertex 212.2423 19.65 3.125
      vertex 19.65 19.65 3.125
    endloop
  endfacet
  facet normal 0 0 -1
    outer loop
      vertex 19.65 19.65 0
      vertex 212.2423 19.65 0
      vertex 212.2423 8.65 0
    endloop
  endfacet
  facet normal 0 0 -1
    outer loop
      vertex 19.65 19.65 0
      vertex 212.2423 8.65 0
      vertex 19.65 8.65 0
    endloop
  endfacet
  facet normal 0 1 0
    outer loop
      vertex 212.2423 19.65 0
      vertex 19.65 19.65 0
      vertex 19.65 19.65 3.125
    endloop
  endfacet
  facet normal 0 1 -0
    outer loop
      vertex 212.2423 19.65 0
      vertex 19.65 19.65 3.125
      vertex 212.2423 19.65 3.125
    endloop
  endfacet
  facet normal 0 0 1
    outer loop
      vertex 19.65 212.2423 3.125
      vertex 212.2423 212.2423 3.125
      vertex 212.2423 223.2423 3.125
    endloop
  endfacet
  facet normal 0 0 1
    outer loop
      vertex 19.65 212.2423 3.125
      vertex 212.2423 223.2423 3.125
      vertex 19.65 223.2423 3.125
    endloop
  endfacet
  facet normal 0 0 -1
    outer loop
      vertex 19.65 223.2423 0
      vertex 212.2423 223.2423 0
      vertex 212.2423 212.2423 0
    endloop
  endfacet
  facet normal 0 0 -1
    outer loop
      vertex 19.65 223.2423 0
      vertex 212.2423 212.2423 0
      vertex 19.65 212.2423 0
    endloop
  endfacet
  facet normal 0 -1 0
    outer loop
      vertex 19.65 212.2423 0
      vertex 212.2423 212.2423 0
      vertex 212.2423 212.2423 3.125
    endloop
  endfacet
  facet normal 0 -1 0
    outer loop
      vertex 19.65 212.2423 0
      vertex 212.2423 212.2423 3.125
      vertex 19.65 212.2423 3.125
    endloop
  endfacet
  facet normal 0 0 1
    outer loop
      vertex 19.65 223.2423 3.125
      vertex 212.2423 223.2423 3.125
      vertex 212.2423 229.8923 3.125
    endloop
  endfacet
  facet normal 0 0 1
    outer loop
      vertex 19.65 223.2423 3.125
      vertex 212.2423 229.8923 3.125
      vertex 19.65 229.8923 3.125
    endloop
  endfacet
  facet normal 0 0 -1
    outer loop
      vertex 19.65 229.8923 0
      vertex 212.2423 229.8923 0
      vertex 212.2423 223.2423 0
    endloop
  endfacet
  facet normal 0 0 -1
    outer loop
      vertex 19.65 229.8923 0
      vertex 212.2423 223.2423 0
      vertex 19.65 223.2423 0
    endloop
  endfacet
  facet normal 0 1 0
    outer loop
      vertex 212.2423 229.8923 0
      vertex 19.65 229.8923 0
      vertex 19.65 229.8923 3.125
    endloop
  endfacet
  facet normal 0 1 -0
    outer loop
      vertex 212.2423 229.8923 0
      vertex 19.65 229.8923 3.125
      vertex 212.2423 229.8923 3.125
    endloop
  endfacet
  facet normal 0 0 1
    outer loop
      vertex 212.2423 2 3.125
      vertex 223.2423 2 3.125
      vertex 223.2423 8.65 3.125
    endloop
  endfacet
  facet normal 0 0 1
    outer loop
      vertex 212.2423 2 3.125
      vertex 223.2423 8.65 3.125
      vertex 212.2423 8.65 3.125
    endloop
  endfacet
  facet normal 0 0 -1
    outer loop
      vertex 212.2423 8.65 0
      vertex 223.2423 8.65 0
      vertex 223.2423 2 0
    endloop
  endfacet
  facet normal 0 0 -1
    outer loop
      vertex 212.2423 8.65 0
      vertex 223.2423 2 0
      vertex 212.2423 2 0
    endloop
  endfacet
  facet normal 0 -1 0
    outer loop
      vertex 212.2423 2 0
      vertex 223.2423 2 0
      vertex 223.2423 2 3.125
    endloop
  endfacet
  facet normal 0 -1 0
    outer loop
      vertex 212.2423 2 0
      vertex 223.2423 2 3.125
      vertex 212.2423 2 3.125
    endloop
  endfacet
  facet normal 1 0 0
    outer loop
      vertex 223.2423 2 0
      vertex 223.2423 8.65 0
      vertex 223.2423 8.65 3.125
    endloop
  endfacet
  facet normal 1 0 0
    outer loop
      vertex 223.2423 2 0
      vertex 223.2423 8.65 3.125
      vertex 223.2423 2 3.125
    endloop
  endfacet
  facet normal 0 0 1
    outer loop
      vertex 212.2423 8.65 3.125
      vertex 223.2423 8.65 3.125
      vertex 223.2423 19.65 3.125
    endloop
  endfacet
  facet normal 0 0 1
    outer loop
      vertex 212.2423 8.65 3.125
      vertex 223.2423 19.65 3.125
      vertex 212.2423 19.65 3.125
    endloop
  endfacet
  facet normal 0 0 -1
    outer loop
      vertex 212.2423 19.65 0
      vertex 223.2423 19.65 0
      vertex 223.2423 8.65 0
    endloop
  endfacet
  facet normal 0 0 -1
    outer loop
      vertex 212.2423 19.65 0
      vertex 223.2423 8.65 0
      vertex 212.2423 8.65 0
    endloop
  endfacet
  facet normal 0 0 1
    outer loop
      vertex 212.2423 19.65 3.125
      vertex 223.2423 19.65 3.125
      vertex 223.2423 212.2423 3.125
    endloop
  endfacet
  facet normal 0 0 1
    outer loop
      vertex 212.2423 19.65 3.125
      vertex 223.2423 212.2423 3.125
      vertex 212.2423 212.2423 3.125
    endloop
  endfacet
  facet normal 0 0 -1
    outer loop
      vertex 212.2423 212.2423 0
      vertex 223.2423 212.2423 0
      vertex 223.2423 19.65 0
    endloop
  endfacet
  facet normal 0 0 -1
    outer loop
      vertex 212.2423 212.2423 0
      vertex 223.2423 19.65 0
      vertex 212.2423 19.65 0
    endloop
  endfacet
  facet normal -1 0 0
    outer loop
      vertex 212.2423 212.2423 0
      vertex 212.2423 19.65 0
      vertex 212.2423 19.65 3.125
    endloop
  endfacet
  facet normal -1 0 0
    outer loop
      vertex 212.2423 212.2423 0
      vertex 212.2423 19.65 3.125
      vertex 212.2423 212.2423 3.125
    endloop
  endfacet
  facet normal 0 0 1
    outer loop
      vertex 212.2423 212.2423 3.125
      vertex 223.2423 212.2423 3.125
      vertex 223.2423 223.2423 3.125
    endloop
  endfacet
  facet normal 0 0 1
    outer loop
      vertex 212.2423 212.2423 3.125
      vertex 223.2423 223.2423 3.125
      vertex 212.2423 223.2423 3.125
    endloop
  endfacet
  facet normal 0 0 -1
    outer loop
      vertex 212.2423 223.2423 0
      vertex 223.2423 223.2423 0
      vertex 223.2423 212.2423 0
    endloop
  endfacet
  facet normal 0 0 -1
    outer loop
      vertex 212.2423 223.2423 0
      vertex 223.2423 212.2423 0
      vertex 212.2423 212.2423 0
    endloop
  endfacet
  facet normal 0 0 1
    outer loop
      vertex 212.2423 223.2423 3.125
      vertex 223.2423 223.2423 3.125
      vertex 223.2423 229.8923 3.125
    endloop
  endfacet
  facet normal 0 0 1
    outer loop
      vertex 212.2423 223.2423 3.125
      vertex 223.2423 229.8923 3.125
      vertex 212.2423 229.8923 3.125
    endloop
  endfacet
  facet normal 0 0 -1
    outer loop
      vertex 212.2423 229.8923 0
      vertex 223.2423 229.8923 0
      vertex 223.2423 223.2423 0
    endloop
  endfacet
  facet normal 0 0 -1
    outer loop
      vertex 212.2423 229.8923 0
      vertex 223.2423 223.2423 0
      vertex 212.2423 223.2423 0
    endloop
  endfacet
  facet normal 1 0 0
    outer loop
      vertex 223.2423 223.2423 0
      vertex 223.2423 229.8923 0
      vertex 223.2423 229.8923 3.125
    endloop
  endfacet
  facet normal 1 0 0
    outer loop
      vertex 223.2423 223.2423 0
      vertex 223.2423 229.8923 3.125
      vertex 223.2423 223.2423 3.125
    endloop
  endfacet
  facet normal 0 1 0
    outer loop
      vertex 223.2423 229.8923 0
      vertex 212.2423 229.8923 0
      vertex 212.2423 229.8923 3.125
    endloop
  endfacet
  facet normal 0 1 -0
    outer loop
      vertex 223.2423 229.8923 0
      vertex 212.2423 229.8923 3.125
      vertex 223.2423 229.8923 3.125
    endloop
  endfacet
  facet normal 0 0 1
    outer loop
      vertex 223.2423 8.65 3.125
      vertex 229.8923 8.65 3.125
      vertex 229.8923 19.65 3.125
    endloop
  endfacet
  facet normal 0 0 1
    outer loop
      vertex 223.2423 8.65 3.125
      vertex 229.8923 19.65 3.125
      vertex 223.2423 19.65 3.125
    endloop
  endfacet
  facet normal 0 0 -1
    outer loop
      vertex 223.2423 19.65 0
      vertex 229.8923 19.65 0
      vertex 229.8923 8.65 0
    endloop
  endfacet
  facet normal 0 0 -1
    outer loop
      vertex 223.2423 19.65 0
      vertex 229.8923 8.65 0
      vertex 223.2423 8.65 0
    endloop
  endfacet
  facet normal 0 -1 0
    outer loop
      vertex 223.2423 8.65 0
      vertex 229.8923 8.65 0
      vertex 229.8923 8.65 3.125
    endloop
  endfacet
  facet normal 0 -1 0
    outer loop
      vertex 223.2423 8.65 0
      vertex 229.8923 8.65 3.125
      vertex 223.2423 8.65 3.125
    endloop
  endfacet
  facet normal 1 0 0
    outer loop
      vertex 229.8923 8.65 0
      vertex 229.8923 19.65 0
      vertex 229.8923 19.65 3.125
    endloop
  endfacet
  facet normal 1 0 0
    outer loop
      vertex 229.8923 8.65 0
      vertex 229.8923 19.65 3.125
      vertex 229.8923 8.65 3.125
    endloop
  endfacet
  facet normal 0 0 1
    outer loop
      vertex 223.2423 19.65 3.125
      vertex 229.8923 19.65 3.125
      vertex 229.8923 212.2423 3.125
    endloop
  endfacet
  facet normal 0 0 1
    outer loop
      vertex 223.2423 19.65 3.125
      vertex 229.8923 212.2423 3.125
      vertex 223.2423 212.2423 3.125
    endloop
  endfacet
  facet normal 0 0 -1
    outer loop
      vertex 223.2423 212.2423 0
      vertex 229.8923 212.2423 0
      vertex 229.8923 19.65 0
    endloop
  endfacet
  facet normal 0 0 -1
    outer loop
      vertex 223.2423 212.2423 0
      vertex 229.8923 19.65 0
      vertex 223.2423 19.65 0
    endloop
  endfacet
  facet normal 1 0 0
    outer loop
      vertex 229.8923 19.65 0
      vertex 229.8923 212.2423 0
      vertex 229.8923 212.2423 3.125
    endloop
  endfacet
  facet normal 1 0 0
    outer loop
      vertex 229.8923 19.65 0
      vertex 229.8923 212.2423 3.125
      vertex 229.8923 19.65 3.125
    endloop
  endfacet
  facet normal 0 0 1
    outer loop
      vertex 223.2423 212.2423 3.125
      vertex 229.8923 212.2423 3.125
      vertex 229.8923 223.2423 3.125
    endloop
  endfacet
  facet normal 0 0 1
    outer loop
      vertex 223.2423 212.2423 3.125
      vertex 229.8923 223.2423 3.125
      vertex 223.2423 223.2423 3.125
    endloop
  endfacet
  facet normal 0 0 -1
    outer loop
      vertex 223.2423 223.2423 0
      vertex 229.8923 223.2423 0
      vertex 229.8923 212.2423 0
    endloop
  endfacet
  facet normal 0 0 -1
    outer loop
      vertex 223.2423 223.2423 0
      vertex 229.8923 212.2423 0
      vertex 223.2423 212.2423 0
    endloop
  endfacet
  facet normal 1 0 0
    outer loop
      vertex 229.8923 212.2423 0
      vertex 229.8923 223.2423 0
      vertex 229.8923 223.2423 3.125
    endloop
  endfacet
  facet normal 1 0 0
    outer loop
      vertex 229.8923 212.2423 0
      vertex 229.8923 223.2423 3.125
      vertex 229.8923 212.2423 3.125
    endloop
  endfacet
  facet normal 0 1 0
    outer loop
      vertex 229.8923 223.2423 0
      vertex 223.2423 223.2423 0
      vertex 223.2423 223.2423 3.125
    endloop
  endfacet
  facet normal 0 1 -0
    outer loop
      vertex 229.8923 223.2423 0
      vertex 223.2423 223.2423 3.125
      vertex 229.8923 223.2423 3.125
    endloop
  endfacet
  facet normal 0 0 -1
    outer loop
      vertex 20 211.8923 3.125
      vertex 163.9193 229.8923 3.125
      vertex 163.9193 211.8923 3.125
    endloop
  endfacet
  facet normal 0 0 -1
    outer loop
      vertex 20 211.8923 3.125
      vertex 20 229.8923 3.125
      vertex 163.9193 229.8923 3.125
    endloop
  endfacet
  facet normal 0 0 -1
    outer loop
      vertex 163.9193 211.8923 3.125
      vertex 211.8923 229.8923 3.125
      vertex 211.8923 211.8923 3.125
    endloop
  endfacet
  facet normal 0 0 -1
    outer loop
      vertex 163.9193 211.8923 3.125
      vertex 163.9193 229.8923 3.125
      vertex 211.8923 229.8923 3.125
    endloop
  endfacet
  facet normal -0.04113407 0 0.9991536
    outer loop
      vertex 20 211.8923 5.925
      vertex 163.9193 211.8923 11.85
      vertex 163.9193 229.8923 11.85
    endloop
  endfacet
  facet normal -0.04113407 0 0.9991536
    outer loop
      vertex 20 211.8923 5.925
      vertex 163.9193 229.8923 11.85
      vertex 20 229.8923 5.925
    endloop
  endfacet
  facet normal 0 0 1
    outer loop
      vertex 163.9193 211.8923 11.85
      vertex 211.8923 211.8923 11.85
      vertex 211.8923 229.8923 11.85
    endloop
  endfacet
  facet normal 0 0 1
    outer loop
      vertex 163.9193 211.8923 11.85
      vertex 211.8923 229.8923 11.85
      vertex 163.9193 229.8923 11.85
    endloop
  endfacet
  facet normal 0 -1 0
    outer loop
      vertex 20 211.8923 3.125
      vertex 163.9193 211.8923 3.125
      vertex 163.9193 211.8923 11.85
    endloop
  endfacet
  facet normal 0 -1 0
    outer loop
      vertex 20 211.8923 3.125
      vertex 163.9193 211.8923 11.85
      vertex 20 211.8923 5.925
    endloop
  endfacet
  facet normal 0 -1 0
    outer loop
      vertex 163.9193 211.8923 3.125
      vertex 211.8923 211.8923 3.125
      vertex 211.8923 211.8923 11.85
    endloop
  endfacet
  facet normal 0 -1 0
    outer loop
      vertex 163.9193 211.8923 3.125
      vertex 211.8923 211.8923 11.85
      vertex 163.9193 211.8923 11.85
    endloop
  endfacet
  facet normal 0 1 0
    outer loop
      vertex 20 229.8923 3.125
      vertex 163.9193 229.8923 11.85
      vertex 163.9193 229.8923 3.125
    endloop
  endfacet
  facet normal 0 1 0
    outer loop
      vertex 20 229.8923 3.125
      vertex 20 229.8923 5.925
      vertex 163.9193 229.8923 11.85
    endloop
  endfacet
  facet normal 0 1 0
    outer loop
      vertex 163.9193 229.8923 3.125
      vertex 211.8923 229.8923 11.85
      vertex 211.8923 229.8923 3.125
    endloop
  endfacet
  facet normal 0 1 0
    outer loop
      vertex 163.9193 229.8923 3.125
      vertex 163.9193 229.8923 11.85
      vertex 211.8923 229.8923 11.85
    endloop
  endfacet
  facet normal -1 0 0
    outer loop
      vertex 20 229.8923 3.125
      vertex 20 211.8923 3.125
      vertex 20 211.8923 5.925
    endloop
  endfacet
  facet normal -1 0 0
    outer loop
      vertex 20 229.8923 3.125
      vertex 20 211.8923 5.925
      vertex 20 229.8923 5.925
    endloop
  endfacet
  facet normal 1 0 0
    outer loop
      vertex 211.8923 211.8923 3.125
      vertex 211.8923 229.8923 3.125
      vertex 211.8923 229.8923 11.85
    endloop
  endfacet
  facet normal 1 0 0
    outer loop
      vertex 211.8923 211.8923 3.125
      vertex 211.8923 229.8923 11.85
      vertex 211.8923 211.8923 11.85
    endloop
  endfacet
  facet normal 0 0 -1
    outer loop
      vertex 211.8923 20 3.125
      vertex 211.8923 163.9193 3.125
      vertex 229.8923 163.9193 3.125
    endloop
  endfacet
  facet normal 0 0 -1
    outer loop
      vertex 211.8923 20 3.125
      vertex 229.8923 163.9193 3.125
      vertex 229.8923 20 3.125
    endloop
  endfacet
  facet normal 0 0 -1
    outer loop
      vertex 211.8923 163.9193 3.125
      vertex 211.8923 211.8923 3.125
      vertex 229.8923 211.8923 3.125
    endloop
  endfacet
  facet normal 0 0 -1
    outer loop
      vertex 211.8923 163.9193 3.125
      vertex 229.8923 211.8923 3.125
      vertex 229.8923 163.9193 3.125
    endloop
  endfacet
  facet normal 0 -0.04113407 0.9991536
    outer loop
      vertex 211.8923 20 5.925
      vertex 229.8923 163.9193 11.85
      vertex 211.8923 163.9193 11.85
    endloop
  endfacet
  facet normal 0 -0.04113407 0.9991536
    outer loop
      vertex 211.8923 20 5.925
      vertex 229.8923 20 5.925
      vertex 229.8923 163.9193 11.85
    endloop
  endfacet
  facet normal 0 0 1
    outer loop
      vertex 211.8923 163.9193 11.85
      vertex 229.8923 211.8923 11.85
      vertex 211.8923 211.8923 11.85
    endloop
  endfacet
  facet normal 0 0 1
    outer loop
      vertex 211.8923 163.9193 11.85
      vertex 229.8923 163.9193 11.85
      vertex 229.8923 211.8923 11.85
    endloop
  endfacet
  facet normal -1 0 0
    outer loop
      vertex 211.8923 20 3.125
      vertex 211.8923 163.9193 11.85
      vertex 211.8923 163.9193 3.125
    endloop
  endfacet
  facet normal -1 0 0
    outer loop
      vertex 211.8923 20 3.125
      vertex 211.8923 20 5.925
      vertex 211.8923 163.9193 11.85
    endloop
  endfacet
  facet normal -1 0 0
    outer loop
      vertex 211.8923 163.9193 3.125
      vertex 211.8923 211.8923 11.85
      vertex 211.8923 211.8923 3.125
    endloop
  endfacet
  facet normal -1 0 0
    outer loop
      vertex 211.8923 163.9193 3.125
      vertex 211.8923 163.9193 11.85
      vertex 211.8923 211.8923 11.85
    endloop
  endfacet
  facet normal 1 0 0
    outer loop
      vertex 229.8923 20 3.125
      vertex 229.8923 163.9193 3.125
      vertex 229.8923 163.9193 11.85
    endloop
  endfacet
  facet normal 1 0 0
    outer loop
      vertex 229.8923 20 3.125
      vertex 229.8923 163.9193 11.85
      vertex 229.8923 20 5.925
    endloop
  endfacet
  facet normal 1 0 0
    outer loop
      vertex 229.8923 163.9193 3.125
      vertex 229.8923 211.8923 3.125
      vertex 229.8923 211.8923 11.85
    endloop
  endfacet
  facet normal 1 0 0
    outer loop
      vertex 229.8923 163.9193 3.125
      vertex 229.8923 211.8923 11.85
      vertex 229.8923 163.9193 11.85
    endloop
  endfacet
  facet normal 0 -1 0
    outer loop
      vertex 229.8923 20 3.125
      vertex 211.8923 20 5.925
      vertex 211.8923 20 3.125
    endloop
  endfacet
  facet normal 0 -1 0
    outer loop
      vertex 229.8923 20 3.125
      vertex 229.8923 20 5.925
      vertex 211.8923 20 5.925
    endloop
  endfacet
  facet normal 0 1 0
    outer loop
      vertex 211.8923 211.8923 3.125
      vertex 229.8923 211.8923 11.85
      vertex 229.8923 211.8923 3.125
    endloop
  endfacet
  facet normal 0 1 0
    outer loop
      vertex 211.8923 211.8923 3.125
      vertex 211.8923 211.8923 11.85
      vertex 229.8923 211.8923 11.85
    endloop
  endfacet
  facet normal -0 0 -1
    outer loop
      vertex 211.8923 20 3.125
      vertex 67.97308 2 3.125
      vertex 67.97308 20 3.125
    endloop
  endfacet
  facet normal 0 -0 -1
    outer loop
      vertex 211.8923 20 3.125
      vertex 211.8923 2 3.125
      vertex 67.97308 2 3.125
    endloop
  endfacet
  facet normal -0 0 -1
    outer loop
      vertex 67.97308 20 3.125
      vertex 20 2 3.125
      vertex 20 20 3.125
    endloop
  endfacet
  facet normal 0 -0 -1
    outer loop
      vertex 67.97308 20 3.125
      vertex 67.97308 2 3.125
      vertex 20 2 3.125
    endloop
  endfacet
  facet normal 0.04113407 0 0.9991536
    outer loop
      vertex 211.8923 20 5.925
      vertex 67.97308 20 11.85
      vertex 67.97308 2 11.85
    endloop
  endfacet
  facet normal 0.04113407 0 0.9991536
    outer loop
      vertex 211.8923 20 5.925
      vertex 67.97308 2 11.85
      vertex 211.8923 2 5.925
    endloop
  endfacet
  facet normal 0 0 1
    outer loop
      vertex 67.97308 20 11.85
      vertex 20 20 11.85
      vertex 20 2 11.85
    endloop
  endfacet
  facet normal 0 0 1
    outer loop
      vertex 67.97308 20 11.85
      vertex 20 2 11.85
      vertex 67.97308 2 11.85
    endloop
  endfacet
  facet normal 0 1 0
    outer loop
      vertex 211.8923 20 3.125
      vertex 67.97308 20 3.125
      vertex 67.97308 20 11.85
    endloop
  endfacet
  facet normal 0 1 -0
    outer loop
      vertex 211.8923 20 3.125
      vertex 67.97308 20 11.85
      vertex 211.8923 20 5.925
    endloop
  endfacet
  facet normal 0 1 0
    outer loop
      vertex 67.97308 20 3.125
      vertex 20 20 3.125
      vertex 20 20 11.85
    endloop
  endfacet
  facet normal 0 1 -0
    outer loop
      vertex 67.97308 20 3.125
      vertex 20 20 11.85
      vertex 67.97308 20 11.85
    endloop
  endfacet
  facet normal 0 -1 0
    outer loop
      vertex 211.8923 2 3.125
      vertex 67.97308 2 11.85
      vertex 67.97308 2 3.125
    endloop
  endfacet
  facet normal 0 -1 0
    outer loop
      vertex 211.8923 2 3.125
      vertex 211.8923 2 5.925
      vertex 67.97308 2 11.85
    endloop
  endfacet
  facet normal 0 -1 0
    outer loop
      vertex 67.97308 2 3.125
      vertex 20 2 11.85
      vertex 20 2 3.125
    endloop
  endfacet
  facet normal 0 -1 0
    outer loop
      vertex 67.97308 2 3.125
      vertex 67.97308 2 11.85
      vertex 20 2 11.85
    endloop
  endfacet
  facet normal 1 0 0
    outer loop
      vertex 211.8923 2 3.125
      vertex 211.8923 20 3.125
      vertex 211.8923 20 5.925
    endloop
  endfacet
  facet normal 1 0 0
    outer loop
      vertex 211.8923 2 3.125
      vertex 211.8923 20 5.925
      vertex 211.8923 2 5.925
    endloop
  endfacet
  facet normal -1 0 0
    outer loop
      vertex 20 20 3.125
      vertex 20 2 3.125
      vertex 20 2 11.85
    endloop
  endfacet
  facet normal -1 0 0
    outer loop
      vertex 20 20 3.125
      vertex 20 2 11.85
      vertex 20 20 11.85
    endloop
  endfacet
  facet normal 0 -0 -1
    outer loop
      vertex 20 211.8923 3.125
      vertex 20 67.97308 3.125
      vertex 2 67.97308 3.125
    endloop
  endfacet
  facet normal -0 0 -1
    outer loop
      vertex 20 211.8923 3.125
      vertex 2 67.97308 3.125
      vertex 2 211.8923 3.125
    endloop
  endfacet
  facet normal 0 -0 -1
    outer loop
      vertex 20 67.97308 3.125
      vertex 20 20 3.125
      vertex 2 20 3.125
    endloop
  endfacet
  facet normal -0 0 -1
    outer loop
      vertex 20 67.97308 3.125
      vertex 2 20 3.125
      vertex 2 67.97308 3.125
    endloop
  endfacet
  facet normal 0 0.04113407 0.9991536
    outer loop
      vertex 20 211.8923 5.925
      vertex 2 67.97308 11.85
      vertex 20 67.97308 11.85
    endloop
  endfacet
  facet normal 0 0.04113407 0.9991536
    outer loop
      vertex 20 211.8923 5.925
      vertex 2 211.8923 5.925
      vertex 2 67.97308 11.85
    endloop
  endfacet
  facet normal 0 0 1
    outer loop
      vertex 20 67.97308 11.85
      vertex 2 20 11.85
      vertex 20 20 11.85
    endloop
  endfacet
  facet normal 0 0 1
    outer loop
      vertex 20 67.97308 11.85
      vertex 2 67.97308 11.85
      vertex 2 20 11.85
    endloop
  endfacet
  facet normal 1 0 0
    outer loop
      vertex 20 211.8923 3.125
      vertex 20 67.97308 11.85
      vertex 20 67.97308 3.125
    endloop
  endfacet
  facet normal 1 0 -0
    outer loop
      vertex 20 211.8923 3.125
      vertex 20 211.8923 5.925
      vertex 20 67.97308 11.85
    endloop
  endfacet
  facet normal 1 0 0
    outer loop
      vertex 20 67.97308 3.125
      vertex 20 20 11.85
      vertex 20 20 3.125
    endloop
  endfacet
  facet normal 1 0 -0
    outer loop
      vertex 20 67.97308 3.125
      vertex 20 67.97308 11.85
      vertex 20 20 11.85
    endloop
  endfacet
  facet normal -1 0 0
    outer loop
      vertex 2 211.8923 3.125
      vertex 2 67.97308 3.125
      vertex 2 67.97308 11.85
    endloop
  endfacet
  facet normal -1 0 0
    outer loop
      vertex 2 211.8923 3.125
      vertex 2 67.97308 11.85
      vertex 2 211.8923 5.925
    endloop
  endfacet
  facet normal -1 0 0
    outer loop
      vertex 2 67.97308 3.125
      vertex 2 20 3.125
      vertex 2 20 11.85
    endloop
  endfacet
  facet normal -1 0 0
    outer loop
      vertex 2 67.97308 3.125
      vertex 2 20 11.85
      vertex 2 67.97308 11.85
    endloop
  endfacet
  facet normal 0 1 0
    outer loop
      vertex 2 211.8923 3.125
      vertex 20 211.8923 5.925
      vertex 20 211.8923 3.125
    endloop
  endfacet
  facet normal 0 1 0
    outer loop
      vertex 2 211.8923 3.125
      vertex 2 211.8923 5.925
      vertex 20 211.8923 5.925
    endloop
  endfacet
  facet normal 0 -1 0
    outer loop
      vertex 20 20 3.125
      vertex 2 20 11.85
      vertex 2 20 3.125
    endloop
  endfacet
  facet normal 0 -1 0
    outer loop
      vertex 20 20 3.125
      vertex 20 20 11.85
      vertex 2 20 11.85
    endloop
  endfacet
  facet normal 0 0 1
    outer loop
      vertex 211.8923 229.8923 11.85
      vertex 211.8923 211.8923 11.85
      vertex 229.8923 211.8923 11.85
    endloop
  endfacet
  facet normal 0 0 -1
    outer loop
      vertex 229.8923 211.8923 3.125
      vertex 211.8923 211.8923 3.125
      vertex 211.8923 229.8923 3.125
    endloop
  endfacet
  facet normal 0 -0 1
    outer loop
      vertex 229.8923 211.8923 11.85
      vertex 229.8923 223.5923 11.85
      vertex 223.5923 223.5923 11.85
    endloop
  endfacet
  facet normal 0 0 -1
    outer loop
      vertex 223.5923 223.5923 3.125
      vertex 229.8923 223.5923 3.125
      vertex 229.8923 211.8923 3.125
    endloop
  endfacet
  facet normal 0 0 1
    outer loop
      vertex 211.8923 229.8923 11.85
      vertex 229.8923 211.8923 11.85
      vertex 223.5923 223.5923 11.85
    endloop
  endfacet
  facet normal -0 -0 -1
    outer loop
      vertex 223.5923 223.5923 3.125
      vertex 229.8923 211.8923 3.125
      vertex 211.8923 229.8923 3.125
    endloop
  endfacet
  facet normal 0 -0 1
    outer loop
      vertex 223.5923 223.5923 11.85
      vertex 223.5923 229.8923 11.85
      vertex 211.8923 229.8923 11.85
    endloop
  endfacet
  facet normal 0 0 -1
    outer loop
      vertex 211.8923 229.8923 3.125
      vertex 223.5923 229.8923 3.125
      vertex 223.5923 223.5923 3.125
    endloop
  endfacet
  facet normal 0 -1 0
    outer loop
      vertex 211.8923 211.8923 3.125
      vertex 229.8923 211.8923 3.125
      vertex 229.8923 211.8923 11.85
    endloop
  endfacet
  facet normal 0 -1 0
    outer loop
      vertex 211.8923 211.8923 3.125
      vertex 229.8923 211.8923 11.85
      vertex 211.8923 211.8923 11.85
    endloop
  endfacet
  facet normal 1 0 0
    outer loop
      vertex 229.8923 211.8923 3.125
      vertex 229.8923 223.5923 3.125
      vertex 229.8923 223.5923 11.85
    endloop
  endfacet
  facet normal 1 0 0
    outer loop
      vertex 229.8923 211.8923 3.125
      vertex 229.8923 223.5923 11.85
      vertex 229.8923 211.8923 11.85
    endloop
  endfacet
  facet normal 0 1 0
    outer loop
      vertex 229.8923 223.5923 3.125
      vertex 223.5923 223.5923 3.125
      vertex 223.5923 223.5923 11.85
    endloop
  endfacet
  facet normal 0 1 -0
    outer loop
      vertex 229.8923 223.5923 3.125
      vertex 223.5923 223.5923 11.85
      vertex 229.8923 223.5923 11.85
    endloop
  endfacet
  facet normal 1 0 0
    outer loop
      vertex 223.5923 223.5923 3.125
      vertex 223.5923 229.8923 3.125
      vertex 223.5923 229.8923 11.85
    endloop
  endfacet
  facet normal 1 0 0
    outer loop
      vertex 223.5923 223.5923 3.125
      vertex 223.5923 229.8923 11.85
      vertex 223.5923 223.5923 11.85
    endloop
  endfacet
  facet normal 0 1 0
    outer loop
      vertex 223.5923 229.8923 3.125
      vertex 211.8923 229.8923 3.125
      vertex 211.8923 229.8923 11.85
    endloop
  endfacet
  facet normal 0 1 -0
    outer loop
      vertex 223.5923 229.8923 3.125
      vertex 211.8923 229.8923 11.85
      vertex 223.5923 229.8923 11.85
    endloop
  endfacet
  facet normal -1 0 0
    outer loop
      vertex 211.8923 229.8923 3.125
      vertex 211.8923 211.8923 3.125
      vertex 211.8923 211.8923 11.85
    endloop
  endfacet
  facet normal -1 0 0
    outer loop
      vertex 211.8923 229.8923 3.125
      vertex 211.8923 211.8923 11.85
      vertex 211.8923 229.8923 11.85
    endloop
  endfacet
  facet normal 0 0 1
    outer loop
      vertex 211.8923 20 5.925
      vertex 211.8923 2 5.925
      vertex 223.5923 2 5.925
    endloop
  endfacet
  facet normal 0 0 -1
    outer loop
      vertex 223.5923 2 3.125
      vertex 211.8923 2 3.125
      vertex 211.8923 20 3.125
    endloop
  endfacet
  facet normal 0 0 1
    outer loop
      vertex 211.8923 20 5.925
      vertex 223.5923 2 5.925
      vertex 223.5923 8.3 5.925
    endloop
  endfacet
  facet normal -0 -0 -1
    outer loop
      vertex 223.5923 8.3 3.125
      vertex 223.5923 2 3.125
      vertex 211.8923 20 3.125
    endloop
  endfacet
  facet normal 0 0 1
    outer loop
      vertex 211.8923 20 5.925
      vertex 223.5923 8.3 5.925
      vertex 229.8923 8.3 5.925
    endloop
  endfacet
  facet normal 0 0 -1
    outer loop
      vertex 229.8923 8.3 3.125
      vertex 223.5923 8.3 3.125
      vertex 211.8923 20 3.125
    endloop
  endfacet
  facet normal 0 -0 1
    outer loop
      vertex 229.8923 8.3 5.925
      vertex 229.8923 20 5.925
      vertex 211.8923 20 5.925
    endloop
  endfacet
  facet normal 0 0 -1
    outer loop
      vertex 211.8923 20 3.125
      vertex 229.8923 20 3.125
      vertex 229.8923 8.3 3.125
    endloop
  endfacet
  facet normal 0 -1 0
    outer loop
      vertex 211.8923 2 3.125
      vertex 223.5923 2 3.125
      vertex 223.5923 2 5.925
    endloop
  endfacet
  facet normal 0 -1 0
    outer loop
      vertex 211.8923 2 3.125
      vertex 223.5923 2 5.925
      vertex 211.8923 2 5.925
    endloop
  endfacet
  facet normal 1 0 0
    outer loop
      vertex 223.5923 2 3.125
      vertex 223.5923 8.3 3.125
      vertex 223.5923 8.3 5.925
    endloop
  endfacet
  facet normal 1 0 0
    outer loop
      vertex 223.5923 2 3.125
      vertex 223.5923 8.3 5.925
      vertex 223.5923 2 5.925
    endloop
  endfacet
  facet normal 0 -1 0
    outer loop
      vertex 223.5923 8.3 3.125
      vertex 229.8923 8.3 3.125
      vertex 229.8923 8.3 5.925
    endloop
  endfacet
  facet normal 0 -1 0
    outer loop
      vertex 223.5923 8.3 3.125
      vertex 229.8923 8.3 5.925
      vertex 223.5923 8.3 5.925
    endloop
  endfacet
  facet normal 1 0 0
    outer loop
      vertex 229.8923 8.3 3.125
      vertex 229.8923 20 3.125
      vertex 229.8923 20 5.925
    endloop
  endfacet
  facet normal 1 0 0
    outer loop
      vertex 229.8923 8.3 3.125
      vertex 229.8923 20 5.925
      vertex 229.8923 8.3 5.925
    endloop
  endfacet
  facet normal 0 1 0
    outer loop
      vertex 229.8923 20 3.125
      vertex 211.8923 20 3.125
      vertex 211.8923 20 5.925
    endloop
  endfacet
  facet normal 0 1 -0
    outer loop
      vertex 229.8923 20 3.125
      vertex 211.8923 20 5.925
      vertex 229.8923 20 5.925
    endloop
  endfacet
  facet normal -1 0 0
    outer loop
      vertex 211.8923 20 3.125
      vertex 211.8923 2 3.125
      vertex 211.8923 2 5.925
    endloop
  endfacet
  facet normal -1 0 0
    outer loop
      vertex 211.8923 20 3.125
      vertex 211.8923 2 5.925
      vertex 211.8923 20 5.925
    endloop
  endfacet
  facet normal 0 0 1
    outer loop
      vertex 8.3 8.3 11.85
      vertex 8.3 2 11.85
      vertex 20 2 11.85
    endloop
  endfacet
  facet normal 0 0 -1
    outer loop
      vertex 20 2 3.125
      vertex 8.3 2 3.125
      vertex 8.3 8.3 3.125
    endloop
  endfacet
  facet normal -0 0 1
    outer loop
      vertex 8.3 8.3 11.85
      vertex 20 2 11.85
      vertex 20 20 11.85
    endloop
  endfacet
  facet normal 0 -0 -1
    outer loop
      vertex 20 20 3.125
      vertex 20 2 3.125
      vertex 8.3 8.3 3.125
    endloop
  endfacet
  facet normal 0 -0 1
    outer loop
      vertex 8.3 8.3 11.85
      vertex 20 20 11.85
      vertex 2 20 11.85
    endloop
  endfacet
  facet normal 0 0 -1
    outer loop
      vertex 2 20 3.125
      vertex 20 20 3.125
      vertex 8.3 8.3 3.125
    endloop
  endfacet
  facet normal 0 0 1
    outer loop
      vertex 2 20 11.85
      vertex 2 8.3 11.85
      vertex 8.3 8.3 11.85
    endloop
  endfacet
  facet normal 0 0 -1
    outer loop
      vertex 8.3 8.3 3.125
      vertex 2 8.3 3.125
      vertex 2 20 3.125
    endloop
  endfacet
  facet normal 0 -1 0
    outer loop
      vertex 8.3 2 3.125
      vertex 20 2 3.125
      vertex 20 2 11.85
    endloop
  endfacet
  facet normal 0 -1 0
    outer loop
      vertex 8.3 2 3.125
      vertex 20 2 11.85
      vertex 8.3 2 11.85
    endloop
  endfacet
  facet normal 1 0 0
    outer loop
      vertex 20 2 3.125
      vertex 20 20 3.125
      vertex 20 20 11.85
    endloop
  endfacet
  facet normal 1 0 0
    outer loop
      vertex 20 2 3.125
      vertex 20 20 11.85
      vertex 20 2 11.85
    endloop
  endfacet
  facet normal 0 1 0
    outer loop
      vertex 20 20 3.125
      vertex 2 20 3.125
      vertex 2 20 11.85
    endloop
  endfacet
  facet normal 0 1 -0
    outer loop
      vertex 20 20 3.125
      vertex 2 20 11.85
      vertex 20 20 11.85
    endloop
  endfacet
  facet normal -1 0 0
    outer loop
      vertex 2 20 3.125
      vertex 2 8.3 3.125
      vertex 2 8.3 11.85
    endloop
  endfacet
  facet normal -1 0 0
    outer loop
      vertex 2 20 3.125
      vertex 2 8.3 11.85
      vertex 2 20 11.85
    endloop
  endfacet
  facet normal 0 -1 0
    outer loop
      vertex 2 8.3 3.125
      vertex 8.3 8.3 3.125
      vertex 8.3 8.3 11.85
    endloop
  endfacet
  facet normal 0 -1 0
    outer loop
      vertex 2 8.3 3.125
      vertex 8.3 8.3 11.85
      vertex 2 8.3 11.85
    endloop
  endfacet
  facet normal -1 0 0
    outer loop
      vertex 8.3 8.3 3.125
      vertex 8.3 2 3.125
      vertex 8.3 2 11.85
    endloop
  endfacet
  facet normal -1 0 0
    outer loop
      vertex 8.3 8.3 3.125
      vertex 8.3 2 11.85
      vertex 8.3 8.3 11.85
    endloop
  endfacet
  facet normal 0 0 1
    outer loop
      vertex 2 223.5923 5.925
      vertex 2 211.8923 5.925
      vertex 20 211.8923 5.925
    endloop
  endfacet
  facet normal 0 0 -1
    outer loop
      vertex 20 211.8923 3.125
      vertex 2 211.8923 3.125
      vertex 2 223.5923 3.125
    endloop
  endfacet
  facet normal 0 -0 1
    outer loop
      vertex 20 211.8923 5.925
      vertex 20 229.8923 5.925
      vertex 8.3 229.8923 5.925
    endloop
  endfacet
  facet normal 0 0 -1
    outer loop
      vertex 8.3 229.8923 3.125
      vertex 20 229.8923 3.125
      vertex 20 211.8923 3.125
    endloop
  endfacet
  facet normal 0 0 1
    outer loop
      vertex 20 211.8923 5.925
      vertex 8.3 229.8923 5.925
      vertex 8.3 223.5923 5.925
    endloop
  endfacet
  facet normal 0 0 -1
    outer loop
      vertex 8.3 223.5923 3.125
      vertex 8.3 229.8923 3.125
      vertex 20 211.8923 3.125
    endloop
  endfacet
  facet normal 0 0 1
    outer loop
      vertex 20 211.8923 5.925
      vertex 8.3 223.5923 5.925
      vertex 2 223.5923 5.925
    endloop
  endfacet
  facet normal 0 0 -1
    outer loop
      vertex 2 223.5923 3.125
      vertex 8.3 223.5923 3.125
      vertex 20 211.8923 3.125
    endloop
  endfacet
  facet normal 0 -1 0
    outer loop
      vertex 2 211.8923 3.125
      vertex 20 211.8923 3.125
      vertex 20 211.8923 5.925
    endloop
  endfacet
  facet normal 0 -1 0
    outer loop
      vertex 2 211.8923 3.125
      vertex 20 211.8923 5.925
      vertex 2 211.8923 5.925
    endloop
  endfacet
  facet normal 1 0 0
    outer loop
      vertex 20 211.8923 3.125
      vertex 20 229.8923 3.125
      vertex 20 229.8923 5.925
    endloop
  endfacet
  facet normal 1 0 0
    outer loop
      vertex 20 211.8923 3.125
      vertex 20 229.8923 5.925
      vertex 20 211.8923 5.925
    endloop
  endfacet
  facet normal 0 1 0
    outer loop
      vertex 20 229.8923 3.125
      vertex 8.3 229.8923 3.125
      vertex 8.3 229.8923 5.925
    endloop
  endfacet
  facet normal 0 1 -0
    outer loop
      vertex 20 229.8923 3.125
      vertex 8.3 229.8923 5.925
      vertex 20 229.8923 5.925
    endloop
  endfacet
  facet normal -1 0 0
    outer loop
      vertex 8.3 229.8923 3.125
      vertex 8.3 223.5923 3.125
      vertex 8.3 223.5923 5.925
    endloop
  endfacet
  facet normal -1 0 0
    outer loop
      vertex 8.3 229.8923 3.125
      vertex 8.3 223.5923 5.925
      vertex 8.3 229.8923 5.925
    endloop
  endfacet
  facet normal 0 1 0
    outer loop
      vertex 8.3 223.5923 3.125
      vertex 2 223.5923 3.125
      vertex 2 223.5923 5.925
    endloop
  endfacet
  facet normal 0 1 -0
    outer loop
      vertex 8.3 223.5923 3.125
      vertex 2 223.5923 5.925
      vertex 8.3 223.5923 5.925
    endloop
  endfacet
  facet normal -1 0 0
    outer loop
      vertex 2 223.5923 3.125
      vertex 2 211.8923 3.125
      vertex 2 211.8923 5.925
    endloop
  endfacet
  facet normal -1 0 0
    outer loop
      vertex 2 223.5923 3.125
      vertex 2 211.8923 5.925
      vertex 2 223.5923 5.925
    endloop
  endfacet
endsolid temporary_switchback_ramp_layer_05
