solid temporary_switchback_ramp_layer_10
  facet normal 0 0 -1
    outer loop
      vertex 2 183.3305 0
      vertex 183.3305 183.3305 0
      vertex 183.3305 167.6585 0
    endloop
  endfacet
  facet normal 0 0 -1
    outer loop
      vertex 2 183.3305 0
      vertex 183.3305 167.6585 0
      vertex 2 167.6585 0
    endloop
  endfacet
  facet normal 0 0 1
    outer loop
      vertex 2 167.6585 5.925
      vertex 183.3305 167.6585 5.925
      vertex 183.3305 183.3305 5.925
    endloop
  endfacet
  facet normal 0 0 1
    outer loop
      vertex 2 167.6585 5.925
      vertex 183.3305 183.3305 5.925
      vertex 2 183.3305 5.925
    endloop
  endfacet
  facet normal 0 -1 0
    outer loop
      vertex 2 167.6585 0
      vertex 183.3305 167.6585 0
      vertex 183.3305 167.6585 5.925
    endloop
  endfacet
  facet normal 0 -1 0
    outer loop
      vertex 2 167.6585 0
      vertex 183.3305 167.6585 5.925
      vertex 2 167.6585 5.925
    endloop
  endfacet
  facet normal 1 0 0
    outer loop
      vertex 183.3305 167.6585 0
      vertex 183.3305 183.3305 0
      vertex 183.3305 183.3305 5.925
    endloop
  endfacet
  facet normal 1 0 0
    outer loop
      vertex 183.3305 167.6585 0
      vertex 183.3305 183.3305 5.925
      vertex 183.3305 167.6585 5.925
    endloop
  endfacet
  facet normal 0 1 0
    outer loop
      vertex 183.3305 183.3305 0
      vertex 2 183.3305 0
      vertex 2 183.3305 5.925
    endloop
  endfacet
  facet normal 0 1 -0
    outer loop
      vertex 183.3305 183.3305 0
      vertex 2 183.3305 5.925
      vertex 183.3305 183.3305 5.925
    endloop
  endfacet
  facet normal -1 0 0
    outer loop
      vertex 2 183.3305 0
      vertex 2 167.6585 0
      vertex 2 167.6585 5.925
    endloop
  endfacet
  facet normal -1 0 0
    outer loop
      vertex 2 183.3305 0
      vertex 2 167.6585 5.925
      vertex 2 183.3305 5.925
    endloop
  endfacet
  facet normal 0 -0 -1
    outer loop
      vertex 183.3305 183.3305 0
      vertex 183.3305 2 0
      vertex 167.6585 2 0
    endloop
  endfacet
  facet normal -0 0 -1
    outer loop
      vertex 183.3305 183.3305 0
      vertex 167.6585 2 0
      vertex 167.6585 183.3305 0
    endloop
  endfacet
  facet normal 0 0 1
    outer loop
      vertex 167.6585 183.3305 5.925
      vertex 167.6585 2 5.925
      vertex 183.3305 2 5.925
    endloop
  endfacet
  facet normal -0 0 1
    outer loop
      vertex 167.6585 183.3305 5.925
      vertex 183.3305 2 5.925
      vertex 183.3305 183.3305 5.925
    endloop
  endfacet
  facet normal -1 0 0
    outer loop
      vertex 167.6585 183.3305 0
      vertex 167.6585 2 0
      vertex 167.6585 2 5.925
    endloop
  endfacet
  facet normal -1 0 0
    outer loop
      vertex 167.6585 183.3305 0
      vertex 167.6585 2 5.925
      vertex 167.6585 183.3305 5.925
    endloop
  endfacet
  facet normal 0 -1 0
    outer loop
      vertex 167.6585 2 0
      vertex 183.3305 2 0
      vertex 183.3305 2 5.925
    endloop
  endfacet
  facet normal 0 -1 0
    outer loop
      vertex 167.6585 2 0
      vertex 183.3305 2 5.925
      vertex 167.6585 2 5.925
    endloop
  endfacet
  facet normal 1 0 0
    outer loop
      vertex 183.3305 2 0
      vertex 183.3305 183.3305 0
      vertex 183.3305 183.3305 5.925
    endloop
  endfacet
  facet normal 1 0 0
    outer loop
      vertex 183.3305 2 0
      vertex 183.3305 183.3305 5.925
      vertex 183.3305 2 5.925
    endloop
  endfacet
  facet normal 0 1 0
    outer loop
      vertex 183.3305 183.3305 0
      vertex 167.6585 183.3305 0
      vertex 167.6585 183.3305 5.925
    endloop
  endfacet
  facet normal 0 1 -0
    outer loop
      vertex 183.3305 183.3305 0
      vertex 167.6585 183.3305 5.925
      vertex 183.3305 183.3305 5.925
    endloop
  endfacet
  facet normal 0 0 -1
    outer loop
      vertex 183.3305 2 0
      vertex 2 2 0
      vertex 2 17.67191 0
    endloop
  endfacet
  facet normal 0 0 -1
    outer loop
      vertex 183.3305 2 0
      vertex 2 17.67191 0
      vertex 183.3305 17.67191 0
    endloop
  endfacet
  facet normal 0 0 1
    outer loop
      vertex 183.3305 17.67191 5.925
      vertex 2 17.67191 5.925
      vertex 2 2 5.925
    endloop
  endfacet
  facet normal 0 0 1
    outer loop
      vertex 183.3305 17.67191 5.925
      vertex 2 2 5.925
      vertex 183.3305 2 5.925
    endloop
  endfacet
  facet normal 0 1 0
    outer loop
      vertex 183.3305 17.67191 0
      vertex 2 17.67191 0
      vertex 2 17.67191 5.925
    endloop
  endfacet
  facet normal 0 1 -0
    outer loop
      vertex 183.3305 17.67191 0
      vertex 2 17.67191 5.925
      vertex 183.3305 17.67191 5.925
    endloop
  endfacet
  facet normal -1 0 0
    outer loop
      vertex 2 17.67191 0
      vertex 2 2 0
      vertex 2 2 5.925
    endloop
  endfacet
  facet normal -1 0 0
    outer loop
      vertex 2 17.67191 0
      vertex 2 2 5.925
      vertex 2 17.67191 5.925
    endloop
  endfacet
  facet normal 0 -1 0
    outer loop
      vertex 2 2 0
      vertex 183.3305 2 0
      vertex 183.3305 2 5.925
    endloop
  endfacet
  facet normal 0 -1 0
    outer loop
      vertex 2 2 0
      vertex 183.3305 2 5.925
      vertex 2 2 5.925
    endloop
  endfacet
  facet normal 1 0 0
    outer loop
      vertex 183.3305 2 0
      vertex 183.3305 17.67191 0
      vertex 183.3305 17.67191 5.925
    endloop
  endfacet
  facet normal 1 0 0
    outer loop
      vertex 183.3305 2 0
      vertex 183.3305 17.67191 5.925
      vertex 183.3305 2 5.925
    endloop
  endfacet
  facet normal 0 0 -1
    outer loop
      vertex 2 2 0
      vertex 2 183.3305 0
      vertex 17.67191 183.3305 0
    endloop
  endfacet
  facet normal 0 0 -1
    outer loop
      vertex 2 2 0
      vertex 17.67191 183.3305 0
      vertex 17.67191 2 0
    endloop
  endfacet
  facet normal 0 -0 1
    outer loop
      vertex 17.67191 2 5.925
      vertex 17.67191 183.3305 5.925
      vertex 2 183.3305 5.925
    endloop
  endfacet
  facet normal 0 0 1
    outer loop
      vertex 17.67191 2 5.925
      vertex 2 183.3305 5.925
      vertex 2 2 5.925
    endloop
  endfacet
  facet normal 1 0 0
    outer loop
      vertex 17.67191 2 0
      vertex 17.67191 183.3305 0
      vertex 17.67191 183.3305 5.925
    endloop
  endfacet
  facet normal 1 0 0
    outer loop
      vertex 17.67191 2 0
      vertex 17.67191 183.3305 5.925
      vertex 17.67191 2 5.925
    endloop
  endfacet
  facet normal 0 1 0
    outer loop
      vertex 17.67191 183.3305 0
      vertex 2 183.3305 0
      vertex 2 183.3305 5.925
    endloop
  endfacet
  facet normal 0 1 -0
    outer loop
      vertex 17.67191 183.3305 0
      vertex 2 183.3305 5.925
      vertex 17.67191 183.3305 5.925
    endloop
  endfacet
  facet normal -1 0 0
    outer loop
      vertex 2 183.3305 0
      vertex 2 2 0
      vertex 2 2 5.925
    endloop
  endfacet
  facet normal -1 0 0
    outer loop
      vertex 2 183.3305 0
      vertex 2 2 5.925
      vertex 2 183.3305 5.925
    endloop
  endfacet
  facet normal 0 -1 0
    outer loop
      vertex 2 2 0
      vertex 17.67191 2 0
      vertex 17.67191 2 5.925
    endloop
  endfacet
  facet normal 0 -1 0
    outer loop
      vertex 2 2 0
      vertex 17.67191 2 5.925
      vertex 2 2 5.925
    endloop
  endfacet
  facet normal 0 0 1
    outer loop
      vertex 165.3305 183.3305 5.925
      vertex 165.3305 165.3305 5.925
      vertex 183.3305 165.3305 5.925
    endloop
  endfacet
  facet normal 0 0 -1
    outer loop
      vertex 183.3305 165.3305 0
      vertex 165.3305 165.3305 0
      vertex 165.3305 183.3305 0
    endloop
  endfacet
  facet normal 0 -0 1
    outer loop
      vertex 183.3305 165.3305 5.925
      vertex 183.3305 177.0305 5.925
      vertex 177.0305 177.0305 5.925
    endloop
  endfacet
  facet normal 0 0 -1
    outer loop
      vertex 177.0305 177.0305 0
      vertex 183.3305 177.0305 0
      vertex 183.3305 165.3305 0
    endloop
  endfacet
  facet normal 0 0 1
    outer loop
      vertex 165.3305 183.3305 5.925
      vertex 183.3305 165.3305 5.925
      vertex 177.0305 177.0305 5.925
    endloop
  endfacet
  facet normal -0 -0 -1
    outer loop
      vertex 177.0305 177.0305 0
      vertex 183.3305 165.3305 0
      vertex 165.3305 183.3305 0
    endloop
  endfacet
  facet normal 0 -0 1
    outer loop
      vertex 177.0305 177.0305 5.925
      vertex 177.0305 183.3305 5.925
      vertex 165.3305 183.3305 5.925
    endloop
  endfacet
  facet normal 0 0 -1
    outer loop
      vertex 165.3305 183.3305 0
      vertex 177.0305 183.3305 0
      vertex 177.0305 177.0305 0
    endloop
  endfacet
  facet normal 0 -1 0
    outer loop
      vertex 165.3305 165.3305 0
      vertex 183.3305 165.3305 0
      vertex 183.3305 165.3305 5.925
    endloop
  endfacet
  facet normal 0 -1 0
    outer loop
      vertex 165.3305 165.3305 0
      vertex 183.3305 165.3305 5.925
      vertex 165.3305 165.3305 5.925
    endloop
  endfacet
  facet normal 1 0 0
    outer loop
      vertex 183.3305 165.3305 0
      vertex 183.3305 177.0305 0
      vertex 183.3305 177.0305 5.925
    endloop
  endfacet
  facet normal 1 0 0
    outer loop
      vertex 183.3305 165.3305 0
      vertex 183.3305 177.0305 5.925
      vertex 183.3305 165.3305 5.925
    endloop
  endfacet
  facet normal 0 1 0
    outer loop
      vertex 183.3305 177.0305 0
      vertex 177.0305 177.0305 0
      vertex 177.0305 177.0305 5.925
    endloop
  endfacet
  facet normal 0 1 -0
    outer loop
      vertex 183.3305 177.0305 0
      vertex 177.0305 177.0305 5.925
      vertex 183.3305 177.0305 5.925
    endloop
  endfacet
  facet normal 1 0 0
    outer loop
      vertex 177.0305 177.0305 0
      vertex 177.0305 183.3305 0
      vertex 177.0305 183.3305 5.925
    endloop
  endfacet
  facet normal 1 0 0
    outer loop
      vertex 177.0305 177.0305 0
      vertex 177.0305 183.3305 5.925
      vertex 177.0305 177.0305 5.925
    endloop
  endfacet
  facet normal 0 1 0
    outer loop
      vertex 177.0305 183.3305 0
      vertex 165.3305 183.3305 0
      vertex 165.3305 183.3305 5.925
    endloop
  endfacet
  facet normal 0 1 -0
    outer loop
      vertex 177.0305 183.3305 0
      vertex 165.3305 183.3305 5.925
      vertex 177.0305 183.3305 5.925
    endloop
  endfacet
  facet normal -1 0 0
    outer loop
      vertex 165.3305 183.3305 0
      vertex 165.3305 165.3305 0
      vertex 165.3305 165.3305 5.925
    endloop
  endfacet
  facet normal -1 0 0
    outer loop
      vertex 165.3305 183.3305 0
      vertex 165.3305 165.3305 5.925
      vertex 165.3305 183.3305 5.925
    endloop
  endfacet
  facet normal 0 0 1
    outer loop
      vertex 165.3305 20 5.925
      vertex 165.3305 2 5.925
      vertex 177.0305 2 5.925
    endloop
  endfacet
  facet normal 0 0 -1
    outer loop
      vertex 177.0305 2 0
      vertex 165.3305 2 0
      vertex 165.3305 20 0
    endloop
  endfacet
  facet normal 0 0 1
    outer loop
      vertex 165.3305 20 5.925
      vertex 177.0305 2 5.925
      vertex 177.0305 8.3 5.925
    endloop
  endfacet
  facet normal -0 -0 -1
    outer loop
      vertex 177.0305 8.3 0
      vertex 177.0305 2 0
      vertex 165.3305 20 0
    endloop
  endfacet
  facet normal 0 0 1
    outer loop
      vertex 165.3305 20 5.925
      vertex 177.0305 8.3 5.925
      vertex 183.3305 8.3 5.925
    endloop
  endfacet
  facet normal 0 0 -1
    outer loop
      vertex 183.3305 8.3 0
      vertex 177.0305 8.3 0
      vertex 165.3305 20 0
    endloop
  endfacet
  facet normal 0 -0 1
    outer loop
      vertex 183.3305 8.3 5.925
      vertex 183.3305 20 5.925
      vertex 165.3305 20 5.925
    endloop
  endfacet
  facet normal 0 0 -1
    outer loop
      vertex 165.3305 20 0
      vertex 183.3305 20 0
      vertex 183.3305 8.3 0
    endloop
  endfacet
  facet normal 0 -1 0
    outer loop
      vertex 165.3305 2 0
      vertex 177.0305 2 0
      vertex 177.0305 2 5.925
    endloop
  endfacet
  facet normal 0 -1 0
    outer loop
      vertex 165.3305 2 0
      vertex 177.0305 2 5.925
      vertex 165.3305 2 5.925
    endloop
  endfacet
  facet normal 1 0 0
    outer loop
      vertex 177.0305 2 0
      vertex 177.0305 8.3 0
      vertex 177.0305 8.3 5.925
    endloop
  endfacet
  facet normal 1 0 0
    outer loop
      vertex 177.0305 2 0
      vertex 177.0305 8.3 5.925
      vertex 177.0305 2 5.925
    endloop
  endfacet
  facet normal 0 -1 0
    outer loop
      vertex 177.0305 8.3 0
      vertex 183.3305 8.3 0
      vertex 183.3305 8.3 5.925
    endloop
  endfacet
  facet normal 0 -1 0
    outer loop
      vertex 177.0305 8.3 0
      vertex 183.3305 8.3 5.925
      vertex 177.0305 8.3 5.925
    endloop
  endfacet
  facet normal 1 0 0
    outer loop
      vertex 183.3305 8.3 0
      vertex 183.3305 20 0
      vertex 183.3305 20 5.925
    endloop
  endfacet
  facet normal 1 0 0
    outer loop
      vertex 183.3305 8.3 0
      vertex 183.3305 20 5.925
      vertex 183.3305 8.3 5.925
    endloop
  endfacet
  facet normal 0 1 0
    outer loop
      vertex 183.3305 20 0
      vertex 165.3305 20 0
      vertex 165.3305 20 5.925
    endloop
  endfacet
  facet normal 0 1 -0
    outer loop
      vertex 183.3305 20 0
      vertex 165.3305 20 5.925
      vertex 183.3305 20 5.925
    endloop
  endfacet
  facet normal -1 0 0
    outer loop
      vertex 165.3305 20 0
      vertex 165.3305 2 0
      vertex 165.3305 2 5.925
    endloop
  endfacet
  facet normal -1 0 0
    outer loop
      vertex 165.3305 20 0
      vertex 165.3305 2 5.925
      vertex 165.3305 20 5.925
    endloop
  endfacet
  facet normal 0 0 1
    outer loop
      vertex 8.3 8.3 5.925
      vertex 8.3 2 5.925
      vertex 20 2 5.925
    endloop
  endfacet
  facet normal 0 0 -1
    outer loop
      vertex 20 2 0
      vertex 8.3 2 0
      vertex 8.3 8.3 0
    endloop
  endfacet
  facet normal -0 0 1
    outer loop
      vertex 8.3 8.3 5.925
      vertex 20 2 5.925
      vertex 20 20 5.925
    endloop
  endfacet
  facet normal 0 -0 -1
    outer loop
      vertex 20 20 0
      vertex 20 2 0
      vertex 8.3 8.3 0
    endloop
  endfacet
  facet normal 0 -0 1
    outer loop
      vertex 8.3 8.3 5.925
      vertex 20 20 5.925
      vertex 2 20 5.925
    endloop
  endfacet
  facet normal 0 0 -1
    outer loop
      vertex 2 20 0
      vertex 20 20 0
      vertex 8.3 8.3 0
    endloop
  endfacet
  facet normal 0 0 1
    outer loop
      vertex 2 20 5.925
      vertex 2 8.3 5.925
      vertex 8.3 8.3 5.925
    endloop
  endfacet
  facet normal 0 0 -1
    outer loop
      vertex 8.3 8.3 0
      vertex 2 8.3 0
      vertex 2 20 0
    endloop
  endfacet
  facet normal 0 -1 0
    outer loop
      vertex 8.3 2 0
      vertex 20 2 0
      vertex 20 2 5.925
    endloop
  endfacet
  facet normal 0 -1 0
    outer loop
      vertex 8.3 2 0
      vertex 20 2 5.925
      vertex 8.3 2 5.925
    endloop
  endfacet
  facet normal 1 0 0
    outer loop
      vertex 20 2 0
      vertex 20 20 0
      vertex 20 20 5.925
    endloop
  endfacet
  facet normal 1 0 0
    outer loop
      vertex 20 2 0
      vertex 20 20 5.925
      vertex 20 2 5.925
    endloop
  endfacet
  facet normal 0 1 0
    outer loop
      vertex 20 20 0
      vertex 2 20 0
      vertex 2 20 5.925
    endloop
  endfacet
  facet normal 0 1 -0
    outer loop
      vertex 20 20 0
      vertex 2 20 5.925
      vertex 20 20 5.925
    endloop
  endfacet
  facet normal -1 0 0
    outer loop
      vertex 2 20 0
      vertex 2 8.3 0
      vertex 2 8.3 5.925
    endloop
  endfacet
  facet normal -1 0 0
    outer loop
      vertex 2 20 0
      vertex 2 8.3 5.925
      vertex 2 20 5.925
    endloop
  endfacet
  facet normal 0 -1 0
    outer loop
      vertex 2 8.3 0
      vertex 8.3 8.3 0
      vertex 8.3 8.3 5.925
    endloop
  endfacet
  facet normal 0 -1 0
    outer loop
      vertex 2 8.3 0
      vertex 8.3 8.3 5.925
      vertex 2 8.3 5.925
    endloop
  endfacet
  facet normal -1 0 0
    outer loop
      vertex 8.3 8.3 0
      vertex 8.3 2 0
      vertex 8.3 2 5.925
    endloop
  endfacet
  facet normal -1 0 0
    outer loop
      vertex 8.3 8.3 0
      vertex 8.3 2 5.925
      vertex 8.3 8.3 5.925
    endloop
  endfacet
  facet normal 0 0 1
    outer loop
      vertex 2 177.0305 5.925
      vertex 2 165.3305 5.925
      vertex 20 165.3305 5.925
    endloop
  endfacet
  facet normal 0 0 -1
    outer loop
      vertex 20 165.3305 0
      vertex 2 165.3305 0
      vertex 2 177.0305 0
    endloop
  endfacet
  facet normal 0 -0 1
    outer loop
      vertex 20 165.3305 5.925
      vertex 20 183.3305 5.925
      vertex 8.3 183.3305 5.925
    endloop
  endfacet
  facet normal 0 0 -1
    outer loop
      vertex 8.3 183.3305 0
      vertex 20 183.3305 0
      vertex 20 165.3305 0
    endloop
  endfacet
  facet normal 0 0 1
    outer loop
      vertex 20 165.3305 5.925
      vertex 8.3 183.3305 5.925
      vertex 8.3 177.0305 5.925
    endloop
  endfacet
  facet normal 0 0 -1
    outer loop
      vertex 8.3 177.0305 0
      vertex 8.3 183.3305 0
      vertex 20 165.3305 0
    endloop
  endfacet
  facet normal 0 0 1
    outer loop
      vertex 20 165.3305 5.925
      vertex 8.3 177.0305 5.925
      vertex 2 177.0305 5.925
    endloop
  endfacet
  facet normal 0 0 -1
    outer loop
      vertex 2 177.0305 0
      vertex 8.3 177.0305 0
      vertex 20 165.3305 0
    endloop
  endfacet
  facet normal 0 -1 0
    outer loop
      vertex 2 165.3305 0
      vertex 20 165.3305 0
      vertex 20 165.3305 5.925
    endloop
  endfacet
  facet normal 0 -1 0
    outer loop
      vertex 2 165.3305 0
      vertex 20 165.3305 5.925
      vertex 2 165.3305 5.925
    endloop
  endfacet
  facet normal 1 0 0
    outer loop
      vertex 20 165.3305 0
      vertex 20 183.3305 0
      vertex 20 183.3305 5.925
    endloop
  endfacet
  facet normal 1 0 0
    outer loop
      vertex 20 165.3305 0
      vertex 20 183.3305 5.925
      vertex 20 165.3305 5.925
    endloop
  endfacet
  facet normal 0 1 0
    outer loop
      vertex 20 183.3305 0
      vertex 8.3 183.3305 0
      vertex 8.3 183.3305 5.925
    endloop
  endfacet
  facet normal 0 1 -0
    outer loop
      vertex 20 183.3305 0
      vertex 8.3 183.3305 5.925
      vertex 20 183.3305 5.925
    endloop
  endfacet
  facet normal -1 0 0
    outer loop
      vertex 8.3 183.3305 0
      vertex 8.3 177.0305 0
      vertex 8.3 177.0305 5.925
    endloop
  endfacet
  facet normal -1 0 0
    outer loop
      vertex 8.3 183.3305 0
      vertex 8.3 177.0305 5.925
      vertex 8.3 183.3305 5.925
    endloop
  endfacet
  facet normal 0 1 0
    outer loop
      vertex 8.3 177.0305 0
      vertex 2 177.0305 0
      vertex 2 177.0305 5.925
    endloop
  endfacet
  facet normal 0 1 -0
    outer loop
      vertex 8.3 177.0305 0
      vertex 2 177.0305 5.925
      vertex 8.3 177.0305 5.925
    endloop
  endfacet
  facet normal -1 0 0
    outer loop
      vertex 2 177.0305 0
      vertex 2 165.3305 0
      vertex 2 165.3305 5.925
    endloop
  endfacet
  facet normal -1 0 0
    outer loop
      vertex 2 177.0305 0
      vertex 2 165.3305 5.925
      vertex 2 177.0305 5.925
    endloop
  endfacet
  facet normal 0 0 -1
    outer loop
      vertex 165.3305 165.3305 3.125
      vertex 56.33261 165.3305 3.125
      vertex 56.33261 183.3305 3.125
    endloop
  endfacet
  facet normal 0 0 -1
    outer loop
      vertex 165.3305 165.3305 3.125
      vertex 56.33261 183.3305 3.125
      vertex 165.3305 183.3305 3.125
    endloop
  endfacet
  facet normal 0 0 -1
    outer loop
      vertex 56.33261 165.3305 3.125
      vertex 20 165.3305 3.125
      vertex 20 183.3305 3.125
    endloop
  endfacet
  facet normal 0 0 -1
    outer loop
      vertex 56.33261 165.3305 3.125
      vertex 20 183.3305 3.125
      vertex 56.33261 183.3305 3.125
    endloop
  endfacet
  facet normal 0.05427874 0 0.9985258
    outer loop
      vertex 165.3305 165.3305 5.925
      vertex 56.33261 183.3305 11.85
      vertex 56.33261 165.3305 11.85
    endloop
  endfacet
  facet normal 0.05427874 -0 0.9985258
    outer loop
      vertex 165.3305 165.3305 5.925
      vertex 165.3305 183.3305 5.925
      vertex 56.33261 183.3305 11.85
    endloop
  endfacet
  facet normal 0 0 1
    outer loop
      vertex 56.33261 165.3305 11.85
      vertex 20 183.3305 11.85
      vertex 20 165.3305 11.85
    endloop
  endfacet
  facet normal 0 -0 1
    outer loop
      vertex 56.33261 165.3305 11.85
      vertex 56.33261 183.3305 11.85
      vertex 20 183.3305 11.85
    endloop
  endfacet
  facet normal 0 -1 0
    outer loop
      vertex 165.3305 165.3305 3.125
      vertex 56.33261 165.3305 11.85
      vertex 56.33261 165.3305 3.125
    endloop
  endfacet
  facet normal 0 -1 0
    outer loop
      vertex 165.3305 165.3305 3.125
      vertex 165.3305 165.3305 5.925
      vertex 56.33261 165.3305 11.85
    endloop
  endfacet
  facet normal 0 -1 0
    outer loop
      vertex 56.33261 165.3305 3.125
      vertex 20 165.3305 11.85
      vertex 20 165.3305 3.125
    endloop
  endfacet
  facet normal 0 -1 0
    outer loop
      vertex 56.33261 165.3305 3.125
      vertex 56.33261 165.3305 11.85
      vertex 20 165.3305 11.85
    endloop
  endfacet
  facet normal 0 1 0
    outer loop
      vertex 165.3305 183.3305 3.125
      vertex 56.33261 183.3305 3.125
      vertex 56.33261 183.3305 11.85
    endloop
  endfacet
  facet normal 0 1 -0
    outer loop
      vertex 165.3305 183.3305 3.125
      vertex 56.33261 183.3305 11.85
      vertex 165.3305 183.3305 5.925
    endloop
  endfacet
  facet normal 0 1 0
    outer loop
      vertex 56.33261 183.3305 3.125
      vertex 20 183.3305 3.125
      vertex 20 183.3305 11.85
    endloop
  endfacet
  facet normal 0 1 -0
    outer loop
      vertex 56.33261 183.3305 3.125
      vertex 20 183.3305 11.85
      vertex 56.33261 183.3305 11.85
    endloop
  endfacet
  facet normal 1 0 0
    outer loop
      vertex 165.3305 183.3305 3.125
      vertex 165.3305 165.3305 5.925
      vertex 165.3305 165.3305 3.125
    endloop
  endfacet
  facet normal 1 0 -0
    outer loop
      vertex 165.3305 183.3305 3.125
      vertex 165.3305 183.3305 5.925
      vertex 165.3305 165.3305 5.925
    endloop
  endfacet
  facet normal -1 0 0
    outer loop
      vertex 20 165.3305 3.125
      vertex 20 183.3305 11.85
      vertex 20 183.3305 3.125
    endloop
  endfacet
  facet normal -1 0 0
    outer loop
      vertex 20 165.3305 3.125
      vertex 20 165.3305 11.85
      vertex 20 183.3305 11.85
    endloop
  endfacet
  facet normal 0 0 -1
    outer loop
      vertex 165.3305 165.3305 3.125
      vertex 183.3305 56.33261 3.125
      vertex 165.3305 56.33261 3.125
    endloop
  endfacet
  facet normal 0 0 -1
    outer loop
      vertex 165.3305 165.3305 3.125
      vertex 183.3305 165.3305 3.125
      vertex 183.3305 56.33261 3.125
    endloop
  endfacet
  facet normal 0 0 -1
    outer loop
      vertex 165.3305 56.33261 3.125
      vertex 183.3305 20 3.125
      vertex 165.3305 20 3.125
    endloop
  endfacet
  facet normal 0 0 -1
    outer loop
      vertex 165.3305 56.33261 3.125
      vertex 183.3305 56.33261 3.125
      vertex 183.3305 20 3.125
    endloop
  endfacet
  facet normal 0 0.05427874 0.9985258
    outer loop
      vertex 165.3305 165.3305 5.925
      vertex 165.3305 56.33261 11.85
      vertex 183.3305 56.33261 11.85
    endloop
  endfacet
  facet normal -0 0.05427874 0.9985258
    outer loop
      vertex 165.3305 165.3305 5.925
      vertex 183.3305 56.33261 11.85
      vertex 183.3305 165.3305 5.925
    endloop
  endfacet
  facet normal 0 0 1
    outer loop
      vertex 165.3305 56.33261 11.85
      vertex 165.3305 20 11.85
      vertex 183.3305 20 11.85
    endloop
  endfacet
  facet normal -0 0 1
    outer loop
      vertex 165.3305 56.33261 11.85
      vertex 183.3305 20 11.85
      vertex 183.3305 56.33261 11.85
    endloop
  endfacet
  facet normal -1 0 0
    outer loop
      vertex 165.3305 165.3305 3.125
      vertex 165.3305 56.33261 3.125
      vertex 165.3305 56.33261 11.85
    endloop
  endfacet
  facet normal -1 0 0
    outer loop
      vertex 165.3305 165.3305 3.125
      vertex 165.3305 56.33261 11.85
      vertex 165.3305 165.3305 5.925
    endloop
  endfacet
  facet normal -1 0 0
    outer loop
      vertex 165.3305 56.33261 3.125
      vertex 165.3305 20 3.125
      vertex 165.3305 20 11.85
    endloop
  endfacet
  facet normal -1 0 0
    outer loop
      vertex 165.3305 56.33261 3.125
      vertex 165.3305 20 11.85
      vertex 165.3305 56.33261 11.85
    endloop
  endfacet
  facet normal 1 0 0
    outer loop
      vertex 183.3305 165.3305 3.125
      vertex 183.3305 56.33261 11.85
      vertex 183.3305 56.33261 3.125
    endloop
  endfacet
  facet normal 1 0 -0
    outer loop
      vertex 183.3305 165.3305 3.125
      vertex 183.3305 165.3305 5.925
      vertex 183.3305 56.33261 11.85
    endloop
  endfacet
  facet normal 1 0 0
    outer loop
      vertex 183.3305 56.33261 3.125
      vertex 183.3305 20 11.85
      vertex 183.3305 20 3.125
    endloop
  endfacet
  facet normal 1 0 -0
    outer loop
      vertex 183.3305 56.33261 3.125
      vertex 183.3305 56.33261 11.85
      vertex 183.3305 20 11.85
    endloop
  endfacet
  facet normal 0 1 0
    outer loop
      vertex 183.3305 165.3305 3.125
      vertex 165.3305 165.3305 3.125
      vertex 165.3305 165.3305 5.925
    endloop
  endfacet
  facet normal 0 1 -0
    outer loop
      vertex 183.3305 165.3305 3.125
      vertex 165.3305 165.3305 5.925
      vertex 183.3305 165.3305 5.925
    endloop
  endfacet
  facet normal 0 -1 0
    outer loop
      vertex 165.3305 20 3.125
      vertex 183.3305 20 3.125
      vertex 183.3305 20 11.85
    endloop
  endfacet
  facet normal 0 -1 0
    outer loop
      vertex 165.3305 20 3.125
      vertex 183.3305 20 11.85
      vertex 165.3305 20 11.85
    endloop
  endfacet
  facet normal 0 0 -1
    outer loop
      vertex 20 20 3.125
      vertex 128.9978 20 3.125
      vertex 128.9978 2 3.125
    endloop
  endfacet
  facet normal 0 0 -1
    outer loop
      vertex 20 20 3.125
      vertex 128.9978 2 3.125
      vertex 20 2 3.125
    endloop
  endfacet
  facet normal 0 0 -1
    outer loop
      vertex 128.9978 20 3.125
      vertex 165.3305 20 3.125
      vertex 165.3305 2 3.125
    endloop
  endfacet
  facet normal 0 0 -1
    outer loop
      vertex 128.9978 20 3.125
      vertex 165.3305 2 3.125
      vertex 128.9978 2 3.125
    endloop
  endfacet
  facet normal -0.05427874 0 0.9985258
    outer loop
      vertex 20 20 5.925
      vertex 128.9978 2 11.85
      vertex 128.9978 20 11.85
    endloop
  endfacet
  facet normal -0.05427874 0 0.9985258
    outer loop
      vertex 20 20 5.925
      vertex 20 2 5.925
      vertex 128.9978 2 11.85
    endloop
  endfacet
  facet normal -0 0 1
    outer loop
      vertex 128.9978 20 11.85
      vertex 165.3305 2 11.85
      vertex 165.3305 20 11.85
    endloop
  endfacet
  facet normal 0 0 1
    outer loop
      vertex 128.9978 20 11.85
      vertex 128.9978 2 11.85
      vertex 165.3305 2 11.85
    endloop
  endfacet
  facet normal 0 1 0
    outer loop
      vertex 20 20 3.125
      vertex 128.9978 20 11.85
      vertex 128.9978 20 3.125
    endloop
  endfacet
  facet normal 0 1 0
    outer loop
      vertex 20 20 3.125
      vertex 20 20 5.925
      vertex 128.9978 20 11.85
    endloop
  endfacet
  facet normal 0 1 0
    outer loop
      vertex 128.9978 20 3.125
      vertex 165.3305 20 11.85
      vertex 165.3305 20 3.125
    endloop
  endfacet
  facet normal 0 1 0
    outer loop
      vertex 128.9978 20 3.125
      vertex 128.9978 20 11.85
      vertex 165.3305 20 11.85
    endloop
  endfacet
  facet normal 0 -1 0
    outer loop
      vertex 20 2 3.125
      vertex 128.9978 2 3.125
      vertex 128.9978 2 11.85
    endloop
  endfacet
  facet normal 0 -1 0
    outer loop
      vertex 20 2 3.125
      vertex 128.9978 2 11.85
      vertex 20 2 5.925
    endloop
  endfacet
  facet normal 0 -1 0
    outer loop
      vertex 128.9978 2 3.125
      vertex 165.3305 2 3.125
      vertex 165.3305 2 11.85
    endloop
  endfacet
  facet normal 0 -1 0
    outer loop
      vertex 128.9978 2 3.125
      vertex 165.3305 2 11.85
      vertex 128.9978 2 11.85
    endloop
  endfacet
  facet normal -1 0 0
    outer loop
      vertex 20 2 3.125
      vertex 20 20 5.925
      vertex 20 20 3.125
    endloop
  endfacet
  facet normal -1 0 0
    outer loop
      vertex 20 2 3.125
      vertex 20 2 5.925
      vertex 20 20 5.925
    endloop
  endfacet
  facet normal 1 0 0
    outer loop
      vertex 165.3305 20 3.125
      vertex 165.3305 2 11.85
      vertex 165.3305 2 3.125
    endloop
  endfacet
  facet normal 1 0 -0
    outer loop
      vertex 165.3305 20 3.125
      vertex 165.3305 20 11.85
      vertex 165.3305 2 11.85
    endloop
  endfacet
  facet normal 0 0 -1
    outer loop
      vertex 20 20 3.125
      vertex 2 128.9978 3.125
      vertex 20 128.9978 3.125
    endloop
  endfacet
  facet normal 0 0 -1
    outer loop
      vertex 20 20 3.125
      vertex 2 20 3.125
      vertex 2 128.9978 3.125
    endloop
  endfacet
  facet normal 0 0 -1
    outer loop
      vertex 20 128.9978 3.125
      vertex 2 165.3305 3.125
      vertex 20 165.3305 3.125
    endloop
  endfacet
  facet normal 0 0 -1
    outer loop
      vertex 20 128.9978 3.125
      vertex 2 128.9978 3.125
      vertex 2 165.3305 3.125
    endloop
  endfacet
  facet normal 0 -0.05427874 0.9985258
    outer loop
      vertex 20 20 5.925
      vertex 20 128.9978 11.85
      vertex 2 128.9978 11.85
    endloop
  endfacet
  facet normal 0 -0.05427874 0.9985258
    outer loop
      vertex 20 20 5.925
      vertex 2 128.9978 11.85
      vertex 2 20 5.925
    endloop
  endfacet
  facet normal 0 -0 1
    outer loop
      vertex 20 128.9978 11.85
      vertex 20 165.3305 11.85
      vertex 2 165.3305 11.85
    endloop
  endfacet
  facet normal 0 0 1
    outer loop
      vertex 20 128.9978 11.85
      vertex 2 165.3305 11.85
      vertex 2 128.9978 11.85
    endloop
  endfacet
  facet normal 1 0 0
    outer loop
      vertex 20 20 3.125
      vertex 20 128.9978 3.125
      vertex 20 128.9978 11.85
    endloop
  endfacet
  facet normal 1 0 0
    outer loop
      vertex 20 20 3.125
      vertex 20 128.9978 11.85
      vertex 20 20 5.925
    endloop
  endfacet
  facet normal 1 0 0
    outer loop
      vertex 20 128.9978 3.125
      vertex 20 165.3305 3.125
      vertex 20 165.3305 11.85
    endloop
  endfacet
  facet normal 1 0 0
    outer loop
      vertex 20 128.9978 3.125
      vertex 20 165.3305 11.85
      vertex 20 128.9978 11.85
    endloop
  endfacet
  facet normal -1 0 0
    outer loop
      vertex 2 20 3.125
      vertex 2 128.9978 11.85
      vertex 2 128.9978 3.125
    endloop
  endfacet
  facet normal -1 0 0
    outer loop
      vertex 2 20 3.125
      vertex 2 20 5.925
      vertex 2 128.9978 11.85
    endloop
  endfacet
  facet normal -1 0 0
    outer loop
      vertex 2 128.9978 3.125
      vertex 2 165.3305 11.85
      vertex 2 165.3305 3.125
    endloop
  endfacet
  facet normal -1 0 0
    outer loop
      vertex 2 128.9978 3.125
      vertex 2 128.9978 11.85
      vertex 2 165.3305 11.85
    endloop
  endfacet
  facet normal 0 -1 0
    outer loop
      vertex 2 20 3.125
      vertex 20 20 3.125
      vertex 20 20 5.925
    endloop
  endfacet
  facet normal 0 -1 0
    outer loop
      vertex 2 20 3.125
      vertex 20 20 5.925
      vertex 2 20 5.925
    endloop
  endfacet
  facet normal 0 1 0
    outer loop
      vertex 20 165.3305 3.125
      vertex 2 165.3305 3.125
      vertex 2 165.3305 11.85
    endloop
  endfacet
  facet normal 0 1 -0
    outer loop
      vertex 20 165.3305 3.125
      vertex 2 165.3305 11.85
      vertex 20 165.3305 11.85
    endloop
  endfacet
  facet normal 0 0 1
    outer loop
      vertex 165.3305 183.3305 5.925
      vertex 165.3305 165.3305 5.925
      vertex 183.3305 165.3305 5.925
    endloop
  endfacet
  facet normal 0 0 -1
    outer loop
      vertex 183.3305 165.3305 3.125
      vertex 165.3305 165.3305 3.125
      vertex 165.3305 183.3305 3.125
    endloop
  endfacet
  facet normal 0 -0 1
    outer loop
      vertex 183.3305 165.3305 5.925
      vertex 183.3305 177.0305 5.925
      vertex 177.0305 177.0305 5.925
    endloop
  endfacet
  facet normal 0 0 -1
    outer loop
      vertex 177.0305 177.0305 3.125
      vertex 183.3305 177.0305 3.125
      vertex 183.3305 165.3305 3.125
    endloop
  endfacet
  facet normal 0 0 1
    outer loop
      vertex 165.3305 183.3305 5.925
      vertex 183.3305 165.3305 5.925
      vertex 177.0305 177.0305 5.925
    endloop
  endfacet
  facet normal -0 -0 -1
    outer loop
      vertex 177.0305 177.0305 3.125
      vertex 183.3305 165.3305 3.125
      vertex 165.3305 183.3305 3.125
    endloop
  endfacet
  facet normal 0 -0 1
    outer loop
      vertex 177.0305 177.0305 5.925
      vertex 177.0305 183.3305 5.925
      vertex 165.3305 183.3305 5.925
    endloop
  endfacet
  facet normal 0 0 -1
    outer loop
      vertex 165.3305 183.3305 3.125
      vertex 177.0305 183.3305 3.125
      vertex 177.0305 177.0305 3.125
    endloop
  endfacet
  facet normal 0 -1 0
    outer loop
      vertex 165.3305 165.3305 3.125
      vertex 183.3305 165.3305 3.125
      vertex 183.3305 165.3305 5.925
    endloop
  endfacet
  facet normal 0 -1 0
    outer loop
      vertex 165.3305 165.3305 3.125
      vertex 183.3305 165.3305 5.925
      vertex 165.3305 165.3305 5.925
    endloop
  endfacet
  facet normal 1 0 0
    outer loop
      vertex 183.3305 165.3305 3.125
      vertex 183.3305 177.0305 3.125
      vertex 183.3305 177.0305 5.925
    endloop
  endfacet
  facet normal 1 0 0
    outer loop
      vertex 183.3305 165.3305 3.125
      vertex 183.3305 177.0305 5.925
      vertex 183.3305 165.3305 5.925
    endloop
  endfacet
  facet normal 0 1 0
    outer loop
      vertex 183.3305 177.0305 3.125
      vertex 177.0305 177.0305 3.125
      vertex 177.0305 177.0305 5.925
    endloop
  endfacet
  facet normal 0 1 -0
    outer loop
      vertex 183.3305 177.0305 3.125
      vertex 177.0305 177.0305 5.925
      vertex 183.3305 177.0305 5.925
    endloop
  endfacet
  facet normal 1 0 0
    outer loop
      vertex 177.0305 177.0305 3.125
      vertex 177.0305 183.3305 3.125
      vertex 177.0305 183.3305 5.925
    endloop
  endfacet
  facet normal 1 0 0
    outer loop
      vertex 177.0305 177.0305 3.125
      vertex 177.0305 183.3305 5.925
      vertex 177.0305 177.0305 5.925
    endloop
  endfacet
  facet normal 0 1 0
    outer loop
      vertex 177.0305 183.3305 3.125
      vertex 165.3305 183.3305 3.125
      vertex 165.3305 183.3305 5.925
    endloop
  endfacet
  facet normal 0 1 -0
    outer loop
      vertex 177.0305 183.3305 3.125
      vertex 165.3305 183.3305 5.925
      vertex 177.0305 183.3305 5.925
    endloop
  endfacet
  facet normal -1 0 0
    outer loop
      vertex 165.3305 183.3305 3.125
      vertex 165.3305 165.3305 3.125
      vertex 165.3305 165.3305 5.925
    endloop
  endfacet
  facet normal -1 0 0
    outer loop
      vertex 165.3305 183.3305 3.125
      vertex 165.3305 165.3305 5.925
      vertex 165.3305 183.3305 5.925
    endloop
  endfacet
  facet normal 0 0 1
    outer loop
      vertex 165.3305 20 11.85
      vertex 165.3305 2 11.85
      vertex 177.0305 2 11.85
    endloop
  endfacet
  facet normal 0 0 -1
    outer loop
      vertex 177.0305 2 3.125
      vertex 165.3305 2 3.125
      vertex 165.3305 20 3.125
    endloop
  endfacet
  facet normal 0 0 1
    outer loop
      vertex 165.3305 20 11.85
      vertex 177.0305 2 11.85
      vertex 177.0305 8.3 11.85
    endloop
  endfacet
  facet normal -0 -0 -1
    outer loop
      vertex 177.0305 8.3 3.125
      vertex 177.0305 2 3.125
      vertex 165.3305 20 3.125
    endloop
  endfacet
  facet normal 0 0 1
    outer loop
      vertex 165.3305 20 11.85
      vertex 177.0305 8.3 11.85
      vertex 183.3305 8.3 11.85
    endloop
  endfacet
  facet normal 0 0 -1
    outer loop
      vertex 183.3305 8.3 3.125
      vertex 177.0305 8.3 3.125
      vertex 165.3305 20 3.125
    endloop
  endfacet
  facet normal 0 -0 1
    outer loop
      vertex 183.3305 8.3 11.85
      vertex 183.3305 20 11.85
      vertex 165.3305 20 11.85
    endloop
  endfacet
  facet normal 0 0 -1
    outer loop
      vertex 165.3305 20 3.125
      vertex 183.3305 20 3.125
      vertex 183.3305 8.3 3.125
    endloop
  endfacet
  facet normal 0 -1 0
    outer loop
      vertex 165.3305 2 3.125
      vertex 177.0305 2 3.125
      vertex 177.0305 2 11.85
    endloop
  endfacet
  facet normal 0 -1 0
    outer loop
      vertex 165.3305 2 3.125
      vertex 177.0305 2 11.85
      vertex 165.3305 2 11.85
    endloop
  endfacet
  facet normal 1 0 0
    outer loop
      vertex 177.0305 2 3.125
      vertex 177.0305 8.3 3.125
      vertex 177.0305 8.3 11.85
    endloop
  endfacet
  facet normal 1 0 0
    outer loop
      vertex 177.0305 2 3.125
      vertex 177.0305 8.3 11.85
      vertex 177.0305 2 11.85
    endloop
  endfacet
  facet normal 0 -1 0
    outer loop
      vertex 177.0305 8.3 3.125
      vertex 183.3305 8.3 3.125
      vertex 183.3305 8.3 11.85
    endloop
  endfacet
  facet normal 0 -1 0
    outer loop
      vertex 177.0305 8.3 3.125
      vertex 183.3305 8.3 11.85
      vertex 177.0305 8.3 11.85
    endloop
  endfacet
  facet normal 1 0 0
    outer loop
      vertex 183.3305 8.3 3.125
      vertex 183.3305 20 3.125
      vertex 183.3305 20 11.85
    endloop
  endfacet
  facet normal 1 0 0
    outer loop
      vertex 183.3305 8.3 3.125
      vertex 183.3305 20 11.85
      vertex 183.3305 8.3 11.85
    endloop
  endfacet
  facet normal 0 1 0
    outer loop
      vertex 183.3305 20 3.125
      vertex 165.3305 20 3.125
      vertex 165.3305 20 11.85
    endloop
  endfacet
  facet normal 0 1 -0
    outer loop
      vertex 183.3305 20 3.125
      vertex 165.3305 20 11.85
      vertex 183.3305 20 11.85
    endloop
  endfacet
  facet normal -1 0 0
    outer loop
      vertex 165.3305 20 3.125
      vertex 165.3305 2 3.125
      vertex 165.3305 2 11.85
    endloop
  endfacet
  facet normal -1 0 0
    outer loop
      vertex 165.3305 20 3.125
      vertex 165.3305 2 11.85
      vertex 165.3305 20 11.85
    endloop
  endfacet
  facet normal 0 0 1
    outer loop
      vertex 8.3 8.3 5.925
      vertex 8.3 2 5.925
      vertex 20 2 5.925
    endloop
  endfacet
  facet normal 0 0 -1
    outer loop
      vertex 20 2 3.125
      vertex 8.3 2 3.125
      vertex 8.3 8.3 3.125
    endloop
  endfacet
  facet normal -0 0 1
    outer loop
      vertex 8.3 8.3 5.925
      vertex 20 2 5.925
      vertex 20 20 5.925
    endloop
  endfacet
  facet normal 0 -0 -1
    outer loop
      vertex 20 20 3.125
      vertex 20 2 3.125
      vertex 8.3 8.3 3.125
    endloop
  endfacet
  facet normal 0 -0 1
    outer loop
      vertex 8.3 8.3 5.925
      vertex 20 20 5.925
      vertex 2 20 5.925
    endloop
  endfacet
  facet normal 0 0 -1
    outer loop
      vertex 2 20 3.125
      vertex 20 20 3.125
      vertex 8.3 8.3 3.125
    endloop
  endfacet
  facet normal 0 0 1
    outer loop
      vertex 2 20 5.925
      vertex 2 8.3 5.925
      vertex 8.3 8.3 5.925
    endloop
  endfacet
  facet normal 0 0 -1
    outer loop
      vertex 8.3 8.3 3.125
      vertex 2 8.3 3.125
      vertex 2 20 3.125
    endloop
  endfacet
  facet normal 0 -1 0
    outer loop
      vertex 8.3 2 3.125
      vertex 20 2 3.125
      vertex 20 2 5.925
    endloop
  endfacet
  facet normal 0 -1 0
    outer loop
      vertex 8.3 2 3.125
      vertex 20 2 5.925
      vertex 8.3 2 5.925
    endloop
  endfacet
  facet normal 1 0 0
    outer loop
      vertex 20 2 3.125
      vertex 20 20 3.125
      vertex 20 20 5.925
    endloop
  endfacet
  facet normal 1 0 0
    outer loop
      vertex 20 2 3.125
      vertex 20 20 5.925
      vertex 20 2 5.925
    endloop
  endfacet
  facet normal 0 1 0
    outer loop
      vertex 20 20 3.125
      vertex 2 20 3.125
      vertex 2 20 5.925
    endloop
  endfacet
  facet normal 0 1 -0
    outer loop
      vertex 20 20 3.125
      vertex 2 20 5.925
      vertex 20 20 5.925
    endloop
  endfacet
  facet normal -1 0 0
    outer loop
      vertex 2 20 3.125
      vertex 2 8.3 3.125
      vertex 2 8.3 5.925
    endloop
  endfacet
  facet normal -1 0 0
    outer loop
      vertex 2 20 3.125
      vertex 2 8.3 5.925
      vertex 2 20 5.925
    endloop
  endfacet
  facet normal 0 -1 0
    outer loop
      vertex 2 8.3 3.125
      vertex 8.3 8.3 3.125
      vertex 8.3 8.3 5.925
    endloop
  endfacet
  facet normal 0 -1 0
    outer loop
      vertex 2 8.3 3.125
      vertex 8.3 8.3 5.925
      vertex 2 8.3 5.925
    endloop
  endfacet
  facet normal -1 0 0
    outer loop
      vertex 8.3 8.3 3.125
      vertex 8.3 2 3.125
      vertex 8.3 2 5.925
    endloop
  endfacet
  facet normal -1 0 0
    outer loop
      vertex 8.3 8.3 3.125
      vertex 8.3 2 5.925
      vertex 8.3 8.3 5.925
    endloop
  endfacet
  facet normal 0 0 1
    outer loop
      vertex 2 177.0305 11.85
      vertex 2 165.3305 11.85
      vertex 20 165.3305 11.85
    endloop
  endfacet
  facet normal 0 0 -1
    outer loop
      vertex 20 165.3305 3.125
      vertex 2 165.3305 3.125
      vertex 2 177.0305 3.125
    endloop
  endfacet
  facet normal 0 -0 1
    outer loop
      vertex 20 165.3305 11.85
      vertex 20 183.3305 11.85
      vertex 8.3 183.3305 11.85
    endloop
  endfacet
  facet normal 0 0 -1
    outer loop
      vertex 8.3 183.3305 3.125
      vertex 20 183.3305 3.125
      vertex 20 165.3305 3.125
    endloop
  endfacet
  facet normal 0 0 1
    outer loop
      vertex 20 165.3305 11.85
      vertex 8.3 183.3305 11.85
      vertex 8.3 177.0305 11.85
    endloop
  endfacet
  facet normal 0 0 -1
    outer loop
      vertex 8.3 177.0305 3.125
      vertex 8.3 183.3305 3.125
      vertex 20 165.3305 3.125
    endloop
  endfacet
  facet normal 0 0 1
    outer loop
      vertex 20 165.3305 11.85
      vertex 8.3 177.0305 11.85
      vertex 2 177.0305 11.85
    endloop
  endfacet
  facet normal 0 0 -1
    outer loop
      vertex 2 177.0305 3.125
      vertex 8.3 177.0305 3.125
      vertex 20 165.3305 3.125
    endloop
  endfacet
  facet normal 0 -1 0
    outer loop
      vertex 2 165.3305 3.125
      vertex 20 165.3305 3.125
      vertex 20 165.3305 11.85
    endloop
  endfacet
  facet normal 0 -1 0
    outer loop
      vertex 2 165.3305 3.125
      vertex 20 165.3305 11.85
      vertex 2 165.3305 11.85
    endloop
  endfacet
  facet normal 1 0 0
    outer loop
      vertex 20 165.3305 3.125
      vertex 20 183.3305 3.125
      vertex 20 183.3305 11.85
    endloop
  endfacet
  facet normal 1 0 0
    outer loop
      vertex 20 165.3305 3.125
      vertex 20 183.3305 11.85
      vertex 20 165.3305 11.85
    endloop
  endfacet
  facet normal 0 1 0
    outer loop
      vertex 20 183.3305 3.125
      vertex 8.3 183.3305 3.125
      vertex 8.3 183.3305 11.85
    endloop
  endfacet
  facet normal 0 1 -0
    outer loop
      vertex 20 183.3305 3.125
      vertex 8.3 183.3305 11.85
      vertex 20 183.3305 11.85
    endloop
  endfacet
  facet normal -1 0 0
    outer loop
      vertex 8.3 183.3305 3.125
      vertex 8.3 177.0305 3.125
      vertex 8.3 177.0305 11.85
    endloop
  endfacet
  facet normal -1 0 0
    outer loop
      vertex 8.3 183.3305 3.125
      vertex 8.3 177.0305 11.85
      vertex 8.3 183.3305 11.85
    endloop
  endfacet
  facet normal 0 1 0
    outer loop
      vertex 8.3 177.0305 3.125
      vertex 2 177.0305 3.125
      vertex 2 177.0305 11.85
    endloop
  endfacet
  facet normal 0 1 -0
    outer loop
      vertex 8.3 177.0305 3.125
      vertex 2 177.0305 11.85
      vertex 8.3 177.0305 11.85
    endloop
  endfacet
  facet normal -1 0 0
    outer loop
      vertex 2 177.0305 3.125
      vertex 2 165.3305 3.125
      vertex 2 165.3305 11.85
    endloop
  endfacet
  facet normal -1 0 0
    outer loop
      vertex 2 177.0305 3.125
      vertex 2 165.3305 11.85
      vertex 2 177.0305 11.85
    endloop
  endfacet
endsolid temporary_switchback_ramp_layer_10
