solid temporary_switchback_ramp_layer_16
  facet normal 0 0 1
    outer loop
      vertex 2 8.65 3.125
      vertex 8.65 8.65 3.125
      vertex 8.65 19.65 3.125
    endloop
  endfacet
  facet normal 0 0 1
    outer loop
      vertex 2 8.65 3.125
      vertex 8.65 19.65 3.125
      vertex 2 19.65 3.125
    endloop
  endfacet
  facet normal 0 0 -1
    outer loop
      vertex 2 19.65 0
      vertex 8.65 19.65 0
      vertex 8.65 8.65 0
    endloop
  endfacet
  facet normal 0 0 -1
    outer loop
      vertex 2 19.65 0
      vertex 8.65 8.65 0
      vertex 2 8.65 0
    endloop
  endfacet
  facet normal 0 -1 0
    outer loop
      vertex 2 8.65 0
      vertex 8.65 8.65 0
      vertex 8.65 8.65 3.125
    endloop
  endfacet
  facet normal 0 -1 0
    outer loop
      vertex 2 8.65 0
      vertex 8.65 8.65 3.125
      vertex 2 8.65 3.125
    endloop
  endfacet
  facet normal -1 0 0
    outer loop
      vertex 2 19.65 0
      vertex 2 8.65 0
      vertex 2 8.65 3.125
    endloop
  endfacet
  facet normal -1 0 0
    outer loop
      vertex 2 19.65 0
      vertex 2 8.65 3.125
      vertex 2 19.65 3.125
    endloop
  endfacet
  facet normal 0 0 1
    outer loop
      vertex 2 19.65 3.125
      vertex 8.65 19.65 3.125
      vertex 8.65 109.8062 3.125
    endloop
  endfacet
  facet normal 0 0 1
    outer loop
      vertex 2 19.65 3.125
      vertex 8.65 109.8062 3.125
      vertex 2 109.8062 3.125
    endloop
  endfacet
  facet normal 0 0 -1
    outer loop
      vertex 2 109.8062 0
      vertex 8.65 109.8062 0
      vertex 8.65 19.65 0
    endloop
  endfacet
  facet normal 0 0 -1
    outer loop
      vertex 2 109.8062 0
      vertex 8.65 19.65 0
      vertex 2 19.65 0
    endloop
  endfacet
  facet normal -1 0 0
    outer loop
      vertex 2 109.8062 0
      vertex 2 19.65 0
      vertex 2 19.65 3.125
    endloop
  endfacet
  facet normal -1 0 0
    outer loop
      vertex 2 109.8062 0
      vertex 2 19.65 3.125
      vertex 2 109.8062 3.125
    endloop
  endfacet
  facet normal 0 0 1
    outer loop
      vertex 2 109.8062 3.125
      vertex 8.65 109.8062 3.125
      vertex 8.65 120.8062 3.125
    endloop
  endfacet
  facet normal 0 0 1
    outer loop
      vertex 2 109.8062 3.125
      vertex 8.65 120.8062 3.125
      vertex 2 120.8062 3.125
    endloop
  endfacet
  facet normal 0 0 -1
    outer loop
      vertex 2 120.8062 0
      vertex 8.65 120.8062 0
      vertex 8.65 109.8062 0
    endloop
  endfacet
  facet normal 0 0 -1
    outer loop
      vertex 2 120.8062 0
      vertex 8.65 109.8062 0
      vertex 2 109.8062 0
    endloop
  endfacet
  facet normal 0 1 0
    outer loop
      vertex 8.65 120.8062 0
      vertex 2 120.8062 0
      vertex 2 120.8062 3.125
    endloop
  endfacet
  facet normal 0 1 -0
    outer loop
      vertex 8.65 120.8062 0
      vertex 2 120.8062 3.125
      vertex 8.65 120.8062 3.125
    endloop
  endfacet
  facet normal -1 0 0
    outer loop
      vertex 2 120.8062 0
      vertex 2 109.8062 0
      vertex 2 109.8062 3.125
    endloop
  endfacet
  facet normal -1 0 0
    outer loop
      vertex 2 120.8062 0
      vertex 2 109.8062 3.125
      vertex 2 120.8062 3.125
    endloop
  endfacet
  facet normal 0 0 1
    outer loop
      vertex 8.65 2 3.125
      vertex 19.65 2 3.125
      vertex 19.65 8.65 3.125
    endloop
  endfacet
  facet normal 0 0 1
    outer loop
      vertex 8.65 2 3.125
      vertex 19.65 8.65 3.125
      vertex 8.65 8.65 3.125
    endloop
  endfacet
  facet normal 0 0 -1
    outer loop
      vertex 8.65 8.65 0
      vertex 19.65 8.65 0
      vertex 19.65 2 0
    endloop
  endfacet
  facet normal 0 0 -1
    outer loop
      vertex 8.65 8.65 0
      vertex 19.65 2 0
      vertex 8.65 2 0
    endloop
  endfacet
  facet normal 0 -1 0
    outer loop
      vertex 8.65 2 0
      vertex 19.65 2 0
      vertex 19.65 2 3.125
    endloop
  endfacet
  facet normal 0 -1 0
    outer loop
      vertex 8.65 2 0
      vertex 19.65 2 3.125
      vertex 8.65 2 3.125
    endloop
  endfacet
  facet normal -1 0 0
    outer loop
      vertex 8.65 8.65 0
      vertex 8.65 2 0
      vertex 8.65 2 3.125
    endloop
  endfacet
  facet normal -1 0 0
    outer loop
      vertex 8.65 8.65 0
      vertex 8.65 2 3.125
      vertex 8.65 8.65 3.125
    endloop
  endfacet
  facet normal 0 0 1
    outer loop
      vertex 8.65 8.65 3.125
      vertex 19.65 8.65 3.125
      vertex 19.65 19.65 3.125
    endloop
  endfacet
  facet normal 0 0 1
    outer loop
      vertex 8.65 8.65 3.125
      vertex 19.65 19.65 3.125
      vertex 8.65 19.65 3.125
    endloop
  endfacet
  facet normal 0 0 -1
    outer loop
      vertex 8.65 19.65 0
      vertex 19.65 19.65 0
      vertex 19.65 8.65 0
    endloop
  endfacet
  facet normal 0 0 -1
    outer loop
      vertex 8.65 19.65 0
      vertex 19.65 8.65 0
      vertex 8.65 8.65 0
    endloop
  endfacet
  facet normal 0 0 1
    outer loop
      vertex 8.65 19.65 3.125
      vertex 19.65 19.65 3.125
      vertex 19.65 109.8062 3.125
    endloop
  endfacet
  facet normal 0 0 1
    outer loop
      vertex 8.65 19.65 3.125
      vertex 19.65 109.8062 3.125
      vertex 8.65 109.8062 3.125
    endloop
  endfacet
  facet normal 0 0 -1
    outer loop
      vertex 8.65 109.8062 0
      vertex 19.65 109.8062 0
      vertex 19.65 19.65 0
    endloop
  endfacet
  facet normal 0 0 -1
    outer loop
      vertex 8.65 109.8062 0
      vertex 19.65 19.65 0
      vertex 8.65 19.65 0
    endloop
  endfacet
  facet normal 1 0 0
    outer loop
      vertex 19.65 19.65 0
      vertex 19.65 109.8062 0
      vertex 19.65 109.8062 3.125
    endloop
  endfacet
  facet normal 1 0 0
    outer loop
      vertex 19.65 19.65 0
      vertex 19.65 109.8062 3.125
      vertex 19.65 19.65 3.125
    endloop
  endfacet
  facet normal 0 0 1
    outer loop
      vertex 8.65 109.8062 3.125
      vertex 19.65 109.8062 3.125
      vertex 19.65 120.8062 3.125
    endloop
  endfacet
  facet normal 0 0 1
    outer loop
      vertex 8.65 109.8062 3.125
      vertex 19.65 120.8062 3.125
      vertex 8.65 120.8062 3.125
    endloop
  endfacet
  facet normal 0 0 -1
    outer loop
      vertex 8.65 120.8062 0
      vertex 19.65 120.8062 0
      vertex 19.65 109.8062 0
    endloop
  endfacet
  facet normal 0 0 -1
    outer loop
      vertex 8.65 120.8062 0
      vertex 19.65 109.8062 0
      vertex 8.65 109.8062 0
    endloop
  endfacet
  facet normal 0 0 1
    outer loop
      vertex 8.65 120.8062 3.125
      vertex 19.65 120.8062 3.125
      vertex 19.65 127.4562 3.125
    endloop
  endfacet
  facet normal 0 0 1
    outer loop
      vertex 8.65 120.8062 3.125
      vertex 19.65 127.4562 3.125
      vertex 8.65 127.4562 3.125
    endloop
  endfacet
  facet normal 0 0 -1
    outer loop
      vertex 8.65 127.4562 0
      vertex 19.65 127.4562 0
      vertex 19.65 120.8062 0
    endloop
  endfacet
  facet normal 0 0 -1
    outer loop
      vertex 8.65 127.4562 0
      vertex 19.65 120.8062 0
      vertex 8.65 120.8062 0
    endloop
  endfacet
  facet normal 0 1 0
    outer loop
      vertex 19.65 127.4562 0
      vertex 8.65 127.4562 0
      vertex 8.65 127.4562 3.125
    endloop
  endfacet
  facet normal 0 1 -0
    outer loop
      vertex 19.65 127.4562 0
      vertex 8.65 127.4562 3.125
      vertex 19.65 127.4562 3.125
    endloop
  endfacet
  facet normal -1 0 0
    outer loop
      vertex 8.65 127.4562 0
      vertex 8.65 120.8062 0
      vertex 8.65 120.8062 3.125
    endloop
  endfacet
  facet normal -1 0 0
    outer loop
      vertex 8.65 127.4562 0
      vertex 8.65 120.8062 3.125
      vertex 8.65 127.4562 3.125
    endloop
  endfacet
  facet normal 0 0 1
    outer loop
      vertex 19.65 2 3.125
      vertex 109.8062 2 3.125
      vertex 109.8062 8.65 3.125
    endloop
  endfacet
  facet normal 0 0 1
    outer loop
      vertex 19.65 2 3.125
      vertex 109.8062 8.65 3.125
      vertex 19.65 8.65 3.125
    endloop
  endfacet
  facet normal 0 0 -1
    outer loop
      vertex 19.65 8.65 0
      vertex 109.8062 8.65 0
      vertex 109.8062 2 0
    endloop
  endfacet
  facet normal 0 0 -1
    outer loop
      vertex 19.65 8.65 0
      vertex 109.8062 2 0
      vertex 19.65 2 0
    endloop
  endfacet
  facet normal 0 -1 0
    outer loop
      vertex 19.65 2 0
      vertex 109.8062 2 0
      vertex 109.8062 2 3.125
    endloop
  endfacet
  facet normal 0 -1 0
    outer loop
      vertex 19.65 2 0
      vertex 109.8062 2 3.125
      vertex 19.65 2 3.125
    endloop
  endfacet
  facet normal 0 0 1
    outer loop
      vertex 19.65 8.65 3.125
      vertex 109.8062 8.65 3.125
      vertex 109.8062 19.65 3.125
    endloop
  endfacet
  facet normal 0 0 1
    outer loop
      vertex 19.65 8.65 3.125
      vertex 109.8062 19.65 3.125
      vertex 19.65 19.65 3.125
    endloop
  endfacet
  facet normal 0 0 -1
    outer loop
      vertex 19.65 19.65 0
      vertex 109.8062 19.65 0
      vertex 109.8062 8.65 0
    endloop
  endfacet
  facet normal 0 0 -1
    outer loop
      vertex 19.65 19.65 0
      vertex 109.8062 8.65 0
      vertex 19.65 8.65 0
    endloop
  endfacet
  facet normal 0 1 0
    outer loop
      vertex 109.8062 19.65 0
      vertex 19.65 19.65 0
      vertex 19.65 19.65 3.125
    endloop
  endfacet
  facet normal 0 1 -0
    outer loop
      vertex 109.8062 19.65 0
      vertex 19.65 19.65 3.125
      vertex 109.8062 19.65 3.125
    endloop
  endfacet
  facet normal 0 0 1
    outer loop
      vertex 19.65 109.8062 3.125
      vertex 109.8062 109.8062 3.125
      vertex 109.8062 120.8062 3.125
    endloop
  endfacet
  facet normal 0 0 1
    outer loop
      vertex 19.65 109.8062 3.125
      vertex 109.8062 120.8062 3.125
      vertex 19.65 120.8062 3.125
    endloop
  endfacet
  facet normal 0 0 -1
    outer loop
      vertex 19.65 120.8062 0
      vertex 109.8062 120.8062 0
      vertex 109.8062 109.8062 0
    endloop
  endfacet
  facet normal 0 0 -1
    outer loop
      vertex 19.65 120.8062 0
      vertex 109.8062 109.8062 0
      vertex 19.65 109.8062 0
    endloop
  endfacet
  facet normal 0 -1 0
    outer loop
      vertex 19.65 109.8062 0
      vertex 109.8062 109.8062 0
      vertex 109.8062 109.8062 3.125
    endloop
  endfacet
  facet normal 0 -1 0
    outer loop
      vertex 19.65 109.8062 0
      vertex 109.8062 109.8062 3.125
      vertex 19.65 109.8062 3.125
    endloop
  endfacet
  facet normal 0 0 1
    outer loop
      vertex 19.65 120.8062 3.125
      vertex 109.8062 120.8062 3.125
      vertex 109.8062 127.4562 3.125
    endloop
  endfacet
  facet normal 0 0 1
    outer loop
      vertex 19.65 120.8062 3.125
      vertex 109.8062 127.4562 3.125
      vertex 19.65 127.4562 3.125
    endloop
  endfacet
  facet normal 0 0 -1
    outer loop
      vertex 19.65 127.4562 0
      vertex 109.8062 127.4562 0
      vertex 109.8062 120.8062 0
    endloop
  endfacet
  facet normal 0 0 -1
    outer loop
      vertex 19.65 127.4562 0
      vertex 109.8062 120.8062 0
      vertex 19.65 120.8062 0
    endloop
  endfacet
  facet normal 0 1 0
    outer loop
      vertex 109.8062 127.4562 0
      vertex 19.65 127.4562 0
      vertex 19.65 127.4562 3.125
    endloop
  endfacet
  facet normal 0 1 -0
    outer loop
      vertex 109.8062 127.4562 0
      vertex 19.65 127.4562 3.125
      vertex 109.8062 127.4562 3.125
    endloop
  endfacet
  facet normal 0 0 1
    outer loop
      vertex 109.8062 2 3.125
      vertex 120.8062 2 3.125
      vertex 120.8062 8.65 3.125
    endloop
  endfacet
  facet normal 0 0 1
    outer loop
      vertex 109.8062 2 3.125
      vertex 120.8062 8.65 3.125
      vertex 109.8062 8.65 3.125
    endloop
  endfacet
  facet normal 0 0 -1
    outer loop
      vertex 109.8062 8.65 0
      vertex 120.8062 8.65 0
      vertex 120.8062 2 0
    endloop
  endfacet
  facet normal 0 0 -1
    outer loop
      vertex 109.8062 8.65 0
      vertex 120.8062 2 0
      vertex 109.8062 2 0
    endloop
  endfacet
  facet normal 0 -1 0
    outer loop
      vertex 109.8062 2 0
      vertex 120.8062 2 0
      vertex 120.8062 2 3.125
    endloop
  endfacet
  facet normal 0 -1 0
    outer loop
      vertex 109.8062 2 0
      vertex 120.8062 2 3.125
      vertex 109.8062 2 3.125
    endloop
  endfacet
  facet normal 1 0 0
    outer loop
      vertex 120.8062 2 0
      vertex 120.8062 8.65 0
      vertex 120.8062 8.65 3.125
    endloop
  endfacet
  facet normal 1 0 0
    outer loop
      vertex 120.8062 2 0
      vertex 120.8062 8.65 3.125
      vertex 120.8062 2 3.125
    endloop
  endfacet
  facet normal 0 0 1
    outer loop
      vertex 109.8062 8.65 3.125
      vertex 120.8062 8.65 3.125
      vertex 120.8062 19.65 3.125
    endloop
  endfacet
  facet normal 0 0 1
    outer loop
      vertex 109.8062 8.65 3.125
      vertex 120.8062 19.65 3.125
      vertex 109.8062 19.65 3.125
    endloop
  endfacet
  facet normal 0 0 -1
    outer loop
      vertex 109.8062 19.65 0
      vertex 120.8062 19.65 0
      vertex 120.8062 8.65 0
    endloop
  endfacet
  facet normal 0 0 -1
    outer loop
      vertex 109.8062 19.65 0
      vertex 120.8062 8.65 0
      vertex 109.8062 8.65 0
    endloop
  endfacet
  facet normal 0 0 1
    outer loop
      vertex 109.8062 19.65 3.125
      vertex 120.8062 19.65 3.125
      vertex 120.8062 109.8062 3.125
    endloop
  endfacet
  facet normal 0 0 1
    outer loop
      vertex 109.8062 19.65 3.125
      vertex 120.8062 109.8062 3.125
      vertex 109.8062 109.8062 3.125
    endloop
  endfacet
  facet normal 0 0 -1
    outer loop
      vertex 109.8062 109.8062 0
      vertex 120.8062 109.8062 0
      vertex 120.8062 19.65 0
    endloop
  endfacet
  facet normal 0 0 -1
    outer loop
      vertex 109.8062 109.8062 0
      vertex 120.8062 19.65 0
      vertex 109.8062 19.65 0
    endloop
  endfacet
  facet normal -1 0 0
    outer loop
      vertex 109.8062 109.8062 0
      vertex 109.8062 19.65 0
      vertex 109.8062 19.65 3.125
    endloop
  endfacet
  facet normal -1 0 0
    outer loop
      vertex 109.8062 109.8062 0
      vertex 109.8062 19.65 3.125
      vertex 109.8062 109.8062 3.125
    endloop
  endfacet
  facet normal 0 0 1
    outer loop
      vertex 109.8062 109.8062 3.125
      vertex 120.8062 109.8062 3.125
      vertex 120.8062 120.8062 3.125
    endloop
  endfacet
  facet normal 0 0 1
    outer loop
      vertex 109.8062 109.8062 3.125
      vertex 120.8062 120.8062 3.125
      vertex 109.8062 120.8062 3.125
    endloop
  endfacet
  facet normal 0 0 -1
    outer loop
      vertex 109.8062 120.8062 0
      vertex 120.8062 120.8062 0
      vertex 120.8062 109.8062 0
    endloop
  endfacet
  facet normal 0 0 -1
    outer loop
      vertex 109.8062 120.8062 0
      vertex 120.8062 109.8062 0
      vertex 109.8062 109.8062 0
    endloop
  endfacet
  facet normal 0 0 1
    outer loop
      vertex 109.8062 120.8062 3.125
      vertex 120.8062 120.8062 3.125
      vertex 120.8062 127.4562 3.125
    endloop
  endfacet
  facet normal 0 0 1
    outer loop
      vertex 109.8062 120.8062 3.125
      vertex 120.8062 127.4562 3.125
      vertex 109.8062 127.4562 3.125
    endloop
  endfacet
  facet normal 0 0 -1
    outer loop
      vertex 109.8062 127.4562 0
      vertex 120.8062 127.4562 0
      vertex 120.8062 120.8062 0
    endloop
  endfacet
  facet normal 0 0 -1
    outer loop
      vertex 109.8062 127.4562 0
      vertex 120.8062 120.8062 0
      vertex 109.8062 120.8062 0
    endloop
  endfacet
  facet normal 1 0 0
    outer loop
      vertex 120.8062 120.8062 0
      vertex 120.8062 127.4562 0
      vertex 120.8062 127.4562 3.125
    endloop
  endfacet
  facet normal 1 0 0
    outer loop
      vertex 120.8062 120.8062 0
      vertex 120.8062 127.4562 3.125
      vertex 120.8062 120.8062 3.125
    endloop
  endfacet
  facet normal 0 1 0
    outer loop
      vertex 120.8062 127.4562 0
      vertex 109.8062 127.4562 0
      vertex 109.8062 127.4562 3.125
    endloop
  endfacet
  facet normal 0 1 -0
    outer loop
      vertex 120.8062 127.4562 0
      vertex 109.8062 127.4562 3.125
      vertex 120.8062 127.4562 3.125
    endloop
  endfacet
  facet normal 0 0 1
    outer loop
      vertex 120.8062 8.65 3.125
      vertex 127.4562 8.65 3.125
      vertex 127.4562 19.65 3.125
    endloop
  endfacet
  facet normal 0 0 1
    outer loop
      vertex 120.8062 8.65 3.125
      vertex 127.4562 19.65 3.125
      vertex 120.8062 19.65 3.125
    endloop
  endfacet
  facet normal 0 0 -1
    outer loop
      vertex 120.8062 19.65 0
      vertex 127.4562 19.65 0
      vertex 127.4562 8.65 0
    endloop
  endfacet
  facet normal 0 0 -1
    outer loop
      vertex 120.8062 19.65 0
      vertex 127.4562 8.65 0
      vertex 120.8062 8.65 0
    endloop
  endfacet
  facet normal 0 -1 0
    outer loop
      vertex 120.8062 8.65 0
      vertex 127.4562 8.65 0
      vertex 127.4562 8.65 3.125
    endloop
  endfacet
  facet normal 0 -1 0
    outer loop
      vertex 120.8062 8.65 0
      vertex 127.4562 8.65 3.125
      vertex 120.8062 8.65 3.125
    endloop
  endfacet
  facet normal 1 0 0
    outer loop
      vertex 127.4562 8.65 0
      vertex 127.4562 19.65 0
      vertex 127.4562 19.65 3.125
    endloop
  endfacet
  facet normal 1 0 0
    outer loop
      vertex 127.4562 8.65 0
      vertex 127.4562 19.65 3.125
      vertex 127.4562 8.65 3.125
    endloop
  endfacet
  facet normal 0 0 1
    outer loop
      vertex 120.8062 19.65 3.125
      vertex 127.4562 19.65 3.125
      vertex 127.4562 109.8062 3.125
    endloop
  endfacet
  facet normal 0 0 1
    outer loop
      vertex 120.8062 19.65 3.125
      vertex 127.4562 109.8062 3.125
      vertex 120.8062 109.8062 3.125
    endloop
  endfacet
  facet normal 0 0 -1
    outer loop
      vertex 120.8062 109.8062 0
      vertex 127.4562 109.8062 0
      vertex 127.4562 19.65 0
    endloop
  endfacet
  facet normal 0 0 -1
    outer loop
      vertex 120.8062 109.8062 0
      vertex 127.4562 19.65 0
      vertex 120.8062 19.65 0
    endloop
  endfacet
  facet normal 1 0 0
    outer loop
      vertex 127.4562 19.65 0
      vertex 127.4562 109.8062 0
      vertex 127.4562 109.8062 3.125
    endloop
  endfacet
  facet normal 1 0 0
    outer loop
      vertex 127.4562 19.65 0
      vertex 127.4562 109.8062 3.125
      vertex 127.4562 19.65 3.125
    endloop
  endfacet
  facet normal 0 0 1
    outer loop
      vertex 120.8062 109.8062 3.125
      vertex 127.4562 109.8062 3.125
      vertex 127.4562 120.8062 3.125
    endloop
  endfacet
  facet normal 0 0 1
    outer loop
      vertex 120.8062 109.8062 3.125
      vertex 127.4562 120.8062 3.125
      vertex 120.8062 120.8062 3.125
    endloop
  endfacet
  facet normal 0 0 -1
    outer loop
      vertex 120.8062 120.8062 0
      vertex 127.4562 120.8062 0
      vertex 127.4562 109.8062 0
    endloop
  endfacet
  facet normal 0 0 -1
    outer loop
      vertex 120.8062 120.8062 0
      vertex 127.4562 109.8062 0
      vertex 120.8062 109.8062 0
    endloop
  endfacet
  facet normal 1 0 0
    outer loop
      vertex 127.4562 109.8062 0
      vertex 127.4562 120.8062 0
      vertex 127.4562 120.8062 3.125
    endloop
  endfacet
  facet normal 1 0 0
    outer loop
      vertex 127.4562 109.8062 0
      vertex 127.4562 120.8062 3.125
      vertex 127.4562 109.8062 3.125
    endloop
  endfacet
  facet normal 0 1 0
    outer loop
      vertex 127.4562 120.8062 0
      vertex 120.8062 120.8062 0
      vertex 120.8062 120.8062 3.125
    endloop
  endfacet
  facet normal 0 1 -0
    outer loop
      vertex 127.4562 120.8062 0
      vertex 120.8062 120.8062 3.125
      vertex 127.4562 120.8062 3.125
    endloop
  endfacet
  facet normal 0 0 -1
    outer loop
      vertex 109.4562 109.4562 3.125
      vertex 42.36405 109.4562 3.125
      vertex 42.36405 127.4562 3.125
    endloop
  endfacet
  facet normal 0 0 -1
    outer loop
      vertex 109.4562 109.4562 3.125
      vertex 42.36405 127.4562 3.125
      vertex 109.4562 127.4562 3.125
    endloop
  endfacet
  facet normal 0 0 -1
    outer loop
      vertex 42.36405 109.4562 3.125
      vertex 20 109.4562 3.125
      vertex 20 127.4562 3.125
    endloop
  endfacet
  facet normal 0 0 -1
    outer loop
      vertex 42.36405 109.4562 3.125
      vertex 20 127.4562 3.125
      vertex 42.36405 127.4562 3.125
    endloop
  endfacet
  facet normal 0.08796902 0 0.9961232
    outer loop
      vertex 109.4562 109.4562 5.925
      vertex 42.36405 127.4562 11.85
      vertex 42.36405 109.4562 11.85
    endloop
  endfacet
  facet normal 0.08796902 -0 0.9961232
    outer loop
      vertex 109.4562 109.4562 5.925
      vertex 109.4562 127.4562 5.925
      vertex 42.36405 127.4562 11.85
    endloop
  endfacet
  facet normal 0 0 1
    outer loop
      vertex 42.36405 109.4562 11.85
      vertex 20 127.4562 11.85
      vertex 20 109.4562 11.85
    endloop
  endfacet
  facet normal 0 -0 1
    outer loop
      vertex 42.36405 109.4562 11.85
      vertex 42.36405 127.4562 11.85
      vertex 20 127.4562 11.85
    endloop
  endfacet
  facet normal 0 -1 0
    outer loop
      vertex 109.4562 109.4562 3.125
      vertex 42.36405 109.4562 11.85
      vertex 42.36405 109.4562 3.125
    endloop
  endfacet
  facet normal 0 -1 0
    outer loop
      vertex 109.4562 109.4562 3.125
      vertex 109.4562 109.4562 5.925
      vertex 42.36405 109.4562 11.85
    endloop
  endfacet
  facet normal 0 -1 0
    outer loop
      vertex 42.36405 109.4562 3.125
      vertex 20 109.4562 11.85
      vertex 20 109.4562 3.125
    endloop
  endfacet
  facet normal 0 -1 0
    outer loop
      vertex 42.36405 109.4562 3.125
      vertex 42.36405 109.4562 11.85
      vertex 20 109.4562 11.85
    endloop
  endfacet
  facet normal 0 1 0
    outer loop
      vertex 109.4562 127.4562 3.125
      vertex 42.36405 127.4562 3.125
      vertex 42.36405 127.4562 11.85
    endloop
  endfacet
  facet normal 0 1 -0
    outer loop
      vertex 109.4562 127.4562 3.125
      vertex 42.36405 127.4562 11.85
      vertex 109.4562 127.4562 5.925
    endloop
  endfacet
  facet normal 0 1 0
    outer loop
      vertex 42.36405 127.4562 3.125
      vertex 20 127.4562 3.125
      vertex 20 127.4562 11.85
    endloop
  endfacet
  facet normal 0 1 -0
    outer loop
      vertex 42.36405 127.4562 3.125
      vertex 20 127.4562 11.85
      vertex 42.36405 127.4562 11.85
    endloop
  endfacet
  facet normal 1 0 0
    outer loop
      vertex 109.4562 127.4562 3.125
      vertex 109.4562 109.4562 5.925
      vertex 109.4562 109.4562 3.125
    endloop
  endfacet
  facet normal 1 0 -0
    outer loop
      vertex 109.4562 127.4562 3.125
      vertex 109.4562 127.4562 5.925
      vertex 109.4562 109.4562 5.925
    endloop
  endfacet
  facet normal -1 0 0
    outer loop
      vertex 20 109.4562 3.125
      vertex 20 127.4562 11.85
      vertex 20 127.4562 3.125
    endloop
  endfacet
  facet normal -1 0 0
    outer loop
      vertex 20 109.4562 3.125
      vertex 20 109.4562 11.85
      vertex 20 127.4562 11.85
    endloop
  endfacet
  facet normal 0 0 -1
    outer loop
      vertex 109.4562 109.4562 3.125
      vertex 127.4562 42.36405 3.125
      vertex 109.4562 42.36405 3.125
    endloop
  endfacet
  facet normal 0 0 -1
    outer loop
      vertex 109.4562 109.4562 3.125
      vertex 127.4562 109.4562 3.125
      vertex 127.4562 42.36405 3.125
    endloop
  endfacet
  facet normal 0 0 -1
    outer loop
      vertex 109.4562 42.36405 3.125
      vertex 127.4562 20 3.125
      vertex 109.4562 20 3.125
    endloop
  endfacet
  facet normal 0 0 -1
    outer loop
      vertex 109.4562 42.36405 3.125
      vertex 127.4562 42.36405 3.125
      vertex 127.4562 20 3.125
    endloop
  endfacet
  facet normal 0 0.08796902 0.9961232
    outer loop
      vertex 109.4562 109.4562 5.925
      vertex 109.4562 42.36405 11.85
      vertex 127.4562 42.36405 11.85
    endloop
  endfacet
  facet normal -0 0.08796902 0.9961232
    outer loop
      vertex 109.4562 109.4562 5.925
      vertex 127.4562 42.36405 11.85
      vertex 127.4562 109.4562 5.925
    endloop
  endfacet
  facet normal 0 0 1
    outer loop
      vertex 109.4562 42.36405 11.85
      vertex 109.4562 20 11.85
      vertex 127.4562 20 11.85
    endloop
  endfacet
  facet normal -0 0 1
    outer loop
      vertex 109.4562 42.36405 11.85
      vertex 127.4562 20 11.85
      vertex 127.4562 42.36405 11.85
    endloop
  endfacet
  facet normal -1 0 0
    outer loop
      vertex 109.4562 109.4562 3.125
      vertex 109.4562 42.36405 3.125
      vertex 109.4562 42.36405 11.85
    endloop
  endfacet
  facet normal -1 0 0
    outer loop
      vertex 109.4562 109.4562 3.125
      vertex 109.4562 42.36405 11.85
      vertex 109.4562 109.4562 5.925
    endloop
  endfacet
  facet normal -1 0 0
    outer loop
      vertex 109.4562 42.36405 3.125
      vertex 109.4562 20 3.125
      vertex 109.4562 20 11.85
    endloop
  endfacet
  facet normal -1 0 0
    outer loop
      vertex 109.4562 42.36405 3.125
      vertex 109.4562 20 11.85
      vertex 109.4562 42.36405 11.85
    endloop
  endfacet
  facet normal 1 0 0
    outer loop
      vertex 127.4562 109.4562 3.125
      vertex 127.4562 42.36405 11.85
      vertex 127.4562 42.36405 3.125
    endloop
  endfacet
  facet normal 1 0 -0
    outer loop
      vertex 127.4562 109.4562 3.125
      vertex 127.4562 109.4562 5.925
      vertex 127.4562 42.36405 11.85
    endloop
  endfacet
  facet normal 1 0 0
    outer loop
      vertex 127.4562 42.36405 3.125
      vertex 127.4562 20 11.85
      vertex 127.4562 20 3.125
    endloop
  endfacet
  facet normal 1 0 -0
    outer loop
      vertex 127.4562 42.36405 3.125
      vertex 127.4562 42.36405 11.85
      vertex 127.4562 20 11.85
    endloop
  endfacet
  facet normal 0 1 0
    outer loop
      vertex 127.4562 109.4562 3.125
      vertex 109.4562 109.4562 3.125
      vertex 109.4562 109.4562 5.925
    endloop
  endfacet
  facet normal 0 1 -0
    outer loop
      vertex 127.4562 109.4562 3.125
      vertex 109.4562 109.4562 5.925
      vertex 127.4562 109.4562 5.925
    endloop
  endfacet
  facet normal 0 -1 0
    outer loop
      vertex 109.4562 20 3.125
      vertex 127.4562 20 3.125
      vertex 127.4562 20 11.85
    endloop
  endfacet
  facet normal 0 -1 0
    outer loop
      vertex 109.4562 20 3.125
      vertex 127.4562 20 11.85
      vertex 109.4562 20 11.85
    endloop
  endfacet
  facet normal 0 0 -1
    outer loop
      vertex 20 20 3.125
      vertex 87.09214 20 3.125
      vertex 87.09214 2 3.125
    endloop
  endfacet
  facet normal 0 0 -1
    outer loop
      vertex 20 20 3.125
      vertex 87.09214 2 3.125
      vertex 20 2 3.125
    endloop
  endfacet
  facet normal 0 0 -1
    outer loop
      vertex 87.09214 20 3.125
      vertex 109.4562 20 3.125
      vertex 109.4562 2 3.125
    endloop
  endfacet
  facet normal 0 0 -1
    outer loop
      vertex 87.09214 20 3.125
      vertex 109.4562 2 3.125
      vertex 87.09214 2 3.125
    endloop
  endfacet
  facet normal -0.08796902 0 0.9961232
    outer loop
      vertex 20 20 5.925
      vertex 87.09214 2 11.85
      vertex 87.09214 20 11.85
    endloop
  endfacet
  facet normal -0.08796902 0 0.9961232
    outer loop
      vertex 20 20 5.925
      vertex 20 2 5.925
      vertex 87.09214 2 11.85
    endloop
  endfacet
  facet normal -0 0 1
    outer loop
      vertex 87.09214 20 11.85
      vertex 109.4562 2 11.85
      vertex 109.4562 20 11.85
    endloop
  endfacet
  facet normal 0 0 1
    outer loop
      vertex 87.09214 20 11.85
      vertex 87.09214 2 11.85
      vertex 109.4562 2 11.85
    endloop
  endfacet
  facet normal 0 1 0
    outer loop
      vertex 20 20 3.125
      vertex 87.09214 20 11.85
      vertex 87.09214 20 3.125
    endloop
  endfacet
  facet normal 0 1 0
    outer loop
      vertex 20 20 3.125
      vertex 20 20 5.925
      vertex 87.09214 20 11.85
    endloop
  endfacet
  facet normal 0 1 0
    outer loop
      vertex 87.09214 20 3.125
      vertex 109.4562 20 11.85
      vertex 109.4562 20 3.125
    endloop
  endfacet
  facet normal 0 1 0
    outer loop
      vertex 87.09214 20 3.125
      vertex 87.09214 20 11.85
      vertex 109.4562 20 11.85
    endloop
  endfacet
  facet normal 0 -1 0
    outer loop
      vertex 20 2 3.125
      vertex 87.09214 2 3.125
      vertex 87.09214 2 11.85
    endloop
  endfacet
  facet normal 0 -1 0
    outer loop
      vertex 20 2 3.125
      vertex 87.09214 2 11.85
      vertex 20 2 5.925
    endloop
  endfacet
  facet normal 0 -1 0
    outer loop
      vertex 87.09214 2 3.125
      vertex 109.4562 2 3.125
      vertex 109.4562 2 11.85
    endloop
  endfacet
  facet normal 0 -1 0
    outer loop
      vertex 87.09214 2 3.125
      vertex 109.4562 2 11.85
      vertex 87.09214 2 11.85
    endloop
  endfacet
  facet normal -1 0 0
    outer loop
      vertex 20 2 3.125
      vertex 20 20 5.925
      vertex 20 20 3.125
    endloop
  endfacet
  facet normal -1 0 0
    outer loop
      vertex 20 2 3.125
      vertex 20 2 5.925
      vertex 20 20 5.925
    endloop
  endfacet
  facet normal 1 0 0
    outer loop
      vertex 109.4562 20 3.125
      vertex 109.4562 2 11.85
      vertex 109.4562 2 3.125
    endloop
  endfacet
  facet normal 1 0 -0
    outer loop
      vertex 109.4562 20 3.125
      vertex 109.4562 20 11.85
      vertex 109.4562 2 11.85
    endloop
  endfacet
  facet normal 0 0 -1
    outer loop
      vertex 20 20 3.125
      vertex 2 87.09214 3.125
      vertex 20 87.09214 3.125
    endloop
  endfacet
  facet normal 0 0 -1
    outer loop
      vertex 20 20 3.125
      vertex 2 20 3.125
      vertex 2 87.09214 3.125
    endloop
  endfacet
  facet normal 0 0 -1
    outer loop
      vertex 20 87.09214 3.125
      vertex 2 109.4562 3.125
      vertex 20 109.4562 3.125
    endloop
  endfacet
  facet normal 0 0 -1
    outer loop
      vertex 20 87.09214 3.125
      vertex 2 87.09214 3.125
      vertex 2 109.4562 3.125
    endloop
  endfacet
  facet normal 0 -0.08796902 0.9961232
    outer loop
      vertex 20 20 5.925
      vertex 20 87.09214 11.85
      vertex 2 87.09214 11.85
    endloop
  endfacet
  facet normal 0 -0.08796902 0.9961232
    outer loop
      vertex 20 20 5.925
      vertex 2 87.09214 11.85
      vertex 2 20 5.925
    endloop
  endfacet
  facet normal 0 -0 1
    outer loop
      vertex 20 87.09214 11.85
      vertex 20 109.4562 11.85
      vertex 2 109.4562 11.85
    endloop
  endfacet
  facet normal 0 0 1
    outer loop
      vertex 20 87.09214 11.85
      vertex 2 109.4562 11.85
      vertex 2 87.09214 11.85
    endloop
  endfacet
  facet normal 1 0 0
    outer loop
      vertex 20 20 3.125
      vertex 20 87.09214 3.125
      vertex 20 87.09214 11.85
    endloop
  endfacet
  facet normal 1 0 0
    outer loop
      vertex 20 20 3.125
      vertex 20 87.09214 11.85
      vertex 20 20 5.925
    endloop
  endfacet
  facet normal 1 0 0
    outer loop
      vertex 20 87.09214 3.125
      vertex 20 109.4562 3.125
      vertex 20 109.4562 11.85
    endloop
  endfacet
  facet normal 1 0 0
    outer loop
      vertex 20 87.09214 3.125
      vertex 20 109.4562 11.85
      vertex 20 87.09214 11.85
    endloop
  endfacet
  facet normal -1 0 0
    outer loop
      vertex 2 20 3.125
      vertex 2 87.09214 11.85
      vertex 2 87.09214 3.125
    endloop
  endfacet
  facet normal -1 0 0
    outer loop
      vertex 2 20 3.125
      vertex 2 20 5.925
      vertex 2 87.09214 11.85
    endloop
  endfacet
  facet normal -1 0 0
    outer loop
      vertex 2 87.09214 3.125
      vertex 2 109.4562 11.85
      vertex 2 109.4562 3.125
    endloop
  endfacet
  facet normal -1 0 0
    outer loop
      vertex 2 87.09214 3.125
      vertex 2 87.09214 11.85
      vertex 2 109.4562 11.85
    endloop
  endfacet
  facet normal 0 -1 0
    outer loop
      vertex 2 20 3.125
      vertex 20 20 3.125
      vertex 20 20 5.925
    endloop
  endfacet
  facet normal 0 -1 0
    outer loop
      vertex 2 20 3.125
      vertex 20 20 5.925
      vertex 2 20 5.925
    endloop
  endfacet
  facet normal 0 1 0
    outer loop
      vertex 20 109.4562 3.125
      vertex 2 109.4562 3.125
      vertex 2 109.4562 11.85
    endloop
  endfacet
  facet normal 0 1 -0
    outer loop
      vertex 20 109.4562 3.125
      vertex 2 109.4562 11.85
      vertex 20 109.4562 11.85
    endloop
  endfacet
  facet normal 0 0 1
    outer loop
      vertex 109.4562 127.4562 5.925
      vertex 109.4562 109.4562 5.925
      vertex 127.4562 109.4562 5.925
    endloop
  endfacet
  facet normal 0 0 -1
    outer loop
      vertex 127.4562 109.4562 3.125
      vertex 109.4562 109.4562 3.125
      vertex 109.4562 127.4562 3.125
    endloop
  endfacet
  facet normal 0 -0 1
    outer loop
      vertex 127.4562 109.4562 5.925
      vertex 127.4562 121.1562 5.925
      vertex 121.1562 121.1562 5.925
    endloop
  endfacet
  facet normal 0 0 -1
    outer loop
      vertex 121.1562 121.1562 3.125
      vertex 127.4562 121.1562 3.125
      vertex 127.4562 109.4562 3.125
    endloop
  endfacet
  facet normal 0 0 1
    outer loop
      vertex 109.4562 127.4562 5.925
      vertex 127.4562 109.4562 5.925
      vertex 121.1562 121.1562 5.925
    endloop
  endfacet
  facet normal -0 -0 -1
    outer loop
      vertex 121.1562 121.1562 3.125
      vertex 127.4562 109.4562 3.125
      vertex 109.4562 127.4562 3.125
    endloop
  endfacet
  facet normal 0 -0 1
    outer loop
      vertex 121.1562 121.1562 5.925
      vertex 121.1562 127.4562 5.925
      vertex 109.4562 127.4562 5.925
    endloop
  endfacet
  facet normal 0 0 -1
    outer loop
      vertex 109.4562 127.4562 3.125
      vertex 121.1562 127.4562 3.125
      vertex 121.1562 121.1562 3.125
    endloop
  endfacet
  facet normal 0 -1 0
    outer loop
      vertex 109.4562 109.4562 3.125
      vertex 127.4562 109.4562 3.125
      vertex 127.4562 109.4562 5.925
    endloop
  endfacet
  facet normal 0 -1 0
    outer loop
      vertex 109.4562 109.4562 3.125
      vertex 127.4562 109.4562 5.925
      vertex 109.4562 109.4562 5.925
    endloop
  endfacet
  facet normal 1 0 0
    outer loop
      vertex 127.4562 109.4562 3.125
      vertex 127.4562 121.1562 3.125
      vertex 127.4562 121.1562 5.925
    endloop
  endfacet
  facet normal 1 0 0
    outer loop
      vertex 127.4562 109.4562 3.125
      vertex 127.4562 121.1562 5.925
      vertex 127.4562 109.4562 5.925
    endloop
  endfacet
  facet normal 0 1 0
    outer loop
      vertex 127.4562 121.1562 3.125
      vertex 121.1562 121.1562 3.125
      vertex 121.1562 121.1562 5.925
    endloop
  endfacet
  facet normal 0 1 -0
    outer loop
      vertex 127.4562 121.1562 3.125
      vertex 121.1562 121.1562 5.925
      vertex 127.4562 121.1562 5.925
    endloop
  endfacet
  facet normal 1 0 0
    outer loop
      vertex 121.1562 121.1562 3.125
      vertex 121.1562 127.4562 3.125
      vertex 121.1562 127.4562 5.925
    endloop
  endfacet
  facet normal 1 0 0
    outer loop
      vertex 121.1562 121.1562 3.125
      vertex 121.1562 127.4562 5.925
      vertex 121.1562 121.1562 5.925
    endloop
  endfacet
  facet normal 0 1 0
    outer loop
      vertex 121.1562 127.4562 3.125
      vertex 109.4562 127.4562 3.125
      vertex 109.4562 127.4562 5.925
    endloop
  endfacet
  facet normal 0 1 -0
    outer loop
      vertex 121.1562 127.4562 3.125
      vertex 109.4562 127.4562 5.925
      vertex 121.1562 127.4562 5.925
    endloop
  endfacet
  facet normal -1 0 0
    outer loop
      vertex 109.4562 127.4562 3.125
      vertex 109.4562 109.4562 3.125
      vertex 109.4562 109.4562 5.925
    endloop
  endfacet
  facet normal -1 0 0
    outer loop
      vertex 109.4562 127.4562 3.125
      vertex 109.4562 109.4562 5.925
      vertex 109.4562 127.4562 5.925
    endloop
  endfacet
  facet normal 0 0 1
    outer loop
      vertex 109.4562 20 11.85
      vertex 109.4562 2 11.85
      vertex 121.1562 2 11.85
    endloop
  endfacet
  facet normal 0 0 -1
    outer loop
      vertex 121.1562 2 3.125
      vertex 109.4562 2 3.125
      vertex 109.4562 20 3.125
    endloop
  endfacet
  facet normal 0 0 1
    outer loop
      vertex 109.4562 20 11.85
      vertex 121.1562 2 11.85
      vertex 121.1562 8.3 11.85
    endloop
  endfacet
  facet normal -0 -0 -1
    outer loop
      vertex 121.1562 8.3 3.125
      vertex 121.1562 2 3.125
      vertex 109.4562 20 3.125
    endloop
  endfacet
  facet normal 0 0 1
    outer loop
      vertex 109.4562 20 11.85
      vertex 121.1562 8.3 11.85
      vertex 127.4562 8.3 11.85
    endloop
  endfacet
  facet normal 0 0 -1
    outer loop
      vertex 127.4562 8.3 3.125
      vertex 121.1562 8.3 3.125
      vertex 109.4562 20 3.125
    endloop
  endfacet
  facet normal 0 -0 1
    outer loop
      vertex 127.4562 8.3 11.85
      vertex 127.4562 20 11.85
      vertex 109.4562 20 11.85
    endloop
  endfacet
  facet normal 0 0 -1
    outer loop
      vertex 109.4562 20 3.125
      vertex 127.4562 20 3.125
      vertex 127.4562 8.3 3.125
    endloop
  endfacet
  facet normal 0 -1 0
    outer loop
      vertex 109.4562 2 3.125
      vertex 121.1562 2 3.125
      vertex 121.1562 2 11.85
    endloop
  endfacet
  facet normal 0 -1 0
    outer loop
      vertex 109.4562 2 3.125
      vertex 121.1562 2 11.85
      vertex 109.4562 2 11.85
    endloop
  endfacet
  facet normal 1 0 0
    outer loop
      vertex 121.1562 2 3.125
      vertex 121.1562 8.3 3.125
      vertex 121.1562 8.3 11.85
    endloop
  endfacet
  facet normal 1 0 0
    outer loop
      vertex 121.1562 2 3.125
      vertex 121.1562 8.3 11.85
      vertex 121.1562 2 11.85
    endloop
  endfacet
  facet normal 0 -1 0
    outer loop
      vertex 121.1562 8.3 3.125
      vertex 127.4562 8.3 3.125
      vertex 127.4562 8.3 11.85
    endloop
  endfacet
  facet normal 0 -1 0
    outer loop
      vertex 121.1562 8.3 3.125
      vertex 127.4562 8.3 11.85
      vertex 121.1562 8.3 11.85
    endloop
  endfacet
  facet normal 1 0 0
    outer loop
      vertex 127.4562 8.3 3.125
      vertex 127.4562 20 3.125
      vertex 127.4562 20 11.85
    endloop
  endfacet
  facet normal 1 0 0
    outer loop
      vertex 127.4562 8.3 3.125
      vertex 127.4562 20 11.85
      vertex 127.4562 8.3 11.85
    endloop
  endfacet
  facet normal 0 1 0
    outer loop
      vertex 127.4562 20 3.125
      vertex 109.4562 20 3.125
      vertex 109.4562 20 11.85
    endloop
  endfacet
  facet normal 0 1 -0
    outer loop
      vertex 127.4562 20 3.125
      vertex 109.4562 20 11.85
      vertex 127.4562 20 11.85
    endloop
  endfacet
  facet normal -1 0 0
    outer loop
      vertex 109.4562 20 3.125
      vertex 109.4562 2 3.125
      vertex 109.4562 2 11.85
    endloop
  endfacet
  facet normal -1 0 0
    outer loop
      vertex 109.4562 20 3.125
      vertex 109.4562 2 11.85
      vertex 109.4562 20 11.85
    endloop
  endfacet
  facet normal 0 0 1
    outer loop
      vertex 8.3 8.3 5.925
      vertex 8.3 2 5.925
      vertex 20 2 5.925
    endloop
  endfacet
  facet normal 0 0 -1
    outer loop
      vertex 20 2 3.125
      vertex 8.3 2 3.125
      vertex 8.3 8.3 3.125
    endloop
  endfacet
  facet normal -0 0 1
    outer loop
      vertex 8.3 8.3 5.925
      vertex 20 2 5.925
      vertex 20 20 5.925
    endloop
  endfacet
  facet normal 0 -0 -1
    outer loop
      vertex 20 20 3.125
      vertex 20 2 3.125
      vertex 8.3 8.3 3.125
    endloop
  endfacet
  facet normal 0 -0 1
    outer loop
      vertex 8.3 8.3 5.925
      vertex 20 20 5.925
      vertex 2 20 5.925
    endloop
  endfacet
  facet normal 0 0 -1
    outer loop
      vertex 2 20 3.125
      vertex 20 20 3.125
      vertex 8.3 8.3 3.125
    endloop
  endfacet
  facet normal 0 0 1
    outer loop
      vertex 2 20 5.925
      vertex 2 8.3 5.925
      vertex 8.3 8.3 5.925
    endloop
  endfacet
  facet normal 0 0 -1
    outer loop
      vertex 8.3 8.3 3.125
      vertex 2 8.3 3.125
      vertex 2 20 3.125
    endloop
  endfacet
  facet normal 0 -1 0
    outer loop
      vertex 8.3 2 3.125
      vertex 20 2 3.125
      vertex 20 2 5.925
    endloop
  endfacet
  facet normal 0 -1 0
    outer loop
      vertex 8.3 2 3.125
      vertex 20 2 5.925
      vertex 8.3 2 5.925
    endloop
  endfacet
  facet normal 1 0 0
    outer loop
      vertex 20 2 3.125
      vertex 20 20 3.125
      vertex 20 20 5.925
    endloop
  endfacet
  facet normal 1 0 0
    outer loop
      vertex 20 2 3.125
      vertex 20 20 5.925
      vertex 20 2 5.925
    endloop
  endfacet
  facet normal 0 1 0
    outer loop
      vertex 20 20 3.125
      vertex 2 20 3.125
      vertex 2 20 5.925
    endloop
  endfacet
  facet normal 0 1 -0
    outer loop
      vertex 20 20 3.125
      vertex 2 20 5.925
      vertex 20 20 5.925
    endloop
  endfacet
  facet normal -1 0 0
    outer loop
      vertex 2 20 3.125
      vertex 2 8.3 3.125
      vertex 2 8.3 5.925
    endloop
  endfacet
  facet normal -1 0 0
    outer loop
      vertex 2 20 3.125
      vertex 2 8.3 5.925
      vertex 2 20 5.925
    endloop
  endfacet
  facet normal 0 -1 0
    outer loop
      vertex 2 8.3 3.125
      vertex 8.3 8.3 3.125
      vertex 8.3 8.3 5.925
    endloop
  endfacet
  facet normal 0 -1 0
    outer loop
      vertex 2 8.3 3.125
      vertex 8.3 8.3 5.925
      vertex 2 8.3 5.925
    endloop
  endfacet
  facet normal -1 0 0
    outer loop
      vertex 8.3 8.3 3.125
      vertex 8.3 2 3.125
      vertex 8.3 2 5.925
    endloop
  endfacet
  facet normal -1 0 0
    outer loop
      vertex 8.3 8.3 3.125
      vertex 8.3 2 5.925
      vertex 8.3 8.3 5.925
    endloop
  endfacet
  facet normal 0 0 1
    outer loop
      vertex 2 121.1562 11.85
      vertex 2 109.4562 11.85
      vertex 20 109.4562 11.85
    endloop
  endfacet
  facet normal 0 0 -1
    outer loop
      vertex 20 109.4562 3.125
      vertex 2 109.4562 3.125
      vertex 2 121.1562 3.125
    endloop
  endfacet
  facet normal 0 -0 1
    outer loop
      vertex 20 109.4562 11.85
      vertex 20 127.4562 11.85
      vertex 8.3 127.4562 11.85
    endloop
  endfacet
  facet normal 0 0 -1
    outer loop
      vertex 8.3 127.4562 3.125
      vertex 20 127.4562 3.125
      vertex 20 109.4562 3.125
    endloop
  endfacet
  facet normal 0 0 1
    outer loop
      vertex 20 109.4562 11.85
      vertex 8.3 127.4562 11.85
      vertex 8.3 121.1562 11.85
    endloop
  endfacet
  facet normal 0 0 -1
    outer loop
      vertex 8.3 121.1562 3.125
      vertex 8.3 127.4562 3.125
      vertex 20 109.4562 3.125
    endloop
  endfacet
  facet normal 0 0 1
    outer loop
      vertex 20 109.4562 11.85
      vertex 8.3 121.1562 11.85
      vertex 2 121.1562 11.85
    endloop
  endfacet
  facet normal 0 0 -1
    outer loop
      vertex 2 121.1562 3.125
      vertex 8.3 121.1562 3.125
      vertex 20 109.4562 3.125
    endloop
  endfacet
  facet normal 0 -1 0
    outer loop
      vertex 2 109.4562 3.125
      vertex 20 109.4562 3.125
      vertex 20 109.4562 11.85
    endloop
  endfacet
  facet normal 0 -1 0
    outer loop
      vertex 2 109.4562 3.125
      vertex 20 109.4562 11.85
      vertex 2 109.4562 11.85
    endloop
  endfacet
  facet normal 1 0 0
    outer loop
      vertex 20 109.4562 3.125
      vertex 20 127.4562 3.125
      vertex 20 127.4562 11.85
    endloop
  endfacet
  facet normal 1 0 0
    outer loop
      vertex 20 109.4562 3.125
      vertex 20 127.4562 11.85
      vertex 20 109.4562 11.85
    endloop
  endfacet
  facet normal 0 1 0
    outer loop
      vertex 20 127.4562 3.125
      vertex 8.3 127.4562 3.125
      vertex 8.3 127.4562 11.85
    endloop
  endfacet
  facet normal 0 1 -0
    outer loop
      vertex 20 127.4562 3.125
      vertex 8.3 127.4562 11.85
      vertex 20 127.4562 11.85
    endloop
  endfacet
  facet normal -1 0 0
    outer loop
      vertex 8.3 127.4562 3.125
      vertex 8.3 121.1562 3.125
      vertex 8.3 121.1562 11.85
    endloop
  endfacet
  facet normal -1 0 0
    outer loop
      vertex 8.3 127.4562 3.125
      vertex 8.3 121.1562 11.85
      vertex 8.3 127.4562 11.85
    endloop
  endfacet
  facet normal 0 1 0
    outer loop
      vertex 8.3 121.1562 3.125
      vertex 2 121.1562 3.125
      vertex 2 121.1562 11.85
    endloop
  endfacet
  facet normal 0 1 -0
    outer loop
      vertex 8.3 121.1562 3.125
      vertex 2 121.1562 11.85
      vertex 8.3 121.1562 11.85
    endloop
  endfacet
  facet normal -1 0 0
    outer loop
      vertex 2 121.1562 3.125
      vertex 2 109.4562 3.125
      vertex 2 109.4562 11.85
    endloop
  endfacet
  facet normal -1 0 0
    outer loop
      vertex 2 121.1562 3.125
      vertex 2 109.4562 11.85
      vertex 2 121.1562 11.85
    endloop
  endfacet
endsolid temporary_switchback_ramp_layer_16
