solid temporary_switchback_ramp_layer_15
  facet normal 0 0 1
    outer loop
      vertex 2 8.65 3.125
      vertex 8.65 8.65 3.125
      vertex 8.65 19.65 3.125
    endloop
  endfacet
  facet normal 0 0 1
    outer loop
      vertex 2 8.65 3.125
      vertex 8.65 19.65 3.125
      vertex 2 19.65 3.125
    endloop
  endfacet
  facet normal 0 0 -1
    outer loop
      vertex 2 19.65 0
      vertex 8.65 19.65 0
      vertex 8.65 8.65 0
    endloop
  endfacet
  facet normal 0 0 -1
    outer loop
      vertex 2 19.65 0
      vertex 8.65 8.65 0
      vertex 2 8.65 0
    endloop
  endfacet
  facet normal 0 -1 0
    outer loop
      vertex 2 8.65 0
      vertex 8.65 8.65 0
      vertex 8.65 8.65 3.125
    endloop
  endfacet
  facet normal 0 -1 0
    outer loop
      vertex 2 8.65 0
      vertex 8.65 8.65 3.125
      vertex 2 8.65 3.125
    endloop
  endfacet
  facet normal -1 0 0
    outer loop
      vertex 2 19.65 0
      vertex 2 8.65 0
      vertex 2 8.65 3.125
    endloop
  endfacet
  facet normal -1 0 0
    outer loop
      vertex 2 19.65 0
      vertex 2 8.65 3.125
      vertex 2 19.65 3.125
    endloop
  endfacet
  facet normal 0 0 1
    outer loop
      vertex 2 19.65 3.125
      vertex 8.65 19.65 3.125
      vertex 8.65 119.1186 3.125
    endloop
  endfacet
  facet normal 0 0 1
    outer loop
      vertex 2 19.65 3.125
      vertex 8.65 119.1186 3.125
      vertex 2 119.1186 3.125
    endloop
  endfacet
  facet normal 0 0 -1
    outer loop
      vertex 2 119.1186 0
      vertex 8.65 119.1186 0
      vertex 8.65 19.65 0
    endloop
  endfacet
  facet normal 0 0 -1
    outer loop
      vertex 2 119.1186 0
      vertex 8.65 19.65 0
      vertex 2 19.65 0
    endloop
  endfacet
  facet normal -1 0 0
    outer loop
      vertex 2 119.1186 0
      vertex 2 19.65 0
      vertex 2 19.65 3.125
    endloop
  endfacet
  facet normal -1 0 0
    outer loop
      vertex 2 119.1186 0
      vertex 2 19.65 3.125
      vertex 2 119.1186 3.125
    endloop
  endfacet
  facet normal 0 0 1
    outer loop
      vertex 2 119.1186 3.125
      vertex 8.65 119.1186 3.125
      vertex 8.65 130.1186 3.125
    endloop
  endfacet
  facet normal 0 0 1
    outer loop
      vertex 2 119.1186 3.125
      vertex 8.65 130.1186 3.125
      vertex 2 130.1186 3.125
    endloop
  endfacet
  facet normal 0 0 -1
    outer loop
      vertex 2 130.1186 0
      vertex 8.65 130.1186 0
      vertex 8.65 119.1186 0
    endloop
  endfacet
  facet normal 0 0 -1
    outer loop
      vertex 2 130.1186 0
      vertex 8.65 119.1186 0
      vertex 2 119.1186 0
    endloop
  endfacet
  facet normal 0 1 0
    outer loop
      vertex 8.65 130.1186 0
      vertex 2 130.1186 0
      vertex 2 130.1186 3.125
    endloop
  endfacet
  facet normal 0 1 -0
    outer loop
      vertex 8.65 130.1186 0
      vertex 2 130.1186 3.125
      vertex 8.65 130.1186 3.125
    endloop
  endfacet
  facet normal -1 0 0
    outer loop
      vertex 2 130.1186 0
      vertex 2 119.1186 0
      vertex 2 119.1186 3.125
    endloop
  endfacet
  facet normal -1 0 0
    outer loop
      vertex 2 130.1186 0
      vertex 2 119.1186 3.125
      vertex 2 130.1186 3.125
    endloop
  endfacet
  facet normal 0 0 1
    outer loop
      vertex 8.65 2 3.125
      vertex 19.65 2 3.125
      vertex 19.65 8.65 3.125
    endloop
  endfacet
  facet normal 0 0 1
    outer loop
      vertex 8.65 2 3.125
      vertex 19.65 8.65 3.125
      vertex 8.65 8.65 3.125
    endloop
  endfacet
  facet normal 0 0 -1
    outer loop
      vertex 8.65 8.65 0
      vertex 19.65 8.65 0
      vertex 19.65 2 0
    endloop
  endfacet
  facet normal 0 0 -1
    outer loop
      vertex 8.65 8.65 0
      vertex 19.65 2 0
      vertex 8.65 2 0
    endloop
  endfacet
  facet normal 0 -1 0
    outer loop
      vertex 8.65 2 0
      vertex 19.65 2 0
      vertex 19.65 2 3.125
    endloop
  endfacet
  facet normal 0 -1 0
    outer loop
      vertex 8.65 2 0
      vertex 19.65 2 3.125
      vertex 8.65 2 3.125
    endloop
  endfacet
  facet normal -1 0 0
    outer loop
      vertex 8.65 8.65 0
      vertex 8.65 2 0
      vertex 8.65 2 3.125
    endloop
  endfacet
  facet normal -1 0 0
    outer loop
      vertex 8.65 8.65 0
      vertex 8.65 2 3.125
      vertex 8.65 8.65 3.125
    endloop
  endfacet
  facet normal 0 0 1
    outer loop
      vertex 8.65 8.65 3.125
      vertex 19.65 8.65 3.125
      vertex 19.65 19.65 3.125
    endloop
  endfacet
  facet normal 0 0 1
    outer loop
      vertex 8.65 8.65 3.125
      vertex 19.65 19.65 3.125
      vertex 8.65 19.65 3.125
    endloop
  endfacet
  facet normal 0 0 -1
    outer loop
      vertex 8.65 19.65 0
      vertex 19.65 19.65 0
      vertex 19.65 8.65 0
    endloop
  endfacet
  facet normal 0 0 -1
    outer loop
      vertex 8.65 19.65 0
      vertex 19.65 8.65 0
      vertex 8.65 8.65 0
    endloop
  endfacet
  facet normal 0 0 1
    outer loop
      vertex 8.65 19.65 3.125
      vertex 19.65 19.65 3.125
      vertex 19.65 119.1186 3.125
    endloop
  endfacet
  facet normal 0 0 1
    outer loop
      vertex 8.65 19.65 3.125
      vertex 19.65 119.1186 3.125
      vertex 8.65 119.1186 3.125
    endloop
  endfacet
  facet normal 0 0 -1
    outer loop
      vertex 8.65 119.1186 0
      vertex 19.65 119.1186 0
      vertex 19.65 19.65 0
    endloop
  endfacet
  facet normal 0 0 -1
    outer loop
      vertex 8.65 119.1186 0
      vertex 19.65 19.65 0
      vertex 8.65 19.65 0
    endloop
  endfacet
  facet normal 1 0 0
    outer loop
      vertex 19.65 19.65 0
      vertex 19.65 119.1186 0
      vertex 19.65 119.1186 3.125
    endloop
  endfacet
  facet normal 1 0 0
    outer loop
      vertex 19.65 19.65 0
      vertex 19.65 119.1186 3.125
      vertex 19.65 19.65 3.125
    endloop
  endfacet
  facet normal 0 0 1
    outer loop
      vertex 8.65 119.1186 3.125
      vertex 19.65 119.1186 3.125
      vertex 19.65 130.1186 3.125
    endloop
  endfacet
  facet normal 0 0 1
    outer loop
      vertex 8.65 119.1186 3.125
      vertex 19.65 130.1186 3.125
      vertex 8.65 130.1186 3.125
    endloop
  endfacet
  facet normal 0 0 -1
    outer loop
      vertex 8.65 130.1186 0
      vertex 19.65 130.1186 0
      vertex 19.65 119.1186 0
    endloop
  endfacet
  facet normal 0 0 -1
    outer loop
      vertex 8.65 130.1186 0
      vertex 19.65 119.1186 0
      vertex 8.65 119.1186 0
    endloop
  endfacet
  facet normal 0 0 1
    outer loop
      vertex 8.65 130.1186 3.125
      vertex 19.65 130.1186 3.125
      vertex 19.65 136.7686 3.125
    endloop
  endfacet
  facet normal 0 0 1
    outer loop
      vertex 8.65 130.1186 3.125
      vertex 19.65 136.7686 3.125
      vertex 8.65 136.7686 3.125
    endloop
  endfacet
  facet normal 0 0 -1
    outer loop
      vertex 8.65 136.7686 0
      vertex 19.65 136.7686 0
      vertex 19.65 130.1186 0
    endloop
  endfacet
  facet normal 0 0 -1
    outer loop
      vertex 8.65 136.7686 0
      vertex 19.65 130.1186 0
      vertex 8.65 130.1186 0
    endloop
  endfacet
  facet normal 0 1 0
    outer loop
      vertex 19.65 136.7686 0
      vertex 8.65 136.7686 0
      vertex 8.65 136.7686 3.125
    endloop
  endfacet
  facet normal 0 1 -0
    outer loop
      vertex 19.65 136.7686 0
      vertex 8.65 136.7686 3.125
      vertex 19.65 136.7686 3.125
    endloop
  endfacet
  facet normal -1 0 0
    outer loop
      vertex 8.65 136.7686 0
      vertex 8.65 130.1186 0
      vertex 8.65 130.1186 3.125
    endloop
  endfacet
  facet normal -1 0 0
    outer loop
      vertex 8.65 136.7686 0
      vertex 8.65 130.1186 3.125
      vertex 8.65 136.7686 3.125
    endloop
  endfacet
  facet normal 0 0 1
    outer loop
      vertex 19.65 2 3.125
      vertex 119.1186 2 3.125
      vertex 119.1186 8.65 3.125
    endloop
  endfacet
  facet normal 0 0 1
    outer loop
      vertex 19.65 2 3.125
      vertex 119.1186 8.65 3.125
      vertex 19.65 8.65 3.125
    endloop
  endfacet
  facet normal 0 0 -1
    outer loop
      vertex 19.65 8.65 0
      vertex 119.1186 8.65 0
      vertex 119.1186 2 0
    endloop
  endfacet
  facet normal 0 0 -1
    outer loop
      vertex 19.65 8.65 0
      vertex 119.1186 2 0
      vertex 19.65 2 0
    endloop
  endfacet
  facet normal 0 -1 0
    outer loop
      vertex 19.65 2 0
      vertex 119.1186 2 0
      vertex 119.1186 2 3.125
    endloop
  endfacet
  facet normal 0 -1 0
    outer loop
      vertex 19.65 2 0
      vertex 119.1186 2 3.125
      vertex 19.65 2 3.125
    endloop
  endfacet
  facet normal 0 0 1
    outer loop
      vertex 19.65 8.65 3.125
      vertex 119.1186 8.65 3.125
      vertex 119.1186 19.65 3.125
    endloop
  endfacet
  facet normal 0 0 1
    outer loop
      vertex 19.65 8.65 3.125
      vertex 119.1186 19.65 3.125
      vertex 19.65 19.65 3.125
    endloop
  endfacet
  facet normal 0 0 -1
    outer loop
      vertex 19.65 19.65 0
      vertex 119.1186 19.65 0
      vertex 119.1186 8.65 0
    endloop
  endfacet
  facet normal 0 0 -1
    outer loop
      vertex 19.65 19.65 0
      vertex 119.1186 8.65 0
      vertex 19.65 8.65 0
    endloop
  endfacet
  facet normal 0 1 0
    outer loop
      vertex 119.1186 19.65 0
      vertex 19.65 19.65 0
      vertex 19.65 19.65 3.125
    endloop
  endfacet
  facet normal 0 1 -0
    outer loop
      vertex 119.1186 19.65 0
      vertex 19.65 19.65 3.125
      vertex 119.1186 19.65 3.125
    endloop
  endfacet
  facet normal 0 0 1
    outer loop
      vertex 19.65 119.1186 3.125
      vertex 119.1186 119.1186 3.125
      vertex 119.1186 130.1186 3.125
    endloop
  endfacet
  facet normal 0 0 1
    outer loop
      vertex 19.65 119.1186 3.125
      vertex 119.1186 130.1186 3.125
      vertex 19.65 130.1186 3.125
    endloop
  endfacet
  facet normal 0 0 -1
    outer loop
      vertex 19.65 130.1186 0
      vertex 119.1186 130.1186 0
      vertex 119.1186 119.1186 0
    endloop
  endfacet
  facet normal 0 0 -1
    outer loop
      vertex 19.65 130.1186 0
      vertex 119.1186 119.1186 0
      vertex 19.65 119.1186 0
    endloop
  endfacet
  facet normal 0 -1 0
    outer loop
      vertex 19.65 119.1186 0
      vertex 119.1186 119.1186 0
      vertex 119.1186 119.1186 3.125
    endloop
  endfacet
  facet normal 0 -1 0
    outer loop
      vertex 19.65 119.1186 0
      vertex 119.1186 119.1186 3.125
      vertex 19.65 119.1186 3.125
    endloop
  endfacet
  facet normal 0 0 1
    outer loop
      vertex 19.65 130.1186 3.125
      vertex 119.1186 130.1186 3.125
      vertex 119.1186 136.7686 3.125
    endloop
  endfacet
  facet normal 0 0 1
    outer loop
      vertex 19.65 130.1186 3.125
      vertex 119.1186 136.7686 3.125
      vertex 19.65 136.7686 3.125
    endloop
  endfacet
  facet normal 0 0 -1
    outer loop
      vertex 19.65 136.7686 0
      vertex 119.1186 136.7686 0
      vertex 119.1186 130.1186 0
    endloop
  endfacet
  facet normal 0 0 -1
    outer loop
      vertex 19.65 136.7686 0
      vertex 119.1186 130.1186 0
      vertex 19.65 130.1186 0
    endloop
  endfacet
  facet normal 0 1 0
    outer loop
      vertex 119.1186 136.7686 0
      vertex 19.65 136.7686 0
      vertex 19.65 136.7686 3.125
    endloop
  endfacet
  facet normal 0 1 -0
    outer loop
      vertex 119.1186 136.7686 0
      vertex 19.65 136.7686 3.125
      vertex 119.1186 136.7686 3.125
    endloop
  endfacet
  facet normal 0 0 1
    outer loop
      vertex 119.1186 2 3.125
      vertex 130.1186 2 3.125
      vertex 130.1186 8.65 3.125
    endloop
  endfacet
  facet normal 0 0 1
    outer loop
      vertex 119.1186 2 3.125
      vertex 130.1186 8.65 3.125
      vertex 119.1186 8.65 3.125
    endloop
  endfacet
  facet normal 0 0 -1
    outer loop
      vertex 119.1186 8.65 0
      vertex 130.1186 8.65 0
      vertex 130.1186 2 0
    endloop
  endfacet
  facet normal 0 0 -1
    outer loop
      vertex 119.1186 8.65 0
      vertex 130.1186 2 0
      vertex 119.1186 2 0
    endloop
  endfacet
  facet normal 0 -1 0
    outer loop
      vertex 119.1186 2 0
      vertex 130.1186 2 0
      vertex 130.1186 2 3.125
    endloop
  endfacet
  facet normal 0 -1 0
    outer loop
      vertex 119.1186 2 0
      vertex 130.1186 2 3.125
      vertex 119.1186 2 3.125
    endloop
  endfacet
  facet normal 1 0 0
    outer loop
      vertex 130.1186 2 0
      vertex 130.1186 8.65 0
      vertex 130.1186 8.65 3.125
    endloop
  endfacet
  facet normal 1 0 0
    outer loop
      vertex 130.1186 2 0
      vertex 130.1186 8.65 3.125
      vertex 130.1186 2 3.125
    endloop
  endfacet
  facet normal 0 0 1
    outer loop
      vertex 119.1186 8.65 3.125
      vertex 130.1186 8.65 3.125
      vertex 130.1186 19.65 3.125
    endloop
  endfacet
  facet normal 0 0 1
    outer loop
      vertex 119.1186 8.65 3.125
      vertex 130.1186 19.65 3.125
      vertex 119.1186 19.65 3.125
    endloop
  endfacet
  facet normal 0 0 -1
    outer loop
      vertex 119.1186 19.65 0
      vertex 130.1186 19.65 0
      vertex 130.1186 8.65 0
    endloop
  endfacet
  facet normal 0 0 -1
    outer loop
      vertex 119.1186 19.65 0
      vertex 130.1186 8.65 0
      vertex 119.1186 8.65 0
    endloop
  endfacet
  facet normal 0 0 1
    outer loop
      vertex 119.1186 19.65 3.125
      vertex 130.1186 19.65 3.125
      vertex 130.1186 119.1186 3.125
    endloop
  endfacet
  facet normal 0 0 1
    outer loop
      vertex 119.1186 19.65 3.125
      vertex 130.1186 119.1186 3.125
      vertex 119.1186 119.1186 3.125
    endloop
  endfacet
  facet normal 0 0 -1
    outer loop
      vertex 119.1186 119.1186 0
      vertex 130.1186 119.1186 0
      vertex 130.1186 19.65 0
    endloop
  endfacet
  facet normal 0 0 -1
    outer loop
      vertex 119.1186 119.1186 0
      vertex 130.1186 19.65 0
      vertex 119.1186 19.65 0
    endloop
  endfacet
  facet normal -1 0 0
    outer loop
      vertex 119.1186 119.1186 0
      vertex 119.1186 19.65 0
      vertex 119.1186 19.65 3.125
    endloop
  endfacet
  facet normal -1 0 0
    outer loop
      vertex 119.1186 119.1186 0
      vertex 119.1186 19.65 3.125
      vertex 119.1186 119.1186 3.125
    endloop
  endfacet
  facet normal 0 0 1
    outer loop
      vertex 119.1186 119.1186 3.125
      vertex 130.1186 119.1186 3.125
      vertex 130.1186 130.1186 3.125
    endloop
  endfacet
  facet normal 0 0 1
    outer loop
      vertex 119.1186 119.1186 3.125
      vertex 130.1186 130.1186 3.125
      vertex 119.1186 130.1186 3.125
    endloop
  endfacet
  facet normal 0 0 -1
    outer loop
      vertex 119.1186 130.1186 0
      vertex 130.1186 130.1186 0
      vertex 130.1186 119.1186 0
    endloop
  endfacet
  facet normal 0 0 -1
    outer loop
      vertex 119.1186 130.1186 0
      vertex 130.1186 119.1186 0
      vertex 119.1186 119.1186 0
    endloop
  endfacet
  facet normal 0 0 1
    outer loop
      vertex 119.1186 130.1186 3.125
      vertex 130.1186 130.1186 3.125
      vertex 130.1186 136.7686 3.125
    endloop
  endfacet
  facet normal 0 0 1
    outer loop
      vertex 119.1186 130.1186 3.125
      vertex 130.1186 136.7686 3.125
      vertex 119.1186 136.7686 3.125
    endloop
  endfacet
  facet normal 0 0 -1
    outer loop
      vertex 119.1186 136.7686 0
      vertex 130.1186 136.7686 0
      vertex 130.1186 130.1186 0
    endloop
  endfacet
  facet normal 0 0 -1
    outer loop
      vertex 119.1186 136.7686 0
      vertex 130.1186 130.1186 0
      vertex 119.1186 130.1186 0
    endloop
  endfacet
  facet normal 1 0 0
    outer loop
      vertex 130.1186 130.1186 0
      vertex 130.1186 136.7686 0
      vertex 130.1186 136.7686 3.125
    endloop
  endfacet
  facet normal 1 0 0
    outer loop
      vertex 130.1186 130.1186 0
      vertex 130.1186 136.7686 3.125
      vertex 130.1186 130.1186 3.125
    endloop
  endfacet
  facet normal 0 1 0
    outer loop
      vertex 130.1186 136.7686 0
      vertex 119.1186 136.7686 0
      vertex 119.1186 136.7686 3.125
    endloop
  endfacet
  facet normal 0 1 -0
    outer loop
      vertex 130.1186 136.7686 0
      vertex 119.1186 136.7686 3.125
      vertex 130.1186 136.7686 3.125
    endloop
  endfacet
  facet normal 0 0 1
    outer loop
      vertex 130.1186 8.65 3.125
      vertex 136.7686 8.65 3.125
      vertex 136.7686 19.65 3.125
    endloop
  endfacet
  facet normal 0 0 1
    outer loop
      vertex 130.1186 8.65 3.125
      vertex 136.7686 19.65 3.125
      vertex 130.1186 19.65 3.125
    endloop
  endfacet
  facet normal 0 0 -1
    outer loop
      vertex 130.1186 19.65 0
      vertex 136.7686 19.65 0
      vertex 136.7686 8.65 0
    endloop
  endfacet
  facet normal 0 0 -1
    outer loop
      vertex 130.1186 19.65 0
      vertex 136.7686 8.65 0
      vertex 130.1186 8.65 0
    endloop
  endfacet
  facet normal 0 -1 0
    outer loop
      vertex 130.1186 8.65 0
      vertex 136.7686 8.65 0
      vertex 136.7686 8.65 3.125
    endloop
  endfacet
  facet normal 0 -1 0
    outer loop
      vertex 130.1186 8.65 0
      vertex 136.7686 8.65 3.125
      vertex 130.1186 8.65 3.125
    endloop
  endfacet
  facet normal 1 0 0
    outer loop
      vertex 136.7686 8.65 0
      vertex 136.7686 19.65 0
      vertex 136.7686 19.65 3.125
    endloop
  endfacet
  facet normal 1 0 0
    outer loop
      vertex 136.7686 8.65 0
      vertex 136.7686 19.65 3.125
      vertex 136.7686 8.65 3.125
    endloop
  endfacet
  facet normal 0 0 1
    outer loop
      vertex 130.1186 19.65 3.125
      vertex 136.7686 19.65 3.125
      vertex 136.7686 119.1186 3.125
    endloop
  endfacet
  facet normal 0 0 1
    outer loop
      vertex 130.1186 19.65 3.125
      vertex 136.7686 119.1186 3.125
      vertex 130.1186 119.1186 3.125
    endloop
  endfacet
  facet normal 0 0 -1
    outer loop
      vertex 130.1186 119.1186 0
      vertex 136.7686 119.1186 0
      vertex 136.7686 19.65 0
    endloop
  endfacet
  facet normal 0 0 -1
    outer loop
      vertex 130.1186 119.1186 0
      vertex 136.7686 19.65 0
      vertex 130.1186 19.65 0
    endloop
  endfacet
  facet normal 1 0 0
    outer loop
      vertex 136.7686 19.65 0
      vertex 136.7686 119.1186 0
      vertex 136.7686 119.1186 3.125
    endloop
  endfacet
  facet normal 1 0 0
    outer loop
      vertex 136.7686 19.65 0
      vertex 136.7686 119.1186 3.125
      vertex 136.7686 19.65 3.125
    endloop
  endfacet
  facet normal 0 0 1
    outer loop
      vertex 130.1186 119.1186 3.125
      vertex 136.7686 119.1186 3.125
      vertex 136.7686 130.1186 3.125
    endloop
  endfacet
  facet normal 0 0 1
    outer loop
      vertex 130.1186 119.1186 3.125
      vertex 136.7686 130.1186 3.125
      vertex 130.1186 130.1186 3.125
    endloop
  endfacet
  facet normal 0 0 -1
    outer loop
      vertex 130.1186 130.1186 0
      vertex 136.7686 130.1186 0
      vertex 136.7686 119.1186 0
    endloop
  endfacet
  facet normal 0 0 -1
    outer loop
      vertex 130.1186 130.1186 0
      vertex 136.7686 119.1186 0
      vertex 130.1186 119.1186 0
    endloop
  endfacet
  facet normal 1 0 0
    outer loop
      vertex 136.7686 119.1186 0
      vertex 136.7686 130.1186 0
      vertex 136.7686 130.1186 3.125
    endloop
  endfacet
  facet normal 1 0 0
    outer loop
      vertex 136.7686 119.1186 0
      vertex 136.7686 130.1186 3.125
      vertex 136.7686 119.1186 3.125
    endloop
  endfacet
  facet normal 0 1 0
    outer loop
      vertex 136.7686 130.1186 0
      vertex 130.1186 130.1186 0
      vertex 130.1186 130.1186 3.125
    endloop
  endfacet
  facet normal 0 1 -0
    outer loop
      vertex 136.7686 130.1186 0
      vertex 130.1186 130.1186 3.125
      vertex 136.7686 130.1186 3.125
    endloop
  endfacet
  facet normal 0 0 -1
    outer loop
      vertex 20 118.7686 3.125
      vertex 94.07642 136.7686 3.125
      vertex 94.07642 118.7686 3.125
    endloop
  endfacet
  facet normal 0 0 -1
    outer loop
      vertex 20 118.7686 3.125
      vertex 20 136.7686 3.125
      vertex 94.07642 136.7686 3.125
    endloop
  endfacet
  facet normal 0 0 -1
    outer loop
      vertex 94.07642 118.7686 3.125
      vertex 118.7686 136.7686 3.125
      vertex 118.7686 118.7686 3.125
    endloop
  endfacet
  facet normal 0 0 -1
    outer loop
      vertex 94.07642 118.7686 3.125
      vertex 94.07642 136.7686 3.125
      vertex 118.7686 136.7686 3.125
    endloop
  endfacet
  facet normal -0.07973033 0 0.9968165
    outer loop
      vertex 20 118.7686 5.925
      vertex 94.07642 118.7686 11.85
      vertex 94.07642 136.7686 11.85
    endloop
  endfacet
  facet normal -0.07973033 0 0.9968165
    outer loop
      vertex 20 118.7686 5.925
      vertex 94.07642 136.7686 11.85
      vertex 20 136.7686 5.925
    endloop
  endfacet
  facet normal 0 0 1
    outer loop
      vertex 94.07642 118.7686 11.85
      vertex 118.7686 118.7686 11.85
      vertex 118.7686 136.7686 11.85
    endloop
  endfacet
  facet normal 0 0 1
    outer loop
      vertex 94.07642 118.7686 11.85
      vertex 118.7686 136.7686 11.85
      vertex 94.07642 136.7686 11.85
    endloop
  endfacet
  facet normal 0 -1 0
    outer loop
      vertex 20 118.7686 3.125
      vertex 94.07642 118.7686 3.125
      vertex 94.07642 118.7686 11.85
    endloop
  endfacet
  facet normal 0 -1 0
    outer loop
      vertex 20 118.7686 3.125
      vertex 94.07642 118.7686 11.85
      vertex 20 118.7686 5.925
    endloop
  endfacet
  facet normal 0 -1 0
    outer loop
      vertex 94.07642 118.7686 3.125
      vertex 118.7686 118.7686 3.125
      vertex 118.7686 118.7686 11.85
    endloop
  endfacet
  facet normal 0 -1 0
    outer loop
      vertex 94.07642 118.7686 3.125
      vertex 118.7686 118.7686 11.85
      vertex 94.07642 118.7686 11.85
    endloop
  endfacet
  facet normal 0 1 0
    outer loop
      vertex 20 136.7686 3.125
      vertex 94.07642 136.7686 11.85
      vertex 94.07642 136.7686 3.125
    endloop
  endfacet
  facet normal 0 1 0
    outer loop
      vertex 20 136.7686 3.125
      vertex 20 136.7686 5.925
      vertex 94.07642 136.7686 11.85
    endloop
  endfacet
  facet normal 0 1 0
    outer loop
      vertex 94.07642 136.7686 3.125
      vertex 118.7686 136.7686 11.85
      vertex 118.7686 136.7686 3.125
    endloop
  endfacet
  facet normal 0 1 0
    outer loop
      vertex 94.07642 136.7686 3.125
      vertex 94.07642 136.7686 11.85
      vertex 118.7686 136.7686 11.85
    endloop
  endfacet
  facet normal -1 0 0
    outer loop
      vertex 20 136.7686 3.125
      vertex 20 118.7686 3.125
      vertex 20 118.7686 5.925
    endloop
  endfacet
  facet normal -1 0 0
    outer loop
      vertex 20 136.7686 3.125
      vertex 20 118.7686 5.925
      vertex 20 136.7686 5.925
    endloop
  endfacet
  facet normal 1 0 0
    outer loop
      vertex 118.7686 118.7686 3.125
      vertex 118.7686 136.7686 3.125
      vertex 118.7686 136.7686 11.85
    endloop
  endfacet
  facet normal 1 0 0
    outer loop
      vertex 118.7686 118.7686 3.125
      vertex 118.7686 136.7686 11.85
      vertex 118.7686 118.7686 11.85
    endloop
  endfacet
  facet normal 0 0 -1
    outer loop
      vertex 118.7686 20 3.125
      vertex 118.7686 94.07642 3.125
      vertex 136.7686 94.07642 3.125
    endloop
  endfacet
  facet normal 0 0 -1
    outer loop
      vertex 118.7686 20 3.125
      vertex 136.7686 94.07642 3.125
      vertex 136.7686 20 3.125
    endloop
  endfacet
  facet normal 0 0 -1
    outer loop
      vertex 118.7686 94.07642 3.125
      vertex 118.7686 118.7686 3.125
      vertex 136.7686 118.7686 3.125
    endloop
  endfacet
  facet normal 0 0 -1
    outer loop
      vertex 118.7686 94.07642 3.125
      vertex 136.7686 118.7686 3.125
      vertex 136.7686 94.07642 3.125
    endloop
  endfacet
  facet normal 0 -0.07973033 0.9968165
    outer loop
      vertex 118.7686 20 5.925
      vertex 136.7686 94.07642 11.85
      vertex 118.7686 94.07642 11.85
    endloop
  endfacet
  facet normal 0 -0.07973033 0.9968165
    outer loop
      vertex 118.7686 20 5.925
      vertex 136.7686 20 5.925
      vertex 136.7686 94.07642 11.85
    endloop
  endfacet
  facet normal 0 0 1
    outer loop
      vertex 118.7686 94.07642 11.85
      vertex 136.7686 118.7686 11.85
      vertex 118.7686 118.7686 11.85
    endloop
  endfacet
  facet normal 0 0 1
    outer loop
      vertex 118.7686 94.07642 11.85
      vertex 136.7686 94.07642 11.85
      vertex 136.7686 118.7686 11.85
    endloop
  endfacet
  facet normal -1 0 0
    outer loop
      vertex 118.7686 20 3.125
      vertex 118.7686 94.07642 11.85
      vertex 118.7686 94.07642 3.125
    endloop
  endfacet
  facet normal -1 0 0
    outer loop
      vertex 118.7686 20 3.125
      vertex 118.7686 20 5.925
      vertex 118.7686 94.07642 11.85
    endloop
  endfacet
  facet normal -1 0 0
    outer loop
      vertex 118.7686 94.07642 3.125
      vertex 118.7686 118.7686 11.85
      vertex 118.7686 118.7686 3.125
    endloop
  endfacet
  facet normal -1 0 0
    outer loop
      vertex 118.7686 94.07642 3.125
      vertex 118.7686 94.07642 11.85
      vertex 118.7686 118.7686 11.85
    endloop
  endfacet
  facet normal 1 0 0
    outer loop
      vertex 136.7686 20 3.125
      vertex 136.7686 94.07642 3.125
      vertex 136.7686 94.07642 11.85
    endloop
  endfacet
  facet normal 1 0 0
    outer loop
      vertex 136.7686 20 3.125
      vertex 136.7686 94.07642 11.85
      vertex 136.7686 20 5.925
    endloop
  endfacet
  facet normal 1 0 0
    outer loop
      vertex 136.7686 94.07642 3.125
      vertex 136.7686 118.7686 3.125
      vertex 136.7686 118.7686 11.85
    endloop
  endfacet
  facet normal 1 0 0
    outer loop
      vertex 136.7686 94.07642 3.125
      vertex 136.7686 118.7686 11.85
      vertex 136.7686 94.07642 11.85
    endloop
  endfacet
  facet normal 0 -1 0
    outer loop
      vertex 136.7686 20 3.125
      vertex 118.7686 20 5.925
      vertex 118.7686 20 3.125
    endloop
  endfacet
  facet normal 0 -1 0
    outer loop
      vertex 136.7686 20 3.125
      vertex 136.7686 20 5.925
      vertex 118.7686 20 5.925
    endloop
  endfacet
  facet normal 0 1 0
    outer loop
      vertex 118.7686 118.7686 3.125
      vertex 136.7686 118.7686 11.85
      vertex 136.7686 118.7686 3.125
    endloop
  endfacet
  facet normal 0 1 0
    outer loop
      vertex 118.7686 118.7686 3.125
      vertex 118.7686 118.7686 11.85
      vertex 136.7686 118.7686 11.85
    endloop
  endfacet
  facet normal -0 0 -1
    outer loop
      vertex 118.7686 20 3.125
      vertex 44.69214 2 3.125
      vertex 44.69214 20 3.125
    endloop
  endfacet
  facet normal 0 -0 -1
    outer loop
      vertex 118.7686 20 3.125
      vertex 118.7686 2 3.125
      vertex 44.69214 2 3.125
    endloop
  endfacet
  facet normal -0 0 -1
    outer loop
      vertex 44.69214 20 3.125
      vertex 20 2 3.125
      vertex 20 20 3.125
    endloop
  endfacet
  facet normal 0 -0 -1
    outer loop
      vertex 44.69214 20 3.125
      vertex 44.69214 2 3.125
      vertex 20 2 3.125
    endloop
  endfacet
  facet normal 0.07973033 0 0.9968165
    outer loop
      vertex 118.7686 20 5.925
      vertex 44.69214 20 11.85
      vertex 44.69214 2 11.85
    endloop
  endfacet
  facet normal 0.07973033 0 0.9968165
    outer loop
      vertex 118.7686 20 5.925
      vertex 44.69214 2 11.85
      vertex 118.7686 2 5.925
    endloop
  endfacet
  facet normal 0 0 1
    outer loop
      vertex 44.69214 20 11.85
      vertex 20 20 11.85
      vertex 20 2 11.85
    endloop
  endfacet
  facet normal 0 0 1
    outer loop
      vertex 44.69214 20 11.85
      vertex 20 2 11.85
      vertex 44.69214 2 11.85
    endloop
  endfacet
  facet normal 0 1 0
    outer loop
      vertex 118.7686 20 3.125
      vertex 44.69214 20 3.125
      vertex 44.69214 20 11.85
    endloop
  endfacet
  facet normal 0 1 -0
    outer loop
      vertex 118.7686 20 3.125
      vertex 44.69214 20 11.85
      vertex 118.7686 20 5.925
    endloop
  endfacet
  facet normal 0 1 0
    outer loop
      vertex 44.69214 20 3.125
      vertex 20 20 3.125
      vertex 20 20 11.85
    endloop
  endfacet
  facet normal 0 1 -0
    outer loop
      vertex 44.69214 20 3.125
      vertex 20 20 11.85
      vertex 44.69214 20 11.85
    endloop
  endfacet
  facet normal 0 -1 0
    outer loop
      vertex 118.7686 2 3.125
      vertex 44.69214 2 11.85
      vertex 44.69214 2 3.125
    endloop
  endfacet
  facet normal 0 -1 0
    outer loop
      vertex 118.7686 2 3.125
      vertex 118.7686 2 5.925
      vertex 44.69214 2 11.85
    endloop
  endfacet
  facet normal 0 -1 0
    outer loop
      vertex 44.69214 2 3.125
      vertex 20 2 11.85
      vertex 20 2 3.125
    endloop
  endfacet
  facet normal 0 -1 0
    outer loop
      vertex 44.69214 2 3.125
      vertex 44.69214 2 11.85
      vertex 20 2 11.85
    endloop
  endfacet
  facet normal 1 0 0
    outer loop
      vertex 118.7686 2 3.125
      vertex 118.7686 20 3.125
      vertex 118.7686 20 5.925
    endloop
  endfacet
  facet normal 1 0 0
    outer loop
      vertex 118.7686 2 3.125
      vertex 118.7686 20 5.925
      vertex 118.7686 2 5.925
    endloop
  endfacet
  facet normal -1 0 0
    outer loop
      vertex 20 20 3.125
      vertex 20 2 3.125
      vertex 20 2 11.85
    endloop
  endfacet
  facet normal -1 0 0
    outer loop
      vertex 20 20 3.125
      vertex 20 2 11.85
      vertex 20 20 11.85
    endloop
  endfacet
  facet normal 0 -0 -1
    outer loop
      vertex 20 118.7686 3.125
      vertex 20 44.69214 3.125
      vertex 2 44.69214 3.125
    endloop
  endfacet
  facet normal -0 0 -1
    outer loop
      vertex 20 118.7686 3.125
      vertex 2 44.69214 3.125
      vertex 2 118.7686 3.125
    endloop
  endfacet
  facet normal 0 -0 -1
    outer loop
      vertex 20 44.69214 3.125
      vertex 20 20 3.125
      vertex 2 20 3.125
    endloop
  endfacet
  facet normal -0 0 -1
    outer loop
      vertex 20 44.69214 3.125
      vertex 2 20 3.125
      vertex 2 44.69214 3.125
    endloop
  endfacet
  facet normal 0 0.07973033 0.9968165
    outer loop
      vertex 20 118.7686 5.925
      vertex 2 44.69214 11.85
      vertex 20 44.69214 11.85
    endloop
  endfacet
  facet normal 0 0.07973033 0.9968165
    outer loop
      vertex 20 118.7686 5.925
      vertex 2 118.7686 5.925
      vertex 2 44.69214 11.85
    endloop
  endfacet
  facet normal 0 0 1
    outer loop
      vertex 20 44.69214 11.85
      vertex 2 20 11.85
      vertex 20 20 11.85
    endloop
  endfacet
  facet normal 0 0 1
    outer loop
      vertex 20 44.69214 11.85
      vertex 2 44.69214 11.85
      vertex 2 20 11.85
    endloop
  endfacet
  facet normal 1 0 0
    outer loop
      vertex 20 118.7686 3.125
      vertex 20 44.69214 11.85
      vertex 20 44.69214 3.125
    endloop
  endfacet
  facet normal 1 0 -0
    outer loop
      vertex 20 118.7686 3.125
      vertex 20 118.7686 5.925
      vertex 20 44.69214 11.85
    endloop
  endfacet
  facet normal 1 0 0
    outer loop
      vertex 20 44.69214 3.125
      vertex 20 20 11.85
      vertex 20 20 3.125
    endloop
  endfacet
  facet normal 1 0 -0
    outer loop
      vertex 20 44.69214 3.125
      vertex 20 44.69214 11.85
      vertex 20 20 11.85
    endloop
  endfacet
  facet normal -1 0 0
    outer loop
      vertex 2 118.7686 3.125
      vertex 2 44.69214 3.125
      vertex 2 44.69214 11.85
    endloop
  endfacet
  facet normal -1 0 0
    outer loop
      vertex 2 118.7686 3.125
      vertex 2 44.69214 11.85
      vertex 2 118.7686 5.925
    endloop
  endfacet
  facet normal -1 0 0
    outer loop
      vertex 2 44.69214 3.125
      vertex 2 20 3.125
      vertex 2 20 11.85
    endloop
  endfacet
  facet normal -1 0 0
    outer loop
      vertex 2 44.69214 3.125
      vertex 2 20 11.85
      vertex 2 44.69214 11.85
    endloop
  endfacet
  facet normal 0 1 0
    outer loop
      vertex 2 118.7686 3.125
      vertex 20 118.7686 5.925
      vertex 20 118.7686 3.125
    endloop
  endfacet
  facet normal 0 1 0
    outer loop
      vertex 2 118.7686 3.125
      vertex 2 118.7686 5.925
      vertex 20 118.7686 5.925
    endloop
  endfacet
  facet normal 0 -1 0
    outer loop
      vertex 20 20 3.125
      vertex 2 20 11.85
      vertex 2 20 3.125
    endloop
  endfacet
  facet normal 0 -1 0
    outer loop
      vertex 20 20 3.125
      vertex 20 20 11.85
      vertex 2 20 11.85
    endloop
  endfacet
  facet normal 0 0 1
    outer loop
      vertex 118.7686 136.7686 11.85
      vertex 118.7686 118.7686 11.85
      vertex 136.7686 118.7686 11.85
    endloop
  endfacet
  facet normal 0 0 -1
    outer loop
      vertex 136.7686 118.7686 3.125
      vertex 118.7686 118.7686 3.125
      vertex 118.7686 136.7686 3.125
    endloop
  endfacet
  facet normal 0 -0 1
    outer loop
      vertex 136.7686 118.7686 11.85
      vertex 136.7686 130.4686 11.85
      vertex 130.4686 130.4686 11.85
    endloop
  endfacet
  facet normal 0 0 -1
    outer loop
      vertex 130.4686 130.4686 3.125
      vertex 136.7686 130.4686 3.125
      vertex 136.7686 118.7686 3.125
    endloop
  endfacet
  facet normal 0 0 1
    outer loop
      vertex 118.7686 136.7686 11.85
      vertex 136.7686 118.7686 11.85
      vertex 130.4686 130.4686 11.85
    endloop
  endfacet
  facet normal -0 -0 -1
    outer loop
      vertex 130.4686 130.4686 3.125
      vertex 136.7686 118.7686 3.125
      vertex 118.7686 136.7686 3.125
    endloop
  endfacet
  facet normal 0 -0 1
    outer loop
      vertex 130.4686 130.4686 11.85
      vertex 130.4686 136.7686 11.85
      vertex 118.7686 136.7686 11.85
    endloop
  endfacet
  facet normal 0 0 -1
    outer loop
      vertex 118.7686 136.7686 3.125
      vertex 130.4686 136.7686 3.125
      vertex 130.4686 130.4686 3.125
    endloop
  endfacet
  facet normal 0 -1 0
    outer loop
      vertex 118.7686 118.7686 3.125
      vertex 136.7686 118.7686 3.125
      vertex 136.7686 118.7686 11.85
    endloop
  endfacet
  facet normal 0 -1 0
    outer loop
      vertex 118.7686 118.7686 3.125
      vertex 136.7686 118.7686 11.85
      vertex 118.7686 118.7686 11.85
    endloop
  endfacet
  facet normal 1 0 0
    outer loop
      vertex 136.7686 118.7686 3.125
      vertex 136.7686 130.4686 3.125
      vertex 136.7686 130.4686 11.85
    endloop
  endfacet
  facet normal 1 0 0
    outer loop
      vertex 136.7686 118.7686 3.125
      vertex 136.7686 130.4686 11.85
      vertex 136.7686 118.7686 11.85
    endloop
  endfacet
  facet normal 0 1 0
    outer loop
      vertex 136.7686 130.4686 3.125
      vertex 130.4686 130.4686 3.125
      vertex 130.4686 130.4686 11.85
    endloop
  endfacet
  facet normal 0 1 -0
    outer loop
      vertex 136.7686 130.4686 3.125
      vertex 130.4686 130.4686 11.85
      vertex 136.7686 130.4686 11.85
    endloop
  endfacet
  facet normal 1 0 0
    outer loop
      vertex 130.4686 130.4686 3.125
      vertex 130.4686 136.7686 3.125
      vertex 130.4686 136.7686 11.85
    endloop
  endfacet
  facet normal 1 0 0
    outer loop
      vertex 130.4686 130.4686 3.125
      vertex 130.4686 136.7686 11.85
      vertex 130.4686 130.4686 11.85
    endloop
  endfacet
  facet normal 0 1 0
    outer loop
      vertex 130.4686 136.7686 3.125
      vertex 118.7686 136.7686 3.125
      vertex 118.7686 136.7686 11.85
    endloop
  endfacet
  facet normal 0 1 -0
    outer loop
      vertex 130.4686 136.7686 3.125
      vertex 118.7686 136.7686 11.85
      vertex 130.4686 136.7686 11.85
    endloop
  endfacet
  facet normal -1 0 0
    outer loop
      vertex 118.7686 136.7686 3.125
      vertex 118.7686 118.7686 3.125
      vertex 118.7686 118.7686 11.85
    endloop
  endfacet
  facet normal -1 0 0
    outer loop
      vertex 118.7686 136.7686 3.125
      vertex 118.7686 118.7686 11.85
      vertex 118.7686 136.7686 11.85
    endloop
  endfacet
  facet normal 0 0 1
    outer loop
      vertex 118.7686 20 5.925
      vertex 118.7686 2 5.925
      vertex 130.4686 2 5.925
    endloop
  endfacet
  facet normal 0 0 -1
    outer loop
      vertex 130.4686 2 3.125
      vertex 118.7686 2 3.125
      vertex 118.7686 20 3.125
    endloop
  endfacet
  facet normal 0 0 1
    outer loop
      vertex 118.7686 20 5.925
      vertex 130.4686 2 5.925
      vertex 130.4686 8.3 5.925
    endloop
  endfacet
  facet normal -0 -0 -1
    outer loop
      vertex 130.4686 8.3 3.125
      vertex 130.4686 2 3.125
      vertex 118.7686 20 3.125
    endloop
  endfacet
  facet normal 0 0 1
    outer loop
      vertex 118.7686 20 5.925
      vertex 130.4686 8.3 5.925
      vertex 136.7686 8.3 5.925
    endloop
  endfacet
  facet normal 0 0 -1
    outer loop
      vertex 136.7686 8.3 3.125
      vertex 130.4686 8.3 3.125
      vertex 118.7686 20 3.125
    endloop
  endfacet
  facet normal 0 -0 1
    outer loop
      vertex 136.7686 8.3 5.925
      vertex 136.7686 20 5.925
      vertex 118.7686 20 5.925
    endloop
  endfacet
  facet normal 0 0 -1
    outer loop
      vertex 118.7686 20 3.125
      vertex 136.7686 20 3.125
      vertex 136.7686 8.3 3.125
    endloop
  endfacet
  facet normal 0 -1 0
    outer loop
      vertex 118.7686 2 3.125
      vertex 130.4686 2 3.125
      vertex 130.4686 2 5.925
    endloop
  endfacet
  facet normal 0 -1 0
    outer loop
      vertex 118.7686 2 3.125
      vertex 130.4686 2 5.925
      vertex 118.7686 2 5.925
    endloop
  endfacet
  facet normal 1 0 0
    outer loop
      vertex 130.4686 2 3.125
      vertex 130.4686 8.3 3.125
      vertex 130.4686 8.3 5.925
    endloop
  endfacet
  facet normal 1 0 0
    outer loop
      vertex 130.4686 2 3.125
      vertex 130.4686 8.3 5.925
      vertex 130.4686 2 5.925
    endloop
  endfacet
  facet normal 0 -1 0
    outer loop
      vertex 130.4686 8.3 3.125
      vertex 136.7686 8.3 3.125
      vertex 136.7686 8.3 5.925
    endloop
  endfacet
  facet normal 0 -1 0
    outer loop
      vertex 130.4686 8.3 3.125
      vertex 136.7686 8.3 5.925
      vertex 130.4686 8.3 5.925
    endloop
  endfacet
  facet normal 1 0 0
    outer loop
      vertex 136.7686 8.3 3.125
      vertex 136.7686 20 3.125
      vertex 136.7686 20 5.925
    endloop
  endfacet
  facet normal 1 0 0
    outer loop
      vertex 136.7686 8.3 3.125
      vertex 136.7686 20 5.925
      vertex 136.7686 8.3 5.925
    endloop
  endfacet
  facet normal 0 1 0
    outer loop
      vertex 136.7686 20 3.125
      vertex 118.7686 20 3.125
      vertex 118.7686 20 5.925
    endloop
  endfacet
  facet normal 0 1 -0
    outer loop
      vertex 136.7686 20 3.125
      vertex 118.7686 20 5.925
      vertex 136.7686 20 5.925
    endloop
  endfacet
  facet normal -1 0 0
    outer loop
      vertex 118.7686 20 3.125
      vertex 118.7686 2 3.125
      vertex 118.7686 2 5.925
    endloop
  endfacet
  facet normal -1 0 0
    outer loop
      vertex 118.7686 20 3.125
      vertex 118.7686 2 5.925
      vertex 118.7686 20 5.925
    endloop
  endfacet
  facet normal 0 0 1
    outer loop
      vertex 8.3 8.3 11.85
      vertex 8.3 2 11.85
      vertex 20 2 11.85
    endloop
  endfacet
  facet normal 0 0 -1
    outer loop
      vertex 20 2 3.125
      vertex 8.3 2 3.125
      vertex 8.3 8.3 3.125
    endloop
  endfacet
  facet normal -0 0 1
    outer loop
      vertex 8.3 8.3 11.85
      vertex 20 2 11.85
      vertex 20 20 11.85
    endloop
  endfacet
  facet normal 0 -0 -1
    outer loop
      vertex 20 20 3.125
      vertex 20 2 3.125
      vertex 8.3 8.3 3.125
    endloop
  endfacet
  facet normal 0 -0 1
    outer loop
      vertex 8.3 8.3 11.85
      vertex 20 20 11.85
      vertex 2 20 11.85
    endloop
  endfacet
  facet normal 0 0 -1
    outer loop
      vertex 2 20 3.125
      vertex 20 20 3.125
      vertex 8.3 8.3 3.125
    endloop
  endfacet
  facet normal 0 0 1
    outer loop
      vertex 2 20 11.85
      vertex 2 8.3 11.85
      vertex 8.3 8.3 11.85
    endloop
  endfacet
  facet normal 0 0 -1
    outer loop
      vertex 8.3 8.3 3.125
      vertex 2 8.3 3.125
      vertex 2 20 3.125
    endloop
  endfacet
  facet normal 0 -1 0
    outer loop
      vertex 8.3 2 3.125
      vertex 20 2 3.125
      vertex 20 2 11.85
    endloop
  endfacet
  facet normal 0 -1 0
    outer loop
      vertex 8.3 2 3.125
      vertex 20 2 11.85
      vertex 8.3 2 11.85
    endloop
  endfacet
  facet normal 1 0 0
    outer loop
      vertex 20 2 3.125
      vertex 20 20 3.125
      vertex 20 20 11.85
    endloop
  endfacet
  facet normal 1 0 0
    outer loop
      vertex 20 2 3.125
      vertex 20 20 11.85
      vertex 20 2 11.85
    endloop
  endfacet
  facet normal 0 1 0
    outer loop
      vertex 20 20 3.125
      vertex 2 20 3.125
      vertex 2 20 11.85
    endloop
  endfacet
  facet normal 0 1 -0
    outer loop
      vertex 20 20 3.125
      vertex 2 20 11.85
      vertex 20 20 11.85
    endloop
  endfacet
  facet normal -1 0 0
    outer loop
      vertex 2 20 3.125
      vertex 2 8.3 3.125
      vertex 2 8.3 11.85
    endloop
  endfacet
  facet normal -1 0 0
    outer loop
      vertex 2 20 3.125
      vertex 2 8.3 11.85
      vertex 2 20 11.85
    endloop
  endfacet
  facet normal 0 -1 0
    outer loop
      vertex 2 8.3 3.125
      vertex 8.3 8.3 3.125
      vertex 8.3 8.3 11.85
    endloop
  endfacet
  facet normal 0 -1 0
    outer loop
      vertex 2 8.3 3.125
      vertex 8.3 8.3 11.85
      vertex 2 8.3 11.85
    endloop
  endfacet
  facet normal -1 0 0
    outer loop
      vertex 8.3 8.3 3.125
      vertex 8.3 2 3.125
      vertex 8.3 2 11.85
    endloop
  endfacet
  facet normal -1 0 0
    outer loop
      vertex 8.3 8.3 3.125
      vertex 8.3 2 11.85
      vertex 8.3 8.3 11.85
    endloop
  endfacet
  facet normal 0 0 1
    outer loop
      vertex 2 130.4686 5.925
      vertex 2 118.7686 5.925
      vertex 20 118.7686 5.925
    endloop
  endfacet
  facet normal 0 0 -1
    outer loop
      vertex 20 118.7686 3.125
      vertex 2 118.7686 3.125
      vertex 2 130.4686 3.125
    endloop
  endfacet
  facet normal 0 -0 1
    outer loop
      vertex 20 118.7686 5.925
      vertex 20 136.7686 5.925
      vertex 8.3 136.7686 5.925
    endloop
  endfacet
  facet normal 0 0 -1
    outer loop
      vertex 8.3 136.7686 3.125
      vertex 20 136.7686 3.125
      vertex 20 118.7686 3.125
    endloop
  endfacet
  facet normal 0 0 1
    outer loop
      vertex 20 118.7686 5.925
      vertex 8.3 136.7686 5.925
      vertex 8.3 130.4686 5.925
    endloop
  endfacet
  facet normal 0 0 -1
    outer loop
      vertex 8.3 130.4686 3.125
      vertex 8.3 136.7686 3.125
      vertex 20 118.7686 3.125
    endloop
  endfacet
  facet normal 0 0 1
    outer loop
      vertex 20 118.7686 5.925
      vertex 8.3 130.4686 5.925
      vertex 2 130.4686 5.925
    endloop
  endfacet
  facet normal 0 0 -1
    outer loop
      vertex 2 130.4686 3.125
      vertex 8.3 130.4686 3.125
      vertex 20 118.7686 3.125
    endloop
  endfacet
  facet normal 0 -1 0
    outer loop
      vertex 2 118.7686 3.125
      vertex 20 118.7686 3.125
      vertex 20 118.7686 5.925
    endloop
  endfacet
  facet normal 0 -1 0
    outer loop
      vertex 2 118.7686 3.125
      vertex 20 118.7686 5.925
      vertex 2 118.7686 5.925
    endloop
  endfacet
  facet normal 1 0 0
    outer loop
      vertex 20 118.7686 3.125
      vertex 20 136.7686 3.125
      vertex 20 136.7686 5.925
    endloop
  endfacet
  facet normal 1 0 0
    outer loop
      vertex 20 118.7686 3.125
      vertex 20 136.7686 5.925
      vertex 20 118.7686 5.925
    endloop
  endfacet
  facet normal 0 1 0
    outer loop
      vertex 20 136.7686 3.125
      vertex 8.3 136.7686 3.125
      vertex 8.3 136.7686 5.925
    endloop
  endfacet
  facet normal 0 1 -0
    outer loop
      vertex 20 136.7686 3.125
      vertex 8.3 136.7686 5.925
      vertex 20 136.7686 5.925
    endloop
  endfacet
  facet normal -1 0 0
    outer loop
      vertex 8.3 136.7686 3.125
      vertex 8.3 130.4686 3.125
      vertex 8.3 130.4686 5.925
    endloop
  endfacet
  facet normal -1 0 0
    outer loop
      vertex 8.3 136.7686 3.125
      vertex 8.3 130.4686 5.925
      vertex 8.3 136.7686 5.925
    endloop
  endfacet
  facet normal 0 1 0
    outer loop
      vertex 8.3 130.4686 3.125
      vertex 2 130.4686 3.125
      vertex 2 130.4686 5.925
    endloop
  endfacet
  facet normal 0 1 -0
    outer loop
      vertex 8.3 130.4686 3.125
      vertex 2 130.4686 5.925
      vertex 8.3 130.4686 5.925
    endloop
  endfacet
  facet normal -1 0 0
    outer loop
      vertex 2 130.4686 3.125
      vertex 2 118.7686 3.125
      vertex 2 118.7686 5.925
    endloop
  endfacet
  facet normal -1 0 0
    outer loop
      vertex 2 130.4686 3.125
      vertex 2 118.7686 5.925
      vertex 2 130.4686 5.925
    endloop
  endfacet
endsolid temporary_switchback_ramp_layer_15
