solid temporary_switchback_ramp_layer_11
  facet normal 0 0 -1
    outer loop
      vertex 2 174.0181 0
      vertex 174.0181 174.0181 0
      vertex 174.0181 158.3462 0
    endloop
  endfacet
  facet normal 0 0 -1
    outer loop
      vertex 2 174.0181 0
      vertex 174.0181 158.3462 0
      vertex 2 158.3462 0
    endloop
  endfacet
  facet normal 0 0 1
    outer loop
      vertex 2 158.3462 5.925
      vertex 174.0181 158.3462 5.925
      vertex 174.0181 174.0181 5.925
    endloop
  endfacet
  facet normal 0 0 1
    outer loop
      vertex 2 158.3462 5.925
      vertex 174.0181 174.0181 5.925
      vertex 2 174.0181 5.925
    endloop
  endfacet
  facet normal 0 -1 0
    outer loop
      vertex 2 158.3462 0
      vertex 174.0181 158.3462 0
      vertex 174.0181 158.3462 5.925
    endloop
  endfacet
  facet normal 0 -1 0
    outer loop
      vertex 2 158.3462 0
      vertex 174.0181 158.3462 5.925
      vertex 2 158.3462 5.925
    endloop
  endfacet
  facet normal 1 0 0
    outer loop
      vertex 174.0181 158.3462 0
      vertex 174.0181 174.0181 0
      vertex 174.0181 174.0181 5.925
    endloop
  endfacet
  facet normal 1 0 0
    outer loop
      vertex 174.0181 158.3462 0
      vertex 174.0181 174.0181 5.925
      vertex 174.0181 158.3462 5.925
    endloop
  endfacet
  facet normal 0 1 0
    outer loop
      vertex 174.0181 174.0181 0
      vertex 2 174.0181 0
      vertex 2 174.0181 5.925
    endloop
  endfacet
  facet normal 0 1 -0
    outer loop
      vertex 174.0181 174.0181 0
      vertex 2 174.0181 5.925
      vertex 174.0181 174.0181 5.925
    endloop
  endfacet
  facet normal -1 0 0
    outer loop
      vertex 2 174.0181 0
      vertex 2 158.3462 0
      vertex 2 158.3462 5.925
    endloop
  endfacet
  facet normal -1 0 0
    outer loop
      vertex 2 174.0181 0
      vertex 2 158.3462 5.925
      vertex 2 174.0181 5.925
    endloop
  endfacet
  facet normal 0 -0 -1
    outer loop
      vertex 174.0181 174.0181 0
      vertex 174.0181 2 0
      vertex 158.3462 2 0
    endloop
  endfacet
  facet normal -0 0 -1
    outer loop
      vertex 174.0181 174.0181 0
      vertex 158.3462 2 0
      vertex 158.3462 174.0181 0
    endloop
  endfacet
  facet normal 0 0 1
    outer loop
      vertex 158.3462 174.0181 5.925
      vertex 158.3462 2 5.925
      vertex 174.0181 2 5.925
    endloop
  endfacet
  facet normal -0 0 1
    outer loop
      vertex 158.3462 174.0181 5.925
      vertex 174.0181 2 5.925
      vertex 174.0181 174.0181 5.925
    endloop
  endfacet
  facet normal -1 0 0
    outer loop
      vertex 158.3462 174.0181 0
      vertex 158.3462 2 0
      vertex 158.3462 2 5.925
    endloop
  endfacet
  facet normal -1 0 0
    outer loop
      vertex 158.3462 174.0181 0
      vertex 158.3462 2 5.925
      vertex 158.3462 174.0181 5.925
    endloop
  endfacet
  facet normal 0 -1 0
    outer loop
      vertex 158.3462 2 0
      vertex 174.0181 2 0
      vertex 174.0181 2 5.925
    endloop
  endfacet
  facet normal 0 -1 0
    outer loop
      vertex 158.3462 2 0
      vertex 174.0181 2 5.925
      vertex 158.3462 2 5.925
    endloop
  endfacet
  facet normal 1 0 0
    outer loop
      vertex 174.0181 2 0
      vertex 174.0181 174.0181 0
      vertex 174.0181 174.0181 5.925
    endloop
  endfacet
  facet normal 1 0 0
    outer loop
      vertex 174.0181 2 0
      vertex 174.0181 174.0181 5.925
      vertex 174.0181 2 5.925
    endloop
  endfacet
  facet normal 0 1 0
    outer loop
      vertex 174.0181 174.0181 0
      vertex 158.3462 174.0181 0
      vertex 158.3462 174.0181 5.925
    endloop
  endfacet
  facet normal 0 1 -0
    outer loop
      vertex 174.0181 174.0181 0
      vertex 158.3462 174.0181 5.925
      vertex 174.0181 174.0181 5.925
    endloop
  endfacet
  facet normal 0 0 -1
    outer loop
      vertex 174.0181 2 0
      vertex 2 2 0
      vertex 2 17.67191 0
    endloop
  endfacet
  facet normal 0 0 -1
    outer loop
      vertex 174.0181 2 0
      vertex 2 17.67191 0
      vertex 174.0181 17.67191 0
    endloop
  endfacet
  facet normal 0 0 1
    outer loop
      vertex 174.0181 17.67191 5.925
      vertex 2 17.67191 5.925
      vertex 2 2 5.925
    endloop
  endfacet
  facet normal 0 0 1
    outer loop
      vertex 174.0181 17.67191 5.925
      vertex 2 2 5.925
      vertex 174.0181 2 5.925
    endloop
  endfacet
  facet normal 0 1 0
    outer loop
      vertex 174.0181 17.67191 0
      vertex 2 17.67191 0
      vertex 2 17.67191 5.925
    endloop
  endfacet
  facet normal 0 1 -0
    outer loop
      vertex 174.0181 17.67191 0
      vertex 2 17.67191 5.925
      vertex 174.0181 17.67191 5.925
    endloop
  endfacet
  facet normal -1 0 0
    outer loop
      vertex 2 17.67191 0
      vertex 2 2 0
      vertex 2 2 5.925
    endloop
  endfacet
  facet normal -1 0 0
    outer loop
      vertex 2 17.67191 0
      vertex 2 2 5.925
      vertex 2 17.67191 5.925
    endloop
  endfacet
  facet normal 0 -1 0
    outer loop
      vertex 2 2 0
      vertex 174.0181 2 0
      vertex 174.0181 2 5.925
    endloop
  endfacet
  facet normal 0 -1 0
    outer loop
      vertex 2 2 0
      vertex 174.0181 2 5.925
      vertex 2 2 5.925
    endloop
  endfacet
  facet normal 1 0 0
    outer loop
      vertex 174.0181 2 0
      vertex 174.0181 17.67191 0
      vertex 174.0181 17.67191 5.925
    endloop
  endfacet
  facet normal 1 0 0
    outer loop
      vertex 174.0181 2 0
      vertex 174.0181 17.67191 5.925
      vertex 174.0181 2 5.925
    endloop
  endfacet
  facet normal 0 0 -1
    outer loop
      vertex 2 2 0
      vertex 2 174.0181 0
      vertex 17.67191 174.0181 0
    endloop
  endfacet
  facet normal 0 0 -1
    outer loop
      vertex 2 2 0
      vertex 17.67191 174.0181 0
      vertex 17.67191 2 0
    endloop
  endfacet
  facet normal 0 -0 1
    outer loop
      vertex 17.67191 2 5.925
      vertex 17.67191 174.0181 5.925
      vertex 2 174.0181 5.925
    endloop
  endfacet
  facet normal 0 0 1
    outer loop
      vertex 17.67191 2 5.925
      vertex 2 174.0181 5.925
      vertex 2 2 5.925
    endloop
  endfacet
  facet normal 1 0 0
    outer loop
      vertex 17.67191 2 0
      vertex 17.67191 174.0181 0
      vertex 17.67191 174.0181 5.925
    endloop
  endfacet
  facet normal 1 0 0
    outer loop
      vertex 17.67191 2 0
      vertex 17.67191 174.0181 5.925
      vertex 17.67191 2 5.925
    endloop
  endfacet
  facet normal 0 1 0
    outer loop
      vertex 17.67191 174.0181 0
      vertex 2 174.0181 0
      vertex 2 174.0181 5.925
    endloop
  endfacet
  facet normal 0 1 -0
    outer loop
      vertex 17.67191 174.0181 0
      vertex 2 174.0181 5.925
      vertex 17.67191 174.0181 5.925
    endloop
  endfacet
  facet normal -1 0 0
    outer loop
      vertex 2 174.0181 0
      vertex 2 2 0
      vertex 2 2 5.925
    endloop
  endfacet
  facet normal -1 0 0
    outer loop
      vertex 2 174.0181 0
      vertex 2 2 5.925
      vertex 2 174.0181 5.925
    endloop
  endfacet
  facet normal 0 -1 0
    outer loop
      vertex 2 2 0
      vertex 17.67191 2 0
      vertex 17.67191 2 5.925
    endloop
  endfacet
  facet normal 0 -1 0
    outer loop
      vertex 2 2 0
      vertex 17.67191 2 5.925
      vertex 2 2 5.925
    endloop
  endfacet
  facet normal 0 0 1
    outer loop
      vertex 156.0181 174.0181 5.925
      vertex 156.0181 156.0181 5.925
      vertex 174.0181 156.0181 5.925
    endloop
  endfacet
  facet normal 0 0 -1
    outer loop
      vertex 174.0181 156.0181 0
      vertex 156.0181 156.0181 0
      vertex 156.0181 174.0181 0
    endloop
  endfacet
  facet normal 0 -0 1
    outer loop
      vertex 174.0181 156.0181 5.925
      vertex 174.0181 167.7181 5.925
      vertex 167.7181 167.7181 5.925
    endloop
  endfacet
  facet normal 0 0 -1
    outer loop
      vertex 167.7181 167.7181 0
      vertex 174.0181 167.7181 0
      vertex 174.0181 156.0181 0
    endloop
  endfacet
  facet normal 0 0 1
    outer loop
      vertex 156.0181 174.0181 5.925
      vertex 174.0181 156.0181 5.925
      vertex 167.7181 167.7181 5.925
    endloop
  endfacet
  facet normal -0 -0 -1
    outer loop
      vertex 167.7181 167.7181 0
      vertex 174.0181 156.0181 0
      vertex 156.0181 174.0181 0
    endloop
  endfacet
  facet normal 0 -0 1
    outer loop
      vertex 167.7181 167.7181 5.925
      vertex 167.7181 174.0181 5.925
      vertex 156.0181 174.0181 5.925
    endloop
  endfacet
  facet normal 0 0 -1
    outer loop
      vertex 156.0181 174.0181 0
      vertex 167.7181 174.0181 0
      vertex 167.7181 167.7181 0
    endloop
  endfacet
  facet normal 0 -1 0
    outer loop
      vertex 156.0181 156.0181 0
      vertex 174.0181 156.0181 0
      vertex 174.0181 156.0181 5.925
    endloop
  endfacet
  facet normal 0 -1 0
    outer loop
      vertex 156.0181 156.0181 0
      vertex 174.0181 156.0181 5.925
      vertex 156.0181 156.0181 5.925
    endloop
  endfacet
  facet normal 1 0 0
    outer loop
      vertex 174.0181 156.0181 0
      vertex 174.0181 167.7181 0
      vertex 174.0181 167.7181 5.925
    endloop
  endfacet
  facet normal 1 0 0
    outer loop
      vertex 174.0181 156.0181 0
      vertex 174.0181 167.7181 5.925
      vertex 174.0181 156.0181 5.925
    endloop
  endfacet
  facet normal 0 1 0
    outer loop
      vertex 174.0181 167.7181 0
      vertex 167.7181 167.7181 0
      vertex 167.7181 167.7181 5.925
    endloop
  endfacet
  facet normal 0 1 -0
    outer loop
      vertex 174.0181 167.7181 0
      vertex 167.7181 167.7181 5.925
      vertex 174.0181 167.7181 5.925
    endloop
  endfacet
  facet normal 1 0 0
    outer loop
      vertex 167.7181 167.7181 0
      vertex 167.7181 174.0181 0
      vertex 167.7181 174.0181 5.925
    endloop
  endfacet
  facet normal 1 0 0
    outer loop
      vertex 167.7181 167.7181 0
      vertex 167.7181 174.0181 5.925
      vertex 167.7181 167.7181 5.925
    endloop
  endfacet
  facet normal 0 1 0
    outer loop
      vertex 167.7181 174.0181 0
      vertex 156.0181 174.0181 0
      vertex 156.0181 174.0181 5.925
    endloop
  endfacet
  facet normal 0 1 -0
    outer loop
      vertex 167.7181 174.0181 0
      vertex 156.0181 174.0181 5.925
      vertex 167.7181 174.0181 5.925
    endloop
  endfacet
  facet normal -1 0 0
    outer loop
      vertex 156.0181 174.0181 0
      vertex 156.0181 156.0181 0
      vertex 156.0181 156.0181 5.925
    endloop
  endfacet
  facet normal -1 0 0
    outer loop
      vertex 156.0181 174.0181 0
      vertex 156.0181 156.0181 5.925
      vertex 156.0181 174.0181 5.925
    endloop
  endfacet
  facet normal 0 0 1
    outer loop
      vertex 156.0181 20 5.925
      vertex 156.0181 2 5.925
      vertex 167.7181 2 5.925
    endloop
  endfacet
  facet normal 0 0 -1
    outer loop
      vertex 167.7181 2 0
      vertex 156.0181 2 0
      vertex 156.0181 20 0
    endloop
  endfacet
  facet normal 0 0 1
    outer loop
      vertex 156.0181 20 5.925
      vertex 167.7181 2 5.925
      vertex 167.7181 8.3 5.925
    endloop
  endfacet
  facet normal -0 -0 -1
    outer loop
      vertex 167.7181 8.3 0
      vertex 167.7181 2 0
      vertex 156.0181 20 0
    endloop
  endfacet
  facet normal 0 0 1
    outer loop
      vertex 156.0181 20 5.925
      vertex 167.7181 8.3 5.925
      vertex 174.0181 8.3 5.925
    endloop
  endfacet
  facet normal 0 0 -1
    outer loop
      vertex 174.0181 8.3 0
      vertex 167.7181 8.3 0
      vertex 156.0181 20 0
    endloop
  endfacet
  facet normal 0 -0 1
    outer loop
      vertex 174.0181 8.3 5.925
      vertex 174.0181 20 5.925
      vertex 156.0181 20 5.925
    endloop
  endfacet
  facet normal 0 0 -1
    outer loop
      vertex 156.0181 20 0
      vertex 174.0181 20 0
      vertex 174.0181 8.3 0
    endloop
  endfacet
  facet normal 0 -1 0
    outer loop
      vertex 156.0181 2 0
      vertex 167.7181 2 0
      vertex 167.7181 2 5.925
    endloop
  endfacet
  facet normal 0 -1 0
    outer loop
      vertex 156.0181 2 0
      vertex 167.7181 2 5.925
      vertex 156.0181 2 5.925
    endloop
  endfacet
  facet normal 1 0 0
    outer loop
      vertex 167.7181 2 0
      vertex 167.7181 8.3 0
      vertex 167.7181 8.3 5.925
    endloop
  endfacet
  facet normal 1 0 0
    outer loop
      vertex 167.7181 2 0
      vertex 167.7181 8.3 5.925
      vertex 167.7181 2 5.925
    endloop
  endfacet
  facet normal 0 -1 0
    outer loop
      vertex 167.7181 8.3 0
      vertex 174.0181 8.3 0
      vertex 174.0181 8.3 5.925
    endloop
  endfacet
  facet normal 0 -1 0
    outer loop
      vertex 167.7181 8.3 0
      vertex 174.0181 8.3 5.925
      vertex 167.7181 8.3 5.925
    endloop
  endfacet
  facet normal 1 0 0
    outer loop
      vertex 174.0181 8.3 0
      vertex 174.0181 20 0
      vertex 174.0181 20 5.925
    endloop
  endfacet
  facet normal 1 0 0
    outer loop
      vertex 174.0181 8.3 0
      vertex 174.0181 20 5.925
      vertex 174.0181 8.3 5.925
    endloop
  endfacet
  facet normal 0 1 0
    outer loop
      vertex 174.0181 20 0
      vertex 156.0181 20 0
      vertex 156.0181 20 5.925
    endloop
  endfacet
  facet normal 0 1 -0
    outer loop
      vertex 174.0181 20 0
      vertex 156.0181 20 5.925
      vertex 174.0181 20 5.925
    endloop
  endfacet
  facet normal -1 0 0
    outer loop
      vertex 156.0181 20 0
      vertex 156.0181 2 0
      vertex 156.0181 2 5.925
    endloop
  endfacet
  facet normal -1 0 0
    outer loop
      vertex 156.0181 20 0
      vertex 156.0181 2 5.925
      vertex 156.0181 20 5.925
    endloop
  endfacet
  facet normal 0 0 1
    outer loop
      vertex 8.3 8.3 5.925
      vertex 8.3 2 5.925
      vertex 20 2 5.925
    endloop
  endfacet
  facet normal 0 0 -1
    outer loop
      vertex 20 2 0
      vertex 8.3 2 0
      vertex 8.3 8.3 0
    endloop
  endfacet
  facet normal -0 0 1
    outer loop
      vertex 8.3 8.3 5.925
      vertex 20 2 5.925
      vertex 20 20 5.925
    endloop
  endfacet
  facet normal 0 -0 -1
    outer loop
      vertex 20 20 0
      vertex 20 2 0
      vertex 8.3 8.3 0
    endloop
  endfacet
  facet normal 0 -0 1
    outer loop
      vertex 8.3 8.3 5.925
      vertex 20 20 5.925
      vertex 2 20 5.925
    endloop
  endfacet
  facet normal 0 0 -1
    outer loop
      vertex 2 20 0
      vertex 20 20 0
      vertex 8.3 8.3 0
    endloop
  endfacet
  facet normal 0 0 1
    outer loop
      vertex 2 20 5.925
      vertex 2 8.3 5.925
      vertex 8.3 8.3 5.925
    endloop
  endfacet
  facet normal 0 0 -1
    outer loop
      vertex 8.3 8.3 0
      vertex 2 8.3 0
      vertex 2 20 0
    endloop
  endfacet
  facet normal 0 -1 0
    outer loop
      vertex 8.3 2 0
      vertex 20 2 0
      vertex 20 2 5.925
    endloop
  endfacet
  facet normal 0 -1 0
    outer loop
      vertex 8.3 2 0
      vertex 20 2 5.925
      vertex 8.3 2 5.925
    endloop
  endfacet
  facet normal 1 0 0
    outer loop
      vertex 20 2 0
      vertex 20 20 0
      vertex 20 20 5.925
    endloop
  endfacet
  facet normal 1 0 0
    outer loop
      vertex 20 2 0
      vertex 20 20 5.925
      vertex 20 2 5.925
    endloop
  endfacet
  facet normal 0 1 0
    outer loop
      vertex 20 20 0
      vertex 2 20 0
      vertex 2 20 5.925
    endloop
  endfacet
  facet normal 0 1 -0
    outer loop
      vertex 20 20 0
      vertex 2 20 5.925
      vertex 20 20 5.925
    endloop
  endfacet
  facet normal -1 0 0
    outer loop
      vertex 2 20 0
      vertex 2 8.3 0
      vertex 2 8.3 5.925
    endloop
  endfacet
  facet normal -1 0 0
    outer loop
      vertex 2 20 0
      vertex 2 8.3 5.925
      vertex 2 20 5.925
    endloop
  endfacet
  facet normal 0 -1 0
    outer loop
      vertex 2 8.3 0
      vertex 8.3 8.3 0
      vertex 8.3 8.3 5.925
    endloop
  endfacet
  facet normal 0 -1 0
    outer loop
      vertex 2 8.3 0
      vertex 8.3 8.3 5.925
      vertex 2 8.3 5.925
    endloop
  endfacet
  facet normal -1 0 0
    outer loop
      vertex 8.3 8.3 0
      vertex 8.3 2 0
      vertex 8.3 2 5.925
    endloop
  endfacet
  facet normal -1 0 0
    outer loop
      vertex 8.3 8.3 0
      vertex 8.3 2 5.925
      vertex 8.3 8.3 5.925
    endloop
  endfacet
  facet normal 0 0 1
    outer loop
      vertex 2 167.7181 5.925
      vertex 2 156.0181 5.925
      vertex 20 156.0181 5.925
    endloop
  endfacet
  facet normal 0 0 -1
    outer loop
      vertex 20 156.0181 0
      vertex 2 156.0181 0
      vertex 2 167.7181 0
    endloop
  endfacet
  facet normal 0 -0 1
    outer loop
      vertex 20 156.0181 5.925
      vertex 20 174.0181 5.925
      vertex 8.3 174.0181 5.925
    endloop
  endfacet
  facet normal 0 0 -1
    outer loop
      vertex 8.3 174.0181 0
      vertex 20 174.0181 0
      vertex 20 156.0181 0
    endloop
  endfacet
  facet normal 0 0 1
    outer loop
      vertex 20 156.0181 5.925
      vertex 8.3 174.0181 5.925
      vertex 8.3 167.7181 5.925
    endloop
  endfacet
  facet normal 0 0 -1
    outer loop
      vertex 8.3 167.7181 0
      vertex 8.3 174.0181 0
      vertex 20 156.0181 0
    endloop
  endfacet
  facet normal 0 0 1
    outer loop
      vertex 20 156.0181 5.925
      vertex 8.3 167.7181 5.925
      vertex 2 167.7181 5.925
    endloop
  endfacet
  facet normal 0 0 -1
    outer loop
      vertex 2 167.7181 0
      vertex 8.3 167.7181 0
      vertex 20 156.0181 0
    endloop
  endfacet
  facet normal 0 -1 0
    outer loop
      vertex 2 156.0181 0
      vertex 20 156.0181 0
      vertex 20 156.0181 5.925
    endloop
  endfacet
  facet normal 0 -1 0
    outer loop
      vertex 2 156.0181 0
      vertex 20 156.0181 5.925
      vertex 2 156.0181 5.925
    endloop
  endfacet
  facet normal 1 0 0
    outer loop
      vertex 20 156.0181 0
      vertex 20 174.0181 0
      vertex 20 174.0181 5.925
    endloop
  endfacet
  facet normal 1 0 0
    outer loop
      vertex 20 156.0181 0
      vertex 20 174.0181 5.925
      vertex 20 156.0181 5.925
    endloop
  endfacet
  facet normal 0 1 0
    outer loop
      vertex 20 174.0181 0
      vertex 8.3 174.0181 0
      vertex 8.3 174.0181 5.925
    endloop
  endfacet
  facet normal 0 1 -0
    outer loop
      vertex 20 174.0181 0
      vertex 8.3 174.0181 5.925
      vertex 20 174.0181 5.925
    endloop
  endfacet
  facet normal -1 0 0
    outer loop
      vertex 8.3 174.0181 0
      vertex 8.3 167.7181 0
      vertex 8.3 167.7181 5.925
    endloop
  endfacet
  facet normal -1 0 0
    outer loop
      vertex 8.3 174.0181 0
      vertex 8.3 167.7181 5.925
      vertex 8.3 174.0181 5.925
    endloop
  endfacet
  facet normal 0 1 0
    outer loop
      vertex 8.3 167.7181 0
      vertex 2 167.7181 0
      vertex 2 167.7181 5.925
    endloop
  endfacet
  facet normal 0 1 -0
    outer loop
      vertex 8.3 167.7181 0
      vertex 2 167.7181 5.925
      vertex 8.3 167.7181 5.925
    endloop
  endfacet
  facet normal -1 0 0
    outer loop
      vertex 2 167.7181 0
      vertex 2 156.0181 0
      vertex 2 156.0181 5.925
    endloop
  endfacet
  facet normal -1 0 0
    outer loop
      vertex 2 167.7181 0
      vertex 2 156.0181 5.925
      vertex 2 167.7181 5.925
    endloop
  endfacet
  facet normal 0 0 -1
    outer loop
      vertex 20 156.0181 3.125
      vertex 122.0136 174.0181 3.125
      vertex 122.0136 156.0181 3.125
    endloop
  endfacet
  facet normal 0 0 -1
    outer loop
      vertex 20 156.0181 3.125
      vertex 20 174.0181 3.125
      vertex 122.0136 174.0181 3.125
    endloop
  endfacet
  facet normal 0 0 -1
    outer loop
      vertex 122.0136 156.0181 3.125
      vertex 156.0181 174.0181 3.125
      vertex 156.0181 156.0181 3.125
    endloop
  endfacet
  facet normal 0 0 -1
    outer loop
      vertex 122.0136 156.0181 3.125
      vertex 122.0136 174.0181 3.125
      vertex 156.0181 174.0181 3.125
    endloop
  endfacet
  facet normal -0.0579828 0 0.9983176
    outer loop
      vertex 20 156.0181 5.925
      vertex 122.0136 156.0181 11.85
      vertex 122.0136 174.0181 11.85
    endloop
  endfacet
  facet normal -0.0579828 0 0.9983176
    outer loop
      vertex 20 156.0181 5.925
      vertex 122.0136 174.0181 11.85
      vertex 20 174.0181 5.925
    endloop
  endfacet
  facet normal 0 0 1
    outer loop
      vertex 122.0136 156.0181 11.85
      vertex 156.0181 156.0181 11.85
      vertex 156.0181 174.0181 11.85
    endloop
  endfacet
  facet normal 0 0 1
    outer loop
      vertex 122.0136 156.0181 11.85
      vertex 156.0181 174.0181 11.85
      vertex 122.0136 174.0181 11.85
    endloop
  endfacet
  facet normal 0 -1 0
    outer loop
      vertex 20 156.0181 3.125
      vertex 122.0136 156.0181 3.125
      vertex 122.0136 156.0181 11.85
    endloop
  endfacet
  facet normal 0 -1 0
    outer loop
      vertex 20 156.0181 3.125
      vertex 122.0136 156.0181 11.85
      vertex 20 156.0181 5.925
    endloop
  endfacet
  facet normal 0 -1 0
    outer loop
      vertex 122.0136 156.0181 3.125
      vertex 156.0181 156.0181 3.125
      vertex 156.0181 156.0181 11.85
    endloop
  endfacet
  facet normal 0 -1 0
    outer loop
      vertex 122.0136 156.0181 3.125
      vertex 156.0181 156.0181 11.85
      vertex 122.0136 156.0181 11.85
    endloop
  endfacet
  facet normal 0 1 0
    outer loop
      vertex 20 174.0181 3.125
      vertex 122.0136 174.0181 11.85
      vertex 122.0136 174.0181 3.125
    endloop
  endfacet
  facet normal 0 1 0
    outer loop
      vertex 20 174.0181 3.125
      vertex 20 174.0181 5.925
      vertex 122.0136 174.0181 11.85
    endloop
  endfacet
  facet normal 0 1 0
    outer loop
      vertex 122.0136 174.0181 3.125
      vertex 156.0181 174.0181 11.85
      vertex 156.0181 174.0181 3.125
    endloop
  endfacet
  facet normal 0 1 0
    outer loop
      vertex 122.0136 174.0181 3.125
      vertex 122.0136 174.0181 11.85
      vertex 156.0181 174.0181 11.85
    endloop
  endfacet
  facet normal -1 0 0
    outer loop
      vertex 20 174.0181 3.125
      vertex 20 156.0181 3.125
      vertex 20 156.0181 5.925
    endloop
  endfacet
  facet normal -1 0 0
    outer loop
      vertex 20 174.0181 3.125
      vertex 20 156.0181 5.925
      vertex 20 174.0181 5.925
    endloop
  endfacet
  facet normal 1 0 0
    outer loop
      vertex 156.0181 156.0181 3.125
      vertex 156.0181 174.0181 3.125
      vertex 156.0181 174.0181 11.85
    endloop
  endfacet
  facet normal 1 0 0
    outer loop
      vertex 156.0181 156.0181 3.125
      vertex 156.0181 174.0181 11.85
      vertex 156.0181 156.0181 11.85
    endloop
  endfacet
  facet normal 0 0 -1
    outer loop
      vertex 156.0181 20 3.125
      vertex 156.0181 122.0136 3.125
      vertex 174.0181 122.0136 3.125
    endloop
  endfacet
  facet normal 0 0 -1
    outer loop
      vertex 156.0181 20 3.125
      vertex 174.0181 122.0136 3.125
      vertex 174.0181 20 3.125
    endloop
  endfacet
  facet normal 0 0 -1
    outer loop
      vertex 156.0181 122.0136 3.125
      vertex 156.0181 156.0181 3.125
      vertex 174.0181 156.0181 3.125
    endloop
  endfacet
  facet normal 0 0 -1
    outer loop
      vertex 156.0181 122.0136 3.125
      vertex 174.0181 156.0181 3.125
      vertex 174.0181 122.0136 3.125
    endloop
  endfacet
  facet normal 0 -0.0579828 0.9983176
    outer loop
      vertex 156.0181 20 5.925
      vertex 174.0181 122.0136 11.85
      vertex 156.0181 122.0136 11.85
    endloop
  endfacet
  facet normal 0 -0.0579828 0.9983176
    outer loop
      vertex 156.0181 20 5.925
      vertex 174.0181 20 5.925
      vertex 174.0181 122.0136 11.85
    endloop
  endfacet
  facet normal 0 0 1
    outer loop
      vertex 156.0181 122.0136 11.85
      vertex 174.0181 156.0181 11.85
      vertex 156.0181 156.0181 11.85
    endloop
  endfacet
  facet normal 0 0 1
    outer loop
      vertex 156.0181 122.0136 11.85
      vertex 174.0181 122.0136 11.85
      vertex 174.0181 156.0181 11.85
    endloop
  endfacet
  facet normal -1 0 0
    outer loop
      vertex 156.0181 20 3.125
      vertex 156.0181 122.0136 11.85
      vertex 156.0181 122.0136 3.125
    endloop
  endfacet
  facet normal -1 0 0
    outer loop
      vertex 156.0181 20 3.125
      vertex 156.0181 20 5.925
      vertex 156.0181 122.0136 11.85
    endloop
  endfacet
  facet normal -1 0 0
    outer loop
      vertex 156.0181 122.0136 3.125
      vertex 156.0181 156.0181 11.85
      vertex 156.0181 156.0181 3.125
    endloop
  endfacet
  facet normal -1 0 0
    outer loop
      vertex 156.0181 122.0136 3.125
      vertex 156.0181 122.0136 11.85
      vertex 156.0181 156.0181 11.85
    endloop
  endfacet
  facet normal 1 0 0
    outer loop
      vertex 174.0181 20 3.125
      vertex 174.0181 122.0136 3.125
      vertex 174.0181 122.0136 11.85
    endloop
  endfacet
  facet normal 1 0 0
    outer loop
      vertex 174.0181 20 3.125
      vertex 174.0181 122.0136 11.85
      vertex 174.0181 20 5.925
    endloop
  endfacet
  facet normal 1 0 0
    outer loop
      vertex 174.0181 122.0136 3.125
      vertex 174.0181 156.0181 3.125
      vertex 174.0181 156.0181 11.85
    endloop
  endfacet
  facet normal 1 0 0
    outer loop
      vertex 174.0181 122.0136 3.125
      vertex 174.0181 156.0181 11.85
      vertex 174.0181 122.0136 11.85
    endloop
  endfacet
  facet normal 0 -1 0
    outer loop
      vertex 174.0181 20 3.125
      vertex 156.0181 20 5.925
      vertex 156.0181 20 3.125
    endloop
  endfacet
  facet normal 0 -1 0
    outer loop
      vertex 174.0181 20 3.125
      vertex 174.0181 20 5.925
      vertex 156.0181 20 5.925
    endloop
  endfacet
  facet normal 0 1 0
    outer loop
      vertex 156.0181 156.0181 3.125
      vertex 174.0181 156.0181 11.85
      vertex 174.0181 156.0181 3.125
    endloop
  endfacet
  facet normal 0 1 0
    outer loop
      vertex 156.0181 156.0181 3.125
      vertex 156.0181 156.0181 11.85
      vertex 174.0181 156.0181 11.85
    endloop
  endfacet
  facet normal -0 0 -1
    outer loop
      vertex 156.0181 20 3.125
      vertex 54.00452 2 3.125
      vertex 54.00452 20 3.125
    endloop
  endfacet
  facet normal 0 -0 -1
    outer loop
      vertex 156.0181 20 3.125
      vertex 156.0181 2 3.125
      vertex 54.00452 2 3.125
    endloop
  endfacet
  facet normal -0 0 -1
    outer loop
      vertex 54.00452 20 3.125
      vertex 20 2 3.125
      vertex 20 20 3.125
    endloop
  endfacet
  facet normal 0 -0 -1
    outer loop
      vertex 54.00452 20 3.125
      vertex 54.00452 2 3.125
      vertex 20 2 3.125
    endloop
  endfacet
  facet normal 0.0579828 0 0.9983176
    outer loop
      vertex 156.0181 20 5.925
      vertex 54.00452 20 11.85
      vertex 54.00452 2 11.85
    endloop
  endfacet
  facet normal 0.0579828 0 0.9983176
    outer loop
      vertex 156.0181 20 5.925
      vertex 54.00452 2 11.85
      vertex 156.0181 2 5.925
    endloop
  endfacet
  facet normal 0 0 1
    outer loop
      vertex 54.00452 20 11.85
      vertex 20 20 11.85
      vertex 20 2 11.85
    endloop
  endfacet
  facet normal 0 0 1
    outer loop
      vertex 54.00452 20 11.85
      vertex 20 2 11.85
      vertex 54.00452 2 11.85
    endloop
  endfacet
  facet normal 0 1 0
    outer loop
      vertex 156.0181 20 3.125
      vertex 54.00452 20 3.125
      vertex 54.00452 20 11.85
    endloop
  endfacet
  facet normal 0 1 -0
    outer loop
      vertex 156.0181 20 3.125
      vertex 54.00452 20 11.85
      vertex 156.0181 20 5.925
    endloop
  endfacet
  facet normal 0 1 0
    outer loop
      vertex 54.00452 20 3.125
      vertex 20 20 3.125
      vertex 20 20 11.85
    endloop
  endfacet
  facet normal 0 1 -0
    outer loop
      vertex 54.00452 20 3.125
      vertex 20 20 11.85
      vertex 54.00452 20 11.85
    endloop
  endfacet
  facet normal 0 -1 0
    outer loop
      vertex 156.0181 2 3.125
      vertex 54.00452 2 11.85
      vertex 54.00452 2 3.125
    endloop
  endfacet
  facet normal 0 -1 0
    outer loop
      vertex 156.0181 2 3.125
      vertex 156.0181 2 5.925
      vertex 54.00452 2 11.85
    endloop
  endfacet
  facet normal 0 -1 0
    outer loop
      vertex 54.00452 2 3.125
      vertex 20 2 11.85
      vertex 20 2 3.125
    endloop
  endfacet
  facet normal 0 -1 0
    outer loop
      vertex 54.00452 2 3.125
      vertex 54.00452 2 11.85
      vertex 20 2 11.85
    endloop
  endfacet
  facet normal 1 0 0
    outer loop
      vertex 156.0181 2 3.125
      vertex 156.0181 20 3.125
      vertex 156.0181 20 5.925
    endloop
  endfacet
  facet normal 1 0 0
    outer loop
      vertex 156.0181 2 3.125
      vertex 156.0181 20 5.925
      vertex 156.0181 2 5.925
    endloop
  endfacet
  facet normal -1 0 0
    outer loop
      vertex 20 20 3.125
      vertex 20 2 3.125
      vertex 20 2 11.85
    endloop
  endfacet
  facet normal -1 0 0
    outer loop
      vertex 20 20 3.125
      vertex 20 2 11.85
      vertex 20 20 11.85
    endloop
  endfacet
  facet normal 0 -0 -1
    outer loop
      vertex 20 156.0181 3.125
      vertex 20 54.00452 3.125
      vertex 2 54.00452 3.125
    endloop
  endfacet
  facet normal -0 0 -1
    outer loop
      vertex 20 156.0181 3.125
      vertex 2 54.00452 3.125
      vertex 2 156.0181 3.125
    endloop
  endfacet
  facet normal 0 -0 -1
    outer loop
      vertex 20 54.00452 3.125
      vertex 20 20 3.125
      vertex 2 20 3.125
    endloop
  endfacet
  facet normal -0 0 -1
    outer loop
      vertex 20 54.00452 3.125
      vertex 2 20 3.125
      vertex 2 54.00452 3.125
    endloop
  endfacet
  facet normal 0 0.0579828 0.9983176
    outer loop
      vertex 20 156.0181 5.925
      vertex 2 54.00452 11.85
      vertex 20 54.00452 11.85
    endloop
  endfacet
  facet normal 0 0.0579828 0.9983176
    outer loop
      vertex 20 156.0181 5.925
      vertex 2 156.0181 5.925
      vertex 2 54.00452 11.85
    endloop
  endfacet
  facet normal 0 0 1
    outer loop
      vertex 20 54.00452 11.85
      vertex 2 20 11.85
      vertex 20 20 11.85
    endloop
  endfacet
  facet normal 0 0 1
    outer loop
      vertex 20 54.00452 11.85
      vertex 2 54.00452 11.85
      vertex 2 20 11.85
    endloop
  endfacet
  facet normal 1 0 0
    outer loop
      vertex 20 156.0181 3.125
      vertex 20 54.00452 11.85
      vertex 20 54.00452 3.125
    endloop
  endfacet
  facet normal 1 0 -0
    outer loop
      vertex 20 156.0181 3.125
      vertex 20 156.0181 5.925
      vertex 20 54.00452 11.85
    endloop
  endfacet
  facet normal 1 0 0
    outer loop
      vertex 20 54.00452 3.125
      vertex 20 20 11.85
      vertex 20 20 3.125
    endloop
  endfacet
  facet normal 1 0 -0
    outer loop
      vertex 20 54.00452 3.125
      vertex 20 54.00452 11.85
      vertex 20 20 11.85
    endloop
  endfacet
  facet normal -1 0 0
    outer loop
      vertex 2 156.0181 3.125
      vertex 2 54.00452 3.125
      vertex 2 54.00452 11.85
    endloop
  endfacet
  facet normal -1 0 0
    outer loop
      vertex 2 156.0181 3.125
      vertex 2 54.00452 11.85
      vertex 2 156.0181 5.925
    endloop
  endfacet
  facet normal -1 0 0
    outer loop
      vertex 2 54.00452 3.125
      vertex 2 20 3.125
      vertex 2 20 11.85
    endloop
  endfacet
  facet normal -1 0 0
    outer loop
      vertex 2 54.00452 3.125
      vertex 2 20 11.85
      vertex 2 54.00452 11.85
    endloop
  endfacet
  facet normal 0 1 0
    outer loop
      vertex 2 156.0181 3.125
      vertex 20 156.0181 5.925
      vertex 20 156.0181 3.125
    endloop
  endfacet
  facet normal 0 1 0
    outer loop
      vertex 2 156.0181 3.125
      vertex 2 156.0181 5.925
      vertex 20 156.0181 5.925
    endloop
  endfacet
  facet normal 0 -1 0
    outer loop
      vertex 20 20 3.125
      vertex 2 20 11.85
      vertex 2 20 3.125
    endloop
  endfacet
  facet normal 0 -1 0
    outer loop
      vertex 20 20 3.125
      vertex 20 20 11.85
      vertex 2 20 11.85
    endloop
  endfacet
  facet normal 0 0 1
    outer loop
      vertex 156.0181 174.0181 11.85
      vertex 156.0181 156.0181 11.85
      vertex 174.0181 156.0181 11.85
    endloop
  endfacet
  facet normal 0 0 -1
    outer loop
      vertex 174.0181 156.0181 3.125
      vertex 156.0181 156.0181 3.125
      vertex 156.0181 174.0181 3.125
    endloop
  endfacet
  facet normal 0 -0 1
    outer loop
      vertex 174.0181 156.0181 11.85
      vertex 174.0181 167.7181 11.85
      vertex 167.7181 167.7181 11.85
    endloop
  endfacet
  facet normal 0 0 -1
    outer loop
      vertex 167.7181 167.7181 3.125
      vertex 174.0181 167.7181 3.125
      vertex 174.0181 156.0181 3.125
    endloop
  endfacet
  facet normal 0 0 1
    outer loop
      vertex 156.0181 174.0181 11.85
      vertex 174.0181 156.0181 11.85
      vertex 167.7181 167.7181 11.85
    endloop
  endfacet
  facet normal -0 -0 -1
    outer loop
      vertex 167.7181 167.7181 3.125
      vertex 174.0181 156.0181 3.125
      vertex 156.0181 174.0181 3.125
    endloop
  endfacet
  facet normal 0 -0 1
    outer loop
      vertex 167.7181 167.7181 11.85
      vertex 167.7181 174.0181 11.85
      vertex 156.0181 174.0181 11.85
    endloop
  endfacet
  facet normal 0 0 -1
    outer loop
      vertex 156.0181 174.0181 3.125
      vertex 167.7181 174.0181 3.125
      vertex 167.7181 167.7181 3.125
    endloop
  endfacet
  facet normal 0 -1 0
    outer loop
      vertex 156.0181 156.0181 3.125
      vertex 174.0181 156.0181 3.125
      vertex 174.0181 156.0181 11.85
    endloop
  endfacet
  facet normal 0 -1 0
    outer loop
      vertex 156.0181 156.0181 3.125
      vertex 174.0181 156.0181 11.85
      vertex 156.0181 156.0181 11.85
    endloop
  endfacet
  facet normal 1 0 0
    outer loop
      vertex 174.0181 156.0181 3.125
      vertex 174.0181 167.7181 3.125
      vertex 174.0181 167.7181 11.85
    endloop
  endfacet
  facet normal 1 0 0
    outer loop
      vertex 174.0181 156.0181 3.125
      vertex 174.0181 167.7181 11.85
      vertex 174.0181 156.0181 11.85
    endloop
  endfacet
  facet normal 0 1 0
    outer loop
      vertex 174.0181 167.7181 3.125
      vertex 167.7181 167.7181 3.125
      vertex 167.7181 167.7181 11.85
    endloop
  endfacet
  facet normal 0 1 -0
    outer loop
      vertex 174.0181 167.7181 3.125
      vertex 167.7181 167.7181 11.85
      vertex 174.0181 167.7181 11.85
    endloop
  endfacet
  facet normal 1 0 0
    outer loop
      vertex 167.7181 167.7181 3.125
      vertex 167.7181 174.0181 3.125
      vertex 167.7181 174.0181 11.85
    endloop
  endfacet
  facet normal 1 0 0
    outer loop
      vertex 167.7181 167.7181 3.125
      vertex 167.7181 174.0181 11.85
      vertex 167.7181 167.7181 11.85
    endloop
  endfacet
  facet normal 0 1 0
    outer loop
      vertex 167.7181 174.0181 3.125
      vertex 156.0181 174.0181 3.125
      vertex 156.0181 174.0181 11.85
    endloop
  endfacet
  facet normal 0 1 -0
    outer loop
      vertex 167.7181 174.0181 3.125
      vertex 156.0181 174.0181 11.85
      vertex 167.7181 174.0181 11.85
    endloop
  endfacet
  facet normal -1 0 0
    outer loop
      vertex 156.0181 174.0181 3.125
      vertex 156.0181 156.0181 3.125
      vertex 156.0181 156.0181 11.85
    endloop
  endfacet
  facet normal -1 0 0
    outer loop
      vertex 156.0181 174.0181 3.125
      vertex 156.0181 156.0181 11.85
      vertex 156.0181 174.0181 11.85
    endloop
  endfacet
  facet normal 0 0 1
    outer loop
      vertex 156.0181 20 5.925
      vertex 156.0181 2 5.925
      vertex 167.7181 2 5.925
    endloop
  endfacet
  facet normal 0 0 -1
    outer loop
      vertex 167.7181 2 3.125
      vertex 156.0181 2 3.125
      vertex 156.0181 20 3.125
    endloop
  endfacet
  facet normal 0 0 1
    outer loop
      vertex 156.0181 20 5.925
      vertex 167.7181 2 5.925
      vertex 167.7181 8.3 5.925
    endloop
  endfacet
  facet normal -0 -0 -1
    outer loop
      vertex 167.7181 8.3 3.125
      vertex 167.7181 2 3.125
      vertex 156.0181 20 3.125
    endloop
  endfacet
  facet normal 0 0 1
    outer loop
      vertex 156.0181 20 5.925
      vertex 167.7181 8.3 5.925
      vertex 174.0181 8.3 5.925
    endloop
  endfacet
  facet normal 0 0 -1
    outer loop
      vertex 174.0181 8.3 3.125
      vertex 167.7181 8.3 3.125
      vertex 156.0181 20 3.125
    endloop
  endfacet
  facet normal 0 -0 1
    outer loop
      vertex 174.0181 8.3 5.925
      vertex 174.0181 20 5.925
      vertex 156.0181 20 5.925
    endloop
  endfacet
  facet normal 0 0 -1
    outer loop
      vertex 156.0181 20 3.125
      vertex 174.0181 20 3.125
      vertex 174.0181 8.3 3.125
    endloop
  endfacet
  facet normal 0 -1 0
    outer loop
      vertex 156.0181 2 3.125
      vertex 167.7181 2 3.125
      vertex 167.7181 2 5.925
    endloop
  endfacet
  facet normal 0 -1 0
    outer loop
      vertex 156.0181 2 3.125
      vertex 167.7181 2 5.925
      vertex 156.0181 2 5.925
    endloop
  endfacet
  facet normal 1 0 0
    outer loop
      vertex 167.7181 2 3.125
      vertex 167.7181 8.3 3.125
      vertex 167.7181 8.3 5.925
    endloop
  endfacet
  facet normal 1 0 0
    outer loop
      vertex 167.7181 2 3.125
      vertex 167.7181 8.3 5.925
      vertex 167.7181 2 5.925
    endloop
  endfacet
  facet normal 0 -1 0
    outer loop
      vertex 167.7181 8.3 3.125
      vertex 174.0181 8.3 3.125
      vertex 174.0181 8.3 5.925
    endloop
  endfacet
  facet normal 0 -1 0
    outer loop
      vertex 167.7181 8.3 3.125
      vertex 174.0181 8.3 5.925
      vertex 167.7181 8.3 5.925
    endloop
  endfacet
  facet normal 1 0 0
    outer loop
      vertex 174.0181 8.3 3.125
      vertex 174.0181 20 3.125
      vertex 174.0181 20 5.925
    endloop
  endfacet
  facet normal 1 0 0
    outer loop
      vertex 174.0181 8.3 3.125
      vertex 174.0181 20 5.925
      vertex 174.0181 8.3 5.925
    endloop
  endfacet
  facet normal 0 1 0
    outer loop
      vertex 174.0181 20 3.125
      vertex 156.0181 20 3.125
      vertex 156.0181 20 5.925
    endloop
  endfacet
  facet normal 0 1 -0
    outer loop
      vertex 174.0181 20 3.125
      vertex 156.0181 20 5.925
      vertex 174.0181 20 5.925
    endloop
  endfacet
  facet normal -1 0 0
    outer loop
      vertex 156.0181 20 3.125
      vertex 156.0181 2 3.125
      vertex 156.0181 2 5.925
    endloop
  endfacet
  facet normal -1 0 0
    outer loop
      vertex 156.0181 20 3.125
      vertex 156.0181 2 5.925
      vertex 156.0181 20 5.925
    endloop
  endfacet
  facet normal 0 0 1
    outer loop
      vertex 8.3 8.3 11.85
      vertex 8.3 2 11.85
      vertex 20 2 11.85
    endloop
  endfacet
  facet normal 0 0 -1
    outer loop
      vertex 20 2 3.125
      vertex 8.3 2 3.125
      vertex 8.3 8.3 3.125
    endloop
  endfacet
  facet normal -0 0 1
    outer loop
      vertex 8.3 8.3 11.85
      vertex 20 2 11.85
      vertex 20 20 11.85
    endloop
  endfacet
  facet normal 0 -0 -1
    outer loop
      vertex 20 20 3.125
      vertex 20 2 3.125
      vertex 8.3 8.3 3.125
    endloop
  endfacet
  facet normal 0 -0 1
    outer loop
      vertex 8.3 8.3 11.85
      vertex 20 20 11.85
      vertex 2 20 11.85
    endloop
  endfacet
  facet normal 0 0 -1
    outer loop
      vertex 2 20 3.125
      vertex 20 20 3.125
      vertex 8.3 8.3 3.125
    endloop
  endfacet
  facet normal 0 0 1
    outer loop
      vertex 2 20 11.85
      vertex 2 8.3 11.85
      vertex 8.3 8.3 11.85
    endloop
  endfacet
  facet normal 0 0 -1
    outer loop
      vertex 8.3 8.3 3.125
      vertex 2 8.3 3.125
      vertex 2 20 3.125
    endloop
  endfacet
  facet normal 0 -1 0
    outer loop
      vertex 8.3 2 3.125
      vertex 20 2 3.125
      vertex 20 2 11.85
    endloop
  endfacet
  facet normal 0 -1 0
    outer loop
      vertex 8.3 2 3.125
      vertex 20 2 11.85
      vertex 8.3 2 11.85
    endloop
  endfacet
  facet normal 1 0 0
    outer loop
      vertex 20 2 3.125
      vertex 20 20 3.125
      vertex 20 20 11.85
    endloop
  endfacet
  facet normal 1 0 0
    outer loop
      vertex 20 2 3.125
      vertex 20 20 11.85
      vertex 20 2 11.85
    endloop
  endfacet
  facet normal 0 1 0
    outer loop
      vertex 20 20 3.125
      vertex 2 20 3.125
      vertex 2 20 11.85
    endloop
  endfacet
  facet normal 0 1 -0
    outer loop
      vertex 20 20 3.125
      vertex 2 20 11.85
      vertex 20 20 11.85
    endloop
  endfacet
  facet normal -1 0 0
    outer loop
      vertex 2 20 3.125
      vertex 2 8.3 3.125
      vertex 2 8.3 11.85
    endloop
  endfacet
  facet normal -1 0 0
    outer loop
      vertex 2 20 3.125
      vertex 2 8.3 11.85
      vertex 2 20 11.85
    endloop
  endfacet
  facet normal 0 -1 0
    outer loop
      vertex 2 8.3 3.125
      vertex 8.3 8.3 3.125
      vertex 8.3 8.3 11.85
    endloop
  endfacet
  facet normal 0 -1 0
    outer loop
      vertex 2 8.3 3.125
      vertex 8.3 8.3 11.85
      vertex 2 8.3 11.85
    endloop
  endfacet
  facet normal -1 0 0
    outer loop
      vertex 8.3 8.3 3.125
      vertex 8.3 2 3.125
      vertex 8.3 2 11.85
    endloop
  endfacet
  facet normal -1 0 0
    outer loop
      vertex 8.3 8.3 3.125
      vertex 8.3 2 11.85
      vertex 8.3 8.3 11.85
    endloop
  endfacet
  facet normal 0 0 1
    outer loop
      vertex 2 167.7181 5.925
      vertex 2 156.0181 5.925
      vertex 20 156.0181 5.925
    endloop
  endfacet
  facet normal 0 0 -1
    outer loop
      vertex 20 156.0181 3.125
      vertex 2 156.0181 3.125
      vertex 2 167.7181 3.125
    endloop
  endfacet
  facet normal 0 -0 1
    outer loop
      vertex 20 156.0181 5.925
      vertex 20 174.0181 5.925
      vertex 8.3 174.0181 5.925
    endloop
  endfacet
  facet normal 0 0 -1
    outer loop
      vertex 8.3 174.0181 3.125
      vertex 20 174.0181 3.125
      vertex 20 156.0181 3.125
    endloop
  endfacet
  facet normal 0 0 1
    outer loop
      vertex 20 156.0181 5.925
      vertex 8.3 174.0181 5.925
      vertex 8.3 167.7181 5.925
    endloop
  endfacet
  facet normal 0 0 -1
    outer loop
      vertex 8.3 167.7181 3.125
      vertex 8.3 174.0181 3.125
      vertex 20 156.0181 3.125
    endloop
  endfacet
  facet normal 0 0 1
    outer loop
      vertex 20 156.0181 5.925
      vertex 8.3 167.7181 5.925
      vertex 2 167.7181 5.925
    endloop
  endfacet
  facet normal 0 0 -1
    outer loop
      vertex 2 167.7181 3.125
      vertex 8.3 167.7181 3.125
      vertex 20 156.0181 3.125
    endloop
  endfacet
  facet normal 0 -1 0
    outer loop
      vertex 2 156.0181 3.125
      vertex 20 156.0181 3.125
      vertex 20 156.0181 5.925
    endloop
  endfacet
  facet normal 0 -1 0
    outer loop
      vertex 2 156.0181 3.125
      vertex 20 156.0181 5.925
      vertex 2 156.0181 5.925
    endloop
  endfacet
  facet normal 1 0 0
    outer loop
      vertex 20 156.0181 3.125
      vertex 20 174.0181 3.125
      vertex 20 174.0181 5.925
    endloop
  endfacet
  facet normal 1 0 0
    outer loop
      vertex 20 156.0181 3.125
      vertex 20 174.0181 5.925
      vertex 20 156.0181 5.925
    endloop
  endfacet
  facet normal 0 1 0
    outer loop
      vertex 20 174.0181 3.125
      vertex 8.3 174.0181 3.125
      vertex 8.3 174.0181 5.925
    endloop
  endfacet
  facet normal 0 1 -0
    outer loop
      vertex 20 174.0181 3.125
      vertex 8.3 174.0181 5.925
      vertex 20 174.0181 5.925
    endloop
  endfacet
  facet normal -1 0 0
    outer loop
      vertex 8.3 174.0181 3.125
      vertex 8.3 167.7181 3.125
      vertex 8.3 167.7181 5.925
    endloop
  endfacet
  facet normal -1 0 0
    outer loop
      vertex 8.3 174.0181 3.125
      vertex 8.3 167.7181 5.925
      vertex 8.3 174.0181 5.925
    endloop
  endfacet
  facet normal 0 1 0
    outer loop
      vertex 8.3 167.7181 3.125
      vertex 2 167.7181 3.125
      vertex 2 167.7181 5.925
    endloop
  endfacet
  facet normal 0 1 -0
    outer loop
      vertex 8.3 167.7181 3.125
      vertex 2 167.7181 5.925
      vertex 8.3 167.7181 5.925
    endloop
  endfacet
  facet normal -1 0 0
    outer loop
      vertex 2 167.7181 3.125
      vertex 2 156.0181 3.125
      vertex 2 156.0181 5.925
    endloop
  endfacet
  facet normal -1 0 0
    outer loop
      vertex 2 167.7181 3.125
      vertex 2 156.0181 5.925
      vertex 2 167.7181 5.925
    endloop
  endfacet
endsolid temporary_switchback_ramp_layer_11
