solid internal_chambers_layer_03
  facet normal 0 0.8980276 -0.4399392
    outer loop
      vertex 3.424752 40.38935 1.032732
      vertex 4.574752 40.38935 1.032732
      vertex 4.574752 39.88342 0
    endloop
  endfacet
  facet normal 0 0.8980276 -0.4399392
    outer loop
      vertex 3.424752 40.38935 1.032732
      vertex 4.574752 39.88342 0
      vertex 3.424752 39.88342 0
    endloop
  endfacet
  facet normal 0 -0.8980276 0.4399392
    outer loop
      vertex 3.424752 34.29024 2.740069
      vertex 4.574752 34.29024 2.740069
      vertex 4.574752 34.79617 3.7728
    endloop
  endfacet
  facet normal 0 -0.8980276 0.4399392
    outer loop
      vertex 3.424752 34.29024 2.740069
      vertex 4.574752 34.79617 3.7728
      vertex 3.424752 34.79617 3.7728
    endloop
  endfacet
  facet normal 0 0.4399392 0.8980276
    outer loop
      vertex 3.424752 40.38935 1.032732
      vertex 3.424752 34.79617 3.7728
      vertex 4.574752 34.79617 3.7728
    endloop
  endfacet
  facet normal -0 0.4399392 0.8980276
    outer loop
      vertex 3.424752 40.38935 1.032732
      vertex 4.574752 34.79617 3.7728
      vertex 4.574752 40.38935 1.032732
    endloop
  endfacet
  facet normal 1 0 0
    outer loop
      vertex 4.574752 40.38935 1.032732
      vertex 4.574752 34.79617 3.7728
      vertex 4.574752 34.29024 2.740069
    endloop
  endfacet
  facet normal 1 0 0
    outer loop
      vertex 4.574752 40.38935 1.032732
      vertex 4.574752 34.29024 2.740069
      vertex 4.574752 39.88342 0
    endloop
  endfacet
  facet normal 0 -0.4399392 -0.8980276
    outer loop
      vertex 4.574752 39.88342 0
      vertex 4.574752 34.29024 2.740069
      vertex 3.424752 34.29024 2.740069
    endloop
  endfacet
  facet normal -0 -0.4399392 -0.8980276
    outer loop
      vertex 4.574752 39.88342 0
      vertex 3.424752 34.29024 2.740069
      vertex 3.424752 39.88342 0
    endloop
  endfacet
  facet normal -1 0 0
    outer loop
      vertex 3.424752 39.88342 0
      vertex 3.424752 34.29024 2.740069
      vertex 3.424752 34.79617 3.7728
    endloop
  endfacet
  facet normal -1 0 0
    outer loop
      vertex 3.424752 39.88342 0
      vertex 3.424752 34.79617 3.7728
      vertex 3.424752 40.38935 1.032732
    endloop
  endfacet
  facet normal 0 0.9999483 -0.01017229
    outer loop
      vertex 3.424752 34.54905 3.831405
      vertex 4.574752 34.54905 3.831405
      vertex 4.574752 34.53736 2.681464
    endloop
  endfacet
  facet normal 0 0.9999483 -0.01017229
    outer loop
      vertex 3.424752 34.54905 3.831405
      vertex 4.574752 34.53736 2.681464
      vertex 3.424752 34.53736 2.681464
    endloop
  endfacet
  facet normal 0 -0.9999483 0.01017229
    outer loop
      vertex 3.424752 7.536923 2.956135
      vertex 4.574752 7.536923 2.956135
      vertex 4.574752 7.548622 4.106075
    endloop
  endfacet
  facet normal 0 -0.9999483 0.01017229
    outer loop
      vertex 3.424752 7.536923 2.956135
      vertex 4.574752 7.548622 4.106075
      vertex 3.424752 7.548622 4.106075
    endloop
  endfacet
  facet normal 0 0.01017229 0.9999483
    outer loop
      vertex 3.424752 34.54905 3.831405
      vertex 3.424752 7.548622 4.106075
      vertex 4.574752 7.548622 4.106075
    endloop
  endfacet
  facet normal -0 0.01017229 0.9999483
    outer loop
      vertex 3.424752 34.54905 3.831405
      vertex 4.574752 7.548622 4.106075
      vertex 4.574752 34.54905 3.831405
    endloop
  endfacet
  facet normal 1 0 0
    outer loop
      vertex 4.574752 34.54905 3.831405
      vertex 4.574752 7.548622 4.106075
      vertex 4.574752 7.536923 2.956135
    endloop
  endfacet
  facet normal 1 0 0
    outer loop
      vertex 4.574752 34.54905 3.831405
      vertex 4.574752 7.536923 2.956135
      vertex 4.574752 34.53736 2.681464
    endloop
  endfacet
  facet normal 0 -0.01017229 -0.9999483
    outer loop
      vertex 4.574752 34.53736 2.681464
      vertex 4.574752 7.536923 2.956135
      vertex 3.424752 7.536923 2.956135
    endloop
  endfacet
  facet normal -0 -0.01017229 -0.9999483
    outer loop
      vertex 4.574752 34.53736 2.681464
      vertex 3.424752 7.536923 2.956135
      vertex 3.424752 34.53736 2.681464
    endloop
  endfacet
  facet normal -1 0 0
    outer loop
      vertex 3.424752 34.53736 2.681464
      vertex 3.424752 7.536923 2.956135
      vertex 3.424752 7.548622 4.106075
    endloop
  endfacet
  facet normal -1 0 0
    outer loop
      vertex 3.424752 34.53736 2.681464
      vertex 3.424752 7.548622 4.106075
      vertex 3.424752 34.54905 3.831405
    endloop
  endfacet
  facet normal 0 0 -1
    outer loop
      vertex 2 7.542772 2.663097
      vertex 5.999504 7.542772 2.663097
      vertex 5.999504 3.90686 2.663097
    endloop
  endfacet
  facet normal 0 0 -1
    outer loop
      vertex 2 7.542772 2.663097
      vertex 5.999504 3.90686 2.663097
      vertex 2 3.90686 2.663097
    endloop
  endfacet
  facet normal 0 0 1
    outer loop
      vertex 2 3.90686 4.885198
      vertex 5.999504 3.90686 4.885198
      vertex 5.999504 7.542772 4.885198
    endloop
  endfacet
  facet normal 0 0 1
    outer loop
      vertex 2 3.90686 4.885198
      vertex 5.999504 7.542772 4.885198
      vertex 2 7.542772 4.885198
    endloop
  endfacet
  facet normal 0 -1 0
    outer loop
      vertex 2 3.90686 2.663097
      vertex 5.999504 3.90686 2.663097
      vertex 5.999504 3.90686 4.885198
    endloop
  endfacet
  facet normal 0 -1 0
    outer loop
      vertex 2 3.90686 2.663097
      vertex 5.999504 3.90686 4.885198
      vertex 2 3.90686 4.885198
    endloop
  endfacet
  facet normal 1 0 0
    outer loop
      vertex 5.999504 3.90686 2.663097
      vertex 5.999504 7.542772 2.663097
      vertex 5.999504 7.542772 4.885198
    endloop
  endfacet
  facet normal 1 0 0
    outer loop
      vertex 5.999504 3.90686 2.663097
      vertex 5.999504 7.542772 4.885198
      vertex 5.999504 3.90686 4.885198
    endloop
  endfacet
  facet normal 0 1 0
    outer loop
      vertex 5.999504 7.542772 2.663097
      vertex 2 7.542772 2.663097
      vertex 2 7.542772 4.885198
    endloop
  endfacet
  facet normal 0 1 -0
    outer loop
      vertex 5.999504 7.542772 2.663097
      vertex 2 7.542772 4.885198
      vertex 5.999504 7.542772 4.885198
    endloop
  endfacet
  facet normal -1 0 0
    outer loop
      vertex 2 7.542772 2.663097
      vertex 2 3.90686 2.663097
      vertex 2 3.90686 4.885198
    endloop
  endfacet
  facet normal -1 0 0
    outer loop
      vertex 2 7.542772 2.663097
      vertex 2 3.90686 4.885198
      vertex 2 7.542772 4.885198
    endloop
  endfacet
  facet normal 0 0 -1
    outer loop
      vertex 2 7.542772 4.885198
      vertex 5.999504 7.542772 4.885198
      vertex 5.999504 3.90686 4.885198
    endloop
  endfacet
  facet normal 0 0 -1
    outer loop
      vertex 2 7.542772 4.885198
      vertex 5.999504 3.90686 4.885198
      vertex 2 3.90686 4.885198
    endloop
  endfacet
  facet normal 0 0 1
    outer loop
      vertex 2 3.90686 5.925
      vertex 5.999504 3.90686 5.925
      vertex 5.999504 7.542772 5.925
    endloop
  endfacet
  facet normal 0 0 1
    outer loop
      vertex 2 3.90686 5.925
      vertex 5.999504 7.542772 5.925
      vertex 2 7.542772 5.925
    endloop
  endfacet
  facet normal 0 -1 0
    outer loop
      vertex 2 3.90686 4.885198
      vertex 5.999504 3.90686 4.885198
      vertex 5.999504 3.90686 5.925
    endloop
  endfacet
  facet normal 0 -1 0
    outer loop
      vertex 2 3.90686 4.885198
      vertex 5.999504 3.90686 5.925
      vertex 2 3.90686 5.925
    endloop
  endfacet
  facet normal 1 0 0
    outer loop
      vertex 5.999504 3.90686 4.885198
      vertex 5.999504 7.542772 4.885198
      vertex 5.999504 7.542772 5.925
    endloop
  endfacet
  facet normal 1 0 0
    outer loop
      vertex 5.999504 3.90686 4.885198
      vertex 5.999504 7.542772 5.925
      vertex 5.999504 3.90686 5.925
    endloop
  endfacet
  facet normal 0 1 0
    outer loop
      vertex 5.999504 7.542772 4.885198
      vertex 2 7.542772 4.885198
      vertex 2 7.542772 5.925
    endloop
  endfacet
  facet normal 0 1 -0
    outer loop
      vertex 5.999504 7.542772 4.885198
      vertex 2 7.542772 5.925
      vertex 5.999504 7.542772 5.925
    endloop
  endfacet
  facet normal -1 0 0
    outer loop
      vertex 2 7.542772 4.885198
      vertex 2 3.90686 4.885198
      vertex 2 3.90686 5.925
    endloop
  endfacet
  facet normal -1 0 0
    outer loop
      vertex 2 7.542772 4.885198
      vertex 2 3.90686 5.925
      vertex 2 7.542772 5.925
    endloop
  endfacet
  facet normal 0 -0.8123328 -0.5831942
    outer loop
      vertex 3.424752 7.878109 3.862581
      vertex 4.574752 7.878109 3.862581
      vertex 4.574752 7.207436 4.796764
    endloop
  endfacet
  facet normal 0 -0.8123328 -0.5831942
    outer loop
      vertex 3.424752 7.878109 3.862581
      vertex 4.574752 7.207436 4.796764
      vertex 3.424752 7.207436 4.796764
    endloop
  endfacet
  facet normal -0 0.8123328 0.5831942
    outer loop
      vertex 3.424752 8.778959 5.925
      vertex 4.574752 8.778959 5.925
      vertex 4.574752 9.449632 4.990817
    endloop
  endfacet
  facet normal 0 0.8123328 0.5831942
    outer loop
      vertex 3.424752 8.778959 5.925
      vertex 4.574752 9.449632 4.990817
      vertex 3.424752 9.449632 4.990817
    endloop
  endfacet
  facet normal 0 0.5831942 -0.8123328
    outer loop
      vertex 3.424752 7.878109 3.862581
      vertex 3.424752 9.449632 4.990817
      vertex 4.574752 9.449632 4.990817
    endloop
  endfacet
  facet normal 0 0.5831942 -0.8123328
    outer loop
      vertex 3.424752 7.878109 3.862581
      vertex 4.574752 9.449632 4.990817
      vertex 4.574752 7.878109 3.862581
    endloop
  endfacet
  facet normal 1 0 0
    outer loop
      vertex 4.574752 7.878109 3.862581
      vertex 4.574752 9.449632 4.990817
      vertex 4.574752 8.778959 5.925
    endloop
  endfacet
  facet normal 1 0 -0
    outer loop
      vertex 4.574752 7.878109 3.862581
      vertex 4.574752 8.778959 5.925
      vertex 4.574752 7.207436 4.796764
    endloop
  endfacet
  facet normal 0 -0.5831942 0.8123328
    outer loop
      vertex 4.574752 7.207436 4.796764
      vertex 4.574752 8.778959 5.925
      vertex 3.424752 8.778959 5.925
    endloop
  endfacet
  facet normal 0 -0.5831942 0.8123328
    outer loop
      vertex 4.574752 7.207436 4.796764
      vertex 3.424752 8.778959 5.925
      vertex 3.424752 7.207436 4.796764
    endloop
  endfacet
  facet normal -1 0 0
    outer loop
      vertex 3.424752 7.207436 4.796764
      vertex 3.424752 8.778959 5.925
      vertex 3.424752 9.449632 4.990817
    endloop
  endfacet
  facet normal -1 0 0
    outer loop
      vertex 3.424752 7.207436 4.796764
      vertex 3.424752 9.449632 4.990817
      vertex 3.424752 7.878109 3.862581
    endloop
  endfacet
  facet normal 0 0.8123328 -0.5831942
    outer loop
      vertex 3.424752 4.242196 4.796764
      vertex 4.574752 4.242196 4.796764
      vertex 4.574752 3.571523 3.862581
    endloop
  endfacet
  facet normal 0 0.8123328 -0.5831942
    outer loop
      vertex 3.424752 4.242196 4.796764
      vertex 4.574752 3.571523 3.862581
      vertex 3.424752 3.571523 3.862581
    endloop
  endfacet
  facet normal 0 -0.8123328 0.5831942
    outer loop
      vertex 3.424752 2 4.990817
      vertex 4.574752 2 4.990817
      vertex 4.574752 2.670673 5.925
    endloop
  endfacet
  facet normal 0 -0.8123328 0.5831942
    outer loop
      vertex 3.424752 2 4.990817
      vertex 4.574752 2.670673 5.925
      vertex 3.424752 2.670673 5.925
    endloop
  endfacet
  facet normal 0 0.5831942 0.8123328
    outer loop
      vertex 3.424752 4.242196 4.796764
      vertex 3.424752 2.670673 5.925
      vertex 4.574752 2.670673 5.925
    endloop
  endfacet
  facet normal -0 0.5831942 0.8123328
    outer loop
      vertex 3.424752 4.242196 4.796764
      vertex 4.574752 2.670673 5.925
      vertex 4.574752 4.242196 4.796764
    endloop
  endfacet
  facet normal 1 0 0
    outer loop
      vertex 4.574752 4.242196 4.796764
      vertex 4.574752 2.670673 5.925
      vertex 4.574752 2 4.990817
    endloop
  endfacet
  facet normal 1 0 0
    outer loop
      vertex 4.574752 4.242196 4.796764
      vertex 4.574752 2 4.990817
      vertex 4.574752 3.571523 3.862581
    endloop
  endfacet
  facet normal 0 -0.5831942 -0.8123328
    outer loop
      vertex 4.574752 3.571523 3.862581
      vertex 4.574752 2 4.990817
      vertex 3.424752 2 4.990817
    endloop
  endfacet
  facet normal -0 -0.5831942 -0.8123328
    outer loop
      vertex 4.574752 3.571523 3.862581
      vertex 3.424752 2 4.990817
      vertex 3.424752 3.571523 3.862581
    endloop
  endfacet
  facet normal -1 0 0
    outer loop
      vertex 3.424752 3.571523 3.862581
      vertex 3.424752 2 4.990817
      vertex 3.424752 2.670673 5.925
    endloop
  endfacet
  facet normal -1 0 0
    outer loop
      vertex 3.424752 3.571523 3.862581
      vertex 3.424752 2.670673 5.925
      vertex 3.424752 4.242196 4.796764
    endloop
  endfacet
endsolid internal_chambers_layer_03
