solid internal_chambers_layer_08
  facet normal 0 -0.9001448 -0.4355909
    outer loop
      vertex 2 61.38509 0
      vertex 3.15 61.38509 0
      vertex 3.15 60.88417 1.035166
    endloop
  endfacet
  facet normal 0 -0.9001448 -0.4355909
    outer loop
      vertex 2 61.38509 0
      vertex 3.15 60.88417 1.035166
      vertex 2 60.88417 1.035166
    endloop
  endfacet
  facet normal -0 0.9001448 0.4355909
    outer loop
      vertex 2 70.98896 5.925
      vertex 3.15 70.98896 5.925
      vertex 3.15 71.48989 4.889834
    endloop
  endfacet
  facet normal 0 0.9001448 0.4355909
    outer loop
      vertex 2 70.98896 5.925
      vertex 3.15 71.48989 4.889834
      vertex 2 71.48989 4.889834
    endloop
  endfacet
  facet normal 0 0.4355909 -0.9001448
    outer loop
      vertex 2 61.38509 0
      vertex 2 71.48989 4.889834
      vertex 3.15 71.48989 4.889834
    endloop
  endfacet
  facet normal 0 0.4355909 -0.9001448
    outer loop
      vertex 2 61.38509 0
      vertex 3.15 71.48989 4.889834
      vertex 3.15 61.38509 0
    endloop
  endfacet
  facet normal 1 0 0
    outer loop
      vertex 3.15 61.38509 0
      vertex 3.15 71.48989 4.889834
      vertex 3.15 70.98896 5.925
    endloop
  endfacet
  facet normal 1 0 -0
    outer loop
      vertex 3.15 61.38509 0
      vertex 3.15 70.98896 5.925
      vertex 3.15 60.88417 1.035166
    endloop
  endfacet
  facet normal 0 -0.4355909 0.9001448
    outer loop
      vertex 3.15 60.88417 1.035166
      vertex 3.15 70.98896 5.925
      vertex 2 70.98896 5.925
    endloop
  endfacet
  facet normal 0 -0.4355909 0.9001448
    outer loop
      vertex 3.15 60.88417 1.035166
      vertex 2 70.98896 5.925
      vertex 2 60.88417 1.035166
    endloop
  endfacet
  facet normal -1 0 0
    outer loop
      vertex 2 60.88417 1.035166
      vertex 2 70.98896 5.925
      vertex 2 71.48989 4.889834
    endloop
  endfacet
  facet normal -1 0 0
    outer loop
      vertex 2 60.88417 1.035166
      vertex 2 71.48989 4.889834
      vertex 2 61.38509 0
    endloop
  endfacet
  facet normal 0 0.8873015 -0.4611899
    outer loop
      vertex 2 11.96653 1.020397
      vertex 3.15 11.96653 1.020397
      vertex 3.15 11.43616 0
    endloop
  endfacet
  facet normal 0 0.8873015 -0.4611899
    outer loop
      vertex 2 11.96653 1.020397
      vertex 3.15 11.43616 0
      vertex 2 11.43616 0
    endloop
  endfacet
  facet normal 0 -0.8873015 0.4611899
    outer loop
      vertex 2 2 4.904603
      vertex 3.15 2 4.904603
      vertex 3.15 2.530368 5.925
    endloop
  endfacet
  facet normal 0 -0.8873015 0.4611899
    outer loop
      vertex 2 2 4.904603
      vertex 3.15 2.530368 5.925
      vertex 2 2.530368 5.925
    endloop
  endfacet
  facet normal 0 0.4611899 0.8873015
    outer loop
      vertex 2 11.96653 1.020397
      vertex 2 2.530368 5.925
      vertex 3.15 2.530368 5.925
    endloop
  endfacet
  facet normal -0 0.4611899 0.8873015
    outer loop
      vertex 2 11.96653 1.020397
      vertex 3.15 2.530368 5.925
      vertex 3.15 11.96653 1.020397
    endloop
  endfacet
  facet normal 1 0 0
    outer loop
      vertex 3.15 11.96653 1.020397
      vertex 3.15 2.530368 5.925
      vertex 3.15 2 4.904603
    endloop
  endfacet
  facet normal 1 0 0
    outer loop
      vertex 3.15 11.96653 1.020397
      vertex 3.15 2 4.904603
      vertex 3.15 11.43616 0
    endloop
  endfacet
  facet normal 0 -0.4611899 -0.8873015
    outer loop
      vertex 3.15 11.43616 0
      vertex 3.15 2 4.904603
      vertex 2 2 4.904603
    endloop
  endfacet
  facet normal -0 -0.4611899 -0.8873015
    outer loop
      vertex 3.15 11.43616 0
      vertex 2 2 4.904603
      vertex 2 11.43616 0
    endloop
  endfacet
  facet normal -1 0 0
    outer loop
      vertex 2 11.43616 0
      vertex 2 2 4.904603
      vertex 2 2.530368 5.925
    endloop
  endfacet
  facet normal -1 0 0
    outer loop
      vertex 2 11.43616 0
      vertex 2 2.530368 5.925
      vertex 2 11.96653 1.020397
    endloop
  endfacet
endsolid internal_chambers_layer_08
