solid internal_chambers_layer_02
  facet normal -0 0.8944276 0.4472128
    outer loop
      vertex 2 35.23548 5.925
      vertex 3.15 35.23548 5.925
      vertex 3.15 35.74977 4.896408
    endloop
  endfacet
  facet normal 0 0.8944276 0.4472128
    outer loop
      vertex 2 35.23548 5.925
      vertex 3.15 35.74977 4.896408
      vertex 2 35.74977 4.896408
    endloop
  endfacet
  facet normal 0 -0.8944276 -0.4472128
    outer loop
      vertex 2 25.95694 0
      vertex 3.15 25.95694 0
      vertex 3.15 25.44264 1.028592
    endloop
  endfacet
  facet normal 0 -0.8944276 -0.4472128
    outer loop
      vertex 2 25.95694 0
      vertex 3.15 25.44264 1.028592
      vertex 2 25.44264 1.028592
    endloop
  endfacet
  facet normal 0 -0.4472128 0.8944276
    outer loop
      vertex 2 35.23548 5.925
      vertex 2 25.44264 1.028592
      vertex 3.15 25.44264 1.028592
    endloop
  endfacet
  facet normal 0 -0.4472128 0.8944276
    outer loop
      vertex 2 35.23548 5.925
      vertex 3.15 25.44264 1.028592
      vertex 3.15 35.23548 5.925
    endloop
  endfacet
  facet normal 1 0 0
    outer loop
      vertex 3.15 35.23548 5.925
      vertex 3.15 25.44264 1.028592
      vertex 3.15 25.95694 0
    endloop
  endfacet
  facet normal 1 0 0
    outer loop
      vertex 3.15 35.23548 5.925
      vertex 3.15 25.95694 0
      vertex 3.15 35.74977 4.896408
    endloop
  endfacet
  facet normal 0 0.4472128 -0.8944276
    outer loop
      vertex 3.15 35.74977 4.896408
      vertex 3.15 25.95694 0
      vertex 2 25.95694 0
    endloop
  endfacet
  facet normal 0 0.4472128 -0.8944276
    outer loop
      vertex 3.15 35.74977 4.896408
      vertex 2 25.95694 0
      vertex 2 35.74977 4.896408
    endloop
  endfacet
  facet normal -1 0 0
    outer loop
      vertex 2 35.74977 4.896408
      vertex 2 25.95694 0
      vertex 2 25.44264 1.028592
    endloop
  endfacet
  facet normal -1 -0 0
    outer loop
      vertex 2 35.74977 4.896408
      vertex 2 25.44264 1.028592
      vertex 2 35.23548 5.925
    endloop
  endfacet
  facet normal 0 0.8980276 -0.4399392
    outer loop
      vertex 2 12.49229 1.032732
      vertex 3.15 12.49229 1.032732
      vertex 3.15 11.98636 0
    endloop
  endfacet
  facet normal 0 0.8980276 -0.4399392
    outer loop
      vertex 2 12.49229 1.032732
      vertex 3.15 11.98636 0
      vertex 2 11.98636 0
    endloop
  endfacet
  facet normal 0 -0.8980276 0.4399392
    outer loop
      vertex 2 2 4.892268
      vertex 3.15 2 4.892268
      vertex 3.15 2.50593 5.925
    endloop
  endfacet
  facet normal 0 -0.8980276 0.4399392
    outer loop
      vertex 2 2 4.892268
      vertex 3.15 2.50593 5.925
      vertex 2 2.50593 5.925
    endloop
  endfacet
  facet normal 0 0.4399392 0.8980276
    outer loop
      vertex 2 12.49229 1.032732
      vertex 2 2.50593 5.925
      vertex 3.15 2.50593 5.925
    endloop
  endfacet
  facet normal -0 0.4399392 0.8980276
    outer loop
      vertex 2 12.49229 1.032732
      vertex 3.15 2.50593 5.925
      vertex 3.15 12.49229 1.032732
    endloop
  endfacet
  facet normal 1 0 0
    outer loop
      vertex 3.15 12.49229 1.032732
      vertex 3.15 2.50593 5.925
      vertex 3.15 2 4.892268
    endloop
  endfacet
  facet normal 1 0 0
    outer loop
      vertex 3.15 12.49229 1.032732
      vertex 3.15 2 4.892268
      vertex 3.15 11.98636 0
    endloop
  endfacet
  facet normal 0 -0.4399392 -0.8980276
    outer loop
      vertex 3.15 11.98636 0
      vertex 3.15 2 4.892268
      vertex 2 2 4.892268
    endloop
  endfacet
  facet normal -0 -0.4399392 -0.8980276
    outer loop
      vertex 3.15 11.98636 0
      vertex 2 2 4.892268
      vertex 2 11.98636 0
    endloop
  endfacet
  facet normal -1 0 0
    outer loop
      vertex 2 11.98636 0
      vertex 2 2 4.892268
      vertex 2 2.50593 5.925
    endloop
  endfacet
  facet normal -1 0 0
    outer loop
      vertex 2 11.98636 0
      vertex 2 2.50593 5.925
      vertex 2 12.49229 1.032732
    endloop
  endfacet
endsolid internal_chambers_layer_02
