solid internal_chambers_layer_05
  facet normal 0 0.8980276 -0.4399392
    outer loop
      vertex 2 29.34754 5.362928
      vertex 3.454365 29.34754 5.362928
      vertex 3.454365 26.72027 0
    endloop
  endfacet
  facet normal 0 0.8980276 -0.4399392
    outer loop
      vertex 2 29.34754 5.362928
      vertex 3.454365 26.72027 0
      vertex 2 26.72027 0
    endloop
  endfacet
  facet normal 0 -0.8980276 0.4399392
    outer loop
      vertex 2 25.57294 0.5620724
      vertex 3.454365 25.57294 0.5620724
      vertex 3.454365 28.20021 5.925
    endloop
  endfacet
  facet normal 0 -0.8980276 0.4399392
    outer loop
      vertex 2 25.57294 0.5620724
      vertex 3.454365 28.20021 5.925
      vertex 2 28.20021 5.925
    endloop
  endfacet
  facet normal 0 0.4399392 0.8980276
    outer loop
      vertex 2 29.34754 5.362928
      vertex 2 28.20021 5.925
      vertex 3.454365 28.20021 5.925
    endloop
  endfacet
  facet normal -0 0.4399392 0.8980276
    outer loop
      vertex 2 29.34754 5.362928
      vertex 3.454365 28.20021 5.925
      vertex 3.454365 29.34754 5.362928
    endloop
  endfacet
  facet normal 1 0 0
    outer loop
      vertex 3.454365 29.34754 5.362928
      vertex 3.454365 28.20021 5.925
      vertex 3.454365 25.57294 0.5620724
    endloop
  endfacet
  facet normal 1 0 0
    outer loop
      vertex 3.454365 29.34754 5.362928
      vertex 3.454365 25.57294 0.5620724
      vertex 3.454365 26.72027 0
    endloop
  endfacet
  facet normal 0 -0.4399392 -0.8980276
    outer loop
      vertex 3.454365 26.72027 0
      vertex 3.454365 25.57294 0.5620724
      vertex 2 25.57294 0.5620724
    endloop
  endfacet
  facet normal -0 -0.4399392 -0.8980276
    outer loop
      vertex 3.454365 26.72027 0
      vertex 2 25.57294 0.5620724
      vertex 2 26.72027 0
    endloop
  endfacet
  facet normal -1 0 0
    outer loop
      vertex 2 26.72027 0
      vertex 2 25.57294 0.5620724
      vertex 2 28.20021 5.925
    endloop
  endfacet
  facet normal -1 0 0
    outer loop
      vertex 2 26.72027 0
      vertex 2 28.20021 5.925
      vertex 2 29.34754 5.362928
    endloop
  endfacet
  facet normal 0 -0.8123328 -0.5831942
    outer loop
      vertex 2.152183 35.5097 0
      vertex 3.302183 35.5097 0
      vertex 3.302183 34.83903 0.9341827
    endloop
  endfacet
  facet normal 0 -0.8123328 -0.5831942
    outer loop
      vertex 2.152183 35.5097 0
      vertex 3.302183 34.83903 0.9341827
      vertex 2.152183 34.83903 0.9341827
    endloop
  endfacet
  facet normal -0 0.8123328 0.5831942
    outer loop
      vertex 2.152183 41.79075 5.925
      vertex 3.302183 41.79075 5.925
      vertex 3.302183 42.46143 4.990817
    endloop
  endfacet
  facet normal 0 0.8123328 0.5831942
    outer loop
      vertex 2.152183 41.79075 5.925
      vertex 3.302183 42.46143 4.990817
      vertex 2.152183 42.46143 4.990817
    endloop
  endfacet
  facet normal 0 0.5831942 -0.8123328
    outer loop
      vertex 2.152183 35.5097 0
      vertex 2.152183 42.46143 4.990817
      vertex 3.302183 42.46143 4.990817
    endloop
  endfacet
  facet normal 0 0.5831942 -0.8123328
    outer loop
      vertex 2.152183 35.5097 0
      vertex 3.302183 42.46143 4.990817
      vertex 3.302183 35.5097 0
    endloop
  endfacet
  facet normal 1 0 0
    outer loop
      vertex 3.302183 35.5097 0
      vertex 3.302183 42.46143 4.990817
      vertex 3.302183 41.79075 5.925
    endloop
  endfacet
  facet normal 1 0 -0
    outer loop
      vertex 3.302183 35.5097 0
      vertex 3.302183 41.79075 5.925
      vertex 3.302183 34.83903 0.9341827
    endloop
  endfacet
  facet normal 0 -0.5831942 0.8123328
    outer loop
      vertex 3.302183 34.83903 0.9341827
      vertex 3.302183 41.79075 5.925
      vertex 2.152183 41.79075 5.925
    endloop
  endfacet
  facet normal 0 -0.5831942 0.8123328
    outer loop
      vertex 3.302183 34.83903 0.9341827
      vertex 2.152183 41.79075 5.925
      vertex 2.152183 34.83903 0.9341827
    endloop
  endfacet
  facet normal -1 0 0
    outer loop
      vertex 2.152183 34.83903 0.9341827
      vertex 2.152183 41.79075 5.925
      vertex 2.152183 42.46143 4.990817
    endloop
  endfacet
  facet normal -1 0 0
    outer loop
      vertex 2.152183 34.83903 0.9341827
      vertex 2.152183 42.46143 4.990817
      vertex 2.152183 35.5097 0
    endloop
  endfacet
  facet normal 0 0.8123328 -0.5831942
    outer loop
      vertex 2.152183 9.622396 0.9341827
      vertex 3.302183 9.622396 0.9341827
      vertex 3.302183 8.951723 0
    endloop
  endfacet
  facet normal 0 0.8123328 -0.5831942
    outer loop
      vertex 2.152183 9.622396 0.9341827
      vertex 3.302183 8.951723 0
      vertex 2.152183 8.951723 0
    endloop
  endfacet
  facet normal 0 -0.8123328 0.5831942
    outer loop
      vertex 2.152183 2 4.990817
      vertex 3.302183 2 4.990817
      vertex 3.302183 2.670673 5.925
    endloop
  endfacet
  facet normal 0 -0.8123328 0.5831942
    outer loop
      vertex 2.152183 2 4.990817
      vertex 3.302183 2.670673 5.925
      vertex 2.152183 2.670673 5.925
    endloop
  endfacet
  facet normal 0 0.5831942 0.8123328
    outer loop
      vertex 2.152183 9.622396 0.9341827
      vertex 2.152183 2.670673 5.925
      vertex 3.302183 2.670673 5.925
    endloop
  endfacet
  facet normal -0 0.5831942 0.8123328
    outer loop
      vertex 2.152183 9.622396 0.9341827
      vertex 3.302183 2.670673 5.925
      vertex 3.302183 9.622396 0.9341827
    endloop
  endfacet
  facet normal 1 0 0
    outer loop
      vertex 3.302183 9.622396 0.9341827
      vertex 3.302183 2.670673 5.925
      vertex 3.302183 2 4.990817
    endloop
  endfacet
  facet normal 1 0 0
    outer loop
      vertex 3.302183 9.622396 0.9341827
      vertex 3.302183 2 4.990817
      vertex 3.302183 8.951723 0
    endloop
  endfacet
  facet normal 0 -0.5831942 -0.8123328
    outer loop
      vertex 3.302183 8.951723 0
      vertex 3.302183 2 4.990817
      vertex 2.152183 2 4.990817
    endloop
  endfacet
  facet normal -0 -0.5831942 -0.8123328
    outer loop
      vertex 3.302183 8.951723 0
      vertex 2.152183 2 4.990817
      vertex 2.152183 8.951723 0
    endloop
  endfacet
  facet normal -1 0 0
    outer loop
      vertex 2.152183 8.951723 0
      vertex 2.152183 2 4.990817
      vertex 2.152183 2.670673 5.925
    endloop
  endfacet
  facet normal -1 0 0
    outer loop
      vertex 2.152183 8.951723 0
      vertex 2.152183 2.670673 5.925
      vertex 2.152183 9.622396 0.9341827
    endloop
  endfacet
endsolid internal_chambers_layer_05
