solid capstone
  facet normal 0 0 -1
    outer loop
      vertex -5.500982 5.500982 94.8
      vertex 5.500982 5.500982 94.8
      vertex 5.500982 -5.500982 94.8
    endloop
  endfacet
  facet normal 0 0 -1
    outer loop
      vertex -5.500982 5.500982 94.8
      vertex 5.500982 -5.500982 94.8
      vertex -5.500982 -5.500982 94.8
    endloop
  endfacet
  facet normal 0 -0.7862647 0.6178898
    outer loop
      vertex -5.500982 -5.500982 94.8
      vertex 5.500982 -5.500982 94.8
      vertex 0 0 101.8
    endloop
  endfacet
  facet normal 0.7862647 -0 0.6178898
    outer loop
      vertex 5.500982 -5.500982 94.8
      vertex 5.500982 5.500982 94.8
      vertex 0 0 101.8
    endloop
  endfacet
  facet normal 0 0.7862647 0.6178898
    outer loop
      vertex 5.500982 5.500982 94.8
      vertex -5.500982 5.500982 94.8
      vertex 0 0 101.8
    endloop
  endfacet
  facet normal -0.7862647 0 0.6178898
    outer loop
      vertex -5.500982 5.500982 94.8
      vertex -5.500982 -5.500982 94.8
      vertex 0 0 101.8
    endloop
  endfacet
endsolid capstone
