solid casing_ring_09_bottom_up
  facet normal 0 -0.7862647 0.6178898
    outer loop
      vertex -42.75049 -42.75049 47.4
      vertex 42.75049 -42.75049 47.4
      vertex 38.0943 -38.0943 53.325
    endloop
  endfacet
  facet normal 0 -0.7862647 0.6178898
    outer loop
      vertex -42.75049 -42.75049 47.4
      vertex 38.0943 -38.0943 53.325
      vertex -38.0943 -38.0943 53.325
    endloop
  endfacet
  facet normal 0 0.8899165 -0.4561234
    outer loop
      vertex 28.4053 -28.4053 47.4
      vertex -28.4053 -28.4053 47.4
      vertex -25.36847 -25.36847 53.325
    endloop
  endfacet
  facet normal 0 0.8899165 -0.4561234
    outer loop
      vertex 28.4053 -28.4053 47.4
      vertex -25.36847 -25.36847 53.325
      vertex 25.36847 -25.36847 53.325
    endloop
  endfacet
  facet normal 0.7862647 -0 0.6178898
    outer loop
      vertex 42.75049 -42.75049 47.4
      vertex 42.75049 42.75049 47.4
      vertex 38.0943 38.0943 53.325
    endloop
  endfacet
  facet normal 0.7862647 0 0.6178898
    outer loop
      vertex 42.75049 -42.75049 47.4
      vertex 38.0943 38.0943 53.325
      vertex 38.0943 -38.0943 53.325
    endloop
  endfacet
  facet normal -0.8899165 -0 -0.4561234
    outer loop
      vertex 28.4053 28.4053 47.4
      vertex 28.4053 -28.4053 47.4
      vertex 25.36847 -25.36847 53.325
    endloop
  endfacet
  facet normal -0.8899165 0 -0.4561234
    outer loop
      vertex 28.4053 28.4053 47.4
      vertex 25.36847 -25.36847 53.325
      vertex 25.36847 25.36847 53.325
    endloop
  endfacet
  facet normal 0 0.7862647 0.6178898
    outer loop
      vertex 42.75049 42.75049 47.4
      vertex -42.75049 42.75049 47.4
      vertex -38.0943 38.0943 53.325
    endloop
  endfacet
  facet normal 0 0.7862647 0.6178898
    outer loop
      vertex 42.75049 42.75049 47.4
      vertex -38.0943 38.0943 53.325
      vertex 38.0943 38.0943 53.325
    endloop
  endfacet
  facet normal 0 -0.8899165 -0.4561234
    outer loop
      vertex -28.4053 28.4053 47.4
      vertex 28.4053 28.4053 47.4
      vertex 25.36847 25.36847 53.325
    endloop
  endfacet
  facet normal 0 -0.8899165 -0.4561234
    outer loop
      vertex -28.4053 28.4053 47.4
      vertex 25.36847 25.36847 53.325
      vertex -25.36847 25.36847 53.325
    endloop
  endfacet
  facet normal -0.7862647 0 0.6178898
    outer loop
      vertex -42.75049 42.75049 47.4
      vertex -42.75049 -42.75049 47.4
      vertex -38.0943 -38.0943 53.325
    endloop
  endfacet
  facet normal -0.7862647 0 0.6178898
    outer loop
      vertex -42.75049 42.75049 47.4
      vertex -38.0943 -38.0943 53.325
      vertex -38.0943 38.0943 53.325
    endloop
  endfacet
  facet normal 0.8899165 0 -0.4561234
    outer loop
      vertex -28.4053 -28.4053 47.4
      vertex -28.4053 28.4053 47.4
      vertex -25.36847 25.36847 53.325
    endloop
  endfacet
  facet normal 0.8899165 0 -0.4561234
    outer loop
      vertex -28.4053 -28.4053 47.4
      vertex -25.36847 25.36847 53.325
      vertex -25.36847 -25.36847 53.325
    endloop
  endfacet
endsolid casing_ring_09_bottom_up
