solid casing_ring_16_bottom_up
  facet normal 0 -0.7862647 0.6178898
    outer loop
      vertex -10.15717 -10.15717 88.875
      vertex 10.15717 -10.15717 88.875
      vertex 5.500982 -5.500982 94.8
    endloop
  endfacet
  facet normal 0 -0.7862647 0.6178898
    outer loop
      vertex -10.15717 -10.15717 88.875
      vertex 5.500982 -5.500982 94.8
      vertex -5.500982 -5.500982 94.8
    endloop
  endfacet
  facet normal 0 0.8899165 -0.4561234
    outer loop
      vertex 7.147446 -7.147446 88.875
      vertex -7.147446 -7.147446 88.875
      vertex -4.110609 -4.110609 94.8
    endloop
  endfacet
  facet normal 0 0.8899165 -0.4561234
    outer loop
      vertex 7.147446 -7.147446 88.875
      vertex -4.110609 -4.110609 94.8
      vertex 4.110609 -4.110609 94.8
    endloop
  endfacet
  facet normal 0.7862647 -0 0.6178898
    outer loop
      vertex 10.15717 -10.15717 88.875
      vertex 10.15717 10.15717 88.875
      vertex 5.500982 5.500982 94.8
    endloop
  endfacet
  facet normal 0.7862647 0 0.6178898
    outer loop
      vertex 10.15717 -10.15717 88.875
      vertex 5.500982 5.500982 94.8
      vertex 5.500982 -5.500982 94.8
    endloop
  endfacet
  facet normal -0.8899165 -0 -0.4561234
    outer loop
      vertex 7.147446 7.147446 88.875
      vertex 7.147446 -7.147446 88.875
      vertex 4.110609 -4.110609 94.8
    endloop
  endfacet
  facet normal -0.8899165 0 -0.4561234
    outer loop
      vertex 7.147446 7.147446 88.875
      vertex 4.110609 -4.110609 94.8
      vertex 4.110609 4.110609 94.8
    endloop
  endfacet
  facet normal 0 0.7862647 0.6178898
    outer loop
      vertex 10.15717 10.15717 88.875
      vertex -10.15717 10.15717 88.875
      vertex -5.500982 5.500982 94.8
    endloop
  endfacet
  facet normal 0 0.7862647 0.6178898
    outer loop
      vertex 10.15717 10.15717 88.875
      vertex -5.500982 5.500982 94.8
      vertex 5.500982 5.500982 94.8
    endloop
  endfacet
  facet normal 0 -0.8899165 -0.4561234
    outer loop
      vertex -7.147446 7.147446 88.875
      vertex 7.147446 7.147446 88.875
      vertex 4.110609 4.110609 94.8
    endloop
  endfacet
  facet normal 0 -0.8899165 -0.4561234
    outer loop
      vertex -7.147446 7.147446 88.875
      vertex 4.110609 4.110609 94.8
      vertex -4.110609 4.110609 94.8
    endloop
  endfacet
  facet normal -0.7862647 0 0.6178898
    outer loop
      vertex -10.15717 10.15717 88.875
      vertex -10.15717 -10.15717 88.875
      vertex -5.500982 -5.500982 94.8
    endloop
  endfacet
  facet normal -0.7862647 0 0.6178898
    outer loop
      vertex -10.15717 10.15717 88.875
      vertex -5.500982 -5.500982 94.8
      vertex -5.500982 5.500982 94.8
    endloop
  endfacet
  facet normal 0.8899165 0 -0.4561234
    outer loop
      vertex -7.147446 -7.147446 88.875
      vertex -7.147446 7.147446 88.875
      vertex -4.110609 4.110609 94.8
    endloop
  endfacet
  facet normal 0.8899165 0 -0.4561234
    outer loop
      vertex -7.147446 -7.147446 88.875
      vertex -4.110609 4.110609 94.8
      vertex -4.110609 -4.110609 94.8
    endloop
  endfacet
endsolid casing_ring_16_bottom_up
