solid casing_ring_06_bottom_up
  facet normal 0 -0.7862647 0.6178898
    outer loop
      vertex -56.71906 -56.71906 29.625
      vertex 56.71906 -56.71906 29.625
      vertex 52.06287 -52.06287 35.55
    endloop
  endfacet
  facet normal 0 -0.7862647 0.6178898
    outer loop
      vertex -56.71906 -56.71906 29.625
      vertex 52.06287 -52.06287 35.55
      vertex -52.06287 -52.06287 35.55
    endloop
  endfacet
  facet normal 0 0.8899165 -0.4561234
    outer loop
      vertex 37.51582 -37.51582 29.625
      vertex -37.51582 -37.51582 29.625
      vertex -34.47898 -34.47898 35.55
    endloop
  endfacet
  facet normal 0 0.8899165 -0.4561234
    outer loop
      vertex 37.51582 -37.51582 29.625
      vertex -34.47898 -34.47898 35.55
      vertex 34.47898 -34.47898 35.55
    endloop
  endfacet
  facet normal 0 0 -1
    outer loop
      vertex 56.71906 -56.71906 29.625
      vertex -56.71906 -56.71906 29.625
      vertex -37.51582 -37.51582 29.625
    endloop
  endfacet
  facet normal 0 0 -1
    outer loop
      vertex 56.71906 -56.71906 29.625
      vertex -37.51582 -37.51582 29.625
      vertex 37.51582 -37.51582 29.625
    endloop
  endfacet
  facet normal 0 0 1
    outer loop
      vertex -52.06287 -52.06287 35.55
      vertex 52.06287 -52.06287 35.55
      vertex 34.47898 -34.47898 35.55
    endloop
  endfacet
  facet normal 0 0 1
    outer loop
      vertex -52.06287 -52.06287 35.55
      vertex 34.47898 -34.47898 35.55
      vertex -34.47898 -34.47898 35.55
    endloop
  endfacet
  facet normal 0.7862647 -0 0.6178898
    outer loop
      vertex 56.71906 -56.71906 29.625
      vertex 56.71906 56.71906 29.625
      vertex 52.06287 52.06287 35.55
    endloop
  endfacet
  facet normal 0.7862647 0 0.6178898
    outer loop
      vertex 56.71906 -56.71906 29.625
      vertex 52.06287 52.06287 35.55
      vertex 52.06287 -52.06287 35.55
    endloop
  endfacet
  facet normal -0.8899165 -0 -0.4561234
    outer loop
      vertex 37.51582 37.51582 29.625
      vertex 37.51582 -37.51582 29.625
      vertex 34.47898 -34.47898 35.55
    endloop
  endfacet
  facet normal -0.8899165 0 -0.4561234
    outer loop
      vertex 37.51582 37.51582 29.625
      vertex 34.47898 -34.47898 35.55
      vertex 34.47898 34.47898 35.55
    endloop
  endfacet
  facet normal 0 -0 -1
    outer loop
      vertex 56.71906 56.71906 29.625
      vertex 56.71906 -56.71906 29.625
      vertex 37.51582 -37.51582 29.625
    endloop
  endfacet
  facet normal 0 0 -1
    outer loop
      vertex 56.71906 56.71906 29.625
      vertex 37.51582 -37.51582 29.625
      vertex 37.51582 37.51582 29.625
    endloop
  endfacet
  facet normal 0 -0 1
    outer loop
      vertex 52.06287 -52.06287 35.55
      vertex 52.06287 52.06287 35.55
      vertex 34.47898 34.47898 35.55
    endloop
  endfacet
  facet normal 0 0 1
    outer loop
      vertex 52.06287 -52.06287 35.55
      vertex 34.47898 34.47898 35.55
      vertex 34.47898 -34.47898 35.55
    endloop
  endfacet
  facet normal 0 0.7862647 0.6178898
    outer loop
      vertex 56.71906 56.71906 29.625
      vertex -56.71906 56.71906 29.625
      vertex -52.06287 52.06287 35.55
    endloop
  endfacet
  facet normal 0 0.7862647 0.6178898
    outer loop
      vertex 56.71906 56.71906 29.625
      vertex -52.06287 52.06287 35.55
      vertex 52.06287 52.06287 35.55
    endloop
  endfacet
  facet normal 0 -0.8899165 -0.4561234
    outer loop
      vertex -37.51582 37.51582 29.625
      vertex 37.51582 37.51582 29.625
      vertex 34.47898 34.47898 35.55
    endloop
  endfacet
  facet normal 0 -0.8899165 -0.4561234
    outer loop
      vertex -37.51582 37.51582 29.625
      vertex 34.47898 34.47898 35.55
      vertex -34.47898 34.47898 35.55
    endloop
  endfacet
  facet normal 0 0 -1
    outer loop
      vertex -56.71906 56.71906 29.625
      vertex 56.71906 56.71906 29.625
      vertex 37.51582 37.51582 29.625
    endloop
  endfacet
  facet normal 0 0 -1
    outer loop
      vertex -56.71906 56.71906 29.625
      vertex 37.51582 37.51582 29.625
      vertex -37.51582 37.51582 29.625
    endloop
  endfacet
  facet normal 0 0 1
    outer loop
      vertex 52.06287 52.06287 35.55
      vertex -52.06287 52.06287 35.55
      vertex -34.47898 34.47898 35.55
    endloop
  endfacet
  facet normal 0 0 1
    outer loop
      vertex 52.06287 52.06287 35.55
      vertex -34.47898 34.47898 35.55
      vertex 34.47898 34.47898 35.55
    endloop
  endfacet
  facet normal -0.7862647 0 0.6178898
    outer loop
      vertex -56.71906 56.71906 29.625
      vertex -56.71906 -56.71906 29.625
      vertex -52.06287 -52.06287 35.55
    endloop
  endfacet
  facet normal -0.7862647 0 0.6178898
    outer loop
      vertex -56.71906 56.71906 29.625
      vertex -52.06287 -52.06287 35.55
      vertex -52.06287 52.06287 35.55
    endloop
  endfacet
  facet normal 0.8899165 0 -0.4561234
    outer loop
      vertex -37.51582 -37.51582 29.625
      vertex -37.51582 37.51582 29.625
      vertex -34.47898 34.47898 35.55
    endloop
  endfacet
  facet normal 0.8899165 0 -0.4561234
    outer loop
      vertex -37.51582 -37.51582 29.625
      vertex -34.47898 34.47898 35.55
      vertex -34.47898 -34.47898 35.55
    endloop
  endfacet
  facet normal 0 0 -1
    outer loop
      vertex -56.71906 -56.71906 29.625
      vertex -56.71906 56.71906 29.625
      vertex -37.51582 37.51582 29.625
    endloop
  endfacet
  facet normal 0 0 -1
    outer loop
      vertex -56.71906 -56.71906 29.625
      vertex -37.51582 37.51582 29.625
      vertex -37.51582 -37.51582 29.625
    endloop
  endfacet
  facet normal 0 0 1
    outer loop
      vertex -52.06287 52.06287 35.55
      vertex -52.06287 -52.06287 35.55
      vertex -34.47898 -34.47898 35.55
    endloop
  endfacet
  facet normal 0 0 1
    outer loop
      vertex -52.06287 52.06287 35.55
      vertex -34.47898 -34.47898 35.55
      vertex -34.47898 34.47898 35.55
    endloop
  endfacet
endsolid casing_ring_06_bottom_up
