solid casing_ring_04_bottom_up
  facet normal 0 -0.7862647 0.6178898
    outer loop
      vertex -66.03143 -66.03143 17.775
      vertex 66.03143 -66.03143 17.775
      vertex 61.37525 -61.37525 23.7
    endloop
  endfacet
  facet normal 0 -0.7862647 0.6178898
    outer loop
      vertex -66.03143 -66.03143 17.775
      vertex 61.37525 -61.37525 23.7
      vertex -61.37525 -61.37525 23.7
    endloop
  endfacet
  facet normal 0 0.8899165 -0.4561234
    outer loop
      vertex 43.58949 -43.58949 17.775
      vertex -43.58949 -43.58949 17.775
      vertex -40.55265 -40.55265 23.7
    endloop
  endfacet
  facet normal 0 0.8899165 -0.4561234
    outer loop
      vertex 43.58949 -43.58949 17.775
      vertex -40.55265 -40.55265 23.7
      vertex 40.55265 -40.55265 23.7
    endloop
  endfacet
  facet normal 0 0 -1
    outer loop
      vertex 66.03143 -66.03143 17.775
      vertex -66.03143 -66.03143 17.775
      vertex -43.58949 -43.58949 17.775
    endloop
  endfacet
  facet normal 0 0 -1
    outer loop
      vertex 66.03143 -66.03143 17.775
      vertex -43.58949 -43.58949 17.775
      vertex 43.58949 -43.58949 17.775
    endloop
  endfacet
  facet normal 0 0 1
    outer loop
      vertex -61.37525 -61.37525 23.7
      vertex 61.37525 -61.37525 23.7
      vertex 40.55265 -40.55265 23.7
    endloop
  endfacet
  facet normal 0 0 1
    outer loop
      vertex -61.37525 -61.37525 23.7
      vertex 40.55265 -40.55265 23.7
      vertex -40.55265 -40.55265 23.7
    endloop
  endfacet
  facet normal 0.7862647 -0 0.6178898
    outer loop
      vertex 66.03143 -66.03143 17.775
      vertex 66.03143 66.03143 17.775
      vertex 61.37525 61.37525 23.7
    endloop
  endfacet
  facet normal 0.7862647 0 0.6178898
    outer loop
      vertex 66.03143 -66.03143 17.775
      vertex 61.37525 61.37525 23.7
      vertex 61.37525 -61.37525 23.7
    endloop
  endfacet
  facet normal -0.8899165 -0 -0.4561234
    outer loop
      vertex 43.58949 43.58949 17.775
      vertex 43.58949 -43.58949 17.775
      vertex 40.55265 -40.55265 23.7
    endloop
  endfacet
  facet normal -0.8899165 0 -0.4561234
    outer loop
      vertex 43.58949 43.58949 17.775
      vertex 40.55265 -40.55265 23.7
      vertex 40.55265 40.55265 23.7
    endloop
  endfacet
  facet normal 0 -0 -1
    outer loop
      vertex 66.03143 66.03143 17.775
      vertex 66.03143 -66.03143 17.775
      vertex 43.58949 -43.58949 17.775
    endloop
  endfacet
  facet normal 0 0 -1
    outer loop
      vertex 66.03143 66.03143 17.775
      vertex 43.58949 -43.58949 17.775
      vertex 43.58949 43.58949 17.775
    endloop
  endfacet
  facet normal 0 -0 1
    outer loop
      vertex 61.37525 -61.37525 23.7
      vertex 61.37525 61.37525 23.7
      vertex 40.55265 40.55265 23.7
    endloop
  endfacet
  facet normal 0 0 1
    outer loop
      vertex 61.37525 -61.37525 23.7
      vertex 40.55265 40.55265 23.7
      vertex 40.55265 -40.55265 23.7
    endloop
  endfacet
  facet normal 0 0.7862647 0.6178898
    outer loop
      vertex 66.03143 66.03143 17.775
      vertex -66.03143 66.03143 17.775
      vertex -61.37525 61.37525 23.7
    endloop
  endfacet
  facet normal 0 0.7862647 0.6178898
    outer loop
      vertex 66.03143 66.03143 17.775
      vertex -61.37525 61.37525 23.7
      vertex 61.37525 61.37525 23.7
    endloop
  endfacet
  facet normal 0 -0.8899165 -0.4561234
    outer loop
      vertex -43.58949 43.58949 17.775
      vertex 43.58949 43.58949 17.775
      vertex 40.55265 40.55265 23.7
    endloop
  endfacet
  facet normal 0 -0.8899165 -0.4561234
    outer loop
      vertex -43.58949 43.58949 17.775
      vertex 40.55265 40.55265 23.7
      vertex -40.55265 40.55265 23.7
    endloop
  endfacet
  facet normal 0 0 -1
    outer loop
      vertex -66.03143 66.03143 17.775
      vertex 66.03143 66.03143 17.775
      vertex 43.58949 43.58949 17.775
    endloop
  endfacet
  facet normal 0 0 -1
    outer loop
      vertex -66.03143 66.03143 17.775
      vertex 43.58949 43.58949 17.775
      vertex -43.58949 43.58949 17.775
    endloop
  endfacet
  facet normal 0 0 1
    outer loop
      vertex 61.37525 61.37525 23.7
      vertex -61.37525 61.37525 23.7
      vertex -40.55265 40.55265 23.7
    endloop
  endfacet
  facet normal 0 0 1
    outer loop
      vertex 61.37525 61.37525 23.7
      vertex -40.55265 40.55265 23.7
      vertex 40.55265 40.55265 23.7
    endloop
  endfacet
  facet normal -0.7862647 0 0.6178898
    outer loop
      vertex -66.03143 66.03143 17.775
      vertex -66.03143 -66.03143 17.775
      vertex -61.37525 -61.37525 23.7
    endloop
  endfacet
  facet normal -0.7862647 0 0.6178898
    outer loop
      vertex -66.03143 66.03143 17.775
      vertex -61.37525 -61.37525 23.7
      vertex -61.37525 61.37525 23.7
    endloop
  endfacet
  facet normal 0.8899165 0 -0.4561234
    outer loop
      vertex -43.58949 -43.58949 17.775
      vertex -43.58949 43.58949 17.775
      vertex -40.55265 40.55265 23.7
    endloop
  endfacet
  facet normal 0.8899165 0 -0.4561234
    outer loop
      vertex -43.58949 -43.58949 17.775
      vertex -40.55265 40.55265 23.7
      vertex -40.55265 -40.55265 23.7
    endloop
  endfacet
  facet normal 0 0 -1
    outer loop
      vertex -66.03143 -66.03143 17.775
      vertex -66.03143 66.03143 17.775
      vertex -43.58949 43.58949 17.775
    endloop
  endfacet
  facet normal 0 0 -1
    outer loop
      vertex -66.03143 -66.03143 17.775
      vertex -43.58949 43.58949 17.775
      vertex -43.58949 -43.58949 17.775
    endloop
  endfacet
  facet normal 0 0 1
    outer loop
      vertex -61.37525 61.37525 23.7
      vertex -61.37525 -61.37525 23.7
      vertex -40.55265 -40.55265 23.7
    endloop
  endfacet
  facet normal 0 0 1
    outer loop
      vertex -61.37525 61.37525 23.7
      vertex -40.55265 -40.55265 23.7
      vertex -40.55265 40.55265 23.7
    endloop
  endfacet
endsolid casing_ring_04_bottom_up
