solid casing_ring_10_bottom_up
  facet normal 0 -0.7862647 0.6178898
    outer loop
      vertex -38.0943 -38.0943 53.325
      vertex 38.0943 -38.0943 53.325
      vertex 33.43811 -33.43811 59.25
    endloop
  endfacet
  facet normal 0 -0.7862647 0.6178898
    outer loop
      vertex -38.0943 -38.0943 53.325
      vertex 33.43811 -33.43811 59.25
      vertex -33.43811 -33.43811 59.25
    endloop
  endfacet
  facet normal 0 0.8899165 -0.4561234
    outer loop
      vertex 25.36847 -25.36847 53.325
      vertex -25.36847 -25.36847 53.325
      vertex -22.33163 -22.33163 59.25
    endloop
  endfacet
  facet normal 0 0.8899165 -0.4561234
    outer loop
      vertex 25.36847 -25.36847 53.325
      vertex -22.33163 -22.33163 59.25
      vertex 22.33163 -22.33163 59.25
    endloop
  endfacet
  facet normal 0 0 -1
    outer loop
      vertex 38.0943 -38.0943 53.325
      vertex -38.0943 -38.0943 53.325
      vertex -25.36847 -25.36847 53.325
    endloop
  endfacet
  facet normal 0 0 -1
    outer loop
      vertex 38.0943 -38.0943 53.325
      vertex -25.36847 -25.36847 53.325
      vertex 25.36847 -25.36847 53.325
    endloop
  endfacet
  facet normal 0 0 1
    outer loop
      vertex -33.43811 -33.43811 59.25
      vertex 33.43811 -33.43811 59.25
      vertex 22.33163 -22.33163 59.25
    endloop
  endfacet
  facet normal 0 0 1
    outer loop
      vertex -33.43811 -33.43811 59.25
      vertex 22.33163 -22.33163 59.25
      vertex -22.33163 -22.33163 59.25
    endloop
  endfacet
  facet normal 0.7862647 -0 0.6178898
    outer loop
      vertex 38.0943 -38.0943 53.325
      vertex 38.0943 38.0943 53.325
      vertex 33.43811 33.43811 59.25
    endloop
  endfacet
  facet normal 0.7862647 0 0.6178898
    outer loop
      vertex 38.0943 -38.0943 53.325
      vertex 33.43811 33.43811 59.25
      vertex 33.43811 -33.43811 59.25
    endloop
  endfacet
  facet normal -0.8899165 -0 -0.4561234
    outer loop
      vertex 25.36847 25.36847 53.325
      vertex 25.36847 -25.36847 53.325
      vertex 22.33163 -22.33163 59.25
    endloop
  endfacet
  facet normal -0.8899165 0 -0.4561234
    outer loop
      vertex 25.36847 25.36847 53.325
      vertex 22.33163 -22.33163 59.25
      vertex 22.33163 22.33163 59.25
    endloop
  endfacet
  facet normal 0 -0 -1
    outer loop
      vertex 38.0943 38.0943 53.325
      vertex 38.0943 -38.0943 53.325
      vertex 25.36847 -25.36847 53.325
    endloop
  endfacet
  facet normal 0 0 -1
    outer loop
      vertex 38.0943 38.0943 53.325
      vertex 25.36847 -25.36847 53.325
      vertex 25.36847 25.36847 53.325
    endloop
  endfacet
  facet normal 0 -0 1
    outer loop
      vertex 33.43811 -33.43811 59.25
      vertex 33.43811 33.43811 59.25
      vertex 22.33163 22.33163 59.25
    endloop
  endfacet
  facet normal 0 0 1
    outer loop
      vertex 33.43811 -33.43811 59.25
      vertex 22.33163 22.33163 59.25
      vertex 22.33163 -22.33163 59.25
    endloop
  endfacet
  facet normal 0 0.7862647 0.6178898
    outer loop
      vertex 38.0943 38.0943 53.325
      vertex -38.0943 38.0943 53.325
      vertex -33.43811 33.43811 59.25
    endloop
  endfacet
  facet normal 0 0.7862647 0.6178898
    outer loop
      vertex 38.0943 38.0943 53.325
      vertex -33.43811 33.43811 59.25
      vertex 33.43811 33.43811 59.25
    endloop
  endfacet
  facet normal 0 -0.8899165 -0.4561234
    outer loop
      vertex -25.36847 25.36847 53.325
      vertex 25.36847 25.36847 53.325
      vertex 22.33163 22.33163 59.25
    endloop
  endfacet
  facet normal 0 -0.8899165 -0.4561234
    outer loop
      vertex -25.36847 25.36847 53.325
      vertex 22.33163 22.33163 59.25
      vertex -22.33163 22.33163 59.25
    endloop
  endfacet
  facet normal 0 0 -1
    outer loop
      vertex -38.0943 38.0943 53.325
      vertex 38.0943 38.0943 53.325
      vertex 25.36847 25.36847 53.325
    endloop
  endfacet
  facet normal 0 0 -1
    outer loop
      vertex -38.0943 38.0943 53.325
      vertex 25.36847 25.36847 53.325
      vertex -25.36847 25.36847 53.325
    endloop
  endfacet
  facet normal 0 0 1
    outer loop
      vertex 33.43811 33.43811 59.25
      vertex -33.43811 33.43811 59.25
      vertex -22.33163 22.33163 59.25
    endloop
  endfacet
  facet normal 0 0 1
    outer loop
      vertex 33.43811 33.43811 59.25
      vertex -22.33163 22.33163 59.25
      vertex 22.33163 22.33163 59.25
    endloop
  endfacet
  facet normal -0.7862647 0 0.6178898
    outer loop
      vertex -38.0943 38.0943 53.325
      vertex -38.0943 -38.0943 53.325
      vertex -33.43811 -33.43811 59.25
    endloop
  endfacet
  facet normal -0.7862647 0 0.6178898
    outer loop
      vertex -38.0943 38.0943 53.325
      vertex -33.43811 -33.43811 59.25
      vertex -33.43811 33.43811 59.25
    endloop
  endfacet
  facet normal 0.8899165 0 -0.4561234
    outer loop
      vertex -25.36847 -25.36847 53.325
      vertex -25.36847 25.36847 53.325
      vertex -22.33163 22.33163 59.25
    endloop
  endfacet
  facet normal 0.8899165 0 -0.4561234
    outer loop
      vertex -25.36847 -25.36847 53.325
      vertex -22.33163 22.33163 59.25
      vertex -22.33163 -22.33163 59.25
    endloop
  endfacet
  facet normal 0 0 -1
    outer loop
      vertex -38.0943 -38.0943 53.325
      vertex -38.0943 38.0943 53.325
      vertex -25.36847 25.36847 53.325
    endloop
  endfacet
  facet normal 0 0 -1
    outer loop
      vertex -38.0943 -38.0943 53.325
      vertex -25.36847 25.36847 53.325
      vertex -25.36847 -25.36847 53.325
    endloop
  endfacet
  facet normal 0 0 1
    outer loop
      vertex -33.43811 33.43811 59.25
      vertex -33.43811 -33.43811 59.25
      vertex -22.33163 -22.33163 59.25
    endloop
  endfacet
  facet normal 0 0 1
    outer loop
      vertex -33.43811 33.43811 59.25
      vertex -22.33163 -22.33163 59.25
      vertex -22.33163 22.33163 59.25
    endloop
  endfacet
endsolid casing_ring_10_bottom_up
