solid casing_ring_07_bottom_up
  facet normal 0 -0.7862647 0.6178898
    outer loop
      vertex -52.06287 -52.06287 35.55
      vertex 52.06287 -52.06287 35.55
      vertex 47.40668 -47.40668 41.475
    endloop
  endfacet
  facet normal 0 -0.7862647 0.6178898
    outer loop
      vertex -52.06287 -52.06287 35.55
      vertex 47.40668 -47.40668 41.475
      vertex -47.40668 -47.40668 41.475
    endloop
  endfacet
  facet normal 0 0.8899165 -0.4561234
    outer loop
      vertex 34.47898 -34.47898 35.55
      vertex -34.47898 -34.47898 35.55
      vertex -31.44214 -31.44214 41.475
    endloop
  endfacet
  facet normal 0 0.8899165 -0.4561234
    outer loop
      vertex 34.47898 -34.47898 35.55
      vertex -31.44214 -31.44214 41.475
      vertex 31.44214 -31.44214 41.475
    endloop
  endfacet
  facet normal 0.7862647 -0 0.6178898
    outer loop
      vertex 52.06287 -52.06287 35.55
      vertex 52.06287 52.06287 35.55
      vertex 47.40668 47.40668 41.475
    endloop
  endfacet
  facet normal 0.7862647 0 0.6178898
    outer loop
      vertex 52.06287 -52.06287 35.55
      vertex 47.40668 47.40668 41.475
      vertex 47.40668 -47.40668 41.475
    endloop
  endfacet
  facet normal -0.8899165 -0 -0.4561234
    outer loop
      vertex 34.47898 34.47898 35.55
      vertex 34.47898 -34.47898 35.55
      vertex 31.44214 -31.44214 41.475
    endloop
  endfacet
  facet normal -0.8899165 0 -0.4561234
    outer loop
      vertex 34.47898 34.47898 35.55
      vertex 31.44214 -31.44214 41.475
      vertex 31.44214 31.44214 41.475
    endloop
  endfacet
  facet normal 0 0.7862647 0.6178898
    outer loop
      vertex 52.06287 52.06287 35.55
      vertex -52.06287 52.06287 35.55
      vertex -47.40668 47.40668 41.475
    endloop
  endfacet
  facet normal 0 0.7862647 0.6178898
    outer loop
      vertex 52.06287 52.06287 35.55
      vertex -47.40668 47.40668 41.475
      vertex 47.40668 47.40668 41.475
    endloop
  endfacet
  facet normal 0 -0.8899165 -0.4561234
    outer loop
      vertex -34.47898 34.47898 35.55
      vertex 34.47898 34.47898 35.55
      vertex 31.44214 31.44214 41.475
    endloop
  endfacet
  facet normal 0 -0.8899165 -0.4561234
    outer loop
      vertex -34.47898 34.47898 35.55
      vertex 31.44214 31.44214 41.475
      vertex -31.44214 31.44214 41.475
    endloop
  endfacet
  facet normal -0.7862647 0 0.6178898
    outer loop
      vertex -52.06287 52.06287 35.55
      vertex -52.06287 -52.06287 35.55
      vertex -47.40668 -47.40668 41.475
    endloop
  endfacet
  facet normal -0.7862647 0 0.6178898
    outer loop
      vertex -52.06287 52.06287 35.55
      vertex -47.40668 -47.40668 41.475
      vertex -47.40668 47.40668 41.475
    endloop
  endfacet
  facet normal 0.8899165 0 -0.4561234
    outer loop
      vertex -34.47898 -34.47898 35.55
      vertex -34.47898 34.47898 35.55
      vertex -31.44214 31.44214 41.475
    endloop
  endfacet
  facet normal 0.8899165 0 -0.4561234
    outer loop
      vertex -34.47898 -34.47898 35.55
      vertex -31.44214 31.44214 41.475
      vertex -31.44214 -31.44214 41.475
    endloop
  endfacet
endsolid casing_ring_07_bottom_up
