solid casing_ring_02_bottom_up
  facet normal 0 -0.7862647 0.6178898
    outer loop
      vertex -75.34381 -75.34381 5.925
      vertex 75.34381 -75.34381 5.925
      vertex 70.68762 -70.68762 11.85
    endloop
  endfacet
  facet normal 0 -0.7862647 0.6178898
    outer loop
      vertex -75.34381 -75.34381 5.925
      vertex 70.68762 -70.68762 11.85
      vertex -70.68762 -70.68762 11.85
    endloop
  endfacet
  facet normal 0 0.8899165 -0.4561234
    outer loop
      vertex 49.66316 -49.66316 5.925
      vertex -49.66316 -49.66316 5.925
      vertex -46.62633 -46.62633 11.85
    endloop
  endfacet
  facet normal 0 0.8899165 -0.4561234
    outer loop
      vertex 49.66316 -49.66316 5.925
      vertex -46.62633 -46.62633 11.85
      vertex 46.62633 -46.62633 11.85
    endloop
  endfacet
  facet normal 0 0 -1
    outer loop
      vertex 75.34381 -75.34381 5.925
      vertex -75.34381 -75.34381 5.925
      vertex -49.66316 -49.66316 5.925
    endloop
  endfacet
  facet normal 0 0 -1
    outer loop
      vertex 75.34381 -75.34381 5.925
      vertex -49.66316 -49.66316 5.925
      vertex 49.66316 -49.66316 5.925
    endloop
  endfacet
  facet normal 0 0 1
    outer loop
      vertex -70.68762 -70.68762 11.85
      vertex 70.68762 -70.68762 11.85
      vertex 46.62633 -46.62633 11.85
    endloop
  endfacet
  facet normal 0 0 1
    outer loop
      vertex -70.68762 -70.68762 11.85
      vertex 46.62633 -46.62633 11.85
      vertex -46.62633 -46.62633 11.85
    endloop
  endfacet
  facet normal 0.7862647 -0 0.6178898
    outer loop
      vertex 75.34381 -75.34381 5.925
      vertex 75.34381 75.34381 5.925
      vertex 70.68762 70.68762 11.85
    endloop
  endfacet
  facet normal 0.7862647 0 0.6178898
    outer loop
      vertex 75.34381 -75.34381 5.925
      vertex 70.68762 70.68762 11.85
      vertex 70.68762 -70.68762 11.85
    endloop
  endfacet
  facet normal -0.8899165 -0 -0.4561234
    outer loop
      vertex 49.66316 49.66316 5.925
      vertex 49.66316 -49.66316 5.925
      vertex 46.62633 -46.62633 11.85
    endloop
  endfacet
  facet normal -0.8899165 0 -0.4561234
    outer loop
      vertex 49.66316 49.66316 5.925
      vertex 46.62633 -46.62633 11.85
      vertex 46.62633 46.62633 11.85
    endloop
  endfacet
  facet normal 0 -0 -1
    outer loop
      vertex 75.34381 75.34381 5.925
      vertex 75.34381 -75.34381 5.925
      vertex 49.66316 -49.66316 5.925
    endloop
  endfacet
  facet normal 0 0 -1
    outer loop
      vertex 75.34381 75.34381 5.925
      vertex 49.66316 -49.66316 5.925
      vertex 49.66316 49.66316 5.925
    endloop
  endfacet
  facet normal 0 -0 1
    outer loop
      vertex 70.68762 -70.68762 11.85
      vertex 70.68762 70.68762 11.85
      vertex 46.62633 46.62633 11.85
    endloop
  endfacet
  facet normal 0 0 1
    outer loop
      vertex 70.68762 -70.68762 11.85
      vertex 46.62633 46.62633 11.85
      vertex 46.62633 -46.62633 11.85
    endloop
  endfacet
  facet normal 0 0.7862647 0.6178898
    outer loop
      vertex 75.34381 75.34381 5.925
      vertex -75.34381 75.34381 5.925
      vertex -70.68762 70.68762 11.85
    endloop
  endfacet
  facet normal 0 0.7862647 0.6178898
    outer loop
      vertex 75.34381 75.34381 5.925
      vertex -70.68762 70.68762 11.85
      vertex 70.68762 70.68762 11.85
    endloop
  endfacet
  facet normal 0 -0.8899165 -0.4561234
    outer loop
      vertex -49.66316 49.66316 5.925
      vertex 49.66316 49.66316 5.925
      vertex 46.62633 46.62633 11.85
    endloop
  endfacet
  facet normal 0 -0.8899165 -0.4561234
    outer loop
      vertex -49.66316 49.66316 5.925
      vertex 46.62633 46.62633 11.85
      vertex -46.62633 46.62633 11.85
    endloop
  endfacet
  facet normal 0 0 -1
    outer loop
      vertex -75.34381 75.34381 5.925
      vertex 75.34381 75.34381 5.925
      vertex 49.66316 49.66316 5.925
    endloop
  endfacet
  facet normal 0 0 -1
    outer loop
      vertex -75.34381 75.34381 5.925
      vertex 49.66316 49.66316 5.925
      vertex -49.66316 49.66316 5.925
    endloop
  endfacet
  facet normal 0 0 1
    outer loop
      vertex 70.68762 70.68762 11.85
      vertex -70.68762 70.68762 11.85
      vertex -46.62633 46.62633 11.85
    endloop
  endfacet
  facet normal 0 0 1
    outer loop
      vertex 70.68762 70.68762 11.85
      vertex -46.62633 46.62633 11.85
      vertex 46.62633 46.62633 11.85
    endloop
  endfacet
  facet normal -0.7862647 0 0.6178898
    outer loop
      vertex -75.34381 75.34381 5.925
      vertex -75.34381 -75.34381 5.925
      vertex -70.68762 -70.68762 11.85
    endloop
  endfacet
  facet normal -0.7862647 0 0.6178898
    outer loop
      vertex -75.34381 75.34381 5.925
      vertex -70.68762 -70.68762 11.85
      vertex -70.68762 70.68762 11.85
    endloop
  endfacet
  facet normal 0.8899165 0 -0.4561234
    outer loop
      vertex -49.66316 -49.66316 5.925
      vertex -49.66316 49.66316 5.925
      vertex -46.62633 46.62633 11.85
    endloop
  endfacet
  facet normal 0.8899165 0 -0.4561234
    outer loop
      vertex -49.66316 -49.66316 5.925
      vertex -46.62633 46.62633 11.85
      vertex -46.62633 -46.62633 11.85
    endloop
  endfacet
  facet normal 0 0 -1
    outer loop
      vertex -75.34381 -75.34381 5.925
      vertex -75.34381 75.34381 5.925
      vertex -49.66316 49.66316 5.925
    endloop
  endfacet
  facet normal 0 0 -1
    outer loop
      vertex -75.34381 -75.34381 5.925
      vertex -49.66316 49.66316 5.925
      vertex -49.66316 -49.66316 5.925
    endloop
  endfacet
  facet normal 0 0 1
    outer loop
      vertex -70.68762 70.68762 11.85
      vertex -70.68762 -70.68762 11.85
      vertex -46.62633 -46.62633 11.85
    endloop
  endfacet
  facet normal 0 0 1
    outer loop
      vertex -70.68762 70.68762 11.85
      vertex -46.62633 -46.62633 11.85
      vertex -46.62633 46.62633 11.85
    endloop
  endfacet
endsolid casing_ring_02_bottom_up
