solid inner_stepped_mound_core
  facet normal 0 0 -1
    outer loop
      vertex -52 52 0
      vertex 52 52 0
      vertex 52 -52 0
    endloop
  endfacet
  facet normal 0 0 -1
    outer loop
      vertex -52 52 0
      vertex 52 -52 0
      vertex -52 -52 0
    endloop
  endfacet
  facet normal 0 0 1
    outer loop
      vertex -52 -52 5.925
      vertex 52 -52 5.925
      vertex 52 52 5.925
    endloop
  endfacet
  facet normal 0 0 1
    outer loop
      vertex -52 -52 5.925
      vertex 52 52 5.925
      vertex -52 52 5.925
    endloop
  endfacet
  facet normal 0 -1 0
    outer loop
      vertex -52 -52 0
      vertex 52 -52 0
      vertex 52 -52 5.925
    endloop
  endfacet
  facet normal 0 -1 0
    outer loop
      vertex -52 -52 0
      vertex 52 -52 5.925
      vertex -52 -52 5.925
    endloop
  endfacet
  facet normal 1 0 0
    outer loop
      vertex 52 -52 0
      vertex 52 52 0
      vertex 52 52 5.925
    endloop
  endfacet
  facet normal 1 0 0
    outer loop
      vertex 52 -52 0
      vertex 52 52 5.925
      vertex 52 -52 5.925
    endloop
  endfacet
  facet normal 0 1 0
    outer loop
      vertex 52 52 0
      vertex -52 52 0
      vertex -52 52 5.925
    endloop
  endfacet
  facet normal 0 1 -0
    outer loop
      vertex 52 52 0
      vertex -52 52 5.925
      vertex 52 52 5.925
    endloop
  endfacet
  facet normal -1 0 0
    outer loop
      vertex -52 52 0
      vertex -52 -52 0
      vertex -52 -52 5.925
    endloop
  endfacet
  facet normal -1 0 0
    outer loop
      vertex -52 52 0
      vertex -52 -52 5.925
      vertex -52 52 5.925
    endloop
  endfacet
  facet normal 0 0 -1
    outer loop
      vertex -48.96316 48.96316 5.925
      vertex 48.96316 48.96316 5.925
      vertex 48.96316 -48.96316 5.925
    endloop
  endfacet
  facet normal 0 0 -1
    outer loop
      vertex -48.96316 48.96316 5.925
      vertex 48.96316 -48.96316 5.925
      vertex -48.96316 -48.96316 5.925
    endloop
  endfacet
  facet normal 0 0 1
    outer loop
      vertex -48.96316 -48.96316 11.85
      vertex 48.96316 -48.96316 11.85
      vertex 48.96316 48.96316 11.85
    endloop
  endfacet
  facet normal 0 0 1
    outer loop
      vertex -48.96316 -48.96316 11.85
      vertex 48.96316 48.96316 11.85
      vertex -48.96316 48.96316 11.85
    endloop
  endfacet
  facet normal 0 -1 0
    outer loop
      vertex -48.96316 -48.96316 5.925
      vertex 48.96316 -48.96316 5.925
      vertex 48.96316 -48.96316 11.85
    endloop
  endfacet
  facet normal 0 -1 0
    outer loop
      vertex -48.96316 -48.96316 5.925
      vertex 48.96316 -48.96316 11.85
      vertex -48.96316 -48.96316 11.85
    endloop
  endfacet
  facet normal 1 0 0
    outer loop
      vertex 48.96316 -48.96316 5.925
      vertex 48.96316 48.96316 5.925
      vertex 48.96316 48.96316 11.85
    endloop
  endfacet
  facet normal 1 0 0
    outer loop
      vertex 48.96316 -48.96316 5.925
      vertex 48.96316 48.96316 11.85
      vertex 48.96316 -48.96316 11.85
    endloop
  endfacet
  facet normal 0 1 0
    outer loop
      vertex 48.96316 48.96316 5.925
      vertex -48.96316 48.96316 5.925
      vertex -48.96316 48.96316 11.85
    endloop
  endfacet
  facet normal 0 1 -0
    outer loop
      vertex 48.96316 48.96316 5.925
      vertex -48.96316 48.96316 11.85
      vertex 48.96316 48.96316 11.85
    endloop
  endfacet
  facet normal -1 0 0
    outer loop
      vertex -48.96316 48.96316 5.925
      vertex -48.96316 -48.96316 5.925
      vertex -48.96316 -48.96316 11.85
    endloop
  endfacet
  facet normal -1 0 0
    outer loop
      vertex -48.96316 48.96316 5.925
      vertex -48.96316 -48.96316 11.85
      vertex -48.96316 48.96316 11.85
    endloop
  endfacet
  facet normal 0 0 -1
    outer loop
      vertex -45.92633 45.92633 11.85
      vertex 45.92633 45.92633 11.85
      vertex 45.92633 -45.92633 11.85
    endloop
  endfacet
  facet normal 0 0 -1
    outer loop
      vertex -45.92633 45.92633 11.85
      vertex 45.92633 -45.92633 11.85
      vertex -45.92633 -45.92633 11.85
    endloop
  endfacet
  facet normal 0 0 1
    outer loop
      vertex -45.92633 -45.92633 17.775
      vertex 45.92633 -45.92633 17.775
      vertex 45.92633 45.92633 17.775
    endloop
  endfacet
  facet normal 0 0 1
    outer loop
      vertex -45.92633 -45.92633 17.775
      vertex 45.92633 45.92633 17.775
      vertex -45.92633 45.92633 17.775
    endloop
  endfacet
  facet normal 0 -1 0
    outer loop
      vertex -45.92633 -45.92633 11.85
      vertex 45.92633 -45.92633 11.85
      vertex 45.92633 -45.92633 17.775
    endloop
  endfacet
  facet normal 0 -1 0
    outer loop
      vertex -45.92633 -45.92633 11.85
      vertex 45.92633 -45.92633 17.775
      vertex -45.92633 -45.92633 17.775
    endloop
  endfacet
  facet normal 1 0 0
    outer loop
      vertex 45.92633 -45.92633 11.85
      vertex 45.92633 45.92633 11.85
      vertex 45.92633 45.92633 17.775
    endloop
  endfacet
  facet normal 1 0 0
    outer loop
      vertex 45.92633 -45.92633 11.85
      vertex 45.92633 45.92633 17.775
      vertex 45.92633 -45.92633 17.775
    endloop
  endfacet
  facet normal 0 1 0
    outer loop
      vertex 45.92633 45.92633 11.85
      vertex -45.92633 45.92633 11.85
      vertex -45.92633 45.92633 17.775
    endloop
  endfacet
  facet normal 0 1 -0
    outer loop
      vertex 45.92633 45.92633 11.85
      vertex -45.92633 45.92633 17.775
      vertex 45.92633 45.92633 17.775
    endloop
  endfacet
  facet normal -1 0 0
    outer loop
      vertex -45.92633 45.92633 11.85
      vertex -45.92633 -45.92633 11.85
      vertex -45.92633 -45.92633 17.775
    endloop
  endfacet
  facet normal -1 0 0
    outer loop
      vertex -45.92633 45.92633 11.85
      vertex -45.92633 -45.92633 17.775
      vertex -45.92633 45.92633 17.775
    endloop
  endfacet
  facet normal 0 0 -1
    outer loop
      vertex -42.88949 42.88949 17.775
      vertex 42.88949 42.88949 17.775
      vertex 42.88949 -42.88949 17.775
    endloop
  endfacet
  facet normal 0 0 -1
    outer loop
      vertex -42.88949 42.88949 17.775
      vertex 42.88949 -42.88949 17.775
      vertex -42.88949 -42.88949 17.775
    endloop
  endfacet
  facet normal 0 0 1
    outer loop
      vertex -42.88949 -42.88949 23.7
      vertex 42.88949 -42.88949 23.7
      vertex 42.88949 42.88949 23.7
    endloop
  endfacet
  facet normal 0 0 1
    outer loop
      vertex -42.88949 -42.88949 23.7
      vertex 42.88949 42.88949 23.7
      vertex -42.88949 42.88949 23.7
    endloop
  endfacet
  facet normal 0 -1 0
    outer loop
      vertex -42.88949 -42.88949 17.775
      vertex 42.88949 -42.88949 17.775
      vertex 42.88949 -42.88949 23.7
    endloop
  endfacet
  facet normal 0 -1 0
    outer loop
      vertex -42.88949 -42.88949 17.775
      vertex 42.88949 -42.88949 23.7
      vertex -42.88949 -42.88949 23.7
    endloop
  endfacet
  facet normal 1 0 0
    outer loop
      vertex 42.88949 -42.88949 17.775
      vertex 42.88949 42.88949 17.775
      vertex 42.88949 42.88949 23.7
    endloop
  endfacet
  facet normal 1 0 0
    outer loop
      vertex 42.88949 -42.88949 17.775
      vertex 42.88949 42.88949 23.7
      vertex 42.88949 -42.88949 23.7
    endloop
  endfacet
  facet normal 0 1 0
    outer loop
      vertex 42.88949 42.88949 17.775
      vertex -42.88949 42.88949 17.775
      vertex -42.88949 42.88949 23.7
    endloop
  endfacet
  facet normal 0 1 -0
    outer loop
      vertex 42.88949 42.88949 17.775
      vertex -42.88949 42.88949 23.7
      vertex 42.88949 42.88949 23.7
    endloop
  endfacet
  facet normal -1 0 0
    outer loop
      vertex -42.88949 42.88949 17.775
      vertex -42.88949 -42.88949 17.775
      vertex -42.88949 -42.88949 23.7
    endloop
  endfacet
  facet normal -1 0 0
    outer loop
      vertex -42.88949 42.88949 17.775
      vertex -42.88949 -42.88949 23.7
      vertex -42.88949 42.88949 23.7
    endloop
  endfacet
  facet normal 0 0 -1
    outer loop
      vertex -39.85265 39.85265 23.7
      vertex 39.85265 39.85265 23.7
      vertex 39.85265 -39.85265 23.7
    endloop
  endfacet
  facet normal 0 0 -1
    outer loop
      vertex -39.85265 39.85265 23.7
      vertex 39.85265 -39.85265 23.7
      vertex -39.85265 -39.85265 23.7
    endloop
  endfacet
  facet normal 0 0 1
    outer loop
      vertex -39.85265 -39.85265 29.625
      vertex 39.85265 -39.85265 29.625
      vertex 39.85265 39.85265 29.625
    endloop
  endfacet
  facet normal 0 0 1
    outer loop
      vertex -39.85265 -39.85265 29.625
      vertex 39.85265 39.85265 29.625
      vertex -39.85265 39.85265 29.625
    endloop
  endfacet
  facet normal 0 -1 0
    outer loop
      vertex -39.85265 -39.85265 23.7
      vertex 39.85265 -39.85265 23.7
      vertex 39.85265 -39.85265 29.625
    endloop
  endfacet
  facet normal 0 -1 0
    outer loop
      vertex -39.85265 -39.85265 23.7
      vertex 39.85265 -39.85265 29.625
      vertex -39.85265 -39.85265 29.625
    endloop
  endfacet
  facet normal 1 0 0
    outer loop
      vertex 39.85265 -39.85265 23.7
      vertex 39.85265 39.85265 23.7
      vertex 39.85265 39.85265 29.625
    endloop
  endfacet
  facet normal 1 0 0
    outer loop
      vertex 39.85265 -39.85265 23.7
      vertex 39.85265 39.85265 29.625
      vertex 39.85265 -39.85265 29.625
    endloop
  endfacet
  facet normal 0 1 0
    outer loop
      vertex 39.85265 39.85265 23.7
      vertex -39.85265 39.85265 23.7
      vertex -39.85265 39.85265 29.625
    endloop
  endfacet
  facet normal 0 1 -0
    outer loop
      vertex 39.85265 39.85265 23.7
      vertex -39.85265 39.85265 29.625
      vertex 39.85265 39.85265 29.625
    endloop
  endfacet
  facet normal -1 0 0
    outer loop
      vertex -39.85265 39.85265 23.7
      vertex -39.85265 -39.85265 23.7
      vertex -39.85265 -39.85265 29.625
    endloop
  endfacet
  facet normal -1 0 0
    outer loop
      vertex -39.85265 39.85265 23.7
      vertex -39.85265 -39.85265 29.625
      vertex -39.85265 39.85265 29.625
    endloop
  endfacet
  facet normal 0 0 -1
    outer loop
      vertex -36.81582 36.81582 29.625
      vertex 36.81582 36.81582 29.625
      vertex 36.81582 -36.81582 29.625
    endloop
  endfacet
  facet normal 0 0 -1
    outer loop
      vertex -36.81582 36.81582 29.625
      vertex 36.81582 -36.81582 29.625
      vertex -36.81582 -36.81582 29.625
    endloop
  endfacet
  facet normal 0 0 1
    outer loop
      vertex -36.81582 -36.81582 35.55
      vertex 36.81582 -36.81582 35.55
      vertex 36.81582 36.81582 35.55
    endloop
  endfacet
  facet normal 0 0 1
    outer loop
      vertex -36.81582 -36.81582 35.55
      vertex 36.81582 36.81582 35.55
      vertex -36.81582 36.81582 35.55
    endloop
  endfacet
  facet normal 0 -1 0
    outer loop
      vertex -36.81582 -36.81582 29.625
      vertex 36.81582 -36.81582 29.625
      vertex 36.81582 -36.81582 35.55
    endloop
  endfacet
  facet normal 0 -1 0
    outer loop
      vertex -36.81582 -36.81582 29.625
      vertex 36.81582 -36.81582 35.55
      vertex -36.81582 -36.81582 35.55
    endloop
  endfacet
  facet normal 1 0 0
    outer loop
      vertex 36.81582 -36.81582 29.625
      vertex 36.81582 36.81582 29.625
      vertex 36.81582 36.81582 35.55
    endloop
  endfacet
  facet normal 1 0 0
    outer loop
      vertex 36.81582 -36.81582 29.625
      vertex 36.81582 36.81582 35.55
      vertex 36.81582 -36.81582 35.55
    endloop
  endfacet
  facet normal 0 1 0
    outer loop
      vertex 36.81582 36.81582 29.625
      vertex -36.81582 36.81582 29.625
      vertex -36.81582 36.81582 35.55
    endloop
  endfacet
  facet normal 0 1 -0
    outer loop
      vertex 36.81582 36.81582 29.625
      vertex -36.81582 36.81582 35.55
      vertex 36.81582 36.81582 35.55
    endloop
  endfacet
  facet normal -1 0 0
    outer loop
      vertex -36.81582 36.81582 29.625
      vertex -36.81582 -36.81582 29.625
      vertex -36.81582 -36.81582 35.55
    endloop
  endfacet
  facet normal -1 0 0
    outer loop
      vertex -36.81582 36.81582 29.625
      vertex -36.81582 -36.81582 35.55
      vertex -36.81582 36.81582 35.55
    endloop
  endfacet
  facet normal 0 0 -1
    outer loop
      vertex -33.77898 33.77898 35.55
      vertex 33.77898 33.77898 35.55
      vertex 33.77898 -33.77898 35.55
    endloop
  endfacet
  facet normal 0 0 -1
    outer loop
      vertex -33.77898 33.77898 35.55
      vertex 33.77898 -33.77898 35.55
      vertex -33.77898 -33.77898 35.55
    endloop
  endfacet
  facet normal 0 0 1
    outer loop
      vertex -33.77898 -33.77898 41.475
      vertex 33.77898 -33.77898 41.475
      vertex 33.77898 33.77898 41.475
    endloop
  endfacet
  facet normal 0 0 1
    outer loop
      vertex -33.77898 -33.77898 41.475
      vertex 33.77898 33.77898 41.475
      vertex -33.77898 33.77898 41.475
    endloop
  endfacet
  facet normal 0 -1 0
    outer loop
      vertex -33.77898 -33.77898 35.55
      vertex 33.77898 -33.77898 35.55
      vertex 33.77898 -33.77898 41.475
    endloop
  endfacet
  facet normal 0 -1 0
    outer loop
      vertex -33.77898 -33.77898 35.55
      vertex 33.77898 -33.77898 41.475
      vertex -33.77898 -33.77898 41.475
    endloop
  endfacet
  facet normal 1 0 0
    outer loop
      vertex 33.77898 -33.77898 35.55
      vertex 33.77898 33.77898 35.55
      vertex 33.77898 33.77898 41.475
    endloop
  endfacet
  facet normal 1 0 0
    outer loop
      vertex 33.77898 -33.77898 35.55
      vertex 33.77898 33.77898 41.475
      vertex 33.77898 -33.77898 41.475
    endloop
  endfacet
  facet normal 0 1 0
    outer loop
      vertex 33.77898 33.77898 35.55
      vertex -33.77898 33.77898 35.55
      vertex -33.77898 33.77898 41.475
    endloop
  endfacet
  facet normal 0 1 -0
    outer loop
      vertex 33.77898 33.77898 35.55
      vertex -33.77898 33.77898 41.475
      vertex 33.77898 33.77898 41.475
    endloop
  endfacet
  facet normal -1 0 0
    outer loop
      vertex -33.77898 33.77898 35.55
      vertex -33.77898 -33.77898 35.55
      vertex -33.77898 -33.77898 41.475
    endloop
  endfacet
  facet normal -1 0 0
    outer loop
      vertex -33.77898 33.77898 35.55
      vertex -33.77898 -33.77898 41.475
      vertex -33.77898 33.77898 41.475
    endloop
  endfacet
  facet normal 0 0 -1
    outer loop
      vertex -30.74214 30.74214 41.475
      vertex 30.74214 30.74214 41.475
      vertex 30.74214 -30.74214 41.475
    endloop
  endfacet
  facet normal 0 0 -1
    outer loop
      vertex -30.74214 30.74214 41.475
      vertex 30.74214 -30.74214 41.475
      vertex -30.74214 -30.74214 41.475
    endloop
  endfacet
  facet normal 0 0 1
    outer loop
      vertex -30.74214 -30.74214 47.4
      vertex 30.74214 -30.74214 47.4
      vertex 30.74214 30.74214 47.4
    endloop
  endfacet
  facet normal 0 0 1
    outer loop
      vertex -30.74214 -30.74214 47.4
      vertex 30.74214 30.74214 47.4
      vertex -30.74214 30.74214 47.4
    endloop
  endfacet
  facet normal 0 -1 0
    outer loop
      vertex -30.74214 -30.74214 41.475
      vertex 30.74214 -30.74214 41.475
      vertex 30.74214 -30.74214 47.4
    endloop
  endfacet
  facet normal 0 -1 0
    outer loop
      vertex -30.74214 -30.74214 41.475
      vertex 30.74214 -30.74214 47.4
      vertex -30.74214 -30.74214 47.4
    endloop
  endfacet
  facet normal 1 0 0
    outer loop
      vertex 30.74214 -30.74214 41.475
      vertex 30.74214 30.74214 41.475
      vertex 30.74214 30.74214 47.4
    endloop
  endfacet
  facet normal 1 0 0
    outer loop
      vertex 30.74214 -30.74214 41.475
      vertex 30.74214 30.74214 47.4
      vertex 30.74214 -30.74214 47.4
    endloop
  endfacet
  facet normal 0 1 0
    outer loop
      vertex 30.74214 30.74214 41.475
      vertex -30.74214 30.74214 41.475
      vertex -30.74214 30.74214 47.4
    endloop
  endfacet
  facet normal 0 1 -0
    outer loop
      vertex 30.74214 30.74214 41.475
      vertex -30.74214 30.74214 47.4
      vertex 30.74214 30.74214 47.4
    endloop
  endfacet
  facet normal -1 0 0
    outer loop
      vertex -30.74214 30.74214 41.475
      vertex -30.74214 -30.74214 41.475
      vertex -30.74214 -30.74214 47.4
    endloop
  endfacet
  facet normal -1 0 0
    outer loop
      vertex -30.74214 30.74214 41.475
      vertex -30.74214 -30.74214 47.4
      vertex -30.74214 30.74214 47.4
    endloop
  endfacet
  facet normal 0 0 -1
    outer loop
      vertex -27.7053 27.7053 47.4
      vertex 27.7053 27.7053 47.4
      vertex 27.7053 -27.7053 47.4
    endloop
  endfacet
  facet normal 0 0 -1
    outer loop
      vertex -27.7053 27.7053 47.4
      vertex 27.7053 -27.7053 47.4
      vertex -27.7053 -27.7053 47.4
    endloop
  endfacet
  facet normal 0 0 1
    outer loop
      vertex -27.7053 -27.7053 53.325
      vertex 27.7053 -27.7053 53.325
      vertex 27.7053 27.7053 53.325
    endloop
  endfacet
  facet normal 0 0 1
    outer loop
      vertex -27.7053 -27.7053 53.325
      vertex 27.7053 27.7053 53.325
      vertex -27.7053 27.7053 53.325
    endloop
  endfacet
  facet normal 0 -1 0
    outer loop
      vertex -27.7053 -27.7053 47.4
      vertex 27.7053 -27.7053 47.4
      vertex 27.7053 -27.7053 53.325
    endloop
  endfacet
  facet normal 0 -1 0
    outer loop
      vertex -27.7053 -27.7053 47.4
      vertex 27.7053 -27.7053 53.325
      vertex -27.7053 -27.7053 53.325
    endloop
  endfacet
  facet normal 1 0 0
    outer loop
      vertex 27.7053 -27.7053 47.4
      vertex 27.7053 27.7053 47.4
      vertex 27.7053 27.7053 53.325
    endloop
  endfacet
  facet normal 1 0 0
    outer loop
      vertex 27.7053 -27.7053 47.4
      vertex 27.7053 27.7053 53.325
      vertex 27.7053 -27.7053 53.325
    endloop
  endfacet
  facet normal 0 1 0
    outer loop
      vertex 27.7053 27.7053 47.4
      vertex -27.7053 27.7053 47.4
      vertex -27.7053 27.7053 53.325
    endloop
  endfacet
  facet normal 0 1 -0
    outer loop
      vertex 27.7053 27.7053 47.4
      vertex -27.7053 27.7053 53.325
      vertex 27.7053 27.7053 53.325
    endloop
  endfacet
  facet normal -1 0 0
    outer loop
      vertex -27.7053 27.7053 47.4
      vertex -27.7053 -27.7053 47.4
      vertex -27.7053 -27.7053 53.325
    endloop
  endfacet
  facet normal -1 0 0
    outer loop
      vertex -27.7053 27.7053 47.4
      vertex -27.7053 -27.7053 53.325
      vertex -27.7053 27.7053 53.325
    endloop
  endfacet
  facet normal 0 0 -1
    outer loop
      vertex -24.66847 24.66847 53.325
      vertex 24.66847 24.66847 53.325
      vertex 24.66847 -24.66847 53.325
    endloop
  endfacet
  facet normal 0 0 -1
    outer loop
      vertex -24.66847 24.66847 53.325
      vertex 24.66847 -24.66847 53.325
      vertex -24.66847 -24.66847 53.325
    endloop
  endfacet
  facet normal 0 0 1
    outer loop
      vertex -24.66847 -24.66847 59.25
      vertex 24.66847 -24.66847 59.25
      vertex 24.66847 24.66847 59.25
    endloop
  endfacet
  facet normal 0 0 1
    outer loop
      vertex -24.66847 -24.66847 59.25
      vertex 24.66847 24.66847 59.25
      vertex -24.66847 24.66847 59.25
    endloop
  endfacet
  facet normal 0 -1 0
    outer loop
      vertex -24.66847 -24.66847 53.325
      vertex 24.66847 -24.66847 53.325
      vertex 24.66847 -24.66847 59.25
    endloop
  endfacet
  facet normal 0 -1 0
    outer loop
      vertex -24.66847 -24.66847 53.325
      vertex 24.66847 -24.66847 59.25
      vertex -24.66847 -24.66847 59.25
    endloop
  endfacet
  facet normal 1 0 0
    outer loop
      vertex 24.66847 -24.66847 53.325
      vertex 24.66847 24.66847 53.325
      vertex 24.66847 24.66847 59.25
    endloop
  endfacet
  facet normal 1 0 0
    outer loop
      vertex 24.66847 -24.66847 53.325
      vertex 24.66847 24.66847 59.25
      vertex 24.66847 -24.66847 59.25
    endloop
  endfacet
  facet normal 0 1 0
    outer loop
      vertex 24.66847 24.66847 53.325
      vertex -24.66847 24.66847 53.325
      vertex -24.66847 24.66847 59.25
    endloop
  endfacet
  facet normal 0 1 -0
    outer loop
      vertex 24.66847 24.66847 53.325
      vertex -24.66847 24.66847 59.25
      vertex 24.66847 24.66847 59.25
    endloop
  endfacet
  facet normal -1 0 0
    outer loop
      vertex -24.66847 24.66847 53.325
      vertex -24.66847 -24.66847 53.325
      vertex -24.66847 -24.66847 59.25
    endloop
  endfacet
  facet normal -1 0 0
    outer loop
      vertex -24.66847 24.66847 53.325
      vertex -24.66847 -24.66847 59.25
      vertex -24.66847 24.66847 59.25
    endloop
  endfacet
  facet normal 0 0 -1
    outer loop
      vertex -21.63163 21.63163 59.25
      vertex 21.63163 21.63163 59.25
      vertex 21.63163 -21.63163 59.25
    endloop
  endfacet
  facet normal 0 0 -1
    outer loop
      vertex -21.63163 21.63163 59.25
      vertex 21.63163 -21.63163 59.25
      vertex -21.63163 -21.63163 59.25
    endloop
  endfacet
  facet normal 0 0 1
    outer loop
      vertex -21.63163 -21.63163 65.175
      vertex 21.63163 -21.63163 65.175
      vertex 21.63163 21.63163 65.175
    endloop
  endfacet
  facet normal 0 0 1
    outer loop
      vertex -21.63163 -21.63163 65.175
      vertex 21.63163 21.63163 65.175
      vertex -21.63163 21.63163 65.175
    endloop
  endfacet
  facet normal 0 -1 0
    outer loop
      vertex -21.63163 -21.63163 59.25
      vertex 21.63163 -21.63163 59.25
      vertex 21.63163 -21.63163 65.175
    endloop
  endfacet
  facet normal 0 -1 0
    outer loop
      vertex -21.63163 -21.63163 59.25
      vertex 21.63163 -21.63163 65.175
      vertex -21.63163 -21.63163 65.175
    endloop
  endfacet
  facet normal 1 0 0
    outer loop
      vertex 21.63163 -21.63163 59.25
      vertex 21.63163 21.63163 59.25
      vertex 21.63163 21.63163 65.175
    endloop
  endfacet
  facet normal 1 0 0
    outer loop
      vertex 21.63163 -21.63163 59.25
      vertex 21.63163 21.63163 65.175
      vertex 21.63163 -21.63163 65.175
    endloop
  endfacet
  facet normal 0 1 0
    outer loop
      vertex 21.63163 21.63163 59.25
      vertex -21.63163 21.63163 59.25
      vertex -21.63163 21.63163 65.175
    endloop
  endfacet
  facet normal 0 1 -0
    outer loop
      vertex 21.63163 21.63163 59.25
      vertex -21.63163 21.63163 65.175
      vertex 21.63163 21.63163 65.175
    endloop
  endfacet
  facet normal -1 0 0
    outer loop
      vertex -21.63163 21.63163 59.25
      vertex -21.63163 -21.63163 59.25
      vertex -21.63163 -21.63163 65.175
    endloop
  endfacet
  facet normal -1 0 0
    outer loop
      vertex -21.63163 21.63163 59.25
      vertex -21.63163 -21.63163 65.175
      vertex -21.63163 21.63163 65.175
    endloop
  endfacet
  facet normal 0 0 -1
    outer loop
      vertex -18.59479 18.59479 65.175
      vertex 18.59479 18.59479 65.175
      vertex 18.59479 -18.59479 65.175
    endloop
  endfacet
  facet normal 0 0 -1
    outer loop
      vertex -18.59479 18.59479 65.175
      vertex 18.59479 -18.59479 65.175
      vertex -18.59479 -18.59479 65.175
    endloop
  endfacet
  facet normal 0 0 1
    outer loop
      vertex -18.59479 -18.59479 71.1
      vertex 18.59479 -18.59479 71.1
      vertex 18.59479 18.59479 71.1
    endloop
  endfacet
  facet normal 0 0 1
    outer loop
      vertex -18.59479 -18.59479 71.1
      vertex 18.59479 18.59479 71.1
      vertex -18.59479 18.59479 71.1
    endloop
  endfacet
  facet normal 0 -1 0
    outer loop
      vertex -18.59479 -18.59479 65.175
      vertex 18.59479 -18.59479 65.175
      vertex 18.59479 -18.59479 71.1
    endloop
  endfacet
  facet normal 0 -1 0
    outer loop
      vertex -18.59479 -18.59479 65.175
      vertex 18.59479 -18.59479 71.1
      vertex -18.59479 -18.59479 71.1
    endloop
  endfacet
  facet normal 1 0 0
    outer loop
      vertex 18.59479 -18.59479 65.175
      vertex 18.59479 18.59479 65.175
      vertex 18.59479 18.59479 71.1
    endloop
  endfacet
  facet normal 1 0 0
    outer loop
      vertex 18.59479 -18.59479 65.175
      vertex 18.59479 18.59479 71.1
      vertex 18.59479 -18.59479 71.1
    endloop
  endfacet
  facet normal 0 1 0
    outer loop
      vertex 18.59479 18.59479 65.175
      vertex -18.59479 18.59479 65.175
      vertex -18.59479 18.59479 71.1
    endloop
  endfacet
  facet normal 0 1 -0
    outer loop
      vertex 18.59479 18.59479 65.175
      vertex -18.59479 18.59479 71.1
      vertex 18.59479 18.59479 71.1
    endloop
  endfacet
  facet normal -1 0 0
    outer loop
      vertex -18.59479 18.59479 65.175
      vertex -18.59479 -18.59479 65.175
      vertex -18.59479 -18.59479 71.1
    endloop
  endfacet
  facet normal -1 0 0
    outer loop
      vertex -18.59479 18.59479 65.175
      vertex -18.59479 -18.59479 71.1
      vertex -18.59479 18.59479 71.1
    endloop
  endfacet
  facet normal 0 0 -1
    outer loop
      vertex -15.55796 15.55796 71.1
      vertex 15.55796 15.55796 71.1
      vertex 15.55796 -15.55796 71.1
    endloop
  endfacet
  facet normal 0 0 -1
    outer loop
      vertex -15.55796 15.55796 71.1
      vertex 15.55796 -15.55796 71.1
      vertex -15.55796 -15.55796 71.1
    endloop
  endfacet
  facet normal 0 0 1
    outer loop
      vertex -15.55796 -15.55796 77.025
      vertex 15.55796 -15.55796 77.025
      vertex 15.55796 15.55796 77.025
    endloop
  endfacet
  facet normal 0 0 1
    outer loop
      vertex -15.55796 -15.55796 77.025
      vertex 15.55796 15.55796 77.025
      vertex -15.55796 15.55796 77.025
    endloop
  endfacet
  facet normal 0 -1 0
    outer loop
      vertex -15.55796 -15.55796 71.1
      vertex 15.55796 -15.55796 71.1
      vertex 15.55796 -15.55796 77.025
    endloop
  endfacet
  facet normal 0 -1 0
    outer loop
      vertex -15.55796 -15.55796 71.1
      vertex 15.55796 -15.55796 77.025
      vertex -15.55796 -15.55796 77.025
    endloop
  endfacet
  facet normal 1 0 0
    outer loop
      vertex 15.55796 -15.55796 71.1
      vertex 15.55796 15.55796 71.1
      vertex 15.55796 15.55796 77.025
    endloop
  endfacet
  facet normal 1 0 0
    outer loop
      vertex 15.55796 -15.55796 71.1
      vertex 15.55796 15.55796 77.025
      vertex 15.55796 -15.55796 77.025
    endloop
  endfacet
  facet normal 0 1 0
    outer loop
      vertex 15.55796 15.55796 71.1
      vertex -15.55796 15.55796 71.1
      vertex -15.55796 15.55796 77.025
    endloop
  endfacet
  facet normal 0 1 -0
    outer loop
      vertex 15.55796 15.55796 71.1
      vertex -15.55796 15.55796 77.025
      vertex 15.55796 15.55796 77.025
    endloop
  endfacet
  facet normal -1 0 0
    outer loop
      vertex -15.55796 15.55796 71.1
      vertex -15.55796 -15.55796 71.1
      vertex -15.55796 -15.55796 77.025
    endloop
  endfacet
  facet normal -1 0 0
    outer loop
      vertex -15.55796 15.55796 71.1
      vertex -15.55796 -15.55796 77.025
      vertex -15.55796 15.55796 77.025
    endloop
  endfacet
  facet normal 0 0 -1
    outer loop
      vertex -12.52112 12.52112 77.025
      vertex 12.52112 12.52112 77.025
      vertex 12.52112 -12.52112 77.025
    endloop
  endfacet
  facet normal 0 0 -1
    outer loop
      vertex -12.52112 12.52112 77.025
      vertex 12.52112 -12.52112 77.025
      vertex -12.52112 -12.52112 77.025
    endloop
  endfacet
  facet normal 0 0 1
    outer loop
      vertex -12.52112 -12.52112 82.95
      vertex 12.52112 -12.52112 82.95
      vertex 12.52112 12.52112 82.95
    endloop
  endfacet
  facet normal 0 0 1
    outer loop
      vertex -12.52112 -12.52112 82.95
      vertex 12.52112 12.52112 82.95
      vertex -12.52112 12.52112 82.95
    endloop
  endfacet
  facet normal 0 -1 0
    outer loop
      vertex -12.52112 -12.52112 77.025
      vertex 12.52112 -12.52112 77.025
      vertex 12.52112 -12.52112 82.95
    endloop
  endfacet
  facet normal 0 -1 0
    outer loop
      vertex -12.52112 -12.52112 77.025
      vertex 12.52112 -12.52112 82.95
      vertex -12.52112 -12.52112 82.95
    endloop
  endfacet
  facet normal 1 0 0
    outer loop
      vertex 12.52112 -12.52112 77.025
      vertex 12.52112 12.52112 77.025
      vertex 12.52112 12.52112 82.95
    endloop
  endfacet
  facet normal 1 0 0
    outer loop
      vertex 12.52112 -12.52112 77.025
      vertex 12.52112 12.52112 82.95
      vertex 12.52112 -12.52112 82.95
    endloop
  endfacet
  facet normal 0 1 0
    outer loop
      vertex 12.52112 12.52112 77.025
      vertex -12.52112 12.52112 77.025
      vertex -12.52112 12.52112 82.95
    endloop
  endfacet
  facet normal 0 1 -0
    outer loop
      vertex 12.52112 12.52112 77.025
      vertex -12.52112 12.52112 82.95
      vertex 12.52112 12.52112 82.95
    endloop
  endfacet
  facet normal -1 0 0
    outer loop
      vertex -12.52112 12.52112 77.025
      vertex -12.52112 -12.52112 77.025
      vertex -12.52112 -12.52112 82.95
    endloop
  endfacet
  facet normal -1 0 0
    outer loop
      vertex -12.52112 12.52112 77.025
      vertex -12.52112 -12.52112 82.95
      vertex -12.52112 12.52112 82.95
    endloop
  endfacet
  facet normal 0 0 -1
    outer loop
      vertex -9.484283 9.484283 82.95
      vertex 9.484283 9.484283 82.95
      vertex 9.484283 -9.484283 82.95
    endloop
  endfacet
  facet normal 0 0 -1
    outer loop
      vertex -9.484283 9.484283 82.95
      vertex 9.484283 -9.484283 82.95
      vertex -9.484283 -9.484283 82.95
    endloop
  endfacet
  facet normal 0 0 1
    outer loop
      vertex -9.484283 -9.484283 88.875
      vertex 9.484283 -9.484283 88.875
      vertex 9.484283 9.484283 88.875
    endloop
  endfacet
  facet normal 0 0 1
    outer loop
      vertex -9.484283 -9.484283 88.875
      vertex 9.484283 9.484283 88.875
      vertex -9.484283 9.484283 88.875
    endloop
  endfacet
  facet normal 0 -1 0
    outer loop
      vertex -9.484283 -9.484283 82.95
      vertex 9.484283 -9.484283 82.95
      vertex 9.484283 -9.484283 88.875
    endloop
  endfacet
  facet normal 0 -1 0
    outer loop
      vertex -9.484283 -9.484283 82.95
      vertex 9.484283 -9.484283 88.875
      vertex -9.484283 -9.484283 88.875
    endloop
  endfacet
  facet normal 1 0 0
    outer loop
      vertex 9.484283 -9.484283 82.95
      vertex 9.484283 9.484283 82.95
      vertex 9.484283 9.484283 88.875
    endloop
  endfacet
  facet normal 1 0 0
    outer loop
      vertex 9.484283 -9.484283 82.95
      vertex 9.484283 9.484283 88.875
      vertex 9.484283 -9.484283 88.875
    endloop
  endfacet
  facet normal 0 1 0
    outer loop
      vertex 9.484283 9.484283 82.95
      vertex -9.484283 9.484283 82.95
      vertex -9.484283 9.484283 88.875
    endloop
  endfacet
  facet normal 0 1 -0
    outer loop
      vertex 9.484283 9.484283 82.95
      vertex -9.484283 9.484283 88.875
      vertex 9.484283 9.484283 88.875
    endloop
  endfacet
  facet normal -1 0 0
    outer loop
      vertex -9.484283 9.484283 82.95
      vertex -9.484283 -9.484283 82.95
      vertex -9.484283 -9.484283 88.875
    endloop
  endfacet
  facet normal -1 0 0
    outer loop
      vertex -9.484283 9.484283 82.95
      vertex -9.484283 -9.484283 88.875
      vertex -9.484283 9.484283 88.875
    endloop
  endfacet
  facet normal 0 0 -1
    outer loop
      vertex -6.447446 6.447446 88.875
      vertex 6.447446 6.447446 88.875
      vertex 6.447446 -6.447446 88.875
    endloop
  endfacet
  facet normal 0 0 -1
    outer loop
      vertex -6.447446 6.447446 88.875
      vertex 6.447446 -6.447446 88.875
      vertex -6.447446 -6.447446 88.875
    endloop
  endfacet
  facet normal 0 0 1
    outer loop
      vertex -6.447446 -6.447446 94.8
      vertex 6.447446 -6.447446 94.8
      vertex 6.447446 6.447446 94.8
    endloop
  endfacet
  facet normal 0 0 1
    outer loop
      vertex -6.447446 -6.447446 94.8
      vertex 6.447446 6.447446 94.8
      vertex -6.447446 6.447446 94.8
    endloop
  endfacet
  facet normal 0 -1 0
    outer loop
      vertex -6.447446 -6.447446 88.875
      vertex 6.447446 -6.447446 88.875
      vertex 6.447446 -6.447446 94.8
    endloop
  endfacet
  facet normal 0 -1 0
    outer loop
      vertex -6.447446 -6.447446 88.875
      vertex 6.447446 -6.447446 94.8
      vertex -6.447446 -6.447446 94.8
    endloop
  endfacet
  facet normal 1 0 0
    outer loop
      vertex 6.447446 -6.447446 88.875
      vertex 6.447446 6.447446 88.875
      vertex 6.447446 6.447446 94.8
    endloop
  endfacet
  facet normal 1 0 0
    outer loop
      vertex 6.447446 -6.447446 88.875
      vertex 6.447446 6.447446 94.8
      vertex 6.447446 -6.447446 94.8
    endloop
  endfacet
  facet normal 0 1 0
    outer loop
      vertex 6.447446 6.447446 88.875
      vertex -6.447446 6.447446 88.875
      vertex -6.447446 6.447446 94.8
    endloop
  endfacet
  facet normal 0 1 -0
    outer loop
      vertex 6.447446 6.447446 88.875
      vertex -6.447446 6.447446 94.8
      vertex 6.447446 6.447446 94.8
    endloop
  endfacet
  facet normal -1 0 0
    outer loop
      vertex -6.447446 6.447446 88.875
      vertex -6.447446 -6.447446 88.875
      vertex -6.447446 -6.447446 94.8
    endloop
  endfacet
  facet normal -1 0 0
    outer loop
      vertex -6.447446 6.447446 88.875
      vertex -6.447446 -6.447446 94.8
      vertex -6.447446 6.447446 94.8
    endloop
  endfacet
endsolid inner_stepped_mound_core
