solid temporary_flat_capstone_platform
  facet normal 0 0 -1
    outer loop
      vertex -44.37809 44.37809 93.9
      vertex 44.37809 44.37809 93.9
      vertex 44.37809 -44.37809 93.9
    endloop
  endfacet
  facet normal 0 0 -1
    outer loop
      vertex -44.37809 44.37809 93.9
      vertex 44.37809 -44.37809 93.9
      vertex -44.37809 -44.37809 93.9
    endloop
  endfacet
  facet normal 0 0 1
    outer loop
      vertex -44.37809 -44.37809 94.8
      vertex 44.37809 -44.37809 94.8
      vertex 44.37809 44.37809 94.8
    endloop
  endfacet
  facet normal 0 0 1
    outer loop
      vertex -44.37809 -44.37809 94.8
      vertex 44.37809 44.37809 94.8
      vertex -44.37809 44.37809 94.8
    endloop
  endfacet
  facet normal 0 -1 0
    outer loop
      vertex -44.37809 -44.37809 93.9
      vertex 44.37809 -44.37809 93.9
      vertex 44.37809 -44.37809 94.8
    endloop
  endfacet
  facet normal 0 -1 0
    outer loop
      vertex -44.37809 -44.37809 93.9
      vertex 44.37809 -44.37809 94.8
      vertex -44.37809 -44.37809 94.8
    endloop
  endfacet
  facet normal 1 0 0
    outer loop
      vertex 44.37809 -44.37809 93.9
      vertex 44.37809 44.37809 93.9
      vertex 44.37809 44.37809 94.8
    endloop
  endfacet
  facet normal 1 0 0
    outer loop
      vertex 44.37809 -44.37809 93.9
      vertex 44.37809 44.37809 94.8
      vertex 44.37809 -44.37809 94.8
    endloop
  endfacet
  facet normal 0 1 0
    outer loop
      vertex 44.37809 44.37809 93.9
      vertex -44.37809 44.37809 93.9
      vertex -44.37809 44.37809 94.8
    endloop
  endfacet
  facet normal 0 1 -0
    outer loop
      vertex 44.37809 44.37809 93.9
      vertex -44.37809 44.37809 94.8
      vertex 44.37809 44.37809 94.8
    endloop
  endfacet
  facet normal -1 0 0
    outer loop
      vertex -44.37809 44.37809 93.9
      vertex -44.37809 -44.37809 93.9
      vertex -44.37809 -44.37809 94.8
    endloop
  endfacet
  facet normal -1 0 0
    outer loop
      vertex -44.37809 44.37809 93.9
      vertex -44.37809 -44.37809 94.8
      vertex -44.37809 44.37809 94.8
    endloop
  endfacet
endsolid temporary_flat_capstone_platform
