solid temporary_stepped_mound_cut_for_ramps
  facet normal 0 0 -1
    outer loop
      vertex -109.9147 109.9147 0
      vertex 109.9147 109.9147 0
      vertex 109.9147 -109.9147 0
    endloop
  endfacet
  facet normal 0 0 -1
    outer loop
      vertex -109.9147 109.9147 0
      vertex 109.9147 -109.9147 0
      vertex -109.9147 -109.9147 0
    endloop
  endfacet
  facet normal 0 0 1
    outer loop
      vertex -109.9147 -109.9147 5.925
      vertex 109.9147 -109.9147 5.925
      vertex 109.9147 109.9147 5.925
    endloop
  endfacet
  facet normal 0 0 1
    outer loop
      vertex -109.9147 -109.9147 5.925
      vertex 109.9147 109.9147 5.925
      vertex -109.9147 109.9147 5.925
    endloop
  endfacet
  facet normal 0 -1 0
    outer loop
      vertex -109.9147 -109.9147 0
      vertex 109.9147 -109.9147 0
      vertex 109.9147 -109.9147 5.925
    endloop
  endfacet
  facet normal 0 -1 0
    outer loop
      vertex -109.9147 -109.9147 0
      vertex 109.9147 -109.9147 5.925
      vertex -109.9147 -109.9147 5.925
    endloop
  endfacet
  facet normal 1 0 0
    outer loop
      vertex 109.9147 -109.9147 0
      vertex 109.9147 109.9147 0
      vertex 109.9147 109.9147 5.925
    endloop
  endfacet
  facet normal 1 0 0
    outer loop
      vertex 109.9147 -109.9147 0
      vertex 109.9147 109.9147 5.925
      vertex 109.9147 -109.9147 5.925
    endloop
  endfacet
  facet normal 0 1 0
    outer loop
      vertex 109.9147 109.9147 0
      vertex -109.9147 109.9147 0
      vertex -109.9147 109.9147 5.925
    endloop
  endfacet
  facet normal 0 1 -0
    outer loop
      vertex 109.9147 109.9147 0
      vertex -109.9147 109.9147 5.925
      vertex 109.9147 109.9147 5.925
    endloop
  endfacet
  facet normal -1 0 0
    outer loop
      vertex -109.9147 109.9147 0
      vertex -109.9147 -109.9147 0
      vertex -109.9147 -109.9147 5.925
    endloop
  endfacet
  facet normal -1 0 0
    outer loop
      vertex -109.9147 109.9147 0
      vertex -109.9147 -109.9147 5.925
      vertex -109.9147 109.9147 5.925
    endloop
  endfacet
  facet normal 0 0 -1
    outer loop
      vertex -105.2585 105.2585 5.925
      vertex 105.2585 105.2585 5.925
      vertex 105.2585 -105.2585 5.925
    endloop
  endfacet
  facet normal 0 0 -1
    outer loop
      vertex -105.2585 105.2585 5.925
      vertex 105.2585 -105.2585 5.925
      vertex -105.2585 -105.2585 5.925
    endloop
  endfacet
  facet normal 0 0 1
    outer loop
      vertex -105.2585 -105.2585 11.85
      vertex 105.2585 -105.2585 11.85
      vertex 105.2585 105.2585 11.85
    endloop
  endfacet
  facet normal 0 0 1
    outer loop
      vertex -105.2585 -105.2585 11.85
      vertex 105.2585 105.2585 11.85
      vertex -105.2585 105.2585 11.85
    endloop
  endfacet
  facet normal 0 -1 0
    outer loop
      vertex -105.2585 -105.2585 5.925
      vertex 105.2585 -105.2585 5.925
      vertex 105.2585 -105.2585 11.85
    endloop
  endfacet
  facet normal 0 -1 0
    outer loop
      vertex -105.2585 -105.2585 5.925
      vertex 105.2585 -105.2585 11.85
      vertex -105.2585 -105.2585 11.85
    endloop
  endfacet
  facet normal 1 0 0
    outer loop
      vertex 105.2585 -105.2585 5.925
      vertex 105.2585 105.2585 5.925
      vertex 105.2585 105.2585 11.85
    endloop
  endfacet
  facet normal 1 0 0
    outer loop
      vertex 105.2585 -105.2585 5.925
      vertex 105.2585 105.2585 11.85
      vertex 105.2585 -105.2585 11.85
    endloop
  endfacet
  facet normal 0 1 0
    outer loop
      vertex 105.2585 105.2585 5.925
      vertex -105.2585 105.2585 5.925
      vertex -105.2585 105.2585 11.85
    endloop
  endfacet
  facet normal 0 1 -0
    outer loop
      vertex 105.2585 105.2585 5.925
      vertex -105.2585 105.2585 11.85
      vertex 105.2585 105.2585 11.85
    endloop
  endfacet
  facet normal -1 0 0
    outer loop
      vertex -105.2585 105.2585 5.925
      vertex -105.2585 -105.2585 5.925
      vertex -105.2585 -105.2585 11.85
    endloop
  endfacet
  facet normal -1 0 0
    outer loop
      vertex -105.2585 105.2585 5.925
      vertex -105.2585 -105.2585 11.85
      vertex -105.2585 105.2585 11.85
    endloop
  endfacet
  facet normal 0 0 -1
    outer loop
      vertex -100.6024 100.6024 11.85
      vertex 100.6024 100.6024 11.85
      vertex 100.6024 -100.6024 11.85
    endloop
  endfacet
  facet normal 0 0 -1
    outer loop
      vertex -100.6024 100.6024 11.85
      vertex 100.6024 -100.6024 11.85
      vertex -100.6024 -100.6024 11.85
    endloop
  endfacet
  facet normal 0 0 1
    outer loop
      vertex -100.6024 -100.6024 17.775
      vertex 100.6024 -100.6024 17.775
      vertex 100.6024 100.6024 17.775
    endloop
  endfacet
  facet normal 0 0 1
    outer loop
      vertex -100.6024 -100.6024 17.775
      vertex 100.6024 100.6024 17.775
      vertex -100.6024 100.6024 17.775
    endloop
  endfacet
  facet normal 0 -1 0
    outer loop
      vertex -100.6024 -100.6024 11.85
      vertex 100.6024 -100.6024 11.85
      vertex 100.6024 -100.6024 17.775
    endloop
  endfacet
  facet normal 0 -1 0
    outer loop
      vertex -100.6024 -100.6024 11.85
      vertex 100.6024 -100.6024 17.775
      vertex -100.6024 -100.6024 17.775
    endloop
  endfacet
  facet normal 1 0 0
    outer loop
      vertex 100.6024 -100.6024 11.85
      vertex 100.6024 100.6024 11.85
      vertex 100.6024 100.6024 17.775
    endloop
  endfacet
  facet normal 1 0 0
    outer loop
      vertex 100.6024 -100.6024 11.85
      vertex 100.6024 100.6024 17.775
      vertex 100.6024 -100.6024 17.775
    endloop
  endfacet
  facet normal 0 1 0
    outer loop
      vertex 100.6024 100.6024 11.85
      vertex -100.6024 100.6024 11.85
      vertex -100.6024 100.6024 17.775
    endloop
  endfacet
  facet normal 0 1 -0
    outer loop
      vertex 100.6024 100.6024 11.85
      vertex -100.6024 100.6024 17.775
      vertex 100.6024 100.6024 17.775
    endloop
  endfacet
  facet normal -1 0 0
    outer loop
      vertex -100.6024 100.6024 11.85
      vertex -100.6024 -100.6024 11.85
      vertex -100.6024 -100.6024 17.775
    endloop
  endfacet
  facet normal -1 0 0
    outer loop
      vertex -100.6024 100.6024 11.85
      vertex -100.6024 -100.6024 17.775
      vertex -100.6024 100.6024 17.775
    endloop
  endfacet
  facet normal 0 0 -1
    outer loop
      vertex -95.94617 95.94617 17.775
      vertex 95.94617 95.94617 17.775
      vertex 95.94617 -95.94617 17.775
    endloop
  endfacet
  facet normal 0 0 -1
    outer loop
      vertex -95.94617 95.94617 17.775
      vertex 95.94617 -95.94617 17.775
      vertex -95.94617 -95.94617 17.775
    endloop
  endfacet
  facet normal 0 0 1
    outer loop
      vertex -95.94617 -95.94617 23.7
      vertex 95.94617 -95.94617 23.7
      vertex 95.94617 95.94617 23.7
    endloop
  endfacet
  facet normal 0 0 1
    outer loop
      vertex -95.94617 -95.94617 23.7
      vertex 95.94617 95.94617 23.7
      vertex -95.94617 95.94617 23.7
    endloop
  endfacet
  facet normal 0 -1 0
    outer loop
      vertex -95.94617 -95.94617 17.775
      vertex 95.94617 -95.94617 17.775
      vertex 95.94617 -95.94617 23.7
    endloop
  endfacet
  facet normal 0 -1 0
    outer loop
      vertex -95.94617 -95.94617 17.775
      vertex 95.94617 -95.94617 23.7
      vertex -95.94617 -95.94617 23.7
    endloop
  endfacet
  facet normal 1 0 0
    outer loop
      vertex 95.94617 -95.94617 17.775
      vertex 95.94617 95.94617 17.775
      vertex 95.94617 95.94617 23.7
    endloop
  endfacet
  facet normal 1 0 0
    outer loop
      vertex 95.94617 -95.94617 17.775
      vertex 95.94617 95.94617 23.7
      vertex 95.94617 -95.94617 23.7
    endloop
  endfacet
  facet normal 0 1 0
    outer loop
      vertex 95.94617 95.94617 17.775
      vertex -95.94617 95.94617 17.775
      vertex -95.94617 95.94617 23.7
    endloop
  endfacet
  facet normal 0 1 -0
    outer loop
      vertex 95.94617 95.94617 17.775
      vertex -95.94617 95.94617 23.7
      vertex 95.94617 95.94617 23.7
    endloop
  endfacet
  facet normal -1 0 0
    outer loop
      vertex -95.94617 95.94617 17.775
      vertex -95.94617 -95.94617 17.775
      vertex -95.94617 -95.94617 23.7
    endloop
  endfacet
  facet normal -1 0 0
    outer loop
      vertex -95.94617 95.94617 17.775
      vertex -95.94617 -95.94617 23.7
      vertex -95.94617 95.94617 23.7
    endloop
  endfacet
  facet normal 0 0 -1
    outer loop
      vertex -91.28998 91.28998 23.7
      vertex 91.28998 91.28998 23.7
      vertex 91.28998 -91.28998 23.7
    endloop
  endfacet
  facet normal 0 0 -1
    outer loop
      vertex -91.28998 91.28998 23.7
      vertex 91.28998 -91.28998 23.7
      vertex -91.28998 -91.28998 23.7
    endloop
  endfacet
  facet normal 0 0 1
    outer loop
      vertex -91.28998 -91.28998 29.625
      vertex 91.28998 -91.28998 29.625
      vertex 91.28998 91.28998 29.625
    endloop
  endfacet
  facet normal 0 0 1
    outer loop
      vertex -91.28998 -91.28998 29.625
      vertex 91.28998 91.28998 29.625
      vertex -91.28998 91.28998 29.625
    endloop
  endfacet
  facet normal 0 -1 0
    outer loop
      vertex -91.28998 -91.28998 23.7
      vertex 91.28998 -91.28998 23.7
      vertex 91.28998 -91.28998 29.625
    endloop
  endfacet
  facet normal 0 -1 0
    outer loop
      vertex -91.28998 -91.28998 23.7
      vertex 91.28998 -91.28998 29.625
      vertex -91.28998 -91.28998 29.625
    endloop
  endfacet
  facet normal 1 0 0
    outer loop
      vertex 91.28998 -91.28998 23.7
      vertex 91.28998 91.28998 23.7
      vertex 91.28998 91.28998 29.625
    endloop
  endfacet
  facet normal 1 0 0
    outer loop
      vertex 91.28998 -91.28998 23.7
      vertex 91.28998 91.28998 29.625
      vertex 91.28998 -91.28998 29.625
    endloop
  endfacet
  facet normal 0 1 0
    outer loop
      vertex 91.28998 91.28998 23.7
      vertex -91.28998 91.28998 23.7
      vertex -91.28998 91.28998 29.625
    endloop
  endfacet
  facet normal 0 1 -0
    outer loop
      vertex 91.28998 91.28998 23.7
      vertex -91.28998 91.28998 29.625
      vertex 91.28998 91.28998 29.625
    endloop
  endfacet
  facet normal -1 0 0
    outer loop
      vertex -91.28998 91.28998 23.7
      vertex -91.28998 -91.28998 23.7
      vertex -91.28998 -91.28998 29.625
    endloop
  endfacet
  facet normal -1 0 0
    outer loop
      vertex -91.28998 91.28998 23.7
      vertex -91.28998 -91.28998 29.625
      vertex -91.28998 91.28998 29.625
    endloop
  endfacet
  facet normal 0 0 -1
    outer loop
      vertex -86.63379 86.63379 29.625
      vertex 86.63379 86.63379 29.625
      vertex 86.63379 -86.63379 29.625
    endloop
  endfacet
  facet normal 0 0 -1
    outer loop
      vertex -86.63379 86.63379 29.625
      vertex 86.63379 -86.63379 29.625
      vertex -86.63379 -86.63379 29.625
    endloop
  endfacet
  facet normal 0 0 1
    outer loop
      vertex -86.63379 -86.63379 35.55
      vertex 86.63379 -86.63379 35.55
      vertex 86.63379 86.63379 35.55
    endloop
  endfacet
  facet normal 0 0 1
    outer loop
      vertex -86.63379 -86.63379 35.55
      vertex 86.63379 86.63379 35.55
      vertex -86.63379 86.63379 35.55
    endloop
  endfacet
  facet normal 0 -1 0
    outer loop
      vertex -86.63379 -86.63379 29.625
      vertex 86.63379 -86.63379 29.625
      vertex 86.63379 -86.63379 35.55
    endloop
  endfacet
  facet normal 0 -1 0
    outer loop
      vertex -86.63379 -86.63379 29.625
      vertex 86.63379 -86.63379 35.55
      vertex -86.63379 -86.63379 35.55
    endloop
  endfacet
  facet normal 1 0 0
    outer loop
      vertex 86.63379 -86.63379 29.625
      vertex 86.63379 86.63379 29.625
      vertex 86.63379 86.63379 35.55
    endloop
  endfacet
  facet normal 1 0 0
    outer loop
      vertex 86.63379 -86.63379 29.625
      vertex 86.63379 86.63379 35.55
      vertex 86.63379 -86.63379 35.55
    endloop
  endfacet
  facet normal 0 1 0
    outer loop
      vertex 86.63379 86.63379 29.625
      vertex -86.63379 86.63379 29.625
      vertex -86.63379 86.63379 35.55
    endloop
  endfacet
  facet normal 0 1 -0
    outer loop
      vertex 86.63379 86.63379 29.625
      vertex -86.63379 86.63379 35.55
      vertex 86.63379 86.63379 35.55
    endloop
  endfacet
  facet normal -1 0 0
    outer loop
      vertex -86.63379 86.63379 29.625
      vertex -86.63379 -86.63379 29.625
      vertex -86.63379 -86.63379 35.55
    endloop
  endfacet
  facet normal -1 0 0
    outer loop
      vertex -86.63379 86.63379 29.625
      vertex -86.63379 -86.63379 35.55
      vertex -86.63379 86.63379 35.55
    endloop
  endfacet
  facet normal 0 0 -1
    outer loop
      vertex -81.9776 81.9776 35.55
      vertex 81.9776 81.9776 35.55
      vertex 81.9776 -81.9776 35.55
    endloop
  endfacet
  facet normal 0 0 -1
    outer loop
      vertex -81.9776 81.9776 35.55
      vertex 81.9776 -81.9776 35.55
      vertex -81.9776 -81.9776 35.55
    endloop
  endfacet
  facet normal 0 0 1
    outer loop
      vertex -81.9776 -81.9776 41.475
      vertex 81.9776 -81.9776 41.475
      vertex 81.9776 81.9776 41.475
    endloop
  endfacet
  facet normal 0 0 1
    outer loop
      vertex -81.9776 -81.9776 41.475
      vertex 81.9776 81.9776 41.475
      vertex -81.9776 81.9776 41.475
    endloop
  endfacet
  facet normal 0 -1 0
    outer loop
      vertex -81.9776 -81.9776 35.55
      vertex 81.9776 -81.9776 35.55
      vertex 81.9776 -81.9776 41.475
    endloop
  endfacet
  facet normal 0 -1 0
    outer loop
      vertex -81.9776 -81.9776 35.55
      vertex 81.9776 -81.9776 41.475
      vertex -81.9776 -81.9776 41.475
    endloop
  endfacet
  facet normal 1 0 0
    outer loop
      vertex 81.9776 -81.9776 35.55
      vertex 81.9776 81.9776 35.55
      vertex 81.9776 81.9776 41.475
    endloop
  endfacet
  facet normal 1 0 0
    outer loop
      vertex 81.9776 -81.9776 35.55
      vertex 81.9776 81.9776 41.475
      vertex 81.9776 -81.9776 41.475
    endloop
  endfacet
  facet normal 0 1 0
    outer loop
      vertex 81.9776 81.9776 35.55
      vertex -81.9776 81.9776 35.55
      vertex -81.9776 81.9776 41.475
    endloop
  endfacet
  facet normal 0 1 -0
    outer loop
      vertex 81.9776 81.9776 35.55
      vertex -81.9776 81.9776 41.475
      vertex 81.9776 81.9776 41.475
    endloop
  endfacet
  facet normal -1 0 0
    outer loop
      vertex -81.9776 81.9776 35.55
      vertex -81.9776 -81.9776 35.55
      vertex -81.9776 -81.9776 41.475
    endloop
  endfacet
  facet normal -1 0 0
    outer loop
      vertex -81.9776 81.9776 35.55
      vertex -81.9776 -81.9776 41.475
      vertex -81.9776 81.9776 41.475
    endloop
  endfacet
  facet normal 0 0 -1
    outer loop
      vertex -77.32141 77.32141 41.475
      vertex 77.32141 77.32141 41.475
      vertex 77.32141 -77.32141 41.475
    endloop
  endfacet
  facet normal 0 0 -1
    outer loop
      vertex -77.32141 77.32141 41.475
      vertex 77.32141 -77.32141 41.475
      vertex -77.32141 -77.32141 41.475
    endloop
  endfacet
  facet normal 0 0 1
    outer loop
      vertex -77.32141 -77.32141 47.4
      vertex 77.32141 -77.32141 47.4
      vertex 77.32141 77.32141 47.4
    endloop
  endfacet
  facet normal 0 0 1
    outer loop
      vertex -77.32141 -77.32141 47.4
      vertex 77.32141 77.32141 47.4
      vertex -77.32141 77.32141 47.4
    endloop
  endfacet
  facet normal 0 -1 0
    outer loop
      vertex -77.32141 -77.32141 41.475
      vertex 77.32141 -77.32141 41.475
      vertex 77.32141 -77.32141 47.4
    endloop
  endfacet
  facet normal 0 -1 0
    outer loop
      vertex -77.32141 -77.32141 41.475
      vertex 77.32141 -77.32141 47.4
      vertex -77.32141 -77.32141 47.4
    endloop
  endfacet
  facet normal 1 0 0
    outer loop
      vertex 77.32141 -77.32141 41.475
      vertex 77.32141 77.32141 41.475
      vertex 77.32141 77.32141 47.4
    endloop
  endfacet
  facet normal 1 0 0
    outer loop
      vertex 77.32141 -77.32141 41.475
      vertex 77.32141 77.32141 47.4
      vertex 77.32141 -77.32141 47.4
    endloop
  endfacet
  facet normal 0 1 0
    outer loop
      vertex 77.32141 77.32141 41.475
      vertex -77.32141 77.32141 41.475
      vertex -77.32141 77.32141 47.4
    endloop
  endfacet
  facet normal 0 1 -0
    outer loop
      vertex 77.32141 77.32141 41.475
      vertex -77.32141 77.32141 47.4
      vertex 77.32141 77.32141 47.4
    endloop
  endfacet
  facet normal -1 0 0
    outer loop
      vertex -77.32141 77.32141 41.475
      vertex -77.32141 -77.32141 41.475
      vertex -77.32141 -77.32141 47.4
    endloop
  endfacet
  facet normal -1 0 0
    outer loop
      vertex -77.32141 77.32141 41.475
      vertex -77.32141 -77.32141 47.4
      vertex -77.32141 77.32141 47.4
    endloop
  endfacet
  facet normal 0 0 -1
    outer loop
      vertex -72.66523 72.66523 47.4
      vertex 72.66523 72.66523 47.4
      vertex 72.66523 -72.66523 47.4
    endloop
  endfacet
  facet normal 0 0 -1
    outer loop
      vertex -72.66523 72.66523 47.4
      vertex 72.66523 -72.66523 47.4
      vertex -72.66523 -72.66523 47.4
    endloop
  endfacet
  facet normal 0 0 1
    outer loop
      vertex -72.66523 -72.66523 53.325
      vertex 72.66523 -72.66523 53.325
      vertex 72.66523 72.66523 53.325
    endloop
  endfacet
  facet normal 0 0 1
    outer loop
      vertex -72.66523 -72.66523 53.325
      vertex 72.66523 72.66523 53.325
      vertex -72.66523 72.66523 53.325
    endloop
  endfacet
  facet normal 0 -1 0
    outer loop
      vertex -72.66523 -72.66523 47.4
      vertex 72.66523 -72.66523 47.4
      vertex 72.66523 -72.66523 53.325
    endloop
  endfacet
  facet normal 0 -1 0
    outer loop
      vertex -72.66523 -72.66523 47.4
      vertex 72.66523 -72.66523 53.325
      vertex -72.66523 -72.66523 53.325
    endloop
  endfacet
  facet normal 1 0 0
    outer loop
      vertex 72.66523 -72.66523 47.4
      vertex 72.66523 72.66523 47.4
      vertex 72.66523 72.66523 53.325
    endloop
  endfacet
  facet normal 1 0 0
    outer loop
      vertex 72.66523 -72.66523 47.4
      vertex 72.66523 72.66523 53.325
      vertex 72.66523 -72.66523 53.325
    endloop
  endfacet
  facet normal 0 1 0
    outer loop
      vertex 72.66523 72.66523 47.4
      vertex -72.66523 72.66523 47.4
      vertex -72.66523 72.66523 53.325
    endloop
  endfacet
  facet normal 0 1 -0
    outer loop
      vertex 72.66523 72.66523 47.4
      vertex -72.66523 72.66523 53.325
      vertex 72.66523 72.66523 53.325
    endloop
  endfacet
  facet normal -1 0 0
    outer loop
      vertex -72.66523 72.66523 47.4
      vertex -72.66523 -72.66523 47.4
      vertex -72.66523 -72.66523 53.325
    endloop
  endfacet
  facet normal -1 0 0
    outer loop
      vertex -72.66523 72.66523 47.4
      vertex -72.66523 -72.66523 53.325
      vertex -72.66523 72.66523 53.325
    endloop
  endfacet
  facet normal 0 0 -1
    outer loop
      vertex -68.00904 68.00904 53.325
      vertex 68.00904 68.00904 53.325
      vertex 68.00904 -68.00904 53.325
    endloop
  endfacet
  facet normal 0 0 -1
    outer loop
      vertex -68.00904 68.00904 53.325
      vertex 68.00904 -68.00904 53.325
      vertex -68.00904 -68.00904 53.325
    endloop
  endfacet
  facet normal 0 0 1
    outer loop
      vertex -68.00904 -68.00904 59.25
      vertex 68.00904 -68.00904 59.25
      vertex 68.00904 68.00904 59.25
    endloop
  endfacet
  facet normal 0 0 1
    outer loop
      vertex -68.00904 -68.00904 59.25
      vertex 68.00904 68.00904 59.25
      vertex -68.00904 68.00904 59.25
    endloop
  endfacet
  facet normal 0 -1 0
    outer loop
      vertex -68.00904 -68.00904 53.325
      vertex 68.00904 -68.00904 53.325
      vertex 68.00904 -68.00904 59.25
    endloop
  endfacet
  facet normal 0 -1 0
    outer loop
      vertex -68.00904 -68.00904 53.325
      vertex 68.00904 -68.00904 59.25
      vertex -68.00904 -68.00904 59.25
    endloop
  endfacet
  facet normal 1 0 0
    outer loop
      vertex 68.00904 -68.00904 53.325
      vertex 68.00904 68.00904 53.325
      vertex 68.00904 68.00904 59.25
    endloop
  endfacet
  facet normal 1 0 0
    outer loop
      vertex 68.00904 -68.00904 53.325
      vertex 68.00904 68.00904 59.25
      vertex 68.00904 -68.00904 59.25
    endloop
  endfacet
  facet normal 0 1 0
    outer loop
      vertex 68.00904 68.00904 53.325
      vertex -68.00904 68.00904 53.325
      vertex -68.00904 68.00904 59.25
    endloop
  endfacet
  facet normal 0 1 -0
    outer loop
      vertex 68.00904 68.00904 53.325
      vertex -68.00904 68.00904 59.25
      vertex 68.00904 68.00904 59.25
    endloop
  endfacet
  facet normal -1 0 0
    outer loop
      vertex -68.00904 68.00904 53.325
      vertex -68.00904 -68.00904 53.325
      vertex -68.00904 -68.00904 59.25
    endloop
  endfacet
  facet normal -1 0 0
    outer loop
      vertex -68.00904 68.00904 53.325
      vertex -68.00904 -68.00904 59.25
      vertex -68.00904 68.00904 59.25
    endloop
  endfacet
  facet normal 0 0 -1
    outer loop
      vertex -63.35285 63.35285 59.25
      vertex 63.35285 63.35285 59.25
      vertex 63.35285 -63.35285 59.25
    endloop
  endfacet
  facet normal 0 0 -1
    outer loop
      vertex -63.35285 63.35285 59.25
      vertex 63.35285 -63.35285 59.25
      vertex -63.35285 -63.35285 59.25
    endloop
  endfacet
  facet normal 0 0 1
    outer loop
      vertex -63.35285 -63.35285 65.175
      vertex 63.35285 -63.35285 65.175
      vertex 63.35285 63.35285 65.175
    endloop
  endfacet
  facet normal 0 0 1
    outer loop
      vertex -63.35285 -63.35285 65.175
      vertex 63.35285 63.35285 65.175
      vertex -63.35285 63.35285 65.175
    endloop
  endfacet
  facet normal 0 -1 0
    outer loop
      vertex -63.35285 -63.35285 59.25
      vertex 63.35285 -63.35285 59.25
      vertex 63.35285 -63.35285 65.175
    endloop
  endfacet
  facet normal 0 -1 0
    outer loop
      vertex -63.35285 -63.35285 59.25
      vertex 63.35285 -63.35285 65.175
      vertex -63.35285 -63.35285 65.175
    endloop
  endfacet
  facet normal 1 0 0
    outer loop
      vertex 63.35285 -63.35285 59.25
      vertex 63.35285 63.35285 59.25
      vertex 63.35285 63.35285 65.175
    endloop
  endfacet
  facet normal 1 0 0
    outer loop
      vertex 63.35285 -63.35285 59.25
      vertex 63.35285 63.35285 65.175
      vertex 63.35285 -63.35285 65.175
    endloop
  endfacet
  facet normal 0 1 0
    outer loop
      vertex 63.35285 63.35285 59.25
      vertex -63.35285 63.35285 59.25
      vertex -63.35285 63.35285 65.175
    endloop
  endfacet
  facet normal 0 1 -0
    outer loop
      vertex 63.35285 63.35285 59.25
      vertex -63.35285 63.35285 65.175
      vertex 63.35285 63.35285 65.175
    endloop
  endfacet
  facet normal -1 0 0
    outer loop
      vertex -63.35285 63.35285 59.25
      vertex -63.35285 -63.35285 59.25
      vertex -63.35285 -63.35285 65.175
    endloop
  endfacet
  facet normal -1 0 0
    outer loop
      vertex -63.35285 63.35285 59.25
      vertex -63.35285 -63.35285 65.175
      vertex -63.35285 63.35285 65.175
    endloop
  endfacet
  facet normal 0 0 -1
    outer loop
      vertex -58.69666 58.69666 65.175
      vertex 58.69666 58.69666 65.175
      vertex 58.69666 -58.69666 65.175
    endloop
  endfacet
  facet normal 0 0 -1
    outer loop
      vertex -58.69666 58.69666 65.175
      vertex 58.69666 -58.69666 65.175
      vertex -58.69666 -58.69666 65.175
    endloop
  endfacet
  facet normal 0 0 1
    outer loop
      vertex -58.69666 -58.69666 71.1
      vertex 58.69666 -58.69666 71.1
      vertex 58.69666 58.69666 71.1
    endloop
  endfacet
  facet normal 0 0 1
    outer loop
      vertex -58.69666 -58.69666 71.1
      vertex 58.69666 58.69666 71.1
      vertex -58.69666 58.69666 71.1
    endloop
  endfacet
  facet normal 0 -1 0
    outer loop
      vertex -58.69666 -58.69666 65.175
      vertex 58.69666 -58.69666 65.175
      vertex 58.69666 -58.69666 71.1
    endloop
  endfacet
  facet normal 0 -1 0
    outer loop
      vertex -58.69666 -58.69666 65.175
      vertex 58.69666 -58.69666 71.1
      vertex -58.69666 -58.69666 71.1
    endloop
  endfacet
  facet normal 1 0 0
    outer loop
      vertex 58.69666 -58.69666 65.175
      vertex 58.69666 58.69666 65.175
      vertex 58.69666 58.69666 71.1
    endloop
  endfacet
  facet normal 1 0 0
    outer loop
      vertex 58.69666 -58.69666 65.175
      vertex 58.69666 58.69666 71.1
      vertex 58.69666 -58.69666 71.1
    endloop
  endfacet
  facet normal 0 1 0
    outer loop
      vertex 58.69666 58.69666 65.175
      vertex -58.69666 58.69666 65.175
      vertex -58.69666 58.69666 71.1
    endloop
  endfacet
  facet normal 0 1 -0
    outer loop
      vertex 58.69666 58.69666 65.175
      vertex -58.69666 58.69666 71.1
      vertex 58.69666 58.69666 71.1
    endloop
  endfacet
  facet normal -1 0 0
    outer loop
      vertex -58.69666 58.69666 65.175
      vertex -58.69666 -58.69666 65.175
      vertex -58.69666 -58.69666 71.1
    endloop
  endfacet
  facet normal -1 0 0
    outer loop
      vertex -58.69666 58.69666 65.175
      vertex -58.69666 -58.69666 71.1
      vertex -58.69666 58.69666 71.1
    endloop
  endfacet
  facet normal 0 0 -1
    outer loop
      vertex -54.04047 54.04047 71.1
      vertex 54.04047 54.04047 71.1
      vertex 54.04047 -54.04047 71.1
    endloop
  endfacet
  facet normal 0 0 -1
    outer loop
      vertex -54.04047 54.04047 71.1
      vertex 54.04047 -54.04047 71.1
      vertex -54.04047 -54.04047 71.1
    endloop
  endfacet
  facet normal 0 0 1
    outer loop
      vertex -54.04047 -54.04047 77.025
      vertex 54.04047 -54.04047 77.025
      vertex 54.04047 54.04047 77.025
    endloop
  endfacet
  facet normal 0 0 1
    outer loop
      vertex -54.04047 -54.04047 77.025
      vertex 54.04047 54.04047 77.025
      vertex -54.04047 54.04047 77.025
    endloop
  endfacet
  facet normal 0 -1 0
    outer loop
      vertex -54.04047 -54.04047 71.1
      vertex 54.04047 -54.04047 71.1
      vertex 54.04047 -54.04047 77.025
    endloop
  endfacet
  facet normal 0 -1 0
    outer loop
      vertex -54.04047 -54.04047 71.1
      vertex 54.04047 -54.04047 77.025
      vertex -54.04047 -54.04047 77.025
    endloop
  endfacet
  facet normal 1 0 0
    outer loop
      vertex 54.04047 -54.04047 71.1
      vertex 54.04047 54.04047 71.1
      vertex 54.04047 54.04047 77.025
    endloop
  endfacet
  facet normal 1 0 0
    outer loop
      vertex 54.04047 -54.04047 71.1
      vertex 54.04047 54.04047 77.025
      vertex 54.04047 -54.04047 77.025
    endloop
  endfacet
  facet normal 0 1 0
    outer loop
      vertex 54.04047 54.04047 71.1
      vertex -54.04047 54.04047 71.1
      vertex -54.04047 54.04047 77.025
    endloop
  endfacet
  facet normal 0 1 -0
    outer loop
      vertex 54.04047 54.04047 71.1
      vertex -54.04047 54.04047 77.025
      vertex 54.04047 54.04047 77.025
    endloop
  endfacet
  facet normal -1 0 0
    outer loop
      vertex -54.04047 54.04047 71.1
      vertex -54.04047 -54.04047 71.1
      vertex -54.04047 -54.04047 77.025
    endloop
  endfacet
  facet normal -1 0 0
    outer loop
      vertex -54.04047 54.04047 71.1
      vertex -54.04047 -54.04047 77.025
      vertex -54.04047 54.04047 77.025
    endloop
  endfacet
  facet normal 0 0 -1
    outer loop
      vertex -49.38428 49.38428 77.025
      vertex 49.38428 49.38428 77.025
      vertex 49.38428 -49.38428 77.025
    endloop
  endfacet
  facet normal 0 0 -1
    outer loop
      vertex -49.38428 49.38428 77.025
      vertex 49.38428 -49.38428 77.025
      vertex -49.38428 -49.38428 77.025
    endloop
  endfacet
  facet normal 0 0 1
    outer loop
      vertex -49.38428 -49.38428 82.95
      vertex 49.38428 -49.38428 82.95
      vertex 49.38428 49.38428 82.95
    endloop
  endfacet
  facet normal 0 0 1
    outer loop
      vertex -49.38428 -49.38428 82.95
      vertex 49.38428 49.38428 82.95
      vertex -49.38428 49.38428 82.95
    endloop
  endfacet
  facet normal 0 -1 0
    outer loop
      vertex -49.38428 -49.38428 77.025
      vertex 49.38428 -49.38428 77.025
      vertex 49.38428 -49.38428 82.95
    endloop
  endfacet
  facet normal 0 -1 0
    outer loop
      vertex -49.38428 -49.38428 77.025
      vertex 49.38428 -49.38428 82.95
      vertex -49.38428 -49.38428 82.95
    endloop
  endfacet
  facet normal 1 0 0
    outer loop
      vertex 49.38428 -49.38428 77.025
      vertex 49.38428 49.38428 77.025
      vertex 49.38428 49.38428 82.95
    endloop
  endfacet
  facet normal 1 0 0
    outer loop
      vertex 49.38428 -49.38428 77.025
      vertex 49.38428 49.38428 82.95
      vertex 49.38428 -49.38428 82.95
    endloop
  endfacet
  facet normal 0 1 0
    outer loop
      vertex 49.38428 49.38428 77.025
      vertex -49.38428 49.38428 77.025
      vertex -49.38428 49.38428 82.95
    endloop
  endfacet
  facet normal 0 1 -0
    outer loop
      vertex 49.38428 49.38428 77.025
      vertex -49.38428 49.38428 82.95
      vertex 49.38428 49.38428 82.95
    endloop
  endfacet
  facet normal -1 0 0
    outer loop
      vertex -49.38428 49.38428 77.025
      vertex -49.38428 -49.38428 77.025
      vertex -49.38428 -49.38428 82.95
    endloop
  endfacet
  facet normal -1 0 0
    outer loop
      vertex -49.38428 49.38428 77.025
      vertex -49.38428 -49.38428 82.95
      vertex -49.38428 49.38428 82.95
    endloop
  endfacet
  facet normal 0 0 -1
    outer loop
      vertex -44.72809 44.72809 82.95
      vertex 44.72809 44.72809 82.95
      vertex 44.72809 -44.72809 82.95
    endloop
  endfacet
  facet normal 0 0 -1
    outer loop
      vertex -44.72809 44.72809 82.95
      vertex 44.72809 -44.72809 82.95
      vertex -44.72809 -44.72809 82.95
    endloop
  endfacet
  facet normal 0 0 1
    outer loop
      vertex -44.72809 -44.72809 88.875
      vertex 44.72809 -44.72809 88.875
      vertex 44.72809 44.72809 88.875
    endloop
  endfacet
  facet normal 0 0 1
    outer loop
      vertex -44.72809 -44.72809 88.875
      vertex 44.72809 44.72809 88.875
      vertex -44.72809 44.72809 88.875
    endloop
  endfacet
  facet normal 0 -1 0
    outer loop
      vertex -44.72809 -44.72809 82.95
      vertex 44.72809 -44.72809 82.95
      vertex 44.72809 -44.72809 88.875
    endloop
  endfacet
  facet normal 0 -1 0
    outer loop
      vertex -44.72809 -44.72809 82.95
      vertex 44.72809 -44.72809 88.875
      vertex -44.72809 -44.72809 88.875
    endloop
  endfacet
  facet normal 1 0 0
    outer loop
      vertex 44.72809 -44.72809 82.95
      vertex 44.72809 44.72809 82.95
      vertex 44.72809 44.72809 88.875
    endloop
  endfacet
  facet normal 1 0 0
    outer loop
      vertex 44.72809 -44.72809 82.95
      vertex 44.72809 44.72809 88.875
      vertex 44.72809 -44.72809 88.875
    endloop
  endfacet
  facet normal 0 1 0
    outer loop
      vertex 44.72809 44.72809 82.95
      vertex -44.72809 44.72809 82.95
      vertex -44.72809 44.72809 88.875
    endloop
  endfacet
  facet normal 0 1 -0
    outer loop
      vertex 44.72809 44.72809 82.95
      vertex -44.72809 44.72809 88.875
      vertex 44.72809 44.72809 88.875
    endloop
  endfacet
  facet normal -1 0 0
    outer loop
      vertex -44.72809 44.72809 82.95
      vertex -44.72809 -44.72809 82.95
      vertex -44.72809 -44.72809 88.875
    endloop
  endfacet
  facet normal -1 0 0
    outer loop
      vertex -44.72809 44.72809 82.95
      vertex -44.72809 -44.72809 88.875
      vertex -44.72809 44.72809 88.875
    endloop
  endfacet
  facet normal 0 0 -1
    outer loop
      vertex -44.72809 44.72809 88.875
      vertex 44.72809 44.72809 88.875
      vertex 44.72809 -44.72809 88.875
    endloop
  endfacet
  facet normal 0 0 -1
    outer loop
      vertex -44.72809 44.72809 88.875
      vertex 44.72809 -44.72809 88.875
      vertex -44.72809 -44.72809 88.875
    endloop
  endfacet
  facet normal 0 0 1
    outer loop
      vertex -44.72809 -44.72809 94.8
      vertex 44.72809 -44.72809 94.8
      vertex 44.72809 44.72809 94.8
    endloop
  endfacet
  facet normal 0 0 1
    outer loop
      vertex -44.72809 -44.72809 94.8
      vertex 44.72809 44.72809 94.8
      vertex -44.72809 44.72809 94.8
    endloop
  endfacet
  facet normal 0 -1 0
    outer loop
      vertex -44.72809 -44.72809 88.875
      vertex 44.72809 -44.72809 88.875
      vertex 44.72809 -44.72809 94.8
    endloop
  endfacet
  facet normal 0 -1 0
    outer loop
      vertex -44.72809 -44.72809 88.875
      vertex 44.72809 -44.72809 94.8
      vertex -44.72809 -44.72809 94.8
    endloop
  endfacet
  facet normal 1 0 0
    outer loop
      vertex 44.72809 -44.72809 88.875
      vertex 44.72809 44.72809 88.875
      vertex 44.72809 44.72809 94.8
    endloop
  endfacet
  facet normal 1 0 0
    outer loop
      vertex 44.72809 -44.72809 88.875
      vertex 44.72809 44.72809 94.8
      vertex 44.72809 -44.72809 94.8
    endloop
  endfacet
  facet normal 0 1 0
    outer loop
      vertex 44.72809 44.72809 88.875
      vertex -44.72809 44.72809 88.875
      vertex -44.72809 44.72809 94.8
    endloop
  endfacet
  facet normal 0 1 -0
    outer loop
      vertex 44.72809 44.72809 88.875
      vertex -44.72809 44.72809 94.8
      vertex 44.72809 44.72809 94.8
    endloop
  endfacet
  facet normal -1 0 0
    outer loop
      vertex -44.72809 44.72809 88.875
      vertex -44.72809 -44.72809 88.875
      vertex -44.72809 -44.72809 94.8
    endloop
  endfacet
  facet normal -1 0 0
    outer loop
      vertex -44.72809 44.72809 88.875
      vertex -44.72809 -44.72809 94.8
      vertex -44.72809 44.72809 94.8
    endloop
  endfacet
endsolid temporary_stepped_mound_cut_for_ramps
