solid ramp_corner_sw_level_01
  facet normal 0 0 1
    outer loop
      vertex 8.3 8.3 5.925
      vertex 8.3 2 5.925
      vertex 20 2 5.925
    endloop
  endfacet
  facet normal 0 0 -1
    outer loop
      vertex 20 2 0
      vertex 8.3 2 0
      vertex 8.3 8.3 0
    endloop
  endfacet
  facet normal -0 0 1
    outer loop
      vertex 8.3 8.3 5.925
      vertex 20 2 5.925
      vertex 20 20 5.925
    endloop
  endfacet
  facet normal 0 -0 -1
    outer loop
      vertex 20 20 0
      vertex 20 2 0
      vertex 8.3 8.3 0
    endloop
  endfacet
  facet normal 0 -0 1
    outer loop
      vertex 8.3 8.3 5.925
      vertex 20 20 5.925
      vertex 2 20 5.925
    endloop
  endfacet
  facet normal 0 0 -1
    outer loop
      vertex 2 20 0
      vertex 20 20 0
      vertex 8.3 8.3 0
    endloop
  endfacet
  facet normal 0 0 1
    outer loop
      vertex 2 20 5.925
      vertex 2 8.3 5.925
      vertex 8.3 8.3 5.925
    endloop
  endfacet
  facet normal 0 0 -1
    outer loop
      vertex 8.3 8.3 0
      vertex 2 8.3 0
      vertex 2 20 0
    endloop
  endfacet
  facet normal 0 -1 0
    outer loop
      vertex 8.3 2 0
      vertex 20 2 0
      vertex 20 2 5.925
    endloop
  endfacet
  facet normal 0 -1 0
    outer loop
      vertex 8.3 2 0
      vertex 20 2 5.925
      vertex 8.3 2 5.925
    endloop
  endfacet
  facet normal 1 0 0
    outer loop
      vertex 20 2 0
      vertex 20 20 0
      vertex 20 20 5.925
    endloop
  endfacet
  facet normal 1 0 0
    outer loop
      vertex 20 2 0
      vertex 20 20 5.925
      vertex 20 2 5.925
    endloop
  endfacet
  facet normal 0 1 0
    outer loop
      vertex 20 20 0
      vertex 2 20 0
      vertex 2 20 5.925
    endloop
  endfacet
  facet normal 0 1 -0
    outer loop
      vertex 20 20 0
      vertex 2 20 5.925
      vertex 20 20 5.925
    endloop
  endfacet
  facet normal -1 0 0
    outer loop
      vertex 2 20 0
      vertex 2 8.3 0
      vertex 2 8.3 5.925
    endloop
  endfacet
  facet normal -1 0 0
    outer loop
      vertex 2 20 0
      vertex 2 8.3 5.925
      vertex 2 20 5.925
    endloop
  endfacet
  facet normal 0 -1 0
    outer loop
      vertex 2 8.3 0
      vertex 8.3 8.3 0
      vertex 8.3 8.3 5.925
    endloop
  endfacet
  facet normal 0 -1 0
    outer loop
      vertex 2 8.3 0
      vertex 8.3 8.3 5.925
      vertex 2 8.3 5.925
    endloop
  endfacet
  facet normal -1 0 0
    outer loop
      vertex 8.3 8.3 0
      vertex 8.3 2 0
      vertex 8.3 2 5.925
    endloop
  endfacet
  facet normal -1 0 0
    outer loop
      vertex 8.3 8.3 0
      vertex 8.3 2 5.925
      vertex 8.3 8.3 5.925
    endloop
  endfacet
endsolid ramp_corner_sw_level_01
