solid ramp_corner_ne_level_14
  facet normal 0 0 1
    outer loop
      vertex 2 20 2.8
      vertex 2 2 2.8
      vertex 20 2 2.8
    endloop
  endfacet
  facet normal 0 0 -1
    outer loop
      vertex 20 2 0
      vertex 2 2 0
      vertex 2 20 0
    endloop
  endfacet
  facet normal 0 -0 1
    outer loop
      vertex 20 2 2.8
      vertex 20 13.7 2.8
      vertex 13.7 13.7 2.8
    endloop
  endfacet
  facet normal 0 0 -1
    outer loop
      vertex 13.7 13.7 0
      vertex 20 13.7 0
      vertex 20 2 0
    endloop
  endfacet
  facet normal 0 0 1
    outer loop
      vertex 2 20 2.8
      vertex 20 2 2.8
      vertex 13.7 13.7 2.8
    endloop
  endfacet
  facet normal -0 -0 -1
    outer loop
      vertex 13.7 13.7 0
      vertex 20 2 0
      vertex 2 20 0
    endloop
  endfacet
  facet normal 0 -0 1
    outer loop
      vertex 13.7 13.7 2.8
      vertex 13.7 20 2.8
      vertex 2 20 2.8
    endloop
  endfacet
  facet normal 0 0 -1
    outer loop
      vertex 2 20 0
      vertex 13.7 20 0
      vertex 13.7 13.7 0
    endloop
  endfacet
  facet normal 0 -1 0
    outer loop
      vertex 2 2 0
      vertex 20 2 0
      vertex 20 2 2.8
    endloop
  endfacet
  facet normal 0 -1 0
    outer loop
      vertex 2 2 0
      vertex 20 2 2.8
      vertex 2 2 2.8
    endloop
  endfacet
  facet normal 1 0 0
    outer loop
      vertex 20 2 0
      vertex 20 13.7 0
      vertex 20 13.7 2.8
    endloop
  endfacet
  facet normal 1 0 0
    outer loop
      vertex 20 2 0
      vertex 20 13.7 2.8
      vertex 20 2 2.8
    endloop
  endfacet
  facet normal 0 1 0
    outer loop
      vertex 20 13.7 0
      vertex 13.7 13.7 0
      vertex 13.7 13.7 2.8
    endloop
  endfacet
  facet normal 0 1 -0
    outer loop
      vertex 20 13.7 0
      vertex 13.7 13.7 2.8
      vertex 20 13.7 2.8
    endloop
  endfacet
  facet normal 1 0 0
    outer loop
      vertex 13.7 13.7 0
      vertex 13.7 20 0
      vertex 13.7 20 2.8
    endloop
  endfacet
  facet normal 1 0 0
    outer loop
      vertex 13.7 13.7 0
      vertex 13.7 20 2.8
      vertex 13.7 13.7 2.8
    endloop
  endfacet
  facet normal 0 1 0
    outer loop
      vertex 13.7 20 0
      vertex 2 20 0
      vertex 2 20 2.8
    endloop
  endfacet
  facet normal 0 1 -0
    outer loop
      vertex 13.7 20 0
      vertex 2 20 2.8
      vertex 13.7 20 2.8
    endloop
  endfacet
  facet normal -1 0 0
    outer loop
      vertex 2 20 0
      vertex 2 2 0
      vertex 2 2 2.8
    endloop
  endfacet
  facet normal -1 0 0
    outer loop
      vertex 2 20 0
      vertex 2 2 2.8
      vertex 2 20 2.8
    endloop
  endfacet
endsolid ramp_corner_ne_level_14
