solid ramp_corner_se_level_13
  facet normal 0 0 1
    outer loop
      vertex 2 20 2.8
      vertex 2 2 2.8
      vertex 13.7 2 2.8
    endloop
  endfacet
  facet normal 0 0 -1
    outer loop
      vertex 13.7 2 0
      vertex 2 2 0
      vertex 2 20 0
    endloop
  endfacet
  facet normal 0 0 1
    outer loop
      vertex 2 20 2.8
      vertex 13.7 2 2.8
      vertex 13.7 8.3 2.8
    endloop
  endfacet
  facet normal -0 -0 -1
    outer loop
      vertex 13.7 8.3 0
      vertex 13.7 2 0
      vertex 2 20 0
    endloop
  endfacet
  facet normal 0 0 1
    outer loop
      vertex 2 20 2.8
      vertex 13.7 8.3 2.8
      vertex 20 8.3 2.8
    endloop
  endfacet
  facet normal 0 0 -1
    outer loop
      vertex 20 8.3 0
      vertex 13.7 8.3 0
      vertex 2 20 0
    endloop
  endfacet
  facet normal 0 -0 1
    outer loop
      vertex 20 8.3 2.8
      vertex 20 20 2.8
      vertex 2 20 2.8
    endloop
  endfacet
  facet normal 0 0 -1
    outer loop
      vertex 2 20 0
      vertex 20 20 0
      vertex 20 8.3 0
    endloop
  endfacet
  facet normal 0 -1 0
    outer loop
      vertex 2 2 0
      vertex 13.7 2 0
      vertex 13.7 2 2.8
    endloop
  endfacet
  facet normal 0 -1 0
    outer loop
      vertex 2 2 0
      vertex 13.7 2 2.8
      vertex 2 2 2.8
    endloop
  endfacet
  facet normal 1 0 0
    outer loop
      vertex 13.7 2 0
      vertex 13.7 8.3 0
      vertex 13.7 8.3 2.8
    endloop
  endfacet
  facet normal 1 0 0
    outer loop
      vertex 13.7 2 0
      vertex 13.7 8.3 2.8
      vertex 13.7 2 2.8
    endloop
  endfacet
  facet normal 0 -1 0
    outer loop
      vertex 13.7 8.3 0
      vertex 20 8.3 0
      vertex 20 8.3 2.8
    endloop
  endfacet
  facet normal 0 -1 0
    outer loop
      vertex 13.7 8.3 0
      vertex 20 8.3 2.8
      vertex 13.7 8.3 2.8
    endloop
  endfacet
  facet normal 1 0 0
    outer loop
      vertex 20 8.3 0
      vertex 20 20 0
      vertex 20 20 2.8
    endloop
  endfacet
  facet normal 1 0 0
    outer loop
      vertex 20 8.3 0
      vertex 20 20 2.8
      vertex 20 8.3 2.8
    endloop
  endfacet
  facet normal 0 1 0
    outer loop
      vertex 20 20 0
      vertex 2 20 0
      vertex 2 20 2.8
    endloop
  endfacet
  facet normal 0 1 -0
    outer loop
      vertex 20 20 0
      vertex 2 20 2.8
      vertex 20 20 2.8
    endloop
  endfacet
  facet normal -1 0 0
    outer loop
      vertex 2 20 0
      vertex 2 2 0
      vertex 2 2 2.8
    endloop
  endfacet
  facet normal -1 0 0
    outer loop
      vertex 2 20 0
      vertex 2 2 2.8
      vertex 2 20 2.8
    endloop
  endfacet
endsolid ramp_corner_se_level_13
