solid ramp_corner_nw_level_11
  facet normal 0 0 1
    outer loop
      vertex 2 13.7 2.8
      vertex 2 2 2.8
      vertex 20 2 2.8
    endloop
  endfacet
  facet normal 0 0 -1
    outer loop
      vertex 20 2 0
      vertex 2 2 0
      vertex 2 13.7 0
    endloop
  endfacet
  facet normal 0 -0 1
    outer loop
      vertex 20 2 2.8
      vertex 20 20 2.8
      vertex 8.3 20 2.8
    endloop
  endfacet
  facet normal 0 0 -1
    outer loop
      vertex 8.3 20 0
      vertex 20 20 0
      vertex 20 2 0
    endloop
  endfacet
  facet normal 0 0 1
    outer loop
      vertex 20 2 2.8
      vertex 8.3 20 2.8
      vertex 8.3 13.7 2.8
    endloop
  endfacet
  facet normal 0 0 -1
    outer loop
      vertex 8.3 13.7 0
      vertex 8.3 20 0
      vertex 20 2 0
    endloop
  endfacet
  facet normal 0 0 1
    outer loop
      vertex 20 2 2.8
      vertex 8.3 13.7 2.8
      vertex 2 13.7 2.8
    endloop
  endfacet
  facet normal 0 0 -1
    outer loop
      vertex 2 13.7 0
      vertex 8.3 13.7 0
      vertex 20 2 0
    endloop
  endfacet
  facet normal 0 -1 0
    outer loop
      vertex 2 2 0
      vertex 20 2 0
      vertex 20 2 2.8
    endloop
  endfacet
  facet normal 0 -1 0
    outer loop
      vertex 2 2 0
      vertex 20 2 2.8
      vertex 2 2 2.8
    endloop
  endfacet
  facet normal 1 0 0
    outer loop
      vertex 20 2 0
      vertex 20 20 0
      vertex 20 20 2.8
    endloop
  endfacet
  facet normal 1 0 0
    outer loop
      vertex 20 2 0
      vertex 20 20 2.8
      vertex 20 2 2.8
    endloop
  endfacet
  facet normal 0 1 0
    outer loop
      vertex 20 20 0
      vertex 8.3 20 0
      vertex 8.3 20 2.8
    endloop
  endfacet
  facet normal 0 1 -0
    outer loop
      vertex 20 20 0
      vertex 8.3 20 2.8
      vertex 20 20 2.8
    endloop
  endfacet
  facet normal -1 0 0
    outer loop
      vertex 8.3 20 0
      vertex 8.3 13.7 0
      vertex 8.3 13.7 2.8
    endloop
  endfacet
  facet normal -1 0 0
    outer loop
      vertex 8.3 20 0
      vertex 8.3 13.7 2.8
      vertex 8.3 20 2.8
    endloop
  endfacet
  facet normal 0 1 0
    outer loop
      vertex 8.3 13.7 0
      vertex 2 13.7 0
      vertex 2 13.7 2.8
    endloop
  endfacet
  facet normal 0 1 -0
    outer loop
      vertex 8.3 13.7 0
      vertex 2 13.7 2.8
      vertex 8.3 13.7 2.8
    endloop
  endfacet
  facet normal -1 0 0
    outer loop
      vertex 2 13.7 0
      vertex 2 2 0
      vertex 2 2 2.8
    endloop
  endfacet
  facet normal -1 0 0
    outer loop
      vertex 2 13.7 0
      vertex 2 2 2.8
      vertex 2 13.7 2.8
    endloop
  endfacet
endsolid ramp_corner_nw_level_11
