solid ramp_face_2_level_15
  facet normal 0 0 -1
    outer loop
      vertex 2 2 0
      vertex 2 76.07642 0
      vertex 20 76.07642 0
    endloop
  endfacet
  facet normal 0 0 -1
    outer loop
      vertex 2 2 0
      vertex 20 76.07642 0
      vertex 20 2 0
    endloop
  endfacet
  facet normal 0 0 -1
    outer loop
      vertex 2 76.07642 0
      vertex 2 100.7686 0
      vertex 20 100.7686 0
    endloop
  endfacet
  facet normal 0 0 -1
    outer loop
      vertex 2 76.07642 0
      vertex 20 100.7686 0
      vertex 20 76.07642 0
    endloop
  endfacet
  facet normal 0 -0.07973033 0.9968165
    outer loop
      vertex 2 2 2.8
      vertex 20 76.07642 8.725
      vertex 2 76.07642 8.725
    endloop
  endfacet
  facet normal 0 -0.07973033 0.9968165
    outer loop
      vertex 2 2 2.8
      vertex 20 2 2.8
      vertex 20 76.07642 8.725
    endloop
  endfacet
  facet normal 0 0 1
    outer loop
      vertex 2 76.07642 8.725
      vertex 20 100.7686 8.725
      vertex 2 100.7686 8.725
    endloop
  endfacet
  facet normal 0 0 1
    outer loop
      vertex 2 76.07642 8.725
      vertex 20 76.07642 8.725
      vertex 20 100.7686 8.725
    endloop
  endfacet
  facet normal -1 0 0
    outer loop
      vertex 2 2 0
      vertex 2 76.07642 8.725
      vertex 2 76.07642 0
    endloop
  endfacet
  facet normal -1 0 0
    outer loop
      vertex 2 2 0
      vertex 2 2 2.8
      vertex 2 76.07642 8.725
    endloop
  endfacet
  facet normal -1 0 0
    outer loop
      vertex 2 76.07642 0
      vertex 2 100.7686 8.725
      vertex 2 100.7686 0
    endloop
  endfacet
  facet normal -1 0 0
    outer loop
      vertex 2 76.07642 0
      vertex 2 76.07642 8.725
      vertex 2 100.7686 8.725
    endloop
  endfacet
  facet normal 1 0 0
    outer loop
      vertex 20 2 0
      vertex 20 76.07642 0
      vertex 20 76.07642 8.725
    endloop
  endfacet
  facet normal 1 0 0
    outer loop
      vertex 20 2 0
      vertex 20 76.07642 8.725
      vertex 20 2 2.8
    endloop
  endfacet
  facet normal 1 0 0
    outer loop
      vertex 20 76.07642 0
      vertex 20 100.7686 0
      vertex 20 100.7686 8.725
    endloop
  endfacet
  facet normal 1 0 0
    outer loop
      vertex 20 76.07642 0
      vertex 20 100.7686 8.725
      vertex 20 76.07642 8.725
    endloop
  endfacet
  facet normal 0 -1 0
    outer loop
      vertex 20 2 0
      vertex 2 2 2.8
      vertex 2 2 0
    endloop
  endfacet
  facet normal 0 -1 0
    outer loop
      vertex 20 2 0
      vertex 20 2 2.8
      vertex 2 2 2.8
    endloop
  endfacet
  facet normal 0 1 0
    outer loop
      vertex 2 100.7686 0
      vertex 20 100.7686 8.725
      vertex 20 100.7686 0
    endloop
  endfacet
  facet normal 0 1 0
    outer loop
      vertex 2 100.7686 0
      vertex 2 100.7686 8.725
      vertex 20 100.7686 8.725
    endloop
  endfacet
endsolid ramp_face_2_level_15
