solid ramp_face_1_level_13
  facet normal 0 0 -1
    outer loop
      vertex 2 2 0
      vertex 90.04499 20 0
      vertex 90.04499 2 0
    endloop
  endfacet
  facet normal 0 0 -1
    outer loop
      vertex 2 2 0
      vertex 2 20 0
      vertex 90.04499 20 0
    endloop
  endfacet
  facet normal 0 0 -1
    outer loop
      vertex 90.04499 2 0
      vertex 119.3933 20 0
      vertex 119.3933 2 0
    endloop
  endfacet
  facet normal 0 0 -1
    outer loop
      vertex 90.04499 2 0
      vertex 90.04499 20 0
      vertex 119.3933 20 0
    endloop
  endfacet
  facet normal -0.06714328 0 0.9977433
    outer loop
      vertex 2 2 2.8
      vertex 90.04499 2 8.725
      vertex 90.04499 20 8.725
    endloop
  endfacet
  facet normal -0.06714328 0 0.9977433
    outer loop
      vertex 2 2 2.8
      vertex 90.04499 20 8.725
      vertex 2 20 2.8
    endloop
  endfacet
  facet normal 0 0 1
    outer loop
      vertex 90.04499 2 8.725
      vertex 119.3933 2 8.725
      vertex 119.3933 20 8.725
    endloop
  endfacet
  facet normal 0 0 1
    outer loop
      vertex 90.04499 2 8.725
      vertex 119.3933 20 8.725
      vertex 90.04499 20 8.725
    endloop
  endfacet
  facet normal 0 -1 0
    outer loop
      vertex 2 2 0
      vertex 90.04499 2 0
      vertex 90.04499 2 8.725
    endloop
  endfacet
  facet normal 0 -1 0
    outer loop
      vertex 2 2 0
      vertex 90.04499 2 8.725
      vertex 2 2 2.8
    endloop
  endfacet
  facet normal 0 -1 0
    outer loop
      vertex 90.04499 2 0
      vertex 119.3933 2 0
      vertex 119.3933 2 8.725
    endloop
  endfacet
  facet normal 0 -1 0
    outer loop
      vertex 90.04499 2 0
      vertex 119.3933 2 8.725
      vertex 90.04499 2 8.725
    endloop
  endfacet
  facet normal 0 1 0
    outer loop
      vertex 2 20 0
      vertex 90.04499 20 8.725
      vertex 90.04499 20 0
    endloop
  endfacet
  facet normal 0 1 0
    outer loop
      vertex 2 20 0
      vertex 2 20 2.8
      vertex 90.04499 20 8.725
    endloop
  endfacet
  facet normal 0 1 0
    outer loop
      vertex 90.04499 20 0
      vertex 119.3933 20 8.725
      vertex 119.3933 20 0
    endloop
  endfacet
  facet normal 0 1 0
    outer loop
      vertex 90.04499 20 0
      vertex 90.04499 20 8.725
      vertex 119.3933 20 8.725
    endloop
  endfacet
  facet normal -1 0 0
    outer loop
      vertex 2 20 0
      vertex 2 2 0
      vertex 2 2 2.8
    endloop
  endfacet
  facet normal -1 0 0
    outer loop
      vertex 2 20 0
      vertex 2 2 2.8
      vertex 2 20 2.8
    endloop
  endfacet
  facet normal 1 0 0
    outer loop
      vertex 119.3933 2 0
      vertex 119.3933 20 0
      vertex 119.3933 20 8.725
    endloop
  endfacet
  facet normal 1 0 0
    outer loop
      vertex 119.3933 2 0
      vertex 119.3933 20 8.725
      vertex 119.3933 2 8.725
    endloop
  endfacet
endsolid ramp_face_1_level_13
