solid ramp_face_2_level_09
  facet normal 0 0 -1
    outer loop
      vertex 2 2 0
      vertex 2 117.9821 0
      vertex 20 117.9821 0
    endloop
  endfacet
  facet normal 0 0 -1
    outer loop
      vertex 2 2 0
      vertex 20 117.9821 0
      vertex 20 2 0
    endloop
  endfacet
  facet normal 0 0 -1
    outer loop
      vertex 2 117.9821 0
      vertex 2 156.6428 0
      vertex 20 156.6428 0
    endloop
  endfacet
  facet normal 0 0 -1
    outer loop
      vertex 2 117.9821 0
      vertex 20 156.6428 0
      vertex 20 117.9821 0
    endloop
  endfacet
  facet normal 0 -0.05101893 0.9986977
    outer loop
      vertex 2 2 2.8
      vertex 20 117.9821 8.725
      vertex 2 117.9821 8.725
    endloop
  endfacet
  facet normal 0 -0.05101893 0.9986977
    outer loop
      vertex 2 2 2.8
      vertex 20 2 2.8
      vertex 20 117.9821 8.725
    endloop
  endfacet
  facet normal 0 0 1
    outer loop
      vertex 2 117.9821 8.725
      vertex 20 156.6428 8.725
      vertex 2 156.6428 8.725
    endloop
  endfacet
  facet normal 0 0 1
    outer loop
      vertex 2 117.9821 8.725
      vertex 20 117.9821 8.725
      vertex 20 156.6428 8.725
    endloop
  endfacet
  facet normal -1 0 0
    outer loop
      vertex 2 2 0
      vertex 2 117.9821 8.725
      vertex 2 117.9821 0
    endloop
  endfacet
  facet normal -1 0 0
    outer loop
      vertex 2 2 0
      vertex 2 2 2.8
      vertex 2 117.9821 8.725
    endloop
  endfacet
  facet normal -1 0 0
    outer loop
      vertex 2 117.9821 0
      vertex 2 156.6428 8.725
      vertex 2 156.6428 0
    endloop
  endfacet
  facet normal -1 0 0
    outer loop
      vertex 2 117.9821 0
      vertex 2 117.9821 8.725
      vertex 2 156.6428 8.725
    endloop
  endfacet
  facet normal 1 0 0
    outer loop
      vertex 20 2 0
      vertex 20 117.9821 0
      vertex 20 117.9821 8.725
    endloop
  endfacet
  facet normal 1 0 0
    outer loop
      vertex 20 2 0
      vertex 20 117.9821 8.725
      vertex 20 2 2.8
    endloop
  endfacet
  facet normal 1 0 0
    outer loop
      vertex 20 117.9821 0
      vertex 20 156.6428 0
      vertex 20 156.6428 8.725
    endloop
  endfacet
  facet normal 1 0 0
    outer loop
      vertex 20 117.9821 0
      vertex 20 156.6428 8.725
      vertex 20 117.9821 8.725
    endloop
  endfacet
  facet normal 0 -1 0
    outer loop
      vertex 20 2 0
      vertex 2 2 2.8
      vertex 2 2 0
    endloop
  endfacet
  facet normal 0 -1 0
    outer loop
      vertex 20 2 0
      vertex 20 2 2.8
      vertex 2 2 2.8
    endloop
  endfacet
  facet normal 0 1 0
    outer loop
      vertex 2 156.6428 0
      vertex 20 156.6428 8.725
      vertex 20 156.6428 0
    endloop
  endfacet
  facet normal 0 1 0
    outer loop
      vertex 2 156.6428 0
      vertex 2 156.6428 8.725
      vertex 20 156.6428 8.725
    endloop
  endfacet
endsolid ramp_face_2_level_09
