solid ramp_face_1_level_12
  facet normal 0 0 -1
    outer loop
      vertex 128.7057 2 0
      vertex 33.67642 2 0
      vertex 33.67642 20 0
    endloop
  endfacet
  facet normal 0 0 -1
    outer loop
      vertex 128.7057 2 0
      vertex 33.67642 20 0
      vertex 128.7057 20 0
    endloop
  endfacet
  facet normal 0 0 -1
    outer loop
      vertex 33.67642 2 0
      vertex 2 2 0
      vertex 2 20 0
    endloop
  endfacet
  facet normal 0 0 -1
    outer loop
      vertex 33.67642 2 0
      vertex 2 20 0
      vertex 33.67642 20 0
    endloop
  endfacet
  facet normal 0.06222837 0 0.9980619
    outer loop
      vertex 128.7057 2 2.8
      vertex 33.67642 20 8.725
      vertex 33.67642 2 8.725
    endloop
  endfacet
  facet normal 0.06222837 -0 0.9980619
    outer loop
      vertex 128.7057 2 2.8
      vertex 128.7057 20 2.8
      vertex 33.67642 20 8.725
    endloop
  endfacet
  facet normal 0 0 1
    outer loop
      vertex 33.67642 2 8.725
      vertex 2 20 8.725
      vertex 2 2 8.725
    endloop
  endfacet
  facet normal 0 -0 1
    outer loop
      vertex 33.67642 2 8.725
      vertex 33.67642 20 8.725
      vertex 2 20 8.725
    endloop
  endfacet
  facet normal 0 -1 0
    outer loop
      vertex 128.7057 2 0
      vertex 33.67642 2 8.725
      vertex 33.67642 2 0
    endloop
  endfacet
  facet normal 0 -1 0
    outer loop
      vertex 128.7057 2 0
      vertex 128.7057 2 2.8
      vertex 33.67642 2 8.725
    endloop
  endfacet
  facet normal 0 -1 0
    outer loop
      vertex 33.67642 2 0
      vertex 2 2 8.725
      vertex 2 2 0
    endloop
  endfacet
  facet normal 0 -1 0
    outer loop
      vertex 33.67642 2 0
      vertex 33.67642 2 8.725
      vertex 2 2 8.725
    endloop
  endfacet
  facet normal 0 1 0
    outer loop
      vertex 128.7057 20 0
      vertex 33.67642 20 0
      vertex 33.67642 20 8.725
    endloop
  endfacet
  facet normal 0 1 -0
    outer loop
      vertex 128.7057 20 0
      vertex 33.67642 20 8.725
      vertex 128.7057 20 2.8
    endloop
  endfacet
  facet normal 0 1 0
    outer loop
      vertex 33.67642 20 0
      vertex 2 20 0
      vertex 2 20 8.725
    endloop
  endfacet
  facet normal 0 1 -0
    outer loop
      vertex 33.67642 20 0
      vertex 2 20 8.725
      vertex 33.67642 20 8.725
    endloop
  endfacet
  facet normal 1 0 0
    outer loop
      vertex 128.7057 20 0
      vertex 128.7057 2 2.8
      vertex 128.7057 2 0
    endloop
  endfacet
  facet normal 1 0 -0
    outer loop
      vertex 128.7057 20 0
      vertex 128.7057 20 2.8
      vertex 128.7057 2 2.8
    endloop
  endfacet
  facet normal -1 0 0
    outer loop
      vertex 2 2 0
      vertex 2 20 8.725
      vertex 2 20 0
    endloop
  endfacet
  facet normal -1 0 0
    outer loop
      vertex 2 2 0
      vertex 2 2 8.725
      vertex 2 20 8.725
    endloop
  endfacet
endsolid ramp_face_1_level_12
