solid ramp_face_1_level_09
  facet normal 0 0 -1
    outer loop
      vertex 2 2 0
      vertex 117.9821 20 0
      vertex 117.9821 2 0
    endloop
  endfacet
  facet normal 0 0 -1
    outer loop
      vertex 2 2 0
      vertex 2 20 0
      vertex 117.9821 20 0
    endloop
  endfacet
  facet normal 0 0 -1
    outer loop
      vertex 117.9821 2 0
      vertex 156.6428 20 0
      vertex 156.6428 2 0
    endloop
  endfacet
  facet normal 0 0 -1
    outer loop
      vertex 117.9821 2 0
      vertex 117.9821 20 0
      vertex 156.6428 20 0
    endloop
  endfacet
  facet normal -0.05101893 0 0.9986977
    outer loop
      vertex 2 2 2.8
      vertex 117.9821 2 8.725
      vertex 117.9821 20 8.725
    endloop
  endfacet
  facet normal -0.05101893 0 0.9986977
    outer loop
      vertex 2 2 2.8
      vertex 117.9821 20 8.725
      vertex 2 20 2.8
    endloop
  endfacet
  facet normal 0 0 1
    outer loop
      vertex 117.9821 2 8.725
      vertex 156.6428 2 8.725
      vertex 156.6428 20 8.725
    endloop
  endfacet
  facet normal 0 0 1
    outer loop
      vertex 117.9821 2 8.725
      vertex 156.6428 20 8.725
      vertex 117.9821 20 8.725
    endloop
  endfacet
  facet normal 0 -1 0
    outer loop
      vertex 2 2 0
      vertex 117.9821 2 0
      vertex 117.9821 2 8.725
    endloop
  endfacet
  facet normal 0 -1 0
    outer loop
      vertex 2 2 0
      vertex 117.9821 2 8.725
      vertex 2 2 2.8
    endloop
  endfacet
  facet normal 0 -1 0
    outer loop
      vertex 117.9821 2 0
      vertex 156.6428 2 0
      vertex 156.6428 2 8.725
    endloop
  endfacet
  facet normal 0 -1 0
    outer loop
      vertex 117.9821 2 0
      vertex 156.6428 2 8.725
      vertex 117.9821 2 8.725
    endloop
  endfacet
  facet normal 0 1 0
    outer loop
      vertex 2 20 0
      vertex 117.9821 20 8.725
      vertex 117.9821 20 0
    endloop
  endfacet
  facet normal 0 1 0
    outer loop
      vertex 2 20 0
      vertex 2 20 2.8
      vertex 117.9821 20 8.725
    endloop
  endfacet
  facet normal 0 1 0
    outer loop
      vertex 117.9821 20 0
      vertex 156.6428 20 8.725
      vertex 156.6428 20 0
    endloop
  endfacet
  facet normal 0 1 0
    outer loop
      vertex 117.9821 20 0
      vertex 117.9821 20 8.725
      vertex 156.6428 20 8.725
    endloop
  endfacet
  facet normal -1 0 0
    outer loop
      vertex 2 20 0
      vertex 2 2 0
      vertex 2 2 2.8
    endloop
  endfacet
  facet normal -1 0 0
    outer loop
      vertex 2 20 0
      vertex 2 2 2.8
      vertex 2 20 2.8
    endloop
  endfacet
  facet normal 1 0 0
    outer loop
      vertex 156.6428 2 0
      vertex 156.6428 20 0
      vertex 156.6428 20 8.725
    endloop
  endfacet
  facet normal 1 0 0
    outer loop
      vertex 156.6428 2 0
      vertex 156.6428 20 8.725
      vertex 156.6428 2 8.725
    endloop
  endfacet
endsolid ramp_face_1_level_09
