solid ramp_face_3_level_13
  facet normal -0 0 -1
    outer loop
      vertex 119.3933 20 0
      vertex 31.34833 2 0
      vertex 31.34833 20 0
    endloop
  endfacet
  facet normal 0 -0 -1
    outer loop
      vertex 119.3933 20 0
      vertex 119.3933 2 0
      vertex 31.34833 2 0
    endloop
  endfacet
  facet normal -0 0 -1
    outer loop
      vertex 31.34833 20 0
      vertex 2 2 0
      vertex 2 20 0
    endloop
  endfacet
  facet normal 0 -0 -1
    outer loop
      vertex 31.34833 20 0
      vertex 31.34833 2 0
      vertex 2 2 0
    endloop
  endfacet
  facet normal 0.06714328 0 0.9977433
    outer loop
      vertex 119.3933 20 2.8
      vertex 31.34833 20 8.725
      vertex 31.34833 2 8.725
    endloop
  endfacet
  facet normal 0.06714328 0 0.9977433
    outer loop
      vertex 119.3933 20 2.8
      vertex 31.34833 2 8.725
      vertex 119.3933 2 2.8
    endloop
  endfacet
  facet normal 0 0 1
    outer loop
      vertex 31.34833 20 8.725
      vertex 2 20 8.725
      vertex 2 2 8.725
    endloop
  endfacet
  facet normal 0 0 1
    outer loop
      vertex 31.34833 20 8.725
      vertex 2 2 8.725
      vertex 31.34833 2 8.725
    endloop
  endfacet
  facet normal 0 1 0
    outer loop
      vertex 119.3933 20 0
      vertex 31.34833 20 0
      vertex 31.34833 20 8.725
    endloop
  endfacet
  facet normal 0 1 -0
    outer loop
      vertex 119.3933 20 0
      vertex 31.34833 20 8.725
      vertex 119.3933 20 2.8
    endloop
  endfacet
  facet normal 0 1 0
    outer loop
      vertex 31.34833 20 0
      vertex 2 20 0
      vertex 2 20 8.725
    endloop
  endfacet
  facet normal 0 1 -0
    outer loop
      vertex 31.34833 20 0
      vertex 2 20 8.725
      vertex 31.34833 20 8.725
    endloop
  endfacet
  facet normal 0 -1 0
    outer loop
      vertex 119.3933 2 0
      vertex 31.34833 2 8.725
      vertex 31.34833 2 0
    endloop
  endfacet
  facet normal 0 -1 0
    outer loop
      vertex 119.3933 2 0
      vertex 119.3933 2 2.8
      vertex 31.34833 2 8.725
    endloop
  endfacet
  facet normal 0 -1 0
    outer loop
      vertex 31.34833 2 0
      vertex 2 2 8.725
      vertex 2 2 0
    endloop
  endfacet
  facet normal 0 -1 0
    outer loop
      vertex 31.34833 2 0
      vertex 31.34833 2 8.725
      vertex 2 2 8.725
    endloop
  endfacet
  facet normal 1 0 0
    outer loop
      vertex 119.3933 2 0
      vertex 119.3933 20 0
      vertex 119.3933 20 2.8
    endloop
  endfacet
  facet normal 1 0 0
    outer loop
      vertex 119.3933 2 0
      vertex 119.3933 20 2.8
      vertex 119.3933 2 2.8
    endloop
  endfacet
  facet normal -1 0 0
    outer loop
      vertex 2 20 0
      vertex 2 2 0
      vertex 2 2 8.725
    endloop
  endfacet
  facet normal -1 0 0
    outer loop
      vertex 2 20 0
      vertex 2 2 8.725
      vertex 2 20 8.725
    endloop
  endfacet
endsolid ramp_face_3_level_13
