solid ramp_face_2_level_04
  facet normal 0 0 -1
    outer loop
      vertex 2 203.2047 0
      vertex 20 52.30118 0
      vertex 2 52.30118 0
    endloop
  endfacet
  facet normal 0 0 -1
    outer loop
      vertex 2 203.2047 0
      vertex 20 203.2047 0
      vertex 20 52.30118 0
    endloop
  endfacet
  facet normal 0 0 -1
    outer loop
      vertex 2 52.30118 0
      vertex 20 2 0
      vertex 2 2 0
    endloop
  endfacet
  facet normal 0 0 -1
    outer loop
      vertex 2 52.30118 0
      vertex 20 52.30118 0
      vertex 20 2 0
    endloop
  endfacet
  facet normal 0 0.03923326 0.9992301
    outer loop
      vertex 2 203.2047 2.8
      vertex 2 52.30118 8.725
      vertex 20 52.30118 8.725
    endloop
  endfacet
  facet normal -0 0.03923326 0.9992301
    outer loop
      vertex 2 203.2047 2.8
      vertex 20 52.30118 8.725
      vertex 20 203.2047 2.8
    endloop
  endfacet
  facet normal 0 0 1
    outer loop
      vertex 2 52.30118 8.725
      vertex 2 2 8.725
      vertex 20 2 8.725
    endloop
  endfacet
  facet normal -0 0 1
    outer loop
      vertex 2 52.30118 8.725
      vertex 20 2 8.725
      vertex 20 52.30118 8.725
    endloop
  endfacet
  facet normal -1 0 0
    outer loop
      vertex 2 203.2047 0
      vertex 2 52.30118 0
      vertex 2 52.30118 8.725
    endloop
  endfacet
  facet normal -1 0 0
    outer loop
      vertex 2 203.2047 0
      vertex 2 52.30118 8.725
      vertex 2 203.2047 2.8
    endloop
  endfacet
  facet normal -1 0 0
    outer loop
      vertex 2 52.30118 0
      vertex 2 2 0
      vertex 2 2 8.725
    endloop
  endfacet
  facet normal -1 0 0
    outer loop
      vertex 2 52.30118 0
      vertex 2 2 8.725
      vertex 2 52.30118 8.725
    endloop
  endfacet
  facet normal 1 0 0
    outer loop
      vertex 20 203.2047 0
      vertex 20 52.30118 8.725
      vertex 20 52.30118 0
    endloop
  endfacet
  facet normal 1 0 -0
    outer loop
      vertex 20 203.2047 0
      vertex 20 203.2047 2.8
      vertex 20 52.30118 8.725
    endloop
  endfacet
  facet normal 1 0 0
    outer loop
      vertex 20 52.30118 0
      vertex 20 2 8.725
      vertex 20 2 0
    endloop
  endfacet
  facet normal 1 0 -0
    outer loop
      vertex 20 52.30118 0
      vertex 20 52.30118 8.725
      vertex 20 2 8.725
    endloop
  endfacet
  facet normal 0 1 0
    outer loop
      vertex 20 203.2047 0
      vertex 2 203.2047 0
      vertex 2 203.2047 2.8
    endloop
  endfacet
  facet normal 0 1 -0
    outer loop
      vertex 20 203.2047 0
      vertex 2 203.2047 2.8
      vertex 20 203.2047 2.8
    endloop
  endfacet
  facet normal 0 -1 0
    outer loop
      vertex 2 2 0
      vertex 20 2 0
      vertex 20 2 8.725
    endloop
  endfacet
  facet normal 0 -1 0
    outer loop
      vertex 2 2 0
      vertex 20 2 8.725
      vertex 2 2 8.725
    endloop
  endfacet
endsolid ramp_face_2_level_04
