solid ramp_face_3_level_05
  facet normal -0 0 -1
    outer loop
      vertex 193.8923 20 0
      vertex 49.97308 2 0
      vertex 49.97308 20 0
    endloop
  endfacet
  facet normal 0 -0 -1
    outer loop
      vertex 193.8923 20 0
      vertex 193.8923 2 0
      vertex 49.97308 2 0
    endloop
  endfacet
  facet normal -0 0 -1
    outer loop
      vertex 49.97308 20 0
      vertex 2 2 0
      vertex 2 20 0
    endloop
  endfacet
  facet normal 0 -0 -1
    outer loop
      vertex 49.97308 20 0
      vertex 49.97308 2 0
      vertex 2 2 0
    endloop
  endfacet
  facet normal 0.04113407 0 0.9991536
    outer loop
      vertex 193.8923 20 2.8
      vertex 49.97308 20 8.725
      vertex 49.97308 2 8.725
    endloop
  endfacet
  facet normal 0.04113407 0 0.9991536
    outer loop
      vertex 193.8923 20 2.8
      vertex 49.97308 2 8.725
      vertex 193.8923 2 2.8
    endloop
  endfacet
  facet normal 0 0 1
    outer loop
      vertex 49.97308 20 8.725
      vertex 2 20 8.725
      vertex 2 2 8.725
    endloop
  endfacet
  facet normal 0 0 1
    outer loop
      vertex 49.97308 20 8.725
      vertex 2 2 8.725
      vertex 49.97308 2 8.725
    endloop
  endfacet
  facet normal 0 1 0
    outer loop
      vertex 193.8923 20 0
      vertex 49.97308 20 0
      vertex 49.97308 20 8.725
    endloop
  endfacet
  facet normal 0 1 -0
    outer loop
      vertex 193.8923 20 0
      vertex 49.97308 20 8.725
      vertex 193.8923 20 2.8
    endloop
  endfacet
  facet normal 0 1 0
    outer loop
      vertex 49.97308 20 0
      vertex 2 20 0
      vertex 2 20 8.725
    endloop
  endfacet
  facet normal 0 1 -0
    outer loop
      vertex 49.97308 20 0
      vertex 2 20 8.725
      vertex 49.97308 20 8.725
    endloop
  endfacet
  facet normal 0 -1 0
    outer loop
      vertex 193.8923 2 0
      vertex 49.97308 2 8.725
      vertex 49.97308 2 0
    endloop
  endfacet
  facet normal 0 -1 0
    outer loop
      vertex 193.8923 2 0
      vertex 193.8923 2 2.8
      vertex 49.97308 2 8.725
    endloop
  endfacet
  facet normal 0 -1 0
    outer loop
      vertex 49.97308 2 0
      vertex 2 2 8.725
      vertex 2 2 0
    endloop
  endfacet
  facet normal 0 -1 0
    outer loop
      vertex 49.97308 2 0
      vertex 49.97308 2 8.725
      vertex 2 2 8.725
    endloop
  endfacet
  facet normal 1 0 0
    outer loop
      vertex 193.8923 2 0
      vertex 193.8923 20 0
      vertex 193.8923 20 2.8
    endloop
  endfacet
  facet normal 1 0 0
    outer loop
      vertex 193.8923 2 0
      vertex 193.8923 20 2.8
      vertex 193.8923 2 2.8
    endloop
  endfacet
  facet normal -1 0 0
    outer loop
      vertex 2 20 0
      vertex 2 2 0
      vertex 2 2 8.725
    endloop
  endfacet
  facet normal -1 0 0
    outer loop
      vertex 2 20 0
      vertex 2 2 8.725
      vertex 2 20 8.725
    endloop
  endfacet
endsolid ramp_face_3_level_05
