solid ramp_face_1_level_11
  facet normal 0 0 -1
    outer loop
      vertex 2 2 0
      vertex 104.0136 20 0
      vertex 104.0136 2 0
    endloop
  endfacet
  facet normal 0 0 -1
    outer loop
      vertex 2 2 0
      vertex 2 20 0
      vertex 104.0136 20 0
    endloop
  endfacet
  facet normal 0 0 -1
    outer loop
      vertex 104.0136 2 0
      vertex 138.0181 20 0
      vertex 138.0181 2 0
    endloop
  endfacet
  facet normal 0 0 -1
    outer loop
      vertex 104.0136 2 0
      vertex 104.0136 20 0
      vertex 138.0181 20 0
    endloop
  endfacet
  facet normal -0.0579828 0 0.9983176
    outer loop
      vertex 2 2 2.8
      vertex 104.0136 2 8.725
      vertex 104.0136 20 8.725
    endloop
  endfacet
  facet normal -0.0579828 0 0.9983176
    outer loop
      vertex 2 2 2.8
      vertex 104.0136 20 8.725
      vertex 2 20 2.8
    endloop
  endfacet
  facet normal 0 0 1
    outer loop
      vertex 104.0136 2 8.725
      vertex 138.0181 2 8.725
      vertex 138.0181 20 8.725
    endloop
  endfacet
  facet normal 0 0 1
    outer loop
      vertex 104.0136 2 8.725
      vertex 138.0181 20 8.725
      vertex 104.0136 20 8.725
    endloop
  endfacet
  facet normal 0 -1 0
    outer loop
      vertex 2 2 0
      vertex 104.0136 2 0
      vertex 104.0136 2 8.725
    endloop
  endfacet
  facet normal 0 -1 0
    outer loop
      vertex 2 2 0
      vertex 104.0136 2 8.725
      vertex 2 2 2.8
    endloop
  endfacet
  facet normal 0 -1 0
    outer loop
      vertex 104.0136 2 0
      vertex 138.0181 2 0
      vertex 138.0181 2 8.725
    endloop
  endfacet
  facet normal 0 -1 0
    outer loop
      vertex 104.0136 2 0
      vertex 138.0181 2 8.725
      vertex 104.0136 2 8.725
    endloop
  endfacet
  facet normal 0 1 0
    outer loop
      vertex 2 20 0
      vertex 104.0136 20 8.725
      vertex 104.0136 20 0
    endloop
  endfacet
  facet normal 0 1 0
    outer loop
      vertex 2 20 0
      vertex 2 20 2.8
      vertex 104.0136 20 8.725
    endloop
  endfacet
  facet normal 0 1 0
    outer loop
      vertex 104.0136 20 0
      vertex 138.0181 20 8.725
      vertex 138.0181 20 0
    endloop
  endfacet
  facet normal 0 1 0
    outer loop
      vertex 104.0136 20 0
      vertex 104.0136 20 8.725
      vertex 138.0181 20 8.725
    endloop
  endfacet
  facet normal -1 0 0
    outer loop
      vertex 2 20 0
      vertex 2 2 0
      vertex 2 2 2.8
    endloop
  endfacet
  facet normal -1 0 0
    outer loop
      vertex 2 20 0
      vertex 2 2 2.8
      vertex 2 20 2.8
    endloop
  endfacet
  facet normal 1 0 0
    outer loop
      vertex 138.0181 2 0
      vertex 138.0181 20 0
      vertex 138.0181 20 8.725
    endloop
  endfacet
  facet normal 1 0 0
    outer loop
      vertex 138.0181 2 0
      vertex 138.0181 20 8.725
      vertex 138.0181 2 8.725
    endloop
  endfacet
endsolid ramp_face_1_level_11
