solid ramp_face_3_level_15
  facet normal -0 0 -1
    outer loop
      vertex 100.7686 20 0
      vertex 26.69214 2 0
      vertex 26.69214 20 0
    endloop
  endfacet
  facet normal 0 -0 -1
    outer loop
      vertex 100.7686 20 0
      vertex 100.7686 2 0
      vertex 26.69214 2 0
    endloop
  endfacet
  facet normal -0 0 -1
    outer loop
      vertex 26.69214 20 0
      vertex 2 2 0
      vertex 2 20 0
    endloop
  endfacet
  facet normal 0 -0 -1
    outer loop
      vertex 26.69214 20 0
      vertex 26.69214 2 0
      vertex 2 2 0
    endloop
  endfacet
  facet normal 0.07973033 0 0.9968165
    outer loop
      vertex 100.7686 20 2.8
      vertex 26.69214 20 8.725
      vertex 26.69214 2 8.725
    endloop
  endfacet
  facet normal 0.07973033 0 0.9968165
    outer loop
      vertex 100.7686 20 2.8
      vertex 26.69214 2 8.725
      vertex 100.7686 2 2.8
    endloop
  endfacet
  facet normal 0 0 1
    outer loop
      vertex 26.69214 20 8.725
      vertex 2 20 8.725
      vertex 2 2 8.725
    endloop
  endfacet
  facet normal 0 0 1
    outer loop
      vertex 26.69214 20 8.725
      vertex 2 2 8.725
      vertex 26.69214 2 8.725
    endloop
  endfacet
  facet normal 0 1 0
    outer loop
      vertex 100.7686 20 0
      vertex 26.69214 20 0
      vertex 26.69214 20 8.725
    endloop
  endfacet
  facet normal 0 1 -0
    outer loop
      vertex 100.7686 20 0
      vertex 26.69214 20 8.725
      vertex 100.7686 20 2.8
    endloop
  endfacet
  facet normal 0 1 0
    outer loop
      vertex 26.69214 20 0
      vertex 2 20 0
      vertex 2 20 8.725
    endloop
  endfacet
  facet normal 0 1 -0
    outer loop
      vertex 26.69214 20 0
      vertex 2 20 8.725
      vertex 26.69214 20 8.725
    endloop
  endfacet
  facet normal 0 -1 0
    outer loop
      vertex 100.7686 2 0
      vertex 26.69214 2 8.725
      vertex 26.69214 2 0
    endloop
  endfacet
  facet normal 0 -1 0
    outer loop
      vertex 100.7686 2 0
      vertex 100.7686 2 2.8
      vertex 26.69214 2 8.725
    endloop
  endfacet
  facet normal 0 -1 0
    outer loop
      vertex 26.69214 2 0
      vertex 2 2 8.725
      vertex 2 2 0
    endloop
  endfacet
  facet normal 0 -1 0
    outer loop
      vertex 26.69214 2 0
      vertex 26.69214 2 8.725
      vertex 2 2 8.725
    endloop
  endfacet
  facet normal 1 0 0
    outer loop
      vertex 100.7686 2 0
      vertex 100.7686 20 0
      vertex 100.7686 20 2.8
    endloop
  endfacet
  facet normal 1 0 0
    outer loop
      vertex 100.7686 2 0
      vertex 100.7686 20 2.8
      vertex 100.7686 2 2.8
    endloop
  endfacet
  facet normal -1 0 0
    outer loop
      vertex 2 20 0
      vertex 2 2 0
      vertex 2 2 8.725
    endloop
  endfacet
  facet normal -1 0 0
    outer loop
      vertex 2 20 0
      vertex 2 2 8.725
      vertex 2 20 8.725
    endloop
  endfacet
endsolid ramp_face_3_level_15
