solid ramp_face_3_level_03
  facet normal -0 0 -1
    outer loop
      vertex 212.5171 20 0
      vertex 54.62927 2 0
      vertex 54.62927 20 0
    endloop
  endfacet
  facet normal 0 -0 -1
    outer loop
      vertex 212.5171 20 0
      vertex 212.5171 2 0
      vertex 54.62927 2 0
    endloop
  endfacet
  facet normal -0 0 -1
    outer loop
      vertex 54.62927 20 0
      vertex 2 2 0
      vertex 2 20 0
    endloop
  endfacet
  facet normal 0 -0 -1
    outer loop
      vertex 54.62927 20 0
      vertex 54.62927 2 0
      vertex 2 2 0
    endloop
  endfacet
  facet normal 0.03750025 0 0.9992966
    outer loop
      vertex 212.5171 20 2.8
      vertex 54.62927 20 8.725
      vertex 54.62927 2 8.725
    endloop
  endfacet
  facet normal 0.03750025 0 0.9992966
    outer loop
      vertex 212.5171 20 2.8
      vertex 54.62927 2 8.725
      vertex 212.5171 2 2.8
    endloop
  endfacet
  facet normal 0 0 1
    outer loop
      vertex 54.62927 20 8.725
      vertex 2 20 8.725
      vertex 2 2 8.725
    endloop
  endfacet
  facet normal 0 0 1
    outer loop
      vertex 54.62927 20 8.725
      vertex 2 2 8.725
      vertex 54.62927 2 8.725
    endloop
  endfacet
  facet normal 0 1 0
    outer loop
      vertex 212.5171 20 0
      vertex 54.62927 20 0
      vertex 54.62927 20 8.725
    endloop
  endfacet
  facet normal 0 1 -0
    outer loop
      vertex 212.5171 20 0
      vertex 54.62927 20 8.725
      vertex 212.5171 20 2.8
    endloop
  endfacet
  facet normal 0 1 0
    outer loop
      vertex 54.62927 20 0
      vertex 2 20 0
      vertex 2 20 8.725
    endloop
  endfacet
  facet normal 0 1 -0
    outer loop
      vertex 54.62927 20 0
      vertex 2 20 8.725
      vertex 54.62927 20 8.725
    endloop
  endfacet
  facet normal 0 -1 0
    outer loop
      vertex 212.5171 2 0
      vertex 54.62927 2 8.725
      vertex 54.62927 2 0
    endloop
  endfacet
  facet normal 0 -1 0
    outer loop
      vertex 212.5171 2 0
      vertex 212.5171 2 2.8
      vertex 54.62927 2 8.725
    endloop
  endfacet
  facet normal 0 -1 0
    outer loop
      vertex 54.62927 2 0
      vertex 2 2 8.725
      vertex 2 2 0
    endloop
  endfacet
  facet normal 0 -1 0
    outer loop
      vertex 54.62927 2 0
      vertex 54.62927 2 8.725
      vertex 2 2 8.725
    endloop
  endfacet
  facet normal 1 0 0
    outer loop
      vertex 212.5171 2 0
      vertex 212.5171 20 0
      vertex 212.5171 20 2.8
    endloop
  endfacet
  facet normal 1 0 0
    outer loop
      vertex 212.5171 2 0
      vertex 212.5171 20 2.8
      vertex 212.5171 2 2.8
    endloop
  endfacet
  facet normal -1 0 0
    outer loop
      vertex 2 20 0
      vertex 2 2 0
      vertex 2 2 8.725
    endloop
  endfacet
  facet normal -1 0 0
    outer loop
      vertex 2 20 0
      vertex 2 2 8.725
      vertex 2 20 8.725
    endloop
  endfacet
endsolid ramp_face_3_level_03
