solid ramp_face_3_level_10
  facet normal 0 0 -1
    outer loop
      vertex 2 20 0
      vertex 110.9978 20 0
      vertex 110.9978 2 0
    endloop
  endfacet
  facet normal 0 0 -1
    outer loop
      vertex 2 20 0
      vertex 110.9978 2 0
      vertex 2 2 0
    endloop
  endfacet
  facet normal 0 0 -1
    outer loop
      vertex 110.9978 20 0
      vertex 147.3305 20 0
      vertex 147.3305 2 0
    endloop
  endfacet
  facet normal 0 0 -1
    outer loop
      vertex 110.9978 20 0
      vertex 147.3305 2 0
      vertex 110.9978 2 0
    endloop
  endfacet
  facet normal -0.05427874 0 0.9985258
    outer loop
      vertex 2 20 2.8
      vertex 110.9978 2 8.725
      vertex 110.9978 20 8.725
    endloop
  endfacet
  facet normal -0.05427874 0 0.9985258
    outer loop
      vertex 2 20 2.8
      vertex 2 2 2.8
      vertex 110.9978 2 8.725
    endloop
  endfacet
  facet normal -0 0 1
    outer loop
      vertex 110.9978 20 8.725
      vertex 147.3305 2 8.725
      vertex 147.3305 20 8.725
    endloop
  endfacet
  facet normal 0 0 1
    outer loop
      vertex 110.9978 20 8.725
      vertex 110.9978 2 8.725
      vertex 147.3305 2 8.725
    endloop
  endfacet
  facet normal 0 1 0
    outer loop
      vertex 2 20 0
      vertex 110.9978 20 8.725
      vertex 110.9978 20 0
    endloop
  endfacet
  facet normal 0 1 0
    outer loop
      vertex 2 20 0
      vertex 2 20 2.8
      vertex 110.9978 20 8.725
    endloop
  endfacet
  facet normal 0 1 0
    outer loop
      vertex 110.9978 20 0
      vertex 147.3305 20 8.725
      vertex 147.3305 20 0
    endloop
  endfacet
  facet normal 0 1 0
    outer loop
      vertex 110.9978 20 0
      vertex 110.9978 20 8.725
      vertex 147.3305 20 8.725
    endloop
  endfacet
  facet normal 0 -1 0
    outer loop
      vertex 2 2 0
      vertex 110.9978 2 0
      vertex 110.9978 2 8.725
    endloop
  endfacet
  facet normal 0 -1 0
    outer loop
      vertex 2 2 0
      vertex 110.9978 2 8.725
      vertex 2 2 2.8
    endloop
  endfacet
  facet normal 0 -1 0
    outer loop
      vertex 110.9978 2 0
      vertex 147.3305 2 0
      vertex 147.3305 2 8.725
    endloop
  endfacet
  facet normal 0 -1 0
    outer loop
      vertex 110.9978 2 0
      vertex 147.3305 2 8.725
      vertex 110.9978 2 8.725
    endloop
  endfacet
  facet normal -1 0 0
    outer loop
      vertex 2 2 0
      vertex 2 20 2.8
      vertex 2 20 0
    endloop
  endfacet
  facet normal -1 0 0
    outer loop
      vertex 2 2 0
      vertex 2 2 2.8
      vertex 2 20 2.8
    endloop
  endfacet
  facet normal 1 0 0
    outer loop
      vertex 147.3305 20 0
      vertex 147.3305 2 8.725
      vertex 147.3305 2 0
    endloop
  endfacet
  facet normal 1 0 -0
    outer loop
      vertex 147.3305 20 0
      vertex 147.3305 20 8.725
      vertex 147.3305 2 8.725
    endloop
  endfacet
endsolid ramp_face_3_level_10
