solid ramp_face_2_level_16
  facet normal 0 0 -1
    outer loop
      vertex 2 91.45619 0
      vertex 20 24.36405 0
      vertex 2 24.36405 0
    endloop
  endfacet
  facet normal 0 0 -1
    outer loop
      vertex 2 91.45619 0
      vertex 20 91.45619 0
      vertex 20 24.36405 0
    endloop
  endfacet
  facet normal 0 0 -1
    outer loop
      vertex 2 24.36405 0
      vertex 20 2 0
      vertex 2 2 0
    endloop
  endfacet
  facet normal 0 0 -1
    outer loop
      vertex 2 24.36405 0
      vertex 20 24.36405 0
      vertex 20 2 0
    endloop
  endfacet
  facet normal 0 0.08796902 0.9961232
    outer loop
      vertex 2 91.45619 2.8
      vertex 2 24.36405 8.725
      vertex 20 24.36405 8.725
    endloop
  endfacet
  facet normal -0 0.08796902 0.9961232
    outer loop
      vertex 2 91.45619 2.8
      vertex 20 24.36405 8.725
      vertex 20 91.45619 2.8
    endloop
  endfacet
  facet normal 0 0 1
    outer loop
      vertex 2 24.36405 8.725
      vertex 2 2 8.725
      vertex 20 2 8.725
    endloop
  endfacet
  facet normal -0 0 1
    outer loop
      vertex 2 24.36405 8.725
      vertex 20 2 8.725
      vertex 20 24.36405 8.725
    endloop
  endfacet
  facet normal -1 0 0
    outer loop
      vertex 2 91.45619 0
      vertex 2 24.36405 0
      vertex 2 24.36405 8.725
    endloop
  endfacet
  facet normal -1 0 0
    outer loop
      vertex 2 91.45619 0
      vertex 2 24.36405 8.725
      vertex 2 91.45619 2.8
    endloop
  endfacet
  facet normal -1 0 0
    outer loop
      vertex 2 24.36405 0
      vertex 2 2 0
      vertex 2 2 8.725
    endloop
  endfacet
  facet normal -1 0 0
    outer loop
      vertex 2 24.36405 0
      vertex 2 2 8.725
      vertex 2 24.36405 8.725
    endloop
  endfacet
  facet normal 1 0 0
    outer loop
      vertex 20 91.45619 0
      vertex 20 24.36405 8.725
      vertex 20 24.36405 0
    endloop
  endfacet
  facet normal 1 0 -0
    outer loop
      vertex 20 91.45619 0
      vertex 20 91.45619 2.8
      vertex 20 24.36405 8.725
    endloop
  endfacet
  facet normal 1 0 0
    outer loop
      vertex 20 24.36405 0
      vertex 20 2 8.725
      vertex 20 2 0
    endloop
  endfacet
  facet normal 1 0 -0
    outer loop
      vertex 20 24.36405 0
      vertex 20 24.36405 8.725
      vertex 20 2 8.725
    endloop
  endfacet
  facet normal 0 1 0
    outer loop
      vertex 20 91.45619 0
      vertex 2 91.45619 0
      vertex 2 91.45619 2.8
    endloop
  endfacet
  facet normal 0 1 -0
    outer loop
      vertex 20 91.45619 0
      vertex 2 91.45619 2.8
      vertex 20 91.45619 2.8
    endloop
  endfacet
  facet normal 0 -1 0
    outer loop
      vertex 2 2 0
      vertex 20 2 0
      vertex 20 2 8.725
    endloop
  endfacet
  facet normal 0 -1 0
    outer loop
      vertex 2 2 0
      vertex 20 2 8.725
      vertex 2 2 8.725
    endloop
  endfacet
endsolid ramp_face_2_level_16
