solid ramp_face_4_level_10
  facet normal 0 0 -1
    outer loop
      vertex 20 2 0
      vertex 2 110.9978 0
      vertex 20 110.9978 0
    endloop
  endfacet
  facet normal 0 0 -1
    outer loop
      vertex 20 2 0
      vertex 2 2 0
      vertex 2 110.9978 0
    endloop
  endfacet
  facet normal 0 0 -1
    outer loop
      vertex 20 110.9978 0
      vertex 2 147.3305 0
      vertex 20 147.3305 0
    endloop
  endfacet
  facet normal 0 0 -1
    outer loop
      vertex 20 110.9978 0
      vertex 2 110.9978 0
      vertex 2 147.3305 0
    endloop
  endfacet
  facet normal 0 -0.05427874 0.9985258
    outer loop
      vertex 20 2 2.8
      vertex 20 110.9978 8.725
      vertex 2 110.9978 8.725
    endloop
  endfacet
  facet normal 0 -0.05427874 0.9985258
    outer loop
      vertex 20 2 2.8
      vertex 2 110.9978 8.725
      vertex 2 2 2.8
    endloop
  endfacet
  facet normal 0 -0 1
    outer loop
      vertex 20 110.9978 8.725
      vertex 20 147.3305 8.725
      vertex 2 147.3305 8.725
    endloop
  endfacet
  facet normal 0 0 1
    outer loop
      vertex 20 110.9978 8.725
      vertex 2 147.3305 8.725
      vertex 2 110.9978 8.725
    endloop
  endfacet
  facet normal 1 0 0
    outer loop
      vertex 20 2 0
      vertex 20 110.9978 0
      vertex 20 110.9978 8.725
    endloop
  endfacet
  facet normal 1 0 0
    outer loop
      vertex 20 2 0
      vertex 20 110.9978 8.725
      vertex 20 2 2.8
    endloop
  endfacet
  facet normal 1 0 0
    outer loop
      vertex 20 110.9978 0
      vertex 20 147.3305 0
      vertex 20 147.3305 8.725
    endloop
  endfacet
  facet normal 1 0 0
    outer loop
      vertex 20 110.9978 0
      vertex 20 147.3305 8.725
      vertex 20 110.9978 8.725
    endloop
  endfacet
  facet normal -1 0 0
    outer loop
      vertex 2 2 0
      vertex 2 110.9978 8.725
      vertex 2 110.9978 0
    endloop
  endfacet
  facet normal -1 0 0
    outer loop
      vertex 2 2 0
      vertex 2 2 2.8
      vertex 2 110.9978 8.725
    endloop
  endfacet
  facet normal -1 0 0
    outer loop
      vertex 2 110.9978 0
      vertex 2 147.3305 8.725
      vertex 2 147.3305 0
    endloop
  endfacet
  facet normal -1 0 0
    outer loop
      vertex 2 110.9978 0
      vertex 2 110.9978 8.725
      vertex 2 147.3305 8.725
    endloop
  endfacet
  facet normal 0 -1 0
    outer loop
      vertex 2 2 0
      vertex 20 2 0
      vertex 20 2 2.8
    endloop
  endfacet
  facet normal 0 -1 0
    outer loop
      vertex 2 2 0
      vertex 20 2 2.8
      vertex 2 2 2.8
    endloop
  endfacet
  facet normal 0 1 0
    outer loop
      vertex 20 147.3305 0
      vertex 2 147.3305 0
      vertex 2 147.3305 8.725
    endloop
  endfacet
  facet normal 0 1 -0
    outer loop
      vertex 20 147.3305 0
      vertex 2 147.3305 8.725
      vertex 20 147.3305 8.725
    endloop
  endfacet
endsolid ramp_face_4_level_10
