solid ramp_face_1_level_10
  facet normal 0 0 -1
    outer loop
      vertex 147.3305 2 0
      vertex 38.33261 2 0
      vertex 38.33261 20 0
    endloop
  endfacet
  facet normal 0 0 -1
    outer loop
      vertex 147.3305 2 0
      vertex 38.33261 20 0
      vertex 147.3305 20 0
    endloop
  endfacet
  facet normal 0 0 -1
    outer loop
      vertex 38.33261 2 0
      vertex 2 2 0
      vertex 2 20 0
    endloop
  endfacet
  facet normal 0 0 -1
    outer loop
      vertex 38.33261 2 0
      vertex 2 20 0
      vertex 38.33261 20 0
    endloop
  endfacet
  facet normal 0.05427874 0 0.9985258
    outer loop
      vertex 147.3305 2 2.8
      vertex 38.33261 20 8.725
      vertex 38.33261 2 8.725
    endloop
  endfacet
  facet normal 0.05427874 -0 0.9985258
    outer loop
      vertex 147.3305 2 2.8
      vertex 147.3305 20 2.8
      vertex 38.33261 20 8.725
    endloop
  endfacet
  facet normal 0 0 1
    outer loop
      vertex 38.33261 2 8.725
      vertex 2 20 8.725
      vertex 2 2 8.725
    endloop
  endfacet
  facet normal 0 -0 1
    outer loop
      vertex 38.33261 2 8.725
      vertex 38.33261 20 8.725
      vertex 2 20 8.725
    endloop
  endfacet
  facet normal 0 -1 0
    outer loop
      vertex 147.3305 2 0
      vertex 38.33261 2 8.725
      vertex 38.33261 2 0
    endloop
  endfacet
  facet normal 0 -1 0
    outer loop
      vertex 147.3305 2 0
      vertex 147.3305 2 2.8
      vertex 38.33261 2 8.725
    endloop
  endfacet
  facet normal 0 -1 0
    outer loop
      vertex 38.33261 2 0
      vertex 2 2 8.725
      vertex 2 2 0
    endloop
  endfacet
  facet normal 0 -1 0
    outer loop
      vertex 38.33261 2 0
      vertex 38.33261 2 8.725
      vertex 2 2 8.725
    endloop
  endfacet
  facet normal 0 1 0
    outer loop
      vertex 147.3305 20 0
      vertex 38.33261 20 0
      vertex 38.33261 20 8.725
    endloop
  endfacet
  facet normal 0 1 -0
    outer loop
      vertex 147.3305 20 0
      vertex 38.33261 20 8.725
      vertex 147.3305 20 2.8
    endloop
  endfacet
  facet normal 0 1 0
    outer loop
      vertex 38.33261 20 0
      vertex 2 20 0
      vertex 2 20 8.725
    endloop
  endfacet
  facet normal 0 1 -0
    outer loop
      vertex 38.33261 20 0
      vertex 2 20 8.725
      vertex 38.33261 20 8.725
    endloop
  endfacet
  facet normal 1 0 0
    outer loop
      vertex 147.3305 20 0
      vertex 147.3305 2 2.8
      vertex 147.3305 2 0
    endloop
  endfacet
  facet normal 1 0 -0
    outer loop
      vertex 147.3305 20 0
      vertex 147.3305 20 2.8
      vertex 147.3305 2 2.8
    endloop
  endfacet
  facet normal -1 0 0
    outer loop
      vertex 2 2 0
      vertex 2 20 8.725
      vertex 2 20 0
    endloop
  endfacet
  facet normal -1 0 0
    outer loop
      vertex 2 2 0
      vertex 2 2 8.725
      vertex 2 20 8.725
    endloop
  endfacet
endsolid ramp_face_1_level_10
