solid ramp_face_1_level_01
  facet normal 0 0 -1
    outer loop
      vertex 2 2 0
      vertex 173.8564 20 0
      vertex 173.8564 2 0
    endloop
  endfacet
  facet normal 0 0 -1
    outer loop
      vertex 2 2 0
      vertex 2 20 0
      vertex 173.8564 20 0
    endloop
  endfacet
  facet normal 0 0 -1
    outer loop
      vertex 173.8564 2 0
      vertex 231.1418 20 0
      vertex 231.1418 2 0
    endloop
  endfacet
  facet normal 0 0 -1
    outer loop
      vertex 173.8564 2 0
      vertex 173.8564 20 0
      vertex 231.1418 20 0
    endloop
  endfacet
  facet normal -0.02922704 0 0.9995728
    outer loop
      vertex 2 2 0.9
      vertex 173.8564 2 5.925
      vertex 173.8564 20 5.925
    endloop
  endfacet
  facet normal -0.02922704 0 0.9995728
    outer loop
      vertex 2 2 0.9
      vertex 173.8564 20 5.925
      vertex 2 20 0.9
    endloop
  endfacet
  facet normal 0 0 1
    outer loop
      vertex 173.8564 2 5.925
      vertex 231.1418 2 5.925
      vertex 231.1418 20 5.925
    endloop
  endfacet
  facet normal 0 0 1
    outer loop
      vertex 173.8564 2 5.925
      vertex 231.1418 20 5.925
      vertex 173.8564 20 5.925
    endloop
  endfacet
  facet normal 0 -1 0
    outer loop
      vertex 2 2 0
      vertex 173.8564 2 0
      vertex 173.8564 2 5.925
    endloop
  endfacet
  facet normal 0 -1 0
    outer loop
      vertex 2 2 0
      vertex 173.8564 2 5.925
      vertex 2 2 0.9
    endloop
  endfacet
  facet normal 0 -1 0
    outer loop
      vertex 173.8564 2 0
      vertex 231.1418 2 0
      vertex 231.1418 2 5.925
    endloop
  endfacet
  facet normal 0 -1 0
    outer loop
      vertex 173.8564 2 0
      vertex 231.1418 2 5.925
      vertex 173.8564 2 5.925
    endloop
  endfacet
  facet normal 0 1 0
    outer loop
      vertex 2 20 0
      vertex 173.8564 20 5.925
      vertex 173.8564 20 0
    endloop
  endfacet
  facet normal 0 1 0
    outer loop
      vertex 2 20 0
      vertex 2 20 0.9
      vertex 173.8564 20 5.925
    endloop
  endfacet
  facet normal 0 1 0
    outer loop
      vertex 173.8564 20 0
      vertex 231.1418 20 5.925
      vertex 231.1418 20 0
    endloop
  endfacet
  facet normal 0 1 0
    outer loop
      vertex 173.8564 20 0
      vertex 173.8564 20 5.925
      vertex 231.1418 20 5.925
    endloop
  endfacet
  facet normal -1 0 0
    outer loop
      vertex 2 20 0
      vertex 2 2 0
      vertex 2 2 0.9
    endloop
  endfacet
  facet normal -1 0 0
    outer loop
      vertex 2 20 0
      vertex 2 2 0.9
      vertex 2 20 0.9
    endloop
  endfacet
  facet normal 1 0 0
    outer loop
      vertex 231.1418 2 0
      vertex 231.1418 20 0
      vertex 231.1418 20 5.925
    endloop
  endfacet
  facet normal 1 0 0
    outer loop
      vertex 231.1418 2 0
      vertex 231.1418 20 5.925
      vertex 231.1418 2 5.925
    endloop
  endfacet
endsolid ramp_face_1_level_01
