solid ramp_face_1_level_14
  facet normal 0 0 -1
    outer loop
      vertex 110.0809 2 0
      vertex 29.02024 2 0
      vertex 29.02024 20 0
    endloop
  endfacet
  facet normal 0 0 -1
    outer loop
      vertex 110.0809 2 0
      vertex 29.02024 20 0
      vertex 110.0809 20 0
    endloop
  endfacet
  facet normal 0 0 -1
    outer loop
      vertex 29.02024 2 0
      vertex 2 2 0
      vertex 2 20 0
    endloop
  endfacet
  facet normal 0 0 -1
    outer loop
      vertex 29.02024 2 0
      vertex 2 20 0
      vertex 29.02024 20 0
    endloop
  endfacet
  facet normal 0.07289889 0 0.9973393
    outer loop
      vertex 110.0809 2 2.8
      vertex 29.02024 20 8.725
      vertex 29.02024 2 8.725
    endloop
  endfacet
  facet normal 0.07289889 -0 0.9973393
    outer loop
      vertex 110.0809 2 2.8
      vertex 110.0809 20 2.8
      vertex 29.02024 20 8.725
    endloop
  endfacet
  facet normal 0 0 1
    outer loop
      vertex 29.02024 2 8.725
      vertex 2 20 8.725
      vertex 2 2 8.725
    endloop
  endfacet
  facet normal 0 -0 1
    outer loop
      vertex 29.02024 2 8.725
      vertex 29.02024 20 8.725
      vertex 2 20 8.725
    endloop
  endfacet
  facet normal 0 -1 0
    outer loop
      vertex 110.0809 2 0
      vertex 29.02024 2 8.725
      vertex 29.02024 2 0
    endloop
  endfacet
  facet normal 0 -1 0
    outer loop
      vertex 110.0809 2 0
      vertex 110.0809 2 2.8
      vertex 29.02024 2 8.725
    endloop
  endfacet
  facet normal 0 -1 0
    outer loop
      vertex 29.02024 2 0
      vertex 2 2 8.725
      vertex 2 2 0
    endloop
  endfacet
  facet normal 0 -1 0
    outer loop
      vertex 29.02024 2 0
      vertex 29.02024 2 8.725
      vertex 2 2 8.725
    endloop
  endfacet
  facet normal 0 1 0
    outer loop
      vertex 110.0809 20 0
      vertex 29.02024 20 0
      vertex 29.02024 20 8.725
    endloop
  endfacet
  facet normal 0 1 -0
    outer loop
      vertex 110.0809 20 0
      vertex 29.02024 20 8.725
      vertex 110.0809 20 2.8
    endloop
  endfacet
  facet normal 0 1 0
    outer loop
      vertex 29.02024 20 0
      vertex 2 20 0
      vertex 2 20 8.725
    endloop
  endfacet
  facet normal 0 1 -0
    outer loop
      vertex 29.02024 20 0
      vertex 2 20 8.725
      vertex 29.02024 20 8.725
    endloop
  endfacet
  facet normal 1 0 0
    outer loop
      vertex 110.0809 20 0
      vertex 110.0809 2 2.8
      vertex 110.0809 2 0
    endloop
  endfacet
  facet normal 1 0 -0
    outer loop
      vertex 110.0809 20 0
      vertex 110.0809 20 2.8
      vertex 110.0809 2 2.8
    endloop
  endfacet
  facet normal -1 0 0
    outer loop
      vertex 2 2 0
      vertex 2 20 8.725
      vertex 2 20 0
    endloop
  endfacet
  facet normal -1 0 0
    outer loop
      vertex 2 2 0
      vertex 2 2 8.725
      vertex 2 20 8.725
    endloop
  endfacet
endsolid ramp_face_1_level_14
