solid ramp_face_4_level_12
  facet normal 0 0 -1
    outer loop
      vertex 20 2 0
      vertex 2 97.02927 0
      vertex 20 97.02927 0
    endloop
  endfacet
  facet normal 0 0 -1
    outer loop
      vertex 20 2 0
      vertex 2 2 0
      vertex 2 97.02927 0
    endloop
  endfacet
  facet normal 0 0 -1
    outer loop
      vertex 20 97.02927 0
      vertex 2 128.7057 0
      vertex 20 128.7057 0
    endloop
  endfacet
  facet normal 0 0 -1
    outer loop
      vertex 20 97.02927 0
      vertex 2 97.02927 0
      vertex 2 128.7057 0
    endloop
  endfacet
  facet normal 0 -0.06222837 0.9980619
    outer loop
      vertex 20 2 2.8
      vertex 20 97.02927 8.725
      vertex 2 97.02927 8.725
    endloop
  endfacet
  facet normal 0 -0.06222837 0.9980619
    outer loop
      vertex 20 2 2.8
      vertex 2 97.02927 8.725
      vertex 2 2 2.8
    endloop
  endfacet
  facet normal 0 -0 1
    outer loop
      vertex 20 97.02927 8.725
      vertex 20 128.7057 8.725
      vertex 2 128.7057 8.725
    endloop
  endfacet
  facet normal 0 0 1
    outer loop
      vertex 20 97.02927 8.725
      vertex 2 128.7057 8.725
      vertex 2 97.02927 8.725
    endloop
  endfacet
  facet normal 1 0 0
    outer loop
      vertex 20 2 0
      vertex 20 97.02927 0
      vertex 20 97.02927 8.725
    endloop
  endfacet
  facet normal 1 0 0
    outer loop
      vertex 20 2 0
      vertex 20 97.02927 8.725
      vertex 20 2 2.8
    endloop
  endfacet
  facet normal 1 0 0
    outer loop
      vertex 20 97.02927 0
      vertex 20 128.7057 0
      vertex 20 128.7057 8.725
    endloop
  endfacet
  facet normal 1 0 0
    outer loop
      vertex 20 97.02927 0
      vertex 20 128.7057 8.725
      vertex 20 97.02927 8.725
    endloop
  endfacet
  facet normal -1 0 0
    outer loop
      vertex 2 2 0
      vertex 2 97.02927 8.725
      vertex 2 97.02927 0
    endloop
  endfacet
  facet normal -1 0 0
    outer loop
      vertex 2 2 0
      vertex 2 2 2.8
      vertex 2 97.02927 8.725
    endloop
  endfacet
  facet normal -1 0 0
    outer loop
      vertex 2 97.02927 0
      vertex 2 128.7057 8.725
      vertex 2 128.7057 0
    endloop
  endfacet
  facet normal -1 0 0
    outer loop
      vertex 2 97.02927 0
      vertex 2 97.02927 8.725
      vertex 2 128.7057 8.725
    endloop
  endfacet
  facet normal 0 -1 0
    outer loop
      vertex 2 2 0
      vertex 20 2 0
      vertex 20 2 2.8
    endloop
  endfacet
  facet normal 0 -1 0
    outer loop
      vertex 2 2 0
      vertex 20 2 2.8
      vertex 2 2 2.8
    endloop
  endfacet
  facet normal 0 1 0
    outer loop
      vertex 20 128.7057 0
      vertex 2 128.7057 0
      vertex 2 128.7057 8.725
    endloop
  endfacet
  facet normal 0 1 -0
    outer loop
      vertex 20 128.7057 0
      vertex 2 128.7057 8.725
      vertex 20 128.7057 8.725
    endloop
  endfacet
endsolid ramp_face_4_level_12
