solid ramp_face_2_level_02
  facet normal 0 0 -1
    outer loop
      vertex 2 221.8295 0
      vertex 20 56.95737 0
      vertex 2 56.95737 0
    endloop
  endfacet
  facet normal 0 0 -1
    outer loop
      vertex 2 221.8295 0
      vertex 20 221.8295 0
      vertex 20 56.95737 0
    endloop
  endfacet
  facet normal 0 0 -1
    outer loop
      vertex 2 56.95737 0
      vertex 20 2 0
      vertex 2 2 0
    endloop
  endfacet
  facet normal 0 0 -1
    outer loop
      vertex 2 56.95737 0
      vertex 20 56.95737 0
      vertex 20 2 0
    endloop
  endfacet
  facet normal 0 0.03591376 0.9993549
    outer loop
      vertex 2 221.8295 2.8
      vertex 2 56.95737 8.725
      vertex 20 56.95737 8.725
    endloop
  endfacet
  facet normal -0 0.03591376 0.9993549
    outer loop
      vertex 2 221.8295 2.8
      vertex 20 56.95737 8.725
      vertex 20 221.8295 2.8
    endloop
  endfacet
  facet normal 0 0 1
    outer loop
      vertex 2 56.95737 8.725
      vertex 2 2 8.725
      vertex 20 2 8.725
    endloop
  endfacet
  facet normal -0 0 1
    outer loop
      vertex 2 56.95737 8.725
      vertex 20 2 8.725
      vertex 20 56.95737 8.725
    endloop
  endfacet
  facet normal -1 0 0
    outer loop
      vertex 2 221.8295 0
      vertex 2 56.95737 0
      vertex 2 56.95737 8.725
    endloop
  endfacet
  facet normal -1 0 0
    outer loop
      vertex 2 221.8295 0
      vertex 2 56.95737 8.725
      vertex 2 221.8295 2.8
    endloop
  endfacet
  facet normal -1 0 0
    outer loop
      vertex 2 56.95737 0
      vertex 2 2 0
      vertex 2 2 8.725
    endloop
  endfacet
  facet normal -1 0 0
    outer loop
      vertex 2 56.95737 0
      vertex 2 2 8.725
      vertex 2 56.95737 8.725
    endloop
  endfacet
  facet normal 1 0 0
    outer loop
      vertex 20 221.8295 0
      vertex 20 56.95737 8.725
      vertex 20 56.95737 0
    endloop
  endfacet
  facet normal 1 0 -0
    outer loop
      vertex 20 221.8295 0
      vertex 20 221.8295 2.8
      vertex 20 56.95737 8.725
    endloop
  endfacet
  facet normal 1 0 0
    outer loop
      vertex 20 56.95737 0
      vertex 20 2 8.725
      vertex 20 2 0
    endloop
  endfacet
  facet normal 1 0 -0
    outer loop
      vertex 20 56.95737 0
      vertex 20 56.95737 8.725
      vertex 20 2 8.725
    endloop
  endfacet
  facet normal 0 1 0
    outer loop
      vertex 20 221.8295 0
      vertex 2 221.8295 0
      vertex 2 221.8295 2.8
    endloop
  endfacet
  facet normal 0 1 -0
    outer loop
      vertex 20 221.8295 0
      vertex 2 221.8295 2.8
      vertex 20 221.8295 2.8
    endloop
  endfacet
  facet normal 0 -1 0
    outer loop
      vertex 2 2 0
      vertex 20 2 0
      vertex 20 2 8.725
    endloop
  endfacet
  facet normal 0 -1 0
    outer loop
      vertex 2 2 0
      vertex 20 2 8.725
      vertex 2 2 8.725
    endloop
  endfacet
endsolid ramp_face_2_level_02
