solid ramp_face_1_level_15
  facet normal 0 0 -1
    outer loop
      vertex 2 2 0
      vertex 76.07642 20 0
      vertex 76.07642 2 0
    endloop
  endfacet
  facet normal 0 0 -1
    outer loop
      vertex 2 2 0
      vertex 2 20 0
      vertex 76.07642 20 0
    endloop
  endfacet
  facet normal 0 0 -1
    outer loop
      vertex 76.07642 2 0
      vertex 100.7686 20 0
      vertex 100.7686 2 0
    endloop
  endfacet
  facet normal 0 0 -1
    outer loop
      vertex 76.07642 2 0
      vertex 76.07642 20 0
      vertex 100.7686 20 0
    endloop
  endfacet
  facet normal -0.07973033 0 0.9968165
    outer loop
      vertex 2 2 2.8
      vertex 76.07642 2 8.725
      vertex 76.07642 20 8.725
    endloop
  endfacet
  facet normal -0.07973033 0 0.9968165
    outer loop
      vertex 2 2 2.8
      vertex 76.07642 20 8.725
      vertex 2 20 2.8
    endloop
  endfacet
  facet normal 0 0 1
    outer loop
      vertex 76.07642 2 8.725
      vertex 100.7686 2 8.725
      vertex 100.7686 20 8.725
    endloop
  endfacet
  facet normal 0 0 1
    outer loop
      vertex 76.07642 2 8.725
      vertex 100.7686 20 8.725
      vertex 76.07642 20 8.725
    endloop
  endfacet
  facet normal 0 -1 0
    outer loop
      vertex 2 2 0
      vertex 76.07642 2 0
      vertex 76.07642 2 8.725
    endloop
  endfacet
  facet normal 0 -1 0
    outer loop
      vertex 2 2 0
      vertex 76.07642 2 8.725
      vertex 2 2 2.8
    endloop
  endfacet
  facet normal 0 -1 0
    outer loop
      vertex 76.07642 2 0
      vertex 100.7686 2 0
      vertex 100.7686 2 8.725
    endloop
  endfacet
  facet normal 0 -1 0
    outer loop
      vertex 76.07642 2 0
      vertex 100.7686 2 8.725
      vertex 76.07642 2 8.725
    endloop
  endfacet
  facet normal 0 1 0
    outer loop
      vertex 2 20 0
      vertex 76.07642 20 8.725
      vertex 76.07642 20 0
    endloop
  endfacet
  facet normal 0 1 0
    outer loop
      vertex 2 20 0
      vertex 2 20 2.8
      vertex 76.07642 20 8.725
    endloop
  endfacet
  facet normal 0 1 0
    outer loop
      vertex 76.07642 20 0
      vertex 100.7686 20 8.725
      vertex 100.7686 20 0
    endloop
  endfacet
  facet normal 0 1 0
    outer loop
      vertex 76.07642 20 0
      vertex 76.07642 20 8.725
      vertex 100.7686 20 8.725
    endloop
  endfacet
  facet normal -1 0 0
    outer loop
      vertex 2 20 0
      vertex 2 2 0
      vertex 2 2 2.8
    endloop
  endfacet
  facet normal -1 0 0
    outer loop
      vertex 2 20 0
      vertex 2 2 2.8
      vertex 2 20 2.8
    endloop
  endfacet
  facet normal 1 0 0
    outer loop
      vertex 100.7686 2 0
      vertex 100.7686 20 0
      vertex 100.7686 20 8.725
    endloop
  endfacet
  facet normal 1 0 0
    outer loop
      vertex 100.7686 2 0
      vertex 100.7686 20 8.725
      vertex 100.7686 2 8.725
    endloop
  endfacet
endsolid ramp_face_1_level_15
