solid ramp_face_4_level_09
  facet normal 0 -0 -1
    outer loop
      vertex 20 156.6428 0
      vertex 20 40.66071 0
      vertex 2 40.66071 0
    endloop
  endfacet
  facet normal -0 0 -1
    outer loop
      vertex 20 156.6428 0
      vertex 2 40.66071 0
      vertex 2 156.6428 0
    endloop
  endfacet
  facet normal 0 -0 -1
    outer loop
      vertex 20 40.66071 0
      vertex 20 2 0
      vertex 2 2 0
    endloop
  endfacet
  facet normal -0 0 -1
    outer loop
      vertex 20 40.66071 0
      vertex 2 2 0
      vertex 2 40.66071 0
    endloop
  endfacet
  facet normal 0 0.05101893 0.9986977
    outer loop
      vertex 20 156.6428 2.8
      vertex 2 40.66071 8.725
      vertex 20 40.66071 8.725
    endloop
  endfacet
  facet normal 0 0.05101893 0.9986977
    outer loop
      vertex 20 156.6428 2.8
      vertex 2 156.6428 2.8
      vertex 2 40.66071 8.725
    endloop
  endfacet
  facet normal 0 0 1
    outer loop
      vertex 20 40.66071 8.725
      vertex 2 2 8.725
      vertex 20 2 8.725
    endloop
  endfacet
  facet normal 0 0 1
    outer loop
      vertex 20 40.66071 8.725
      vertex 2 40.66071 8.725
      vertex 2 2 8.725
    endloop
  endfacet
  facet normal 1 0 0
    outer loop
      vertex 20 156.6428 0
      vertex 20 40.66071 8.725
      vertex 20 40.66071 0
    endloop
  endfacet
  facet normal 1 0 -0
    outer loop
      vertex 20 156.6428 0
      vertex 20 156.6428 2.8
      vertex 20 40.66071 8.725
    endloop
  endfacet
  facet normal 1 0 0
    outer loop
      vertex 20 40.66071 0
      vertex 20 2 8.725
      vertex 20 2 0
    endloop
  endfacet
  facet normal 1 0 -0
    outer loop
      vertex 20 40.66071 0
      vertex 20 40.66071 8.725
      vertex 20 2 8.725
    endloop
  endfacet
  facet normal -1 0 0
    outer loop
      vertex 2 156.6428 0
      vertex 2 40.66071 0
      vertex 2 40.66071 8.725
    endloop
  endfacet
  facet normal -1 0 0
    outer loop
      vertex 2 156.6428 0
      vertex 2 40.66071 8.725
      vertex 2 156.6428 2.8
    endloop
  endfacet
  facet normal -1 0 0
    outer loop
      vertex 2 40.66071 0
      vertex 2 2 0
      vertex 2 2 8.725
    endloop
  endfacet
  facet normal -1 0 0
    outer loop
      vertex 2 40.66071 0
      vertex 2 2 8.725
      vertex 2 40.66071 8.725
    endloop
  endfacet
  facet normal 0 1 0
    outer loop
      vertex 2 156.6428 0
      vertex 20 156.6428 2.8
      vertex 20 156.6428 0
    endloop
  endfacet
  facet normal 0 1 0
    outer loop
      vertex 2 156.6428 0
      vertex 2 156.6428 2.8
      vertex 20 156.6428 2.8
    endloop
  endfacet
  facet normal 0 -1 0
    outer loop
      vertex 20 2 0
      vertex 2 2 8.725
      vertex 2 2 0
    endloop
  endfacet
  facet normal 0 -1 0
    outer loop
      vertex 20 2 0
      vertex 20 2 8.725
      vertex 2 2 8.725
    endloop
  endfacet
endsolid ramp_face_4_level_09
