solid ramp_face_3_level_06
  facet normal 0 0 -1
    outer loop
      vertex 2 20 0
      vertex 138.935 20 0
      vertex 138.935 2 0
    endloop
  endfacet
  facet normal 0 0 -1
    outer loop
      vertex 2 20 0
      vertex 138.935 2 0
      vertex 2 2 0
    endloop
  endfacet
  facet normal 0 0 -1
    outer loop
      vertex 138.935 20 0
      vertex 184.58 20 0
      vertex 184.58 2 0
    endloop
  endfacet
  facet normal 0 0 -1
    outer loop
      vertex 138.935 20 0
      vertex 184.58 2 0
      vertex 138.935 2 0
    endloop
  endfacet
  facet normal -0.04322827 0 0.9990652
    outer loop
      vertex 2 20 2.8
      vertex 138.935 2 8.725
      vertex 138.935 20 8.725
    endloop
  endfacet
  facet normal -0.04322827 0 0.9990652
    outer loop
      vertex 2 20 2.8
      vertex 2 2 2.8
      vertex 138.935 2 8.725
    endloop
  endfacet
  facet normal -0 0 1
    outer loop
      vertex 138.935 20 8.725
      vertex 184.58 2 8.725
      vertex 184.58 20 8.725
    endloop
  endfacet
  facet normal 0 0 1
    outer loop
      vertex 138.935 20 8.725
      vertex 138.935 2 8.725
      vertex 184.58 2 8.725
    endloop
  endfacet
  facet normal 0 1 0
    outer loop
      vertex 2 20 0
      vertex 138.935 20 8.725
      vertex 138.935 20 0
    endloop
  endfacet
  facet normal 0 1 0
    outer loop
      vertex 2 20 0
      vertex 2 20 2.8
      vertex 138.935 20 8.725
    endloop
  endfacet
  facet normal 0 1 0
    outer loop
      vertex 138.935 20 0
      vertex 184.58 20 8.725
      vertex 184.58 20 0
    endloop
  endfacet
  facet normal 0 1 0
    outer loop
      vertex 138.935 20 0
      vertex 138.935 20 8.725
      vertex 184.58 20 8.725
    endloop
  endfacet
  facet normal 0 -1 0
    outer loop
      vertex 2 2 0
      vertex 138.935 2 0
      vertex 138.935 2 8.725
    endloop
  endfacet
  facet normal 0 -1 0
    outer loop
      vertex 2 2 0
      vertex 138.935 2 8.725
      vertex 2 2 2.8
    endloop
  endfacet
  facet normal 0 -1 0
    outer loop
      vertex 138.935 2 0
      vertex 184.58 2 0
      vertex 184.58 2 8.725
    endloop
  endfacet
  facet normal 0 -1 0
    outer loop
      vertex 138.935 2 0
      vertex 184.58 2 8.725
      vertex 138.935 2 8.725
    endloop
  endfacet
  facet normal -1 0 0
    outer loop
      vertex 2 2 0
      vertex 2 20 2.8
      vertex 2 20 0
    endloop
  endfacet
  facet normal -1 0 0
    outer loop
      vertex 2 2 0
      vertex 2 2 2.8
      vertex 2 20 2.8
    endloop
  endfacet
  facet normal 1 0 0
    outer loop
      vertex 184.58 20 0
      vertex 184.58 2 8.725
      vertex 184.58 2 0
    endloop
  endfacet
  facet normal 1 0 -0
    outer loop
      vertex 184.58 20 0
      vertex 184.58 20 8.725
      vertex 184.58 2 8.725
    endloop
  endfacet
endsolid ramp_face_3_level_06
