solid ramp_face_1_level_16
  facet normal 0 0 -1
    outer loop
      vertex 91.45619 2 0
      vertex 24.36405 2 0
      vertex 24.36405 20 0
    endloop
  endfacet
  facet normal 0 0 -1
    outer loop
      vertex 91.45619 2 0
      vertex 24.36405 20 0
      vertex 91.45619 20 0
    endloop
  endfacet
  facet normal 0 0 -1
    outer loop
      vertex 24.36405 2 0
      vertex 2 2 0
      vertex 2 20 0
    endloop
  endfacet
  facet normal 0 0 -1
    outer loop
      vertex 24.36405 2 0
      vertex 2 20 0
      vertex 24.36405 20 0
    endloop
  endfacet
  facet normal 0.08796902 0 0.9961232
    outer loop
      vertex 91.45619 2 2.8
      vertex 24.36405 20 8.725
      vertex 24.36405 2 8.725
    endloop
  endfacet
  facet normal 0.08796902 -0 0.9961232
    outer loop
      vertex 91.45619 2 2.8
      vertex 91.45619 20 2.8
      vertex 24.36405 20 8.725
    endloop
  endfacet
  facet normal 0 0 1
    outer loop
      vertex 24.36405 2 8.725
      vertex 2 20 8.725
      vertex 2 2 8.725
    endloop
  endfacet
  facet normal 0 -0 1
    outer loop
      vertex 24.36405 2 8.725
      vertex 24.36405 20 8.725
      vertex 2 20 8.725
    endloop
  endfacet
  facet normal 0 -1 0
    outer loop
      vertex 91.45619 2 0
      vertex 24.36405 2 8.725
      vertex 24.36405 2 0
    endloop
  endfacet
  facet normal 0 -1 0
    outer loop
      vertex 91.45619 2 0
      vertex 91.45619 2 2.8
      vertex 24.36405 2 8.725
    endloop
  endfacet
  facet normal 0 -1 0
    outer loop
      vertex 24.36405 2 0
      vertex 2 2 8.725
      vertex 2 2 0
    endloop
  endfacet
  facet normal 0 -1 0
    outer loop
      vertex 24.36405 2 0
      vertex 24.36405 2 8.725
      vertex 2 2 8.725
    endloop
  endfacet
  facet normal 0 1 0
    outer loop
      vertex 91.45619 20 0
      vertex 24.36405 20 0
      vertex 24.36405 20 8.725
    endloop
  endfacet
  facet normal 0 1 -0
    outer loop
      vertex 91.45619 20 0
      vertex 24.36405 20 8.725
      vertex 91.45619 20 2.8
    endloop
  endfacet
  facet normal 0 1 0
    outer loop
      vertex 24.36405 20 0
      vertex 2 20 0
      vertex 2 20 8.725
    endloop
  endfacet
  facet normal 0 1 -0
    outer loop
      vertex 24.36405 20 0
      vertex 2 20 8.725
      vertex 24.36405 20 8.725
    endloop
  endfacet
  facet normal 1 0 0
    outer loop
      vertex 91.45619 20 0
      vertex 91.45619 2 2.8
      vertex 91.45619 2 0
    endloop
  endfacet
  facet normal 1 0 -0
    outer loop
      vertex 91.45619 20 0
      vertex 91.45619 20 2.8
      vertex 91.45619 2 2.8
    endloop
  endfacet
  facet normal -1 0 0
    outer loop
      vertex 2 2 0
      vertex 2 20 8.725
      vertex 2 20 0
    endloop
  endfacet
  facet normal -1 0 0
    outer loop
      vertex 2 2 0
      vertex 2 2 8.725
      vertex 2 20 8.725
    endloop
  endfacet
endsolid ramp_face_1_level_16
