solid ramp_face_1_level_08
  facet normal 0 0 -1
    outer loop
      vertex 165.9552 2 0
      vertex 42.9888 2 0
      vertex 42.9888 20 0
    endloop
  endfacet
  facet normal 0 0 -1
    outer loop
      vertex 165.9552 2 0
      vertex 42.9888 20 0
      vertex 165.9552 20 0
    endloop
  endfacet
  facet normal 0 0 -1
    outer loop
      vertex 42.9888 2 0
      vertex 2 2 0
      vertex 2 20 0
    endloop
  endfacet
  facet normal 0 0 -1
    outer loop
      vertex 42.9888 2 0
      vertex 2 20 0
      vertex 42.9888 20 0
    endloop
  endfacet
  facet normal 0.04812806 0 0.9988412
    outer loop
      vertex 165.9552 2 2.8
      vertex 42.9888 20 8.725
      vertex 42.9888 2 8.725
    endloop
  endfacet
  facet normal 0.04812806 -0 0.9988412
    outer loop
      vertex 165.9552 2 2.8
      vertex 165.9552 20 2.8
      vertex 42.9888 20 8.725
    endloop
  endfacet
  facet normal 0 0 1
    outer loop
      vertex 42.9888 2 8.725
      vertex 2 20 8.725
      vertex 2 2 8.725
    endloop
  endfacet
  facet normal 0 -0 1
    outer loop
      vertex 42.9888 2 8.725
      vertex 42.9888 20 8.725
      vertex 2 20 8.725
    endloop
  endfacet
  facet normal 0 -1 0
    outer loop
      vertex 165.9552 2 0
      vertex 42.9888 2 8.725
      vertex 42.9888 2 0
    endloop
  endfacet
  facet normal 0 -1 0
    outer loop
      vertex 165.9552 2 0
      vertex 165.9552 2 2.8
      vertex 42.9888 2 8.725
    endloop
  endfacet
  facet normal 0 -1 0
    outer loop
      vertex 42.9888 2 0
      vertex 2 2 8.725
      vertex 2 2 0
    endloop
  endfacet
  facet normal 0 -1 0
    outer loop
      vertex 42.9888 2 0
      vertex 42.9888 2 8.725
      vertex 2 2 8.725
    endloop
  endfacet
  facet normal 0 1 0
    outer loop
      vertex 165.9552 20 0
      vertex 42.9888 20 0
      vertex 42.9888 20 8.725
    endloop
  endfacet
  facet normal 0 1 -0
    outer loop
      vertex 165.9552 20 0
      vertex 42.9888 20 8.725
      vertex 165.9552 20 2.8
    endloop
  endfacet
  facet normal 0 1 0
    outer loop
      vertex 42.9888 20 0
      vertex 2 20 0
      vertex 2 20 8.725
    endloop
  endfacet
  facet normal 0 1 -0
    outer loop
      vertex 42.9888 20 0
      vertex 2 20 8.725
      vertex 42.9888 20 8.725
    endloop
  endfacet
  facet normal 1 0 0
    outer loop
      vertex 165.9552 20 0
      vertex 165.9552 2 2.8
      vertex 165.9552 2 0
    endloop
  endfacet
  facet normal 1 0 -0
    outer loop
      vertex 165.9552 20 0
      vertex 165.9552 20 2.8
      vertex 165.9552 2 2.8
    endloop
  endfacet
  facet normal -1 0 0
    outer loop
      vertex 2 2 0
      vertex 2 20 8.725
      vertex 2 20 0
    endloop
  endfacet
  facet normal -1 0 0
    outer loop
      vertex 2 2 0
      vertex 2 2 8.725
      vertex 2 20 8.725
    endloop
  endfacet
endsolid ramp_face_1_level_08
