solid ramp_face_4_level_14
  facet normal 0 0 -1
    outer loop
      vertex 20 2 0
      vertex 2 83.06071 0
      vertex 20 83.06071 0
    endloop
  endfacet
  facet normal 0 0 -1
    outer loop
      vertex 20 2 0
      vertex 2 2 0
      vertex 2 83.06071 0
    endloop
  endfacet
  facet normal 0 0 -1
    outer loop
      vertex 20 83.06071 0
      vertex 2 110.0809 0
      vertex 20 110.0809 0
    endloop
  endfacet
  facet normal 0 0 -1
    outer loop
      vertex 20 83.06071 0
      vertex 2 83.06071 0
      vertex 2 110.0809 0
    endloop
  endfacet
  facet normal 0 -0.07289889 0.9973393
    outer loop
      vertex 20 2 2.8
      vertex 20 83.06071 8.725
      vertex 2 83.06071 8.725
    endloop
  endfacet
  facet normal 0 -0.07289889 0.9973393
    outer loop
      vertex 20 2 2.8
      vertex 2 83.06071 8.725
      vertex 2 2 2.8
    endloop
  endfacet
  facet normal 0 -0 1
    outer loop
      vertex 20 83.06071 8.725
      vertex 20 110.0809 8.725
      vertex 2 110.0809 8.725
    endloop
  endfacet
  facet normal 0 0 1
    outer loop
      vertex 20 83.06071 8.725
      vertex 2 110.0809 8.725
      vertex 2 83.06071 8.725
    endloop
  endfacet
  facet normal 1 0 0
    outer loop
      vertex 20 2 0
      vertex 20 83.06071 0
      vertex 20 83.06071 8.725
    endloop
  endfacet
  facet normal 1 0 0
    outer loop
      vertex 20 2 0
      vertex 20 83.06071 8.725
      vertex 20 2 2.8
    endloop
  endfacet
  facet normal 1 0 0
    outer loop
      vertex 20 83.06071 0
      vertex 20 110.0809 0
      vertex 20 110.0809 8.725
    endloop
  endfacet
  facet normal 1 0 0
    outer loop
      vertex 20 83.06071 0
      vertex 20 110.0809 8.725
      vertex 20 83.06071 8.725
    endloop
  endfacet
  facet normal -1 0 0
    outer loop
      vertex 2 2 0
      vertex 2 83.06071 8.725
      vertex 2 83.06071 0
    endloop
  endfacet
  facet normal -1 0 0
    outer loop
      vertex 2 2 0
      vertex 2 2 2.8
      vertex 2 83.06071 8.725
    endloop
  endfacet
  facet normal -1 0 0
    outer loop
      vertex 2 83.06071 0
      vertex 2 110.0809 8.725
      vertex 2 110.0809 0
    endloop
  endfacet
  facet normal -1 0 0
    outer loop
      vertex 2 83.06071 0
      vertex 2 83.06071 8.725
      vertex 2 110.0809 8.725
    endloop
  endfacet
  facet normal 0 -1 0
    outer loop
      vertex 2 2 0
      vertex 20 2 0
      vertex 20 2 2.8
    endloop
  endfacet
  facet normal 0 -1 0
    outer loop
      vertex 2 2 0
      vertex 20 2 2.8
      vertex 2 2 2.8
    endloop
  endfacet
  facet normal 0 1 0
    outer loop
      vertex 20 110.0809 0
      vertex 2 110.0809 0
      vertex 2 110.0809 8.725
    endloop
  endfacet
  facet normal 0 1 -0
    outer loop
      vertex 20 110.0809 0
      vertex 2 110.0809 8.725
      vertex 20 110.0809 8.725
    endloop
  endfacet
endsolid ramp_face_4_level_14
