solid ramp_face_2_level_11
  facet normal 0 0 -1
    outer loop
      vertex 2 2 0
      vertex 2 104.0136 0
      vertex 20 104.0136 0
    endloop
  endfacet
  facet normal 0 0 -1
    outer loop
      vertex 2 2 0
      vertex 20 104.0136 0
      vertex 20 2 0
    endloop
  endfacet
  facet normal 0 0 -1
    outer loop
      vertex 2 104.0136 0
      vertex 2 138.0181 0
      vertex 20 138.0181 0
    endloop
  endfacet
  facet normal 0 0 -1
    outer loop
      vertex 2 104.0136 0
      vertex 20 138.0181 0
      vertex 20 104.0136 0
    endloop
  endfacet
  facet normal 0 -0.0579828 0.9983176
    outer loop
      vertex 2 2 2.8
      vertex 20 104.0136 8.725
      vertex 2 104.0136 8.725
    endloop
  endfacet
  facet normal 0 -0.0579828 0.9983176
    outer loop
      vertex 2 2 2.8
      vertex 20 2 2.8
      vertex 20 104.0136 8.725
    endloop
  endfacet
  facet normal 0 0 1
    outer loop
      vertex 2 104.0136 8.725
      vertex 20 138.0181 8.725
      vertex 2 138.0181 8.725
    endloop
  endfacet
  facet normal 0 0 1
    outer loop
      vertex 2 104.0136 8.725
      vertex 20 104.0136 8.725
      vertex 20 138.0181 8.725
    endloop
  endfacet
  facet normal -1 0 0
    outer loop
      vertex 2 2 0
      vertex 2 104.0136 8.725
      vertex 2 104.0136 0
    endloop
  endfacet
  facet normal -1 0 0
    outer loop
      vertex 2 2 0
      vertex 2 2 2.8
      vertex 2 104.0136 8.725
    endloop
  endfacet
  facet normal -1 0 0
    outer loop
      vertex 2 104.0136 0
      vertex 2 138.0181 8.725
      vertex 2 138.0181 0
    endloop
  endfacet
  facet normal -1 0 0
    outer loop
      vertex 2 104.0136 0
      vertex 2 104.0136 8.725
      vertex 2 138.0181 8.725
    endloop
  endfacet
  facet normal 1 0 0
    outer loop
      vertex 20 2 0
      vertex 20 104.0136 0
      vertex 20 104.0136 8.725
    endloop
  endfacet
  facet normal 1 0 0
    outer loop
      vertex 20 2 0
      vertex 20 104.0136 8.725
      vertex 20 2 2.8
    endloop
  endfacet
  facet normal 1 0 0
    outer loop
      vertex 20 104.0136 0
      vertex 20 138.0181 0
      vertex 20 138.0181 8.725
    endloop
  endfacet
  facet normal 1 0 0
    outer loop
      vertex 20 104.0136 0
      vertex 20 138.0181 8.725
      vertex 20 104.0136 8.725
    endloop
  endfacet
  facet normal 0 -1 0
    outer loop
      vertex 20 2 0
      vertex 2 2 2.8
      vertex 2 2 0
    endloop
  endfacet
  facet normal 0 -1 0
    outer loop
      vertex 20 2 0
      vertex 20 2 2.8
      vertex 2 2 2.8
    endloop
  endfacet
  facet normal 0 1 0
    outer loop
      vertex 2 138.0181 0
      vertex 20 138.0181 8.725
      vertex 20 138.0181 0
    endloop
  endfacet
  facet normal 0 1 0
    outer loop
      vertex 2 138.0181 0
      vertex 2 138.0181 8.725
      vertex 20 138.0181 8.725
    endloop
  endfacet
endsolid ramp_face_2_level_11
