solid ramp_face_4_level_05
  facet normal 0 -0 -1
    outer loop
      vertex 20 193.8923 0
      vertex 20 49.97308 0
      vertex 2 49.97308 0
    endloop
  endfacet
  facet normal -0 0 -1
    outer loop
      vertex 20 193.8923 0
      vertex 2 49.97308 0
      vertex 2 193.8923 0
    endloop
  endfacet
  facet normal 0 -0 -1
    outer loop
      vertex 20 49.97308 0
      vertex 20 2 0
      vertex 2 2 0
    endloop
  endfacet
  facet normal -0 0 -1
    outer loop
      vertex 20 49.97308 0
      vertex 2 2 0
      vertex 2 49.97308 0
    endloop
  endfacet
  facet normal 0 0.04113407 0.9991536
    outer loop
      vertex 20 193.8923 2.8
      vertex 2 49.97308 8.725
      vertex 20 49.97308 8.725
    endloop
  endfacet
  facet normal 0 0.04113407 0.9991536
    outer loop
      vertex 20 193.8923 2.8
      vertex 2 193.8923 2.8
      vertex 2 49.97308 8.725
    endloop
  endfacet
  facet normal 0 0 1
    outer loop
      vertex 20 49.97308 8.725
      vertex 2 2 8.725
      vertex 20 2 8.725
    endloop
  endfacet
  facet normal 0 0 1
    outer loop
      vertex 20 49.97308 8.725
      vertex 2 49.97308 8.725
      vertex 2 2 8.725
    endloop
  endfacet
  facet normal 1 0 0
    outer loop
      vertex 20 193.8923 0
      vertex 20 49.97308 8.725
      vertex 20 49.97308 0
    endloop
  endfacet
  facet normal 1 0 -0
    outer loop
      vertex 20 193.8923 0
      vertex 20 193.8923 2.8
      vertex 20 49.97308 8.725
    endloop
  endfacet
  facet normal 1 0 0
    outer loop
      vertex 20 49.97308 0
      vertex 20 2 8.725
      vertex 20 2 0
    endloop
  endfacet
  facet normal 1 0 -0
    outer loop
      vertex 20 49.97308 0
      vertex 20 49.97308 8.725
      vertex 20 2 8.725
    endloop
  endfacet
  facet normal -1 0 0
    outer loop
      vertex 2 193.8923 0
      vertex 2 49.97308 0
      vertex 2 49.97308 8.725
    endloop
  endfacet
  facet normal -1 0 0
    outer loop
      vertex 2 193.8923 0
      vertex 2 49.97308 8.725
      vertex 2 193.8923 2.8
    endloop
  endfacet
  facet normal -1 0 0
    outer loop
      vertex 2 49.97308 0
      vertex 2 2 0
      vertex 2 2 8.725
    endloop
  endfacet
  facet normal -1 0 0
    outer loop
      vertex 2 49.97308 0
      vertex 2 2 8.725
      vertex 2 49.97308 8.725
    endloop
  endfacet
  facet normal 0 1 0
    outer loop
      vertex 2 193.8923 0
      vertex 20 193.8923 2.8
      vertex 20 193.8923 0
    endloop
  endfacet
  facet normal 0 1 0
    outer loop
      vertex 2 193.8923 0
      vertex 2 193.8923 2.8
      vertex 20 193.8923 2.8
    endloop
  endfacet
  facet normal 0 -1 0
    outer loop
      vertex 20 2 0
      vertex 2 2 8.725
      vertex 2 2 0
    endloop
  endfacet
  facet normal 0 -1 0
    outer loop
      vertex 20 2 0
      vertex 20 2 8.725
      vertex 2 2 8.725
    endloop
  endfacet
endsolid ramp_face_4_level_05
