solid ramp_face_3_level_04
  facet normal 0 0 -1
    outer loop
      vertex 2 20 0
      vertex 152.9035 20 0
      vertex 152.9035 2 0
    endloop
  endfacet
  facet normal 0 0 -1
    outer loop
      vertex 2 20 0
      vertex 152.9035 2 0
      vertex 2 2 0
    endloop
  endfacet
  facet normal 0 0 -1
    outer loop
      vertex 152.9035 20 0
      vertex 203.2047 20 0
      vertex 203.2047 2 0
    endloop
  endfacet
  facet normal 0 0 -1
    outer loop
      vertex 152.9035 20 0
      vertex 203.2047 2 0
      vertex 152.9035 2 0
    endloop
  endfacet
  facet normal -0.03923326 0 0.9992301
    outer loop
      vertex 2 20 2.8
      vertex 152.9035 2 8.725
      vertex 152.9035 20 8.725
    endloop
  endfacet
  facet normal -0.03923326 0 0.9992301
    outer loop
      vertex 2 20 2.8
      vertex 2 2 2.8
      vertex 152.9035 2 8.725
    endloop
  endfacet
  facet normal -0 0 1
    outer loop
      vertex 152.9035 20 8.725
      vertex 203.2047 2 8.725
      vertex 203.2047 20 8.725
    endloop
  endfacet
  facet normal 0 0 1
    outer loop
      vertex 152.9035 20 8.725
      vertex 152.9035 2 8.725
      vertex 203.2047 2 8.725
    endloop
  endfacet
  facet normal 0 1 0
    outer loop
      vertex 2 20 0
      vertex 152.9035 20 8.725
      vertex 152.9035 20 0
    endloop
  endfacet
  facet normal 0 1 0
    outer loop
      vertex 2 20 0
      vertex 2 20 2.8
      vertex 152.9035 20 8.725
    endloop
  endfacet
  facet normal 0 1 0
    outer loop
      vertex 152.9035 20 0
      vertex 203.2047 20 8.725
      vertex 203.2047 20 0
    endloop
  endfacet
  facet normal 0 1 0
    outer loop
      vertex 152.9035 20 0
      vertex 152.9035 20 8.725
      vertex 203.2047 20 8.725
    endloop
  endfacet
  facet normal 0 -1 0
    outer loop
      vertex 2 2 0
      vertex 152.9035 2 0
      vertex 152.9035 2 8.725
    endloop
  endfacet
  facet normal 0 -1 0
    outer loop
      vertex 2 2 0
      vertex 152.9035 2 8.725
      vertex 2 2 2.8
    endloop
  endfacet
  facet normal 0 -1 0
    outer loop
      vertex 152.9035 2 0
      vertex 203.2047 2 0
      vertex 203.2047 2 8.725
    endloop
  endfacet
  facet normal 0 -1 0
    outer loop
      vertex 152.9035 2 0
      vertex 203.2047 2 8.725
      vertex 152.9035 2 8.725
    endloop
  endfacet
  facet normal -1 0 0
    outer loop
      vertex 2 2 0
      vertex 2 20 2.8
      vertex 2 20 0
    endloop
  endfacet
  facet normal -1 0 0
    outer loop
      vertex 2 2 0
      vertex 2 2 2.8
      vertex 2 20 2.8
    endloop
  endfacet
  facet normal 1 0 0
    outer loop
      vertex 203.2047 20 0
      vertex 203.2047 2 8.725
      vertex 203.2047 2 0
    endloop
  endfacet
  facet normal 1 0 -0
    outer loop
      vertex 203.2047 20 0
      vertex 203.2047 20 8.725
      vertex 203.2047 2 8.725
    endloop
  endfacet
endsolid ramp_face_3_level_04
