solid ramp_face_2_level_13
  facet normal 0 0 -1
    outer loop
      vertex 2 2 0
      vertex 2 90.04499 0
      vertex 20 90.04499 0
    endloop
  endfacet
  facet normal 0 0 -1
    outer loop
      vertex 2 2 0
      vertex 20 90.04499 0
      vertex 20 2 0
    endloop
  endfacet
  facet normal 0 0 -1
    outer loop
      vertex 2 90.04499 0
      vertex 2 119.3933 0
      vertex 20 119.3933 0
    endloop
  endfacet
  facet normal 0 0 -1
    outer loop
      vertex 2 90.04499 0
      vertex 20 119.3933 0
      vertex 20 90.04499 0
    endloop
  endfacet
  facet normal 0 -0.06714328 0.9977433
    outer loop
      vertex 2 2 2.8
      vertex 20 90.04499 8.725
      vertex 2 90.04499 8.725
    endloop
  endfacet
  facet normal 0 -0.06714328 0.9977433
    outer loop
      vertex 2 2 2.8
      vertex 20 2 2.8
      vertex 20 90.04499 8.725
    endloop
  endfacet
  facet normal 0 0 1
    outer loop
      vertex 2 90.04499 8.725
      vertex 20 119.3933 8.725
      vertex 2 119.3933 8.725
    endloop
  endfacet
  facet normal 0 0 1
    outer loop
      vertex 2 90.04499 8.725
      vertex 20 90.04499 8.725
      vertex 20 119.3933 8.725
    endloop
  endfacet
  facet normal -1 0 0
    outer loop
      vertex 2 2 0
      vertex 2 90.04499 8.725
      vertex 2 90.04499 0
    endloop
  endfacet
  facet normal -1 0 0
    outer loop
      vertex 2 2 0
      vertex 2 2 2.8
      vertex 2 90.04499 8.725
    endloop
  endfacet
  facet normal -1 0 0
    outer loop
      vertex 2 90.04499 0
      vertex 2 119.3933 8.725
      vertex 2 119.3933 0
    endloop
  endfacet
  facet normal -1 0 0
    outer loop
      vertex 2 90.04499 0
      vertex 2 90.04499 8.725
      vertex 2 119.3933 8.725
    endloop
  endfacet
  facet normal 1 0 0
    outer loop
      vertex 20 2 0
      vertex 20 90.04499 0
      vertex 20 90.04499 8.725
    endloop
  endfacet
  facet normal 1 0 0
    outer loop
      vertex 20 2 0
      vertex 20 90.04499 8.725
      vertex 20 2 2.8
    endloop
  endfacet
  facet normal 1 0 0
    outer loop
      vertex 20 90.04499 0
      vertex 20 119.3933 0
      vertex 20 119.3933 8.725
    endloop
  endfacet
  facet normal 1 0 0
    outer loop
      vertex 20 90.04499 0
      vertex 20 119.3933 8.725
      vertex 20 90.04499 8.725
    endloop
  endfacet
  facet normal 0 -1 0
    outer loop
      vertex 20 2 0
      vertex 2 2 2.8
      vertex 2 2 0
    endloop
  endfacet
  facet normal 0 -1 0
    outer loop
      vertex 20 2 0
      vertex 20 2 2.8
      vertex 2 2 2.8
    endloop
  endfacet
  facet normal 0 1 0
    outer loop
      vertex 2 119.3933 0
      vertex 20 119.3933 8.725
      vertex 20 119.3933 0
    endloop
  endfacet
  facet normal 0 1 0
    outer loop
      vertex 2 119.3933 0
      vertex 2 119.3933 8.725
      vertex 20 119.3933 8.725
    endloop
  endfacet
endsolid ramp_face_2_level_13
